<?xml version="1.0" encoding="utf-8"?>
<!-- Generator: Adobe Illustrator 21.1.0, SVG Export Plug-In . SVG Version: 6.00 Build 0)  -->
<svg version="1.1" id="Слой_1" xmlns="http://www.w3.org/2000/svg" xmlns:xlink="http://www.w3.org/1999/xlink" x="0px" y="0px"
	 viewBox="0 0 200 200" style="enable-background:new 0 0 200 200;" xml:space="preserve">
<style type="text/css">
	.st0{fill:#D3D4D6;}
	.st1{fill:#FFFFFF;}
	.st2{fill:#FFD500;}
	.st3{fill:#E2001A;}
	.st4{fill:#006D2B;}
</style>
<path class="st0" d="M100.3,0c0,0-14.9-0.1-28.2,2.2C58.8,4.6,50.8,2.7,46.5,0.3C35.5,4.6,23.2,9.8,23.2,9.8s0,7.1-5.7,14.2
	c-5.7,7.1-9.5,12.3-9.5,12.3S21.4,47.8,19.9,53c-1.4,5.2-17.6,56.5-3.8,84.4s34.9,44,61.7,49.3c14.2,2.9,22.8,13.3,22.8,13.3
	s8.4-10.5,22.7-13.3c26.7-5.3,47.9-21.3,61.7-49.3c13.7-28-2.4-79.2-3.8-84.5c-1.4-5.2,11.9-16.6,11.9-16.6s-3.8-5.2-9.5-12.3
	c-5.8-7.1-5.7-14.2-5.7-14.2s-12.3-5.2-23.2-9.5c-4.3,2.4-12.4,4.3-25.7,1.9C115.6-0.2,100.3,0,100.3,0z"/>
<path d="M16.2,34c4.9-6.2,9.8-11.7,11.2-20.2c3.8-1.6,11.5-4.8,18.9-7.7c5.6,2.4,14.2,3.6,26.6,1.4c12.9-2.3,27.4-2.1,27.4-2.1
	c15.7-0.2,41.1,6.5,54.4,0.6c7.4,2.9,15.1,6.1,18.9,7.7c1.4,8.4,6.3,14,11.3,20.2L16.2,34L16.2,34z"/>
<path class="st1" d="M47.3,26.9H35.8l-1.6,2.4h-6.3L38,15.1l7.5-0.9l9.3,14.2V12.8c0,0,14.3-1.2,18.4-1.2c4.1,0,4.5,2.2,4.5,4.9
	s-2.2,3.6-2.5,3.6c-0.3,0-0.2,0.4,0,0.4c0.2,0,2.9-0.1,2.9,2v3.3l8.3-15.3l7.6-0.1l8.9,17.5V10.8c0,0,15,0.4,18.5,0.7s4,2.5,4,2.5
	l0-2.1c0,0,6.8,0.2,15.8,0.9c9,0.7,14.1,1.4,14.1,1.4v6l12.3,1.2v-5l5.6,0.9v11.8h-5.6v-4.2c0,0-1.7-0.3-5.7-0.5
	c-4-0.2-6.7-0.3-6.7-0.3v5h-5.7V17.9c0,0-1.7-0.3-5.3-0.5c-3.6-0.2-5.4-0.2-5.4-0.2v12H133V16.5h-7.5v1.2c0,5-2.7,5.2-3.1,5.2
	c-0.4,0-0.2,0.3,0,0.3s2.8-0.2,2.8,1.8v4.2h-5.7v-2.4c0,0,0.5-1.7-2.3-1.7h-8.9l0,4.1l-11.5,0l-1.5-3H83.9l-1.6,3l-6.1,0
	c0,0-0.1-0.1,0-1c-1.7,1.4-3.1,1.1-3.1,1.1l-24.4,0L47.3,26.9z"/>
<polygon points="92.7,22.5 89.3,15.7 85.6,22.5 "/>
<path d="M59.9,16.7c0,0,8.2-0.5,10.2-0.5c2,0,1.3,2.7,0,2.8c-1.3,0.1-10.2,0.2-10.2,0.2S59.9,16.7,59.9,16.7z"/>
<path d="M59.6,23.2c0,0,7.7-0.3,10.3-0.4c2.6-0.1,1.8,2.9,0.2,2.9H59.5L59.6,23.2z"/>
<polygon points="37.3,24 44.4,23.6 41,18.3 "/>
<path class="st2" d="M182.4,41.3c-3.6,4.1-6.9,9.2-5.6,13.7c1.3,4.8,2.8,10.2,4.1,16L161,80.1c-0.1,0-0.1-0.1-0.1-0.1l-26.8-31.3
	c-0.1-0.1-0.6-0.2-0.7-0.2l-41.5,4c-0.9,0.1-1.1,1-0.2,1.4l26,11.7l-13,5.7c-0.8,0.4-0.7,1.3,0.2,1.4l25.6,3.8
	c0.1,0,0.5-0.1,0.6-0.2l9-7.7l4.7,9.9l-30.5,7.8c-0.3,0.1-0.6,0.5-0.6,0.8c0,0,1.7,8.5,2.6,12.1l-9.3-10.5c-1.3-1.5-5.6,5-6.5,6
	l-8.9,0.3c-0.4,0-0.8,0.4-0.7,0.9l1.8,13.1l-6.7-9.1c-0.2-0.3-0.7-0.4-1-0.2l-25.8,18.2l-5.1-10.2l11.6-1.8c0.1,0,0.5-0.2,0.5-0.3
	L80.1,84c0.5-0.8-0.2-1.5-1-1.1l-12.6,6.7L74.9,62c0.3-0.9-0.6-1.4-1.2-0.8L44.1,89.4c-0.1,0.1-0.2,0.5-0.2,0.7l6.2,40.3
	c0,0.1,0,0.1,0,0.2l-26.6,12.1c-1.2-2-2.2-4.1-3.3-6.3c-10.8-22-2.2-58.6,4.1-81.3c1.2-4.5-2.1-9.7-5.7-13.8L182.4,41.3L182.4,41.3
	L182.4,41.3z"/>
<path class="st3" d="M181.3,72.5c4.8,21.2,8,46.8-0.3,63.8c-13.2,26.8-33.3,41.9-58.5,47c-8.2,1.6-15.8,5.7-21.8,11.3
	c-6.1-5.6-13.7-9.6-21.9-11.3c-22.8-4.6-41.4-17.3-54.5-39.4l67.6-30.8l-6.6,9.1l-2.7,0c-0.9,0-1.2,0.8-0.4,1.4l5.3,3.4
	c0.2,0.2,0.7,0.1,0.9-0.1l8.3-8.5l1.6,2l-7.8,8.5c-0.2,0-5.1,0.2-2.9,1.7l4.9,3.3c0.2,0.2,0.7,0.1,1,0l8.5-8.5l1.5,2l-7.7,8.4h-2.6
	c-3.1,0,4.1,6.3,5.3,5.1l8.6-8.7l1.7,2.3l-7.1,8.3l-3,0c-0.9,0-1.2,0.8-0.4,1.4l4.8,3.3c0.3,0.2,0.8,0.1,1-0.1l8.3-8.3
	c0.1,0.2,0.3,0.5,0.5,0.7c-0.1,0.1-0.1,0.2-0.1,0.3l-0.5,12.4c0,0.1,0,0.2,0.1,0.3c-0.3,0-0.5,0-0.7,0.2l-7.8,9
	c-0.1,0.1-0.2,0.5-0.2,0.7l0,0.3c-0.1-0.1-0.3-0.1-0.6,0L92,166.2c-0.1,0-0.4,0.3-0.4,0.4l-0.2,0.4c0-0.3-0.1-0.5-0.3-0.7l-13.7-8.8
	c-0.2-0.2-0.8-0.1-1.6,0.1l0.7-0.3c0.2-0.1,0.5-0.5,0.5-0.8l-2.5-23.8c-0.1-1-1.1-1.1-1.4-0.2l-9.2,28.3c-0.3,0.7,0.2,1.2,1,0.9
	l8.7-3.3c-1.3,0.7-2.1,1.5-1.4,2.1c5.5,4.7,20.9,20.1,19.5,15.1l-0.1-0.3c0.4,0.6,0.8,1,1.1,0.9l17-3c0.8-0.1,1-0.7,0.4-1.2l0.6,0
	c0.3,0.2,0.8,0.2,1-0.1l14.5-16c0.4-0.4,0.3-0.9,0-1.1c0.3,0,0.7-0.4,0.7-0.7l0.4-18.7c0-0.7-0.4-1-1-0.7l0.6-0.4
	c0.7-0.5-0.1-2.3-0.2-2.5l11.8-0.5c1.5-0.1,1.1-6,1.2-6.5c0-0.9-0.7-1.2-1.3-0.6l-1.7,1.9l-11.4,0.5l-0.8-3l12.4-0.9
	c1.5-0.1,0.9-5.9,1-6.5c0.1-2.4-2.8,0.9-3.2,1.3l-11.7,0.2l-0.7-2.6l12.6-0.7c1.5-0.1,1.3-6.5,1.3-6.5c0.2-2.4-2.9,0.8-3.3,1.2
	l-12.2,0.2l-0.7-2.5l13-0.7c0.3,0,0.6-0.3,0.7-0.6l1.2-6.3c0.2-0.9-0.7-1.3-1.3-0.6l-1.5,1.8c-6,0-9.7-0.1-12.2,0L181.3,72.5z"/>
<path class="st3" d="M187,36.7c-1,1-2.2,2.2-3.5,3.5H131v-5.1h54.8C186.2,35.6,186.6,36.1,187,36.7z"/>
<path class="st4" d="M70,40.2H17.5c-1.2-1.3-2.4-2.5-3.4-3.4c0.4-0.6,0.8-1.1,1.2-1.6H70V40.2L70,40.2z"/>
<rect x="70" y="35.1" class="st1" width="61.1" height="5"/>
<path d="M113.4,139.9l6.9-0.2l6.2-4.3l-0.4,18.7l-9,0.7l-4.2-2.5L113.4,139.9z M112.1,153.3l4.1,2.6l9.4-0.5l-14.5,16l-5.7-4.8
	l-1.1-4.4L112.1,153.3z M103.3,163.4l1.1,4.3l5.1,4.8l-17,3l-2-4.7l1.7-3.8L103.3,163.4z M90.7,167l-1.3,3.8l1.5,5.1l-18.3-15.8
	l4.4-1.9L90.7,167z M73.8,132.8l2.5,23.9l-11.7,4.4L73.8,132.8z M122.3,118.6l12.6-0.2l2.1-2.1l-0.2,5.8l-13.2,0.9l1.2,4.4l12.2-0.5
	l2-2.1l-0.4,5.8l-12.7,0.5l0.7,2.6l-6.7,4.4l-6.5,0.9l-1-1.3l-8.9,8.9l-4.8-3.3l3.4,0l7.7-9l-2.6-3.4l-9.2,9.3l-4.7-3.8H96l8.3-9
	l-2.4-3.2l-9.1,9.1l-5-3.3l2.9-0.3l8.4-9.2l-2.4-3.3l-8.9,9.2l-5.3-3.4l3,0.1l7.6-10.6l24.3-11.1l14.8-0.1l1.8-2.1l-1.2,6.3
	l-13.9,0.8l1.1,4l13.1-0.2l2.2-2l-0.6,5.8l-13.5,0.8L122.3,118.6z M85.6,100.5l7.7,10.5l-42.5,19.4L44.6,90l29.6-28.2l-8.9,29.4
	l14.2-7.5l-13.8,21.8l-12.6,1.9l5.9,11.8L85.6,100.5z M106.6,89.4l9.8,11.1l-22.5,10.3L91.8,96l9.3-0.3L106.6,89.4z M160.3,80.5
	L117,100.2l0,0l-2.5-13l31.3-8.1l-5.5-11.6l-9.7,8.3L105,72l14.5-6.4L92,53.2l41.5-4L160.3,80.5z"/>
<path d="M108.1,15.8v4.9c0,0,6.3,0.1,8.9,0.1c2.7,0,2.4-1.1,2.4-2.1c0-1,0.3-2.7-2.6-2.7C114.1,16.1,108.1,15.8,108.1,15.8z"/>
</svg>
