<?xml version="1.0" encoding="utf-8"?>
<!-- Generator: Adobe Illustrator 21.1.0, SVG Export Plug-In . SVG Version: 6.00 Build 0)  -->
<svg version="1.1" id="Layer_1" xmlns="http://www.w3.org/2000/svg" xmlns:xlink="http://www.w3.org/1999/xlink" x="0px" y="0px"
	 viewBox="0 0 2500 2500" style="enable-background:new 0 0 2500 2500;" xml:space="preserve">
<style type="text/css">
	.st0{fill:#1E1D51;}
	.st1{fill:url(#SVGID_1_);}
	.st2{fill:url(#SVGID_2_);}
	.st3{fill:url(#SVGID_3_);}
	.st4{fill:#FFF38D;}
	.st5{fill:#9D0D16;}
	.st6{fill:url(#SVGID_4_);}
	.st7{fill:url(#SVGID_5_);}
</style>
<path class="st0" d="M2439.7,1250c0,657.1-532.6,1189.7-1189.7,1189.7S60.3,1907,60.3,1250C60.3,592.9,593,60.3,1250,60.3
	S2439.7,592.9,2439.7,1250z"/>
<linearGradient id="SVGID_1_" gradientUnits="userSpaceOnUse" x1="-1338.1306" y1="-1550.4886" x2="-935.7767" y2="-457.8975" gradientTransform="matrix(1.3227 0 0 1.3227 2523.4956 2743.019)">
	<stop  offset="0" style="stop-color:#FFFFFF"/>
	<stop  offset="1" style="stop-color:#53EEEF"/>
</linearGradient>
<path class="st1" d="M1245.4,415c-101.6,1.9-199.1,20-289.7,51.6v653.1h289.7V415z M718.4,609.6C567.3,737.8,460.8,914.7,424.6,1115
	h293.8V609.6z M945.4,1351.4v682.8c93,31.6,193,49.6,297.3,51.5v-734.3H945.4z M423.6,1353.3c30.1,213.4,138.9,402.1,296.7,537v-537
	H423.6z"/>
<linearGradient id="SVGID_2_" gradientUnits="userSpaceOnUse" x1="-942.9634" y1="-1726.1587" x2="-521.8345" y2="-519.0827" gradientTransform="matrix(1.3227 0 0 1.3227 2523.4956 2743.019)">
	<stop  offset="0" style="stop-color:#2F7FBE"/>
	<stop  offset="1" style="stop-color:#225D8B"/>
</linearGradient>
<path class="st2" d="M1266.4,423.4c448.9,8.8,810.2,375.6,810.2,826.6c0,451-361.3,817.7-810.2,826.4V423.4z"/>
<linearGradient id="SVGID_3_" gradientUnits="userSpaceOnUse" x1="693.859" y1="-1703.3751" x2="1242.5891" y2="-638.697" gradientTransform="matrix(1.3501 0 0 1.3404 -383.5026 2951.8994)">
	<stop  offset="0" style="stop-color:#D50D16"/>
	<stop  offset="0.5" style="stop-color:#880D16"/>
	<stop  offset="1" style="stop-color:#520D16"/>
</linearGradient>
<path class="st3" d="M934.1,477v661.3h306.8v195.2H934.1v691.3c-70.4-29-136.5-67.5-196.6-114.2v-577.1H417.9
	c-2.7-27.4-4.1-54.9-4.1-82.5c0-37.7,2.5-75.4,7.6-112.7h316v-547C797.6,544.5,863.7,506,934.1,477L934.1,477z"/>
<path class="st4" d="M715.4,1880.5"/>
<path class="st5" d="M1475.7,701.8h284.4v39.7h-284.4V701.8z"/>
<linearGradient id="SVGID_4_" gradientUnits="userSpaceOnUse" x1="534.2386" y1="-1845.9756" x2="1757.4127" y2="-801.2355" gradientTransform="matrix(1.3227 0 0 1.3227 -314.0425 2959.2644)">
	<stop  offset="0" style="stop-color:#F8FFBF"/>
	<stop  offset="0.509" style="stop-color:#F8E45E"/>
	<stop  offset="0.75" style="stop-color:#F8D35E"/>
	<stop  offset="1" style="stop-color:#EE8E0A"/>
</linearGradient>
<path class="st6" d="M1253.5,0c-432.8-0.7-854.2,223.5-1086,625c-345,597.5-140,1362.5,457.5,1707.4
	c597.5,345,1362.5,140,1707.4-457.5c345-597.5,140-1362.5-457.5-1707.4C1678.9,54.3,1464.8,0.4,1253.5,0L1253.5,0z M1250,60.3
	c656.7,0,1189.7,533,1189.7,1189.7c0,656.7-533,1189.7-1189.7,1189.7c-656.7,0-1189.7-533-1189.7-1189.7
	C60.3,593.3,593.3,60.3,1250,60.3z M1178.4,101.9v246.6h75.1v-83.1l60.7,83.1l98.9,14.5l-85.7-110.7c18.8-3.9,54.1-23.9,54.1-65.9
	c0-63-56.7-83.1-92.3-83.1L1178.4,101.9L1178.4,101.9z M1273.3,156c20.4,0,34.9,13.9,35.6,29c0.7,15.2-9.8,31.6-32.9,31.6h-23.8
	l-1.3-59.3L1273.3,156z M1627.5,170c-1.3,0-2.7,0-4,0c-64.8,1.3-119.6,40.6-132.8,104.8c-13.1,63.9,45,139.6,116,155.7
	c77,17.5,148.9-19.1,165.1-102.1c13.9-71.1-38.4-140.9-115.9-155.7C1646.4,171,1636.9,170.1,1627.5,170L1627.5,170z M718.2,235.1
	L651,270.7l31.6,278.2l71.2-52.7l-9.2-42.2l77.8-46.2l35.6,26.4l81.8-32.9L718.2,235.1L718.2,235.1z M1629.3,238.2
	c4.6,0,9.2,0.4,13.9,1.3c37.4,7.1,61.2,39.5,54.6,73.8c-6.5,34.3-40.9,57.7-78.4,50.6c-37.4-7.1-55.9-43.4-49.4-77.7
	C1575.8,256.1,1597.3,238.1,1629.3,238.2z M720.8,323.5l56.7,43.5l-40.9,23.7L720.8,323.5z M1974.8,359.1l-211,146.4l62,48.8
	l101.6-79.1L1875.9,603l26.4,25l129.3-52.7l-77.8,105.5l47.5,67.2l149-213.6l-47.5-56.7l-121.3,48.8l48.8-122.6L1974.8,359.1z
	 M1250,390.2c-474.4,0-859.8,385.4-859.8,859.8c0,474.4,385.4,859.7,859.8,859.7c474.4,0,859.8-385.3,859.8-859.7
	C2109.8,775.6,1724.4,390.2,1250,390.2z M462.4,418.4L359.6,537.1l179.3,159.5l50.1-58l-68.6-60.7l50.1-54.1L527,484.3l-50.1,55.4
	l-25-23.7l54.1-59.4L462.4,418.4z M1233.4,423.4v682.3H965.9V473.4C1049.6,442.7,1139.6,425.2,1233.4,423.4L1233.4,423.4z
	 M1266.4,423.4c314.8,6.2,586.5,188.4,720.8,452.4c-1.7-2.3-3.5-4.6-5.3-6.8c-32.9-40.9-74.3-67.9-109.6-90.6
	c-2.8-1.8-6.1-2.7-9.4-2.6c-5.1,0.1-9.9,2.7-12.9,6.9c-8.2,11.4-23.7,20.8-43.9,20.8h-152.3c-7.6,0-14.9,2.1-21.2,6.6
	c-6.3,4.5-11.8,12.6-11.8,22.2v17.4c-0.1,0.1-0.2,0.4-0.9,0.9c-1.5,1.1-4.4,2.4-7.7,2.4h-131.2l0.1-11v-0.2
	c0-20-10.2-38.1-25.9-49.6l-0.2-0.2l-0.2-0.1l-57.4-38.9l-0.1-0.1l-0.1,0c-9.1-6-19.3-8.9-29-8.7c-3.2,0.1-6.3,0.5-9.4,1.2
	c-12.1,3-22,10.6-28.3,20.4c-12.7,19.5-9.8,50.4,14.7,67.9l26.9,20.6l0.2,0.2l0.2,0.1c5.7,4.1,8.8,8.9,8.8,10.3l-0.7,43.6v0.2
	c0,0.5-0.1,0.7-0.1,0.9c-0.8,0-2.2-0.2-5.2-1.2c-6.4-2.1-11.2-4.8-18.7-7.6c-7.5-2.8-17.1-5.1-29.5-5.1c-21.8,0-39.7,9.8-51,22.9
	c-3.8,4.4-7.1,9.3-9.7,14.6L1266.4,423.4L1266.4,423.4z M932.8,486.3v652.5h300.5v192.6H932.8v682.2
	c-69-28.7-133.8-66.6-192.6-112.7v-569.5H427.2c-2.6-27-4-54.2-4-81.4c0-37.2,2.5-74.4,7.4-111.2h309.6V599.1
	C799.1,552.9,863.9,515,932.8,486.3z M1493.3,613.4c-13.5,0-24.5,11-24.5,24.5c0,13.5,11,24.5,24.5,24.5c13.5,0,24.5-11,24.5-24.5
	C1517.8,624.4,1506.8,613.4,1493.3,613.4z M1555.6,613.4c-13.5,0-24.5,11-24.5,24.5c0,13.5,11,24.5,24.5,24.5
	c13.5,0,24.5-11,24.5-24.5C1580.1,624.4,1569.1,613.4,1555.6,613.4z M1617.9,613.4c-13.5,0-24.5,11-24.5,24.5
	c0,13.5,11,24.5,24.5,24.5c13.5,0,24.5-11,24.5-24.5C1642.4,624.4,1631.4,613.4,1617.9,613.4z M1680.2,613.4
	c-13.5,0-24.5,11-24.5,24.5c0,13.5,11,24.5,24.5,24.5c13.5,0,24.5-11,24.5-24.5C1704.7,624.4,1693.7,613.4,1680.2,613.4z
	 M1742.5,613.4c-13.5,0-24.5,11-24.5,24.5c0,13.5,11,24.5,24.5,24.5c13.5,0,24.5-11,24.5-24.5C1767,624.4,1756,613.4,1742.5,613.4z
	 M707.2,626.4v479.3H435.8C469.2,915.7,567.6,748,707.2,626.4z M1475.7,677.3V717h284.4v-39.7H1475.7z M1475.7,730.8v39.7h284.4
	v-39.7H1475.7z M2267.5,730.9l-224.2,91l63.3,147.7l59.3-25l-32.9-75.2l27.7-13.2l31.7,72.5l54-22.4l-30.3-69.9l26.4-11.9l31.6,75.1
	l55.4-22.4L2267.5,730.9z M219.8,758.6l-31.6,69.9L407,930l69.9-142.4l-54.1-27.7l-42.2,73.9L219.8,758.6z M1369.1,777
	c2.6-0.2,5.7,0.5,9.8,3.3l57.2,38.8c7.1,5.2,11.9,14.8,11.9,22.6l-0.7,53.6v0.2c0,21.1,10.7,39.1,24.5,51.7
	c8.1,7.4,17.4,13.3,27.4,16.8c-10,3.6-19.3,9.4-27.4,16.8c-13.8,12.6-24.5,30.6-24.5,51.7v0.2l0.7,53.8c0,7.8-5.2,17.5-12.4,22.7
	l-56.9,38.6c-5.5,3.6-8.9,3.6-12.1,2.8c-3.2-0.8-6.3-3.1-8.5-6.3c-4.3-6.5-6.1-14.1,6.2-22.9l0.2-0.2l0.2-0.2l27.4-20.9
	c9.3-6.6,22.2-17.7,22.2-36.9v-0.2l-0.7-43.9c0-9.4-3.4-19.9-12.8-27.1c-9.5-7.2-23-8-35.9-3.8c-9.2,3-15.3,6.3-20.1,8.1
	c-4.8,1.8-8.9,2.9-17.8,2.9c-12.5,0-20.1-4.7-25.9-11.4c-5.8-6.7-8.7-16.1-8.7-22.2v-3.3c0-6.1,3-15.5,8.7-22.2
	c5.8-6.7,13.4-11.4,25.9-11.4c8.9,0,13,1.1,17.8,2.9c4.8,1.8,10.9,5.1,20.1,8.1c12.9,4.2,26.4,3.4,35.9-3.8
	c9.5-7.2,12.8-18,12.8-27.3l0.7-43.6v-0.2c0-19.1-13.4-30.5-22.6-37.2l-26.9-20.6l-0.2-0.2l-0.2-0.2c-12.3-8.8-10.5-16.4-6.2-22.9
	c2.1-3.3,5.3-5.5,8.5-6.3C1367.5,777.2,1368.3,777.1,1369.1,777z M1866,813.7c31.6,20.7,64.5,44,90.1,75.9
	c28.8,35.8,49.2,81.9,49.2,149.8c0,127.6-119.1,230-233.7,230h-276.9c-7.9,0-15.9,3.6-20.8,9.2c-4.9,5.6-6.8,12.3-6.8,18.7
	c0.1,6.4,2.1,13,6.9,18.5c4.8,5.5,12.7,9.1,20.6,9.1h270.3c97.2,0,149,62.6,149,136.4c0,72-53.8,139.6-148.3,139.6h-278.5
	c-6.8,0-13.9,3.1-18.4,8c-4.4,4.9-6.3,10.9-6.2,16.6c0,5.7,1.9,11.6,6.3,16.5c4.4,4.8,11.5,7.9,18.3,7.9h207.3
	c44.6,0,82.6,43.5,82.6,85c0,21.1-6,40.5-19.2,54.6c-13.2,14.1-34.4,24.4-69.9,24.4h-124.3c-5,0-10.2,1.1-15,4.5
	c-4.8,3.5-8.7,10.1-8.5,16.9c0.2,6.9,4.2,12.8,8.8,16c4.6,3.3,9.7,4.5,14.7,4.5h82.5c11.6,0,20.2,5.1,27,13.4
	c6.8,8.3,10.7,19.8,10.7,29.1c0,11.5-4.3,22.2-11.8,28.9c-4.9,4.3-11.6,7.3-20.9,8.1c0.5-4.8,0.5-10.2-2.6-16.6
	c-3.8-7.7-14.3-13.8-23.2-13.8h-49.5c-17.2,0-36.2-6.5-50.3-18.8c-14.1-12.3-23.7-29.7-23.7-54.7c0-23,9.6-39.4,23.3-51.2
	c13.6-11.8,31.8-17.9,45.1-17.9h121.6c5.5,0,10.8-0.9,16-4.1c5.1-3.1,10.4-9.6,10.4-17.8c0-8.1-5.3-14.7-10.4-17.8
	c-5.1-3.1-10.4-4-15.9-4h-190.5c-73.3,0-114.1-51.9-114.1-107.8c0-49.9,42.7-109,107.5-109h283.5c7.7,0,15.7-3.6,20.4-9.1
	c4.7-5.5,6.6-12,6.5-18.3c0-6.2-2-12.7-6.7-18.1c-4.7-5.4-12.5-9.1-20.3-9.1h-288.8c-80.7,0-144.6-59.9-144.6-150.2
	c0-75.5,61.8-152.9,153.1-152.9h261.7c14.3,0,27.1-6.4,34.9-15.8c7.9-9.4,11.3-20.9,11.4-32.3c0.1-11.4-3.3-23-11.2-32.4
	c-7.9-9.4-20.8-15.8-35.1-15.8h-279.2l-0.2-15.7c0-9.7,5.3-19.4,13.7-27.1c8.4-7.7,19.8-12.1,26.7-12.1h156.5c6.1,0,12-1.4,17.9-5.5
	c5.9-4.1,11.4-12.8,11.4-23.7c0-11.3-3.3-16.9-11.4-23.7c-5.9-4.1-11.9-5.5-17.9-5.5h-156.5c-6.9,0-18.3-4.4-26.7-12.1
	c-8.4-7.7-13.7-17.6-13.7-27.2l0.1-9.6h191c10.6,0,20.2-3.4,27.8-9.2c7.6-5.8,13.8-14.8,13.8-26v-14.2h92.9
	C1830.1,836.4,1851,827.5,1866,813.7L1866,813.7z M2034.6,988.9c27.3,82.1,42.1,169.9,42.1,261.1c0,288.8-148.1,543-372.5,690.8
	c8.8-12.5,12.9-27.5,12.9-42.3c0-17.7-6.3-35.6-18.3-50.1c-0.5-0.6-1-1.1-1.5-1.7c37.6-1.8,66.2-14.5,84.9-34.5
	c20.2-21.5,28.1-49.8,28.1-77.3c0-40.5-22.7-79.4-57-100.9h12.6c110.8,0,181.4-83.7,181.4-172.7c0-75.5-49.1-143.1-130.7-163.2
	c117.2-22,222-127.5,222-258.7C2038.5,1021.5,2037.1,1004.7,2034.6,988.9L2034.6,988.9z M1266.4,994.8c2.6,5.2,5.9,10.1,9.7,14.6
	c11.2,13.1,29.2,22.9,51,22.9c12.4,0,22-2.3,29.5-5.1c7.5-2.8,12.3-5.5,18.7-7.6c3-1,4.5-1.2,5.2-1.2c0,0.2,0.1,0.4,0.1,0.9v0.2
	l0.7,43.9c0,1.3-3.1,6-8.8,10l-0.2,0.1l-0.2,0.2l-27.3,20.9c-24.5,17.5-27,48-14.3,67.6c5.4,8.3,13.4,15.1,23.1,18.7
	c-26.5,33.2-41.6,74.6-41.6,116.2c0,91.8,59.6,161.5,138.5,178.9c-59.2,20.2-96.2,79.3-96.2,134.8c0,72.8,57.7,140.9,147.2,140.9
	h6.5c-1.5,1.1-2.9,2.2-4.3,3.4c-19.8,17.1-34.7,43.5-34.7,76.3c0,34,14.4,61.6,35,79.6c20.6,18,46.8,26.9,72.1,26.9h41.4
	c-0.9,3-1.8,5.8-1.8,5.8c-3.7,8.4,0.1,18.1,8.5,21.8c1.1,0.5,2.3,0.9,3.4,1.1c11.8,2.3,23,2.5,33.1,0.8
	c-116.5,66.8-250.9,106.1-394.1,108.9V994.8z M375.4,1023.6L118.2,1108l-9.2,76.5l244,131.9l-1.3-88.3l-36.9-17.1l5.5-90.8
	l43.2-10.8L375.4,1023.6L375.4,1023.6z M2266.2,1031.5c-86.1,0-129.2,70.5-129.2,141.1c0,70.5,51,141.1,129.2,141.1
	c78.1,0,130.5-64,130.5-141.1C2396.7,1096.8,2350.9,1031.5,2266.2,1031.5z M1481,1081h278.9c5.6,0,7.7,1.5,9.8,4
	c2,2.4,3.5,6.6,3.5,11.1c0,4.5-1.6,8.7-3.7,11.2c-2.1,2.5-4.2,4-9.6,4h-261.7c-8,0-15.8,0.5-23.4,1.4c4-8.1,6.3-17,6.3-26.4v-0.2
	L1481,1081z M2267.8,1108c37.9,0,60.1,35.4,60.1,64.6c0,28.5-22.9,64.6-60.1,64.6c-37.1,0-58.7-31.3-58.7-64.6
	C2209.1,1139.3,2229.9,1108,2267.8,1108z M262.5,1134.6l-3.1,50.6l-69.9-32.4L262.5,1134.6z M431.1,1364.5h276.1v509
	C560.4,1745.6,459.1,1566.7,431.1,1364.5z M965.9,1364.5h267.5v712c-93.8-1.8-183.8-19.4-267.5-50V1364.5z"/>
<path class="st5" d="M1369.1,777c2.6-0.2,5.7,0.5,9.8,3.3l57.2,38.8c7.1,5.2,11.9,14.8,11.9,22.6l-0.7,53.6v0.2
	c0,21.1,10.7,39.1,24.5,51.7c8.1,7.4,17.4,13.3,27.4,16.8c-10,3.6-19.3,9.4-27.4,16.8c-13.8,12.6-24.5,30.6-24.5,51.7v0.2l0.7,53.8
	c0,7.8-5.2,17.5-12.4,22.7l-56.9,38.6c-5.5,3.6-8.9,3.6-12.1,2.8c-3.2-0.8-6.3-3.1-8.5-6.3c-4.3-6.5-6.1-14.1,6.2-22.9l0.2-0.2
	l0.2-0.2l27.4-20.9c9.3-6.6,22.2-17.7,22.2-36.9v-0.2l-0.7-43.9c0-9.4-3.4-19.9-12.8-27.1c-9.5-7.2-23-8-35.9-3.8
	c-9.2,3-15.3,6.3-20.1,8.1c-4.8,1.8-8.9,2.9-17.8,2.9c-12.5,0-20.1-4.7-25.9-11.4c-5.8-6.7-8.7-16.1-8.7-22.2v-3.3
	c0-6.1,3-15.5,8.7-22.2c5.8-6.7,13.4-11.4,25.9-11.4c8.9,0,13,1.1,17.8,2.9c4.8,1.8,10.9,5.1,20.1,8.1c12.9,4.2,26.4,3.4,35.9-3.8
	c9.5-7.2,12.8-18,12.8-27.3l0.7-43.6v-0.2c0-19.1-13.4-30.5-22.6-37.2l-26.9-20.6l-0.2-0.2l-0.2-0.2c-12.3-8.8-10.5-16.4-6.2-22.9
	c2.1-3.3,5.3-5.5,8.5-6.3C1367.5,777.2,1368.3,777.1,1369.1,777z"/>
<linearGradient id="SVGID_5_" gradientUnits="userSpaceOnUse" x1="-729.8112" y1="-1392.9369" x2="-481.7152" y2="-655.2377" gradientTransform="matrix(1.3227 0 0 1.3227 2523.4956 2743.019)">
	<stop  offset="0" style="stop-color:#157031"/>
	<stop  offset="1" style="stop-color:#0F5324"/>
</linearGradient>
<path class="st7" d="M1866,813.7c31.6,20.7,64.5,44,90.1,75.9c28.8,35.8,49.2,81.9,49.2,149.8c0,127.6-119.1,230-233.7,230h-276.9
	c-7.9,0-15.9,3.6-20.8,9.2c-4.9,5.6-6.8,12.3-6.8,18.7c0.1,6.4,2.1,13,6.9,18.5c4.8,5.5,12.7,9.1,20.6,9.1h270.3
	c97.2,0,149,62.6,149,136.4c0,72-53.8,139.6-148.3,139.6h-278.5c-6.8,0-13.9,3.1-18.4,8c-4.4,4.9-6.3,10.9-6.2,16.6
	c0,5.7,1.9,11.6,6.3,16.5c4.4,4.8,11.5,7.9,18.3,7.9h207.3c44.6,0,82.6,43.5,82.6,85c0,21.1-6,40.5-19.2,54.6
	c-13.2,14.1-34.4,24.4-69.9,24.4h-124.3c-5,0-10.2,1.1-15,4.5c-4.8,3.5-8.7,10.1-8.5,16.9c0.2,6.9,4.2,12.8,8.8,16
	c4.6,3.3,9.7,4.5,14.7,4.5h82.5c11.6,0,20.2,5.1,27,13.4c6.8,8.3,10.7,19.8,10.7,29.1c0,11.5-4.3,22.2-11.8,28.9
	c-4.9,4.3-11.6,7.3-20.9,8.1c0.5-4.8,0.5-10.2-2.6-16.6c-3.8-7.7-14.3-13.8-23.2-13.8h-49.5c-17.2,0-36.2-6.5-50.3-18.8
	c-14.1-12.3-23.7-29.7-23.7-54.7c0-23,9.6-39.4,23.3-51.2c13.6-11.8,31.8-17.9,45.1-17.9h121.6c5.5,0,10.8-0.9,16-4.1
	c5.1-3.1,10.4-9.6,10.4-17.8c0-8.1-5.3-14.7-10.4-17.8c-5.1-3.1-10.4-4-15.9-4h-190.5c-73.3,0-114.1-51.9-114.1-107.8
	c0-49.9,42.7-109,107.5-109h283.5c7.7,0,15.7-3.6,20.4-9.1c4.7-5.5,6.6-12,6.5-18.3c0-6.2-2-12.7-6.7-18.1
	c-4.7-5.4-12.5-9.1-20.3-9.1h-288.8c-80.7,0-144.6-59.9-144.6-150.2c0-75.5,61.8-152.9,153.1-152.9h261.7c14.3,0,27.1-6.4,34.9-15.8
	c7.9-9.4,11.3-20.9,11.4-32.3c0.1-11.4-3.3-23-11.2-32.4c-7.9-9.4-20.8-15.8-35.1-15.8h-279.2l-0.2-15.7c0-9.7,5.3-19.4,13.7-27.1
	c8.4-7.7,19.8-12.1,26.7-12.1h156.5c6.1,0,12-1.4,17.9-5.5c5.9-4.1,11.4-12.8,11.4-23.7c0-11.3-3.3-16.9-11.4-23.7
	c-5.9-4.1-11.9-5.5-17.9-5.5h-156.5c-6.9,0-18.3-4.4-26.7-12.1c-8.4-7.7-13.7-17.6-13.7-27.2l0.1-9.6h191c10.6,0,20.2-3.4,27.8-9.2
	c7.6-5.8,13.8-14.8,13.8-26v-14.2h92.9C1830.1,836.4,1851,827.5,1866,813.7L1866,813.7z"/>
</svg>
