<?xml version="1.0" encoding="utf-8"?>
<!-- Generator: Adobe Illustrator 21.1.0, SVG Export Plug-In . SVG Version: 6.00 Build 0)  -->
<svg version="1.1" id="Layer_1" xmlns="http://www.w3.org/2000/svg" xmlns:xlink="http://www.w3.org/1999/xlink" x="0px" y="0px"
	 viewBox="0 0 325.5 218" style="enable-background:new 0 0 325.5 218;" xml:space="preserve">
<style type="text/css">
	.st0{fill:#FFFFFF;}
	.st1{fill:url(#_170831360_1_);}
</style>
<g id="_0">
	<g id="_42253856">
		<path id="_170829896" d="M162.8,98.9c-0.6,0-1,0.4-1,0.5c0,0-10.6,10.1-10.6,10.1c-3.9,3.7-9,2.2-9.6,2c0,0-45-12.3-45-12.3
			c-8.6-2.6-10.3-5.4-11.6-8.8c0,0-0.8-2.1-2.6-2.7c0,0-55-16.2-55-16.2c-2.2-0.7-3.5-1.3-4.4-3c0,0-3-5.3-3-5.3
			c-0.7-1.3-1.9-1.4-2-1.4c-4.2-0.6-5.4-2.9-5.9-3.9l-2.5-4.3c-0.8-1.3-1.9-1.4-1.9-1.5c-2.4-0.2-3.5-0.7-4.5-2.4c0,0-2.4-4-2.4-4
			C-0.4,43.6,0,42,0.5,41.1c1.1-1.9,3.2-2,4.1-2.1h131.6c3.7,0,6.7,1.1,9,3.4c1.6,1.6,2.7,3.7,3.3,6.2c0,0.1,0.2,0.6,1.3,0.6h26
			c1.1,0,1.3-0.5,1.3-0.6c0.6-2.5,1.7-4.6,3.3-6.2c2.2-2.2,5.2-3.4,9-3.4h131.6c0.8,0,2.9,0.2,4.1,2.1c0.5,0.9,1,2.5-0.2,4.7
			c0,0-2.4,4-2.4,4c-1,1.6-2.1,2.2-4.5,2.4c0,0-1.1,0.1-1.9,1.5l-2.5,4.3c-0.5,1-1.7,3.3-5.9,3.9c-0.1,0-1.3,0.1-2,1.4
			c0,0-3,5.3-3,5.3c-0.9,1.7-2.1,2.3-4.4,3c0,0-55,16.2-55,16.2c-1.9,0.6-2.6,2.7-2.6,2.7c-1.3,3.4-3,6.2-11.6,8.8
			c0,0-45,12.3-45,12.3c-0.6,0.2-5.7,1.8-9.6-2c0,0-10.5-10.1-10.6-10.1C163.8,99.3,163.4,98.9,162.8,98.9L162.8,98.9L162.8,98.9z"
			/>
		<path id="_170829840" class="st0" d="M179.4,49.1c0.5-2,1.3-3.7,2.6-5c1.8-1.8,4.2-2.6,7.2-2.6c0,0,29.4,0,60.5,0
			c-2.1,1.6-3.2,3.5-3.2,3.7c-0.7,1.3-1.6,2.8-2.6,4.6h-64.6C179.4,49.4,179.4,49.1,179.4,49.1L179.4,49.1L179.4,49.1z M322.6,44.6
			c0,0.1-2.4,3.9-2.4,3.9c-0.4,0.7-0.7,1.1-2.5,1.2c0,0-71.6,0-71.6,0c0.8-1.4,1.5-2.6,2.1-3.7c0,0,2.6-4.6,7.1-4.6l65.6,0
			c0.7,0,1.6,0.1,2.1,0.9c0.1,0.1,0.2,0.3,0.2,0.7C323.1,43.4,323,43.9,322.6,44.6L322.6,44.6L322.6,44.6z M313.8,52.3l-2.5,4.4
			c-0.3,0.6-0.9,1.7-2.5,2.2c-1.4,0.3-4.2,0.1-5.1,0l-60.9-4c0.8-1.2,1.5-2.3,2.2-3.4h69.4C314.2,51.8,314,52.1,313.8,52.3
			L313.8,52.3L313.8,52.3z M303.5,62c0,0-2.4,4.2-2.9,5.1c-0.1,0.2-0.8,0.9-3,0.6l-58.4-7.8c0.8-1,1.6-2.1,2.3-3.1l62,4.1
			c0.1,0,0.4,0,0.7,0.1C303.9,61.3,303.7,61.6,303.5,62L303.5,62L303.5,62z M283.4,73.3c-2.2,0.6-6.5-0.1-8-0.4
			c0,0-27.4-5.6-40.1-8.2c0.9-1,1.7-2.1,2.5-3.1l58.6,7.9L283.4,73.3L283.4,73.3L283.4,73.3z M263.5,79.2c-2.8,0.8-6.5-0.5-6.5-0.5
			l0,0c0,0,0,0,0,0l-26.8-8.3c1.3-1.4,2.6-2.7,3.8-4l41.2,8.5c0.1,0,0.9,0.2,2.1,0.4L263.5,79.2L263.5,79.2L263.5,79.2z M242.6,85.3
			c-1.9,0.5-4.7-0.6-5.6-1.1c0,0-7.2-3.4-14.6-6.8c2.2-1.8,4.3-3.7,6.2-5.5l27.8,8.6c0.1,0,0.6,0.2,1.3,0.4L242.6,85.3L242.6,85.3z
			 M238.3,89.5c-0.8,2.1-1.7,4.2-7.4,6.4c-2.4,0.7-5.2-1.4-5.2-1.4c0,0-6.4-4.6-13.6-9.7c2.9-1.8,5.8-3.8,8.6-6l15.4,7.2
			c0.1,0,1.7,0.8,3.6,1.2C238.8,88.2,238.3,89.3,238.3,89.5L238.3,89.5L238.3,89.5z M216.8,99.9l-2.1,0.6c-1.8,0.4-4-1.4-4.7-2.1
			c0,0-3.5-3.6-7.9-8.2c2.8-1.3,5.6-2.7,8.3-4.3l14.3,10.2c0.1,0,0.9,0.7,2.1,1.2C223.5,98.1,216.8,99.9,216.8,99.9
			C216.8,99.9,216.8,99.9,216.8,99.9z M197.9,105.1c-1.5,0.2-3.3-2.2-3.8-3.2l-4.3-7.3c3.5-1,6.9-2.2,10.3-3.7l8.4,8.7
			c0.1,0.1,1,1,2.3,1.8L197.9,105.1L197.9,105.1L197.9,105.1z M183.6,109c-1,0.2-1.9,0.1-2.6-0.3c-1.6-1-2.1-3.2-2.1-3.3l-2.2-7.9
			c3.8-0.5,7.6-1.3,11.2-2.3l4.5,7.7c0.2,0.3,1.1,1.9,2.5,3L183.6,109L183.6,109L183.6,109z M174.4,106.1c0,0-6.1-5.8-8.2-7.8
			c2.9-0.1,5.8-0.3,8.6-0.6l2.2,8.1c0.1,0.3,0.5,2.1,1.8,3.5C177.1,108.7,176.6,108.2,174.4,106.1L174.4,106.1z M163.7,96.5V71.8
			h3.9l6.7,24C170.8,96.2,167.3,96.4,163.7,96.5z M151.2,95.8l6.7-24h3.9v24.6C158.2,96.4,154.7,96.2,151.2,95.8L151.2,95.8
			L151.2,95.8z M149.5,107.7c-0.9,0.8-1.8,1.3-2.8,1.6c1.3-1.4,1.7-3.2,1.8-3.5l2.2-8.1c2.8,0.3,5.7,0.5,8.6,0.6
			C156.9,100.5,149.5,107.7,149.5,107.7L149.5,107.7z M146.6,105.3c0,0-0.5,2.3-2.1,3.3c-0.7,0.4-1.6,0.5-2.6,0.3l-11.3-3.1
			c1.4-1.1,2.3-2.7,2.5-3c0,0,1.9-3.2,4.5-7.7c3.7,1,7.4,1.7,11.2,2.2L146.6,105.3L146.6,105.3L146.6,105.3z M127.6,105.1l-13-3.5
			c1.3-0.8,2.3-1.7,2.3-1.8c0,0,3.7-3.9,8.4-8.7c3.3,1.4,6.8,2.6,10.3,3.7l-4.3,7.3C130.8,102.8,129.1,105.3,127.6,105.1
			L127.6,105.1L127.6,105.1z M110.9,100.5l-12-3.3c1.2-0.5,2-1.1,2.1-1.2c0,0,6.7-4.8,14.2-10.2c2.7,1.6,5.5,3,8.3,4.3l-7.9,8.2
			C114.9,99.2,112.7,100.9,110.9,100.5L110.9,100.5L110.9,100.5z M94.6,95.9c-5.7-2.1-6.5-4.3-7.3-6.4c-0.1-0.2-0.5-1.3-1.4-2.3
			c1.9-0.4,3.5-1.2,3.6-1.2c0,0,7.7-3.6,15.4-7.2c2.8,2.2,5.6,4.2,8.6,6l-13.6,9.7C99.8,94.5,96.9,96.6,94.6,95.9z M82.9,85.3
			c-0.6-0.2-7-2-15.2-4.5c0.8-0.2,1.3-0.3,1.4-0.4c0,0,22.6-7,27.8-8.6c1.9,1.9,4,3.7,6.2,5.5l-14.5,6.8
			C87.6,84.8,84.8,85.9,82.9,85.3L82.9,85.3L82.9,85.3z M62,79.2c-4.5-1.3-9.2-2.7-13.6-4c1.2-0.2,2-0.3,2.1-0.4
			c0,0,29.1-6,41.2-8.5c1.2,1.3,2.5,2.7,3.8,4l-26.9,8.3C68.5,78.7,64.8,79.9,62,79.2L62,79.2L62,79.2z M42.1,73.3
			c-6-1.8-11-3.2-13.1-3.8l58.6-7.9c0.8,1,1.6,2,2.5,3.1L50.1,73C48.6,73.3,44.3,73.9,42.1,73.3L42.1,73.3L42.1,73.3z M28,67.7
			c-2.2,0.3-2.9-0.4-3-0.6L22,62c-0.2-0.4-0.4-0.7-0.7-1c0.4,0,62.7-4.2,62.7-4.2c0.7,1,1.5,2,2.3,3.1L28,67.7L28,67.7L28,67.7z
			 M16.7,59c-1.7-0.6-2.2-1.6-2.5-2.2c-1-1.7-2.4-4.3-3-5.2h69.4c0.7,1.1,1.4,2.2,2.2,3.4l-60.9,4C20.9,59.1,18.1,59.3,16.7,59
			L16.7,59L16.7,59z M7.8,49.7c-1.7-0.1-2-0.3-2.6-1.2c0,0-2.2-3.6-2.4-3.9c-0.4-0.7-0.5-1.2-0.5-1.5c0-0.9,0.6-1.6,2.2-1.6l65.6,0
			c4.4,0,7.1,4.6,7.1,4.6c0.6,1.1,1.3,2.3,2.1,3.7L7.8,49.7L7.8,49.7L7.8,49.7z M136.2,41.5c3.1,0,5.5,0.9,7.2,2.6
			c1.3,1.3,2.1,2.9,2.6,5c0,0,0.1,0.3,0.2,0.6H81.6c-1-1.6-2.6-4.6-2.6-4.6c-0.1-0.1-1.2-2.1-3.2-3.7
			C106.8,41.5,136.2,41.5,136.2,41.5L136.2,41.5L136.2,41.5z M229.8,54.1v-2.5h12.9c-0.7,1-1.4,2.1-2.1,3.2L229.8,54.1L229.8,54.1z
			 M229.8,58.7v-2.6l9.4,0.6c-0.7,1-1.4,1.9-2.2,3L229.8,58.7L229.8,58.7z M229.8,63.6v-3l5.8,0.8c-0.8,1-1.6,1.9-2.5,2.9
			C231.7,64,230.5,63.7,229.8,63.6L229.8,63.6z M229.8,65.5l1.9,0.4c-0.6,0.7-1.2,1.4-1.9,2C229.8,68,229.8,65.5,229.8,65.5z
			 M210.3,71.8h15.7c-1.6,1.6-5.4,4.7-5.5,4.8C216.6,74.8,212.9,73,210.3,71.8L210.3,71.8z M194,71.8h11.8l13,6.1
			c-2.7,2.1-5.5,4-8.3,5.7C204.2,79.1,197.5,74.4,194,71.8L194,71.8L194,71.8z M184.4,71.8h6.3l17.9,12.8c-2.6,1.5-5.3,2.9-8,4.1
			C194.7,82.6,187.6,75.1,184.4,71.8L184.4,71.8z M176.4,71.8h5.4l17,17.7c-3.2,1.3-6.5,2.5-9.9,3.4L176.4,71.8L176.4,71.8
			L176.4,71.8z M174.2,71.8L187,93.5c-3.5,0.9-7.1,1.6-10.8,2.1l-6.6-23.8L174.2,71.8L174.2,71.8z M151.3,71.8h4.5l-6.6,23.8
			c-3.7-0.5-7.2-1.2-10.8-2.1C143.3,85.4,149.7,74.5,151.3,71.8L151.3,71.8z M143.8,71.8h5.4l-12.5,21.1c-3.4-0.9-6.7-2.1-9.9-3.4
			C133.6,82.4,141.8,73.9,143.8,71.8L143.8,71.8L143.8,71.8z M134.8,71.8h6.3l-16.2,16.9c-2.7-1.2-5.4-2.6-8-4.1
			C124.6,79.1,132.8,73.3,134.8,71.8L134.8,71.8z M105.1,76.6c-0.1-0.1-3.9-3.3-5.5-4.8h15.7L105.1,76.6L105.1,76.6z M119.7,71.8
			h11.8l-16.5,11.8c-2.9-1.7-5.6-3.6-8.3-5.7C112.9,75,118.6,72.3,119.7,71.8L119.7,71.8L119.7,71.8z M95.6,65.5v2.4
			c-0.6-0.7-1.3-1.3-1.9-2C94.5,65.8,95.2,65.6,95.6,65.5z M95.6,60.6v3l-3.3,0.7c-0.9-1-1.7-2-2.4-2.9L95.6,60.6L95.6,60.6z
			 M95.6,56.1v2.6l-7.2,1c-0.8-1-1.5-2-2.2-3L95.6,56.1L95.6,56.1L95.6,56.1z M95.6,54.1L85,54.8c-0.8-1.1-1.5-2.2-2.1-3.2h12.8
			L95.6,54.1L95.6,54.1L95.6,54.1z"/>
		
			<linearGradient id="_170831360_1_" gradientUnits="userSpaceOnUse" x1="121.4643" y1="172.95" x2="142.4002" y2="152.0141" gradientTransform="matrix(2.628 0 0 -2.628 -183.9686 487.7434)">
			<stop  offset="0" style="stop-color:#339966"/>
			<stop  offset="1" style="stop-color:#004F32"/>
			<stop  offset="1" style="stop-color:#004F32"/>
		</linearGradient>
		<path id="_170831360" class="st1" d="M97.6,69.9C97.6,69.9,97.6,69.9,97.6,69.9l0-18.3h130.4v18.3c0,0,0,0,0,0L97.6,69.9
			L97.6,69.9L97.6,69.9z"/>
		<path id="_171137640" class="st0" d="M106.2,54.5h-0.5L100.1,67h1.5l0-0.1c0.5-1.5,1-3,1.6-4.4c0,0,0.1-0.2,0.1-0.3
			c0.1,0,4.2,0,4.3,0c0.6,1.3,1.2,2.8,1.8,4.7l0,0.1h2.1L106.2,54.5L106.2,54.5L106.2,54.5z M103.8,61.3c0.1-0.3,1.6-3.7,1.8-4.1
			c0.2,0.4,1.7,3.8,1.8,4.1C107,61.3,104.1,61.3,103.8,61.3L103.8,61.3L103.8,61.3z"/>
		<path id="_171199256" class="st0" d="M112.2,66.1L112.2,66.1c0.7,0.8,2.2,1.1,3,1.1c2.6,0,4.4-1.7,4.4-4.1c0-2-1.5-2.6-3-3.2
			c-1.3-0.5-2.5-1-2.5-2.5c0-1.1,0.9-1.9,2.1-1.9c1,0,1.7,0.5,2.1,1.5l0,0.1h0.3l0.5-1.6l-0.1-0.1c-0.7-0.6-1.8-0.9-2.6-0.9
			c-2.4,0-4,1.4-4,3.5c0,2.2,1.6,2.8,3,3.3c1.3,0.5,2.5,1,2.5,2.4c0,1.4-1,2.5-2.3,2.5c-1.2,0-2-0.5-2.8-1.8l0,0h-0.3L112.2,66.1
			L112.2,66.1L112.2,66.1z"/>
		<path id="_171234112" class="st0" d="M129.5,54.8h-9.2V56l0.1,0c1.1-0.1,2.1-0.2,3.7-0.2c0,0.2,0,11.2,0,11.2h1.8c0,0,0-11,0-11.2
			c1.2,0,2.4,0.1,3.5,0.2l0.1,0v-1.3L129.5,54.8L129.5,54.8z"/>
		<path id="_171242176" class="st0" d="M135.8,54.5c-3.9,0-6.6,2.6-6.6,6.4c0,3.8,2.6,6.3,6.6,6.3c4.1,0,6.8-2.6,6.8-6.6
			C142.5,56.4,139.1,54.5,135.8,54.5L135.8,54.5z M139,65c-0.9,0.9-2,1.4-3.2,1.4c-2.8,0-4.7-2.1-4.7-5.3c0-3.6,1.9-5.8,4.8-5.8
			c1.4,0,2.7,0.6,3.6,1.7c0.9,1.2,1.1,2.4,1.1,3.8c0,0.1,0,0.2,0,0.2C140.6,62.2,140.1,63.8,139,65L139,65L139,65z"/>
		<path id="_171242152" class="st0" d="M154.7,54.8h-1.1c0,0,0,8.8,0,9c0,0,0,0,0,0c-0.1-0.1-8.3-9-8.3-9h-0.8V67h1.2
			c0,0,0-9.2,0-9.4c0,0,0,0,0,0c0.1,0.1,7.5,8.4,7.5,8.4l0.9,1.1h0.1h0.6V54.8L154.7,54.8L154.7,54.8L154.7,54.8z"/>
		<path id="_171249360" class="st0" d="M174.5,54.8H174l-3,5.4c0,0-1.9,3.4-2,3.7c-1.8-3-3.5-6.2-4.9-9l0-0.1h-0.6l0,0.1
			c-0.2,1.8-1.2,9.2-1.7,12l0,0.1h1.5v-0.1c0-1.7,0.3-4.3,0.6-7c0,0,0.1-1.2,0.2-1.7c0.2,0.4,2.5,4.8,3.4,6.6l1,2h0.3l0-0.1
			c1-2.3,2.5-5,4.4-8.6c0.3,2.1,0.6,6.3,0.9,8.7l0,0.1h1.9l0-0.1c-0.4-3-0.9-6.9-1.4-12L174.5,54.8L174.5,54.8L174.5,54.8
			L174.5,54.8z"/>
		<path id="_171205240" class="st0" d="M182.8,54.5h-0.5L176.7,67h1.5l0-0.1c0.5-1.5,1-3,1.6-4.4c0,0,0.1-0.2,0.1-0.3
			c0.1,0,4.2,0,4.3,0c0.6,1.4,1.2,2.9,1.8,4.7l0,0.1h2.1L182.8,54.5L182.8,54.5L182.8,54.5z M180.4,61.3c0.1-0.3,1.6-3.7,1.8-4.1
			c0.2,0.4,1.7,3.8,1.8,4.1C183.6,61.3,180.7,61.3,180.4,61.3z"/>
		<path id="_171209080" class="st0" d="M193.6,60.9c2.2-0.4,3.5-1.7,3.5-3.4c0-1.9-1.3-2.8-4-2.8h-3.8V67h1.8c0,0,0-5.6,0-5.9
			c0.1,0,0.4,0,0.5,0c0.1,0.1,1.4,1.6,1.4,1.6c0,0,2.1,2.7,2.1,2.7l1.1,1.6h0.1h2.2C198.4,67,193.8,61.2,193.6,60.9L193.6,60.9
			L193.6,60.9z M191,60.2c0-0.2,0-4.4,0-4.6c0.7,0,1.8-0.1,2.5,0c1.2,0.2,1.8,0.9,1.8,2.1c0,1.2-0.8,2.1-2.2,2.4
			C192.4,60.3,191.4,60.3,191,60.2z"/>
		<path id="_171209056" class="st0" d="M207.2,54.8h-9.2V56l0.1,0c1.1-0.1,2.1-0.2,3.7-0.2c0,0.2,0,11.2,0,11.2h1.8c0,0,0-11,0-11.2
			c1.2,0,2.4,0.1,3.5,0.2l0.1,0v-1.3L207.2,54.8L207.2,54.8L207.2,54.8z"/>
		<polygon id="_171221600" class="st0" points="208.8,67 210.5,67 210.5,54.8 208.8,54.8 		"/>
		<path id="_171224520" class="st0" d="M222.3,54.8c0,0,0,8.8,0,9c0,0,0,0,0,0c-0.1-0.1-8.3-9-8.3-9h-0.8V67h1.2c0,0,0-9.2,0-9.4
			c0,0,0,0,0,0c0.1,0.1,7.6,8.4,7.6,8.4l0.9,1.1h0.7V54.8L222.3,54.8L222.3,54.8z"/>
		<path id="_171224496" d="M62.7,184.1c-0.7,0-1.2-0.1-1.8-0.1c-0.7,0-1.3,0.1-1.9,0.1c-1-2.9-2.3-6.2-3.7-9.4h-8.9
			c-1.2,3.1-2.5,6.1-3.5,9.4c-0.5,0-0.9-0.1-1.3-0.1c-0.5,0-0.8,0.1-1.2,0.1l10.9-24.4h0.8L62.7,184.1
			C62.7,184.1,62.7,184.1,62.7,184.1z M283.7,184.1h-1.1c-0.4-0.5-1.1-1.3-1.8-2.1l-15.1-16.7h-0.3v18.8c-0.4,0-0.7-0.1-1-0.1
			c-0.3,0-0.7,0.1-1,0.1v-23.8h1.4l16.6,17.9h0.4v-17.9c0.3,0,0.6,0.1,1,0.1c0.3,0,0.6-0.1,1-0.1L283.7,184.1L283.7,184.1z
			 M255.5,160.3c0.5,0,1,0.1,1.5,0.1c0.5,0,1-0.1,1.5-0.1v23.8c-0.6,0-1-0.1-1.5-0.1c-0.5,0-1,0.1-1.5,0.1V160.3z M244.3,184.2
			c-0.6,0-1.1-0.1-1.5-0.1c-0.5,0-1,0.1-1.5,0.1V162c-3.5,0-5.7,0.2-7.6,0.4c0-0.3,0.1-0.7,0.1-1c0-0.4-0.1-0.7-0.1-1h18
			c0,0.4-0.1,0.7-0.1,1c0,0.3,0.1,0.7,0.1,1c-1.7-0.2-4.2-0.4-7.3-0.4L244.3,184.2L244.3,184.2L244.3,184.2z M216,160.3h7.4
			c5.4,0,7.7,1.8,7.7,5.3c0,4-3.6,6-7.2,6.6l7.2,9.1l1.7,2l0.7,0.9c-0.7,0-1.4-0.1-2-0.1c-0.7,0-1.4,0.1-2,0.1
			c-0.8-1.1-1.5-2.1-2.2-3l-4.1-5.3l-2.8-3.3h-1.3v11.6c-0.6,0-1-0.1-1.5-0.1c-0.5,0-1,0.1-1.5,0.1L216,160.3L216,160.3z
			 M219.1,171.2c0.5,0,2.7,0.2,4.5-0.2c2.6-0.5,4.5-2.3,4.5-5c0-2.4-1.2-4-3.8-4.4c-1.3-0.2-3.7-0.1-5.1,0L219.1,171.2L219.1,171.2
			L219.1,171.2z M213.6,184.1c-0.7,0-1.2-0.1-1.8-0.1c-0.7,0-1.3,0.1-1.8,0.1c-1-2.9-2.3-6.2-3.7-9.4h-8.9c-1.2,3.1-2.5,6.1-3.5,9.4
			c-0.5,0-0.9-0.1-1.3-0.1c-0.5,0-0.8,0.1-1.2,0.1l10.9-24.4h0.8L213.6,184.1L213.6,184.1z M201.9,164.3l-3.8,8.9h7.7L201.9,164.3
			L201.9,164.3L201.9,164.3z M187,160.3c0.9,8.6,1.9,17.2,2.8,23.8c-0.6,0-1.1-0.1-1.6-0.1c-0.6,0-1.1,0.1-1.6,0.1
			c-0.6-7-1.3-14.5-1.8-18c-4,7.2-7,12.8-9.1,17.6h-0.4l-1.9-3.9c-2.2-4.6-4.7-9.1-7.1-13.7c-0.8,6.8-1.7,13.7-1.7,18
			c-0.5,0-0.8-0.1-1.2-0.1c-0.5,0-0.8,0.1-1.3,0.1c0.9-5.6,3-20.2,3.3-23.8h0.9c2.8,5.5,6.1,12.1,9.9,18.3c3.3-6,6.5-12,10.1-18.3
			H187L187,160.3L187,160.3z M147.7,184.1h-1.1c-0.4-0.5-1.1-1.3-1.8-2.1l-15.1-16.7h-0.3v18.8c-0.3,0-0.7-0.1-1-0.1
			c-0.3,0-0.7,0.1-1,0.1v-23.8h1.4l16.6,17.9h0.4v-17.9c0.3,0,0.6,0.1,1,0.1c0.3,0,0.6-0.1,1-0.1V184.1L147.7,184.1L147.7,184.1z
			 M97.6,172.2c0-7.6,5.7-12.4,12.9-12.4c6.6,0,13.2,3.5,13.2,11.9c0,7.8-5.5,12.9-13.3,12.9C102.8,184.6,97.6,179.7,97.6,172.2
			L97.6,172.2L97.6,172.2z M118.1,164.3c-1.7-2.2-4.5-3.4-7.3-3.4c-6.1,0-9.8,4.6-9.8,11.7c0,7.1,4.3,10.8,9.5,10.8
			c7.4,0,10-7.6,9.8-11.4C120.3,169.1,120,166.6,118.1,164.3L118.1,164.3L118.1,164.3z M90.7,184.2c-0.6,0-1-0.1-1.5-0.1
			c-0.5,0-1.1,0.1-1.5,0.1V162c-3.5,0-5.7,0.2-7.6,0.4c0-0.3,0.1-0.7,0.1-1c0-0.4-0.1-0.7-0.1-1h18c0,0.4-0.1,0.7-0.1,1
			c0,0.3,0.1,0.7,0.1,1c-1.7-0.2-4.2-0.4-7.3-0.4L90.7,184.2L90.7,184.2z M65.2,179.4c1.4,2.2,2.9,3.6,5.7,3.6
			c2.8,0,4.8-2.3,4.8-5.1c0-6.5-10.9-3.6-10.9-11.5c0-4.5,3.6-6.7,7.7-6.7c1.7,0,3.7,0.5,5,1.7c-0.4,0.9-0.7,1.9-0.9,2.9h-0.3
			c-0.7-1.9-2.3-3-4.3-3c-2.4,0-4.4,1.6-4.4,4.1c0,6.4,11,3.8,11,11.3c0,5-3.9,7.9-8.6,7.9c-1.7,0-4.5-0.7-5.7-2
			c0.3-1,0.5-2.1,0.7-3.1L65.2,179.4L65.2,179.4z M51,164.3l-3.8,8.9h7.7L51,164.3L51,164.3L51,164.3z"/>
	</g>
</g>
</svg>
