<?xml version="1.0" encoding="utf-8"?>
<!-- Generator: Adobe Illustrator 21.1.0, SVG Export Plug-In . SVG Version: 6.00 Build 0)  -->
<svg version="1.1"
	 id="svg2" inkscape:version="0.91 r13725" sodipodi:docname="Audi logo 2016.svg" xmlns:cc="http://creativecommons.org/ns#" xmlns:dc="http://purl.org/dc/elements/1.1/" xmlns:inkscape="http://www.inkscape.org/namespaces/inkscape" xmlns:rdf="http://www.w3.org/1999/02/22-rdf-syntax-ns#" xmlns:sodipodi="http://sodipodi.sourceforge.net/DTD/sodipodi-0.dtd" xmlns:svg="http://www.w3.org/2000/svg"
	 xmlns="http://www.w3.org/2000/svg" xmlns:xlink="http://www.w3.org/1999/xlink" x="0px" y="0px" viewBox="0 0 373.4 466"
	 style="enable-background:new 0 0 373.4 466;" xml:space="preserve">
<style type="text/css">
	.st0{fill:#1D1D1B;}
</style>
<title  id="title4176">Audi logo 2016</title>
<sodipodi:namedview  bordercolor="#666666" borderopacity="1.0" fit-margin-bottom="0" fit-margin-left="0" fit-margin-right="0" fit-margin-top="0" id="base" inkscape:current-layer="layer1" inkscape:cx="202.52992" inkscape:cy="80.723062" inkscape:document-units="px" inkscape:pageopacity="0.0" inkscape:pageshadow="2" inkscape:window-height="705" inkscape:window-maximized="1" inkscape:window-width="1366" inkscape:window-x="-8" inkscape:window-y="-8" inkscape:zoom="1.4142136" pagecolor="#ffffff" showgrid="false">
	</sodipodi:namedview>
<g id="layer1" transform="translate(-1.6914107,-890.22026)" inkscape:groupmode="layer" inkscape:label="Capa 1">
	<g id="g3370" transform="matrix(0.83235446,0,0,0.83235446,-92.107787,476.57098)">
		<path id="path3357" inkscape:connector-curvature="0" class="st0" d="M190.3,703.6c-42.8,0-77.6,34.7-77.6,77.6
			c0,42.8,34.7,77.6,77.6,77.6s77.6-34.7,77.6-77.6C267.9,738.3,233.1,703.6,190.3,703.6z M190.3,720c33.8,0,61.1,27.4,61.1,61.1
			l0,0c0,33.8-27.4,61.1-61.1,61.1c-33.8,0-61.1-27.4-61.1-61.1l0,0C129.1,747.4,156.5,720,190.3,720L190.3,720z"/>
		<path id="path3364" inkscape:connector-curvature="0" class="st0" d="M287.9,703.6c-42.8,0-77.6,34.7-77.6,77.6
			c0,42.8,34.7,77.6,77.6,77.6c42.9,0,77.6-34.7,77.6-77.6C365.5,738.3,330.7,703.6,287.9,703.6z M287.9,720
			c33.8,0,61.1,27.4,61.1,61.1l0,0c0,33.8-27.4,61.1-61.1,61.1c-33.8,0-61.1-27.4-61.1-61.1l0,0C226.7,747.4,254.1,720,287.9,720
			L287.9,720z"/>
		<path id="path3366" inkscape:connector-curvature="0" class="st0" d="M386.1,703.6c-42.8,0-77.6,34.7-77.6,77.6
			c0,42.8,34.7,77.6,77.6,77.6s77.6-34.7,77.6-77.6C463.7,738.3,428.9,703.6,386.1,703.6z M386.1,720c33.8,0,61.1,27.4,61.1,61.1
			l0,0c0,33.8-27.4,61.1-61.1,61.1c-33.8,0-61.1-27.4-61.1-61.1l0,0C324.9,747.4,352.3,720,386.1,720L386.1,720z"/>
		<path id="path3368" inkscape:connector-curvature="0" class="st0" d="M483.7,703.6c-42.8,0-77.6,34.7-77.6,77.6
			c0,42.8,34.7,77.6,77.6,77.6s77.6-34.7,77.6-77.6C561.3,738.3,526.5,703.6,483.7,703.6z M483.7,720c33.8,0,61.1,27.4,61.1,61.1
			l0,0c0,33.8-27.4,61.1-61.1,61.1c-33.8,0-61.1-27.4-61.1-61.1l0,0C422.5,747.4,449.9,720,483.7,720L483.7,720z"/>
	</g>
</g>
</svg>
