<?xml version="1.0" encoding="utf-8"?>
<!-- Generator: Adobe Illustrator 21.1.0, SVG Export Plug-In . SVG Version: 6.00 Build 0)  -->
<svg version="1.1" id="svg3072" xmlns:svg="http://www.w3.org/2000/svg"
	 xmlns="http://www.w3.org/2000/svg" xmlns:xlink="http://www.w3.org/1999/xlink" x="0px" y="0px" viewBox="0 0 1024 553"
	 style="enable-background:new 0 0 1024 553;" xml:space="preserve">
<style type="text/css">
	.st0{fill:#FFFFFF;}
	.st1{fill:none;stroke:#FFFFFF;stroke-width:0.585;stroke-miterlimit:3.864;}
</style>
<path id="path2492" d="M600.7,141.2c-30.3-14.7-57.8-19.5-90.5-19.5c-29.6,0-60.6,6.3-88.7,18.4c-29.3-10.2-99.4-4.1-114.7-3.8
	c-17.5,0.4-90.1-4-107.3-4c-17.1,0-52.6,0.6-79.3,2.4c-40.7,2.8-86.7-1.2-92.3-2.6c-2.7-0.7-4.7,1-4.7,1
	c-1.2,1.6-13.6,15.5-13.6,15.5l1.2,4L40,167.5l-4,19.2l28.3,12.8c0,0,0,15.9,1.6,17.9c1.6,2,29.9,9.2,29.9,9.2s2.8,18.6,4.8,20.3
	c3.3,3,33.1,6,33.1,6s9.2,16.7,13.1,18.3c4,1.6,35.9,6.4,41.9,4.8c0,0,2.6,13.9,8.3,16.5c6,2.7,40.8,1.5,40.8,1.5
	s4.3,13.7,11.2,15.9c6.5,2,36.6-5.9,36.6-5.9s4.4,10.2,8.8,12c6.7,2.7,31.1-5.9,31.1-5.9c12.5,51.6,54.3,88.2,103.5,107.3l6.9,13.8
	l16.2-6.1l8.4,13l14.8-8l10.1,12.2l13.3-9.6l11.7,10.8l11.6-11.2l13.3,9.7l10-12.2l14.8,8l8.5-12.9l16.2,6.2l6.7-13.8
	c45.6-17.7,87.8-54.5,101.5-101.2c4.3,1.9,12.4,4.7,19,5c0,0,7.6-2.8,10.7-12.4c0,0,26.5,8.3,31.3,6.8c0,0,4.4-0.2,8.5-13.8
	c2.7,1.2,5,0.6,9,1.5c20.6,4.5,29.6,2.1,29.6,2.1s4.6-0.8,8.3-18.1c1.8,0.3,3.1,0.5,4.5,0.4c0,0,30.6,0.9,35.9-1.8
	c0,0,4.8-1.2,6.6-18.6c12.6,1.9,23.9,2.7,33.1,1.7c0,0,10.3-3.5,14.2-23.7c6.9-0.4,27.4-1.8,29.9-4.8c0,0,5-2.3,5-20.5
	c8-0.5,21-2.2,25.7-7.2c0,0,5-5.7,2.8-19.6c18.9-4,25.4-10.1,25.4-10.1c-0.1-6.7-6-19-6-19s21.1-8.2,26.3-12.3l1.7-3.1
	c0,0-12.8-15.3-14.8-15.7c-4.5-0.9-45.4,5-71.9,5c-26.5,0-74.1-4-93.7-4c-19.6,0-80.9,4.4-109.8,4.4c-28.9,0-40-4.4-61.3-4.4
	C649.7,133.7,619.4,134.5,600.7,141.2"/>
<path id="path2496" class="st0" d="M947.5,169.8c-6.9,0-13.7,0-20.5,0c-11.7,0.5-24.2,0.2-36.2,0.4c-15.9,0.2-52.4,0.5-54.3,0.7
	c-7.6,0-15.2,0-22.7,0c-12.9,0-24.3,0-37.1,0c-2.2,0.1-15.2,0.4-19.4,0.4c-1.8,0-5.2-0.3-7,0c-3,0.5-8,6.9-2,6.9
	c0.3-0.1,0.5-0.1,0.8-0.1c0.6-0.1,1.2-0.2,1.8-0.3c1.7-0.5,3.9,0.1,5.6,0.2c3.2,0.2,6.4,0.5,9.6,0.7c8.4,0.6,16.8,1.1,25.2,1.7
	c6,0.5,12.1,1,18.1,1.5c44.2,2.8,87.9,6.7,133.7,6.7c10.6,0,20.1-4.6,23.4-5.7c1.4-0.5,4.4-0.8,5.5-1.8c2.4-2.1-0.4-9.6-2.6-10.9
	C967.9,169.2,949.2,169.7,947.5,169.8"/>
<path id="path2500" class="st0" d="M57.9,173.1c-2.3,0.9-3.3,2-3.6,4.6c-0.2,1.9,1.2,6.2,5.7,8.5c3.2,1.5,15.5,7.2,18.7,7.9
	c2.9,0.6,188.1-10.2,188.4-10.2c2.5-1.1,9.3-3,8.7-7c-0.2-1.1-1.9-2.3-2.9-2.7c-2.1-0.8-24.9,1.3-26.6,1.3
	C230.5,175.5,62.2,173.1,57.9,173.1"/>
<path id="path2504" class="st0" d="M706.9,175.9c-2,0-4.1,1.2-4.9,3.4c-0.7,1.8-0.9,4.3,0.7,5.6c1.6,1.3,4.2,1.7,6.2,2.2
	c3.3,0.9,6.6,1.7,9.9,2.6c3.8,0.9,7,1.5,11.4,1.9c3.4,0.3,6.4-0.4,7.2-3.2c1-3.2,0.6-5.3-1.8-6.7c-1.2-0.6-5.9-2-12.9-3.3
	C715.9,177.1,708.9,176,706.9,175.9"/>
<path id="path2508" class="st0" d="M309.9,175.8c-6.5,2-13.1,3-19.9,4.2c-2.6,0.5-6.1,0.6-8.2,2.1c-1,0.7-1.5,1.7-1.8,2.8
	c-0.2,1.1-0.1,2.4,0.6,3.2c1,1.2,7.2,3.9,11.2,3.2c6.4-1.5,12-3.6,17.9-5.5c2.1-0.6,4.8-0.9,6.3-2.6c1.6-1.8,0.6-3.8-0.7-5.4
	C313.9,176.2,311.8,175.3,309.9,175.8"/>
<path id="path2512" class="st0" d="M747.4,186c-0.8,0.3-1.5,0.6-2.2,1.2c-2.1,2.1-2.6,5.6,1.5,5.6c1.6-0.5,6.1,0.2,7.7,0.4
	c2.9,0.4,5.9,0.9,8.8,1.4c11.9,1.9,23.7,3.7,35.6,5.6c14.3,2.3,28.7,4.7,43.2,6.3c10.2,1.1,20.4,2.9,30.7,3.9
	c15.9,1.5,31.6,3.7,48.4,3.7c1,0,2-0.1,3.1-0.1c0.6-0.1,1.2-0.1,1.8-0.1c0.4-0.1,0.9-0.1,1.3-0.2c0.4,0,0.9-0.1,1.4-0.2
	c0.5,0,1-0.1,1.5-0.1c0.4-0.1,0.8-0.1,1.3-0.1c0.3-0.1,0.6-0.1,1-0.2c0.3,0,0.6-0.1,0.9-0.1c0.3,0,0.5-0.1,0.8-0.1
	c0.3,0,0.6-0.1,0.9-0.1c1.5-0.4,3-0.8,4.5-1.2c5.3-1.6,8-3.9,9.9-9.1c0.4-1.2,0.9-2.9,0-3.9c-0.8-0.9-2.1-1.1-3.4-1.2
	c-6.7,0-13.4,0-20.1,0c-9.1-0.3-18.2-0.7-27.4-1c-33.8-1.6-67.3-4.3-100.8-6.4c-11.3-0.9-22.7-1.7-34-2.6
	C758.9,186.9,752.3,186,747.4,186"/>
<path id="path2516" class="st0" d="M317.9,190.7c-6.2,1.2-11.7,3.9-17.6,5.8c-2.4,0.8-5.5,1.4-7.3,3.3c-1.1,1.2-1.4,2.7-1,4.4
	c0.2,1.1,0.7,2.8,1.5,3.7c1.6,1.8,5.7,3.4,8.5,3.4c1.5,0,3.9-0.5,4.9-0.9c4.6-2.5,9.1-4.9,13.7-7.4c1.6-0.8,3.6-1.1,4.8-2.4
	C329.8,196.1,321.6,190.1,317.9,190.7"/>
<path id="path2520" class="st0" d="M698.4,193c-2.6,0.9-8.5,4.1-6,6.9c1,1.2,4.2,2.2,5.6,2.7c1.7,0.7,1.6,1,3.3,1.7
	c1.9,0.9,3.8,1.8,5.7,2.7c3.6,1.7,5.5,3.6,10,3.6c5.3-0.1,7.7,0.7,10.3-4.3c0.7-1.3,0.2-2.8-0.5-3.7c-1.2-1.6-8.3-4.2-11.3-5.2
	C709.5,195.3,700.1,192.5,698.4,193"/>
<path id="path2524" class="st0" d="M271.9,191.5c-4.2,0.4-34.7,3.4-45.9,4.1c-6,0.5-109.9,6.9-119,7.1c-1.7,0.1-23.7-0.1-25.9,1.8
	c-1.2,1,0.1,6.9,1.3,8c2.1,2,6,2.6,8.8,3.4c8.1,2.3,15.3,4.8,24.7,4.8c0.6,0,163.1-20.8,166.1-20.8c0.4-0.4,0.8-0.7,0.8-1.4
	c-0.1-1.5-5.8-6-7.2-6.6C274.4,191.6,273.2,191.5,271.9,191.5"/>
<path id="path2528" class="st0" d="M737.8,198.2c-1.6,0.6-3.5,1.4-3.1,3.6c0.3,1.6,1,4.1,2.3,5.1c2.2,1.7,7.3,2.4,10.1,3.1
	c8,2.1,16,4.1,24,6.2c11.8,3,23.7,5.5,35.7,8.4c14.5,3.4,29.5,6.5,44.5,8.9c8.2,1.3,16.5,2.8,25,3.9c4.4,0.6,8.6,1.4,13.2,1.4
	c0.4,0,0.8-0.1,1.3-0.1c0.8,0,1.6-0.1,2.4-0.1c0.6,0,1.1-0.1,1.7-0.1c0.4,0,0.8-0.1,1.2-0.1c0.6,0,1.2-0.1,1.8-0.1
	c0.6-0.1,1.2-0.1,1.8-0.1c0.6-0.1,1.2-0.1,1.8-0.2c0.5,0,0.9-0.1,1.4-0.1c0.4,0,0.8-0.1,1.3-0.1c0.4-0.1,0.8-0.1,1.3-0.1
	c0.4-0.1,0.8-0.1,1.3-0.2c0.4,0,0.7-0.1,1.1-0.1c0.3,0,0.6-0.1,0.9-0.1c0.3,0,0.6-0.1,0.8-0.1c0.3,0,0.6-0.1,0.8-0.1
	c0.3,0,0.6-0.1,0.9-0.1c1.6-0.8,3.4-0.7,4.9-1.7c2.1-1.4,7.1-8.3,4.4-10.5c-2.1-1.8-13.5-1.4-17.1-1.7c-10.8-0.9-21.5-2.2-32.2-3.2
	c-15.3-1.4-30.5-4.1-45.6-6.1c-17.9-2.3-35.5-5.2-53.1-8.2c-8.2-1.4-16.4-2.8-24.5-4.2C744.4,200.1,741.8,198.2,737.8,198.2"/>
<path id="path2532" class="st0" d="M269.6,208.7c-9.1,1.6-18.1,3.2-27.2,4.7c-14.3,2.6-70.8,11.1-84.7,12.6c-9,1-18,2-27.2,2.8
	c-16.9-0.8-19.8,2-17.7,6.5c0.9,1.9,1.8,4.5,3.7,5.9c2.3,1.7,21,5.5,28.3,5.5c8.7,0.3,47.5-5.9,53.9-7.5c10-2.4,86-22.9,88-24.2
	c1.5-1,0.3-5.6-1.6-7.9C283.5,205.1,273.8,208,269.6,208.7"/>
<path id="path2536" class="st0" d="M331,206.7c-2.7,0.1-21.3,11.7-22.6,13.4c-0.9,1.2-0.9,2.6-0.4,4c0.4,1.1,0.7,2.3,1.5,3.2
	c2,2,6.6,2.1,9.6,2.1c0.8-0.3,1.7-0.6,2.5-1c1.6-0.9,2.9-2.3,4.5-3.5c3.1-2.5,5.5-4.3,8.6-6.9c1.6-1.1,5.3-2,6.3-3.8
	C343.7,209.8,334.1,206.6,331,206.7"/>
<path id="path2540" class="st0" d="M686.3,206.7c-3.1,0.2-8.7,2.1-9.3,6.1c-0.1,1,0,2.1,0.8,2.7c1.4,1.2,12.3,6.7,15.8,8.9
	c2.6,1.7,4.7,3.7,8.2,3.7c4.7-0.2,6.4-1.3,7.6-2c2-1.3,4.5-4.4,2.7-6.8c-1.6-2.2-4.9-3.1-7.1-4.1c-2.5-1.2-5-2.4-7.5-3.5
	C695.8,210.8,689.1,206.7,686.3,206.7"/>
<path id="path2544" class="st0" d="M731.7,214.8c-1.6,0.7-3.3,1.5-4.9,2.2c-2.2,0.9-7.9,2.1-6.5,5.5c1.1,2.8,27.7,10.7,35.8,13.6
	c21.2,7.3,39.3,13.6,61.7,18.5c16.2,3.6,33.5,7.6,51.5,7.6c0.7,0,1.5-0.1,2.2-0.1c0.5,0,1-0.1,1.5-0.1c0.3-0.1,0.6-0.1,0.8-0.1
	c1.2-0.6,2.4-0.9,3.6-1.7c1.8-1.3,2.8-3.2,4.2-4.7c1.3-1.4,3.2-2.5,4-4.2c0.3-0.8,0.4-1.8-0.2-2.5c-0.6-0.8-1.5-1-2.4-1.2
	c-4.1-0.6-8.3-1.1-12.4-1.7c-8-1.3-16.1-2.6-24.1-3.9c-10.8-1.8-21.6-4.2-32.2-6.5c-16.9-3.7-33.6-7.4-50-11.6c-7.7-2-15.3-4-23-6
	c-1.6-0.5-3.2-1-4.9-1.5C734.7,215.6,733.4,214.9,731.7,214.8"/>
<path id="path2548" class="st0" d="M347.3,219.8c-2.8,0-10.8,8.2-13.8,10.6c-1.4,1.2-4.9,4.2-5.6,5.9c-1.4,3.4,0.7,5.2,2.9,6.8
	c2,1.5,8.2,0.5,10.9-1.5c2-1.5,14.8-13,15.6-14.3C361,220.8,351.6,219.8,347.3,219.8"/>
<path id="path2552" class="st0" d="M295.7,219.8c-1.1,0.3-2.2,0.6-3.3,0.9c-2.9,1.2-69.6,21.9-101.2,28.6
	c-9.1,1.9-18.3,3.2-27.8,4.6c-2.9,0.4-9,0-11,1.7c-1.3,1.2,2.5,7.3,3.6,9c2.8,4.1,35.5,5.5,50,1.7c5.9-1.7,92.5-32,94.3-34.3
	c1.8-2.3,1.4-8.1,1.1-9.2C300.9,220.2,298.3,219.8,295.7,219.8"/>
<path id="path2556" class="st0" d="M670.6,220.3c-2.6,0.7-6.7-0.4-8.3,2c-0.9,1.3-1.1,3.4-0.2,4.7c1,1.5,15.1,13.1,16.8,14
	c2.2,1.1,5.1,1.1,7.9,1.1c2.3,0,7.2-2,6.6-5.7c-0.1-1-0.8-1.9-1.5-2.5c-2.2-1.9-4.8-3.2-7.1-4.8c-2-1.3-4.2-3-6.2-4.4
	c-1.8-1.4-3.4-2.4-5.2-3.8C672.4,220.4,671.5,220.3,670.6,220.3"/>
<path id="path2560" class="st0" d="M649.5,231.4c-2.4,0.6-5.1,1.6-4.6,4.7c0,0.6,3.7,3.4,5.2,4.8c3.2,3.2,5.5,8.7,9.6,10.9
	c2.8,1.5,7,3.4,10.1,1.8c3.9-1.9,2.9-5.8,2.3-6.6c-2.9-3.8-6.8-6.6-10.2-10c-1.6-1.6-3.2-4-5.2-4.9
	C654.7,231.1,651.9,231.4,649.5,231.4"/>
<path id="path2564" class="st0" d="M363.2,231.9c-2.1,1.2-4.8,4.7-6.5,6.5c-1.3,1.3-2.5,2.7-3.7,4c-2.5,2.5-7.7,6.9-3.3,10
	c1.8,1.3,4.9,2.3,6.9,1.7c1.6-0.8,3.2-0.9,4.6-2.1c1.4-1.2,2.4-2.9,3.3-4.4c1.1-1.7,4.8-6.9,5.8-7.7c1.9-1.7,4.8-3,2.9-6.4
	C372.3,231.9,365.2,230.8,363.2,231.9"/>
<path id="path2568" class="st0" d="M716.6,232.1c-1.9,0.8-8.5,3.1-8.4,5c0.2,2.7,4.2,3.9,6.6,4.8c1.8,0.6,3.4,1.7,5.1,2.5
	c3.4,1.8,6.9,3.6,10.3,5.4c5.4,2.7,10.9,5.5,16.3,8.2c7.9,4.2,15.9,8,24.1,11.4c8.4,3.5,17.1,7.7,26.4,9.4c7.9,1.5,17.1,1,25.8,1
	c0.7-0.1,1.4-0.1,2.1-0.1c1.2,0,2.3-0.1,3.5-0.1c0.6,0,1.2-0.1,1.8-0.1c0.4-0.1,0.7-0.1,1.1-0.2c0.4,0,0.7-0.1,1.1-0.1
	c0.3,0,0.5-0.1,0.8-0.1c0.8-0.4,1.7-0.7,2.5-1.1c1.9-1.4,6.5-6.1,4.6-8.5c-1.8-2.2-9.4-2.8-12.4-3.4c-6.5-1.4-13-3-19.4-4.5
	c-23.1-5.8-45.2-13.3-67.2-20.8c-5.7-2.1-11.4-4.2-17-6.2C721.9,233.6,719.4,232.2,716.6,232.1"/>
<path id="path2572" class="st0" d="M307.7,237.7c-4.3,0.2-19.9,9.2-26.1,11.8c-17.4,7.4-35.5,13.7-53.7,19.7
	c-4.8,1.5-9.6,2.9-14.5,4.4c-3,0.9-6.6,1.3-9.3,2.8c-0.8,0.4-1.5,1.1-1.6,2c-0.3,1.6,1.1,2.9,2.2,3.7c1.4,1,2.7,2.2,4.3,2.8
	c2.5,0.9,5.4,0.9,8.4,1c6.9,0.3,20.5,2.5,29.4-1.4c8.2-3.6,42.9-21.8,52-26.8c4.3-2.4,23.3-11.3,23-14.8
	C321.5,237.5,312.6,237.7,307.7,237.7"/>
<path id="path2576" class="st0" d="M699.2,243.4c-1.6,1-5.7,4.2-5.2,6.3c0.6,2.4,8.3,5.9,9.6,6.9c11.8,8.8,23.5,17.6,35.8,25.6
	c6.8,4.4,13.6,9,21.1,11.8c7.3,2.8,16.1,3.7,24.7,3.7c0.5,0,1-0.1,1.5-0.1c0.7-0.3,1.5-0.6,2.2-0.9c2-1.3,6.8-5.4,5.4-8
	c-0.4-0.6-1-1.1-1.6-1.4c-1.8-0.6-3.6-1.2-5.4-1.8c-3.1-1.1-6.2-2.3-9.3-3.4c-9.6-3.8-18.9-8-28.2-12.5
	c-12.7-6.1-25.2-12.6-37.5-19.3c-3.8-2.2-7.7-4.4-11.5-6.6c-0.3-0.1-0.6-0.2-1-0.3C699.7,243.4,699.4,243.4,699.2,243.4"/>
<path id="path2580" class="st0" d="M680.7,251.5c-0.7,0.4-1.4,0.7-1.9,1.4c-0.9,1.3-1.2,3-1.8,4.4c-0.6,1.3-1.1,2.5-1.7,3.8
	c-0.2,0.7-0.2,1.6,0.1,2.2c0.7,1.5,2.7,1.5,4,2.2c1.1,0.6,2.1,1.3,3.1,2.2c8.6,8.1,16.7,16.6,25.4,24.3c3.2,2.9,6,6.4,9.7,8.4
	c2.9,1.6,6.5,2.4,9.8,3.2c5.1,1.3,10.1,3.1,15.9,3.1c2.1-1.1,8.4-3,7.3-6.4c0-0.1-0.1-0.3-0.2-0.4c-0.1-0.2-0.3-0.4-0.4-0.6
	c-2.1-2.3-5.3-3.5-7.8-5.1c-4.8-3-9.4-6.1-14.1-9.2c-11.4-7.5-22.2-16.1-33.2-24.4c-4.1-3-6.8-7.8-11.9-9c-0.3,0-0.6-0.1-0.8-0.1
	c-0.2,0-0.4,0-0.7,0C681.2,251.5,681,251.5,680.7,251.5"/>
<path id="path2584" class="st0" d="M326.2,251.6c-3.1,0.9-74.4,40-75.5,41.6c-1.7,2.8,3.6,7.1,6.2,7.6c3.9,0.9,25.5-1.2,34.9-6.8
	c2.7-2,35-27.4,37.6-29.5c3.1-2.6,13.2-7.9,12.1-10.1C340.2,252,329.2,250.7,326.2,251.6"/>
<path id="path2588" class="st0" d="M346.2,261.5c-2-0.2-13.3,13.8-40.4,32.8c-2.3,1.6-7.6,5-8.8,7.4c-1.7,4.7,6,5.8,8.9,5.8
	c0.6-0.1,15.3-1.9,22.2-5.9c3.1-1.8,33.6-32.4,34.5-33.8c0.4-0.6,0.7-3.7,0.6-4c-1.6-2.4-6.7-0.8-9.5-1.1
	C351.5,262.5,348.3,261.9,346.2,261.5"/>
<path id="path2592" class="st0" d="M659.5,261.7c-2.7,0.8-5.2,4-4,7.1c0.6,1.7,2.4,2,3.7,3.1c1.2,1,2.1,2.2,2.9,3.5
	c5.4,7.5,10.8,15.1,16.6,22.4c2.2,2.8,4.5,6.3,7.6,8.4c4,2.8,11.9,5.5,17.2,5.5c1.9-1,6.7-1.1,6.8-4.1c0-0.1,0-0.3,0-0.4
	c-0.3-2.8-5.5-6.4-7.5-8.3c-8.1-7.7-16.1-15.5-24.2-23.2c-1.7-1.7-3.4-3.4-5.1-5.1c-1.6-1.8-2.9-3.7-4.8-5.3
	C666.3,263.3,663.1,261.8,659.5,261.7"/>
<path id="path2596" class="st0" d="M339.6,320.7c-1.2,0.4-0.8,2.6-0.5,3.8c0.6,2,8.5,14.9,12,20.1c3,4.5,5.9,9.1,9.5,13.2
	c13.5,15.9,29.9,30,47.4,39c2.7,1.3,17.3,9,20.6,8.6c0.7-0.1,0.9-0.7,0.8-1.1c-0.2-0.8-1-1.3-1.6-1.8c-3.3-1.6-6.7-3.1-10-4.7
	c-5.7-2.7-11.4-6-16.8-9.5c-12.6-8.2-24.2-17.9-34.9-29.6c-4.9-5.4-8.2-10.9-12.6-17.4c-4.2-6-9.7-17.1-11.1-19.4
	C341.7,320.9,340.7,320.1,339.6,320.7"/>
<path id="path2600" class="st0" d="M677.4,322c-1.4,0.8-9.4,15.5-16.2,25.5c-7.6,11-17.2,21.7-27.9,30.2
	c-8.9,7.2-17.6,12.4-27.5,17.6c-6.2,3-14,6.5-15.5,7.8c-2,1.6-1,2.9,1.3,2.9c2-0.8,11.1-4.7,20.3-9.7c19.3-10.7,39-28.3,52.5-46.6
	c5.8-7.9,13.6-22.7,14.5-24.8C679.6,323.2,679.2,322.2,677.4,322"/>
<path id="path2604" class="st0" d="M433.8,145.8c0,0-2-3.7,2.3-5.8c4.3-2.2,36.6-12.5,74.6-12.5c41.8,0,78.2,13.6,80.3,15.3
	c2.9,2.3,0.3,6.7-3,6c-3.2-0.6-36.2-14.6-76.9-14.6c-40.7,0-69.1,10.8-71.6,12.3C436.6,148.1,433.8,145.8,433.8,145.8"/>
<path id="path2608" class="st1" d="M389.7,276.8c0-50,53.5-90.5,119.4-90.5c66,0,119.4,40.5,119.4,90.5c0,50-53.5,90.5-119.4,90.5
	C443.2,367.3,389.7,326.8,389.7,276.8z"/>
<path id="path2612" class="st0" d="M500.2,204.2c-0.9,0.5-2.5,0.2-3.6,0.3c-4.8,0.6-9.7,1.2-14.3,2.1c-13.6,2.5-26.6,7.8-37.6,15.4
	c-2.8,1.9-6,4.1-8.2,6.9c-0.1,0.1-0.1,0.2-0.2,0.4c-0.8,1.3-2.2,2.4-2.8,3.8c-0.2,0.6-0.4,1.5-0.2,2.2c0.8,2.2,4.8,5.9,6.8,7.1
	c1,0.6,2.7,1.7,2.8,3c0.2,1.9-0.2,3.7-0.3,5.4c0,2.3,0,4.6,0,6.8v33.6v13.4c0,2-0.1,3.9-0.1,5.8c-0.3,1-4.1,4.7-5,5.7
	c-1.2,1.4-1.8,3.1-2.8,4.6c0,0.1-0.1,0.2-0.1,0.3c0.6,0.5,0.5,1.6,0.9,2.3c1.2,1.9,3.1,4,5,5.4c15.1,11.8,37.8,18.3,58,19.9
	c8,0.6,16.2,0,24.3,0c0.7-0.7,5.7-0.7,7.1-0.7c0.6-0.6,4.2-0.7,5.3-0.7c0.7-0.7,2.9-0.7,3.9-0.7c0.4-0.4,1.2-0.4,1.8-0.4
	c0.6-0.7,2.2-0.7,3.2-0.7c0.5-0.5,1.8-0.7,2.5-0.7c0.5-0.5,1.6-0.7,2.4-0.7c0.5-0.5,1.8-0.7,2.5-0.7c0.7-0.8,2.8-1.4,3.9-1.4
	c0.5-0.8,1.5-0.9,2.3-1.2c1.9-0.9,3.9-1.9,5.8-2.8c6.7-4,12.8-9.4,16.4-16.4c0.7-1.4,1.7-2.7,1.7-4.4c0.6-0.6,0.7-1.6,0.7-2.5
	c0.8-0.8,0.7-2.7,0.7-3.9c0.9-1,0.4-4.1,0.4-5.6c-0.2-13.8-10.9-27.1-22.9-32.2c-0.2-0.1-0.8-0.1-0.8-0.4c0.9-0.6,2.1-1.8,3.2-1.8
	c0.9-1.3,3.8-2.5,5.1-3.6c2.8-2.4,9.6-9.1,9.6-12.7c0.5-0.4,0.7-1.1,0.7-1.8c0.6-0.5,0.7-1.6,0.7-2.4c1-1,0.7-3.7,0.7-5.3
	c0.9-1,0.3-3.2,0.1-4.3c-1.2-6.6-3.9-12.1-8.4-16.9c-1-1.1-2.2-1.9-3.2-3c-3.2-3.3-7.4-5.4-11.3-7.4c-11-5.5-23.8-8.4-37.1-9.1
	C513.1,204.2,506.6,204.2,500.2,204.2"/>
<path id="path2616" d="M507,216.2c7.6,0,15,0.6,20.8,4.1c9,5.3,11.7,16.2,10.4,26.6c-0.8,6.2-2.9,12.2-7.6,16.3
	c-4.6,4-10.5,5-16.8,5.8c-13.8,1.8-28.1-3-32-16.3c-1-3.2-1.7-6.7-1.7-10.3c0.1-1.8,0.2-3.5,0.3-5.3c0.6-0.6,0.7-2.3,0.7-3.2
	c0.5-0.5,0.7-1.4,0.7-2.1c0.4-0.3,0.7-1,0.7-1.5c0.3-0.2,0.4-0.6,0.4-1c0.8-0.6,2.1-2.6,2.1-3.6c1.1-0.6,1.7-1.8,2.6-2.7
	c2.4-2.2,6.9-5,10.2-5c0.3-0.4,0.9-0.4,1.4-0.4c0.7-0.8,2.8-0.7,3.9-0.7C503.9,216,505.9,216.8,507,216.2"/>
<path id="path2620" d="M505.2,279.9c9.3,0,17.4,0.1,24.8,3.5c15.7,7.2,17.1,33.3,6.3,45.3c-7.9,8.7-24.8,10.3-36.4,7.2
	c-2.7-0.7-5.3-1.3-7.7-2.6c-3.1-1.8-5.6-4.1-7.7-7.1c-3-4.2-4.8-10.2-5-15.6c-0.1-3.1,0.3-6.1,0.3-9.1c0.6-0.6,0.7-1.9,0.7-2.8
	c0.5-0.5,0.7-1.5,0.7-2.2c0.5-0.4,0.7-1.1,0.7-1.7c0.5-0.4,1.1-1.5,1.1-2.2c1.2-0.9,2.1-2.8,2.9-4c1-1.4,5-4.7,6.7-4.7
	c0.6-0.7,2.1-1.4,3.1-1.4c0.4-0.5,1.5-0.7,2.2-0.7c0.5-0.6,1.9-0.7,2.8-0.7C501.6,280,504,280.9,505.2,279.9"/>
<path id="path2624" d="M616.3,148.4c1.8-0.5,3.5-0.1,4.7,1.2c1.1,1.2,0.8,3.3-0.6,4.1c-1.2,0.6-2.7,0.7-4,1.1
	c-3.4,0.9-14.9,2.6-15.6,6.6c-0.3,2.3,2.7,5,3.9,5.8c1.6,1.4-1.2-1.2,0.4,0.2c2.3,2,7.5,5.6,4.7,9.3c-0.7,0.9-1.8,1.3-3,1.2
	c-5.5-0.6-13-11.5-13.7-13.3c-0.8-2.2-0.5-4.5,0.8-6.4C598.2,151.9,609.6,150.7,616.3,148.4"/>
<path id="path2628" class="st0" d="M708.3,166.3c-0.3,4.7,13.1,3.7,16.4,4c4.9,0.4,14.3,3.9,16.1,2.3c2.2-1.9,4.5-11.2,0.6-11.4
	c-5.7-0.2-7.8,0.4-14.2,0.9C720.7,162.5,708.6,161.7,708.3,166.3"/>
<path id="path2632" class="st0" d="M310.6,167.9c0.2,3.2-13.6,3.2-16.8,3.5c-4.8,0.4-12.6,3.8-15.2,0.9c-2-2.2-4.5-8.5-0.6-8.6
	c5.7-0.2,9.7,0.1,16,0.6C300.6,164.7,310.3,163.2,310.6,167.9"/>
<path id="path2636" d="M414.7,147.5c6.4,1.6,10.1,1.4,13.8,7.5c1.9,3,2,7.8-1.1,12c-2,2.7-2.8,3.6-5,6.3c-2.3,2.7-2.5,4.6-6.4,5.2
	c-1.3,0.2-2.4-0.1-3.1-1.1c-2.5-3.7,2.9-8.1,5.7-11.3c1.1-1.2,3.5-4.9,3.1-6.4c-0.8-5-6.8-4.9-10.8-6.2c-1.5-0.5-5.6-1.2-6.8-2
	c-1.5-1-1.1-2.9-0.2-4.3C404.7,145.9,408.4,146,414.7,147.5"/>
<path id="path2640" class="st0" d="M698,164.7c1.4,0.4,3.1,0.4,3.4,2.1c0.3,2.1-1.3,4.1-5.6,4.6c-3-0.3-9-5.6-11.3-0.9
	c-2,3.9,10.6,5.5,10,9.4c-0.4,3.3-1.6,3.8-4.5,3.8c-1.3,0.1-4.4-1.8-5.5-2.2c-2.9-1.3-9.7-6.8-12.3-2.4
	c-2.5,4.3,14.8,10.1,14.3,13.5c-0.5,3.2-3.7,5.7-6.1,4.9c-3.3-0.8-14-13.3-18.8-8.4c-4.5,4.5,13.4,12.5,12.5,15.3
	c-1.5,4.6-5.6,6-11.2,1.3c-3-2.5-7.6-7-10.3-3.4c-3.3,4.4,6.2,10,7,11.5c2.1,3.7-2.7,8-5.8,7.3c-2.9-0.4-7.2-11.4-11.3-7.6
	c-3.1,2.9,4.5,9.7,3.7,12.4c-0.3,2.5-6.8,5.9-9.8,3.5c-4.1-2.7,5.6-17-3.9-30.4c-4.6-5.7-8.4-14.6-8.6-16.1
	c-0.4-2.7-0.2-7.4,1.6-9.8c6.7-9,37-8.4,50-9C684.3,163.5,689.2,164.7,698,164.7"/>
<path id="path2644" class="st0" d="M318.8,166c-1.7,0-3.3,0.4-3.5,2.1c-0.3,2.2,0,5.6,3.6,5.7c4.3,0.1,9.5-5.6,12-2
	c2.8,4.1-11.8,6.5-9.5,11.4c3,6.3,9,0.5,10,0.1c3-1.4,12.2-9.6,15.9-4.2c3.3,4.8-11.8,11.7-13.6,13.9c-0.5,0.7-1.6,4.2-1.2,5.1
	c3.3,7.3,11.7,0.3,17.3-5.8c2.1-2.3,3.6-3.5,5.7-4.1c2.9-0.7,5.4-0.2,6.1,2.4c0.5,1.5,0,3.2-1.1,4.2c-1.2,1.1-14.2,10.5-13.8,13.4
	c0.9,5.7,4.3,6.5,6.9,5.2c2.7-1.2,10.3-14.2,14.9-12.5c1.2,0.5,2.7,0.7,3.2,1.8c0.7,1.6,0.4,3.8-0.6,5.1c-1.3,1.7-3.7,3.9-5.3,5.4
	c-1.4,1.2-2.9,2.6-3.7,4.1c-2.1,3.8,1,5.6,4.5,5.6c1.2,0,1.9-0.7,2.7-1.4c2.1-1.8,4.3-9.9,8.6-7.7c4.5,2.3-3.8,8.6-3,13.2
	c1.2,3.4,6.7,4.1,8.2,1.6c1.7-4.1,0.7-10.3,2.3-17.3c1.6-6.3,6.2-16,8.3-19.8c1.4-2.2,3.1-4,3.7-6.7c0-0.2,0.1-0.4,0.1-0.6
	c0.4-2.8-1.4-5.2-3.3-6.9c-3.1-2.9-7.4-4.6-11.3-5.9c-11.6-3.9-24-4.2-37.3-4.8C336.8,166.2,328,166,318.8,166"/>
<path id="path2648" class="st0" d="M631.5,238.3c1.6-3.3,9,0.3,9.7,0.9c2,1.8,2.7,4.7,4.3,6.9c1.9,2.6,6.7,8.2,6.4,11.2
	c-0.2,2.4-9.6,9.7-11.6,8c-0.1-0.1-0.1-0.1-0.2-0.2c-1.4-9.1-4.4-17.7-8.8-25.9C631.3,238.9,631.4,238.5,631.5,238.3"/>
<path id="path2652" class="st0" d="M641.7,269.9c2.6,0,7,1,8.8,2.6c1.5,1.3,2.2,3.2,3.3,4.8l5.4,7.7l12.6,17l5.8,7.5
	c1.1,1.8,0.8,3.2-0.8,4.5l-1,0.1c-5.9,0-15-2.2-19-5.7c-2-1.8-3.1-3.9-4.3-6l-6.2-11.4c-1-1.7-4.5-6.9-5.2-8.8
	c-0.1-0.2-0.2-0.5-0.2-0.8c0.1-1.5,0.1-3,0.1-4.5c0-2-0.1-3.9-0.2-5.9C641,270.3,641.3,270,641.7,269.9"/>
<path id="path2656" class="st0" d="M363.8,275.6c3.4-4.7,7.8-8.5,11.9-7.9c0.9,0,1.6,0.4,2.1,0.9c-0.3,2.7-0.4,5.5-0.4,8.2l0,1.3
	l-0.1,0.3c-1.2,4.1-1.6,3.2-4.4,8.6c-4.3,8.2-8.9,20-11.6,21.2c-4,1.8-10.1,1.6-14.5,2.7c-6.3,1.6-10.8,0-10.8-3
	C336,304.2,361.3,279.4,363.8,275.6"/>
<path id="path2660" class="st0" d="M365.4,314.4c3.7,0.4,4.9,5.3,9.2,6.3c2.8,0.7,6-0.8,8.1-2.1c1.4-0.8,3.4-2.4,5.2-2.2
	c12.5,22,35.1,39.8,63.4,50.3c0.1,0.1,0.1,0.2,0.2,0.3c0.2,1.1-0.1,2-0.5,2.5c-1.5,1.7-15.9,24.4-18.8,25.1
	c-2.6,0.9-12.5-5.4-16-7.4c-18.8-10.2-36.5-23.8-50.3-41.5c-4.3-5.6-16.6-19.8-16.5-25.7C349.7,315.8,363.3,314.3,365.4,314.4"/>
<path id="path2664" class="st0" d="M653.9,317.7c1.6-0.6,12.8,3.5,13,6.3c-0.1,2.3-7,11.9-14.7,22.2c-13.5,18.1-30.2,30.4-48.9,40.8
	c-4,2.2-8.3,4.3-12.5,6l-3.6,1.4c-1.1,0-2.1-0.3-2.8-1.1c-1.4-1.5-16-23.2-16.7-24.1c-0.6-0.7-0.4-2,0.1-2.9
	c26.5-10,48-26.6,60.7-47c2.1-0.6,5.9,2.6,7.5,3.4c2.8,1.4,6.4,2.8,9.9,1.8C649.5,323.6,651,319.1,653.9,317.7"/>
<path id="path2668" class="st0" d="M528.9,375.6c1.5,0.9,2.2,2.5,2.8,3.7c1.1,2.3,4.7,23,6.5,31c0.6,2.7,1.3,6.8,0.9,9.7
	c-0.4,2.5-3.2,5.9-6.2,6.3c-2.5,0.4-7.4-3.4-8.2-5.2c-1.1-2.5-0.9-5.5-1.2-8.4c-0.6-8.7-1.9-29.6-1.9-31.9c0-1.3,0.4-3.4,1.8-4.6
	C525.2,376,527.1,375.8,528.9,375.6"/>
<path id="path2672" class="st0" d="M545.9,372.7c0.8,0.7,1.4,1.6,1.9,2.2c1.6,2.1,8.8,22.4,12.1,30.2c1.1,2.6,2.6,6.7,2.6,9.6
	c0.1,2.6-2.2,6.6-5.1,7.5c-2.5,0.8-8.1-2.1-9.3-3.8c-1.6-2.3-1.9-5.4-2.7-8.3c-2.2-8.7-7.2-29.6-7.6-31.9c-0.2-1.1-0.2-2.7,0.4-4
	C540.8,373.8,543.4,373.3,545.9,372.7"/>
<path id="path2676" class="st0" d="M561.5,368.5c1,0.6,1.8,1.5,2.5,2.2c1.8,1.9,11.5,21.1,15.7,28.5c1.4,2.4,3.4,6.3,3.8,9.2
	c0.3,2.5-1.4,6.8-4.2,8.1c-2.3,1.1-8.3-1.1-9.7-2.7c-1.8-2.1-2.5-5.1-3.7-7.9c-3.2-8.3-10.8-28.5-11.5-30.7c-0.4-1.2-0.5-3,0.1-4.6
	C556.9,369.9,559.2,369.3,561.5,368.5"/>
<path id="path2680" class="st0" d="M511.8,376.7c1.3,1.1,1.9,2.8,2.3,4c0.8,2.4,1.9,23.4,2.7,31.6c0.2,2.7,0.5,6.9-0.3,9.7
	c-0.7,2.4-3.9,5.5-6.9,5.5c-2.5,0-7-4.2-7.6-6.2c-0.8-2.6-0.2-5.6-0.2-8.5c0.4-8.7,1.7-29.6,2-31.9c0.2-1.3,0.8-3.1,2.2-4.2
	c1,0,2.1,0,3,0C510,376.7,510.9,376.7,511.8,376.7"/>
<path id="path2684" class="st0" d="M496.1,376.2c1.1,1.2,1.3,3,1.6,4.2c0.5,2.5-1.8,23.4-2.3,31.7c-0.2,2.7-0.6,6.9-1.8,9.5
	c-1.1,2.3-4.7,4.8-7.7,4.4c-2.5-0.3-6.2-5.3-6.5-7.3c-0.4-2.7,0.6-5.5,1.2-8.4c1.8-8.5,6.3-29,6.9-31.2c0.3-1.1,1-2.5,2.2-3.4
	C491.8,375.8,493.9,376,496.1,376.2"/>
<path id="path2688" class="st0" d="M480.2,374.3c1.3,1.5,1.3,3.7,1.3,5c0,2.6-5.8,22.7-7.8,30.8c-0.7,2.7-1.8,6.7-3.4,9.1
	c-1.4,2-5.5,3.9-8.3,3c-2.4-0.8-5.2-6.3-5.1-8.3c0.1-2.7,1.6-5.3,2.6-8.1c3.2-8.1,11.2-27.5,12.2-29.5c0.5-1,1.5-2.3,2.8-3
	C476.4,373.6,478.3,373.9,480.2,374.3"/>
<path id="path2692" class="st0" d="M464.6,370.9c0.9,1.7,0.6,3.6,0.4,5c-0.4,2.5-9.3,21.5-12.5,29.2c-1.1,2.5-2.8,6.4-4.8,8.4
	c-1.7,1.8-6.1,3-8.7,1.6c-2.2-1.1-4.1-7-3.7-9c0.5-2.6,2.4-5,3.9-7.5c4.4-7.5,15.4-25.4,16.7-27.2c0.5-0.8,1.4-1.7,2.5-2.2
	C460.4,369.7,462.5,370.3,464.6,370.9"/>
<path id="path2696" class="st0" d="M380.6,237.5c2.2-0.5,6.5-2.2,7.3-0.1c-4.7,8.2-7.9,16.9-9.5,26c-1.7,1-5.9-1.5-10.3-3.3
	c-5.9-2.5,2.9-7.5,6-12C375.8,245.6,378.5,239.2,380.6,237.5"/>
<path id="path2700" class="st0" d="M377.9,286.9c1.2,8.7,3.8,17,7.7,24.8c-0.9,1.6-9.5,4.9-14.2,0.9
	C368.7,309.4,374.9,286.5,377.9,286.9"/>
<path id="path2704" class="st0" d="M978.2,138.8c2.1,0,4,0,5.7,0.9c2.3,1.2,9.2,8,9.1,10.7c0,1.5-8.6,4.1-12.4,5.6
	c-2.9,1.3-9.3,3.9-10.4,4.2c-0.7,0.3-5.8,0.3-6.7,0.3c-1.2,0-9.1,0.1-12.5,0.1c-1.3,0-25.6,0.7-33.9,0.7c-9.2,0-18.2,0.2-27.3,0.2
	c-2,0-12.5,0.2-13.1,0.2h-39.2H829l-3.3,0.1l-2.1,0.1h-25.2c-1.9,0-14.7,0.4-20.4,0.7c-7.9,0.6-19.4,1.6-19.9,1.7
	c-1.5,0-4.6,0.6-5.1-1.1c-0.5-1.8,3.3-2.7,4.5-2.9c14-2.8,28.1-6.1,44-8.1c26.5-3.3,39.2-3.7,43.5-5c2.5-0.8,2-4,0-4.3
	c-28.4-3.3-91.8,9.1-100.9,11c-16.9,3.7-29.5,4.6-33.6,4.6H671c-21.9,0-31.4,2.4-32.9,2.7c-4.2,1-8.2,2.3-12,4.3
	c-8,4.1-13.1,9.2-9.7,18.7c1.2,2.1,2.3,4.9,3.5,7c2.7,5.4,6.2,12.1,9,17.3c2,3.8,3.3,8.5,3.3,13.2l-1.1,5.9c-0.1,1-2.5,5.3-3.8,4.6
	c-0.1-0.1-0.4-0.3-0.6-0.7c-1.5-2.3-3.2-4.5-4.9-6.7c-0.6-0.8-1-1.4-1.2-1.7c-2-2.7,3.9-6.3,3.3-9.7c-1.1-6.7-11-19.6-18.4-25.7
	c-4.3-3.6-8.4-8.4-12.2-12.7c-1.6-2.2-3.4-4-5-6.2c-1.4-1.9-2.1-3.1-2.7-5.4c-1.1-4.7,1.7-7.5,4.7-9.9c1.8-1.4,5.2-3.6,8-4.7
	c7.5-3.1,25.1-6.2,35.5-7.6c3.4-0.3,11.9-1.3,18.2-1.5c7,0,13.8,0.2,20.3,0.7c12.9,1,25.4,3.4,38.8,3.6c19.4,0.3,38.2-0.9,57-1.8
	c8.4-0.4,17.3-1,26.3-1.7c13.8-1.2,55.9-0.6,62.1-0.3c3.1,0.2,30.9,1.3,45,2.4c3.1,0.2,5.7,0.5,7.7,0.9c6.2-0.1,12.3,0.1,18.4-0.2
	c11.3-0.7,22.7-2,33.9-2.9L978.2,138.8z"/>
<path id="path2708" class="st0" d="M198.3,137.7c18,0,33.9,1.5,51.3,2.4c8.9,0.4,17.6,0.6,26.5,1c9,0.4,18.2,1.1,27.4,1.1
	c16.4,0,31.9-1.1,47.8-1.8l12.3,0c7.7-0.1,16.1-0.4,23.9,0.3c4.8,0.4,9.7,0.5,14.4,1c6.3,0.7,17.3,2,21.9,4.1c4.3,1.9,7.3,4.8,9,6.6
	c3.1,3.4,7.8,8.8,5.2,12.9c-1.1,2-4.1,5-5.6,6.8c-2.1,2.3-18.3,15.8-22.4,21.6c-3.7,5.1-4.7,9-7,13c-3.1,5.2,0.3,9-0.8,12
	c-3.4,3.6-6.4,7.3-9.2,11.2c-0.6,0.3-1.1,0.4-1.6,0.1c-2.8-1.9-2.2-6.1-1.6-11.5c0.3-4.1,3.6-12.5,4.8-14.7
	c2.3-4.3,9.7-13.4,10.3-15c4.7-13.3-8.5-21.5-18.5-24.8c-3.3-1.1-6.7-2.3-10.2-3c-12.9-2.3-26.8-2.1-40.7-2.5
	c-9.6-0.3-19.7-0.7-29.4-0.7l-21.1,0c-6.7-0.5-13.5-0.9-19.8-2.4c-10.8-2.6-19.8-4.9-30.5-7.3c-9.1-2-19-3.8-28.8-4.4
	c-6.7-0.4-18.2-1.1-25.1-1.1c-5.1,0-42.7-0.4-48.3,1.2c-1.9,0.4-1.6,4-0.3,4.3c7.2,2.1,34.1,2.7,51.9,2c10.5,0.5,22.1,1.8,32,3.2
	c12.8,1.8,24.6,4.1,36.5,7.9l12.7,3.3c2.1,0.6,4.8,2,2,4c-7.8,0-15.1-1.5-23-1.6c-20,0-48.8-0.6-68.9-0.6
	c-2.1-0.1-99.3-1.2-110.9-1.8c-12.9-0.7-24.6-6.9-28.9-9.1c-1.7-0.7-6.5-4.5-6.2-5.3c0.9-2.4,6.2-11.4,10.4-11.8
	c8.8,0.8,19.6,2,28.7,2.4c0,0,64.9-0.7,66.8-0.9c9.8-0.8,33-1.8,43.1-1.9C183.6,137.8,193,137.5,198.3,137.7"/>
<path id="path2712" class="st0" d="M641.3,291.4c3-0.4,9.3,25.5,5.3,27.5c-4,2.1-13.6-2.8-14.7-4.1c-0.2-0.2-0.3-0.5-0.4-0.8
	c3.7-6.9,6.3-14.1,7.9-21.6C639.9,291.9,640.5,291.6,641.3,291.4"/>
<path id="path2716" class="st0" d="M511.4,139.7c-32.5,0-67.4,9.2-68.7,11.2c-3,4.7,3.5,4.5,3.3,11.1c-0.2,8.1-6.5,13.5-8.6,15.8
	c-8.3,8.8-18.8,13.3-26.1,23.1c-0.6,0.7-1.1,4-0.4,5.1c1.9,2.6,6.5-0.3,7.5-1.1c15.4-12,29.8-16.8,47.2-22.2
	c4.3-1.4,26.3-5.9,54.6-4.7c25,1.1,48.1,7.6,68.2,19.4c8,4.7,15.2,10.6,22.8,16.9c2.8,2.3,4.9-1.1,5-2.3c0.1-1.5-1.1-3.5-1.8-4.8
	c-5.8-9.7-18.5-18.4-27.4-28.7c-4.4-5.1-6.6-7-8.2-9.9c-5.4-9.1,2.9-9.7,1.8-13.8C579.8,151.2,547.7,139.7,511.4,139.7"/>
</svg>
