<?xml version="1.0" encoding="utf-8"?>
<!-- Generator: Adobe Illustrator 21.1.0, SVG Export Plug-In . SVG Version: 6.00 Build 0)  -->
<svg version="1.1" id="Layer_1" xmlns="http://www.w3.org/2000/svg" xmlns:xlink="http://www.w3.org/1999/xlink" x="0px" y="0px"
	 viewBox="0 0 1015 1015" style="enable-background:new 0 0 1015 1015;" xml:space="preserve">
<style type="text/css">
	.st0{fill:url(#SVGID_1_);}
	.st1{fill:#333333;}
	.st2{fill:url(#SVGID_2_);}
	.st3{fill:url(#SVGID_3_);}
	.st4{fill:url(#SVGID_4_);}
	.st5{fill:url(#SVGID_5_);}
	.st6{fill:url(#SVGID_6_);}
	.st7{fill:url(#SVGID_7_);}
	.st8{fill:url(#SVGID_8_);}
	.st9{fill:url(#SVGID_9_);}
	.st10{fill:url(#SVGID_10_);}
	.st11{fill:url(#SVGID_11_);}
	.st12{fill:url(#SVGID_12_);}
	.st13{fill:#C2D7E8;}
	.st14{fill:url(#SVGID_13_);}
	.st15{fill:#12404F;}
	.st16{fill:url(#SVGID_14_);}
	.st17{fill:url(#SVGID_15_);}
	.st18{fill:url(#SVGID_16_);}
	.st19{fill:url(#SVGID_17_);}
</style>
<g>
	
		<linearGradient id="SVGID_1_" gradientUnits="userSpaceOnUse" x1="-73.5167" y1="1069.8015" x2="1001.9302" y2="30.5651" gradientTransform="matrix(1 0 0 -1 0 1016)">
		<stop  offset="0" style="stop-color:#DFF4FF"/>
		<stop  offset="9.840000e-02" style="stop-color:#D6EAF5"/>
		<stop  offset="0.2678" style="stop-color:#BFD0D9"/>
		<stop  offset="0.4879" style="stop-color:#98A5AC"/>
		<stop  offset="0.7469" style="stop-color:#646B6E"/>
		<stop  offset="1" style="stop-color:#2B2B2B"/>
	</linearGradient>
	<path class="st0" d="M507.5,0.8C227.6,0.8,0.7,227.8,0.7,507.7c0,279.9,226.9,506.8,506.9,506.8c279.9,0,506.9-226.9,506.9-506.8
		C1014.4,227.8,787.5,0.8,507.5,0.8z M507.5,989.2C241.6,989.2,26,773.6,26,507.7C26,241.8,241.6,26.2,507.5,26.2
		c265.9,0,481.5,215.6,481.5,481.5C989.1,773.6,773.5,989.2,507.5,989.2z"/>
	<path class="st1" d="M992.7,507.7c0,267.9-217.2,485.1-485.1,485.1c-267.9,0-485.1-217.2-485.1-485.1
		c0-267.9,217.2-485.1,485.1-485.1C775.5,22.6,992.7,239.8,992.7,507.7z"/>
	
		<radialGradient id="SVGID_2_" cx="-5.6374" cy="981.631" r="720.1076" gradientTransform="matrix(1 0 0 -1 0 1016)" gradientUnits="userSpaceOnUse">
		<stop  offset="0" style="stop-color:#FFFFFF"/>
		<stop  offset="0.3064" style="stop-color:#A8A8A8"/>
		<stop  offset="0.6461" style="stop-color:#4F4F4F"/>
		<stop  offset="0.8853" style="stop-color:#161616"/>
		<stop  offset="1" style="stop-color:#000000"/>
	</radialGradient>
	<path class="st2" d="M989.1,507.7c0,265.9-215.6,481.5-481.5,481.5C241.6,989.2,26,773.6,26,507.7C26,241.8,241.6,26.2,507.5,26.2
		C773.5,26.2,989.1,241.8,989.1,507.7z"/>
	
		<linearGradient id="SVGID_3_" gradientUnits="userSpaceOnUse" x1="969.3608" y1="-204.0004" x2="1654.3088" y2="-865.886" gradientTransform="matrix(-1 0 0 1 1846.9756 1069.3057)">
		<stop  offset="0" style="stop-color:#DFF4FF"/>
		<stop  offset="8.550000e-02" style="stop-color:#D6EAF5"/>
		<stop  offset="0.2327" style="stop-color:#BED0D9"/>
		<stop  offset="0.4239" style="stop-color:#96A4AC"/>
		<stop  offset="0.6516" style="stop-color:#5F686D"/>
		<stop  offset="0.9075" style="stop-color:#1A1D1E"/>
		<stop  offset="1" style="stop-color:#000000"/>
	</linearGradient>
	<path class="st3" d="M830.4,507.7c0,178.3-144.5,322.8-322.8,322.8c-178.3,0-322.8-144.5-322.8-322.8
		c0-178.3,144.5-322.8,322.8-322.8C685.8,184.9,830.4,329.4,830.4,507.7z"/>
	<polygon points="520.5,176.2 554,87.3 554,176.2 579.5,176.2 579.5,48.9 541.2,48.9 506.4,140 506.7,140 471.9,48.9 433.6,48.9 
		433.6,176.2 459.1,176.2 459.1,87.3 492.6,176.2 	"/>
	<polygon points="870,233.2 826.5,296.7 894.8,263.1 913.4,285.3 805.8,339.3 784.1,313 825.8,250.1 825.5,249.8 756.2,279.5 
		734.2,253.4 806.7,157.3 825.2,179.6 779.8,240.7 850.1,209.4 	"/>
	<path class="st1" d="M282.1,208.9c-10.3-10-26.1-13-40.9-3.7c2.8-7.4,1.7-14.9,0.2-19c-6.4-11.7-8.7-13.1-13.9-17.6
		c-17.1-14.3-35.1-2.1-47.9,13.2l-62.1,74l97.7,81.9l65.5-78C295.5,241.9,297.8,224.2,282.1,208.9z M155.8,244.6l37.3-44.5
		c4.3-5.1,14.1-4.9,20.4,0.3c6.9,5.8,6.9,14,2.3,19.5L178.9,264L155.8,244.6z M258.7,252l-38.9,46.4l-24.4-20.5l39.2-46.7
		c4.4-5.3,14.3-6.8,21-1.2C263.1,236.3,263.9,245.9,258.7,252z"/>
	
		<radialGradient id="SVGID_4_" cx="-134.9665" cy="1054.965" r="1730.3135" gradientTransform="matrix(1 0 0 -1 0 1016)" gradientUnits="userSpaceOnUse">
		<stop  offset="0" style="stop-color:#FFFFFF"/>
		<stop  offset="0.3102" style="stop-color:#FDFDFD"/>
		<stop  offset="0.4505" style="stop-color:#F6F6F6"/>
		<stop  offset="0.5567" style="stop-color:#E9E9E9"/>
		<stop  offset="0.6456" style="stop-color:#D7D7D7"/>
		<stop  offset="0.7238" style="stop-color:#BFBFBF"/>
		<stop  offset="0.7944" style="stop-color:#A2A2A2"/>
		<stop  offset="0.8593" style="stop-color:#808080"/>
		<stop  offset="0.9199" style="stop-color:#575757"/>
		<stop  offset="0.9746" style="stop-color:#2B2B2B"/>
		<stop  offset="1" style="stop-color:#141414"/>
	</radialGradient>
	<polygon class="st4" points="520.7,171.2 554.3,82.4 554.3,171.2 579.7,171.2 579.7,44 541.5,44 506.7,135.1 507,135.1 472.2,44 
		433.9,44 433.9,171.2 459.4,171.2 459.4,82.4 492.9,171.2 	"/>
	
		<radialGradient id="SVGID_5_" cx="-135.0431" cy="1054.9645" r="1730.4609" gradientTransform="matrix(1 0 0 -1 0 1016)" gradientUnits="userSpaceOnUse">
		<stop  offset="0" style="stop-color:#FFFFFF"/>
		<stop  offset="0.3102" style="stop-color:#FDFDFD"/>
		<stop  offset="0.4505" style="stop-color:#F6F6F6"/>
		<stop  offset="0.5567" style="stop-color:#E9E9E9"/>
		<stop  offset="0.6456" style="stop-color:#D7D7D7"/>
		<stop  offset="0.7238" style="stop-color:#BFBFBF"/>
		<stop  offset="0.7944" style="stop-color:#A2A2A2"/>
		<stop  offset="0.8593" style="stop-color:#808080"/>
		<stop  offset="0.9199" style="stop-color:#575757"/>
		<stop  offset="0.9746" style="stop-color:#2B2B2B"/>
		<stop  offset="1" style="stop-color:#141414"/>
	</radialGradient>
	<polygon class="st5" points="870.2,224.7 826.7,288.1 895.1,254.5 913.6,276.8 806.1,330.8 784.3,304.4 826,241.6 825.8,241.3 
		756.4,271 734.4,244.8 807,148.8 825.5,171 780.1,232.2 850.4,200.8 	"/>
	
		<radialGradient id="SVGID_6_" cx="-135.1374" cy="1055.4728" r="1731.7866" gradientTransform="matrix(1 0 0 -1 0 1016)" gradientUnits="userSpaceOnUse">
		<stop  offset="0" style="stop-color:#FFFFFF"/>
		<stop  offset="0.3102" style="stop-color:#FDFDFD"/>
		<stop  offset="0.4505" style="stop-color:#F6F6F6"/>
		<stop  offset="0.5567" style="stop-color:#E9E9E9"/>
		<stop  offset="0.6456" style="stop-color:#D7D7D7"/>
		<stop  offset="0.7238" style="stop-color:#BFBFBF"/>
		<stop  offset="0.7944" style="stop-color:#A2A2A2"/>
		<stop  offset="0.8593" style="stop-color:#808080"/>
		<stop  offset="0.9199" style="stop-color:#575757"/>
		<stop  offset="0.9746" style="stop-color:#2B2B2B"/>
		<stop  offset="1" style="stop-color:#141414"/>
	</radialGradient>
	<path class="st6" d="M277.5,206.4c-10.2-10-26.1-13-40.9-3.7c2.8-7.4,1.7-14.9,0.2-19c-6.4-11.7-8.6-13.1-13.9-17.6
		c-17.1-14.3-35.1-2.1-47.9,13.2l-62.1,74l97.7,81.9l65.5-78.1C291,239.4,293.3,221.7,277.5,206.4z M151.2,242.1l37.3-44.5
		c4.3-5.2,14.1-4.9,20.4,0.3c6.9,5.8,6.9,14,2.3,19.5l-36.9,44L151.2,242.1z M254.2,249.5l-38.9,46.4l-24.4-20.5l39.2-46.7
		c4.4-5.3,14.3-6.8,21-1.2C258.6,233.8,259.3,243.3,254.2,249.5z"/>
	
		<radialGradient id="SVGID_7_" cx="174.9334" cy="815.0778" r="466.7181" gradientTransform="matrix(1 0 0 -1 0 1016)" gradientUnits="userSpaceOnUse">
		<stop  offset="0" style="stop-color:#E6E6E6"/>
		<stop  offset="0.1045" style="stop-color:#D6D6D6"/>
		<stop  offset="0.3074" style="stop-color:#ADADAD"/>
		<stop  offset="0.5884" style="stop-color:#6C6C6C"/>
		<stop  offset="0.9335" style="stop-color:#121212"/>
		<stop  offset="1" style="stop-color:#000000"/>
	</radialGradient>
	<path class="st7" d="M195.5,507.7c0-172.4,139.7-312.1,312.1-312.1c172.4,0,312.1,139.7,312.1,312.1
		c0,172.4-139.7,312.1-312.1,312.1C335.2,819.8,195.5,680,195.5,507.7z"/>
	
		<radialGradient id="SVGID_8_" cx="302.5858" cy="752.3053" r="678.7418" gradientTransform="matrix(1 0 0 -1 0 1016)" gradientUnits="userSpaceOnUse">
		<stop  offset="0" style="stop-color:#FFFFFF"/>
		<stop  offset="0.3435" style="stop-color:#FDFDFD"/>
		<stop  offset="0.4814" style="stop-color:#F6F6F6"/>
		<stop  offset="0.5824" style="stop-color:#EAEAEA"/>
		<stop  offset="0.6654" style="stop-color:#D8D8D8"/>
		<stop  offset="0.7373" style="stop-color:#C2C2C2"/>
		<stop  offset="0.8016" style="stop-color:#A6A6A6"/>
		<stop  offset="0.8602" style="stop-color:#848484"/>
		<stop  offset="0.9126" style="stop-color:#5F5F5F"/>
		<stop  offset="0.9494" style="stop-color:#404040"/>
		<stop  offset="0.9566" style="stop-color:#404040"/>
		<stop  offset="1" style="stop-color:#404040"/>
		<stop  offset="1" style="stop-color:#000000"/>
	</radialGradient>
	<path class="st8" d="M204.4,507.7c0-167.4,135.7-303.1,303.1-303.1s303.1,135.7,303.1,303.1c0,167.4-135.7,303.1-303.1,303.1
		S204.4,675.1,204.4,507.7z"/>
	
		<radialGradient id="SVGID_9_" cx="103.2982" cy="1009.5934" r="1202.0598" gradientTransform="matrix(1 0 0 -1 0 1016)" gradientUnits="userSpaceOnUse">
		<stop  offset="0.1685" style="stop-color:#FFFFFF"/>
		<stop  offset="0.1957" style="stop-color:#E0EFF7"/>
		<stop  offset="0.2406" style="stop-color:#B2D9EC"/>
		<stop  offset="0.2872" style="stop-color:#8BC5E2"/>
		<stop  offset="0.335" style="stop-color:#6BB5DA"/>
		<stop  offset="0.3844" style="stop-color:#52A9D4"/>
		<stop  offset="0.4359" style="stop-color:#41A0CF"/>
		<stop  offset="0.4911" style="stop-color:#369BCD"/>
		<stop  offset="0.5562" style="stop-color:#3399CC"/>
		<stop  offset="0.606" style="stop-color:#3396C8"/>
		<stop  offset="0.6553" style="stop-color:#328EBC"/>
		<stop  offset="0.7045" style="stop-color:#3180A8"/>
		<stop  offset="0.7536" style="stop-color:#2F6D8C"/>
		<stop  offset="0.8027" style="stop-color:#2D5468"/>
		<stop  offset="0.8512" style="stop-color:#2A373D"/>
		<stop  offset="0.8708" style="stop-color:#292929"/>
	</radialGradient>
	<path class="st9" d="M204,507.7h303.6V204.1C339.9,204.1,204,340,204,507.7z"/>
	
		<radialGradient id="SVGID_10_" cx="103.2982" cy="1009.6017" r="1202.0366" gradientTransform="matrix(1 0 0 -1 0 1016)" gradientUnits="userSpaceOnUse">
		<stop  offset="0.1685" style="stop-color:#FFFFFF"/>
		<stop  offset="0.1957" style="stop-color:#E0EFF7"/>
		<stop  offset="0.2406" style="stop-color:#B2D9EC"/>
		<stop  offset="0.2872" style="stop-color:#8BC5E2"/>
		<stop  offset="0.335" style="stop-color:#6BB5DA"/>
		<stop  offset="0.3844" style="stop-color:#52A9D4"/>
		<stop  offset="0.4359" style="stop-color:#41A0CF"/>
		<stop  offset="0.4911" style="stop-color:#369BCD"/>
		<stop  offset="0.5562" style="stop-color:#3399CC"/>
		<stop  offset="0.606" style="stop-color:#3396C8"/>
		<stop  offset="0.6553" style="stop-color:#328EBC"/>
		<stop  offset="0.7045" style="stop-color:#3180A8"/>
		<stop  offset="0.7536" style="stop-color:#2F6D8C"/>
		<stop  offset="0.8027" style="stop-color:#2D5468"/>
		<stop  offset="0.8512" style="stop-color:#2A373D"/>
		<stop  offset="0.8708" style="stop-color:#292929"/>
	</radialGradient>
	<path class="st10" d="M507.5,507.7v303.6c167.7,0,303.6-135.9,303.6-303.6L507.5,507.7L507.5,507.7z"/>
	
		<radialGradient id="SVGID_11_" cx="181.3074" cy="809.1989" r="457.773" gradientTransform="matrix(1 0 0 -1 0 1016)" gradientUnits="userSpaceOnUse">
		<stop  offset="0" style="stop-color:#E6E6E6"/>
		<stop  offset="0.1045" style="stop-color:#D6D6D6"/>
		<stop  offset="0.3074" style="stop-color:#ADADAD"/>
		<stop  offset="0.5884" style="stop-color:#6C6C6C"/>
		<stop  offset="0.9335" style="stop-color:#121212"/>
		<stop  offset="1" style="stop-color:#000000"/>
	</radialGradient>
	<polygon class="st11" points="813.6,502.3 512.9,502.3 512.9,201.6 502.2,201.6 502.2,502.3 201.4,502.3 201.4,513.1 502.2,513.1 
		502.2,813.8 512.9,813.8 512.9,513.1 813.6,513.1 	"/>
	
		<linearGradient id="SVGID_12_" gradientUnits="userSpaceOnUse" x1="447.5149" y1="923.4977" x2="893.933" y2="492.1107" gradientTransform="matrix(1 0 0 -1 0 1016)">
		<stop  offset="0" style="stop-color:#F0F4FF"/>
		<stop  offset="0.1086" style="stop-color:#EBEFF9"/>
		<stop  offset="0.2475" style="stop-color:#DCE0EA"/>
		<stop  offset="0.4028" style="stop-color:#C4C7CF"/>
		<stop  offset="0.5701" style="stop-color:#A2A4AB"/>
		<stop  offset="0.7469" style="stop-color:#76777C"/>
		<stop  offset="0.9291" style="stop-color:#414243"/>
		<stop  offset="1" style="stop-color:#2B2B2B"/>
	</linearGradient>
	<path class="st12" d="M512.9,210.1c160.1,2.8,289.4,132.1,292.2,292.2h5.4C807.7,339.2,676,207.6,512.9,204.7L512.9,210.1
		L512.9,210.1z"/>
	<path class="st13" d="M209.4,502.3c2.8-160.3,132.3-289.7,292.6-292.6v-5.4c-163.3,2.9-295.1,134.7-298,298L209.4,502.3
		L209.4,502.3z"/>
	
		<linearGradient id="SVGID_13_" gradientUnits="userSpaceOnUse" x1="85.1685" y1="559.2836" x2="531.5948" y2="127.8884" gradientTransform="matrix(1 0 0 -1 0 1016)">
		<stop  offset="0" style="stop-color:#F0F4FF"/>
		<stop  offset="0.1086" style="stop-color:#EBEFF9"/>
		<stop  offset="0.2475" style="stop-color:#DCE0EA"/>
		<stop  offset="0.4028" style="stop-color:#C4C7CF"/>
		<stop  offset="0.5701" style="stop-color:#A2A4AB"/>
		<stop  offset="0.7469" style="stop-color:#76777C"/>
		<stop  offset="0.9291" style="stop-color:#414243"/>
		<stop  offset="1" style="stop-color:#2B2B2B"/>
	</linearGradient>
	<path class="st14" d="M502.2,805.3C342,802.4,212.8,673.2,209.9,513.1h-5.4c2.9,163.1,134.5,294.8,297.6,297.6L502.2,805.3
		L502.2,805.3z"/>
	<path class="st15" d="M805.2,513.1c-2.9,160.1-132.1,289.4-292.2,292.2v5.4c163.1-2.8,294.7-134.5,297.6-297.6H805.2z"/>
	
		<linearGradient id="SVGID_14_" gradientUnits="userSpaceOnUse" x1="301.1392" y1="713.1116" x2="532.6281" y2="489.4168" gradientTransform="matrix(1 0 0 -1 0 1016)">
		<stop  offset="0" style="stop-color:#C2D7E8"/>
		<stop  offset="0.1337" style="stop-color:#BACFE1"/>
		<stop  offset="0.3425" style="stop-color:#A4BACD"/>
		<stop  offset="0.6001" style="stop-color:#8098AC"/>
		<stop  offset="0.894" style="stop-color:#4E697F"/>
		<stop  offset="1" style="stop-color:#3A566D"/>
	</linearGradient>
	<polygon class="st16" points="496.4,204.3 496.4,496.4 204.3,496.4 204.3,502.2 496.4,502.2 502.2,502.2 502.2,496.4 502.2,204.3 	
		"/>
	
		<linearGradient id="SVGID_15_" gradientUnits="userSpaceOnUse" x1="185.2043" y1="658.2984" x2="627.1374" y2="231.2453" gradientTransform="matrix(1 0 0 -1 0 1016)">
		<stop  offset="0" style="stop-color:#F0F4FF"/>
		<stop  offset="9.730001e-02" style="stop-color:#E8EBF6"/>
		<stop  offset="0.2568" style="stop-color:#D1D4DD"/>
		<stop  offset="0.4587" style="stop-color:#ABAEB5"/>
		<stop  offset="0.6951" style="stop-color:#78797D"/>
		<stop  offset="0.9578" style="stop-color:#363637"/>
		<stop  offset="1" style="stop-color:#2B2B2B"/>
	</linearGradient>
	<polygon class="st17" points="495.9,807.8 495.9,519.2 206.7,519.2 206.7,513.5 495.9,513.5 501.6,513.5 501.6,519.2 501.6,807.8 	
		"/>
	
		<linearGradient id="SVGID_16_" gradientUnits="userSpaceOnUse" x1="510.9362" y1="499.8857" x2="665.9544" y2="350.0869" gradientTransform="matrix(1 0 0 -1 0 1016)">
		<stop  offset="0" style="stop-color:#D9DEF0"/>
		<stop  offset="0.1229" style="stop-color:#D4DAEC"/>
		<stop  offset="0.2629" style="stop-color:#C7CFE2"/>
		<stop  offset="0.4114" style="stop-color:#B0BCD1"/>
		<stop  offset="0.5657" style="stop-color:#90A1B8"/>
		<stop  offset="0.7246" style="stop-color:#677F99"/>
		<stop  offset="0.8849" style="stop-color:#355674"/>
		<stop  offset="0.9719" style="stop-color:#173D5D"/>
	</linearGradient>
	<polygon class="st18" points="519.1,807.8 519.1,519.2 807.7,519.2 807.7,513.5 519.1,513.5 513.4,513.5 513.4,519.2 513.4,807.8 	
		"/>
	
		<linearGradient id="SVGID_17_" gradientUnits="userSpaceOnUse" x1="352.3576" y1="820.377" x2="793.812" y2="393.7864" gradientTransform="matrix(1 0 0 -1 0 1016)">
		<stop  offset="0" style="stop-color:#F0F4FF"/>
		<stop  offset="0.1086" style="stop-color:#EBEFF9"/>
		<stop  offset="0.2475" style="stop-color:#DCE0EA"/>
		<stop  offset="0.4028" style="stop-color:#C4C7CF"/>
		<stop  offset="0.5701" style="stop-color:#A2A4AB"/>
		<stop  offset="0.7469" style="stop-color:#76777C"/>
		<stop  offset="0.9291" style="stop-color:#414243"/>
		<stop  offset="1" style="stop-color:#2B2B2B"/>
	</linearGradient>
	<polygon class="st19" points="519.1,206.9 519.1,495.5 807.7,495.5 807.7,501.1 519.1,501.1 513.4,501.1 513.4,495.5 513.4,206.9 	
		"/>
</g>
</svg>
