<?xml version="1.0" encoding="utf-8"?>
<!-- Generator: Adobe Illustrator 21.1.0, SVG Export Plug-In . SVG Version: 6.00 Build 0)  -->
<svg version="1.1" id="Layer_1" xmlns="http://www.w3.org/2000/svg" xmlns:xlink="http://www.w3.org/1999/xlink" x="0px" y="0px"
	 viewBox="0 0 2500 2500" style="enable-background:new 0 0 2500 2500;" xml:space="preserve">
<style type="text/css">
	.st0{fill:#FFFFFF;}
	.st1{fill:#BB2534;}
	.st2{fill:#9894C6;}
</style>
<g>
	<path class="st0" d="M0,0h2500v2500H0V0z"/>
	<path class="st0" d="M115.2,1250c0-318.2,506.3-576.1,1134.8-576.1c628.5,0,1134.8,257.9,1134.8,576.1
		c0,318.2-506.3,576.1-1134.8,576.1C621.5,1826.1,115.2,1568.2,115.2,1250L115.2,1250z"/>
	<path class="st1" d="M1250,778.6c641.6,0,1030.1,262.5,1030.1,471.4c0,208.9-388.5,471.4-1030.1,471.4
		c-641.6,0-1030.1-262.5-1030.1-471.4C219.9,1041.2,608.4,778.6,1250,778.6L1250,778.6z"/>
	<path d="M1250,669c627.9,0,1139.7,257.7,1139.7,581c0,323.3-511.8,581-1139.7,581S110.3,1573.3,110.3,1250
		C110.3,926.7,622.1,669,1250,669z M1250,678.8c-629.1,0-1129.9,258.2-1129.9,571.2s500.8,571.3,1129.9,571.3
		c629.1,0,1129.9-258.2,1129.9-571.3S1879.1,678.8,1250,678.8L1250,678.8z"/>
	<path d="M2285,1250c0,213.9-393.9,476.3-1034.9,476.3s-1035-262.4-1035-476.3s393.9-476.3,1035-476.3S2285,1036.1,2285,1250
		L2285,1250z M2275.2,1250c0-203.8-383-466.5-1025.2-466.5c-642.2,0-1025.2,262.7-1025.2,466.5s383,466.5,1025.2,466.5
		C1892.1,1716.5,2275.2,1453.8,2275.2,1250L2275.2,1250z"/>
	<path class="st1" d="M1276.2,726.2c0,14.5-11.7,26.2-26.2,26.2c-14.5,0-26.2-11.7-26.2-26.2s11.7-26.2,26.2-26.2
		C1264.4,700.1,1276.2,711.8,1276.2,726.2L1276.2,726.2z M1189.7,727c0.7,14.5-10.4,26.8-24.8,27.5c-14.5,0.7-26.8-10.4-27.5-24.8
		c0-0.3,0-0.6,0-0.9c-0.3-14.5,11.3-26.4,25.7-26.7C1177.2,701.9,1189,712.9,1189.7,727z M1103.3,731c1,14.4-9.9,26.9-24.3,28
		c-14.4,1-26.9-9.9-28-24.3c-1-14.4,9.9-26.9,24.3-28C1089.8,705.7,1102.3,716.6,1103.3,731z M1017.1,738.1
		c2,14.3-7.9,27.6-22.2,29.6c-14.3,2-27.6-7.9-29.6-22.2c0-0.3-0.1-0.7-0.1-1c-1.5-14.4,9-27.3,23.4-28.7
		C1002.4,714.4,1015.1,724.2,1017.1,738.1z M931.3,749.4c2.3,14.3-7.5,27.7-21.8,30s-27.7-7.5-30-21.8c-2.3-14.3,7.5-27.7,21.8-30
		C915.6,725.3,929,735.1,931.3,749.4z M846.1,764c3.1,14.1-5.8,28.1-19.9,31.2c-14.1,3.1-28.1-5.8-31.2-19.9c0-0.1-0.1-0.3-0.1-0.4
		c-2.9-14.2,6.3-28,20.4-30.9C829.3,741.1,843,750,846.1,764z M761.6,782.8c4,13.9-4,28.4-17.9,32.4c-13.9,4-28.4-4-32.4-17.9
		c-0.1-0.3-0.2-0.6-0.3-1c-3.5-14,5.1-28.2,19.2-31.7C743.8,761.2,757.7,769.3,761.6,782.8z M678.3,806c4.5,13.7-3,28.5-16.8,33
		c-13.7,4.5-28.5-3-33-16.8l0,0c-4.5-13.7,3-28.5,16.8-33C659,784.7,673.8,792.3,678.3,806z M596.5,834.1
		c5.6,13.4-0.8,28.7-14.1,34.2c-13.4,5.6-28.7-0.8-34.2-14.1c-0.2-0.4-0.4-0.9-0.5-1.3c-4.8-13.6,2.3-28.6,16-33.4
		C576.7,814.8,591.2,821.3,596.5,834.1z M516.4,866.8c6.5,12.9,1.3,28.7-11.6,35.2c-12.9,6.5-28.7,1.3-35.2-11.6
		c-0.1-0.2-0.2-0.4-0.3-0.6c-6.2-13.1-0.6-28.7,12.5-34.9C494.7,848.9,510,854.1,516.4,866.8z M439.1,905.6
		c7.6,12.3,3.8,28.5-8.5,36.1c-12.3,7.6-28.5,3.8-36.1-8.5c-0.1-0.2-0.2-0.4-0.4-0.6c-7.3-12.5-3.1-28.5,9.4-35.8
		C415.9,889.6,431.6,893.6,439.1,905.6z M365.8,951.6c8.5,11.7,5.9,28.1-5.8,36.6c0,0,0,0,0,0c-11.7,8.5-28.1,5.9-36.6-5.8
		c-8.5-11.7-5.9-28.1,5.8-36.6S357.3,939.9,365.8,951.6C365.8,951.6,365.8,951.6,365.8,951.6z M297.4,1004.6
		c10.2,10.2,10.2,26.8,0,37c-10.2,10.2-26.8,10.2-37,0c-10.2-10.2-10.2-26.8,0-37C270.6,994.4,287.2,994.4,297.4,1004.6
		C297.4,1004.6,297.4,1004.6,297.4,1004.6z M238,1067.5c12.1,7.9,15.5,24.2,7.5,36.3c-7.9,12.1-24.2,15.5-36.3,7.5
		c-0.4-0.3-0.9-0.6-1.3-0.9c-11.6-8.7-14-25.1-5.3-36.7C210.9,1062.6,226.4,1059.9,238,1067.5z M191.4,1140.5
		c13.7,4.7,21,19.6,16.2,33.3c-4.7,13.7-19.6,21-33.3,16.2l0,0c-13.7-4.7-21-19.6-16.2-33.3C162.8,1143.1,177.7,1135.8,191.4,1140.5
		z M1276.2,1773.8c0,14.5-11.7,26.2-26.2,26.2c-14.5,0-26.2-11.7-26.2-26.2l0,0c0-14.5,11.7-26.2,26.2-26.2
		C1264.5,1747.6,1276.2,1759.3,1276.2,1773.8z M1189.7,1773c0.2,14.5-11.4,26.3-25.9,26.5c-14.5,0.2-26.3-11.4-26.5-25.9
		c0-0.8,0-1.7,0.1-2.5c1.2-14.4,13.8-25.1,28.3-24C1179.1,1748.4,1189.5,1759.5,1189.7,1773z M1103.3,1769
		c-0.9,14.4-13.3,25.4-27.7,24.5c-14.4-0.9-25.4-13.3-24.5-27.7c0-0.1,0-0.3,0-0.4c1.1-14.4,13.7-25.2,28.2-24.1
		C1093.5,1742.4,1104.2,1754.7,1103.3,1769z M1017.1,1761.9c-1.5,14.4-14.3,24.9-28.7,23.4c-14.4-1.5-24.9-14.3-23.4-28.7
		c0-0.3,0.1-0.7,0.1-1c2.1-14.3,15.3-24.3,29.6-22.2C1008.7,1735.3,1018.5,1747.9,1017.1,1761.9z M931.3,1750.6
		c-2.1,14.3-15.3,24.3-29.7,22.2c-14.3-2.1-24.3-15.3-22.2-29.7c0-0.2,0.1-0.5,0.1-0.7c2.5-14.3,16-23.8,30.3-21.4
		C923.8,1723.5,933.3,1736.6,931.3,1750.6z M846.1,1736c-3,14.1-16.9,23.2-31.1,20.2c-14.1-3-23.2-16.9-20.2-31.1
		s16.9-23.2,31.1-20.2C840,1707.9,849.1,1721.9,846.1,1736L846.1,1736z M761.6,1717.2c-3.4,14.1-17.5,22.7-31.6,19.4
		c-14.1-3.4-22.7-17.5-19.4-31.6c0.1-0.5,0.2-0.9,0.4-1.4c4.1-13.9,18.7-21.8,32.6-17.7C756.9,1690,764.9,1703.7,761.6,1717.2z
		 M678.3,1694c-4.5,13.8-19.2,21.3-33,16.8c-13.8-4.5-21.3-19.2-16.8-33c4.5-13.8,19.2-21.3,33-16.8
		C675.2,1665.5,682.8,1680.2,678.3,1694L678.3,1694z M596.5,1665.9c-4.8,13.6-19.8,20.8-33.4,16c-13.6-4.8-20.8-19.8-16-33.4
		c0.2-0.4,0.3-0.9,0.5-1.3c5.6-13.4,20.9-19.7,34.2-14.1C594.7,1638.3,601.1,1652.8,596.5,1665.9z M516.4,1633.2
		c-6.3,13-22,18.4-35,12.1c-13-6.3-18.4-22-12.1-35s22-18.4,35-12.1C517.3,1604.5,522.7,1620.2,516.4,1633.2L516.4,1633.2z
		 M439.1,1594.4c-7.4,12.4-23.5,16.4-35.9,8.9c-12.4-7.5-16.4-23.5-8.9-35.9c7.5-12.4,23.5-16.4,35.9-8.9
		C442.5,1565.9,446.5,1582,439.1,1594.4L439.1,1594.4z M365.8,1548.4c-8.3,11.9-24.6,14.8-36.5,6.5c-11.9-8.3-14.8-24.6-6.5-36.5
		c0.2-0.3,0.4-0.5,0.6-0.8c8.7-11.5,25.2-13.8,36.7-5.1C371.4,1521,373.9,1536.8,365.8,1548.4z M297.4,1495.4
		c-10,10.5-26.6,10.8-37,0.8c-10.5-10-10.8-26.6-0.8-37c0.3-0.3,0.5-0.6,0.8-0.8c10.5-10,27-9.6,37,0.8
		C307.1,1469.3,307.1,1485.3,297.4,1495.4z M237.9,1432.5c-11.9,8.3-28.2,5.4-36.5-6.4c-8.3-11.9-5.4-28.2,6.4-36.5l0,0
		c11.9-8.3,28.2-5.4,36.5,6.4C252.7,1407.9,249.8,1424.2,237.9,1432.5z M191.4,1359.5c-13.6,4.9-28.6-2.1-33.6-15.7
		c-4.9-13.6,2.1-28.6,15.7-33.6c0.3-0.1,0.6-0.2,0.9-0.3c13.8-4.5,28.5,3.1,33,16.9C211.7,1340.2,204.6,1354.7,191.4,1359.5z
		 M168.5,1276.2c-14.4,0.7-26.8-10.4-27.5-24.8c-0.7-14.4,10.4-26.8,24.8-27.5c0.3,0,0.6,0,0.9,0c14.5-0.2,26.4,11.3,26.6,25.7
		C193.6,1263.7,182.6,1275.4,168.5,1276.2z M2333.4,1223.8c14.4,0.5,25.8,12.6,25.3,27.1c-0.5,14.4-12.6,25.8-27.1,25.3
		c-14.4-0.5-25.8-12.6-25.3-27.1C2306.8,1234.6,2318.9,1223.3,2333.4,1223.8L2333.4,1223.8z M2325.7,1309.9
		c13.7,4.6,21.1,19.4,16.6,33.1s-19.4,21.1-33.1,16.6c-0.2-0.1-0.3-0.1-0.5-0.2c-13.6-4.8-20.7-19.8-15.9-33.4
		C2297.6,1312.6,2312.2,1305.4,2325.7,1309.9z M2292.1,1389.6c12.1,7.9,15.5,24.2,7.5,36.3c-7.9,12.1-24.2,15.5-36.3,7.5
		c-0.4-0.3-0.9-0.6-1.3-0.9c-11.6-8.7-14-25.1-5.3-36.7C2265.1,1384.8,2280.5,1382,2292.1,1389.6z M2239.7,1458.4
		c10.2,10.2,10.2,26.8,0,37c-10.2,10.2-26.8,10.2-37,0c-10.2-10.2-10.2-26.8,0-37C2212.9,1448.2,2229.5,1448.2,2239.7,1458.4z
		 M2176.6,1517.6c8.8,11.5,6.5,27.9-5,36.7c-11.5,8.8-27.9,6.5-36.7-5c-0.2-0.3-0.4-0.6-0.7-0.9c-8.2-11.9-5.3-28.2,6.6-36.4
		C2152.3,1504,2168.1,1506.5,2176.6,1517.6z M2105.8,1567.4c7.4,12.4,3.4,28.5-8.9,35.9s-28.5,3.4-35.9-8.9
		c-7.4-12.4-3.4-28.5,8.9-35.9c0,0,0,0,0,0C2082.3,1551,2098.3,1555,2105.8,1567.4C2105.8,1567.4,2105.8,1567.4,2105.8,1567.4z
		 M2030.7,1610.2c6.3,13,0.9,28.7-12.1,35c-13,6.3-28.7,0.9-35-12.1c-6.2-13.1-0.6-28.7,12.5-34.9
		C2009,1592.3,2024.3,1597.6,2030.7,1610.2z M1952.4,1647.1c5.8,13.3-0.3,28.7-13.5,34.5s-28.7-0.3-34.5-13.5
		c-0.3-0.7-0.6-1.5-0.8-2.2c-4.6-13.7,2.8-28.6,16.6-33.1C1933,1628.4,1947,1634.7,1952.4,1647.1z M1871.5,1677.8
		c4.5,13.8-3,28.5-16.8,33c-13.8,4.5-28.5-3-33-16.8c-4.5-13.8,3-28.5,16.8-33C1852.3,1656.5,1867.1,1664.1,1871.5,1677.8
		L1871.5,1677.8z M1789,1703.7c3.7,14-4.5,28.3-18.5,32.1c-14,3.7-28.3-4.5-32.1-18.5l0,0c-3.4-14.1,5.3-28.2,19.4-31.6
		C1771.3,1682.4,1785,1690.3,1789,1703.7z M1705.2,1725.1c3.3,14.1-5.5,28.2-19.6,31.4c-14.1,3.3-28.2-5.5-31.4-19.6
		c-0.1-0.3-0.1-0.6-0.2-1c-2.7-14.2,6.5-27.9,20.8-30.7C1688.5,1702.6,1702,1711.4,1705.2,1725.1z M1620.4,1742.4
		c2.3,14.3-7.5,27.7-21.8,30s-27.7-7.5-30-21.8l0,0c-2.3-14.3,7.5-27.7,21.8-30C1604.7,1718.4,1618.2,1728.2,1620.4,1742.4z
		 M1534.9,1755.5c1.8,14.4-8.4,27.4-22.8,29.2c-14.4,1.8-27.4-8.4-29.2-22.8c-1.8-14.3,8.4-27.4,22.8-29.2c0,0,0,0,0,0
		C1520.1,1730.9,1533.1,1741.1,1534.9,1755.5C1534.9,1755.5,1534.9,1755.5,1534.9,1755.5z M1449,1765.3c1,14.4-9.8,26.9-24.2,27.9
		c0,0,0,0-0.1,0c-14.4,1-26.9-9.9-28-24.3c-1-14.4,9.9-26.9,24.3-28C1435.4,1740,1448,1750.9,1449,1765.3
		C1449,1765.3,1449,1765.3,1449,1765.3z M1362.7,1771.2c0.7,14.4-10.4,26.7-24.8,27.5c-14.4,0.7-26.7-10.4-27.5-24.8
		c0-0.3,0-0.5,0-0.8c-0.3-14.5,11.2-26.4,25.6-26.7C1350.1,1746.1,1361.9,1757.1,1362.7,1771.2L1362.7,1771.2z"/>
	<path class="st1" d="M1223.9,726.2c0-14.5,11.7-26.2,26.2-26.2s26.2,11.7,26.2,26.2c0,14.5-11.7,26.2-26.2,26.2
		S1223.9,740.7,1223.9,726.2z M1310.3,727c0.3-14.5,12.3-26,26.7-25.7s26,12.3,25.7,26.7c0,0.3,0,0.5,0,0.8
		c-0.7,14.5-13,25.6-27.5,24.8C1321.1,752.9,1310.1,741.1,1310.3,727z M1396.8,731c0.9-14.4,13.3-25.4,27.7-24.5
		c14.4,0.9,25.4,13.3,24.5,27.7c0,0.1,0,0.3,0,0.4c-1.1,14.4-13.7,25.2-28.2,24.1C1406.6,757.6,1395.9,745.3,1396.8,731z
		 M1483,738.1c1.8-14.4,14.8-24.6,29.2-22.8c14.4,1.8,24.6,14.8,22.8,29.2c-1.8,14.4-14.8,24.6-29.2,22.8
		C1491.4,765.6,1481.2,752.5,1483,738.1z M1568.7,749.4c2.1-14.3,15.4-24.2,29.7-22.1s24.2,15.4,22.1,29.7c0,0.2-0.1,0.4-0.1,0.6
		c-2.4,14.3-16,23.9-30.2,21.4C1576.2,776.6,1566.7,763.5,1568.7,749.4z M1654,764c3.3-14.1,17.4-22.8,31.5-19.5
		c13.7,3.2,22.4,16.6,19.8,30.4c-3.3,14.1-17.4,22.8-31.5,19.5C1660.1,791.2,1651.3,777.8,1654,764z M1738.4,782.8
		c4.1-13.9,18.7-21.8,32.6-17.7c13.3,4,21.3,17.7,18,31.2c-4.1,13.9-18.7,21.8-32.6,17.7C1743.1,810,1735.2,796.3,1738.4,782.8z
		 M1821.7,806c4.2-13.9,18.8-21.7,32.6-17.6c13.9,4.2,21.7,18.8,17.6,32.6c-0.1,0.4-0.2,0.8-0.4,1.1c-4.8,13.7-19.7,20.8-33.4,16.1
		C1825,833.6,1817.7,819.4,1821.7,806z M1903.5,834.1c5.2-13.5,20.3-20.2,33.8-15.1c13.5,5.2,20.2,20.3,15,33.8
		c-5.2,13.5-20.3,20.2-33.8,15.1c0,0,0,0-0.1,0C1905.1,862.8,1898.4,847.7,1903.5,834.1C1903.5,834.2,1903.5,834.1,1903.5,834.1z
		 M1983.6,866.8c6.3-13,22-18.4,35-12.1c13,6.3,18.4,22,12.1,35l0,0c-6.3,13-22,18.4-35,12.1
		C1982.7,895.5,1977.3,879.8,1983.6,866.8z M2060.9,905.6c7.2-12.6,23.1-17,35.7-9.8s17,23.1,9.8,35.7c-0.2,0.4-0.4,0.7-0.6,1
		c-7.7,12.2-23.9,15.9-36.1,8.1C2057.9,933.2,2054,917.8,2060.9,905.6z M2134.2,951.6c8.5-11.7,24.9-14.3,36.6-5.8
		s14.3,24.9,5.8,36.6c-8.5,11.7-24.9,14.3-36.6,5.8C2128.3,979.7,2125.7,963.3,2134.2,951.6z M2202.6,1004.6
		c10.2-10.2,26.8-10.2,37,0c10.2,10.2,10.2,26.8,0,37c-10.2,10.2-26.8,10.2-37,0C2192.4,1031.4,2192.4,1014.8,2202.6,1004.6
		C2202.6,1004.6,2202.6,1004.6,2202.6,1004.6z M2262.1,1067.5c11.8-8.3,28.2-5.4,36.5,6.4s5.4,28.2-6.4,36.5l0,0
		c-11.8,8.3-28.2,5.4-36.5-6.4C2247.3,1092.1,2250.2,1075.8,2262.1,1067.5z M2308.6,1140.5c13.7-4.7,28.6,2.6,33.3,16.2
		c4.7,13.7-2.6,28.6-16.2,33.3l0,0c-13.7,4.7-28.6-2.6-33.3-16.2C2287.7,1160.1,2295,1145.2,2308.6,1140.5z"/>
	<path class="st0" d="M409.8,1432.5h113.1c47.3,0,80.6-50.5,80.6-92c0-39.6-18.7-63.2-40.2-74.9l-8.5-4.7l8.3-5.1
		c19.3-11.8,31.8-44.1,31.8-66.2c0-27.9-16.8-66.6-54.5-79.1l1.4-3.9c9.8,3.3,17.8,7.9,23.9,12.2c6.3,4.5,10.5,8.6,12.4,10.3
		c4.8,4.4,13.1,12,20.6,20.5c6.5,7.4,11.9,14.3,15.6,19.8c11.1,16.5,16.3,35.8,16.3,51.5c0,21.9-11.7,54.1-31.2,68.1l-1.3,0.9
		l14.8,14.8c15.2,14.2,26.3,36,26.3,67.1c0,42.9-34.3,96.2-84.8,96.2H434.2l-30-29.9L409.8,1432.5L409.8,1432.5z M501.2,1390.5
		h-35.6v-108.8h40.1c17.5,0,32,16,37.7,36.4c-2-0.6-4.1-0.8-6.3-0.8h-35.8L501.2,1390.5L501.2,1390.5z M501.2,1239.5
		c-1.4,0.1-2.8,0.2-4.2,0.2h-31.5v-91.1h31.5c18.9,0,36,12.8,39.5,36.5c-2.6-0.6-5.4-0.9-8.1-0.9h-27.2L501.2,1239.5L501.2,1239.5
		L501.2,1239.5z M778,1440.5c52.8,0,97.8-43.9,97.8-97.2v-234.8l5.6-5.6l30,29.9v241.8c0,55.8-47,101.5-102.1,101.5
		c-23.8,0-48.5-9.9-73.2-28.2c-17.4-13-34.6-35.4-37.3-41c-1-2.1-5.1-9-9.7-18.2l2.2-0.6C708,1419.1,741.1,1440.5,778,1440.5
		L778,1440.5z M743.5,1102.8l30,29.9v241.8c0,2.7,0.3,5.3,0.8,7.8c-21.7-1.7-36.5-18.9-36.5-39.1l0-234.8L743.5,1102.8L743.5,1102.8
		z M977.4,1404.5c-1.1-2.2-5.5-9.5-10.1-19.2l2.3-0.7c16.1,32.9,50.6,56,88.9,56c66.7,0,97.1-38.7,97.1-97.2v-75.1l5.6-5.6l30,29.9
		v82.1c0,60.7-32.1,101.5-101.4,101.5c-25.1,0-49-9.7-73.8-28.2C997.9,1434.3,980.1,1410.2,977.4,1404.5z M1098,1343.8l-30-29.9
		l5.6-5.6h32.9v35.6L1098,1343.8L1098,1343.8z M1017.8,1343.3v-147.6c0-23.3,16.5-43.3,40.3-45.4c26.2-2.3,45,14.7,48.1,38.4
		c-4.9-1.9-10.3-3.4-16.3-2.9c-21.4,1.9-36.4,20.1-36.4,41.1v147.6c0,4,0.7,7.9,1.9,11.6C1033.1,1382.9,1017.8,1363.5,1017.8,1343.3
		L1017.8,1343.3z M1133,1118.1c8.5,6.5,17.5,14,26.7,24.8c8.4,9.8,14.6,19.5,18.9,27.4c8.5,15.7,12.7,34.9,12.7,56.8v5.6h-58.4
		l-30-29.9l5.6-5.6h47.2v-1.3c0-44.9-17.9-78.3-56.7-91.3l1-4.1C1113.2,1104.7,1123.7,1111,1133,1118.1L1133,1118.1z M1346.8,1322.4
		h-42.8l35.3-156.2c2.2-9.6,9.1-9.3,11,0.1l15,74.2L1346.8,1322.4L1346.8,1322.4z M1401.5,1438.1l5.6-5.6h56.4l-74.6-324.2l4.2-5.3
		l30,30l79.9,335.1h-71.5L1401.5,1438.1L1401.5,1438.1z M1327.9,1405.9l-14,62.1H1244l-29.9-29.8l7.4-5.7h57.6l14.1-62.1h98.5
		l7.2,35.6H1327.9L1327.9,1405.9z M1555.6,1438.7l5.6-5.6h55.8v-275.7h68.9v-49l5.6-5.6l30,29.9v60.2h-68.9v275.7h-67.1
		L1555.6,1438.7L1555.6,1438.7z M1516.7,1193l-30-29.9l5.6-5.6h67v35.6H1516.7L1516.7,1193z M1769,1193l-30-29.9l5.6-5.6h67v35.6
		H1769L1769,1193z M1943.9,1102.8l30,29.9v60.2H1905v275.7h-67l-30-30l5.6-5.6h55.8v-275.7h68.9v-49L1943.9,1102.8L1943.9,1102.8z
		 M2065.9,1102.8l30,29.9V1468h-67l-30-29.9l5.6-5.6h55.8v-324L2065.9,1102.8L2065.9,1102.8z"/>
	<path class="st2" d="M601.3,1189.7c0-17.7-6.4-39.9-20.3-57.7c4.9,4.5,11.5,10.8,17.6,17.8c6.5,7.4,11.9,14.3,15.6,19.8
		c11.1,16.5,16.3,35.8,16.3,51.5c0,21.9-11.7,54.1-31.2,68.1l-1.3,0.9l14.8,14.8c15.2,14.2,26.3,36,26.3,67.1
		c0,42.9-34.3,96.2-84.8,96.2H434.2l-29.2-29.2h118c52.1,0,87-54.8,87-98.4c0-41.3-19.3-66.9-42.3-79.9
		C588.8,1246.7,601.3,1212.6,601.3,1189.7L601.3,1189.7z M501.2,1384.1H472v-96h33.7c12.8,0,25.3,12,30.8,29.2h-35.2V1384.1z
		 M497.1,1154.9c15,0,29.2,9.6,32.8,29.2l-1.4,0h-27.2v48.9c-1.3,0.1-2.7,0.2-4.2,0.2H472v-78.3H497.1z M773.5,1374.6l0,1.3
		c-17.6-2-29.3-16.1-29.3-32.6l0-239.7l29.2,29.2V1374.6L773.5,1374.6z M707.4,1418.9c18.8,17.3,43.8,28,70.6,28
		c56.3,0,104.2-46.7,104.2-103.6v-239.7l29.2,29.2v241.8c0,55.8-47,101.5-102.1,101.5c-23.8,0-48.5-9.9-73.2-28.2
		C725.4,1439.7,714.6,1428,707.4,1418.9L707.4,1418.9z M987.2,1418.6c19,17.6,44.3,28.4,71.3,28.4c70.6,0,103.5-41.9,103.5-103.7
		v-80l29.2,29.2v82.1c0,60.7-32.1,101.5-101.4,101.5c-25.1,0-49-9.7-73.8-28.2C1005.2,1439.8,994.6,1428,987.2,1418.6z
		 M1068.8,1314.6h31.3v29.2h-2.1L1068.8,1314.6z M1058.6,1156.7c21.3-1.9,36.9,10.9,40.7,29.9c-3.1-0.7-6.3-1-9.5-0.8
		c-21.4,1.9-36.4,20.1-36.4,41.1v147.6c0,1.6,0.1,3.2,0.3,4.9c-17.6-3.9-29.6-19.8-29.6-36.1v-147.6
		C1024.2,1175.4,1038.4,1158.5,1058.6,1156.7z M1103.6,1203.5h58.4v-7.8c0-30.3-7.9-55.8-24.3-73.9c7.1,5.7,14.4,12.2,22,21
		c8.4,9.8,14.6,19.5,18.9,27.4c8.5,15.7,12.7,34.9,12.7,56.8v5.6h-58.4L1103.6,1203.5L1103.6,1203.5z M1348.2,1316h-36.3l32.7-144.8
		l17.2,84.5L1348.2,1316z M1402.3,1438.9h69.3l-76.9-334.4l28.5,28.5L1503,1468h-71.5L1402.3,1438.9L1402.3,1438.9z M1214.7,1438.9
		h69.4l14.1-62.1h88.2l5.9,29.2h-64.4l-14,62.1H1244L1214.7,1438.9z M1556.4,1439.5h67.1v-275.7h68.9v-60.2l29.2,29.2v60.2h-68.9
		v275.7h-67.1L1556.4,1439.5z M1487.5,1163.8h65.4v29.2h-36.2L1487.5,1163.8z M1739.8,1163.8h65.5v29.2H1769L1739.8,1163.8z
		 M1808.7,1439.5h67v-275.7h68.9v-60.2l29.2,29.2v60.2H1905v275.7h-67L1808.7,1439.5z M1999.7,1438.9h67v-335.2l29.2,29.2V1468h-67
		L1999.7,1438.9z"/>
	<path d="M402.2,1438.1l7-7h113.7c46.3,0,79.2-49.5,79.2-90.6c0-39.1-18.4-62.3-39.5-73.7l-10.6-5.8l10.3-6.3
		c18.8-11.4,31.1-43.2,31.1-65c0-27.9-17-66.5-54.9-78.2l2.3-6.4c21.2,6.7,34.1,19.7,38,23.2c4.8,4.4,13.2,12,20.7,20.6
		c6.5,7.4,11.9,14.4,15.7,19.9c11.3,16.7,16.5,36.3,16.5,52.2c0,22.2-11.8,54.8-31.7,69.1l13.6,13.7c15.5,14.5,26.7,36.7,26.7,68
		c0,43.4-34.7,97.6-86.2,97.6H433.6L402.2,1438.1L402.2,1438.1z M502.6,1318.5v73.3h-38.4v-111.6h41.5c19.1,0,34.4,18,39.6,39.8
		c-2.6-1-5.4-1.5-8.2-1.5L502.6,1318.5L502.6,1318.5z M502.6,1185.5v55.2c-1.8,0.2-3.7,0.3-5.5,0.3h-32.8v-93.8h32.8
		c20.1,0,38.2,14,41.1,39.6c-3.1-0.9-6.4-1.4-9.7-1.4H502.6z M692.1,1386.4c16.2,31.2,49.1,52.7,85.9,52.7
		c52.1,0,96.5-43.3,96.5-95.9v-235.4l7-7l31.4,31.3v242.4c0,56.5-47.6,102.9-103.4,102.9c-24.1,0-49.2-10-74-28.5
		c-17.5-13.1-34.9-35.6-37.7-41.5c-1-2.2-5.6-9.7-10.4-19.7L692.1,1386.4z M736.5,1107.9l7-7l31.4,31.3l0,242.4
		c0,3.2,0.4,6.3,1.2,9.3c-23.4-0.9-39.6-19.1-39.6-40.6V1107.9L736.5,1107.9z M1366.6,1240.5l-18.8,83.3h-45.6l35.7-157.9
		c2.6-11.1,11.5-10.6,13.6,0.2L1366.6,1240.5L1366.6,1240.5z M1431,1469.4l-31.4-31.3l7-7h55.3l-74.3-323.2l5.6-7l31.4,31.3
		l80.3,337.2H1431z M1400.5,1407.3H1329l-14.1,62.1h-71.5l-31.4-31.3l9-7h57l14-62.1h100.7L1400.5,1407.3L1400.5,1407.3z M1585,1470
		l-31.4-31.3l7-7h55v-275.7h68.9v-48.2l7-7l31.4,31.3v62.1H1654V1470H1585z M1560.7,1194.3h-44.6l-31.4-31.3l7-7h68.9L1560.7,1194.3
		L1560.7,1194.3L1560.7,1194.3z M1813,1194.3h-44.5L1737,1163l7-7h68.9L1813,1194.3L1813,1194.3z M1936.9,1107.9l7-7l31.4,31.3v62.1
		h-68.9V1470h-68.9l-31.4-31.3l7-7h55v-275.7h68.9L1936.9,1107.9L1936.9,1107.9z M2059,1107.9l7-7l31.4,31.3v337.2h-68.9l-31.4-31.3
		l7-7h55L2059,1107.9L2059,1107.9z M1015.2,1448.9c-18.4-13.7-36.2-37.9-39-43.8c-1.1-2.3-5.9-10.2-10.7-20.6l4.9-1.6
		c15.7,33.1,50,56.3,88.2,56.3c65.9,0,95.8-38,95.8-95.9v-75.7l7-7l31.4,31.3v82.7c0,61.3-32.6,102.9-102.7,102.9
		C1064.4,1477.4,1040.2,1467.6,1015.2,1448.9z M1107.9,1345.1h-10.5l-31.4-31.3l7-7h34.8v36.4L1107.9,1345.1L1107.9,1345.1z
		 M1057.3,1387.9c-24-2.4-40.9-23-40.9-44.6v-147.6c0-24,17-44.6,41.5-46.7c27.8-2.4,47.6,16.3,49.8,41.9
		c-5.3-2.2-11.3-4.2-17.8-3.6c-20.6,1.8-35.1,19.4-35.1,39.8v147.6C1054.8,1379.2,1055.6,1383.7,1057.3,1387.9L1057.3,1387.9z
		 M1098.9,1098.6c14.1,4.4,25.2,11.1,34.9,18.4c8.5,6.6,17.6,14.1,26.9,25c7.3,8.5,13.7,17.8,19,27.6c8.6,15.9,12.9,35.4,12.9,57.4
		v7h-60.3l-31.4-31.3l7-7h46.4c0-45-18-77.9-57-90.4L1098.9,1098.6L1098.9,1098.6z"/>
	<path class="st0" d="M471.2,1287.2v97.6h34.5c21.9,0,34.5-24,34.5-48.8c0-26.6-16.6-48.8-34.5-48.8L471.2,1287.2L471.2,1287.2z
		 M471.2,1154.2v79.9h25.9c21.9,0,34.5-15.2,34.5-39.9c0-26.6-16.6-39.9-34.5-39.9L471.2,1154.2L471.2,1154.2L471.2,1154.2z
		 M566,1260.6c23.3,12.7,43.1,38.1,43.1,79.9c0,43.4-34.7,97.6-86.2,97.6H402.2v-337.1h112c60.3,0,86.2,53.2,86.2,88.7
		C600.5,1212.9,587.6,1247.5,566,1260.6L566,1260.6z M812.5,1343.3v-242.4h68.9v242.4c0,56.5-47.6,102.8-103.4,102.8
		c-55.8,0-103.4-46.3-103.4-102.8v-242.4h68.9l0,242.4c0,18.2,14,33.6,34.5,33.6C798.4,1376.9,812.5,1361.5,812.5,1343.3
		L812.5,1343.3z M1100.9,1343.3v-29.5h-34.8v-53.2l95.2,0v82.7c0,61.3-32.6,102.9-102.7,102.9c-55.8,0-104.1-46.3-104.1-102.9
		v-147.6c0-56.5,48.3-102.8,104.1-102.8c70.2,0,102.7,41.5,102.7,102.8v7h-60.3v-7c0-24.3-17.3-42-42.4-39.8
		c-20.6,1.8-35.2,19.1-35.2,39.8v147.6c0,18.2,14.6,35.9,35.2,37.7C1083.6,1383.2,1100.9,1367.6,1100.9,1343.3z M1375,1316.8
		l-30.3-149.4l-33.7,149.4H1375L1375,1316.8z M1212,1438.1l86.2-337.2h94.8l77.6,337.2h-71L1387,1376h-89.4l-14.1,62.1H1212z
		 M1622.6,1438.7h-68.9V1163h-68.9v-62.1h206.9v62.1h-69L1622.6,1438.7L1622.6,1438.7z M1874.9,1438.7H1806V1163H1737v-62.1h206.9
		v62.1h-69L1874.9,1438.7L1874.9,1438.7z M1997,1100.9h68.9v337.2H1997V1100.9z"/>
	<path class="st2" d="M1269.4,951.3v56.6h56c17.7,0,28.3-12.7,28.3-28.3c0-15.6-10.6-28.3-28.3-28.3H1269.4z M1269.4,863.5V914h56
		c15.7,0,25.3-11.3,25.3-25.2c0-13.9-9.6-25.2-25.3-25.2H1269.4z M1161.2,952.7v-52h31.2V914h35.1v-50.5h-84.2v17H1112v-48.1h213.4
		c32.9,0,59.5,26.6,59.5,59.5c0,14.4-5.2,28.4-14.7,39.2l-0.8,0.9l0.9,0.9c24.1,24.7,23.6,64.4-1.1,88.5
		c-11.7,11.4-27.4,17.8-43.7,17.8H1112V991h31.2v17h84.2v-56.6h-35.1v13.4h-31.2L1161.2,952.7L1161.2,952.7z"/>
	<path d="M1325.4,1006.6c16.9,0,27-12.1,27-27s-10.1-27-27-27h-54.7v53.9L1325.4,1006.6L1325.4,1006.6z M1325.4,912.6
		c14.9,0,23.9-10.7,23.9-23.9c0-13.2-9-23.9-23.9-23.9h-54.7v47.8L1325.4,912.6L1325.4,912.6z M1193.7,952.7V966h-33.9v-66.8h33.9
		v13.4h32.4v-47.8h-81.5v17h-33.9V831h214.8c33.6,0,60.9,27.3,60.8,60.9c0,14.7-5.4,29-15.1,40.1c24.6,25.3,24.1,65.8-1.2,90.4
		c-11.9,11.6-27.9,18.1-44.6,18.1h-214.7v-50.8h33.9v17h81.5v-53.9H1193.7L1193.7,952.7z"/>
</g>
</svg>
