<?xml version="1.0" encoding="utf-8"?>
<!-- Generator: Adobe Illustrator 21.1.0, SVG Export Plug-In . SVG Version: 6.00 Build 0)  -->
<svg version="1.1"
	 id="svg2" xmlns:cc="http://creativecommons.org/ns#" xmlns:dc="http://purl.org/dc/elements/1.1/" xmlns:rdf="http://www.w3.org/1999/02/22-rdf-syntax-ns#" xmlns:svg="http://www.w3.org/2000/svg"
	 xmlns="http://www.w3.org/2000/svg" xmlns:xlink="http://www.w3.org/1999/xlink" x="0px" y="0px" viewBox="0 0 400 365"
	 style="enable-background:new 0 0 400 365;" xml:space="preserve">
<style type="text/css">
	.st0{fill:#C7D6EE;}
	.st1{fill:url(#path44_1_);}
	.st2{fill:#E9CF98;}
	.st3{fill:#FFFFFF;}
	.st4{fill:url(#path104_1_);}
	.st5{fill:url(#path128_1_);}
	.st6{fill:url(#path150_1_);}
	.st7{fill:url(#path172_1_);}
	.st8{fill:url(#path196_1_);}
	.st9{fill:url(#path228_1_);}
	.st10{fill:url(#path248_1_);}
	.st11{fill:url(#path268_1_);}
	.st12{fill:url(#path292_1_);}
	.st13{fill:url(#path316_1_);}
	.st14{fill:url(#path336_1_);}
	.st15{fill:url(#path358_1_);}
	.st16{fill:url(#path380_1_);}
	.st17{fill:url(#path404_1_);}
	.st18{fill:url(#path430_1_);}
	.st19{fill:url(#path458_1_);}
	.st20{fill:url(#path484_1_);}
	.st21{fill:url(#path506_1_);}
	.st22{fill:url(#path528_1_);}
	.st23{fill:url(#path550_1_);}
	.st24{fill:url(#path570_1_);}
	.st25{fill:url(#path590_1_);}
	.st26{fill:url(#path614_1_);}
	.st27{fill:url(#path638_1_);}
	.st28{fill:url(#path662_1_);}
	.st29{fill:url(#path686_1_);}
	.st30{fill:url(#path708_1_);}
	.st31{fill:url(#path730_1_);}
	.st32{fill:url(#path750_1_);}
	.st33{fill:url(#path770_1_);}
	.st34{fill:url(#path794_1_);}
	.st35{fill:url(#path816_1_);}
	.st36{fill:url(#path836_1_);}
	.st37{fill:url(#path856_1_);}
</style>
<g id="g10" transform="matrix(1.25,0,0,-1.25,0,199.99995)">
	<g id="g4662" transform="matrix(1,0,0,0.98934456,0,-5.9174377)">
		<g id="g12" transform="matrix(1.0606815,0,0,1.0529918,-155.33042,-359.4611)">
			<g>
				<g id="g14">
					<g id="g20" transform="translate(176.7593,470.6899)">
						<path id="path22" class="st0" d="M0-65.3c1.3,3.1,2.5,5.6,11,5.6h48.9c2.7,0,5.4,1.3,5.4,5.2v13.7c0,1.5,1.5,3.7,5.6,3.7
							h101.3c2.9,0,5.2-1.5,5.2-5.2v-10.8c0-2.9,1.3-6,5.6-6h81.3c2.9,0,6.7-0.8,5-4.4c-1.7-3.7-28.1-57.2-29.9-60.8
							c-0.7-1.4-1.2-3.2-6.6-3.2h-50c-2.4,0-6.3,0-6.3-4.6v-12.7c0-1.8-1.4-4.6-5.7-4.6H70.6c-3.1,0-5.4,1.6-5.4,4.7v11.2
							c0,2.4-1.3,6-5,6h-84.2c-2.7,0-5.2,2.1-3.6,6C-25.9-117.4,0-65.3,0-65.3"/>
					</g>
				</g>
			</g>
		</g>
		<g id="g24" transform="matrix(1.0606815,0,0,1.0529918,-155.33042,-359.4611)">
			<g id="g26">
				<g id="g32">
					<g id="g34">
						
							<linearGradient id="path44_1_" gradientUnits="userSpaceOnUse" x1="258.9692" y1="323.7878" x2="259.9692" y2="323.7878" gradientTransform="matrix(-30.0925 -59.8741 -63.2751 0.1709 28460.1719 15850.4209)">
							<stop  offset="0" style="stop-color:#C7D6EE"/>
							<stop  offset="0.1854" style="stop-color:#91AFC8"/>
							<stop  offset="1" style="stop-color:#002334"/>
						</linearGradient>
						<path id="path44" class="st1" d="M155.7,355.2l2.3,0l23,45.7l-2.3,0L155.7,355.2L155.7,355.2z"/>
					</g>
				</g>
			</g>
		</g>
		<g id="g46" transform="matrix(1.0606815,0,0,1.0529918,-155.33042,-359.4611)">
			<g>
				<g id="g48">
					<g id="g54" transform="translate(237.1973,414.0474)">
						<path id="path56" class="st2" d="M0-65.3h-78.7c-2.7,0-3.7,1.3-2.6,3.4C-75.4-50-55.8-11-55.3-10c0.6,1.2,2,2.7,4.7,2.7H2.2
							c5.5,0,6.4,2.4,6.4,6.7v12.9c0,1.7,1.1,2.9,3.2,2.9h96.7c2.6,0,3.7-0.9,3.7-2.6V3.1c0-3.8-0.7-9.8,7.7-9.8h79.9
							c3.6,0,4.5-2.4,2.6-6.3c-7.1-14.3-24.5-48.1-25-49.3c-0.7-1.5-2.8-2.7-6.2-2.7h-52.5c-4.3,0-8.7-2.9-8.7-7.2v-11
							c0-2-1.2-3.4-3.3-3.4H13c-2.9,0-4,1.6-4,3.8v10C8.9-69.3,6.6-65.3,0-65.3"/>
					</g>
					<g id="g58" transform="translate(342.1631,416.6284)">
						<path id="path60" class="st3" d="M0-65.3l11-11.5c0,0,0.8,2.5,3.8,3.1L2.5-62.1C2.5-62.1,0.5-63.2,0-65.3"/>
					</g>
					<g id="g62" transform="translate(237.4531,408.4424)">
						<path id="path64" class="st3" d="M0-65.3c0,0,4.4-0.2,4.4-6l10.2,15.1l-2.8,2L0-65.3z"/>
					</g>
					<g id="g66" transform="translate(346.2324,465.6885)">
						<path id="path68" class="st3" d="M0-65.3l11.6,11.3c0,0-1.6,0.2-3.2,2.8L-3.1-62.9L0-65.3z"/>
					</g>
					<g id="g70" transform="translate(341.2051,488.8398)">
						<path id="path72" class="st3" d="M0-65.3l10.7,9.2c0,0,1.2-0.7,1.7-1.8L1.2-68.2L0-65.3z"/>
					</g>
					<g id="g74" transform="translate(242.1387,494.6826)">
						<path id="path76" class="st3" d="M0-65.3c0,1.9,1.8,4.1,4.6,4.1l8.1-10.1c0,0-2.4,0-2.8-0.9c-0.4-0.9-0.8-2.8-0.8-2.8L0-65.3z
							"/>
					</g>
					<g id="g78" transform="translate(238.6216,476.54)">
						<path id="path80" class="st3" d="M0-65.3c0,0,3.5,0.6,3.5,4.3l8.1-9.5l-5.1-3.7L0-65.3z"/>
					</g>
				</g>
			</g>
		</g>
		<g id="g82" transform="matrix(1.0606815,0,0,1.0529918,-155.33042,-359.4611)">
			<g id="g84">
				<g id="g90">
					<g id="g92">
						
							<linearGradient id="path104_1_" gradientUnits="userSpaceOnUse" x1="257.543" y1="322.7639" x2="258.543" y2="322.7639" gradientTransform="matrix(36.8374 -36.8374 -36.1807 -36.1807 2501.0352 21610.6621)">
							<stop  offset="0" style="stop-color:#E1E8F5"/>
							<stop  offset="0.8989" style="stop-color:#92A5C1"/>
							<stop  offset="0.9551" style="stop-color:#476886"/>
							<stop  offset="1" style="stop-color:#E1E8F5"/>
						</linearGradient>
						<path id="path104" class="st4" d="M298.3,433.5l-0.4-4.3h46.5c1.5,0,2.4-0.4,3-1.5l0,0l5.2,4.6c0,0-1.3,1.3-3.7,1.3l0,0H298.3
							z"/>
					</g>
				</g>
			</g>
		</g>
		<g id="g106" transform="matrix(1.0606815,0,0,1.0529918,-155.33042,-359.4611)">
			<g id="g108">
				<g id="g114">
					<g id="g116">
						
							<linearGradient id="path128_1_" gradientUnits="userSpaceOnUse" x1="258.5669" y1="319.6836" x2="259.5669" y2="319.6836" gradientTransform="matrix(37.6845 37.6844 37.0127 -37.0126 -21318.7637 2505.8816)">
							<stop  offset="0" style="stop-color:#E1E8F5"/>
							<stop  offset="3.932190e-02" style="stop-color:#476886"/>
							<stop  offset="8.988950e-02" style="stop-color:#92A5C1"/>
							<stop  offset="1" style="stop-color:#E1E8F5"/>
						</linearGradient>
						<path id="path128" class="st5" d="M246.8,433.5c-1.2,0-2.7-0.6-3.4-1.6l0,0l3.3-3.6c0,0,0.7,0.9,3.3,0.9l0,0H298l0.4,4.3
							H246.8z"/>
					</g>
				</g>
			</g>
		</g>
		<g id="g130" transform="matrix(1.0606815,0,0,1.0529918,-155.33042,-359.4611)">
			<g id="g132">
				<g id="g138">
					<g id="g140">
						
							<linearGradient id="path150_1_" gradientUnits="userSpaceOnUse" x1="256.1455" y1="315.3913" x2="257.1454" y2="315.3913" gradientTransform="matrix(12.27 11.4419 11.2379 -12.0512 -6447.8965 1286.2311)">
							<stop  offset="0" style="stop-color:#E1E8F5"/>
							<stop  offset="0.1573" style="stop-color:#C7D6EE"/>
							<stop  offset="1" style="stop-color:#E1E8F5"/>
						</linearGradient>
						<path id="path150" class="st6" d="M242.1,429.4v-13.2c0-2.1-0.4-2.6-0.4-2.6l0,0l3.7-3.9c0,0,0.5,1.4,0.5,2.2l0,0V425
							c0,0.8,0.1,2,0.1,2l0,0l-3.5,4.3C242.6,431.3,242.1,430.5,242.1,429.4"/>
					</g>
				</g>
			</g>
		</g>
		<g id="g152" transform="matrix(1.0606815,0,0,1.0529918,-155.33042,-359.4611)">
			<g id="g154">
				<g id="g160">
					<g id="g162">
						
							<linearGradient id="path172_1_" gradientUnits="userSpaceOnUse" x1="265.6519" y1="324.5871" x2="266.6519" y2="324.5871" gradientTransform="matrix(-12.9917 12.115 -11.899 -12.7601 7670.6406 1339.2246)">
							<stop  offset="0" style="stop-color:#E1E8F5"/>
							<stop  offset="0.1573" style="stop-color:#C7D6EE"/>
							<stop  offset="1" style="stop-color:#E1E8F5"/>
						</linearGradient>
						<path id="path172" class="st7" d="M349.6,427.4c0,0-0.1-1.5-0.1-2.4l0,0c0-0.8,0.1-12,0.1-12.8l0,0c0-0.8,1.2-2.4,1.2-2.4l0,0
							l4.4,3.9c0,0-1,0.4-1,2.4l0,0v13.2c0,1.1-0.9,1.9-0.9,1.9l0,0L349.6,427.4L349.6,427.4z"/>
					</g>
				</g>
			</g>
		</g>
		<g id="g174" transform="matrix(1.0606815,0,0,1.0529918,-155.33042,-359.4611)">
			<g id="g176">
				<g id="g182">
					<g id="g184">
						
							<linearGradient id="path196_1_" gradientUnits="userSpaceOnUse" x1="258.6766" y1="319.9032" x2="259.6766" y2="319.9032" gradientTransform="matrix(42.2657 42.2657 41.5123 -41.5122 -24017.4941 2739.1753)">
							<stop  offset="0" style="stop-color:#476886"/>
							<stop  offset="0.1292" style="stop-color:#92A5C1"/>
							<stop  offset="0.1292" style="stop-color:#92A5C1"/>
							<stop  offset="1" style="stop-color:#E1E8F5"/>
						</linearGradient>
						<path id="path196" class="st8" d="M236.9,411c-1.4,0-48.9-0.1-51.4-0.1l0,0c-3.7,0-5.8-1.6-5.8-1.6l0,0l3-4.1
							c0,0,1.2,1.5,3.9,1.5l0,0h53.6c1.9,0,3.3,0.8,3.3,0.8l0,0l-3.5,4.2C240,411.8,238.2,411,236.9,411"/>
					</g>
				</g>
			</g>
		</g>
		<g id="g198" transform="matrix(1.0606815,0,0,1.0529918,-155.33042,-359.4611)">
			<g id="g200">
				<g id="g206">
					<g id="g208">
						
							<linearGradient id="path228_1_" gradientUnits="userSpaceOnUse" x1="270.5903" y1="313.2757" x2="271.5903" y2="313.2757" gradientTransform="matrix(-4.953 7.0736 6.9475 4.8647 -680.6194 -3090.6204)">
							<stop  offset="0" style="stop-color:#002334"/>
							<stop  offset="0.1067" style="stop-color:#FFFFFF"/>
							<stop  offset="0.1067" style="stop-color:#FFFFFF"/>
							<stop  offset="0.1854" style="stop-color:#91AFC8"/>
							<stop  offset="0.2416" style="stop-color:#002334"/>
							<stop  offset="0.5337" style="stop-color:#5E738F"/>
							<stop  offset="0.7584" style="stop-color:#002334"/>
							<stop  offset="1" style="stop-color:#002334"/>
						</linearGradient>
						<path id="path228" class="st9" d="M154.3,351.8l-5.5-3.8c0,0-0.4-1.6,0.4-2.8l0,0c0.8-1.2,2.1-1.4,2.1-1.4l0,0l7.1,5.1
							c0,0-4,0.2-2.4,3.2l0,0c1.7,3,1.6,4.1,1.6,4.1l0,0C157.6,356.1,155.6,355.7,154.3,351.8"/>
					</g>
				</g>
			</g>
		</g>
		<g id="g230" transform="matrix(1.0606815,0,0,1.0529918,-155.33042,-359.4611)">
			<g id="g232">
				<g id="g238">
					<g id="g240">
						
							<linearGradient id="path248_1_" gradientUnits="userSpaceOnUse" x1="261.5443" y1="323.7121" x2="262.5443" y2="323.7121" gradientTransform="matrix(-38.1417 -19.411 -19.065 37.4617 16329.6035 -6664.9316)">
							<stop  offset="0" style="stop-color:#91AFC8"/>
							<stop  offset="1" style="stop-color:#002334"/>
						</linearGradient>
						<path id="path248" class="st10" d="M169.3,389.4c-4.4-9-19-37.9-19.5-38.9l0,0c-0.5-1-1-2.8-1-2.8l0,0l5.7,4.1l26.5,52.8
							C180.9,404.6,173.7,398.4,169.3,389.4"/>
					</g>
				</g>
			</g>
		</g>
		<g id="g250" transform="matrix(1.0606815,0,0,1.0529918,-155.33042,-359.4611)">
			<g id="g252">
				<g id="g258">
					<g id="g260">
						
							<linearGradient id="path268_1_" gradientUnits="userSpaceOnUse" x1="262.9012" y1="315.3603" x2="263.9012" y2="315.3603" gradientTransform="matrix(-2.9241 16.5835 16.2879 2.872 -4169.8379 -4925.8423)">
							<stop  offset="0" style="stop-color:#A5B9CC"/>
							<stop  offset="1" style="stop-color:#002334"/>
						</linearGradient>
						<path id="path268" class="st11" d="M158.5,348.6l-7.3-5.2c0,0,82.7-0.2,84.8-0.2l0,0c2.1,0,3-0.4,3-0.4l0,0l3.7,4.2
							c0,0-3.6,1.6-5.5,1.6l0,0H158.5L158.5,348.6z"/>
					</g>
				</g>
			</g>
		</g>
		<g id="g270" transform="matrix(1.0606815,0,0,1.0529918,-155.33042,-359.4611)">
			<g id="g272">
				<g id="g278">
					<g id="g280">
						
							<linearGradient id="path292_1_" gradientUnits="userSpaceOnUse" x1="236.2955" y1="313.9863" x2="237.2955" y2="313.9863" gradientTransform="matrix(4.859 0 0 -4.7724 -906.1355 1832.9813)">
							<stop  offset="0" style="stop-color:#5E738F"/>
							<stop  offset="0.4888" style="stop-color:#91AFC8"/>
							<stop  offset="0.4888" style="stop-color:#91AFC8"/>
							<stop  offset="1" style="stop-color:#91AFC8"/>
						</linearGradient>
						<path id="path292" class="st12" d="M241.1,340.5c0,0,0.8-1.5,0.8-2.8l0,0v-10.9c0-1.6,0.6-2.9,0.6-2.9l0,0l3.6,4.3v13.1
							c0,2.1-1.2,3.9-1.2,3.9l0,0L241.1,340.5L241.1,340.5z"/>
					</g>
				</g>
			</g>
		</g>
		<g id="g294" transform="matrix(1.0606815,0,0,1.0529918,-155.33042,-359.4611)">
			<g id="g296">
				<g id="g302">
					<g id="g304">
						
							<linearGradient id="path316_1_" gradientUnits="userSpaceOnUse" x1="278.3846" y1="315.4716" x2="279.3846" y2="315.4716" gradientTransform="matrix(-6.016 0 0 -5.9087 2027.1832 2198.9778)">
							<stop  offset="0" style="stop-color:#5E738F"/>
							<stop  offset="0.3202" style="stop-color:#91AFC8"/>
							<stop  offset="0.3202" style="stop-color:#91AFC8"/>
							<stop  offset="1" style="stop-color:#91AFC8"/>
						</linearGradient>
						<path id="path316" class="st13" d="M347.3,342.6v-13.1l5.7-5c0,0,0.1,1.3,0.1,2.9l0,0v10.9c0,1.2,0.4,2,0.4,2l0,0l-5,5
							C348.6,345.3,347.3,344.7,347.3,342.6"/>
					</g>
				</g>
			</g>
		</g>
		<g id="g318" transform="matrix(1.0606815,0,0,1.0529918,-155.33042,-359.4611)">
			<g id="g320">
				<g id="g326">
					<g id="g328">
						
							<linearGradient id="path336_1_" gradientUnits="userSpaceOnUse" x1="258.8301" y1="318.1087" x2="259.8301" y2="318.1087" gradientTransform="matrix(16.4561 28.5028 27.9947 -16.1627 -12846.3672 -1922.5217)">
							<stop  offset="0" style="stop-color:#A5B9CC"/>
							<stop  offset="1" style="stop-color:#002334"/>
						</linearGradient>
						<path id="path336" class="st14" d="M343.1,327.3h-44.8v-6.1h49.6c1.7,0,3.7,1.1,4,1.4l0,0l-5.6,5.3
							C346.3,328,345.9,327.3,343.1,327.3"/>
					</g>
				</g>
			</g>
		</g>
		<g id="g338" transform="matrix(1.0606815,0,0,1.0529918,-155.33042,-359.4611)">
			<g id="g340">
				<g id="g346">
					<g id="g348">
						
							<linearGradient id="path358_1_" gradientUnits="userSpaceOnUse" x1="256.911" y1="324.1517" x2="257.911" y2="324.1517" gradientTransform="matrix(16.5838 -28.724 -28.212 -16.2882 5150.4287 12993.0186)">
							<stop  offset="0" style="stop-color:#002334"/>
							<stop  offset="0.7753" style="stop-color:#A5B9CC"/>
							<stop  offset="1" style="stop-color:#A5B9CC"/>
						</linearGradient>
						<path id="path358" class="st15" d="M244.2,322c0,0,1.2-0.8,4.4-0.8l0,0c3.2,0,49.6,0.1,49.6,0.1l0,0v6.1h-47.9
							c-0.9,0-1.4,0.2-1.4,0.2l0,0L244.2,322z"/>
					</g>
				</g>
			</g>
		</g>
		<g id="g360" transform="matrix(1.0606815,0,0,1.0529918,-155.33042,-359.4611)">
			<g id="g362">
				<g id="g368">
					<g id="g370">
						
							<linearGradient id="path380_1_" gradientUnits="userSpaceOnUse" x1="258.9815" y1="322.2567" x2="259.9815" y2="322.2567" gradientTransform="matrix(74.0596 -128.2749 -125.9883 -72.7393 21636.832 57077.4766)">
							<stop  offset="0" style="stop-color:#FFEFCF"/>
							<stop  offset="0.4607" style="stop-color:#FFE4A6"/>
							<stop  offset="1" style="stop-color:#BC956E"/>
						</linearGradient>
						<path id="path380" class="st16" d="M257.1,423.6c-2.6,0-5.2-1.4-5.2-4.3l0,0v-14.1c0-2.9-1.7-4-3.8-4l0,0h-57.4
							c-2.3,0-4.1-1-5.2-2.9l0,0c-0.8-1.6-15.2-30.4-19.8-39.6l0,0c-1-2-0.1-3.2,2.5-3.2l0,0h80.3c3.5,0,4-3.2,4-6.3l0,0v-11
							c0-2,2-4.3,4.3-4.3l0,0h40.4v90H257.1L257.1,423.6z"/>
					</g>
				</g>
			</g>
		</g>
		<g id="g382" transform="matrix(1.0606815,0,0,1.0529918,-155.33042,-359.4611)">
			<g id="g384">
				<g id="g390">
					<g id="g392">
						
							<linearGradient id="path404_1_" gradientUnits="userSpaceOnUse" x1="258.0323" y1="318.148" x2="259.0323" y2="318.148" gradientTransform="matrix(20.7733 23.1557 22.7429 -20.4029 -12223.8643 849.983)">
							<stop  offset="0" style="stop-color:#5E738F"/>
							<stop  offset="0.6067" style="stop-color:#91AFC8"/>
							<stop  offset="0.6067" style="stop-color:#91AFC8"/>
							<stop  offset="1" style="stop-color:#C7DFF4"/>
						</linearGradient>
						<path id="path404" class="st17" d="M351.1,347.4l4.6-4.8c0,0,1.2,0.6,6.5,0.6l0,0h49.3c1,0,2.4,0.5,2.4,0.5l0,0l-26.1,5.3
							c0,0-30.2,0-31.6,0l0,0c-0.1,0-0.1,0-0.2,0l0,0C353.2,349.1,351.1,347.4,351.1,347.4"/>
					</g>
				</g>
			</g>
		</g>
		<g id="g406" transform="matrix(1.0606815,0,0,1.0529918,-155.33042,-359.4611)">
			<g id="g408">
				<g id="g414">
					<g id="g416">
						
							<linearGradient id="path430_1_" gradientUnits="userSpaceOnUse" x1="257.9746" y1="323.1782" x2="258.9746" y2="323.1782" gradientTransform="matrix(27.5792 -47.7685 -46.917 -27.0875 8435.3838 21506.0586)">
							<stop  offset="0" style="stop-color:#E1E8F5"/>
							<stop  offset="0.8146" style="stop-color:#7F97B4"/>
							<stop  offset="0.8146" style="stop-color:#7F97B4"/>
							<stop  offset="0.9045" style="stop-color:#476886"/>
							<stop  offset="1" style="stop-color:#002334"/>
						</linearGradient>
						<path id="path430" class="st18" d="M352.9,408.2c0,0,2.3-0.8,4.1-0.8l0,0h77.6c2.4,0,3.7-0.2,3.7-0.2l0,0l6.3,3.7
							c0,0-2,0.6-4,0.6l0,0H360c-2,0-2.9,0.5-2.9,0.5l0,0L352.9,408.2L352.9,408.2z"/>
					</g>
				</g>
			</g>
		</g>
		<g id="g432" transform="matrix(1.0606815,0,0,1.0529918,-155.33042,-359.4611)">
			<g id="g434">
				<g id="g440">
					<g id="g442">
						
							<linearGradient id="path458_1_" gradientUnits="userSpaceOnUse" x1="259.3047" y1="320.3913" x2="260.3047" y2="320.3913" gradientTransform="matrix(44.9451 77.8472 76.4595 -44.1438 -35739.75 -5696.1597)">
							<stop  offset="0" style="stop-color:#8CA0B5"/>
							<stop  offset="0.1404" style="stop-color:#E1E8F5"/>
							<stop  offset="0.1404" style="stop-color:#E1E8F5"/>
							<stop  offset="0.8146" style="stop-color:#7F97B4"/>
							<stop  offset="0.9045" style="stop-color:#476886"/>
							<stop  offset="1" style="stop-color:#002334"/>
						</linearGradient>
						<path id="path458" class="st19" d="M440.6,405.2c0,0,0.4-2-0.3-3.3l0,0c-0.7-1.3-24.1-47.5-25.2-49.6l0,0
							c-1.1-2.1-3.5-2.9-3.5-2.9l0,0l2.7-5.3c0,0,0.9,0.7,1.5,1.4l0,0c0.6,0.7,29.4,59.5,30.3,61.5l0,0c0.9,2.1,0.1,2.8,0.1,2.8l0,0
							L440.6,405.2L440.6,405.2z"/>
					</g>
				</g>
			</g>
		</g>
		<g id="g460" transform="matrix(1.0606815,0,0,1.0529918,-155.33042,-359.4611)">
			<g id="g462">
				<g id="g468">
					<g id="g470">
						
							<linearGradient id="path484_1_" gradientUnits="userSpaceOnUse" x1="255.2514" y1="316.8085" x2="256.2514" y2="316.8085" gradientTransform="matrix(15.9191 9.1909 9.0271 -15.6353 -6523.2607 2953.0979)">
							<stop  offset="0" style="stop-color:#002334"/>
							<stop  offset="0.8146" style="stop-color:#A5B9CC"/>
							<stop  offset="0.8146" style="stop-color:#A5B9CC"/>
							<stop  offset="0.8876" style="stop-color:#002334"/>
							<stop  offset="1" style="stop-color:#002334"/>
						</linearGradient>
						<path id="path484" class="st20" d="M409.2,349c-3.1,0-20.4-0.1-20.4-0.1l0,0l24.7-5c0,0,1.5,0.6,2.3,1.9l0,0
							c0.8,1.3,0,1.7-0.9,0.9l0,0c-0.9-0.8-2.4,0.5-1.7,1.4l0,0c0.8,0.9,1.5,3.7,1.5,3.7l0,0C414.7,351.8,412.3,349,409.2,349"/>
					</g>
				</g>
			</g>
		</g>
		<g id="g486" transform="matrix(1.0606815,0,0,1.0529918,-155.33042,-359.4611)">
			<g id="g488">
				<g id="g494">
					<g id="g496">
						
							<linearGradient id="path506_1_" gradientUnits="userSpaceOnUse" x1="258.1385" y1="322.4556" x2="259.1385" y2="322.4556" gradientTransform="matrix(52.0677 -52.0676 -51.1395 -51.1394 3233.0981 30302.8379)">
							<stop  offset="0" style="stop-color:#D4BC7B"/>
							<stop  offset="0.3315" style="stop-color:#7F5F39"/>
							<stop  offset="1" style="stop-color:#D4BC7B"/>
						</linearGradient>
						<path id="path506" class="st21" d="M179.8,353c-16.1-1.1-21.3-4.1-21.3-4.1l0,0h77.1c8.8,0,7.8-1.2,7.7-1.3l0,0l6.3,6.6
							c0,0-15.3,0-24.9,0.2l0,0c-1.2,0-2.6,0-4.1,0l0,0C210.2,354.4,193.9,353.9,179.8,353 M243.3,347.6
							C243.3,347.6,243.3,347.6,243.3,347.6L243.3,347.6L243.3,347.6z"/>
					</g>
				</g>
			</g>
		</g>
		<g id="g508" transform="matrix(1.0606815,0,0,1.0529918,-155.33042,-359.4611)">
			<g id="g510">
				<g id="g516">
					<g id="g518">
						
							<linearGradient id="path528_1_" gradientUnits="userSpaceOnUse" x1="260.6043" y1="319.6567" x2="261.6043" y2="319.6567" gradientTransform="matrix(-37.191 -37.1909 36.528 -36.5279 -1592.3384 21734.9219)">
							<stop  offset="0" style="stop-color:#D4BC7B"/>
							<stop  offset="0.3315" style="stop-color:#7F5F39"/>
							<stop  offset="1" style="stop-color:#D4BC7B"/>
						</linearGradient>
						<path id="path528" class="st22" d="M361.7,354.4c-6.9-0.2-17.7-0.2-17.7-0.2l0,0l7.2-6.8c0,0,0.7,1.6,7.1,1.6l0,0
							c6.4,0,52.2,0.2,52.2,0.2l0,0c0,0,0.8,2.5-12.7,3.5l0,0c-10.6,0.8-26.7,1.8-34.4,1.8l0,0C362.7,354.4,362.2,354.4,361.7,354.4
							"/>
					</g>
				</g>
			</g>
		</g>
		<g id="g530" transform="matrix(1.0606815,0,0,1.0529918,-155.33042,-359.4611)">
			<g id="g532">
				<g id="g538">
					<g id="g540">
						
							<linearGradient id="path550_1_" gradientUnits="userSpaceOnUse" x1="260.2133" y1="320.4396" x2="261.2133" y2="320.4396" gradientTransform="matrix(-60.1132 -60.1131 59.0416 -59.0415 -2861.5708 34988.9688)">
							<stop  offset="0" style="stop-color:#D4BC7B"/>
							<stop  offset="0.3315" style="stop-color:#7F5F39"/>
							<stop  offset="1" style="stop-color:#D4BC7B"/>
						</linearGradient>
						<path id="path550" class="st23" d="M345.4,400.4c0,0,10.8,0,17.7-0.2l0,0c6.9-0.2,48.5,1.7,59.9,2.8l0,0
							c11.4,1.1,15.1,4.1,15.1,4.1l0,0c0,0-72.7-0.4-79.1-0.4l0,0c-6.4,0-5.5,1.3-5.5,1.3l0,0L345.4,400.4z"/>
					</g>
				</g>
			</g>
		</g>
		<g id="g552" transform="matrix(1.0606815,0,0,1.0529918,-155.33042,-359.4611)">
			<g id="g554">
				<g id="g560">
					<g id="g562">
						
							<linearGradient id="path570_1_" gradientUnits="userSpaceOnUse" x1="245.1705" y1="316.9303" x2="246.1705" y2="316.9303" gradientTransform="matrix(7.852 0 0 -7.712 -1678.2551 2784.7773)">
							<stop  offset="0" style="stop-color:#D3BD8B"/>
							<stop  offset="1" style="stop-color:#7F5F39"/>
						</linearGradient>
						<path id="path570" class="st24" d="M245.4,344.9c0,0,0.8-2.5,0.8-4.4l0,0v-8.7c0-2.3,0.8-3.5,0.8-3.5l0,0l6.5,6.6
							c0,0-1,2.3-1,4l0,0v9.8c0,2.3-0.6,4.1-0.6,4.1l0,0L245.4,344.9z"/>
					</g>
				</g>
			</g>
		</g>
		<g id="g572" transform="matrix(1.0606815,0,0,1.0529918,-155.33042,-359.4611)">
			<g id="g574">
				<g id="g580">
					<g id="g582">
						
							<linearGradient id="path590_1_" gradientUnits="userSpaceOnUse" x1="273.9846" y1="316.9311" x2="274.9846" y2="316.9311" gradientTransform="matrix(-7.8535 0 0 -7.7134 2499.2739 2785.3225)">
							<stop  offset="0" style="stop-color:#D3BD8B"/>
							<stop  offset="1" style="stop-color:#7F5F39"/>
						</linearGradient>
						<path id="path590" class="st25" d="M341.5,348.8c0-2.3-0.2-8.3-0.2-10l0,0c0-1.7-0.4-3.8-0.4-3.8l0,0l6.5-6.6
							c0,0,0.8,1.2,0.8,3.5l0,0v8.7c0,1.9,0.8,4.4,0.8,4.4l0,0l-7,8.1C342,353,341.5,351,341.5,348.8"/>
					</g>
				</g>
			</g>
		</g>
		<g id="g592" transform="matrix(1.0606815,0,0,1.0529918,-155.33042,-359.4611)">
			<g id="g594">
				<g id="g600">
					<g id="g602">
						
							<linearGradient id="path614_1_" gradientUnits="userSpaceOnUse" x1="256.5473" y1="324.4846" x2="257.5473" y2="324.4846" gradientTransform="matrix(14.5943 -25.2781 -24.8275 -14.3341 4580.667 11474.3721)">
							<stop  offset="0" style="stop-color:#7F5F39"/>
							<stop  offset="0.6461" style="stop-color:#D3BD8B"/>
							<stop  offset="0.8876" style="stop-color:#FFE4A6"/>
							<stop  offset="1" style="stop-color:#FFE4A6"/>
						</linearGradient>
						<path id="path614" class="st26" d="M249,327.6l47.8-0.4l0.2,0v6.4l-41.6,0.1L249,327.6L249,327.6z"/>
					</g>
				</g>
			</g>
		</g>
		<g id="g616" transform="matrix(1.0606815,0,0,1.0529918,-155.33042,-359.4611)">
			<g id="g618">
				<g id="g624">
					<g id="g626">
						
							<linearGradient id="path638_1_" gradientUnits="userSpaceOnUse" x1="260.3518" y1="325.4268" x2="261.3518" y2="325.4268" gradientTransform="matrix(-15.9434 -27.6148 -27.1225 15.6592 13303.0762 2431.6875)">
							<stop  offset="0" style="stop-color:#7F5F39"/>
							<stop  offset="0.4551" style="stop-color:#D3BD8B"/>
							<stop  offset="0.8876" style="stop-color:#FFE4A6"/>
							<stop  offset="1" style="stop-color:#FFE4A6"/>
						</linearGradient>
						<path id="path638" class="st27" d="M297.2,333.6H297v-6.4l49.1,0.6l-7.9,6L297.2,333.6L297.2,333.6z"/>
					</g>
				</g>
			</g>
		</g>
		<g id="g640" transform="matrix(1.0606815,0,0,1.0529918,-155.33042,-359.4611)">
			<g id="g642">
				<g id="g648">
					<g id="g650">
						
							<linearGradient id="path662_1_" gradientUnits="userSpaceOnUse" x1="258.4473" y1="319.4441" x2="259.4473" y2="319.4441" gradientTransform="matrix(33.7021 33.702 33.1013 -33.1012 -19023.3965 2278.5681)">
							<stop  offset="0" style="stop-color:#D4BC7B"/>
							<stop  offset="3.932190e-02" style="stop-color:#7F5F39"/>
							<stop  offset="0.1067" style="stop-color:#D1AC75"/>
							<stop  offset="1" style="stop-color:#D4BC7B"/>
						</linearGradient>
						<path id="path662" class="st28" d="M249.7,429.2c-1.3,0-2.6-0.7-2.6-0.7l0,0l6.3-6.2c0,0,0.6,1.4,5.1,1.4l0,0h38.7v5.6H249.7
							L249.7,429.2z"/>
					</g>
				</g>
			</g>
		</g>
		<g id="g664" transform="matrix(1.0606815,0,0,1.0529918,-155.33042,-359.4611)">
			<g id="g666">
				<g id="g672">
					<g id="g674">
						
							<linearGradient id="path686_1_" gradientUnits="userSpaceOnUse" x1="261.766" y1="322.8422" x2="262.766" y2="322.8422" gradientTransform="matrix(-34.2909 34.2908 -33.6796 -33.6795 20183.2969 2311.2559)">
							<stop  offset="0" style="stop-color:#D4BC7B"/>
							<stop  offset="3.932190e-02" style="stop-color:#7F5F39"/>
							<stop  offset="0.1067" style="stop-color:#D1AC75"/>
							<stop  offset="1" style="stop-color:#D4BC7B"/>
						</linearGradient>
						<path id="path686" class="st29" d="M297.2,429.2v-5.6h38.7c4.5,0,5.4-1.9,5.4-1.9l0,0l6.3,6.2c0,0-1.5,1.3-2.9,1.3l0,0H297.2
							L297.2,429.2z"/>
					</g>
				</g>
			</g>
		</g>
		<g id="g688" transform="matrix(1.0606815,0,0,1.0529918,-155.33042,-359.4611)">
			<g id="g690">
				<g id="g696">
					<g id="g698">
						
							<linearGradient id="path708_1_" gradientUnits="userSpaceOnUse" x1="256.2173" y1="315.5235" x2="257.2173" y2="315.5235" gradientTransform="matrix(12.5321 11.6863 11.478 -12.3087 -6588.5327 1299.9849)">
							<stop  offset="0" style="stop-color:#FFE292"/>
							<stop  offset="0.1573" style="stop-color:#D1AC75"/>
							<stop  offset="1" style="stop-color:#FFE292"/>
						</linearGradient>
						<path id="path708" class="st30" d="M245.9,423.8v-11.3c0-1.3-0.6-2.9-0.6-2.9l0,0l6.2-7c0,0,0.4,0.6,0.4,3.5l0,0
							c0,2.9,0.2,14.4,0.2,14.4l0,0l-6.2,7C246,427.4,245.9,425.6,245.9,423.8"/>
					</g>
				</g>
			</g>
		</g>
		<g id="g710" transform="matrix(1.0606815,0,0,1.0529918,-155.33042,-359.4611)">
			<g id="g712">
				<g id="g718">
					<g id="g720">
						
							<linearGradient id="path730_1_" gradientUnits="userSpaceOnUse" x1="265.6182" y1="324.5711" x2="266.6182" y2="324.5711" gradientTransform="matrix(-13.0643 12.1826 -11.9655 -12.8314 7704.7153 1339.4448)">
							<stop  offset="0" style="stop-color:#FFE292"/>
							<stop  offset="0.1573" style="stop-color:#D1AC75"/>
							<stop  offset="1" style="stop-color:#FFE292"/>
						</linearGradient>
						<path id="path730" class="st31" d="M341.5,420.3v-14.1c0-2.9,1.4-3.7,1.4-3.7l0,0l7.6,7.6c0,0-1,1.6-1,2.9l0,0
							c0,1.3-0.1,9.5-0.1,11.3l0,0c0,1.8,0.1,3.4,0.1,3.4l0,0L341.5,420.3L341.5,420.3z"/>
					</g>
				</g>
			</g>
		</g>
		<g id="g732" transform="matrix(1.0606815,0,0,1.0529918,-155.33042,-359.4611)">
			<g id="g734">
				<g id="g740">
					<g id="g742">
						
							<linearGradient id="path750_1_" gradientUnits="userSpaceOnUse" x1="258.6048" y1="319.7594" x2="259.6048" y2="319.7594" gradientTransform="matrix(39.1494 39.1494 38.4515 -38.4514 -22218.252 2559.0286)">
							<stop  offset="0" style="stop-color:#7F5F39"/>
							<stop  offset="1" style="stop-color:#BD9B6A"/>
						</linearGradient>
						<path id="path750" class="st32" d="M240.7,406.6h-53.2c-1.5,0-4-0.6-4.8-1.4l0,0l4.8-5c0,0,1.3,1,4.6,1l0,0h55.3
							c1.5,0,3.1,0.6,3.1,0.6l0,0l-6.2,6.4C244.4,408.1,242.9,406.6,240.7,406.6"/>
					</g>
				</g>
			</g>
		</g>
		<g id="g752" transform="matrix(1.0606815,0,0,1.0529918,-155.33042,-359.4611)">
			<g id="g754">
				<g id="g760">
					<g id="g762">
						
							<linearGradient id="path770_1_" gradientUnits="userSpaceOnUse" x1="255.0763" y1="324.041" x2="256.0763" y2="324.041" gradientTransform="matrix(16.6564 -16.6563 -16.3594 -16.3594 1466.6703 9932.3359)">
							<stop  offset="0" style="stop-color:#7F5F39"/>
							<stop  offset="1" style="stop-color:#D4BC7B"/>
						</linearGradient>
						<path id="path770" class="st33" d="M406.3,355.1c0,0,3,1.1,3.9-2.4l0,0c0,0,0.7-1.1,2.8,1.9l0,0c2,3,21.4,42.8,21.2,43.3l0,0
							c-0.2,0.6-4.1,1.3-4.1,1.3l0,0L406.3,355.1z"/>
					</g>
				</g>
			</g>
		</g>
		<g id="g772" transform="matrix(1.0606815,0,0,1.0529918,-155.33042,-359.4611)">
			<g id="g774">
				<g id="g780">
					<g id="g782">
						
							<linearGradient id="path794_1_" gradientUnits="userSpaceOnUse" x1="259.3355" y1="320.2114" x2="260.3355" y2="320.2114" gradientTransform="matrix(36.7534 70.7931 69.5312 -36.0982 -31386.1328 -6449.2798)">
							<stop  offset="0" style="stop-color:#A78A5E"/>
							<stop  offset="0.764" style="stop-color:#7F5F39"/>
							<stop  offset="0.9157" style="stop-color:#674C2B"/>
							<stop  offset="1" style="stop-color:#674C2B"/>
						</linearGradient>
						<path id="path794" class="st34" d="M430.7,398.8c0.9-0.6,1.9-1.3,0.6-4.1l0,0c-1.3-2.8-16.2-31.8-19.3-37.4l0,0
							c-3.2-5.6-0.4-7.8-0.4-7.8l0,0c0,0,2.4,1.1,3.1,2.3l0,0c0.7,1.2,23.5,46.2,25,49.3l0,0c1.6,3,0.5,4.2,0.5,4.2l0,0L430.7,398.8
							L430.7,398.8z"/>
					</g>
				</g>
			</g>
		</g>
		<g id="g796" transform="matrix(1.0606815,0,0,1.0529918,-155.33042,-359.4611)">
			<g id="g798">
				<g id="g804">
					<g id="g806">
						
							<linearGradient id="path816_1_" gradientUnits="userSpaceOnUse" x1="260.2001" y1="321.3153" x2="261.2001" y2="321.3153" gradientTransform="matrix(-104.4677 124.4997 122.2804 102.6053 -11721.3379 -65024.7969)">
							<stop  offset="0" style="stop-color:#FFEFCF"/>
							<stop  offset="0.4607" style="stop-color:#FFE4A6"/>
							<stop  offset="1" style="stop-color:#BC956E"/>
						</linearGradient>
						<path id="path816" class="st35" d="M297.2,423.6v-90H337c2.3,0,4.3,0.9,4.3,3.5l0,0v13.4c0,2.6,1.7,4.6,3.7,4.6l0,0h60
							c2.1,0,4,1.2,5.1,3.3l0,0c4.9,9.1,18.4,35.4,19.4,37.5l0,0c1.2,2.6,0.5,4.1-2.4,4.1l0,0h-79.5c-3.5,0-6.1,2.6-6.1,5.8l0,0
							v14.7c0,2-1.2,3.2-3.7,3.2l0,0L297.2,423.6L297.2,423.6z"/>
					</g>
				</g>
			</g>
		</g>
		<g id="g818" transform="matrix(1.0606815,0,0,1.0529918,-155.33042,-359.4611)">
			<g id="g820">
				<g id="g826">
					<g id="g828">
						
							<linearGradient id="path836_1_" gradientUnits="userSpaceOnUse" x1="258.5229" y1="319.5954" x2="259.5229" y2="319.5954" gradientTransform="matrix(36.1127 36.1127 35.469 -35.4689 -20516.9375 2355.4895)">
							<stop  offset="0" style="stop-color:#7F5F39"/>
							<stop  offset="1" style="stop-color:#E9CF98"/>
						</linearGradient>
						<path id="path836" class="st36" d="M157.8,351.3l7.7,4.7c0,0-0.9,0.4,0.5,3.2l0,0c1.4,2.8,14.4,29.3,14.4,29.3l0,0l-2.9,0.6
							L157.8,351.3L157.8,351.3z"/>
					</g>
				</g>
			</g>
		</g>
		<g id="g838" transform="matrix(1.0606815,0,0,1.0529918,-155.33042,-359.4611)">
			<g id="g840">
				<g id="g846">
					<g id="g848">
						
							<linearGradient id="path856_1_" gradientUnits="userSpaceOnUse" x1="258.7947" y1="320.1397" x2="259.7947" y2="320.1397" gradientTransform="matrix(48.631 48.6309 47.764 -47.764 -27726.6758 3063.1167)">
							<stop  offset="0" style="stop-color:#7F5F39"/>
							<stop  offset="1" style="stop-color:#E4CB90"/>
						</linearGradient>
						<path id="path856" class="st37" d="M157.1,354.8c-1.9-3.5-1.5-4.8-1.5-4.8l0,0l4.6,3.1c0,0,20.6,39.9,22.7,44.5l0,0
							c2.1,4.6-1,6.5-1,6.5l0,0C181.9,404,159.1,358.2,157.1,354.8"/>
					</g>
				</g>
			</g>
		</g>
		<g id="g866" transform="matrix(1.0606815,0,0,1.0529918,14.653124,76.408113)">
			<path id="path868" class="st3" d="M0-65.3c-0.3-0.2-3.1-0.6-3.7,0c-0.6,0.5-1.5,1-0.7,1.6c0.7,0.6,9.8,6,9.8,6s-1.1-0.6,8.2-0.6
				h74.5c2,0,3.8-1.3,4-2.2c0.2-0.9-0.2-1.2-0.9-1.1c-0.6,0.1-2.2,0.6-2.6,1.2c-0.4,0.6,0.5,1.1-4.9,1.1c-5.4,0-46.5-0.6-55.8-1.5
				C18.6-61.6,6.4-61,0-65.3"/>
		</g>
		<g id="g870" transform="matrix(1.0606815,0,0,1.0529918,306.40057,137.80038)">
			<path id="path872" class="st3" d="M0-65.3c0.3,0.2,3.1,0.5,3.7,0c0.5-0.6,1.5-1,0.7-1.6c-0.7-0.6-9.8-6-9.8-6s1.1,0.6-8.2,0.6
				h-74.5c-2,0-3.8,1.3-4,2.2c-0.2,0.9,0.2,1.2,0.9,1.1c0.6-0.1,2.2-0.6,2.6-1.2c0.4-0.6-0.5-1.1,4.9-1.1s46.5,0.6,55.9,1.5
				C-18.6-68.9-6.4-69.6,0-65.3"/>
		</g>
		<g id="g874" transform="matrix(1.0606815,0,0,1.0529918,40.155514,130.33898)">
			<path id="path876" class="st3" d="M0-65.3c0,0.9,0.5,2.5,0.1,3c-0.4,0.5,0.8,1.1,1.5,0.6C2.4-62.2,4-62.6,4.2-63
				c0.2-0.4-0.1-1.3-1.2-1.7c-1.1-0.4-2-1.3-3.7-4.8c-1.6-3.6-11-21.7-11-21.7s1.4,2.9,0.8,3c-0.6,0.1-1.9-2.3-1.9-2.3L0-65.3z"/>
		</g>
		<g id="g878" transform="matrix(1.0606815,0,0,1.0529918,108.46489,132.13286)">
			<path id="path880" class="st3" d="M0-65.3c-0.8-0.1-1,0.8-0.3,0.9c0.7,0.1,1.6,0.2,2.4,3.3C2.8-58,2.3-48.5,2.2-46.8
				C2-45.1,1.3-43,2.4-42.1c1.1,0.9,1.9-1,4.9-1c2.9,0,9.6,0.2,9.6,0.2s-9.4-0.7-11-0.9c-1.6-0.2-3-1.5-2.7-3.7
				c0.2-2.3-0.3-14-0.8-15.2C1.9-64,1.1-65.2,0-65.3"/>
		</g>
		<g id="g882" transform="matrix(1.0606815,0,0,1.0529918,175.86112,155.59478)">
			<path id="path884" class="st3" d="M0-65.3c-1.2-0.1,23.9-0.3,25.5-0.3c1.6,0,3.4-0.5,3.7-2.1c0.3-1.6,0.1-6.8,0.1-6.8
				s0.8,6.7,1.9,7.9c1.1,1.3,0.8,3.1-0.7,2.7C29.1-64.1,17.4-64.5,0-65.3"/>
		</g>
		<g id="g886" transform="matrix(1.0606815,0,0,1.0529918,211.52038,82.344565)">
			<path id="path888" class="st3" d="M0-65.3c-0.8,0.1-1.7,0.2-1.9-0.5c-0.2-0.7,1-1.1-0.2-1.8c-1.2-0.7-2.2-1.1-2.2-0.5
				c0,0.6,0.6,3.5,3,3.5c2.4,0,61.1,0.1,62,0.1c0.9,0,2-0.1,2.5-1c0.5-0.9,1-3.2,1.4-3.8c0.3-0.7-0.2-0.7-1.2,0.7
				c-1,1.4-3.6,1.9-5.7,1.8C55.6-67,0-65.3,0-65.3"/>
		</g>
		<g id="g890" transform="matrix(1.0606815,0,0,1.0529918,280.18657,80.319767)">
			<path id="path892" class="st3" d="M0-65.3c0,0-0.6,1.2-0.9,2c-0.3,0.8-1.4,1.1-1.4,1.1s1.1,1.4,2.7,4.3c1.6,2.9,9.1,17,9.8,18.9
				c0,0-1.7-5.2,1.6-0.9c0,0-10.6-20.1-11.3-21.5C-0.1-62.7,0-65.3,0-65.3"/>
		</g>
		<g id="g894" transform="matrix(1.0606815,0,0,1.0529918,113.21929,63.637534)">
			<path id="path896" class="st3" d="M0-65.3c0,0,0.1-1.6-0.8-2.3c-0.9-0.7-1.4-1.9-0.5-2.4c0.8-0.5,1.4-0.3,1.9,0.5
				C1.1-68.7,3-68,4.2-68.3C4.2-68.3,0-68.8,0-65.3"/>
		</g>
		<g id="g898" transform="matrix(1.0606815,0,0,1.0529918,175.08735,60.584384)">
			<path id="path900" class="st3" d="M0-65.3c0,0,22.8-1.2,24.2-1.3c1.3-0.1,2.3-0.1,2.3-0.1s-2.4,0.4-1.7,1.2L0-65.3z"/>
		</g>
		<g id="g902" transform="matrix(1.0606815,0,0,1.0529918,203.80085,60.784453)">
			<path id="path904" class="st3" d="M0-65.3c0,0-0.7-1.1,0.4-1.6c1.1-0.5,2.2-1.1,2.8-0.3c0.7,0.8-0.5,3-0.4,4.5
				C2.8-62.7,3.4-65,0-65.3"/>
		</g>
		<g id="g906" transform="matrix(1.0606815,0,0,1.0529918,233.34825,58.721115)">
			<path id="path908" d="M0-65.3h-1.3v-2.1H0c0.6,0,0.8,0.3,0.8,0.7v0.8C0.8-65.4,0.6-65.3,0-65.3 M0-68.1h-1.3v-1.8H-2v5.3h2
				c1.2,0,1.6-0.5,1.6-1.4v-0.8c0-0.6-0.2-1-0.8-1.2l1.4-1.9H1.4L0-68.1z M-0.2-71.5c2.7,0,4.1,1.9,4.1,4.1s-1.4,4.2-4.1,4.2
				c-2.7,0-4.2-1.9-4.2-4.2S-3-71.5-0.2-71.5 M-0.2-62.5c3,0,4.8-2.2,4.8-4.9c0-2.7-1.8-4.9-4.8-4.9c-3,0-4.9,2.2-4.9,4.9
				C-5.1-64.6-3.3-62.5-0.2-62.5"/>
		</g>
		<g id="g4642" transform="matrix(1.1808556,0,0,1.3042107,-29.048909,5.7752581)">
			<g id="g910" transform="matrix(1.0606815,0,0,1.0529918,82.929299,14.622977)">
				<path id="path912" d="M0-50h-7.1v8.2H-14v-20.4h6.9v8.8H0v-8.8h6.9v20.4H0V-50z"/>
			</g>
			<g id="g914" transform="matrix(1.0606815,0,0,1.0529918,216.94598,5.3634934)">
				<path id="path916" d="M0-50v17h-6.9v-20.4H9.8v3.4H0z"/>
			</g>
			<g id="g918" transform="matrix(1.0606815,0,0,1.0529918,258.37366,23.258773)">
				<path id="path920" d="M0-50v-3.4h6.3v-17h6.9v17h6.3v3.4H0z"/>
			</g>
			<g id="g922" transform="matrix(1.0606815,0,0,1.0529918,41.809222,18.788718)">
				<path id="path924" d="M0-50c0,2.5,1.7,4.2,4.3,4.2H18v-3.4H8.1c-0.8,0-1.3-0.5-1.3-1.3v-11c0-0.8,0.5-1.3,1.3-1.3H18v-3.4H4.2
					c-2.6,0-4.3,1.7-4.3,4.2V-50z"/>
			</g>
			<g id="g926" transform="matrix(1.0606815,0,0,1.0529918,168.55653,10.499461)">
				<path id="path928" d="M0-50l5.9-8.3h-7.3l-5.3,8.4v2.7h2.8c0.8,0,1.3,0.5,1.3,1.3v3.4c0,0.8-0.5,1.3-1.3,1.3h-4.8v-17h-6.9v20.4
					H0.1c2.6,0,4.2-1.7,4.2-4.2l0-4.1c0-2.2-1.5-3.8-3.8-3.8H0z"/>
			</g>
			<g id="g930" transform="matrix(1.0606815,0,0,1.0529918,193.81867,5.3634934)">
				<path id="path932" d="M0-50c0.8,0,1.3,0.5,1.3,1.3v11c0,0.8-0.5,1.3-1.3,1.3h-4.8c-0.8,0-1.3-0.5-1.3-1.3v-11
					c0-0.8,0.5-1.3,1.3-1.3H0z M-12.9-37.3c0,2.5,1.7,4.2,4.2,4.2H3.9c2.5,0,4.3-1.7,4.3-4.2v-11.9c0-2.5-1.7-4.2-4.3-4.2H-8.7
					c-2.6,0-4.2,1.7-4.2,4.2C-12.9-49.2-12.9-37.3-12.9-37.3z"/>
			</g>
			<g id="g934" transform="matrix(1.0606815,0,0,1.0529918,122.64896,23.258773)">
				<path id="path936" d="M0-50h7.4l4.4-15.8c0-0.1,0.1-0.2,0.3-0.2c0.2,0,0.3,0.1,0.3,0.2L16.7-50h5.8l-5.3-17.5
					c-0.6-2-1.8-2.9-4.3-2.9H9.4c-1.6,0-2.9,0.7-3.6,2.9L0-50z"/>
			</g>
			<g id="g938" transform="matrix(1.0606815,0,0,1.0529918,104.87575,6.0411989)">
				<path id="path940" d="M0-50c0-0.4,0.3-0.6,0.6-0.6h11.3v-3.4H-2.6c-2.5,0-4.2,1.7-4.2,4.2v11.9c0,2.5,1.7,4.2,4.2,4.2h14.6v-3.4
					H0.6c-0.4,0-0.6-0.3-0.6-0.6v-4.2h10.6v-3.4H0V-50z"/>
			</g>
			<g id="g942" transform="matrix(1.0606815,0,0,1.0529918,239.7413,6.0411989)">
				<path id="path944" d="M0-50c0-0.4,0.3-0.6,0.6-0.6h11.3v-3.4H-2.6c-2.5,0-4.3,1.7-4.3,4.2v11.9c0,2.5,1.7,4.2,4.3,4.2h14.6v-3.4
					H0.6c-0.4,0-0.6-0.3-0.6-0.6v-4.2h10.6v-3.4H0V-50z"/>
			</g>
		</g>
	</g>
</g>
</svg>
