<?xml version="1.0" encoding="utf-8"?>
<!-- Generator: Adobe Illustrator 21.1.0, SVG Export Plug-In . SVG Version: 6.00 Build 0)  -->
<svg version="1.1" id="Layer_1" xmlns="http://www.w3.org/2000/svg" xmlns:xlink="http://www.w3.org/1999/xlink" x="0px" y="0px"
	 viewBox="0 0 195.3 204" style="enable-background:new 0 0 195.3 204;" xml:space="preserve">
<style type="text/css">
	.st0{fill:#6E6E6E;}
</style>
<g transform="translate(26 5)">
	<path class="st0" d="M123.5,121.6c-9.7-8.3-38.4-31.9-52.1-31.9S29,113.3,19.3,121.6c-0.1-2-0.1-3.2-0.1-4.9c0,0-0.2-2.9,2.3-5.8
		c21-19,43-28.3,43.7-28.6c6.6-2.8,6.2-2.3,6.2-13.4c0,0,0.3,0,0.5,0c9.2,0.8,34.1,25,48.8,41.3c0,0,2.9,3.4,2.9,6.9
		C123.6,118.7,123.5,120.3,123.5,121.6 M123.1,108c-1.6-1.7-38.4-42.4-51.7-42.4S21.3,106.2,19.7,108l0,0c-0.2,0.2-3.7,4.3-3.7,9.1
		c0,3.7,0.2,7.5,0.3,7.5c0,0.2,0.1,1.8,1,2.2c0.1,0.1,0.3,0.1,0.5,0.1c0.3,0,0.7-0.1,1.1-0.4C19.3,126.1,56.8,93,71.6,93
		s52.3,33.1,52.7,33.5c0.4,0.3,0.8,0.5,1.1,0.5c0.2,0,0.3,0,0.5-0.1c0.9-0.4,1-2,1-2.2c0,0,0.2-3.8,0.2-7.5
		C126.8,112.2,123.2,108.1,123.1,108 M96.6,159.3L96.6,159.3c-0.4,0-1.7,0-3,0c-3.3,0-6.8-2.5-6.8-6.5s3.5-6.4,6.8-6.4
		c0,0,1.7-0.1,3,0c3.4,0,6.8,2.4,6.8,6.4C103.4,156.8,99.9,159.3,96.6,159.3 M99.8,143.9c-4.7-0.1-9.4,0-9.4,0
		c-5.7,0-10.3,4-10.3,8.9c0,5,4.6,9,10.3,9c0,0,4.8,0.1,9.4,0c5.7,0,10.3-4,10.3-9C110.2,147.9,105.6,144,99.8,143.9 M160.4,161.5
		c0,0,5.6,0,5.8,0c0-0.2,0-8.5,0-8.5c0-5-4.4-8.9-10.1-8.9h-14.7c-0.2,0-0.8,0.1-0.8,0.6v16.1c0,0.4,0.3,0.7,0.6,0.7
		c0,0,5.9,0,6.1,0c0-0.2,0-13.4,0-13.4c0-0.6,0.4-0.9,0.9-0.9h6.8c1.9,0,4.6,1.7,4.6,5.4v8.3C159.7,160.8,159.7,161.5,160.4,161.5
		 M37.9,147.6c0,0,8.8,0,9.1,0v-2.8c0-0.4-0.3-0.7-0.7-0.7H21c-0.4,0-0.7,0.3-0.7,0.7c0,0,0,2.6,0,2.8c0.2,0,6,0,6,0
		c2.3,0,3.8,2,3.8,3.8v9.5c0,0.3,0.3,0.7,0.7,0.7c0,0,5.9,0,6.1,0v-13C37,148,37.4,147.6,37.9,147.6 M10,160.8
		c0,0.4,0.4,0.7,0.7,0.7H11l0,0c0.2,0,0.8,0,2.8,0c0,0,2.8,0,3,0v-16.7c0-0.4-0.3-0.7-0.7-0.7h-5.5c-0.4,0-0.7,0.3-0.7,0.7L10,160.8
		z M57.3,152.3v-3.5c0-0.9,0.7-1.6,1.6-1.6h9c1.4,0,2.5,1.2,2.5,2.5c0,1.4-1.1,2.6-2.6,2.6H57.3z M70.5,161.5h6.7
		c-0.1-4.2-4.4-5.9-4.9-6.1h-0.1v-0.2h0.1c2.9-0.6,4.9-2.9,4.9-5.4c0-2.7-2.6-5.6-6.8-5.6H54.1c-2,0-3.5,1.6-3.5,3.5v13.2
		c0,0.4,0.3,0.7,0.6,0.7c0,0,5.9,0,6.1,0c0-0.2,0-6.2,0-6.2h5.8C68.2,155.3,70.4,159.1,70.5,161.5L70.5,161.5z M-0.3,150h6.6
		c-1.4-3.6-5.4-6.1-9.9-6.2h-2c-3.2-0.1-4.6-0.1-7.4,0c-3.2,0.2-5.3,0.9-7.3,2.7c-2,1.7-3,4-3,6.4c0,5,4.4,8.9,10.2,9.1
		c4,0.1,4.4,0.1,9.7,0c4.8-0.1,8.3-2.4,9.8-6.2h-6.6c-0.2,0-0.4,0.1-0.6,0.3c-1.2,2.1-3.5,3.4-6,3.4c-1.4,0.1-3,0-3,0
		c-3.4,0-6.8-2.4-6.8-6.5l0,0c0-4,3.5-6.5,6.8-6.5c0.4,0,1.7-0.1,3,0c2.4,0,4.8,1.3,6,3.3C-0.8,149.7-0.7,150-0.3,150 M137,158.4
		h-16c-0.5,0-0.9-0.4-0.9-0.9v-3.3c0,0,13.6,0,13.8,0c0-0.2,0-2.8,0-3h-13.8v-3c0,0,0-0.3,0.2-0.6c0.2-0.2,0.4-0.3,0.8-0.3H137v-2.4
		c0-0.2-0.1-0.4-0.2-0.5c-0.2-0.2-0.6-0.2-0.6-0.2H114c-0.1,0-0.7,0-0.7,0.7v13.2c0,1.7,1.3,3.5,3.6,3.5h19.4c0.2,0,0.3-0.1,0.5-0.2
		c0.1-0.1,0.2-0.3,0.2-0.5C137,160.8,137,158.6,137,158.4 M132.1,137.9c-0.6-0.4-1.4-0.6-2.3-0.6c-0.9,0-1.7,0.2-2.4,0.6
		c-0.6,0.4-1.1,0.9-1.8,0.9s-1.2-0.5-1.8-0.9c-0.7-0.4-1.4-0.6-2.3-0.6c-0.9,0-1.7,0.2-2.4,0.6c-0.6,0.4-1,0.9-1,1.4
		c0,0.6,0.3,1,1,1.4s1.4,0.6,2.4,0.6c0.9,0,1.7-0.2,2.3-0.6c0.6-0.4,1.2-0.9,1.9-0.9s1.3,0.5,1.9,0.9c0.6,0.4,1.4,0.6,2.3,0.6
		c0.9,0,1.7-0.2,2.4-0.6c0.6-0.4,1-0.9,1-1.4C133.1,138.7,132.7,138.2,132.1,137.9"/>
	<path class="st0" d="M123.4,82.9C113.7,74.6,85,51,71.4,51S29,74.6,19.4,82.9c-0.1-1.9-0.1-3.1-0.1-4.9c0,0-0.2-2.9,2.3-5.8
		c21-19,43-28.3,43.6-28.6c6.6-2.8,6.2-2.3,6.2-13.4c0,0,0.3,0,0.5,0c9.2,0.8,34.1,24.9,48.8,41.2c0,0,2.9,3.4,2.9,6.9
		C123.5,80,123.5,81.7,123.4,82.9 M123,69.3C121.5,67.6,84.7,27,71.4,27S21.3,67.6,19.8,69.3l0,0c-0.2,0.2-3.7,4.3-3.7,9.1
		c0,3.7,0.2,7.5,0.3,7.5c0,0.2,0.1,1.8,1,2.2c0.1,0.1,0.3,0.1,0.5,0.1c0.3,0,0.7-0.1,1.1-0.4c0.4-0.4,37.9-33.4,52.6-33.4
		c14.8,0,52.2,33.1,52.6,33.4s0.8,0.4,1.1,0.4c0.2,0,0.3,0,0.5-0.1c0.9-0.4,1-2,1-2.2c0,0,0.2-3.8,0.2-7.5
		C126.8,73.6,123.2,69.5,123,69.3"/>
</g>
</svg>
