<?xml version="1.0" encoding="utf-8"?>
<!-- Generator: Adobe Illustrator 21.1.0, SVG Export Plug-In . SVG Version: 6.00 Build 0)  -->
<svg version="1.1" id="svg7607" xmlns:svg="http://www.w3.org/2000/svg"
	 xmlns="http://www.w3.org/2000/svg" xmlns:xlink="http://www.w3.org/1999/xlink" x="0px" y="0px" viewBox="0 0 867 768"
	 style="enable-background:new 0 0 867 768;" xml:space="preserve">
<style type="text/css">
	.st0{clip-path:url(#SVGID_2_);}
	.st1{fill:#484848;}
	.st2{fill:url(#path6217_1_);}
	.st3{fill:url(#path6237_1_);}
	.st4{fill:url(#path6263_1_);}
	.st5{fill:url(#path6289_1_);}
	.st6{fill:url(#path6313_1_);}
	.st7{clip-path:url(#SVGID_4_);}
	.st8{fill:#FFFFFF;}
	.st9{fill:#C0C0C0;}
	.st10{fill:url(#path6367_1_);}
	.st11{clip-path:url(#SVGID_6_);}
	.st12{fill:url(#path6425_1_);}
	.st13{fill:url(#path6445_1_);}
	.st14{clip-path:url(#SVGID_8_);}
	.st15{fill:url(#path6477_1_);}
	.st16{fill:url(#path6505_1_);}
	.st17{clip-path:url(#SVGID_10_);}
	.st18{fill:url(#path6541_1_);}
	.st19{fill:url(#path6561_1_);}
	.st20{fill:url(#path6581_1_);}
	.st21{fill:url(#path6601_1_);}
	.st22{fill:url(#path6621_1_);}
	.st23{clip-path:url(#SVGID_12_);}
	.st24{fill:#202B53;}
	.st25{clip-path:url(#SVGID_14_);}
	.st26{fill:url(#path6675_1_);}
	.st27{fill:url(#path6695_1_);}
	.st28{fill:url(#path6719_1_);}
</style>
<g id="g6185" transform="matrix(1.25,0,0,-1.25,-1350.0022,956.57563)">
	<g>
		<defs>
			<rect id="SVGID_1_" x="-9268.1" y="-6595.1" width="12553.4" height="8877"/>
		</defs>
		<clipPath id="SVGID_2_">
			<use xlink:href="#SVGID_1_"  style="overflow:visible;"/>
		</clipPath>
		<g id="g6187" class="st0">
			<g id="g6193" transform="translate(1083.8331,764.2465)">
				<path id="path6195" class="st1" d="M45.9-25l-13.2-1.5l-5.4-0.9c-8.8-2.4-14.7-11.1-13.6-20.3l2.4-13.9
					c4.3-23.7,9-47.6,14.1-70.9c5-22.8,10.5-46.4,16.5-69.9l11.2-42.1l16.8-58.2l18.2-58c6.9-21,28.2-82.2,32.2-92.3
					c17.6-44.6,36.3-79.7,70.1-106.5c34.5-27.3,71.8-36.4,147.8-36.4c75.9,0,113.2,9.2,147.7,36.4c33.9,26.8,52.5,61.9,70.1,106.5
					c4,10,25.3,71.2,32.2,92.3l18.2,58l16.8,58.2l11.1,42.1c6,23.4,11.5,46.9,16.5,69.9c5.1,23.4,9.9,47.3,14.1,70.9l2.4,14l0.1,2.2
					c0,8.3-5.6,15.8-13.7,18l-5.5,0.9L640.1-25C595.4-21,455.8-16.4,343-16.4C230.1-16.4,90.6-21,45.9-25 M200.3-553
					c-32.4,25.6-50.4,59.7-67.5,103c-3.8,9.7-25.4,71.5-32,91.8l-18.2,57.8l-16.7,58.1l-11.1,42c-6,23.5-11.5,46.9-16.5,69.6
					c-5.1,23.2-9.8,47-14.1,70.6l-2.4,13.5c-0.6,5,2.6,9.9,7.5,11.2l4.5,0.8l12.7,1.4c44.5,3.9,183.7,8.5,296.4,8.5
					c112.6,0,251.8-4.6,296.3-8.5l12.7-1.5l4.5-0.7c4.9-1.3,8.1-6.2,7.5-11.3l-2.4-13.4c-4.3-23.5-9-47.3-14.1-70.6
					c-5-22.9-10.5-46.3-16.4-69.6l-11.1-42l-16.7-58.1l-18.2-57.8c-6.6-20.3-28.2-82.1-32-91.8c-17.1-43.3-35.1-77.4-67.6-103
					c-29.1-23-59.1-34.7-142.6-34.7C260-587.7,228.8-575.5,200.3-553 M658.7-27.4l-0.2,0L658.7-27.4z M658.7-27.4L658.7-27.4
					L658.7-27.4z"/>
			</g>
		</g>
	</g>
</g>
<g id="g6197" transform="matrix(1.25,0,0,-1.25,-1350.0022,956.57563)">
	<g id="g6199">
		<g id="g6205">
			<g id="g6207">
				
					<linearGradient id="path6217_1_" gradientUnits="userSpaceOnUse" x1="1386.83" y1="416.4313" x2="1387.8301" y2="416.4313" gradientTransform="matrix(0 -714.1007 -714.1007 0 298800.6562 991079.9375)">
					<stop  offset="0" style="stop-color:#FFFFFF"/>
					<stop  offset="0.6533" style="stop-color:#858688"/>
					<stop  offset="1" style="stop-color:#181819"/>
				</linearGradient>
				<path id="path6217" class="st2" d="M1130.1,735.1c-4.7-0.4-9-0.9-12.9-1.5l0,0c-1.7-0.2-3.9-0.6-5-0.9l0,0
					c-7.2-1.9-11.4-8.9-10.5-15.8l0,0c0.1-0.4,1.8-10.4,2.4-13.7l0,0c4.3-23.7,9-47.3,14.1-70.8l0,0c5.1-23.3,10.6-46.6,16.5-69.8
					l0,0c3.6-14,7.3-28.1,11.1-42.1l0,0c2.8-10.3,11.5-40.8,16.8-58.2l0,0c5.8-19.4,11.9-38.7,18.2-57.9l0,0
					c6.9-20.9,28.2-82.2,32.1-92l0,0c17.6-44.5,36.2-79,68.8-104.8l0,0c31.6-24.9,65.1-35.6,145.2-35.6l0,0
					c80.1,0,113.5,10.6,145.1,35.6l0,0c32.6,25.8,51.3,60.3,68.9,104.8l0,0c3.9,9.8,25.2,71.1,32.1,92l0,0
					c6.3,19.2,12.4,38.5,18.2,57.9l0,0c5.2,17.4,13.9,47.8,16.8,58.2l0,0c3.8,14,7.6,28,11.1,42.1l0,0c5.9,23.2,11.4,46.4,16.5,69.8
					l0,0c5.1,23.5,9.8,47.1,14.1,70.8l0,0c0.6,3.3,2.4,13.3,2.4,13.7l0,0c0.8,6.8-3.3,13.9-10.5,15.8l0,0c-1,0.3-3.2,0.6-5,0.9l0,0
					c-3.9,0.5-8.2,1-12.9,1.5l0,0c-43.5,3.8-181.4,8.5-296.7,8.5l0,0C1311.5,743.7,1173.5,739,1130.1,735.1 M1575.4,444.3
					c-3.9-12-28-70.8-32.1-80.4l0,0c-9.1-21.3-18.6-41.5-33.6-55.1l0,0c-10.9-9.9-26.5-19-62.2-20.4l0,0c-6.9-0.2-15.7-0.3-20.6-0.3
					l0,0c-4.9,0-13.8,0-20.6,0.3l0,0c-35.8,1.4-51.3,10.4-62.2,20.4l0,0c-15,13.6-24.5,33.8-33.6,55.1l0,0
					c-4.1,9.6-28.2,68.5-32.1,80.4l0,0c49-2.4,103.5-4.2,148.6-4.2l0,0C1471.9,440.1,1526.4,441.8,1575.4,444.3"/>
			</g>
		</g>
	</g>
</g>
<g id="g6219" transform="matrix(1.25,0,0,-1.25,-1350.0022,956.57563)">
	<g id="g6221">
		<g id="g6227">
			<g id="g6229">
				
					<linearGradient id="path6237_1_" gradientUnits="userSpaceOnUse" x1="1388.6019" y1="414.0338" x2="1389.6019" y2="414.0338" gradientTransform="matrix(0 189.3672 189.3672 0 -76977.6016 -262659.375)">
					<stop  offset="0" style="stop-color:#484848"/>
					<stop  offset="1" style="stop-color:#000000"/>
				</linearGradient>
				<path id="path6237" class="st3" d="M1575.2,448.4c-54.7-2.7-107.4-4.2-148.4-4.2l0,0c-41,0-93.7,1.5-148.4,4.2l0,0l-6,0.3
					l1.9-5.7c4-12.3,28-71,32.2-80.8l0,0c8.8-20.7,18.8-42.2,34.6-56.5l0,0c10.8-9.8,26.9-20,64.8-21.4l0,0l20.8-0.3l20.8,0.3
					c37.9,1.4,54.1,11.6,64.9,21.4l0,0c15.8,14.3,25.8,35.8,34.6,56.5l0,0c4.2,9.8,28.2,68.5,32.3,80.8l0,0l1.9,5.7L1575.2,448.4z
					 M1569.4,439.8c-7-18.8-26.4-66-30-74.4l0,0v0c-8.5-19.9-18-40.4-32.6-53.6l0,0c-10.2-9.2-24.5-17.9-59.6-19.3l0,0l-20.5-0.3
					l-20.5,0.3c-35.3,1.3-49.9,10.5-59.6,19.3l0,0c-14.6,13.2-24.1,33.8-32.6,53.6l0,0c-3.6,8.4-22.9,55.6-30,74.4l0,0
					c52.6-2.5,103-3.9,142.6-3.9l0,0C1466.4,435.9,1516.8,437.3,1569.4,439.8 M1547.1,362.2L1547.1,362.2L1547.1,362.2z"/>
			</g>
		</g>
	</g>
</g>
<g id="g6239" transform="matrix(1.25,0,0,-1.25,-1350.0022,956.57563)">
	<g id="g6241">
		<g id="g6247">
			<g id="g6249">
				
					<linearGradient id="path6263_1_" gradientUnits="userSpaceOnUse" x1="1387.726" y1="415.2751" x2="1388.726" y2="415.2751" gradientTransform="matrix(0 505.7729 505.7729 0 -208608.1719 -701635.875)">
					<stop  offset="0" style="stop-color:#FDFDFD"/>
					<stop  offset="0.4917" style="stop-color:#454647"/>
					<stop  offset="0.4917" style="stop-color:#454647"/>
					<stop  offset="0.7893" style="stop-color:#181819"/>
					<stop  offset="1" style="stop-color:#181819"/>
				</linearGradient>
				<path id="path6263" class="st4" d="M1132.3,730.8c3.3-19,9.2-39.7,15-60l0,0c1.4-4.9,2.7-9.6,4-14.3l0,0
					c7.3-26.3,15.2-53.2,23.2-79.9l0,0c15.8-52,32.1-105,52.3-157.8l0,0c10.7-28,20.6-52.6,30.5-75.4l0,0
					c8.7-20.1,19.7-43.2,35.8-62.2l0,0c16.4-19.3,34.4-31.6,56.9-38.9l0,0c19.6-6.3,42.5-9,76.8-9l0,0c34.3,0,57.3,2.7,76.8,9l0,0
					c22.5,7.3,40.6,19.6,56.9,38.9l0,0c16,18.9,27.1,42.1,35.8,62.2l0,0c9.8,22.7,19.8,47.4,30.5,75.4l0,0
					c20.2,52.8,36.4,105.8,52.3,157.8l0,0c8.1,26.7,15.9,53.6,23.2,79.9l0,0c1.1,4,2.3,8.2,3.4,12.2l0,0
					c5.8,20.4,11.6,41.4,15.4,61.4l0,0c-5.4-19-27.1-91.4-52.6-150.4l0,0c-30.5-70.7-79.6-127.2-91.8-137l0,0l-0.5-0.4l-2-1.5
					c-0.6-1.8-1.2-3.5-1.5-4.1l0,0c-1.1-3-2.3-6-3.5-9l0,0c-2.4-6.2-4.8-12.4-7.3-18.7l0,0c-4.9-12.4-10-24.8-15.2-37.1l0,0
					c-5.2-12.2-10.3-24.5-16.7-36.1l0,0c-5.9-10.8-13.1-21.1-22.6-29l0,0c-9.6-8-21.2-12.9-33.4-15.5l0,0
					c-12.9-2.7-26.1-3.1-39.2-3.1l0,0c-2.7,0-5.3,0-7.9-0.1l0,0c-2.7,0-5.3,0-8,0.1l0,0c-13.1,0.1-26.4,0.4-39.2,3.1l0,0
					c-12.2,2.6-23.8,7.5-33.5,15.5l0,0c-9.5,7.9-16.7,18.2-22.6,29l0,0c-6.4,11.6-11.5,23.9-16.7,36.1l0,0
					c-5.2,12.3-10.3,24.7-15.2,37.1l0,0c-2.5,6.2-4.9,12.4-7.3,18.7l0,0c-1.2,3-2.3,6-3.4,9l0,0c-0.2,0.6-0.8,2.3-1.5,4.1l0,0
					l-2,1.5l-0.5,0.4c-12.2,9.8-62.3,69-92.9,139.7l0,0C1158.4,642,1137.3,713.2,1132.3,730.8z"/>
			</g>
		</g>
	</g>
</g>
<g id="g6265" transform="matrix(1.25,0,0,-1.25,-1350.0022,956.57563)">
	<g id="g6267">
		<g id="g6273">
			<g id="g6275">
				
					<linearGradient id="path6289_1_" gradientUnits="userSpaceOnUse" x1="1387.9" y1="414.8828" x2="1388.9" y2="414.8828" gradientTransform="matrix(0 379.5189 379.5189 0 -156029.0312 -526294.25)">
					<stop  offset="0" style="stop-color:#272829"/>
					<stop  offset="0.157" style="stop-color:#FFFFFF"/>
					<stop  offset="0.157" style="stop-color:#FFFFFF"/>
					<stop  offset="0.3708" style="stop-color:#C8C9CB"/>
					<stop  offset="1" style="stop-color:#8F9193"/>
				</linearGradient>
				<path id="path6289" class="st5" d="M1133.2,735.4c0,0,14.1-64.4,37.1-126.3l0,0l0.1-0.1h-0.1c3.6-9.6,7.4-19.2,11.4-28.5l0,0
					c30-69.4,83-124.7,96.6-136.3l0,0c3.5-0.1,8.8-0.4,12.3-0.6l0,0c9.5-0.4,19-0.9,28.5-1.2l0,0c18.7-0.8,37.4-1.4,56.1-1.8l0,0
					c17.2-0.4,34.5-0.5,51.7-0.5l0,0c17.2,0,34.5,0.2,51.7,0.5l0,0c18.7,0.4,37.4,1,56.1,1.8l0,0c9.5,0.4,19,0.8,28.5,1.2l0,0
					c3.5,0.2,8.8,0.5,12.3,0.6l0,0c13.6,11.6,66.6,66.9,96.6,136.3l0,0c16,37,28.8,79,37.2,109.9l0,0l-0.1-0.1l0.1,0.1
					c7.3,26.6,11.3,45,11.3,45l0,0c-97.8,5.9-195.7,8.3-293.6,8.3l0,0C1328.9,743.7,1231,741.3,1133.2,735.4"/>
			</g>
		</g>
	</g>
</g>
<g id="g6291" transform="matrix(1.25,0,0,-1.25,-1350.0022,956.57563)">
	<g id="g6293">
		<g id="g6299">
			<g id="g6301">
				
					<radialGradient id="path6313_1_" cx="1386.5532" cy="417.4969" r="1" gradientTransform="matrix(470.4847 0 0 -470.4847 -651220.9375 197202.25)" gradientUnits="userSpaceOnUse">
					<stop  offset="0" style="stop-color:#FFFFFF"/>
					<stop  offset="0.9238" style="stop-color:#D3D4D5"/>
					<stop  offset="0.9238" style="stop-color:#D3D4D5"/>
					<stop  offset="1" style="stop-color:#D3D4D5"/>
				</radialGradient>
				<path id="path6313" class="st6" d="M1133.2,735.4L1133.2,735.4c0,0,14.1-64.4,37.1-126.4l0,0l0.1-0.1h-0.1
					c1.2-3.3,2.5-6.6,3.7-9.8l0,0c43.7-2,89.3-1.8,136.2,0.8l0,0c160.2,8.9,302.6,44.3,399.7,93.4l0,0c6.7,25,10.5,42,10.5,42l0,0v0
					c-46.6,3.8-180.9,8.3-293.6,8.3l0,0C1314.1,743.7,1179.9,739.2,1133.2,735.4"/>
			</g>
		</g>
	</g>
</g>
<g id="g6315" transform="matrix(1.25,0,0,-1.25,-1350.0022,956.57563)">
	<g>
		<defs>
			<rect id="SVGID_3_" x="-9268.1" y="-6595.1" width="12553.4" height="8877"/>
		</defs>
		<clipPath id="SVGID_4_">
			<use xlink:href="#SVGID_3_"  style="overflow:visible;"/>
		</clipPath>
		<g id="g6317" class="st7">
			<g id="g6323" transform="translate(1140.799,746.7172)">
				<path id="path6325" class="st8" d="M469.4-155.3l-1.5-2.4c0.6-1.2,6.1-12.6,6.1-12.6l1.5,2.4C475-166.7,469.4-155.3,469.4-155.3
					"/>
			</g>
			<g id="g6327" transform="translate(1135.3889,746.7172)">
				<path id="path6329" class="st8" d="M429.2-155.3c0,0-5.4-11.3-6-12.5h-21.7l-3.7-2.4l1.8,0h25c0,0,5.4,11.3,6,12.6h42.6l1.5,2.4
					H429.2z"/>
			</g>
			<g id="g6331" transform="translate(1135.3889,746.7172)">
				<path id="path6333" class="st9" d="M429.2-155.3c0,0-5.4-11.3-6-12.5h-21.7l-3.7-2.4l1.8,0h25c0,0,5.4,11.3,6,12.6h42.6l1.5,2.4
					H429.2z"/>
			</g>
			<g id="g6335" transform="translate(1143.3352,747.5356)">
				<path id="path6337" class="st8" d="M488.3-149.2c-5.4,11.9-9.8,21.5-13.2,28.4c-6.4,13.4-8.4,16-9.2,16.9
					c-2,2.1-5.1,3.7-9.2,4.8c-3.9,1.1-8.1,1.6-12.6,1.6v-2.4c4.3,0,8.3-0.5,12-1.5c3.6-1,6.4-2.4,8.1-4.2c0.7-0.6,2.6-3.5,8.7-16.2
					c3.3-6.9,7.8-16.4,13.1-28.4c0,0,7-15.7,8.3-18.5H473l-1.5-2.4h26.5L488.3-149.2z"/>
			</g>
		</g>
	</g>
</g>
<g id="g6339" transform="matrix(1.25,0,0,-1.25,73.037738,17.090225)">
	<path id="path6341" class="st8" d="M451.8-119.1l0,0.2l0,0.1L451.8-119.1z"/>
</g>
<g id="g6343" transform="matrix(1.25,0,0,-1.25,-1350.0022,956.57563)">
	<g id="g6345">
		<g id="g6351">
			<g id="g6353">
				
					<linearGradient id="path6367_1_" gradientUnits="userSpaceOnUse" x1="1392.7346" y1="410.0923" x2="1393.7346" y2="410.0923" gradientTransform="matrix(0 47.9212 47.9212 0 -18061.8848 -66143.7734)">
					<stop  offset="0" style="stop-color:#2A2A2A"/>
					<stop  offset="0.157" style="stop-color:#FFFFFF"/>
					<stop  offset="0.157" style="stop-color:#FFFFFF"/>
					<stop  offset="0.3708" style="stop-color:#CECCCD"/>
					<stop  offset="1" style="stop-color:#8B888A"/>
				</linearGradient>
				<path id="path6367" class="st10" d="M1590.2,632.7l0.1-0.2L1590.2,632.7L1590.2,632.7z"/>
			</g>
		</g>
	</g>
</g>
<g id="g6369" transform="matrix(1.25,0,0,-1.25,-1350.0022,956.57563)">
	<g>
		<defs>
			<rect id="SVGID_5_" x="-9268.1" y="-6595.1" width="12553.4" height="8877"/>
		</defs>
		<clipPath id="SVGID_6_">
			<use xlink:href="#SVGID_5_"  style="overflow:visible;"/>
		</clipPath>
		<g id="g6371" class="st11">
			<g id="g6377" transform="translate(1113.6272,746.7172)">
				<path id="path6379" class="st8" d="M267.4-155.3l-1.5-2.4c0.6-1.2,6.1-12.6,6.1-12.6l1.5,2.4
					C272.9-166.7,267.4-155.3,267.4-155.3"/>
			</g>
			<g id="g6381" transform="translate(1108.2141,746.7172)">
				<path id="path6383" class="st8" d="M227.2-155.3c0,0-5.4-11.3-6-12.5h-21.7l-3.7-2.4l1.8,0h25c0,0,5.4,11.3,6,12.6h42.7l1.5,2.4
					H227.2z"/>
			</g>
			<g id="g6385" transform="translate(1108.2141,746.7172)">
				<path id="path6387" class="st9" d="M227.2-155.3c0,0-5.4-11.3-6-12.5h-21.7l-3.7-2.4l1.8,0h25c0,0,5.4,11.3,6,12.6h42.7l1.5,2.4
					H227.2z"/>
			</g>
			<g id="g6389" transform="translate(1116.1604,747.5356)">
				<path id="path6391" class="st8" d="M286.2-149.2c-5.4,11.9-9.8,21.5-13.2,28.4c-6.5,13.4-8.4,16-9.2,16.9
					c-2.1,2.1-5.1,3.7-9.2,4.8c-3.9,1.1-8.1,1.6-12.6,1.6v-2.4c4.3,0,8.3-0.5,12-1.5c3.6-1,6.4-2.4,8.1-4.2
					c0.7-0.6,2.6-3.5,8.7-16.2c3.3-6.9,7.8-16.4,13.1-28.4c0,0,7-15.7,8.3-18.5H271l-1.5-2.4H296L286.2-149.2z"/>
			</g>
			<g id="g6393" transform="translate(1110.7795,751.4482)">
				<path id="path6395" class="st9" d="M246.2-120.1l1,0.5v2.4c-1.3,0-2.3-0.5-2.9-1.4l-14.7-31l3.8,2.4
					C234.8-144.2,246.2-120.1,246.2-120.1"/>
			</g>
		</g>
	</g>
</g>
<g id="g6397" transform="matrix(1.25,0,0,-1.25,39.070438,17.090225)">
	<path id="path6399" class="st8" d="M249.8-119.1l0,0.2l-0.1,0.1L249.8-119.1z"/>
</g>
<g id="g6401" transform="matrix(1.25,0,0,-1.25,-1350.0022,956.57563)">
	<g id="g6403">
		<g id="g6409">
			<g id="g6411">
				
					<linearGradient id="path6425_1_" gradientUnits="userSpaceOnUse" x1="1392.7346" y1="410.0921" x2="1393.7346" y2="410.0921" gradientTransform="matrix(0 47.9212 47.9212 0 -18291.1152 -66143.7734)">
					<stop  offset="0" style="stop-color:#2A2A2A"/>
					<stop  offset="0.157" style="stop-color:#FFFFFF"/>
					<stop  offset="0.157" style="stop-color:#FFFFFF"/>
					<stop  offset="0.3708" style="stop-color:#CECCCD"/>
					<stop  offset="1" style="stop-color:#8B888A"/>
				</linearGradient>
				<path id="path6425" class="st12" d="M1361,632.7l0.1-0.2L1361,632.7L1361,632.7z"/>
			</g>
		</g>
	</g>
</g>
<g id="g6427" transform="matrix(1.25,0,0,-1.25,-1350.0022,956.57563)">
	<g id="g6429">
		<g id="g6435">
			<g id="g6437">
				
					<linearGradient id="path6445_1_" gradientUnits="userSpaceOnUse" x1="1411.5258" y1="405.0047" x2="1412.5258" y2="405.0047" gradientTransform="matrix(-6.6633 13.7504 13.7504 6.6633 5188.5479 -21493.4043)">
					<stop  offset="0" style="stop-color:#FFFFFF"/>
					<stop  offset="1" style="stop-color:#C1C1C1"/>
				</linearGradient>
				<path id="path6445" class="st13" d="M1358,634.2v-2.4l0.2,0l0.9-0.5c0,0,11.6-24.1,13.1-27.1l0,0h-28.1l-3.8-2.4h35.6
					l-14.9,30.8l0-0.2l-0.1,0.2l0.1-0.1c-0.2,0.6-0.9,1.6-2.8,1.6l0,0L1358,634.2z"/>
			</g>
		</g>
	</g>
</g>
<g id="g6447" transform="matrix(1.25,0,0,-1.25,-1350.0022,956.57563)">
	<g>
		<defs>
			<rect id="SVGID_7_" x="-9268.1" y="-6595.1" width="12553.4" height="8877"/>
		</defs>
		<clipPath id="SVGID_8_">
			<use xlink:href="#SVGID_7_"  style="overflow:visible;"/>
		</clipPath>
		<g id="g6449" class="st14">
			<g id="g6455" transform="translate(1137.9485,751.4482)">
				<path id="path6457" class="st9" d="M448.2-120.1l1,0.5v2.4c-1.4,0-2.3-0.5-2.9-1.4l-14.7-31l3.8,2.4
					C436.8-144.2,448.2-120.1,448.2-120.1"/>
			</g>
		</g>
	</g>
</g>
<g id="g6459" transform="matrix(1.25,0,0,-1.25,-1350.0022,956.57563)">
	<g id="g6461">
		<g id="g6467">
			<g id="g6469">
				
					<linearGradient id="path6477_1_" gradientUnits="userSpaceOnUse" x1="1411.4375" y1="404.8671" x2="1412.4375" y2="404.8671" gradientTransform="matrix(-6.585 13.8047 13.8047 6.585 5286.5317 -21535.9336)">
					<stop  offset="0" style="stop-color:#FFFFFF"/>
					<stop  offset="1" style="stop-color:#C1C1C1"/>
				</linearGradient>
				<path id="path6477" class="st15" d="M1587.2,634.2v-2.4l0.2,0l0.9-0.5c0,0,11.7-24.1,13.1-27.1l0,0h-28.1l-3.8-2.4h35.6
					l-15,30.8l0.1-0.2l-0.1,0.2l0-0.1c-0.2,0.6-0.9,1.6-2.8,1.6l0,0L1587.2,634.2z"/>
			</g>
		</g>
	</g>
</g>
<g id="g6479" transform="matrix(1.25,0,0,-1.25,60.295938,14.892355)">
	<path id="path6481" class="st8" d="M376-106h20.1l2.4,2.4h-24.9v-73.2l2.4,2.4V-106z"/>
</g>
<g id="g6483" transform="matrix(1.25,0,0,-1.25,63.630938,14.540735)">
	<path id="path6485" class="st9" d="M395.9-103.9l-2.4-2.4v-68.5h-20.1l-2.4-2.4h24.9V-103.9z"/>
</g>
<g id="g6487" transform="matrix(1.25,0,0,-1.25,-1350.0022,956.57563)">
	<g id="g6489">
		<g id="g6495">
			<g id="g6497">
				
					<linearGradient id="path6505_1_" gradientUnits="userSpaceOnUse" x1="1376.876" y1="411.7112" x2="1377.876" y2="411.7112" gradientTransform="matrix(34.3165 -13.9818 -13.9818 -34.3165 -40240.7773 33990.2773)">
					<stop  offset="0" style="stop-color:#FFFFFF"/>
					<stop  offset="1" style="stop-color:#C1C1C1"/>
				</linearGradient>
				<path id="path6505" class="st16" d="M1215.3,649.7v-73.2l2.4,2.4v68.5h50.5c11.3,0,20.4-3.7,27.1-10.9l0,0
					c0.8-0.8,1.5-1.7,2.2-2.6l0,0l1.7,1.7c-0.6,0.9-1.3,1.7-2.1,2.5l0,0c-7.2,7.7-16.9,11.7-28.9,11.7l0,0H1215.3z"/>
			</g>
		</g>
	</g>
</g>
<g id="g6507" transform="matrix(1.25,0,0,-1.25,-1350.0022,956.57563)">
	<g>
		<defs>
			<rect id="SVGID_9_" x="-9268.1" y="-6595.1" width="12553.4" height="8877"/>
		</defs>
		<clipPath id="SVGID_10_">
			<use xlink:href="#SVGID_9_"  style="overflow:visible;"/>
		</clipPath>
		<g id="g6509" class="st17">
			<g id="g6515" transform="translate(1096.927,751.5742)">
				<path id="path6517" class="st9" d="M143.2-119.2h24.3c4.7,0,8.4-1.6,11.2-4.7l1.7,1.7c-3.3,3.6-7.6,5.4-12.9,5.4h-26.6v-42.9
					l2.4,2.4V-119.2z"/>
			</g>
			<g id="g6519" transform="translate(1103.6926,746.2808)">
				<path id="path6521" class="st9" d="M193.5-158.6c6.3,6.6,9.5,15,9.5,24.8c0,8.8-2.6,16.6-7.6,23.1l-1.7-1.7c4.6-6,7-13.2,7-21.4
					c0-9.2-3-17-8.9-23.1c-6.6-7-15.8-10.5-27.4-10.5H114l-2.4-2.4h52.8C176.7-169.8,186.4-166,193.5-158.6"/>
			</g>
		</g>
	</g>
</g>
<g id="g6523" transform="matrix(1.25,0,0,-1.25,-1350.0022,956.57563)">
	<g id="g6525">
		<g id="g6531">
			<g id="g6533">
				
					<linearGradient id="path6541_1_" gradientUnits="userSpaceOnUse" x1="1420.2064" y1="401.3599" x2="1421.2064" y2="401.3599" gradientTransform="matrix(-5.3504 10.0972 10.0972 5.3504 4805.1162 -15879.0918)">
					<stop  offset="0" style="stop-color:#FFFFFF"/>
					<stop  offset="1" style="stop-color:#C1C1C1"/>
				</linearGradient>
				<path id="path6541" class="st18" d="M1275.6,627.7l0.8-1c2.6-3.4,4-7.8,4-12.9l0,0c0-5.3-1.4-9.9-4.1-13.5l0,0
					c-3-4.1-7-6-11.9-6l0,0h-24.3l-2.4-2.4h26.6c5.7,0,10.3,2.3,13.8,7l0,0c3,4.1,4.6,9.1,4.6,14.9l0,0c0,5.7-1.5,10.5-4.4,14.3l0,0
					l-1.1,1.2L1275.6,627.7z"/>
			</g>
		</g>
	</g>
</g>
<g id="g6543" transform="matrix(1.25,0,0,-1.25,-1350.0022,956.57563)">
	<g id="g6545">
		<g id="g6551">
			<g id="g6553">
				
					<linearGradient id="path6561_1_" gradientUnits="userSpaceOnUse" x1="1373.3369" y1="408.1501" x2="1374.3369" y2="408.1501" gradientTransform="matrix(25.3473 -6.9571 -6.9571 -25.3473 -30623.3242 20509.623)">
					<stop  offset="0" style="stop-color:#FFFFFF"/>
					<stop  offset="1" style="stop-color:#C1C1C1"/>
				</linearGradient>
				<path id="path6561" class="st19" d="M1358.1,650c-4.6,0-8.9-0.6-12.8-1.6l0,0c-4-1.1-7.1-2.7-9.3-4.8l0,0
					c-0.8-0.9-2.6-3.5-9.1-16.9l0,0l-13.3-28.4l-9.7-21.8l3.7,2.4c1.2,2.8,8.1,18.4,8.1,18.4l0,0l13.3,28.4
					c5.9,12.1,7.9,15.5,8.6,16.3l0,0c1.8,1.8,4.6,3.2,8.2,4.2l0,0c3.7,1,7.8,1.5,12.1,1.5l0,0h0.1c4.3,0,8.3-0.5,12-1.5l0,0
					c3.6-1,6.4-2.4,8.1-4.2l0,0c0.7-0.6,2.6-3.5,8.7-16.2l0,0c3.3-6.9,7.7-16.4,13.1-28.4l0,0c0,0,7-15.7,8.3-18.5l0,0h-21.4
					l-1.5-2.4h26.6l-9.8,21.8c-5.4,11.9-9.8,21.5-13.2,28.4l0,0c-6.5,13.4-8.4,16-9.2,16.9l0,0c-2.1,2.1-5.1,3.7-9.2,4.8l0,0
					C1366.9,649.5,1362.7,650,1358.1,650L1358.1,650L1358.1,650z"/>
			</g>
		</g>
	</g>
</g>
<g id="g6563" transform="matrix(1.25,0,0,-1.25,-1350.0022,956.57563)">
	<g id="g6565">
		<g id="g6571">
			<g id="g6573">
				
					<linearGradient id="path6581_1_" gradientUnits="userSpaceOnUse" x1="1372.8477" y1="408.187" x2="1373.8477" y2="408.187" gradientTransform="matrix(24.5688 -7.2467 -7.2467 -24.5688 -29194.8965 20586.8906)">
					<stop  offset="0" style="stop-color:#FFFFFF"/>
					<stop  offset="1" style="stop-color:#C1C1C1"/>
				</linearGradient>
				<path id="path6581" class="st20" d="M1587.3,650c-4.6,0-8.8-0.6-12.7-1.6l0,0c-4-1.1-7.1-2.7-9.3-4.8l0,0
					c-0.8-0.9-2.6-3.5-9.1-16.9l0,0l-13.3-28.4l-9.6-21.8l3.6,2.4c1.2,2.8,8.2,18.4,8.2,18.4l0,0l13.3,28.4
					c5.9,12.1,7.9,15.5,8.6,16.3l0,0c1.8,1.8,4.6,3.2,8.2,4.2l0,0c3.7,1,7.8,1.5,12.1,1.5l0,0h0.1c4.3,0,8.3-0.5,12-1.5l0,0
					c3.6-1,6.3-2.4,8.1-4.2l0,0c0.7-0.6,2.6-3.5,8.7-16.2l0,0c3.3-6.9,7.8-16.4,13.1-28.4l0,0c0,0,7-15.7,8.3-18.5l0,0h-21.4
					l-1.5-2.4h26.5l-9.8,21.8c-5.4,11.9-9.8,21.5-13.2,28.4l0,0c-6.4,13.4-8.4,16-9.2,16.9l0,0c-2,2.1-5.1,3.7-9.2,4.8l0,0
					C1596.2,649.5,1591.9,650,1587.3,650L1587.3,650L1587.3,650z"/>
			</g>
		</g>
	</g>
</g>
<g id="g6583" transform="matrix(1.25,0,0,-1.25,-1350.0022,956.57563)">
	<g id="g6585">
		<g id="g6591">
			<g id="g6593">
				
					<linearGradient id="path6601_1_" gradientUnits="userSpaceOnUse" x1="1380.0414" y1="423.5841" x2="1381.0414" y2="423.5841" gradientTransform="matrix(0 -37.0287 -37.0287 0 17134.8457 51721.9883)">
					<stop  offset="0" style="stop-color:#FFFFFF"/>
					<stop  offset="1" style="stop-color:#C1C1C1"/>
				</linearGradient>
				<path id="path6601" class="st21" d="M1447.3,649.7c-12,0-21.7-3.9-28.9-11.7l0,0c-6.5-7-9.7-15.6-9.7-25.6l0,0
					c0-6.4,1.4-12.1,4.1-17.2l0,0c1.5-2.7,3.3-5.3,5.5-7.6l0,0c7.1-7.5,16.8-11.2,29-11.2l0,0h44.1v17.8l-2.4-2.4v-13h-41.7
					c-11.5,0-20.7,3.5-27.3,10.5l0,0c-2.3,2.4-4.1,4.9-5.5,7.7l0,0c-2.3,4.6-3.5,9.7-3.5,15.4l0,0c0,9.4,3.1,17.4,9.1,23.9l0,0
					c6.7,7.2,15.8,10.9,27.1,10.9l0,0h41.7l2.4,2.4H1447.3z"/>
			</g>
		</g>
	</g>
</g>
<g id="g6603" transform="matrix(1.25,0,0,-1.25,-1350.0022,956.57563)">
	<g id="g6605">
		<g id="g6611">
			<g id="g6613">
				
					<linearGradient id="path6621_1_" gradientUnits="userSpaceOnUse" x1="1395.2245" y1="406.3387" x2="1396.2245" y2="406.3387" gradientTransform="matrix(0 33.0482 33.0482 0 -11966.7178 -45509.4414)">
					<stop  offset="0" style="stop-color:#FFFFFF"/>
					<stop  offset="1" style="stop-color:#C1C1C1"/>
				</linearGradient>
				<path id="path6621" class="st22" d="M1489,647.3v-12.6h-38c-5.8,0-10.5-2.2-13.9-6.6l0,0c-3-3.9-4.5-8.7-4.5-14.3l0,0l0-1.4
					c0.2-5.2,1.7-9.8,4.5-13.6l0,0c3.4-4.7,8.1-7,13.8-7l0,0h38l2.4,2.4h-40.4c-5,0-8.9,2-11.9,6l0,0c-2.7,3.7-4.1,8.3-4.1,13.5l0,0
					l0,0.6c0.1,4.8,1.4,9,4,12.3l0,0c2.9,3.8,6.9,5.7,12,5.7l0,0h40.4v17.3L1489,647.3z"/>
			</g>
		</g>
	</g>
</g>
<g id="g6623" transform="matrix(1.25,0,0,-1.25,-1350.0022,956.57563)">
	<g>
		<defs>
			<rect id="SVGID_11_" x="-9268.1" y="-6595.1" width="12553.4" height="8877"/>
		</defs>
		<clipPath id="SVGID_12_">
			<use xlink:href="#SVGID_11_"  style="overflow:visible;"/>
		</clipPath>
		<g id="g6625" class="st23">
			<g id="g6631" transform="translate(1103.4592,752.0532)">
				<path id="path6633" class="st24" d="M191.8-115.6c-6.7,7.2-15.8,10.9-27.1,10.9h-50.5v-68.5h50.5c11.5,0,20.8,3.5,27.4,10.5
					c5.9,6.2,8.9,14,8.9,23.1C200.9-130.2,197.8-122.2,191.8-115.6 M174.7-153.2c-3.4-4.6-8.1-7-13.8-7h-26.6v42.9h26.6
					c5.9,0,10.6-2.2,13.9-6.6c3-3.8,4.4-8.7,4.4-14.3C179.3-144.1,177.8-149.1,174.7-153.2"/>
			</g>
			<g id="g6635" transform="translate(1118.2483,746.4727)">
				<path id="path6637" class="st24" d="M301.8-157.1c-5.9,6.2-8.9,14-8.9,23.1c0,9.4,3,17.4,9.1,23.9c6.7,7.2,15.8,10.9,27.1,10.9
					h41.7v-12.6h-38c-5.8,0-10.5-2.2-13.9-6.6c-3-3.9-4.5-8.7-4.5-14.3c0-5.8,1.6-10.8,4.6-14.9c3.4-4.6,8.1-7,13.8-7h38v-13h-41.7
					C317.6-167.6,308.4-164.1,301.8-157.1"/>
			</g>
		</g>
	</g>
</g>
<path id="path6639" class="st24" d="M555.4,233h-25.2v-85.6h25.2V233z"/>
<g id="g6641" transform="matrix(1.25,0,0,-1.25,-1350.0022,956.57563)">
	<g>
		<defs>
			<rect id="SVGID_13_" x="-9268.1" y="-6595.1" width="12553.4" height="8877"/>
		</defs>
		<clipPath id="SVGID_14_">
			<use xlink:href="#SVGID_13_"  style="overflow:visible;"/>
		</clipPath>
		<g id="g6643" class="st25">
			<g id="g6649" transform="translate(1143.0706,747.4189)">
				<path id="path6651" class="st24" d="M486.3-150.1c-5.4,11.9-9.8,21.5-13.1,28.4c-6.1,12.7-8.1,15.5-8.8,16.2
					c-1.8,1.8-4.5,3.3-8.1,4.2c-3.7,1-7.8,1.5-12.1,1.5c-4.3,0-8.4-0.5-12.1-1.5c-3.6-1-6.4-2.4-8.2-4.2c-0.7-0.8-2.8-4.2-8.6-16.3
					L402-150.1c0,0-6.9-15.6-8.2-18.4h21.7c0.6,1.2,6,12.5,6,12.5h45.6c0,0,5.5-11.3,6.1-12.5h21.4
					C493.4-165.7,486.3-150.1,486.3-150.1 M426.4-145.6l14.8,31c0.6,0.9,1.6,1.4,3.1,1.4c1.9,0,2.6-0.9,2.8-1.6l14.9-30.8H426.4z"/>
			</g>
			<g id="g6653" transform="translate(1115.8997,747.4189)">
				<path id="path6655" class="st24" d="M284.3-150.1c-5.4,11.9-9.8,21.5-13.1,28.4c-6.1,12.7-8.1,15.5-8.7,16.2
					c-1.8,1.8-4.5,3.3-8.1,4.2c-3.7,1-7.8,1.5-12.1,1.5c-4.4,0-8.4-0.5-12.1-1.5c-3.6-1-6.4-2.4-8.2-4.2c-0.7-0.8-2.7-4.2-8.6-16.3
					l-13.3-28.4c0,0-6.9-15.6-8.2-18.4h21.7c0.6,1.2,5.9,12.5,5.9,12.5h45.7c0,0,5.5-11.3,6.1-12.5h21.4
					C291.3-165.7,284.3-150.1,284.3-150.1 M224.4-145.6l14.7,31c0.6,0.9,1.6,1.4,3.1,1.4c1.9,0,2.6-0.9,2.8-1.6l15-30.8H224.4z"/>
			</g>
		</g>
	</g>
</g>
<g id="g6657" transform="matrix(1.25,0,0,-1.25,-1350.0022,956.57563)">
	<g id="g6659">
		<g id="g6665">
			<g id="g6667">
				
					<linearGradient id="path6675_1_" gradientUnits="userSpaceOnUse" x1="1382.6447" y1="417.633" x2="1383.6447" y2="417.633" gradientTransform="matrix(8.8844 -65.9985 -65.9985 -8.8844 16677.9102 95631.8594)">
					<stop  offset="0" style="stop-color:#696E93"/>
					<stop  offset="1" style="stop-color:#2B365F"/>
				</linearGradient>
				<path id="path6675" class="st26" d="M1575.2,646.1c-3.6-1-6.4-2.4-8.2-4.2l0,0c-0.3-0.3-0.7-0.9-1.5-2.2l0,0
					c9.1,2.5,18.1,5,26.9,7.7l0,0c-1.6,0.2-3.3,0.3-5.1,0.3l0,0C1582.9,647.6,1578.8,647.1,1575.2,646.1 M1346,646.1
					c-3.6-1-6.4-2.4-8.2-4.2l0,0c-0.7-0.8-2.8-4.2-8.6-16.3l0,0l-11.8-25.3c7.7,0.5,15.5,1,23.1,1.6l0,0l14.7,30.8
					c0.6,0.9,1.6,1.4,3.1,1.4l0,0c1.9,0,2.6-0.9,2.8-1.6l0,0l13.4-27.6c7.1,0.7,14.2,1.5,21.2,2.3l0,0c-3.4,7.3-6.2,13.5-8.6,18.3
					l0,0c-6.1,12.7-8.1,15.5-8.7,16.2l0,0c-1.8,1.8-4.5,3.3-8.1,4.2l0,0c-3.7,1-7.8,1.5-12.1,1.5l0,0
					C1353.7,647.6,1349.6,647.1,1346,646.1 M1504.2,647.3V625c6.8,1.4,13.5,2.9,20.1,4.4l0,0v17.9H1504.2z M1447.3,647.3
					c-11.3,0-20.4-3.7-27.1-10.9l0,0c-6-6.5-9.1-14.6-9.1-23.9l0,0c0-1.1,0-2.1,0.1-3.2l0,0c7.2,0.9,14.4,1.9,21.5,3l0,0l0,1.5
					c0,5.6,1.5,10.4,4.5,14.3l0,0c3.3,4.4,8,6.6,13.9,6.6l0,0h38v12.6H1447.3z M1217.7,647.3v-49.4c6.7-0.1,13.4-0.1,20.1-0.1l0,0
					v36.9h26.6c5.9,0,10.6-2.2,13.9-6.6l0,0c2.9-3.8,4.4-8.7,4.4-14.3l0,0c0-5.8-1.5-10.9-4.6-14.9l0,0l-0.3-0.3
					c8,0.3,16,0.6,24.1,1l0,0c1.5,3.9,2.3,8.3,2.3,12.9l0,0c0,9.4-3.1,17.4-9.1,23.9l0,0c-6.7,7.2-15.8,10.9-27.1,10.9l0,0H1217.7z"
					/>
			</g>
		</g>
	</g>
</g>
<g id="g6677" transform="matrix(1.25,0,0,-1.25,-1350.0022,956.57563)">
	<g id="g6679">
		<g id="g6685">
			<g id="g6687">
				
					<linearGradient id="path6695_1_" gradientUnits="userSpaceOnUse" x1="1386.7979" y1="415.7743" x2="1387.7979" y2="415.7743" gradientTransform="matrix(755.5574 0 0 -755.5573 -1046680.875 314623.1875)">
					<stop  offset="0" style="stop-color:#FFFFFF"/>
					<stop  offset="1" style="stop-color:#FFFFFF"/>
				</linearGradient>
				<path id="path6695" class="st27" d="M1705.8,668.8c-1.1-4-2.3-8.2-3.4-12.3l0,0c-7.3-26.3-15.1-53.2-23.2-79.9l0,0
					c-15.8-52-34-104.9-53.9-157.3l0,0c-10.6-27.7-20.5-52.2-30.2-74.7l0,0c-8.6-20-19.5-42.9-35.5-61.7l0,0
					c-16.2-19.1-34.2-31.3-56.4-38.5l0,0c-19.4-6.2-42.2-8.9-76.2-8.9l0,0c-34,0-56.8,2.7-76.2,8.9l0,0
					c-22.3,7.2-40.2,19.4-56.4,38.5l0,0c-15.9,18.8-26.9,41.7-35.5,61.7l0,0c-9.7,22.6-19.6,47-30.2,74.7l0,0
					c-20,52.3-38.1,105.3-53.9,157.3l0,0c-8.1,26.7-15.9,53.6-23.2,79.9l0,0c-1.3,4.7-2.6,9.3-4,14.3l0,0
					c-6.2,21.8-12.6,44.3-15.7,64.4l0,0l-1.5-0.1c-1.9-0.2-3.7-0.4-5.5-0.5l0,0c3.9-25.2,12.9-54.2,20-79.9l0,0
					c7.4-26.8,15.2-53.5,23.3-80.1l0,0c16.2-53.2,34.3-105.8,54.1-157.7l0,0c9.6-25.2,19.6-50.2,30.3-75l0,0
					c9.7-22.4,20.6-44.6,36.6-63.4l0,0c35.6-41.9,77.5-49.9,138-49.9l0,0c60.4,0,102.4,8,137.9,49.9l0,0
					c15.9,18.8,26.9,41,36.6,63.4l0,0c10.7,24.8,20.7,49.8,30.3,75l0,0c19.8,51.9,37.9,104.5,54.1,157.7l0,0
					c8.1,26.6,15.9,53.3,23.3,80.1l0,0c7.1,25.7,15.6,53.8,19.9,79.9l0,0c-1.8,0.2-3.6,0.4-5.5,0.5l0,0l-1.5,0.1
					C1718.5,713.8,1712,690.9,1705.8,668.8"/>
			</g>
		</g>
	</g>
</g>
<g id="g6697" transform="matrix(1.25,0,0,-1.25,-1350.0022,956.57563)">
	<g id="g6699">
		<g id="g6705">
			<g id="g6707">
				
					<linearGradient id="path6719_1_" gradientUnits="userSpaceOnUse" x1="1386.509" y1="416.4845" x2="1387.509" y2="416.4845" gradientTransform="matrix(0 -382.7792 -382.7792 0 160848.5156 531471.3125)">
					<stop  offset="0" style="stop-color:#484848"/>
					<stop  offset="4.014590e-02" style="stop-color:#3E3E3E"/>
					<stop  offset="0.5401" style="stop-color:#000000"/>
					<stop  offset="1" style="stop-color:#202020"/>
				</linearGradient>
				<path id="path6719" class="st28" d="M1131,735.2v-0.1c0.8-3.6,19.4-88.1,48.6-155.5l0,0c29.4-68.1,81.9-125.3,96.9-137.3l0,0
					l0.5-0.4c0,0,2.2-1.6,3-2.2l0,0c0,0-1.2,3.2-1.6,4.5l0,0c-11.9,10.2-65.8,66.1-96.2,136.4l0,0c-29.3,68-48.3,153.8-48.5,154.8
					l0,0C1132.6,735.4,1131.8,735.3,1131,735.2 M1671.6,580.7c-30.4-70.3-84.4-126.4-96.2-136.5l0,0l-0.1-0.1
					c-0.4-1.2-1.7-4.6-1.7-4.6l0,0l2.9,2.2l0.6,0.4c14.9,12,67.6,69.4,97,137.5l0,0c29,67.2,47.9,152,48.7,155.5l0,0l0,0.1
					c-0.9,0.1-1.8,0.2-2.7,0.2l0,0C1719.9,734.4,1701,648.6,1671.6,580.7"/>
			</g>
		</g>
	</g>
</g>
</svg>
