<?xml version="1.0" encoding="utf-8"?>
<!-- Generator: Adobe Illustrator 21.1.0, SVG Export Plug-In . SVG Version: 6.00 Build 0)  -->
<svg version="1.1" id="svg2430" xmlns:svg="http://www.w3.org/2000/svg"
	 xmlns="http://www.w3.org/2000/svg" xmlns:xlink="http://www.w3.org/1999/xlink" x="0px" y="0px" viewBox="0 0 201.1 209.1"
	 style="enable-background:new 0 0 201.1 209.1;" xml:space="preserve">
<style type="text/css">
	.st0{fill:#E11418;}
	.st1{fill:#161413;}
</style>
<g id="layer1" transform="translate(-274.47006,-427.80075)">
	<g id="g8" transform="matrix(1.25,0,0,1.25,294.34556,427.80075)">
		<path id="path10" class="st0" d="M115.2,2c-8.3-0.8-30.1-2-50.7-2C43.9,0,22.1,1.2,13.8,2C4.4,3,0,7.8,0,17.1
			c0,17.7,0.7,45.4,1.9,61.6c1.1,14.5,1.9,25.9,19.9,36.8c12.9,7.8,25.7,14.5,42.4,23.2l0.3,0.2l0.3-0.2
			c16.7-8.6,29.6-15.4,42.4-23.2c18-11,18.9-22.4,19.9-36.8c1.2-16.3,1.9-43.9,1.9-61.6C129,7.8,124.6,3,115.2,2z M121.5,78.3
			c-1,13.8-1.7,23-17.3,32.4c-12.2,7.4-23,13.1-39.2,21.5l-0.6,0.3l-0.6-0.3c-15.8-8.2-27-14.1-39.2-21.5
			C9.2,101.3,8.5,92.2,7.5,78.3C6.2,62.2,5.6,34.7,5.6,17.1c0-6.5,2.2-8.8,8.8-9.5c8.2-0.8,29.8-2,50.1-2c20.4,0,41.9,1.2,50.1,2
			c6.6,0.7,8.8,3.1,8.8,9.5C123.4,34.7,122.7,62.1,121.5,78.3z"/>
	</g>
	<g id="g12" transform="matrix(1.25,0,0,1.25,317.06281,455.86587)">
		<path id="path14" class="st0" d="M45.4,19l-1.9,6.5c-7-14.4-15.4-21.9-25.6-21.9C7,3.6,1.6,11,0,13.3C2.8,6.2,10.3,0,20.2,0
			C33.8,0,41.4,10.7,45.4,19z"/>
	</g>
	<g id="g16" transform="matrix(1.25,0,0,1.25,310.22081,498.04487)">
		<path id="path18" class="st0" d="M0,0c0.1,23.9,7,35.4,17.4,35.4c4.8,0,8.3-3,8.3-8c0-4.2-1.8-7.5-2.6-8.9
			c0.3,1.4,0.5,2.9,0.5,4.7c0,4.1-2.8,5.5-5.1,5.5C11.7,28.8,4.8,15.3,2.9,0C2,0,0,0,0,0z"/>
	</g>
	<g id="g20" transform="matrix(1.25,0,0,1.25,376.05456,455.86587)">
		<path id="path22" class="st0" d="M25.3,0c9.9,0,17.3,6.2,20.2,13.3c-1.6-2.3-7-9.7-17.9-9.7C17.4,3.6,9,11.2,1.9,25.5L0,19
			C4,10.7,11.7,0,25.3,0z"/>
	</g>
	<g id="g24" transform="matrix(1.25,0,0,1.25,407.54369,498.04487)">
		<path id="path26" class="st0" d="M22.9,0C20.9,15.3,14,28.8,7.1,28.8c-2.3,0-5-1.3-5-5.5c0-1.8,0.2-3.3,0.5-4.7
			C1.8,19.9,0,23.3,0,27.5c0,4.9,3.4,8,8.3,8c10.4,0,17.4-11.5,17.4-35.4C25.7,0,23.8,0,22.9,0z"/>
	</g>
	<g id="g28" transform="matrix(1.25,0,0,1.25,312.02006,472.3185)">
		<path id="path30" class="st0" d="M85.2,0c-8.9,0-17.6,7.1-22.7,23.4l3.4,2.3l-1.6,8l-6.3,2.6l-1.1,7.9l3.1-3.8l3.3-1.4l-1,5.1
			l-5.7,2.3l-2,13.7l1.4,4.4l-5.5,2.2l-5.5-2.2l1.4-4.4l-2-13.7l-5.7-2.3l-1-5.1l3.3,1.4l3.1,3.8l-1.2-7.9l-6.3-2.6l-1.6-8l3.4-2.3
			C33.1,7.1,24.4,0,15.5,0C4.5,0,0,10.4,0.6,19h2.6c2.2,12.1,8.4,22.4,13,22.4c1.4,0,2.2-1.1,2.2-2.9c0-4.3-2.9-8.8-2.9-16.9
			c0-3.8,1.2-6.1,4.1-6.1c1.9,0,3.5,2,4.4,4.2c-1.7,6.1-1.5,11.2,3.4,13.4c2.4,1.1,5.3,2.4,5.3,2.4s3.1,13.1,3.3,14.1
			c0.2,0.9,0.7,2,1.1,2.8c0.6,1,4.6,8,4.6,8s1.4,6.9,1.7,8.4c0.8,4,3.6,4,6.8,4c3.2,0,6,0,6.8-4c0.3-1.5,1.7-8.4,1.7-8.4
			s4.1-7,4.6-8c0.4-0.7,0.9-1.9,1.1-2.8c0.2-0.9,3.3-14.1,3.3-14.1s2.9-1.3,5.3-2.4c4.9-2.2,5.1-7.3,3.4-13.4
			c0.9-2.2,2.5-4.2,4.5-4.2c2.8,0,4.1,2.4,4.1,6.1c0,8.2-2.9,12.7-2.9,16.9c0,1.8,0.7,2.9,2.2,2.9c4.6,0,10.8-10.3,13-22.4h2.6
			C100.7,10.4,96.2,0,85.2,0z M29.3,30.8c-3.5-1.5-3.8-5.6-2.7-11l3.8,5.9l1.4,6.1C31.9,31.9,30.5,31.3,29.3,30.8z M71.4,30.8
			c-1.2,0.5-2.5,1.1-2.5,1.1l1.4-6.1l3.8-5.9C75.2,25.2,74.8,29.3,71.4,30.8z"/>
	</g>
	<g id="g32" transform="matrix(1.25,0,0,1.25,358.00407,615.55862)">
		<path id="path34" class="st1" d="M6.1,6.5v6.6c0,0,6.7,0,8.9,0c5,0,6.8-2,6.8-4.7c0-1.8-0.9-4.7-6.8-4.7c-2.1,0-15.1,0-15.1,0V0
			c0,0,10.2,0,15.8,0c10,0,12.4,4.2,12.4,8.4c0,5-3.4,8.4-12.4,8.4c-5.5,0-15.7,0-15.7,0V6.5H6.1z"/>
	</g>
	<g id="g36" transform="matrix(1.25,0,0,1.25,274.47006,615.55862)">
		<path id="path38" class="st1" d="M6.1,6.5v6.6c0,0,6.7,0,9,0c5,0,6.8-2,6.8-4.7c0-1.8-0.9-4.7-6.8-4.7C13,3.7,0,3.7,0,3.7V0
			c0,0,10.2,0,15.8,0c10,0,12.4,4.2,12.4,8.4c0,5-3.4,8.4-12.4,8.4c-5.6,0-15.7,0-15.7,0V6.5H6.1z"/>
	</g>
	<g id="g40" transform="matrix(1.25,0,0,1.25,399.25369,615.55862)">
		<path id="path42" class="st1" d="M13.1,6.5v3.7h8.9v2.9c0,0-6.6,0-8.9,0c-5,0-6.9-2-6.9-4.7c0-3.1,2.5-4.7,6.6-4.7
			c2.1,0,15.3,0,15.3,0V0c0,0-10,0-15.5,0C4.6,0,0,2.5,0,8.4c0,5.8,4.5,8.4,12.4,8.4c5.6,0,15.8,0,15.8,0V6.5H13.1z"/>
	</g>
	<g id="g44" transform="matrix(1.25,0,0,1.25,443.21619,615.55862)">
		<path id="path46" class="st1" d="M6.5,3.7h19.2V0H0v16.8h25.9v-3.7H6.5v-2.9h18.1V6.5H6.5V3.7z"/>
	</g>
	<g id="g48" transform="matrix(1.25,0,0,1.25,315.63831,615.20612)">
		<path id="path50" class="st1" d="M14.3,17.4C4,17.4,0,14,0,8.7C0,3.4,4.1,0,14.3,0c10.2,0,14.3,3.4,14.3,8.7
			C28.7,14,24.6,17.4,14.3,17.4z M22.4,8.7c0-2.9-2.8-5-8.1-5c-5.3,0-8.1,2.1-8.1,5c0,2.7,2.5,5,8.1,5C20,13.7,22.4,11.4,22.4,8.7z"
			/>
	</g>
</g>
</svg>
