<?xml version="1.0" encoding="utf-8"?>
<!-- Generator: Adobe Illustrator 21.1.0, SVG Export Plug-In . SVG Version: 6.00 Build 0)  -->
<svg version="1.1"
	 id="svg2" inkscape:version="0.48.1 " sodipodi:docname="Logo della Scuderia Ferrari (vecchio).svg" xmlns:cc="http://creativecommons.org/ns#" xmlns:dc="http://purl.org/dc/elements/1.1/" xmlns:inkscape="http://www.inkscape.org/namespaces/inkscape" xmlns:rdf="http://www.w3.org/1999/02/22-rdf-syntax-ns#" xmlns:sodipodi="http://sodipodi.sourceforge.net/DTD/sodipodi-0.dtd" xmlns:svg="http://www.w3.org/2000/svg"
	 xmlns="http://www.w3.org/2000/svg" xmlns:xlink="http://www.w3.org/1999/xlink" x="0px" y="0px" viewBox="0 0 290 481"
	 style="enable-background:new 0 0 290 481;" xml:space="preserve">
<style type="text/css">
	.st0{fill:#FFFFFF;}
	.st1{fill:#0D8922;}
	.st2{fill:#ED1C24;}
	.st3{fill:#FFF200;}
	.st4{fill:#0A0A0A;}
</style>
<sodipodi:namedview  bordercolor="#666666" borderopacity="1" gridtolerance="10" guidetolerance="10" id="namedview30" inkscape:current-layer="svg2" inkscape:cx="200" inkscape:cy="270" inkscape:pageopacity="0" inkscape:pageshadow="2" inkscape:window-height="738" inkscape:window-maximized="1" inkscape:window-width="1280" inkscape:window-x="-8" inkscape:window-y="-8" inkscape:zoom="0.96111111" objecttolerance="10" pagecolor="#ffffff" showgrid="false">
	</sodipodi:namedview>
<g id="g3140" transform="matrix(4.0714283,0,0,4.0663351,-255.9992,-231.91698)">
	<g id="g120" transform="matrix(1.0848811,0,0,-1.0848811,133.49104,65.667336)">
		<path id="path122-4" inkscape:connector-curvature="0" class="st0" d="M0-10.9v-1.7l-32.3,5.7l-32.3-5.7v1.7l32.3,5.7L0-10.9z"/>
	</g>
	<g id="g124" transform="matrix(1.0848811,0,0,-1.0848811,133.49104,63.821194)">
		<path id="path126-0" inkscape:connector-curvature="0" class="st1" d="M0-10.9v-1.7l-32.3,5.7l-32.3-5.7v1.7l32.3,5.7L0-10.9z"/>
	</g>
	<g id="g128" transform="matrix(1.0848811,0,0,-1.0848811,133.49104,67.469974)">
		<path id="path130-9" inkscape:connector-curvature="0" class="st2" d="M0-10.9l-32.3,5.7l-32.3-5.7v-5.7l0.3,0.2
			c0.1,0.1,11.6,6.4,32,6.4c20.5,0,31.8-6.4,31.9-6.4L0-16.6L0-10.9z"/>
	</g>
	<g id="g132" transform="matrix(1.0848811,0,0,-1.0848811,98.559817,67.772439)">
		<path id="path134-4" inkscape:connector-curvature="0" class="st3" d="M0-10.9c18.5,0,29.3-5.2,31.1-6.1v-16.5
			c0-9-2.1-18-6.3-26.7c-9.2-19-22.9-26.4-24.8-27.4c-1.9,1-15.7,8.4-24.9,27.4c-4.2,8.7-6.3,17.7-6.3,26.7V-17
			C-29.4-16.1-18.5-10.9,0-10.9"/>
	</g>
	<g id="g136" transform="matrix(1.0848811,0,0,-1.0848811,98.559817,67.772439)">
		<path id="path138-8" inkscape:connector-curvature="0" class="st4" d="M0-10.9c18.5,0,29.3-5.2,31.1-6.1v-16.5
			c0-9-2.1-18-6.3-26.7c-9.2-19-22.9-26.4-24.8-27.4c-1.9,1-15.7,8.4-24.9,27.4c-4.2,8.7-6.3,17.7-6.3,26.7V-17
			C-29.4-16.1-18.5-10.9,0-10.9 M-32-16.2l-0.3-0.2v-17.2c0-9.2,2.2-18.3,6.4-27.1c10-20.7,25.5-28,25.6-28.1l0.2-0.1l0.2,0.1
			c0.2,0.1,15.6,7.3,25.6,28.1c4.3,8.8,6.4,18,6.4,27.1v17.2l-0.3,0.2C31.8-16.1,20.5-9.8,0-9.8C-20.5-9.8-31.9-16.1-32-16.2"/>
	</g>
	<g id="g140" transform="matrix(1.0848811,0,0,-1.0848811,89.942717,131.69993)">
		<path id="path142-8" inkscape:connector-curvature="0" class="st4" d="M0-10.9c-1.5,0.6-2.4,0.9-2.4,1.6c0,1.2,1.5,0.9,1.9,0.8
			c2-0.6,2.7-2.1,2.7-2.1S1.8-8.6,1.8-8.3C1.7-7.9,1.5-7.9,1.4-7.9C1.1-8,1.1-8.4,1.1-8.4s-4.9,2.1-4.9-1.2c0-1.5,1.6-1.8,2.3-2.1
			C0-12.4,1.8-12.9,2-14.1c0.1-1-0.8-2.2-2.8-2.2c-2,0-2.9,1.9-2.8,2.3c0.1,0.4,0.4,0.1,0.7,0.1c0.3,0,0.8,0.3,0.6,0.9
			C-2.5-12.4-4-12.4-4-14c0-2.2,2.2-2.9,3.2-2.9c1,0,2.9,0.3,3.4,2.4C3-12.4,2-11.7,0-10.9 M20.2-9.1c0.4,0.1,1.5,0,2.8,0.4
			c1.3,0.4,2.2,1.1,2.2,1.1S24-8.1,21.9-8.2c-1-0.1-1.7-0.2-2.8,0c-1,0.3-2.2,0.4-3.4,0.2c-1.2-0.2-1.8-0.9-1.9-1.8
			c-0.1-0.7,0.7-1.1,1.4-1c0.8,0.2,1,1.1,1,1.1s-0.5-0.4-1-0.5c-0.5-0.1-0.8,0.3-0.6,0.6c0.3,0.7,0.7,0.8,1.1,0.9
			c0.4,0.1,1,0.1,1.9,0c1-0.1,1.5-0.3,1.2-0.7c-0.3-0.6-0.6-0.6-1.1-1.8c-0.2-0.5-0.2-0.8-0.5-0.8c-0.2,0-0.6,0.1-1-0.2
			c-0.4-0.4-0.4-0.9-0.4-0.9s0.3,0.5,1.1,0.5c0.2,0,0.1-0.5-0.1-0.9c-0.2-0.4-1.1-2.9-3.1-2.9c-2.1,0-2.4,2.1-2.3,2.3
			c0.2,0.5,0.6,0,1,0.2c0.4,0.1,0.8,0.7,0.3,1.1c-1.2,0.9-2.4-1.2-1.1-3.1c1.2-1.8,3.2-1.1,4.2-0.6c1,0.5,1.6,1.6,1.9,2.3
			c0.3,0.7,0.6,1.5,0.6,1.5s0.7,0,1.1,0.2c0.6,0.2,0.8,0.8,0.8,0.8s-0.4-0.3-1.6-0.2c-0.1,0,0.2,0.7,0.5,1.4
			C19.5-9.8,19.9-9.2,20.2-9.1"/>
	</g>
	<g id="g144" transform="matrix(1.0848811,0,0,-1.0848811,97.048477,72.658635)">
		<path id="path146-2" inkscape:connector-curvature="0" class="st4" d="M0-10.9c0,0,0.4,0.2,0.4,0.2c0,0-0.1,0.4-0.1,0.4
			c0,0-0.9,1-0.9,1l0,0l0-0.1l-0.1-0.4c0,0-0.3-0.6-0.3-0.6l0,0l0.6-0.3C-0.4-10.7,0-10.9,0-10.9 M20.6-31.4
			C20.6-31.4,20.6-31.4,20.6-31.4c-0.1,0-0.1,0-0.1,0c0-0.3-0.4-0.9-0.6-1c-0.5-0.2-0.8-0.8-1-1.2c-0.1-0.2-0.2-0.4-0.3-0.4
			c0,0-0.1,0-0.1,0.1c-0.3,0.5-0.1,1.4,0,2.1l0,0.2c0.1,0.6,0.8,1.4,1.2,1.8l0.2,0.2c0.3,0.3,0.3,1.5,0.3,1.6c0,0,0,0,0,0
			c0,0,0,0,0,0c0,0,0,0,0,0v0c0,0,0,0,0-0.1c-0.1-0.4-0.7-1.1-1.8-2c-0.2-0.2-0.5-0.6-0.7-0.8c-0.1-0.2-0.3-0.4-0.3-0.4
			c-0.3,1.5,0.2,2.3,0.5,2.7l0.1,0.2c0.5,1.3,1.7,2.3,1.7,2.3c0,0,0,0.1,0,0.1c0,0-0.1,0-0.3,0l-0.1,0c-0.4-0.2-1.7-0.8-2.5-2.3
			c-0.6-1.1-0.8-2.3-0.8-3.2c0-0.5,0.1-0.9,0.2-1.1c0.3-0.7,0.8-2.6,0.9-3.3c0.1-0.4,0.1-2,0.1-2.9c0-0.5,0-0.8,0-0.8
			c0,0-0.2-0.8-0.2-0.8c0,0-0.1-0.6-1.1-1.6c-1-1-2.1-1.3-2.1-1.3c-0.4,0-0.9,0-0.9,0c0,1.2-2,3.9-3,4.8c-1,0.9-1.9,1.6-3.3,2.4
			C5-35.7,3.4-32,3.3-32c0,0-0.1,0.5-0.1,0.5s-0.1,1-0.1,1.2c0.1,0,0.1-0.1,0.1-0.1l0.5-0.3c0,0,0.6-0.2,0.6-0.2C4.3-30.8,5-31,5-31
			l0.4-0.2c0,0,0.4-0.2,0.4-0.2l0.6-0.4c0,0,0.6-0.3,0.6-0.3c0,0,0.7,0,0.7,0l0,0.1l-0.8,0.4c0,0-0.3,0.5-0.3,0.5l-0.3,0.5
			c0,0-0.4,0.3-0.4,0.3c0,0-0.5,0.1-0.5,0.1c0,0-0.1,0.1-0.2,0.1c0,0,0.1,0.1,0.1,0.1c0,0,0.6-0.1,0.6-0.1c0,0,0.5-0.4,0.5-0.4
			L6.9-31c0,0,0.5-0.2,0.5-0.2l0.1,0l-0.2,0.6c0,0-0.4,0.4-0.4,0.4l-0.6,0.5c0,0-0.5,0.3-0.5,0.3c0,0-0.5,0.2-0.5,0.2l-0.6,0.4
			c0,0,0,0,0,0.1c0.1,0,0.8-0.3,0.8-0.3c0,0,0.7-0.2,0.7-0.2c0,0,0.6-0.2,0.6-0.2c0,0,0.8-0.4,0.8-0.4c0,0,0.7-0.1,0.7-0.1
			c0,0,0.8,0.1,0.8,0.1c0,0,0.8,0.5,0.8,0.5c0,0,0.2,0.3,0.2,0.3l0,0.1l-0.2-0.1c0,0-0.7-0.4-0.7-0.4l-0.5-0.1c0,0-0.5,0.1-0.5,0.1
			h0c0,0-0.4,0.4-0.4,0.4l-0.6,0.6c0,0-0.6,0.3-0.6,0.3c0,0-0.7,0.1-0.7,0.1c0,0-0.4,0.2-0.4,0.2c0,0,0,0,0,0c0,0,0,0.2,0,0.2
			c0.1,0,0.8-0.1,0.8-0.1c0,0,0.9,0.1,0.9,0.1c0,0,0.5-0.1,0.5-0.1c0,0,0.5-0.2,0.5-0.2c0,0,0.5-0.1,0.5-0.1l0.1,0L8-27.4
			c0,0-0.6,0.4-0.6,0.4c0,0-0.5,0.2-0.5,0.2c0,0-0.8,0.1-0.8,0.1c0,0,0,0,0,0c0,0,0,0.1,0,0.2c0.1,0,0.4,0.1,0.4,0.1
			c0,0,0.6-0.1,0.6-0.1c0,0,0.6-0.4,0.6-0.4c0,0,0.6-0.2,0.6-0.2c0,0,0.9,0.1,0.9,0.1l0.1,0L9-26.7c0,0-0.5,0.2-0.5,0.2
			c0,0-0.4,0.3-0.4,0.3l-0.6,0.4c0,0-0.4,0.1-0.4,0.1c0,0-0.7,0.1-0.7,0.1c0,0-0.3,0.3-0.3,0.3c0,0,0,0.1,0,0.2
			c0.1,0,0.3-0.1,0.3-0.1L7-25.5c0,0,0.6-0.2,0.6-0.2l-0.1,0.3c0,0-0.2,0.3-0.2,0.3S7.1-24.9,7-24.8c0,0,0.1,0,0.1,0
			c0,0,0.7-0.4,0.7-0.4c0,0,0.5-0.2,0.5-0.2l0.4-0.4c0,0,0.8-0.4,0.8-0.4l0.1,0l-0.1,0.4c0,0-0.4,0.5-0.4,0.5l-0.3,0.6
			c0,0-0.6,0.6-0.6,0.6c0,0-0.8,0.4-0.8,0.4c0,0-0.3,0.3-0.3,0.3s-0.6,0.6-0.6,0.6c0,0-0.1,0.2-0.1,0.3c0.1,0,0.5-0.2,0.5-0.2
			l0.6-0.2c0,0,0.4-0.3,0.4-0.3c0,0,0.4-0.5,0.4-0.5c0,0,0.6-0.3,0.6-0.3c0,0,1.5-0.2,1.5-0.2l0.1,0l-0.4,0.4c0,0-0.8,0.4-0.8,0.4
			l-0.5,0.4c0,0-0.3,0.5-0.3,0.5l-0.3,0.5c0,0-0.5,0.4-0.5,0.4c0,0-0.6,0.3-0.6,0.3l-0.6,0.5c0,0-0.1,0.3-0.2,0.5
			c0.1-0.1,0.4-0.4,0.4-0.4l0.7-0.6c0,0,0.6-0.3,0.6-0.3l0.5-0.4l0.6-0.6c0,0,0.9-0.1,0.9-0.1l0.1,0l-0.9,0.8c0,0-0.2,0.6-0.2,0.6
			c0,0-0.5,0.4-0.5,0.4l-0.2,0.3c0,0-0.2,0.7-0.2,0.7c0,0-0.5,0.5-0.5,0.5c0,0-0.8,0.7-0.8,0.8v0c0,0,0,0.1,0,0.2
			c0.1,0,0.1-0.1,0.1-0.1l0.7-0.4c0,0,0.9-0.3,0.9-0.3l0.9-0.2c0,0,1.1-0.2,1.1-0.2l-0.2,0.5c0,0-0.5,0.2-0.5,0.2
			c0,0-0.5,0.3-0.5,0.3c0,0-0.6,0.3-0.6,0.3l-0.5,0.2c0,0-0.3,0.4-0.5,0.7C7.8-17.3,8-17.5,8-17.5c0,0,0.5,0,0.5,0h1.4
			c0,0,0.6-0.3,0.6-0.3c0,0,0.5-0.5,0.5-0.5l0.1-0.1L11-17.8c0,0-0.3,0.4-0.3,0.4c0,0-0.8,0.5-0.8,0.5c0,0-0.7,0.3-0.7,0.3
			c0,0-1,0.2-1,0.2v0c0,0-0.2,0.2-0.2,0.2c0,0-0.7,0.7-0.7,0.7c0,0-0.4,0.2-0.4,0.2c0,0-0.1,0.1-0.2,0.2h0.4c0,0,0.6-0.4,0.6-0.4
			c0,0,0.8-0.3,0.8-0.3c0,0,1-0.1,1-0.1c0,0,0.4-0.4,0.4-0.4c0,0,0.5-0.3,0.5-0.3c0,0,0.6-0.1,0.6-0.1l0.1,0l-1.2,1.5
			c0,0-0.6,0.3-0.6,0.3c0,0-0.7,0.2-0.7,0.2c0,0-0.6,0.7-0.6,0.7c0,0-0.8,0.5-0.8,0.5c0,0-0.5,0.1-0.6,0.1c0,0.1,0.1,0.2,0.1,0.2
			c0,0,0.6,0.3,0.6,0.3c0,0,0.9,0.2,0.9,0.2c0,0,0.1,0.2,0.1,0.2c0,0-0.4,0.3-0.4,0.3c0,0-0.5,0.1-0.5,0.1c0,0-0.3-0.1-0.3-0.1
			c0,0-0.8,0-0.8,0s-0.9,0.2-0.9,0.2c0,0-0.9,0.8-0.9,0.8c0,0-0.4,0.2-0.4,0.2c0,0-1.5,0.2-1.5,0.2c0,0-0.4,0.6-0.4,0.6
			c0,0-0.5,0.5-0.5,0.5c0,0-0.6,0.6-0.6,0.6l0,0L0.9-9.7c0,0-0.2-0.3-0.2-0.3v0c0-0.1,0-0.4,0-0.4c0,0,0.2-0.2,0.2-0.2
			c0,0-0.1-0.3-0.1-0.3c0,0-0.8,0-0.8,0c0,0-0.7,0.3-0.7,0.3c0,0-0.5,0.2-0.5,0.2c0,0-1.2,0-1.2,0c0,0-0.2-0.3-0.2-0.3l0,0l0.5-0.1
			c0,0,0.1-0.1,0.1-0.1c0,0-0.1-0.1-0.1-0.1c0,0-0.8,0-0.8,0c0,0-0.5-0.2-0.5-0.2l-0.1,0l0.3-0.2c0,0,1.1,0,1.1,0
			c0,0,0.8-0.2,0.8-0.2c0,0,0.2-0.2,0.2-0.2S-1-12.2-1-12.3c-0.1,0-0.4-0.2-0.4-0.2c0,0-1-0.4-1-0.4c0,0-2.1-1.2-2.1-1.2
			c0,0-1.4-0.2-1.4-0.2c0,0-0.5-0.3-0.5-0.3c0,0-0.4-0.6-0.4-0.6c0,0-0.2-0.7-0.2-0.7c0-1.2,0-1.3,0.1-1.3c0,0,0.4-0.2,0.7-0.1
			c0.3,0.2,1,0.3,1.3,0.4c0.2,0,0.3,0,0.3-0.1c0-0.1,0-0.2-0.2-0.2l-0.1,0c-0.6-0.2-1.2-0.4-1.2-0.6l0.1-0.2c0.3-0.2,1-0.1,1.4,0
			l0.4,0.1c0.3,0.1,0.7,0.2,1.1,0.2c0.2,0,0.4-0.1,0.6-0.2c0.3-0.1,0.6-0.3,1-0.3c0.8-0.1,1.3-0.2,1.3-0.2c0.1-0.2,0-0.5,0-0.8
			l0-0.2c-0.2-1.9-2.4-4.1-3.4-5.2c-0.3-0.3-0.5-0.5-0.5-0.5l-0.1-0.3C-4.5-25.6-4.6-25.9-5-26c-0.2-0.1-0.6-0.4-1.1-0.8
			C-6.8-27.3-7.8-28-8-28c-0.4,0-2.4,1.4-2.5,1.5c-1.9,1.9-2.7,1.5-3.2,1.3l-0.1,0c-0.6-0.3-1.2-1.9-1.2-2.2l-0.2-1l-0.2-0.7
			c-0.1-0.2-0.3-0.9-0.5-1.5l-0.5-1.3c-0.1-0.3-0.3-0.7-0.4-1.1l-0.2-0.5c-0.1-0.6-0.1-3.8,0.1-4.1l0,0l0,0c0.2,0,0.8,0.6,1,0.8
			l0.1,0.1c0.2,0.2,0.5,0.8,0.5,1.1c0,0.2-0.1,0.7-0.2,0.9c-0.4,1.1-0.2,2.1-0.2,2.6l0,0.2c0,0.2,0.2,0.5,0.5,0.7l0.3,0.3
			c0.2,0.2,0.3,0.3,0.5,0.3l0.2,0.1l0,0c0.2,0.2,0.4,0.4,0.6,0.8l0.2,1l0.1,0.3c0,0.1,0,0.1,0.1,0.1c0.1,0,0.2-0.1,0.3-0.1l1.7-2
			c0.4-0.4,0.9-0.8,0.9-0.9v0l0,0c-0.2,0-1.4,0.2-1.6,0.3c-1.6,0.5-2.4,0.4-3-0.3c-0.7-0.8-0.4-3.4-0.3-3.6c0.1-0.3,0.7-3.3,0.8-3.7
			c0-0.4,0.2-1.1,0.3-1.3l0,0c0.2-0.2,0.7-0.7,0.8-1.3c0.1-0.6,1.3-2.1,1.8-2.2c0.1,0,0.1,0,0.2,0c0.4,0.3,0.5,1.5,0.5,2
			c0,0.6-0.2,1-0.5,1.3l-0.1,0.1c-0.2,0.2-0.5,0.3-0.7,0.4c-0.1,0-0.2,0.1-0.2,0.1c0,0,0,1-0.3,1.1c-0.2,0.1-0.5,1.1-0.5,1.4
			c0,0.3-0.2,1.2-0.3,1.5c-0.2,0.4-0.3,1-0.3,1.6c0,0.2,0.2,0.3,0.3,0.3c0.2,0,0.5-0.1,0.5-0.1c0.1-0.2,1.8-1.2,2.4-1.4
			c0.4-0.1,0.9-0.6,1.3-0.9c0.3-0.3,0.6-0.5,0.7-0.6c0.2-0.1,0.9-0.1,1.4-0.1c0.3,0,0.5,0,0.6,0c-0.2-0.1-0.2-0.4-0.2-0.6
			c0.2-1.5,5.6-5.6,6.1-5.8c0.5-0.3,2.2-2.1,2.4-2.3c0.2-0.2,0.3-0.5,0.3-0.7c0-0.3,0.1-0.6,0.3-0.9c0.2-0.3,0.5-0.4,0.8-0.4
			c0.2,0,0.4,0.2,0.5,0.4l0,0c0.3,0.4,0.8,1.1,0.9,2c0.1,1,0.5,1.4,0.7,1.4c0.1,0,0.1,0,0.1-0.1c0,0,0-0.1-0.1-0.2
			c-0.2-0.1-0.3-0.6-0.5-1.1c0,0-0.1-0.5-0.1-0.5c0-0.4,0-0.8-0.4-1.2c-0.5-0.6-1.2-1.9-1.3-3.6c-0.1-1,0.4-2.5,1.4-4.4l0.1-0.1
			l0.3-0.5c0.3-0.4,0.7-1.2,0.7-1.3c0-0.2-0.1-0.4-0.5-1c-0.5-0.6-2.1-2.5-2.3-2.6c-0.3,0-0.4,0-0.7-0.2l-0.3-0.2
			c-0.3-0.2-0.4-0.4-0.4-0.5c0-0.1-0.1-0.2-0.2-0.3l-0.1-0.1c0,0-0.1-0.1-0.8-0.8c-0.8-0.8-1.1-1.6-1-2.5c0-0.3,0.3-0.4,1-0.4
			c0.7,0,2.3,1.1,2.3,1.4l0,0.1c0.1,0.3,0.2,0.9,0.3,0.9c0.2,0.1,0.6,0.5,0.9,0.8l0.1,0.1c0.1,0.2,0.2,0.3,0.2,0.5
			c0,0.1,0.1,0.2,0.1,0.4c0.1,0.1,0.2,0.1,0.3,0.2c0.2,0.1,0.5,0.2,0.7,0.7c0.2,0.5,1.3,1.3,2.1,1.9c0.4,0.3,0.7,0.5,0.8,0.6
			c0.1,0.1,0.2,0.4,0.2,0.7c0,0.3-0.1,0.7-0.3,0.9c-0.3,0.3-0.6,1.1-0.7,1.4v0c0,0.1,0,0.3,0,0.7c0,0,0,0,0,0.1c0,1,1.5,2,2.1,2.4
			l0.3,0.2c2.3,2.1,2.8,3.6,2.9,4.1l0,0.5c0,0.4,0,0.7,0.2,0.7c0.1,0,0.2-0.1,0.3-0.2c0.1-0.1,0.1-0.2,0.1-0.3
			c-0.1-0.3-0.1-3.2-0.1-3.3c0,0,0.3-0.3,0.3-0.3l0-0.1l0,0.1c0,0,0.1,0.8,0.1,1.1c0,0.3,0.5,1.7,0.6,1.7c0,0,0,0,0,0
			c0.1-0.2,0.1-0.6,0.1-1.1c0-0.5-0.1-1-0.3-1.3c-0.4-0.4-0.6-1.1-0.8-1.6l-0.2-0.4c0,0,0-0.1,0-0.2c0-0.4,0.2-1.2,0.3-1.3
			c0,0,0.1,0,0.1,0c0,0,0.1,0.1,0.1,0.4c0,1.2,1,2,1,2c0.9,0.7,1.1,2,1.1,3c0,0.7-0.1,1.3-0.1,1.3c0,0-0.4,0.6-0.4,0.6
			c0,0,0.1,0.1,0.2,0.1c0,0,0.4-0.6,0.4-0.6c0.1-0.1,0.2-0.4,0.2-0.5c0-0.6,0.1-1,0.2-1.3l0-0.1c0.1-0.3,0.5-1.4,0.5-1.4l0-0.1
			l0,0.1c0,0,0.1,0.5,0,1c0,0.3,0,0.6,0.1,0.9l0.1,0.8c0,0.6-0.1,1-0.3,1.4l-0.1,0.2c0,0.1-0.1,0.1-0.1,0.2l0.1,0
			c1.8,0.6,2.7,2,3.1,2.7c0.4,0.8,0.4,2,0.4,2.3c0,0.3,0,1.9-0.3,2.7c-0.2,0.5-0.1,1-0.1,1.6l0.1,1c0,0.7,0.3,1.1,0.7,1.6l0.4,0.6
			C20.9-32,20.7-31.5,20.6-31.4 M1.7-55.2l0.8-0.4c0.5-0.2,0.8-0.1,0.9-0.1c0.1,0,0.5,0.5,0.6,0.9c0,0.2,0,0.3-0.1,0.4
			c-0.3,0.4-0.9,2.1-1.1,3c-0.1,0.3,0,1.3,0.1,2.1C3-48.6,3-48.2,3-48.1c-0.1,0.2-0.3,0.3-0.6,0.5L2-47.3c-0.2,0.2-0.2,0.5-0.3,0.7
			l0,0.4c-0.1,0.4-2.2,2.5-2.5,2.5c-0.5,0-0.6-0.5-0.6-0.8c0-0.2,0.2-1,0.4-1.7l0.2-0.9c0.2-1.3,1.6-3.7,2.3-4.7l0.3-0.5
			c0.1-0.3,0.1-0.5-0.1-0.6c-0.2-0.1-2.1,0.1-3,0.3c-0.4,0.1-0.9,0.3-1.3,0.5c-0.5,0.2-1,0.4-1.3,0.4c-0.3,0-0.5,0-0.6-0.1l-0.2-0.1
			L-5-51.7c-0.2,0.1-0.7,0.3-2,0.4c-1.8,0.2-2-0.2-2-0.4c-0.1-0.3,1-1.4,1.2-1.6c0.3-0.2,1.1-0.5,1.6-0.4c0.6,0.1,1.5,0.2,1.6,0.2
			l0.2-0.1l0.2-0.1c0.2-0.1,1.2-0.1,1.5-0.1c0.4,0,1.3-0.2,2-0.4L0-54.4C0.3-54.5,1.1-54.9,1.7-55.2"/>
	</g>
	<g id="g148" transform="matrix(1.0848811,0,0,-1.0848811,97.452157,118.97481)">
		<path id="path150" inkscape:connector-curvature="0" class="st0" d="M0-10.9L0-10.9c0.1,0.2-0.9,0.6-1.5,0.7C-2.1-10-2.9-9.9-3-10
			l0,0l0,0c0-0.2,1-0.5,1.5-0.7C-0.9-10.9-0.2-11,0-10.9L0-10.9z M-4.3-9.5c-0.2,0-0.3-0.1-0.3-0.2c0-0.1,0.1-0.2,0.3-0.2
			C-4.1-9.9-4-9.8-4-9.7C-4-9.5-4.1-9.5-4.3-9.5 M-7.8-9.2c-0.2,0-0.4-0.1-0.4-0.3c0-0.2,0.2-0.3,0.4-0.3c0.2,0,0.4,0.1,0.4,0.3
			C-7.3-9.3-7.5-9.2-7.8-9.2 M0.5-20.7c-0.1,0-0.3-0.1-0.4-0.3c-0.2-0.2-0.3-0.3-0.3-0.5c0,0,0-0.1,0-0.1l0.1,0
			c0.1,0,0.3,0.1,0.4,0.3c0.2,0.2,0.3,0.5,0.2,0.6C0.6-20.7,0.5-20.7,0.5-20.7z M2.1-18.4c-0.1,0-0.3-0.1-0.4-0.2
			c-0.2-0.2-0.3-0.4-0.2-0.5l0.1,0c0.1,0,0.3,0.1,0.4,0.2C2.1-18.7,2.2-18.5,2.1-18.4C2.2-18.4,2.1-18.4,2.1-18.4z M5.7-15.1
			L5.7-15.1c-0.2,0-0.8-0.6-1.4-1.1c0,0-1.2-1.3-1.1-1.4l0,0l0,0c0.2,0,0.8,0.6,1.4,1.1C4.6-16.5,5.8-15.2,5.7-15.1L5.7-15.1z
			 M2.1-10.3c-0.2,0-0.3-0.1-0.3-0.3c0-0.1,0.1-0.3,0.3-0.3c0.2,0,0.3,0.1,0.3,0.3C2.3-10.4,2.2-10.3,2.1-10.3 M7-14.2
			c-0.2,0-0.3-0.1-0.3-0.3c0-0.2,0.1-0.3,0.3-0.3c0.2,0,0.3,0.1,0.3,0.3C7.3-14.4,7.2-14.2,7-14.2 M4.9-11.9L4.9-11.9
			c0,0.1,0.2,1.4-0.2,1.8C4.6-10,4.5-9.9,4.4-9.9c-0.1,0-0.2,0-0.2-0.1C3.9-10.4,4.8-11.8,4.9-11.9L4.9-11.9z M3.6-7.5
			C3.6-7.5,3.6-7.6,3.6-7.5l0.1-0.1l0,0.1L4-6.7l0.2,0.6l0.2,0.4c0.1,0.1,0.1,0.2,0,0.3c-0.1,0.1-0.3,0-0.3,0c0,0-0.5-0.9-0.5-0.9
			C3.5-6.4,3.4-6.6,3.4-6.8C3.4-7.1,3.5-7.4,3.6-7.5 M-12.1,0.7c-0.2,0-0.3-0.1-0.3-0.3s0.1-0.3,0.3-0.3c0.2,0,0.3,0.1,0.3,0.3
			S-11.9,0.7-12.1,0.7 M-16.8,6.7c-0.2,0-0.3-0.1-0.3-0.3c0-0.1,0.1-0.2,0.3-0.2c0.1,0,0.3,0.1,0.3,0.2C-16.5,6.6-16.6,6.7-16.8,6.7
			 M-14.9,7.8L-14.9,7.8L-14.9,7.8c-0.3,0-0.1-0.8,0-1.3c0.1-0.6,0.3-1.1,0.5-1.2l0,0l0.1,0c0.2,0,0.1,0.9,0,1.3
			C-14.6,7.2-14.7,7.7-14.9,7.8 M-14.7,10.7c0.1,0.2,0.2,0.4,0.1,0.5l-0.1,0c-0.1,0-0.2-0.1-0.3-0.2c-0.1-0.2-0.2-0.4-0.1-0.5l0.1,0
			C-14.9,10.5-14.8,10.5-14.7,10.7 M-15.1,13.3c0.1,0.1,0.4,0.5,0.5,0.9c0.2,0.5,0.3,1.1,0.1,1.1l-0.1,0c-0.1-0.1-0.4-0.5-0.5-0.9
			C-15.2,13.9-15.3,13.4-15.1,13.3C-15.2,13.3-15.1,13.3-15.1,13.3z M-13.5,16.8c-0.3,0-0.5-0.1-0.5-0.3c0-0.2,0.2-0.3,0.5-0.3
			c0.3,0,0.5,0.1,0.5,0.3C-13,16.7-13.2,16.8-13.5,16.8 M-8.6,13.6c-0.2-0.1-0.5-0.6-0.8-1.3c-0.2-0.5-0.3-1-0.3-1.3
			c0-0.1,0-0.2,0.1-0.3l0.1,0c0.2,0.1,0.5,0.6,0.8,1.3c0.2,0.5,0.3,1,0.3,1.3c0,0.1,0,0.2-0.1,0.3L-8.6,13.6z M-11.2,13.2
			L-11.2,13.2c0.2,0.1,0,0.4-0.3,0.7c-0.2,0.2-0.5,0.4-0.6,0.4l-0.1,0c0,0,0,0,0-0.1c0-0.1,0.2-0.4,0.4-0.6
			C-11.6,13.4-11.4,13.2-11.2,13.2 M-11,8.8c-0.5,0.3-1.5,0.5-1.5,0.5l0-0.1l1-0.8c0.2-0.1,0.9-0.6,1.2-0.4c0,0,0,0.1,0,0.1
			C-10.3,8.3-10.5,8.5-11,8.8 M-0.5,0.2c0,0-2.7,2.9-3.3,3.7c-0.6,0.8-0.9,0.8-1.2,0.7C-5,4.5-5,4.5-5,4.5c0-0.3,0.6-1.1,1.2-1.6
			C-3,2-0.6,0.2-0.5,0.2C-0.5,0.1-0.5,0.2-0.5,0.2z M10.9-2.6L10.9-2.6L10.9-2.6c0,0-0.2-0.1-0.3-0.3c0-0.1,0-0.2,0.1-0.3l0.1-0.1
			l0-0.2l0-0.3c0-0.1,0.1-0.1,0.2-0.1c0.1,0,0.2,0.1,0.2,0.2c0,0.2,0.1,0.4,0.1,0.8C11.3-2.8,10.9-2.6,10.9-2.6 M3.6,1.4
			c0,0,0.1-0.1,0.2,0c0.1,0,0.2,0.1,0.2,0.3c0,0.2,0.1,0.4,0.3,0.6c0.2,0.2,0.2,0.5,0,0.7L4,3C3.8,3,3.7,2.9,3.7,2.9
			c0,0-0.2-1.1-0.2-1.1v0C3.5,1.7,3.5,1.5,3.6,1.4 M17.7,5.8L17.7,5.8c-0.1,0,0-0.5,0-1.1c0-0.9,0-2-0.2-2.6
			c-0.1-0.4-0.7-1.2-1.1-1.9l-0.5-0.8c0,0,0-0.1,0-0.1c0-0.1,0-0.2,0.1-0.2c0.1,0,0.2-0.1,0.5,0.2l0.3,0.4c0.5,0.5,1,1,1.4,2.2
			C18.6,3.3,17.7,5.8,17.7,5.8 M4,6.5c0.4-0.2,0.6-0.3,0.6-0.3c0,0,0,0,0,0s0,0,0,0c0,0,0,0,0,0c0,0,0,0,0,0c0,0,0,0,0,0s0,0,0,0
			c-0.3,0.4-2,2.7-2.3,4.3C2.2,10.8,2.2,11,2,11.1c-0.1,0.1-0.2,0.1-0.4,0c0,0-0.1,0-0.1-0.1c0,0,0-0.1,0-0.1c0-0.6,0.6-2.1,0.8-2.4
			C3.4,6.8,3.9,6.5,4,6.5 M0,12.9C0,13,0.1,13.1,0.1,13.2c0,0.5-0.2,0.6-0.5,0.6c-0.3,0-0.5-0.3-0.5-0.5c0-0.1,0.1-0.3,0.3-0.4
			C-0.5,12.9-0.2,12.8,0,12.9 M-4.8,15.4l0.4,0.1c0.3,0.1,0.8,0.2,1.4,0.2c0.4,0,0.9-0.1,1.2-0.2c0.3-0.1,0.5-0.1,0.5-0.1
			c0,0,0,0.1,0,0.1c-0.1,0.2-0.5,0.8-1.8,0.9c-0.9,0-1.5-0.6-1.7-0.8C-4.9,15.5-4.9,15.4-4.8,15.4L-4.8,15.4
			C-4.9,15.4-4.8,15.4-4.8,15.4z M2.8,14.9C2.9,14.9,3,15,3,15.1c0,0.1-0.1,0.2-0.3,0.2c-0.1,0-0.3-0.1-0.3-0.2
			C2.5,15,2.6,14.9,2.8,14.9 M3,15.4c0.1,0,0.3,0.1,0.3,0.2S3.2,15.8,3,15.8c-0.2,0-0.3-0.1-0.3-0.2C2.8,15.5,2.9,15.4,3,15.4
			 M3.3,16c0.2,0,0.3,0.1,0.3,0.2c0,0.1-0.1,0.2-0.3,0.2c-0.2,0-0.3-0.1-0.3-0.2C3,16.1,3.1,16,3.3,16 M3.5,17.3
			c-0.2,0-0.3-0.1-0.3-0.3c0-0.1,0.1-0.3,0.3-0.3c0.2,0,0.3,0.1,0.3,0.3C3.8,17.1,3.7,17.3,3.5,17.3 M4,17.8C4,17.9,3.9,18,3.7,18
			c-0.2,0-0.3-0.1-0.3-0.3c0-0.1,0.1-0.3,0.3-0.3C3.9,17.5,4,17.6,4,17.8 M4.3,18.6c0,0.2-0.2,0.3-0.4,0.3c-0.2,0-0.4-0.1-0.4-0.3
			s0.2-0.3,0.4-0.3C4.2,18.3,4.3,18.4,4.3,18.6 M4.5,19.5c0,0.1-0.2,0.3-0.3,0.3c-0.2,0-0.3-0.1-0.3-0.3c0-0.1,0.2-0.3,0.3-0.3
			C4.3,19.2,4.5,19.3,4.5,19.5 M4.8,20.2c0,0.2-0.2,0.3-0.5,0.3c-0.3,0-0.5-0.1-0.5-0.3c0-0.1,0.2-0.3,0.5-0.3
			C4.6,19.9,4.8,20,4.8,20.2 M4.1,21c0-0.1,0.2-0.3,0.4-0.3c0.2,0,0.4,0.1,0.4,0.3c0,0.1-0.2,0.3-0.4,0.3C4.3,21.2,4.1,21.1,4.1,21
			 M4.1,21.4c0.1-0.1,0.2-0.1,0.4-0.1c0.2,0,0.4,0.2,0.4,0.3l-0.1,0.1c-0.1,0.1-0.2,0.1-0.4,0.1c-0.2,0-0.4-0.2-0.4-0.3L4.1,21.4
			L4.1,21.4z M4.5,22.2c0.2,0,0.4,0.1,0.3,0.3l-0.1,0.1c-0.1,0.1-0.2,0.1-0.3,0.1c-0.2,0-0.3-0.1-0.3-0.2v0l0.1-0.1
			C4.2,22.2,4.4,22.2,4.5,22.2 M4.6,23.5c-0.2,0-0.3-0.1-0.3-0.2c0-0.1,0.1-0.2,0.3-0.2c0.2,0,0.3,0.1,0.3,0.2
			C4.9,23.4,4.8,23.5,4.6,23.5 M4.6,24.2c-0.2,0-0.3-0.1-0.3-0.2c0-0.1,0.1-0.2,0.3-0.2c0.2,0,0.3,0.1,0.3,0.2
			C4.9,24.1,4.7,24.2,4.6,24.2 M4.6,24.8c-0.1,0-0.3-0.1-0.3-0.2c0-0.1,0.1-0.2,0.3-0.2c0.1,0,0.3,0.1,0.3,0.2
			C4.9,24.7,4.7,24.8,4.6,24.8 M4.4,25.3c0-0.1,0.1-0.2,0.2-0.2c0.1,0,0.2,0.1,0.2,0.2c0,0.1-0.1,0.2-0.2,0.2
			C4.5,25.5,4.4,25.4,4.4,25.3 M4.5,26.2c-0.1,0-0.2-0.1-0.2-0.2c0-0.1,0.1-0.2,0.2-0.2s0.2,0.1,0.2,0.2C4.7,26.1,4.6,26.2,4.5,26.2
			 M0.6,22.5l-0.1,0c-0.3-0.1-0.8-0.9-1.1-1.5l-0.1-0.1l-1-1.9L-2,18.3c0-0.1,0-0.1,0-0.2c0.1,0,0.1-0.1,0.2,0
			c0.2,0.1,0.8,0.7,1.1,1.2l0.4,0.5C0,20.2,0.3,20.6,0.4,21l0.1,0.1C0.9,22.2,1,22.3,0.6,22.5 M2,25.2c-0.1,0.1-0.1,0.1-0.2,0.1
			l-0.2-0.1c-0.1-0.1-0.3-0.2-0.4-0.3c-0.3-0.1-0.8-0.2-0.8-0.5v0c0-0.1,0-0.1,0.1-0.1c0.1-0.1,0.4,0,0.7,0c0.3,0.1,0.6,0.3,0.8,0.5
			C2,24.9,2,25.1,2,25.2 M0.3,25.1c0-0.1,0.1-0.2,0.1-0.2c0.1,0,0.2,0,0.3,0.1l0.3,0.2c0.1,0.1,0.3,0.2,0.4,0.4
			c0.1,0.2,0.1,0.3,0,0.3C1.3,26,1.1,26,1,26l-0.1,0c-0.2-0.1-0.6-0.4-0.7-0.7C0.3,25.2,0.3,25.1,0.3,25.1 M-1.1,25.8l-0.4-0.3l0,0
			c0,0-0.1-0.1,0-0.2l0-0.1l0.1,0l0.1,0l0.2,0c0.2,0,0.4,0.1,0.5,0.2l0.1,0.2l0.2,0.3c0.1,0.1,0.1,0.2,0.1,0.2c0,0,0,0.1-0.1,0.1
			c-0.1,0-0.1,0-0.2-0.1C-0.4,26.2-0.8,26-1.1,25.8 M-4.4,25.8c0.1,0,0.2,0.1,0.2,0.2c0,0.1-0.1,0.2-0.2,0.2c-0.1,0-0.2-0.1-0.2-0.2
			C-4.6,25.9-4.5,25.8-4.4,25.8 M-5.5,27.3c-0.1,0,0-0.2,0-0.2l0-0.1l0,0c0,0,0-0.1,0-0.1c0,0,0.1,0,0.2,0c0.1,0,0.1,0,0.2,0.1
			l0,0.1c0,0.1,0,0.1,0,0.2C-5.2,27.3-5.3,27.3-5.5,27.3C-5.4,27.3-5.4,27.3-5.5,27.3 M-6.3,27.4c-0.2,0-0.3-0.1-0.3-0.2l-0.1-0.1
			c-0.1-0.1-0.2-0.4-0.2-0.6c0-0.1,0-0.2,0.1-0.3c0.2-0.1,0.2,0,0.4,0.1c0,0,0.1,0.1,0.1,0.1c0.2,0.1,0.4,0.3,0.4,0.5
			c0,0.1,0,0.2-0.1,0.3C-6,27.4-6.2,27.4-6.3,27.4 M-3.9,28L-3.9,28l0.7,0.3l0.9,0.6c0,0,0.2,0.2,0.2,0.3c0,0.1-0.1,0.1-0.2,0
			c-0.2,0-0.5-0.2-0.7-0.3l-0.3-0.2l-0.2-0.1c-0.5-0.2-1-0.4-0.9-0.6C-4.5,27.9-4.3,27.9-3.9,28 M-0.5,27.7c0.1,0,0.2,0,0.2,0.1
			c0.1,0.2,0.1,0.5,0,0.7C-0.4,28.8-0.7,29-0.9,29l0,0l0,0l-0.4,0c-0.2,0-0.4-0.2-0.5-0.4c0-0.1,0-0.2,0-0.2
			C-1.4,28-0.9,27.7-0.5,27.7 M3.9,28.1c0,0.1,0.1,0.2,0,0.2c0,0-0.1,0-0.2,0c-0.4-0.2-0.5-0.6-0.5-0.9l0-0.1c0-0.1,0-0.2,0.1-0.2
			c0.1-0.1,0.4,0.1,0.5,0.2c0.1,0.1,0.4,0.2,0.7,0.3l0.1,0c0.1,0,0.2,0.1,0.2,0.1c0,0.1-0.1,0.2-0.2,0.2c-0.1,0-0.2,0-0.3,0
			c-0.1,0-0.2-0.1-0.3,0C3.9,27.9,3.9,28,3.9,28.1 M3.4,30.1c-0.1-0.1-0.1-0.1-0.1-0.2l0-0.1c0-0.1,0-0.1,0.1-0.1l0.1,0
			c0.2,0,0.4,0.1,0.5,0.2c0,0,0,0.1-0.1,0.2C3.8,30.2,3.5,30.2,3.4,30.1 M3.2,30.6l0.2-0.1c0-0.1,0.1-0.1,0.1-0.1c0.1,0,0.1,0,0.2,0
			c0,0,0.1,0.1,0,0.2c0,0.1-0.2,0.3-0.3,0.3c-0.2,0-0.4,0-0.4-0.2C3,30.7,3.1,30.7,3.2,30.6 M-0.2,29.2c0.1,0,0.2,0,0.4,0
			c0.2,0.1,0.3,0.3,0.3,0.4l-0.1,0.1c-0.1,0-0.2,0-0.4,0c-0.2-0.1-0.3-0.2-0.3-0.3C-0.3,29.4-0.3,29.3-0.2,29.2L-0.2,29.2z"/>
	</g>
</g>
</svg>
