<?xml version="1.0" encoding="utf-8"?>
<!-- Generator: Adobe Illustrator 21.1.0, SVG Export Plug-In . SVG Version: 6.00 Build 0)  -->
<svg version="1.1"
	 id="svg2" inkscape:version="0.48.1 " sodipodi:docname="Logo_Fiat.svg" xmlns:cc="http://creativecommons.org/ns#" xmlns:dc="http://purl.org/dc/elements/1.1/" xmlns:inkscape="http://www.inkscape.org/namespaces/inkscape" xmlns:rdf="http://www.w3.org/1999/02/22-rdf-syntax-ns#" xmlns:sodipodi="http://sodipodi.sourceforge.net/DTD/sodipodi-0.dtd" xmlns:svg="http://www.w3.org/2000/svg"
	 xmlns="http://www.w3.org/2000/svg" xmlns:xlink="http://www.w3.org/1999/xlink" x="0px" y="0px" viewBox="0 0 300 300"
	 style="enable-background:new 0 0 300 300;" xml:space="preserve">
<style type="text/css">
	.st0{fill:#231F20;}
	.st1{fill:#BDBCBC;}
	.st2{clip-path:url(#SVGID_2_);}
	.st3{fill:url(#path52_1_);}
	.st4{fill:url(#path3438_1_);stroke:#6D0115;stroke-width:2;}
	.st5{fill:#6D0115;}
	.st6{fill:#1A1A1A;}
	.st7{fill:url(#_217961256-7_1_);}
	.st8{fill:url(#_217958256-1_1_);}
	.st9{fill:url(#_217960584-1_1_);}
	.st10{fill:url(#_217960752-5_1_);}
</style>
<sodipodi:namedview  bordercolor="#666666" borderopacity="1" gridtolerance="10" guidetolerance="10" id="namedview80" inkscape:current-layer="svg2" inkscape:cx="150" inkscape:cy="150" inkscape:pageopacity="0" inkscape:pageshadow="2" inkscape:window-height="738" inkscape:window-maximized="1" inkscape:window-width="1280" inkscape:window-x="-8" inkscape:window-y="-8" inkscape:zoom="1.73" objecttolerance="10" pagecolor="#ffffff" showgrid="false">
	</sodipodi:namedview>
<g id="g3294">
	<path id="path30" inkscape:connector-curvature="0" class="st0" d="M297.5,150c0,81.5-66,147.5-147.5,147.5S2.5,231.5,2.5,150
		C2.5,68.5,68.5,2.5,150,2.5S297.5,68.5,297.5,150"/>
	<path id="path32" inkscape:connector-curvature="0" class="st1" d="M292.3,150c0,78.6-63.7,142.3-142.3,142.3S7.7,228.6,7.7,150
		C7.7,71.4,71.4,7.7,150,7.7S292.3,71.4,292.3,150"/>
	
		<path id="path34" inkscape:connector-curvature="0" sodipodi:nodetypes="cccsccccccccccccccccssccccscccccccsccsccccccccccscccccsccccccccccccccccccccccccccccccsccsccccccc" class="st0" d="
		M35.5,78.3c0,0.1-15.8,2.5-15.8,2.6c0.1,0.4-0.8,81.2,13.6,77.2c9.5-4.5,4.4-57.1,4.4-50.1c0,9.9,1,26.1,4.7,51.5
		c4.3,28.7,2.5,32.2,4.5,38.4c-4.6-4.5-11.8-6.5-11.8-6.5l10.2,34.5l7.5-0.1c0,0,0.1-2.3,0.2-2.4c0.2,0,7.4,0.5,12.4,9.6
		c28.7,52.6,104.4,32.4,84.6,33.5l31.2-3.8c-91.3,15.6-108.5-26.5-113.1-34.9c-2.9-4.2-11.1-8.6-16.3-6.1c0,0,12.7,0.5,12.1-2.9
		c4,3.9-9.9-6.2-9.9-6.2l0.7,2.2c2.1,0.2,1.2-2.1,3.4-2.5l-2.8-1.3c-0.4-0.4,1.6-2.7-5.3-48.7c-3.8-25.2-3-44.9-3-54.7
		c0-9.5-0.6-10.1-0.6-10.2L41,93.9l-1.1-0.2c-1.5-0.3-3.1-0.8-3.7-1.2c0.3-0.5,0.5-1.2,0.5-2.3c0-1.1-0.1-2.5-0.3-4.3
		c-0.2-2.4-0.1-11.2-0.4-8.3c-17.7,153.9,6.8-17.2,3.8-13.9l1.7-2c8.4-9.6,37.5-32.2,112.8-33.9c79.6-1.9,80,27.2,80.3,27.6
		l20.6,10.2c-0.3-0.4-27.1-44.9-107.9-43C71.2,24.5,48.5,50.6,40,60.4l-1.7,1.9c-3.5,3.8-7.5,3.9-7.5,9.5c0,3-3.4,7-3.2,9.5
		C37.5,98.6,34.1,90,35.5,78.3L35.5,78.3z M253.3,70.9c-1.7,0.7-1.5,3.6-1.1,7.5c0.3,2.9,0.6,6.2,0,8.5l2,0.5c0.7-2.6,0.3-6.1,0-9.2
		c-0.2-2-0.5-4.9,0-5.4c0,0.1,0.6,22,5.1,27.2c7.2,8.3,3.6,3.5,3.6,18c0,7.1,5.3,15.5,5.1,18.4c-2.7-3.4-3.4-12-4.1-19.8
		c-0.8-9.1-1.5-16.9-4.7-19.5c4-3.5-9.8-21.7-8.9-9.4c0.6,4.3-1.5-9.7-4.5-14.5c-9.4-14.6-28.9-31.7-96.5-34.1
		C87.3,37,56.6,62.5,48.7,70.3c0,0,1-1.8,1-1.8l-10.1-5.2l-2.9,30.2l4.3-6.8c0,0,7-12.6,7.1-12.9c1.1-1.3,30.5-34.9,101.1-32.5
		c75.3,2.6,89,24,94.9,33.1c2.8,4.4,3.6,9.3,4.2,13.7c0.9,5.7,1.7,11.1,8.1,10.3c0.6-0.1,1.1,0.1,1.5,0.4c2.5,2,3.2,10.2,3.9,18
		c0.9,10.4,1.8,20.2,6.5,22.6l1.3,0.7l0.1-1.5c0.2-1.9,4.3-46.9-8.4-61.6C256.5,71.1,254.6,70.3,253.3,70.9L253.3,70.9z
		 M280.5,108.2c-1.2-5.4-3-11.3-5.8-17.4C276.2,94.2,278.5,100.1,280.5,108.2z M274.7,90.8c-0.4-0.8-0.7-1.5-0.9-2
		C274.1,89.5,274.4,90.2,274.7,90.8z M268.3,75.9c16.8,16.2,13.8,58.1,13.8,58.1l-8.2-9.5v40.6l-5.7,11.4
		c-10.1,53.9-34,101.4-127.8,98.9c-93.8-2.5-108.3-52.6-117.1-100.1c-8.8-47.5,3.8-99.5,3.8-99.5c-27.7,82.4,5,144.5,5,144.5
		s15.7,58.3,112.7,57.7c96.9-0.6,112.1-54.5,112.1-54.5l1.8,13.6c0,0,22.5-20.6,29.4-63.7C291.6,151.5,278.1,85.4,268.3,75.9
		L268.3,75.9z M273.8,88.8c-0.3-0.7-0.5-1.1-0.5-1.1C273.5,88.1,273.6,88.5,273.8,88.8"/>
	<g id="g36" transform="matrix(0.49485438,0,0,-0.49485019,-261.4083,458.00565)">
		<g>
			<defs>
				<path id="SVGID_1_" d="M1094.3,667.2c0.1-1,0.2-2,0.3-3C1097.9,631.6,1099.4,640.3,1094.3,667.2z M607.4,803.8
					c0,0,25.9,23.9,44.4,41.5C651.9,845.2,627.2,831.4,607.4,803.8z M600.6,486.7c14.7-29.6,29.1-48.8,29.1-48.8
					S615.9,458.6,600.6,486.7z M1081.1,771.1l-4.8,14l43.1-15.3l-41.7,21.3l42.3,25.1l-46.5-19.1l7.4,46.5l-15.1-44.9l-10.9,3.1
					c-22.9,34.1-54.5,51.2-94.1,70.2c-73.7,35.4-172,26-172,26s116-1.5,204.7-54.1c18.3-10.9,33.6-25.9,46.3-42.9l-19.2-1.1l22-2.8
					c2.1-2.9,4.1-5.9,6-8.9l-25.5-14.7l27.5,11.5c2.8-4.6,5.5-9.3,8.1-14l-10.9-34l12.8,30.3c19-36.8,29.1-76,33.7-100.2
					c-5.3,50.8-14.6,87-27.8,114.2l1,2.3c0,0,48.1-62.9,39.5-166c-8.6-103.1-33.3-139.6-58-164.7l-1.2,12.6
					c0,0-35.8-106.9-213.4-104.4c-177.6,2.5-191.2,60.4-191.2,60.4l-9.9,5c0,0-41.9,32.7-67.8,119.4c-25.9,86.8-1.2,157.2-1.2,157.2
					s-13.6-57.8-3.7-116.9c5.1-30.6,23.5-69.3,40-99.5c-12.1,24.4-24.4,55.9-28.9,89.5c-9.9,74.2-7.4,124.5,4.9,162.2
					c12.3,37.7,19.7,54.1,19.7,54.1s-51.8-60.4-53-188.6c-1.2-128.3,107.3-216.3,155.4-235.1c48.1-18.9,199.8-44,291.1,20.1
					c91.3,64.1,85.1,80.5,114.7,139.6C1134.1,587.5,1121.8,706.9,1081.1,771.1L1081.1,771.1z M1059.5,794.6
					c-0.1,0.2-0.2,0.3-0.3,0.5l0.9-0.1L1059.5,794.6z M1063.7,787c-0.5,1-1,2-1.6,2.9l2.9,1.2L1063.7,787L1063.7,787z M629.7,792.4
					c7.4,12.6,45.6,35.2,45.6,35.2s-21-12.6-44.4-40.2c-23.4-27.7,8.6,2.5,51.8,31.4c43.2,28.9,103.6,26.4,103.6,26.4
					s-19.7,15.1-95-8.8l72.8,31.4c0,0-111-23.9-143.1-69.2C588.9,753.5,622.3,779.9,629.7,792.4L629.7,792.4z M1000.9,796.4
					c13.6-14.1,23.4-26.6,23.4-26.6S1020.3,782.5,1000.9,796.4L1000.9,796.4z M579.1,611.4c13.6-133.3,70.3-189.9,70.3-189.9
					s43.2-42.8,177.6-49c134.4-6.3,177.6,46.5,181.3,55.3s-17.3-5-23.4-2.5c-6.2,2.5,19.7,49,19.7,49c-13.6-50.3,7.4,7.5,21,1.3
					c13.6-6.3-27.1-22.6-13.6-35.2c13.6-12.6,41.9,76.7,60.4,116.9c18.5,40.2,12.3,81.7,11.1,108.1c-1.2,26.4-7.4,37.7-7.4,37.7
					l-3.7-62.9c0,0,2.5-8.8-17.3,35.2l-16,42.8c-11.1-196.2-55.5-270.4-55.5-270.4s-16-49-145.5-50.3c-129.5-1.2-148,32.7-148,32.7
					c-41.9,55.3-66.6,173.5-60.4,251.5c6.2,78,0,99.3,55.5,123.2c55.5,23.9,139.4,26.4,139.4,26.4c100.7,2.8,151.4-17.1,176.4-35
					c-3.1,3.2-6.4,6.6-9.9,9.9c-18.5,17.6-189.9,54.1-280,18.9s-96.2-69.2-90-172.3c6.2-103.1,38.2-188.6,60.4-221.3
					c22.2-32.7,101.1-42.8,101.1-42.8C675.3,391.3,663,447.9,656.8,458c-6.2,10.1-24.7,30.2-28.4,13.8
					c-3.7-16.3-36.9,83.6-30.7,88.6c6.2,5,44.3-50.9,44.3-50.9s-13.6,27.7-27.1,105.6c-13.6,78,7.4,116.9-6.2,119.5
					c-13.6,2.5,16.9-115-22-120.3c-11.1-1.5-1.9,104,3.1,125.3c4.9,21.4,10.3,27.6,10.3,27.6S565.5,744.6,579.1,611.4"/>
			</defs>
			<clipPath id="SVGID_2_">
				<use xlink:href="#SVGID_1_"  style="overflow:visible;"/>
			</clipPath>
			<g id="g38" class="st2">
				
					<linearGradient id="path52_1_" gradientUnits="userSpaceOnUse" x1="1429.1429" y1="1644.4225" x2="1996.1309" y2="2186.4211" gradientTransform="matrix(0.4949 0 0 0.4949 -159.3288 -460.0872)">
					<stop  offset="0" style="stop-color:#8C8C8C"/>
					<stop  offset="0.5" style="stop-color:#464646"/>
					<stop  offset="0.75" style="stop-color:#FFFFFF"/>
					<stop  offset="1" style="stop-color:#FFFFFF"/>
				</linearGradient>
				
					<path id="path52" inkscape:connector-curvature="0" sodipodi:nodetypes="ccccccccccccccccccccccccccccccccsccsccccsccscscccccccccccccccccccsccccccsscccccsccccccccccccsscccccccccccc" class="st3" d="
					M1094.3,667.2C1094.5,666.8,1094.3,667.2,1094.3,667.2z M607.4,803.8c0,0,25.9,23.9,44.4,41.5
					C651.9,845.2,627.2,831.4,607.4,803.8z M600.6,486.7c14.7-29.6,29.1-48.8,29.1-48.8S615.9,458.6,600.6,486.7z M1081.1,771.1
					l-4.8,14l43.1-15.3l-41.7,21.3l42.3,25.1l-46.5-19.1l7.4,46.5l-15.1-44.9l-10.9,3.1c-22.9,34.1-54.5,51.2-94.1,70.2
					c-73.7,35.4-172,26-172,26s116-1.5,204.7-54.1c18.3-10.9,33.6-25.9,46.3-42.9l-19.2-1.1l22-2.8c2.1-2.9,4.1-5.9,6-8.9
					l-25.5-14.7l27.5,11.5c2.8-4.6,5.5-9.3,8.1-14l-10.9-34l12.8,30.3c19-36.8,29.1-76,33.7-100.2c-5.3,50.8-14.6,87-27.8,114.2
					l1,2.3c0,0,48.1-62.9,39.5-166c-8.6-103.1-33.3-139.6-58-164.7l-1.2,12.6c0,0-35.8-106.9-213.4-104.4
					c-177.6,2.5-191.2,60.4-191.2,60.4l-9.9,5c0,0-41.9,32.7-67.8,119.4c-25.9,86.8-1.2,157.2-1.2,157.2s-13.6-57.8-3.7-116.9
					c5.1-30.6,23.5-69.3,40-99.5c-12.1,24.4-24.4,55.9-28.9,89.5c-9.9,74.2-7.4,124.5,4.9,162.2c12.3,37.7,19.7,54.1,19.7,54.1
					s-51.8-60.4-53-188.6c-1.2-128.3,107.3-216.3,155.4-235.1c48.1-18.9,199.8-44,291.1,20.1c91.3,64.1,85.1,80.5,114.7,139.6
					C1134.1,587.5,1121.8,706.9,1081.1,771.1L1081.1,771.1z M1059.5,794.6c-0.1,0.2-0.2,0.3-0.3,0.5l0.9-0.1L1059.5,794.6z
					 M1063.7,787c-0.5,1-1,2-1.6,2.9l2.9,1.2L1063.7,787z M629.7,792.4c7.4,12.6,45.6,35.2,45.6,35.2s-21-12.6-44.4-40.2
					c-23.4-27.7,8.6,2.5,51.8,31.4c43.2,28.9,103.6,26.4,103.6,26.4s-19.7,15.1-95-8.8l72.8,31.4c0,0-111-23.9-143.1-69.2
					C588.9,753.5,622.3,779.9,629.7,792.4L629.7,792.4z M1000.9,796.4c13.6-14.1,23.4-26.6,23.4-26.6S1020.3,782.5,1000.9,796.4
					L1000.9,796.4z M579.1,611.4c13.6-133.3,70.3-189.9,70.3-189.9s43.2-42.8,177.6-49c134.4-6.3,177.6,46.5,181.3,55.3
					s-17.3-5-23.4-2.5c-6.2,2.5,19.7,49,19.7,49c-13.6-50.3,7.4,7.5,21,1.3c13.6-6.3-27.1-22.6-13.6-35.2
					c13.6-12.6,41.9,76.7,60.4,116.9c18.5,40.2,12.3,81.7,11.1,108.1c-1.2,26.4-7.4,37.7-7.4,37.7l-3.7-62.9c0,0,2.5-8.8-17.3,35.2
					l-16,42.8c-11.1-196.2-55.5-270.4-55.5-270.4s-16-49-145.5-50.3c-129.5-1.2-148,32.7-148,32.7c-41.9,55.3-66.6,173.5-60.4,251.5
					c6.2,78,0,99.3,55.5,123.2c55.5,23.9,139.4,26.4,139.4,26.4c100.7,2.8,151.4-17.1,176.4-35c-3.1,3.2-6.4,6.6-9.9,9.9
					c-18.5,17.6-189.9,54.1-280,18.9s-96.2-69.2-90-172.3c6.2-103.1,38.2-188.6,60.4-221.3c22.2-32.7,101.1-42.8,101.1-42.8
					C675.3,391.3,663,447.9,656.8,458c-6.2,10.1-24.7,30.2-28.4,13.8c-3.7-16.3-36.9,83.6-30.7,88.6c6.2,5,44.3-50.9,44.3-50.9
					s-13.6,27.7-27.1,105.6c-13.6,78,7.4,116.9-6.2,119.5c-13.6,2.5,16.9-115-22-120.3c-11.1-1.5-1.9,104,3.1,125.3
					c4.9,21.4,10.3,27.6,10.3,27.6S565.5,744.6,579.1,611.4"/>
			</g>
		</g>
	</g>
	
		<radialGradient id="path3438_1_" cx="150.0001" cy="140.1274" r="98.0002" gradientTransform="matrix(1 0 0 -1.0689 0 303.2077)" gradientUnits="userSpaceOnUse">
		<stop  offset="0" style="stop-color:#E60A47"/>
		<stop  offset="1" style="stop-color:#7C0626"/>
	</radialGradient>
	<path id="path3438" inkscape:connector-curvature="0" class="st4" d="M159.1,257.2c0.1,0,15.3-0.8,28.5-3.7
		c11.5-2.6,21.7-7.5,21.8-7.6l0,0l0,0c0.1,0,5.7-2.5,9.2-5.8c3.5-3.4,5.1-7.8,5.2-7.9c0.1-0.2,6.3-16.7,11-34.4
		c4.3-16.2,7.3-34.2,7.3-34.4c0-0.2,3.6-18.4,4.6-37.7c0.8-16.2-0.8-34.6-0.9-34.8c0-0.1-0.9-11-5.2-18.2
		c-3.9-6.4-11.5-9.6-11.6-9.6l-0.1,0l-0.1,0c-0.1,0-8.9-4.5-25.6-8.1c-13.3-2.9-31.9-5-47.2-5.3c-17.5-0.3-36.4,0.9-50.4,3.3l0,0
		c-16.8,2.9-27.7,7.1-27.8,7.2l-0.1,0l-0.1,0c-0.1,0-11,3-16.7,10.3c-5.8,7.4-6.8,19.5-6.8,19.6l0,0.1c0,0.1-1.2,10.6-1.2,23.4
		c0,2.3,0,4.7,0.1,7.1c0.7,17.1,3.6,36,3.7,36.2c0,0.2,4.1,22.4,8.7,41.1c3.4,13.9,7.9,26.1,7.9,26.3l0,0.1l0,0.1
		c0,0.1,1.5,6.3,4,10.6c2.1,3.8,5.3,6,5.3,6l0.1,0l0.1,0c0,0,2.2,1.8,5.5,3.6c3.8,2.1,8.9,4.3,9.1,4.4c0.4,0.1,11.6,4.4,26.4,6.4
		C139.3,257.5,158.9,257.2,159.1,257.2L159.1,257.2z"/>
	<g id="g3442" transform="matrix(1.6541398,0,0,1.6306307,-18.699561,-13.275104)">
		<path id="path3444" inkscape:connector-curvature="0" class="st5" d="M66.9,158.6c-0.4-0.2-0.6-0.3-0.6-0.3c0,0-0.1-0.1-0.3-0.1
			l-0.1-0.4c-1.6-9-4-25.3-4.8-45.3c-1-23.5-1-52.2-0.9-66.2v-1c0.3-0.1,0.5-0.2,0.8-0.3l0,1c-0.1,13.8-0.1,42.8,0.9,66.4
			c0.8,20.3,3.3,36.9,4.9,45.7L66.9,158.6L66.9,158.6z"/>
		<path id="path3446" inkscape:connector-curvature="0" class="st5" d="M69.6,159.7c-0.3-0.1-0.6-0.3-0.9-0.4l-0.1-0.6
			c-1.2-8.4-3.2-25.6-4.2-47.7c-1-23.4-0.9-52.8-0.7-66.2l0-0.8c0.3-0.1,0.6-0.2,0.8-0.2l0,0.8C64.4,58,64.2,87.5,65.2,111
			c1,22.5,3.1,40,4.3,48.2L69.6,159.7L69.6,159.7z"/>
		<path id="path3448" inkscape:connector-curvature="0" class="st5" d="M89.3,40.5c0.2,25.9,0.8,100.7,1,122.3l0,1.8
			c-0.3,0-0.6-0.1-0.8-0.1l0-1.7c-0.2-21.6-0.8-96.2-1-122.2l0-0.8c0.3,0,0.6,0,0.8-0.1L89.3,40.5z"/>
		<path id="path3450" inkscape:connector-curvature="0" class="st5" d="M100.3,40.2c0.1,22.7,0.3,97.9,0.4,123.3l0,1.7
			c-0.3,0-0.6,0-0.8,0v-2c-0.1-25.7-0.3-101-0.4-123.3l0-0.6c0.3,0,0.5,0,0.8,0C100.3,39.3,100.3,40.2,100.3,40.2z"/>
		<path id="path3452" inkscape:connector-curvature="0" class="st5" d="M104.5,40.3c-0.1,25.2-0.5,100.9-0.6,123.2l0,1.7
			c-0.3,0-0.6,0-0.9,0l0-1.4c0.1-21.9,0.5-98.5,0.6-123.7l0-0.8c0.3,0,0.6,0,0.9,0L104.5,40.3L104.5,40.3z"/>
		<path id="path3454" inkscape:connector-curvature="0" class="st5" d="M115.9,163c0.6-10.1,1.7-31.6,2.2-55.9
			c0.5-24.8,0.3-53,0.1-66.2l0-0.9c0.3,0,0.7,0.1,1,0.1l0,1.1c0.1,13.4,0.4,41.3-0.1,65.9c-0.5,24.1-1.6,45.4-2.2,55.7l-0.1,1.5
			c-0.4,0-0.7,0.1-1,0.1L115.9,163L115.9,163z"/>
		<path id="path3456" inkscape:connector-curvature="0" class="st5" d="M144.6,153c-0.4,0.6-0.9,1.1-1.3,1.5l0.4-2.2
			c1.8-9.2,4-23.5,5.2-40.3c1.3-19.9,1.5-47.2,1.5-62.7l0-1.5c0.3,0.2,0.7,0.4,1,0.6l0,2c0,15.7-0.2,42.2-1.5,61.7
			c-1.1,16.5-3.3,30.6-5.1,39.8L144.6,153L144.6,153z"/>
		<path id="path3458" inkscape:connector-curvature="0" class="st5" d="M154.3,119.5c0.7-5.8,1.4-12.4,1.9-19.3
			c1-15.2,1-32.4,0.9-43.4l0-1.8c0.4,1,0.8,1.9,1,2.9l0,1.7c0.1,11,0,26.7-0.9,40.7c-0.2,3-0.4,5.8-0.7,8.6l-0.3,3.1
			c-0.6,3.3-1.5,7.3-2.4,11.4L154.3,119.5L154.3,119.5z"/>
		<path id="path3460" inkscape:connector-curvature="0" class="st5" d="M141,156.3c-0.3,0.2-0.7,0.5-1.1,0.7l0.3-1.8
			c1.7-9.4,4.3-26.5,5.3-46.3c1.1-21.8,1.1-47.7,1-61l0-1.9c0.3,0.1,0.6,0.2,1,0.4l0,1.8c0.1,13.4,0.1,39.1-1,60.8
			c-1,19.3-3.5,36-5.2,45.6L141,156.3z"/>
		<path id="path3462" inkscape:connector-curvature="0" class="st5" d="M128.6,160.6c0.8-8.8,2.3-26.9,3-48.8
			c0.8-24.6,0.8-53.7,0.7-67.8l0-2c0.4,0.1,0.7,0.1,1,0.2l0,1.9c0.1,14.1,0.1,43.2-0.7,67.7c-0.7,21.8-2.1,39.8-2.9,48.7l-0.1,1.1
			c-0.3,0.1-0.7,0.2-1,0.3L128.6,160.6L128.6,160.6z"/>
		<path id="path3464" inkscape:connector-curvature="0" class="st5" d="M125.1,161.4c0.9-7.4,2.3-21.9,2.9-40.7
			c0.9-27.3,0.8-61.8,0.6-77.7l0-1.8c0.3,0.1,0.7,0.1,1,0.2l0,1.9c0.1,16.1,0.2,50.3-0.6,77.5c-0.6,18.5-2,32.8-2.9,40.4l-0.2,1.4
			c-0.3,0.1-0.7,0.2-1,0.3L125.1,161.4L125.1,161.4z"/>
		<path id="path3466" inkscape:connector-curvature="0" class="st5" d="M122.3,162c0.7-7.9,1.9-23.5,2.4-42.4
			c0.8-26.5,0.6-60.1,0.4-77.6l0-1.3c0.3,0,0.7,0.1,1,0.1l0,1.7c0.2,17.7,0.4,50.8-0.4,77.1c-0.5,18.7-1.7,34.1-2.4,42.1l-0.1,1.5
			c-0.3,0.1-0.7,0.1-1,0.2L122.3,162L122.3,162z"/>
		<path id="path3468" inkscape:connector-curvature="0" class="st5" d="M119,162.7c0.6-9.2,1.7-28.4,2.2-49
			c0.6-27.4,0.7-58,0.6-72.3l0-1.1c0.3,0,0.7,0.1,1,0.1l0,1.2c0,14.4,0,44.8-0.6,72c-0.5,20.4-1.5,39.4-2.1,48.7l-0.1,1.4
			c-0.4,0.1-0.7,0.1-1,0.2L119,162.7z"/>
		<path id="path3470" inkscape:connector-curvature="0" class="st5" d="M115.5,40.9c0,14.6-0.2,47.9-0.7,76.2
			c-0.3,19.6-0.9,36.8-1.3,45.6l-0.1,1.8c-0.3,0-0.6,0-0.9,0.1l0.1-1.6c0.4-8.8,1-26.1,1.3-45.9c0.5-28.5,0.6-61.9,0.7-76.4l0-1
			c0.3,0,0.6,0,0.8,0.1L115.5,40.9L115.5,40.9z"/>
		<path id="path3472" inkscape:connector-curvature="0" class="st5" d="M111.4,40.3c0.1,12.9,0.3,38.2,0.1,62
			c-0.2,25.8-0.7,50.4-1,61l0,1.5c-0.3,0-0.6,0-0.9,0.1l0-1.3c0.3-10.4,0.8-35.3,1-61.3c0.2-23.7,0-48.8-0.1-61.8l0-1
			c0.3,0,0.6,0,0.8,0L111.4,40.3L111.4,40.3z"/>
		<path id="path3474" inkscape:connector-curvature="0" class="st5" d="M108.1,40.2c0.2,14.8,0.4,41.3,0.3,66.4
			c-0.1,23.3-0.6,45.6-0.9,57.2l0,1.2c-0.3,0-0.6,0-0.8,0l0-1.4c0.3-11.7,0.8-33.9,0.9-57c0.1-24.9-0.1-51.3-0.3-66.1l0-1.1
			c0.3,0,0.6,0,0.8,0L108.1,40.2L108.1,40.2z"/>
		<path id="path3476" inkscape:connector-curvature="0" class="st5" d="M78.3,162.6c-0.3-0.1-0.6-0.1-0.9-0.2l-0.1-0.6
			c-0.7-7.7-2.1-25.1-2.7-45.6c-0.8-26.1-0.5-58.6-0.3-74l0-0.7c0.3,0,0.6-0.1,0.8-0.1l0,0.7c-0.2,15.3-0.4,47.9,0.3,74.1
			c0.6,20.7,2,38.3,2.7,45.8L78.3,162.6L78.3,162.6z"/>
		<path id="path3478" inkscape:connector-curvature="0" class="st5" d="M72.6,160.9c-0.3-0.1-0.6-0.2-0.9-0.3l-0.1-0.6
			c-1.3-10.9-3.8-34.4-4.6-59.4C66.4,79.4,67,55.8,67.4,44l0-0.9c0.3-0.1,0.6-0.1,0.8-0.2l0,0.7c-0.4,11.7-1,35.5-0.3,56.8
			c0.8,25.3,3.4,49.2,4.6,59.8L72.6,160.9z"/>
		<g id="g3480">
			<g id="g3482">
				<path id="path3484" inkscape:connector-curvature="0" class="st5" d="M48.6,117.5c-1-5.1-1.6-8.8-1.6-8.9l-0.1-2.2
					c-0.6-7.6-1.1-16.1-1.2-23.4c-0.1-8.6-0.1-17.2,0-23.6l0-0.8c0.2-1,0.6-2,0.9-3l-0.1,4.6c-0.1,6.3-0.1,14.6,0,22.8
					c0.2,9.2,1,20.4,1.7,29.2L48.6,117.5z"/>
			</g>
		</g>
		<g id="g3486">
			<g id="g3488">
				<path id="path3490" inkscape:connector-curvature="0" class="st5" d="M56,144.6c-0.6-1.7-1.3-3.8-1.9-6l-0.5-3
					c-1.3-7.9-2.5-16.2-2.8-22.6c-1.7-21.3-1.8-46-1.7-59.1l0-2.4c0.3-0.3,0.5-0.6,0.8-0.8l0,2.3c-0.1,12.8-0.1,38.1,1.7,60
					c0.4,7.5,1.9,17.6,3.5,26.5L56,144.6L56,144.6z"/>
			</g>
		</g>
		<g id="g3492">
			<g id="g3494">
				<path id="path3496" inkscape:connector-curvature="0" class="st5" d="M60.1,149.1c-1.7-8.7-3.9-21.4-5-36
					c-1.7-22.6-1.7-49.3-1.5-62.5l0-2.7c-0.2,0.1-0.5,0.3-0.9,0.5l0,2.3c-0.2,13.2-0.2,39.8,1.5,62.5c1.1,14.5,3.2,27.3,4.9,35.9
					l1.1,5.1c0.2,0.2,0.4,0.4,0.6,0.6c0.2,0.1,0.3,0.3,0.5,0.4L60.1,149.1z"/>
			</g>
		</g>
		<path id="path3498" inkscape:connector-curvature="0" class="st5" d="M75.3,161.3c-0.8-7.1-2.2-21.6-2.7-39
			c-0.9-28.7-1-64.5-1-79.4l0-0.7c-0.3,0.1-0.6,0.1-0.9,0.2l0,0.6c0,14.9,0.1,50.7,1,79.3c0.6,17.1,1.9,31.3,2.7,38.6l0.1,0.6
			c0.3,0.1,0.6,0.2,0.9,0.3L75.3,161.3z"/>
		<path id="path3500" inkscape:connector-curvature="0" class="st5" d="M57.4,46.2c-0.3,0.1-0.6,0.2-0.9,0.3l0,1.3
			C56.3,61.2,55.9,88,57,105.6c1.5,25,4.6,42.6,6.1,50.2l0.1,0.7c0.3,0.2,0.7,0.4,1,0.6l-0.2-0.9c-1.5-7.2-4.7-25.1-6.2-50.7
			c-1.1-17.7-0.7-44.8-0.4-58L57.4,46.2"/>
		<path id="path3502" inkscape:connector-curvature="0" class="st5" d="M78.8,40.9c-0.3,0-0.6,0.1-0.9,0.1l0,0.7
			c-0.1,14-0.3,41.5,0.1,65.7c0.4,23,1.8,43.9,2.6,54.3l0.1,1.4c0.3,0.1,0.6,0.1,0.9,0.2l-0.1-1.3c-0.8-10.2-2.2-31.4-2.6-54.6
			c-0.4-24.2-0.3-51.8-0.1-65.7L78.8,40.9L78.8,40.9z"/>
		<path id="path3504" inkscape:connector-curvature="0" class="st5" d="M82.4,40.5c-0.3,0-0.6,0.1-0.9,0.1l0,0.7
			c-0.2,11.4-0.5,34.9-0.1,58.3c0.5,26.6,1.9,51.8,2.5,62.9l0.1,1.3c0.3,0,0.6,0.1,0.9,0.1l-0.1-1.5c-0.7-11-2-36.2-2.6-62.9
			c-0.5-23.5-0.1-47,0.1-58.4L82.4,40.5z"/>
		<path id="path3506" inkscape:connector-curvature="0" class="st5" d="M85.8,40.1c-0.3,0-0.6,0.1-0.8,0.1l0,0.7
			c-0.1,12.2-0.2,37.9,0.1,62.8c0.3,24.1,1,48,1.4,58.9l0.1,1.6c0.3,0,0.6,0.1,0.8,0.1l-0.1-1.7c-0.4-10.9-1.1-34.8-1.4-59
			c-0.3-25-0.2-50.8-0.1-62.9L85.8,40.1z"/>
		<path id="path3508" inkscape:connector-curvature="0" class="st5" d="M93.1,39.5c-0.3,0-0.6,0-0.9,0.1l0,0.5
			c0.1,22.4,0.6,98.7,0.8,123.4l0,1.5c0.3,0,0.6,0.1,0.8,0.1l0-1.5C93.8,138.8,93.3,62.3,93.1,40L93.1,39.5z"/>
		<path id="path3510" inkscape:connector-curvature="0" class="st5" d="M96.7,39.4c-0.3,0-0.6,0-0.9,0l0,0.8
			c0,23.7,0.2,100,0.2,122.9l0,2c0.2,0,0.4,0,0.5,0c0,0,0.2,0,0.4,0l0-2.1c0-23-0.2-99.2-0.2-122.8L96.7,39.4z"/>
		<path id="path3512" inkscape:connector-curvature="0" class="st5" d="M131.5,159.4c1.2-10.4,3.4-31.9,4.4-57.6
			c0.7-19.2,0.1-44.9-0.2-57.7l-0.1-1.4c0.4,0.1,0.7,0.2,1,0.3l0.1,1.4c0.4,13,0.9,38.4,0.2,57.5c-0.9,25.7-3.1,47.2-4.4,57.6
			l-0.1,1.2c-0.3,0.1-0.7,0.2-1.1,0.4L131.5,159.4L131.5,159.4z"/>
		<path id="path3514" inkscape:connector-curvature="0" class="st5" d="M135.7,158c1-9,2.7-26.9,3.8-49.2c1-21.4,0.9-49,0.8-63.7
			l0-1.1c-0.3-0.1-0.7-0.2-1-0.3l0,1.3c0.1,14.6,0.2,42.3-0.8,63.7c-1.1,22.6-2.8,40.6-3.8,49.5l-0.2,1.6c0.3-0.1,0.7-0.3,1-0.5
			L135.7,158z"/>
		<path id="path3516" inkscape:connector-curvature="0" class="st5" d="M138.8,156c1.2-8.1,2.8-21.3,3.7-38.2
			c1.4-25.1,1.6-57.2,1.7-71.6l0-1c-0.3-0.1-0.6-0.2-1-0.3l0,1c0,14.2-0.3,46.5-1.7,71.8c-1,17.6-2.7,31.2-3.9,39.1l-0.2,1.6
			c0.4-0.2,0.7-0.4,1.1-0.6L138.8,156L138.8,156z"/>
		<path id="path3518" inkscape:connector-curvature="0" class="st5" d="M147.6,145.5c0,0,0.9-2.5,2-6.2l0.4-2.8
			c1.4-9.4,2.8-21,3.8-33.7c1.3-16.8,1-37.3,0.6-49.7l-0.1-2.3c-0.3-0.3-0.7-0.7-1.1-1l0.1,1.9c0.4,12.1,0.7,33.5-0.6,51
			c-1.1,14.7-2.9,28-4.5,38L147.6,145.5L147.6,145.5z"/>
	</g>
	<g id="g3265" transform="matrix(0.96478299,0,0,1.0047898,5.8455075,0.26829411)">
		<g id="Warstwa_x0020_1" transform="matrix(1.4405443,0,0,1.6465884,74.270062,97.699074)">
			<g id="_217956912">
				<polygon id="_217961256" class="st6" points="21.5,39.6 21.5,30.9 12.6,30.9 12.6,8.8 24.3,8.8 24.2,0 0,0 2.2,67.7 12.8,67.7 
					12.6,39.6 				"/>
				<polygon id="_217958256" class="st6" points="28.5,0 29.8,67.7 40.8,67.7 41,0 				"/>
				<polygon id="_217960584" class="st6" points="99.1,67.7 101.4,8.5 110,8.5 109.9,0 80,0 80,8.5 88.7,8.5 88.5,67.7 				"/>
				<path id="_217960752" inkscape:connector-curvature="0" class="st6" d="M57.6,31.3l0.1-23h6.1c2.8,5.1,4.6,11.9,6,23H57.6z
					 M47.8,67.7h1.1h7.9H58l0.1-28h12.2c1,4.9,1.2,20.2,1.3,28h1h8h0.9c0.9-34.6-2-54.1-10-67.7H46.9L47.8,67.7z"/>
			</g>
		</g>
		<g id="Warstwa_x0020_1-5" transform="matrix(1.4441632,0,0,1.64656,76.07,95.702378)">
			<g id="_217956912-1">
				
					<radialGradient id="_217961256-7_1_" cx="2.8649" cy="101.5122" r="55.0003" gradientTransform="matrix(1.3933 0 0 -1.0181 51.0084 137.196)" gradientUnits="userSpaceOnUse">
					<stop  offset="0" style="stop-color:#D3D1D2"/>
					<stop  offset="0.5" style="stop-color:#C9C7C8"/>
					<stop  offset="1" style="stop-color:#8D8B8C"/>
				</radialGradient>
				<polygon id="_217961256-7" class="st7" points="21.5,30.9 12.6,30.9 12.6,8.8 24.3,8.8 24.2,0 0,0 2.2,67.7 12.8,67.7 
					12.6,39.6 21.5,39.6 				"/>
				
					<radialGradient id="_217958256-1_1_" cx="2.8649" cy="101.5122" r="55.0004" gradientTransform="matrix(1.3933 0 0 -1.0181 51.0084 137.196)" gradientUnits="userSpaceOnUse">
					<stop  offset="0" style="stop-color:#D3D1D2"/>
					<stop  offset="0.5" style="stop-color:#C9C7C8"/>
					<stop  offset="1" style="stop-color:#8D8B8C"/>
				</radialGradient>
				<polygon id="_217958256-1" class="st8" points="41,0 28.5,0 29.8,67.7 40.8,67.7 				"/>
				
					<radialGradient id="_217960584-1_1_" cx="2.8649" cy="101.5122" r="54.9998" gradientTransform="matrix(1.3933 0 0 -1.0181 51.0084 137.196)" gradientUnits="userSpaceOnUse">
					<stop  offset="0" style="stop-color:#D3D1D2"/>
					<stop  offset="0.5" style="stop-color:#C9C7C8"/>
					<stop  offset="1" style="stop-color:#8D8B8C"/>
				</radialGradient>
				<polygon id="_217960584-1" class="st9" points="88.5,67.7 99.1,67.7 101.4,8.5 110,8.5 109.9,0 80,0 80,8.5 88.7,8.5 				"/>
				
					<radialGradient id="_217960752-5_1_" cx="2.8649" cy="101.5133" r="54.9987" gradientTransform="matrix(1.3933 0 0 -1.0181 51.0084 137.196)" gradientUnits="userSpaceOnUse">
					<stop  offset="0" style="stop-color:#D3D1D2"/>
					<stop  offset="0.5" style="stop-color:#C9C7C8"/>
					<stop  offset="1" style="stop-color:#8D8B8C"/>
				</radialGradient>
				<path id="_217960752-5" inkscape:connector-curvature="0" class="st10" d="M57.6,31.3l0.1-23h6.1c2.8,5.1,4.6,11.9,6,23H57.6z
					 M47.8,67.7h1.1h7.9H58l0.1-28h12.2c1,4.9,1.2,20.2,1.3,28h1h8h0.9c0.9-34.6-2-54.1-10-67.7H46.9L47.8,67.7z"/>
			</g>
		</g>
	</g>
</g>
</svg>
