<?xml version="1.0" encoding="utf-8"?>
<!-- Generator: Adobe Illustrator 21.1.0, SVG Export Plug-In . SVG Version: 6.00 Build 0)  -->
<svg version="1.1" id="svg9893" xmlns:svg="http://www.w3.org/2000/svg"
	 xmlns="http://www.w3.org/2000/svg" xmlns:xlink="http://www.w3.org/1999/xlink" x="0px" y="0px" viewBox="0 0 569.9 354"
	 style="enable-background:new 0 0 569.9 354;" xml:space="preserve">
<style type="text/css">
	.st0{fill:#D1D3D4;}
	.st1{fill:url(#path54_1_);}
	.st2{fill:url(#path82_1_);}
	.st3{fill:url(#path110_1_);}
	.st4{fill:url(#path138_1_);}
	.st5{fill:url(#path166_1_);}
	.st6{fill:url(#path194_1_);}
	.st7{fill:url(#path222_1_);}
	.st8{fill:url(#path258_1_);}
	.st9{fill:url(#path286_1_);}
	.st10{fill:url(#path314_1_);}
	.st11{fill:url(#path342_1_);}
	.st12{fill:url(#path370_1_);}
	.st13{fill:url(#path398_1_);}
	.st14{fill:url(#path426_1_);}
	.st15{fill:url(#path454_1_);}
	.st16{fill:url(#path482_1_);}
	.st17{fill:url(#path510_1_);}
	.st18{fill:url(#path538_1_);}
	.st19{fill:url(#path566_1_);}
	.st20{fill:url(#path594_1_);}
	.st21{fill:url(#path622_1_);}
	.st22{fill:url(#path650_1_);}
	.st23{fill:url(#path678_1_);}
	.st24{fill:url(#path706_1_);}
	.st25{fill:url(#path734_1_);}
	.st26{fill:#58595B;}
	.st27{fill:url(#path774_1_);}
	.st28{fill:url(#path802_1_);}
	.st29{fill:url(#path832_1_);}
	.st30{fill:url(#path862_1_);}
	.st31{fill:url(#path892_1_);}
</style>
<g id="layer1" transform="translate(-120.76179,-439.79871)">
	<path id="path22" class="st0" d="M688.9,607.4c0.1,0.5,0.2,1,0.3,1.6C689.1,608.4,689,607.9,688.9,607.4 M405.7,508.8
		c-158.2,0-285,47.4-285,106.8c0,59.1,127.8,106.8,285,106.8s285-47.9,285-106.8S562.8,508.8,405.7,508.8"/>
	
		<radialGradient id="path54_1_" cx="355.5708" cy="665.8462" r="1" gradientTransform="matrix(1230.3213 0 0 -1199.6896 -437062.6562 800496.125)" gradientUnits="userSpaceOnUse">
		<stop  offset="0" style="stop-color:#000000"/>
		<stop  offset="0.7" style="stop-color:#000033"/>
		<stop  offset="0.9045" style="stop-color:#004282"/>
		<stop  offset="0.955" style="stop-color:#1AA6DF"/>
		<stop  offset="1" style="stop-color:#1AA6DF"/>
	</radialGradient>
	<path id="path54" class="st1" d="M125.1,615.6c0,56.7,125.6,102.5,280.6,102.5l0,0c155,0,280.6-45.8,280.6-102.5l0,0
		c0-56.7-125.5-102.5-280.6-102.5l0,0C250.7,513.1,125.1,558.9,125.1,615.6"/>
	
		<linearGradient id="path82_1_" gradientUnits="userSpaceOnUse" x1="356.0242" y1="666.8808" x2="357.0242" y2="666.8808" gradientTransform="matrix(0 -217.1769 -217.1769 0 145236.3125 78045.0781)">
		<stop  offset="0" style="stop-color:#00053E"/>
		<stop  offset="0.809" style="stop-color:#003475"/>
		<stop  offset="1" style="stop-color:#006CA9"/>
	</linearGradient>
	<path id="path82" class="st2" d="M146.3,615.6c0,3.8,0.8,7.6,2.3,11.3l0,0c-0.6-2.4-1-4.9-1-7.4l0,0c0-46.9,116.2-85,259.4-85l0,0
		c131.8,0,240.6,32.2,257.2,73.9l0,0c-11.1-43.9-122.6-78.3-258.5-78.3l0,0C262.4,530.1,146.3,568.4,146.3,615.6"/>
	
		<linearGradient id="path110_1_" gradientUnits="userSpaceOnUse" x1="356.0242" y1="666.8807" x2="357.0242" y2="666.8807" gradientTransform="matrix(0 -217.1826 -217.1826 0 145243.6875 78047.1406)">
		<stop  offset="0" style="stop-color:#00053E"/>
		<stop  offset="0.809" style="stop-color:#003475"/>
		<stop  offset="1" style="stop-color:#006CA9"/>
	</linearGradient>
	<path id="path110" class="st3" d="M674.6,615.6c0,51.7-120.4,93.6-268.9,93.6l0,0c-132.2,0-242-33.2-264.6-76.9l0,0
		c17.2,45.5,130,80.7,266.6,80.7l0,0c148.5,0,268.8-41.5,268.8-92.8l0,0c0-5.2-1.2-10.3-3.6-15.3l0,0
		C674,608.4,674.6,612,674.6,615.6"/>
	
		<linearGradient id="path138_1_" gradientUnits="userSpaceOnUse" x1="356.1351" y1="667.3377" x2="357.1351" y2="667.3377" gradientTransform="matrix(0 -152.6989 -152.6989 0 102356.0781 55069.5938)">
		<stop  offset="0" style="stop-color:#00053E"/>
		<stop  offset="0.809" style="stop-color:#003475"/>
		<stop  offset="1" style="stop-color:#006CA9"/>
	</linearGradient>
	<path id="path138" class="st4" d="M455.8,624.7c-6,6.3-6.5,14.4-2.5,18l0,0c1.4,1.3,3,1.9,4.8,2l0,0c-2.6-3.3-3.8-9.6-0.6-14.7l0,0
		c-0.6-1.5-0.7-3.2-0.4-4.9l0,0c0.1-0.4-0.2-0.8-0.7-0.8l0,0C456.2,624.4,456,624.5,455.8,624.7"/>
	
		<linearGradient id="path166_1_" gradientUnits="userSpaceOnUse" x1="356.1355" y1="667.3393" x2="357.1355" y2="667.3393" gradientTransform="matrix(0 -152.5417 -152.5417 0 102315.75 55013.625)">
		<stop  offset="0" style="stop-color:#00053E"/>
		<stop  offset="0.809" style="stop-color:#003475"/>
		<stop  offset="1" style="stop-color:#006CA9"/>
	</linearGradient>
	<path id="path166" class="st5" d="M517.9,638C517.9,638,517.9,638.1,517.9,638L517.9,638C517.9,638.1,517.9,638.1,517.9,638
		L517.9,638C517.9,638,517.9,638,517.9,638L517.9,638z M518.4,642.1c0.3-0.6,0.6-1.2,1-1.9l0,0c0.2-0.5,0.1-0.7-0.1-0.7l0,0
		c-0.6-0.2-1.3-0.7-1.3-1.2l0,0c0-0.1,0-0.1-0.1-0.2l0,0C518,639.1,518.2,640.8,518.4,642.1"/>
	
		<linearGradient id="path194_1_" gradientUnits="userSpaceOnUse" x1="356.1361" y1="667.3418" x2="357.1361" y2="667.3418" gradientTransform="matrix(0 -152.2902 -152.2902 0 102157.6406 54924.0938)">
		<stop  offset="0" style="stop-color:#00053E"/>
		<stop  offset="0.809" style="stop-color:#003475"/>
		<stop  offset="1" style="stop-color:#006CA9"/>
	</linearGradient>
	<path id="path194" class="st6" d="M525.3,617.5c2,1.9,3.2,4.3,3.5,6.4l0,0c0.1,1,0.9,1.1,1.5,0.2l0,0c0.2-0.2,0.4-0.5,0.6-0.9l0,0
		c-0.2-0.2-0.4-0.5-0.5-0.7l0,0C529.4,621.5,527.3,619.3,525.3,617.5L525.3,617.5z"/>
	
		<linearGradient id="path222_1_" gradientUnits="userSpaceOnUse" x1="356.1362" y1="667.3423" x2="357.1362" y2="667.3423" gradientTransform="matrix(0 -152.2378 -152.2378 0 102038.75 54905.4375)">
		<stop  offset="0" style="stop-color:#00053E"/>
		<stop  offset="0.809" style="stop-color:#003475"/>
		<stop  offset="1" style="stop-color:#006CA9"/>
	</linearGradient>
	<path id="path222" class="st7" d="M441.9,613.6c1.6,2.2,2.4,5.4,2.3,9.4l0,0c0,1.1,0.7,1,1.2,0.3l0,0c0.3-0.4,0.5-0.8,0.8-1.1l0,0
		C445,618.5,443.2,614.9,441.9,613.6z"/>
	
		<linearGradient id="path258_1_" gradientUnits="userSpaceOnUse" x1="3383.6245" y1="13149.1768" x2="3384.6245" y2="13149.1768" gradientTransform="matrix(0 -1.882516e-02 -1.882516e-02 0 820.7667 648.0904)">
		<stop  offset="0" style="stop-color:#00053E"/>
		<stop  offset="0.809" style="stop-color:#003475"/>
		<stop  offset="1" style="stop-color:#006CA9"/>
	</linearGradient>
	<path id="path258" class="st8" d="M573.2,584.4L573.2,584.4L573.2,584.4z"/>
	
		<linearGradient id="path286_1_" gradientUnits="userSpaceOnUse" x1="356.1354" y1="667.3391" x2="357.1354" y2="667.3391" gradientTransform="matrix(0 -152.5651 -152.5651 0 102317.0625 55021.9219)">
		<stop  offset="0" style="stop-color:#00053E"/>
		<stop  offset="0.809" style="stop-color:#003475"/>
		<stop  offset="1" style="stop-color:#006CA9"/>
	</linearGradient>
	<path id="path286" class="st9" d="M497.5,634.7c-5.6,6.9-8.6,13.9-8.8,20.8l0,0c0,2.4,0.9,5.4,3,6.6l0,0c0.7,0.4,1.4,0.6,2.1,0.7
		l0,0c-0.3-1-0.4-1.9-0.4-2.8l0,0c-0.1-7.1,2.1-14.1,7.7-21l0,0c6.8-8.4,14-12.6,18.9-10.3l0,0c-0.3-1.8-1.2-3.4-3.3-4.4l0,0
		c-0.9-0.4-1.9-0.6-3-0.6l0,0C509.1,623.6,503.1,627.8,497.5,634.7"/>
	
		<linearGradient id="path314_1_" gradientUnits="userSpaceOnUse" x1="356.1363" y1="667.3427" x2="357.1363" y2="667.3427" gradientTransform="matrix(0 -152.2007 -152.2007 0 101942.7266 54892.2227)">
		<stop  offset="0" style="stop-color:#00053E"/>
		<stop  offset="0.809" style="stop-color:#003475"/>
		<stop  offset="1" style="stop-color:#006CA9"/>
	</linearGradient>
	<path id="path314" class="st10" d="M385.5,618.4c0.2,0.7,0,1.3-0.8,1.6l0,0c-7.6,2.9-15.3,7.4-20.6,14.5l0,0
		c-6,8-7.6,17.7-3.6,23.3l0,0c1,1.3,2.1,2.3,3.3,2.9l0,0c-2.2-6.7-0.6-15.6,4.5-22.5l0,0c5.2-7.1,11.1-9.8,17.9-12.7l0,0
		c0.9-0.4,1-0.9,0.8-1.7l0,0C386.7,622.5,385.8,619.2,385.5,618.4L385.5,618.4L385.5,618.4L385.5,618.4z"/>
	
		<linearGradient id="path342_1_" gradientUnits="userSpaceOnUse" x1="356.1359" y1="667.3409" x2="357.1359" y2="667.3409" gradientTransform="matrix(0 -152.3809 -152.3809 0 102128.5 54956.3359)">
		<stop  offset="0" style="stop-color:#00053E"/>
		<stop  offset="0.809" style="stop-color:#003475"/>
		<stop  offset="1" style="stop-color:#006CA9"/>
	</linearGradient>
	<path id="path342" class="st11" d="M441.7,641.4c-7.1,10.9-13.7,21.4-20.8,32.4l0,0c-0.4,0.5-0.7,0.8-1.4,0.9l0,0
		c-4.4,0-9.1,0-13.9,0l0,0c-0.5,0-0.8-0.2-1-0.6l0,0c0.4,1.7,1,4.7,1.2,5.4l0,0c0.1,0.5,0.5,0.7,1,0.7l0,0c5.2,0,11.5,0,15.8,0l0,0
		c0.6,0,1.1-0.4,1.4-0.9l0,0c6.4-10,13.3-20.9,19.8-31l0,0c1.4,5.1,2.2,7.4,4.8,9.8l0,0c2.7,2.4,5.2,3.1,8.9,3.1l0,0
		c3.4,0,6.7-1.3,10.6-2.9l0,0c1.4-0.6,2.7-1.3,3.8-2l0,0c0-1.9,0.2-3.7,0.5-5.5l0,0c0-0.2-0.2-1.4-1.2-0.7l0,0
		c-1.8,1.3-4.2,2.7-7.1,3.8l0,0c-3.6,1.4-5.3,1.9-8.7,1.8l0,0c-4.2,0-8-1.8-10.7-6l0,0c-1.5-2.3-2.1-5.7-2.3-8.2l0,0
		c0-0.2-0.2-0.4-0.4-0.4l0,0C441.9,641.1,441.8,641.2,441.7,641.4"/>
	
		<linearGradient id="path370_1_" gradientUnits="userSpaceOnUse" x1="356.1328" y1="667.3281" x2="357.1328" y2="667.3281" gradientTransform="matrix(0 -153.6553 -153.6553 0 103057.5078 55410.1172)">
		<stop  offset="0" style="stop-color:#00053E"/>
		<stop  offset="0.809" style="stop-color:#003475"/>
		<stop  offset="1" style="stop-color:#006CA9"/>
	</linearGradient>
	<path id="path370" class="st12" d="M564,647c-6.8,8.3-14.3,16.1-21.5,21.6l0,0c-11.2,8.6-22.3,10.8-27.8,5.3l0,0
		c-2.1-2.1-3.2-5-3.3-7.5l0,0c-0.1-1.4-0.8-1.4-1.4-0.8l0,0c-6.6,6.5-18,13.7-28.4,8.6l0,0c-5.3-2.6-8.1-7.5-9.1-12.9l0,0
		c0.7,3.9,1.5,9.4,3.3,12.9l0,0c1.2,2.3,3.9,4.8,5.5,5.7l0,0c9.2,4.6,22.4-0.6,30.9-8.8l0,0c0.1-0.1,0.1-0.1,0.2-0.3l0,0
		c0.4,1.5,0.9,3.2,0.9,3.5l0,0c0.6,1.9,1.5,3.6,2.3,4.5l0,0c5.8,6.6,18.1,3.6,30.9-6.3l0,0c7.2-5.5,12.5-11.1,19-18.7l0,0
		c0.3-0.3,0.2-0.8,0.1-1.5l0,0c-0.4-1.6-1-4.6-1.3-6.1l0,0C564.2,646.6,564.1,646.8,564,647 M472.3,661.1c0,0,0,0.1,0,0.1l0,0
		C472.4,661.2,472.4,661.2,472.3,661.1z M472.4,661.4C472.4,661.4,472.4,661.4,472.4,661.4L472.4,661.4c0-0.1,0-0.1,0-0.1l0,0
		C472.4,661.3,472.4,661.4,472.4,661.4"/>
	
		<linearGradient id="path398_1_" gradientUnits="userSpaceOnUse" x1="356.1337" y1="667.3318" x2="357.1337" y2="667.3318" gradientTransform="matrix(0 -153.2768 -153.2768 0 102753.8672 55275.543)">
		<stop  offset="0" style="stop-color:#00053E"/>
		<stop  offset="0.809" style="stop-color:#003475"/>
		<stop  offset="1" style="stop-color:#006CA9"/>
	</linearGradient>
	<path id="path398" class="st13" d="M475.7,624.2c-0.7,4.1-2.9,7.8-6.7,9.7l0,0c-3.2,1.6-7,1.3-9.6-1.1l0,0
		c-0.8-0.7-1.4-1.7-1.8-2.6l0,0c0.7,3.1,1.3,5.4,2.1,6.6l0,0c2.5,3.7,6.8,4.7,11.5,2.1l0,0c3.4-1.9,6.5-5.8,6.1-12.2l0,0
		c-0.2-3.2-1.1-6.5-2.6-9.1l0,0C475.6,619.6,476,621.8,475.7,624.2"/>
	
		<linearGradient id="path426_1_" gradientUnits="userSpaceOnUse" x1="356.1362" y1="667.3423" x2="357.1362" y2="667.3423" gradientTransform="matrix(0 -152.2375 -152.2375 0 102144.8828 54905.3047)">
		<stop  offset="0" style="stop-color:#00053E"/>
		<stop  offset="0.809" style="stop-color:#003475"/>
		<stop  offset="1" style="stop-color:#006CA9"/>
	</linearGradient>
	<path id="path426" class="st14" d="M573.2,584.4C573.2,584.4,573.2,584.4,573.2,584.4L573.2,584.4
		C573.2,584.4,573.2,584.4,573.2,584.4 M573.1,585c-2.2,3.7-43.9,67.3-46.5,73.9l0,0c-0.8,2.1-0.9,3.7-0.1,4.8l0,0
		c0.9,1.2,2.1,1.6,3.5,1.6l0,0c0.1-0.8,0.4-1.7,0.8-2.7l0,0c2.6-6.6,41.7-66,43.9-69.7l0,0c0.2-0.3,0.1-0.7,0.1-0.9l0,0
		c-0.1-0.6-1.4-6.7-1.6-7.5l0,0C573.3,584.6,573.2,584.8,573.1,585"/>
	
		<linearGradient id="path454_1_" gradientUnits="userSpaceOnUse" x1="356.1359" y1="667.3411" x2="357.1359" y2="667.3411" gradientTransform="matrix(0 -152.356 -152.356 0 102076.8125 54947.5312)">
		<stop  offset="0" style="stop-color:#00053E"/>
		<stop  offset="0.809" style="stop-color:#003475"/>
		<stop  offset="1" style="stop-color:#006CA9"/>
	</linearGradient>
	<path id="path454" class="st15" d="M399.9,614.6c0.1,0.1,0.2,0.3,0.3,0.4l0,0c2.5,3.7,3.9,9,4,14.4l0,0c0.2,1.1,0.6,1.2,1.2,0.6
		l0,0c0.5-0.5,1-1.1,1.5-1.6l0,0c-0.7-2.9-1.9-5.5-3-8.1l0,0C403.4,619.4,401.5,616.1,399.9,614.6L399.9,614.6z"/>
	
		<linearGradient id="path482_1_" gradientUnits="userSpaceOnUse" x1="356.136" y1="667.3416" x2="357.136" y2="667.3416" gradientTransform="matrix(0 -152.3162 -152.3162 0 102026.5 54933.3398)">
		<stop  offset="0" style="stop-color:#00053E"/>
		<stop  offset="0.809" style="stop-color:#003475"/>
		<stop  offset="1" style="stop-color:#006CA9"/>
	</linearGradient>
	<path id="path482" class="st16" d="M421.2,627.1c-9,6.8-16.6,17.4-20.4,22.2l0,0c-2.3,2.8-4.4,6.9-10.3,13.3l0,0
		c-9.3,10.1-21.6,15.9-33.4,11.9l0,0c-6.5-2.2-11.2-7.4-13-13.8l0,0c-0.4-1.2-1-1.6-1.7-0.8l0,0c-1.9,2.4-5.8,5.9-9.1,8.1l0,0
		c-0.4,0.3-1.2,0.8-2,0.4l0,0c-0.7-0.3-3.1-3.7-3.6-4.7l0,0c-0.1-0.1-0.1-0.2-0.1-0.3l0,0v0c0.8,4.2,1,4.7,2.1,6.7l0,0
		c1.3,2.2,2.6,3.7,2.9,3.8l0,0c0.8,0.4,1.5,0,1.9-0.2l0,0c2.5-1.3,7.5-5.1,9.6-7.8l0,0c0.7-0.6,1.3-0.2,1.5,0.4l0,0
		c0.9,2.8,2.2,5,3.7,7.3l0,0c1.6,2.6,4.8,5.2,9,6.4l0,0c5.4,1.5,11.2,1.8,18.8-1.1l0,0c6.1-2.3,12.5-7.1,17.4-12.5l0,0
		c5.9-6.4,8-10.5,10.3-13.3l0,0c3.8-4.7,9.8-13.1,18.2-20.3l0,0c2.9-2.5,6.1-4.1,8.1-3.3l0,0c1.2-3.1,0.6-4.8-0.7-5.7l0,0
		c-0.4-0.3-1-0.4-1.5-0.4l0,0C426.7,623.6,423.7,625.2,421.2,627.1"/>
	
		<linearGradient id="path510_1_" gradientUnits="userSpaceOnUse" x1="356.1363" y1="667.3426" x2="357.1363" y2="667.3426" gradientTransform="matrix(0 -152.2144 -152.2144 0 101843.9219 54897.0859)">
		<stop  offset="0" style="stop-color:#00053E"/>
		<stop  offset="0.809" style="stop-color:#003475"/>
		<stop  offset="1" style="stop-color:#006CA9"/>
	</linearGradient>
	<path id="path510" class="st17" d="M271.3,618.6c-5.1,2.6-11.2,7-14.2,13l0,0c-2.4,4.9-2.9,10.9,0.8,16.5l0,0
		c0.3,0.5,0.6,0.9,1,1.3l0,0c-1.2-4.7,0.1-9.8,2-13.5l0,0c3-6,7.2-8.9,11.4-11.6l0,0c1.8-1.1,2.6-2.2,1.5-5.2l0,0
		c-0.3-0.8-0.5-2.3-0.8-3.7l0,0C273.1,616.9,272.5,618.1,271.3,618.6"/>
	
		<linearGradient id="path538_1_" gradientUnits="userSpaceOnUse" x1="356.1328" y1="667.3281" x2="357.1328" y2="667.3281" gradientTransform="matrix(0 -153.6564 -153.6564 0 102872.1953 55411.0781)">
		<stop  offset="0" style="stop-color:#00053E"/>
		<stop  offset="0.809" style="stop-color:#003475"/>
		<stop  offset="1" style="stop-color:#006CA9"/>
	</linearGradient>
	<path id="path538" class="st18" d="M309.6,557.9c-14.6,5.5-21,17.1-18,24.8l0,0c0.6,1.5,1.5,2.6,2.8,3.4l0,0
		c-1-7.2,4.3-18.9,18.4-23.5l0,0c18.4-6.1,38.9-2.2,55.4,1.3l0,0c2.3-1.4,4.3-2.4,6.3-3.5l0,0c1-0.5-0.1-1.2-0.4-1.2l0,0
		c-13.2-2.5-26.7-5.4-40.1-5.4l0,0C325.8,553.8,317.6,554.9,309.6,557.9"/>
	
		<linearGradient id="path566_1_" gradientUnits="userSpaceOnUse" x1="356.136" y1="667.3416" x2="357.136" y2="667.3416" gradientTransform="matrix(0 -152.3082 -152.3082 0 101954.6484 54930.4688)">
		<stop  offset="0" style="stop-color:#00053E"/>
		<stop  offset="0.809" style="stop-color:#003475"/>
		<stop  offset="1" style="stop-color:#006CA9"/>
	</linearGradient>
	<path id="path566" class="st19" d="M370.9,601.4c-6.6,0.4-17,1.4-24,2.3l0,0c-1.7,0.2-1.9,0.5-2.3,1.1l0,0
		c-11.2,18.4-23.1,38.3-36.2,51.5l0,0c-14,14.3-25.7,18-38.1,18.1l0,0c-14.3,0.1-27-8-30.2-22.2l0,0c1.7,7.9,6.8,17.5,12.8,21.7l0,0
		c6,4.3,12,5.7,18.9,5.8l0,0c14.1,0.2,26.9-5.6,40.6-19.4l0,0c13.1-13.3,24.4-31.8,35.6-50.2l0,0c0.4-0.7,0.8-0.9,2.6-1.2l0,0
		c7-0.9,13.3-1.3,19.5-1.9l0,0c1.8-0.2,3.3-0.3,3.9,0.3l0,0c2.2,2.2,4.8,4.3,6.6,5.3l0,0c1.1,0,2.1,0.3,2.8,0.9l0,0
		c0.7-0.1,1.4-0.5,1.8-0.9l0,0c0.8-0.8,0.8-1.7,0.7-2.5l0,0c-0.3-1.5-0.7-4.5-1.2-5.4l0,0c0.3,0.7,0.1,1.6-0.5,2.4l0,0
		c-0.5,0.6-1.3,1.1-2.2,1.1l0,0c-0.8,0-1.3-0.3-2.3-0.8l0,0c-2.1-1.1-4.7-3-6.4-5.1l0,0c-0.5-0.6-0.7-0.7-1.5-0.7l0,0
		C371.5,601.4,371.2,601.4,370.9,601.4"/>
	
		<linearGradient id="path594_1_" gradientUnits="userSpaceOnUse" x1="356.1346" y1="667.3358" x2="357.1346" y2="667.3358" gradientTransform="matrix(0 -152.8876 -152.8876 0 102344.0703 55136.957)">
		<stop  offset="0" style="stop-color:#00053E"/>
		<stop  offset="0.809" style="stop-color:#003475"/>
		<stop  offset="1" style="stop-color:#006CA9"/>
	</linearGradient>
	<path id="path594" class="st20" d="M310.5,612.6c-1.5,1.1-3.8,1-4.7-0.5l0,0c-0.3-0.5-0.5-1.1-0.5-1.6l0,0
		c-0.1,2.4,0.8,5.9,1.6,7.1l0,0c0.9,1.3,3.2,1.9,5.1,0.5l0,0c4.3-3.1,8.1-5,12.4-5.8l0,0c1.1-1.5,2.3-3.2,3.7-5.1l0,0
		c0.1-0.2,0.1-0.4,0.1-0.4l0,0c-0.1-0.2-0.2-0.2-0.5-0.2l0,0C321.3,606.7,315.8,608.6,310.5,612.6"/>
	
		<linearGradient id="path622_1_" gradientUnits="userSpaceOnUse" x1="356.1417" y1="667.3651" x2="357.1417" y2="667.3651" gradientTransform="matrix(0 -150.0222 -150.0222 0 100608.125 54115.2773)">
		<stop  offset="0" style="stop-color:#00053E"/>
		<stop  offset="0.809" style="stop-color:#003475"/>
		<stop  offset="1" style="stop-color:#006CA9"/>
	</linearGradient>
	<path id="path622" class="st21" d="M488.4,554c0.1,0.1,0.2,0.3,0.3,0.4l0,0C488.6,554.2,488.5,554.1,488.4,554z"/>
	
		<linearGradient id="path650_1_" gradientUnits="userSpaceOnUse" x1="356.1363" y1="667.3425" x2="357.1363" y2="667.3425" gradientTransform="matrix(0 -152.2158 -152.2158 0 102000.3828 54897.6055)">
		<stop  offset="0" style="stop-color:#00053E"/>
		<stop  offset="0.809" style="stop-color:#003475"/>
		<stop  offset="1" style="stop-color:#006CA9"/>
	</linearGradient>
	<path id="path650" class="st22" d="M489.1,556.7c-0.2,4.1-3.4,8-11.2,12.2l0,0c-8.8,4.8-18.1,6.3-27.8,6.4l0,0
		c-23.4,0.2-45.1-8.9-67.7-13.8l0,0c0,1,0.3,2.2-0.5,2.8l0,0c-12.5,9.2-23.8,18.6-31.3,31.7l0,0c-0.3,0.3-0.1,0.6,0.3,0.6l0,0
		c2-0.1,3.9-0.2,5.8-0.3l0,0c6.9-10.8,14.2-17,25.5-25.3l0,0c0.8-0.6,1.7-1.1,1.4-3.5l0,0c22.6,5,39.8,13.3,69,13.4l0,0
		c8.7,0,21-2.9,27.6-6.9l0,0c7.6-4.6,9.6-7.9,9.9-11.5l0,0c0.1-1.1-0.2-2.8-0.4-3.6l0,0c-0.3-1.2-0.4-2.7-0.8-3.9l0,0
		C489,555.6,489.1,556.1,489.1,556.7"/>
	
		<linearGradient id="path678_1_" gradientUnits="userSpaceOnUse" x1="356.1353" y1="667.3386" x2="357.1353" y2="667.3386" gradientTransform="matrix(0 -152.6043 -152.6043 0 102219.5469 55036.0781)">
		<stop  offset="0" style="stop-color:#00053E"/>
		<stop  offset="0.809" style="stop-color:#003475"/>
		<stop  offset="1" style="stop-color:#006CA9"/>
	</linearGradient>
	<path id="path678" class="st23" d="M380.3,584.2c-0.3,0.3-0.6,0.5-0.9,0.8l0,0c-2.2,2.3-2.9,5.4-2.6,7.7l0,0c0.2,0.9,0.5,1.1,1,1
		l0,0c0.4-0.1,0.8-0.2,1.3-0.4l0,0c0.2-1.3,0.7-2.5,2-3.6l0,0c0.9-0.8,2.1-1.2,3.1-1l0,0c0.9-1.7,1.1-3.8,0.1-4.7l0,0
		c-0.5-0.4-1-0.6-1.6-0.6l0,0C381.8,583.4,381,583.7,380.3,584.2"/>
	
		<linearGradient id="path706_1_" gradientUnits="userSpaceOnUse" x1="356.1362" y1="667.3425" x2="357.1362" y2="667.3425" gradientTransform="matrix(0 -152.2242 -152.2242 0 101971.3438 54900.5898)">
		<stop  offset="0" style="stop-color:#00053E"/>
		<stop  offset="0.809" style="stop-color:#003475"/>
		<stop  offset="1" style="stop-color:#006CA9"/>
	</linearGradient>
	<path id="path706" class="st24" d="M389.2,592.2c-2.1,4.1-5.7,6.3-9.1,7.4l0,0c0,0-0.7,0.2-0.6,0.8l0,0c0.1,0.7,2.5,2.3,4,3.3l0,0
		c0.2-0.1,0.5-0.2,0.5-0.2l0,0c1.7-0.7,4.6-2.4,6.3-6.1l0,0c1.1-2.4,1.7-4.2,1.2-8.3l0,0c-0.3-2.8-0.9-5.4-1.7-6.7l0,0
		C391.4,585.3,390.8,589.1,389.2,592.2"/>
	
		<linearGradient id="path734_1_" gradientUnits="userSpaceOnUse" x1="356.1361" y1="667.3418" x2="357.1361" y2="667.3418" gradientTransform="matrix(0 -152.2916 -152.2916 0 101932.7812 54924.625)">
		<stop  offset="0" style="stop-color:#00053E"/>
		<stop  offset="0.809" style="stop-color:#003475"/>
		<stop  offset="1" style="stop-color:#006CA9"/>
	</linearGradient>
	<path id="path734" class="st25" d="M326.8,573c0.4,1,0.4,2.6-0.4,4.5l0,0c-6.2,14.5-18,26.1-32.4,26.6l0,0
		c-8.7,0.3-15.2-4.2-18.2-10.7l0,0c2.2,4.9,6.8,9.3,10.8,11.8l0,0c3.1,2,7,3,11.4,2.9l0,0c15-0.5,26.3-12.9,30.1-23.3l0,0
		c1-2.8,0.2-5.8-0.2-7.9l0,0C327.7,576,327.4,574.3,326.8,573L326.8,573L326.8,573L326.8,573z"/>
	<path id="path746" class="st26" d="M688.9,607.4c0.1,0.5,0.2,1,0.3,1.6C689.1,608.4,689,607.9,688.9,607.4 M122.7,616.8
		c-0.1-12.5,5.5-24.9,17-36.6c40.8-41.2,147.7-69,265.5-69.5c156-0.6,283.2,45.9,283.5,103.7c0.1,12.5-5.8,24.8-17.4,36.5
		c-40.8,41.2-147.4,69.1-265.1,69.6C250.2,721.2,123,674.7,122.7,616.8 M405.7,508.8c-158.2,0-285,47.4-285,106.8
		c0,59.1,127.8,106.8,285,106.8s285-47.9,285-106.8S562.8,508.8,405.7,508.8"/>
	
		<linearGradient id="path774_1_" gradientUnits="userSpaceOnUse" x1="356.2169" y1="666.6324" x2="357.2169" y2="666.6324" gradientTransform="matrix(-65.8927 -245.9149 -245.9149 65.8927 187750.0469 44446.4844)">
		<stop  offset="0" style="stop-color:#B2B4B6"/>
		<stop  offset="0.35" style="stop-color:#DCDDDE"/>
		<stop  offset="1" style="stop-color:#B2B4B6"/>
	</linearGradient>
	<path id="path774" class="st27" d="M121.6,615.6c0,2.8,0.3,5.6,0.9,8.3l0,0c-0.4-2.3-0.7-4.7-0.7-7.1l0,0
		c-0.1-12.7,5.6-25.5,17.3-37.3l0,0c41-41.4,148-69.2,266.1-69.7l0,0c16.4-0.1,32.4,0.4,48,1.3l0,0c-15.5-1-31.3-1.5-47.5-1.5l0,0
		C248.2,509.7,121.6,556.9,121.6,615.6"/>
	
		<linearGradient id="path802_1_" gradientUnits="userSpaceOnUse" x1="356.2191" y1="666.6363" x2="357.2191" y2="666.6363" gradientTransform="matrix(-65.5856 -244.7686 -244.7686 65.5856 187050.8594 44108.5117)">
		<stop  offset="0" style="stop-color:#B2B4B6"/>
		<stop  offset="0.35" style="stop-color:#DCDDDE"/>
		<stop  offset="1" style="stop-color:#B2B4B6"/>
	</linearGradient>
	<path id="path802" class="st28" d="M689.6,614.5c0.1,12.7-5.9,25.3-17.6,37.1l0,0c-40.9,41.2-147.8,69.4-265.8,69.9l0,0
		c-16.7,0.1-33-0.4-48.9-1.3l0,0c15.7,1,31.9,1.5,48.4,1.5l0,0c156.6,0,284.1-47.8,284.1-105.9l0,0c0-2.2-0.2-4.4-0.6-6.6l0,0
		C689.5,610.9,689.6,612.7,689.6,614.5"/>
	
		<linearGradient id="path832_1_" gradientUnits="userSpaceOnUse" x1="355.5007" y1="664.7222" x2="356.5007" y2="664.7222" gradientTransform="matrix(0 218.2919 218.2919 0 -144697.75 -77096.6641)">
		<stop  offset="0" style="stop-color:#FFFFFF"/>
		<stop  offset="0.691" style="stop-color:#F7F7F8"/>
		<stop  offset="0.8" style="stop-color:#D1D3D4"/>
		<stop  offset="1" style="stop-color:#BCBEC0"/>
	</linearGradient>
	<path id="path832" class="st29" d="M136.8,615.6c0,51.7,120.4,93.6,268.9,93.6l0,0c148.5,0,268.9-41.9,268.9-93.6l0,0
		c0-51.7-120.4-93.6-268.9-93.6l0,0C257.2,522,136.8,563.9,136.8,615.6 M146.3,615.6c0-47.2,116.1-85.5,259.4-85.5l0,0
		c143.3,0,259.4,38.3,259.4,85.5l0,0c0,47.2-116.1,85.5-259.4,85.5l0,0C262.4,701.1,146.3,662.8,146.3,615.6"/>
	
		<linearGradient id="path862_1_" gradientUnits="userSpaceOnUse" x1="355.237" y1="663.6353" x2="356.237" y2="663.6353" gradientTransform="matrix(0 108.6236 108.6236 0 -71636.1094 -38011.1328)">
		<stop  offset="0" style="stop-color:#FFFFFF"/>
		<stop  offset="0.691" style="stop-color:#ECEDED"/>
		<stop  offset="0.8" style="stop-color:#E6E7E8"/>
		<stop  offset="1" style="stop-color:#D1D3D4"/>
	</linearGradient>
	<path id="path862" class="st30" d="M557.9,583.9c-1.1,0-1.6,0.1-2.1,1.1l0,0c-1.6,3.2-21.8,33.3-25.5,39.2l0,0
		c-0.6,0.9-1.4,0.8-1.5-0.2l0,0c-0.4-3.5-3.4-7.5-8.1-9.4l0,0c-3.6-1.5-7.1-1.7-10.8-1.2l0,0c-6.6,0.9-12.5,4.4-17.7,8.3l0,0
		c-7.8,5.9-14.6,13.6-23.3,19.3l0,0c-4.8,3.1-11.3,5.8-15.6,1.8l0,0c-3.9-3.7-3.5-11.8,2.5-18l0,0c0.6-0.7,1.4-0.1,1.3,0.5l0,0
		c-0.6,2.8,0.1,5.7,2.3,7.6l0,0c2.6,2.4,6.4,2.6,9.6,1.1l0,0c3.8-1.9,6-5.5,6.7-9.7l0,0c1-6.4-3.9-12.1-10.1-12.5l0,0
		c-5-0.4-9.8,1.4-14.5,5.3l0,0c-2.3,1.9-3.7,3.4-5.7,6.3l0,0c-0.5,0.7-1.3,0.8-1.2-0.3l0,0c0.2-8.2-3.2-12.8-9.9-13l0,0
		c-5.3-0.1-10.9,2.7-15.3,6.2l0,0c-4.8,3.9-9,9-13.5,13.8l0,0c-0.6,0.6-1,0.6-1.2-0.6l0,0c-0.1-5.4-1.5-10.7-4-14.4l0,0
		c-0.9-1.3-2.8-1.9-4.3-1.1l0,0c-0.7,0.4-3.3,1.6-5.1,3l0,0c-0.9,0.7-1.3,1.8-0.9,3.2l0,0c2.4,8.1,1.9,17.3-1.4,25.1l0,0
		c-3,7.1-8.9,13.6-15.8,15.8l0,0c-4.6,1.4-9.3,0.7-12.2-3.3l0,0c-4-5.6-2.4-15.2,3.6-23.3l0,0c5.3-7.1,12.9-11.6,20.6-14.5l0,0
		c0.9-0.3,1.1-0.9,0.8-1.7l0,0c-0.4-1.3-1.1-3-1.3-3.7l0,0c-0.7-1.9-2.7-2.2-5-1.9l0,0c-5.5,0.6-10.5,2.5-15.5,5.2l0,0
		c-12.9,6.9-19.4,20.3-22.3,27.5l0,0c-1.4,3.4-2.5,5.6-4,7.5l0,0c-2,2.6-4.6,4.9-9.3,9l0,0c-0.4,0.4-0.7,1.2-0.4,1.9l0,0
		c0.5,1,2.9,4.4,3.6,4.7l0,0c0.8,0.4,1.6-0.2,2-0.4l0,0c3.3-2.2,7.2-5.7,9.1-8.1l0,0c0.7-0.8,1.4-0.5,1.7,0.8l0,0
		c1.8,6.4,6.5,11.6,13,13.8l0,0c11.9,4,24.2-1.8,33.4-11.9l0,0c5.9-6.4,8-10.5,10.3-13.3l0,0c3.8-4.7,11.4-15.4,20.4-22.2l0,0
		c3.3-2.5,7.2-4.4,9.2-3.2l0,0c1.6,1,2.1,3.4-0.4,8l0,0c-9.2,16.8-22.7,36.5-25.2,41.2l0,0c-0.5,0.8-0.1,1.5,0.8,1.5l0,0
		c4.8,0,9.6,0,13.9,0l0,0c0.7,0,1.1-0.4,1.4-0.9l0,0c7-11,13.7-21.5,20.8-32.4l0,0c0.4-0.6,0.8-0.1,0.8,0.1l0,0
		c0.1,2.5,0.8,6,2.3,8.2l0,0c2.7,4.2,6.5,6,10.7,6l0,0c3.4,0,5.1-0.5,8.7-1.8l0,0c2.9-1.1,5.3-2.5,7.1-3.8l0,0
		c1.1-0.7,1.2,0.5,1.2,0.7l0,0c-1.6,8.8,0.4,19.1,9.1,23.4l0,0c10.4,5.1,21.9-2.1,28.4-8.6l0,0c0.6-0.6,1.3-0.6,1.4,0.8l0,0
		c0.1,2.5,1.3,5.4,3.3,7.5l0,0c5.5,5.5,16.7,3.3,27.8-5.3l0,0c7.2-5.5,14.7-13.4,21.5-21.6l0,0c0.3-0.3,0.4-0.8,0-1.4l0,0
		c-1-1.1-2.5-2.3-3.6-3.3l0,0c-0.5-0.4-1.1-0.3-1.5,0l0,0c-6.9,6.6-13.2,14.1-22.2,20.4l0,0c-3,2.1-7.9,3.8-10.1,0.9l0,0
		c-0.8-1.1-0.8-2.7,0.1-4.8l0,0c2.6-6.6,44.4-70.1,46.5-73.9l0,0c0.4-0.7,0-1.1-0.8-1.1l0,0C568,583.9,562.3,583.9,557.9,583.9
		 M491.7,662c-2.1-1.1-3.1-4.1-3-6.6l0,0c0.1-6.8,3.1-13.9,8.8-20.8l0,0c6.8-8.4,14.4-12.8,19.4-10.4l0,0c5.1,2.5,3.5,8.4,1.2,13.1
		l0,0c-0.2,0.4-0.2,0.7-0.1,1l0,0c0.1,0.5,0.7,1,1.3,1.2l0,0c0.2,0.1,0.3,0.2,0.1,0.7l0,0c-1.8,3.8-3.4,6-5.6,9.3l0,0
		c-2,3.1-4.3,5.4-7.1,7.7l0,0c-3.2,2.7-7.5,5.6-11.4,5.6l0,0C494,662.8,492.8,662.6,491.7,662"/>
	
		<linearGradient id="path892_1_" gradientUnits="userSpaceOnUse" x1="355.3832" y1="664.2381" x2="356.3832" y2="664.2381" gradientTransform="matrix(0 150.5815 150.5815 0 -99657.7266 -52979.6914)">
		<stop  offset="0" style="stop-color:#FFFFFF"/>
		<stop  offset="0.691" style="stop-color:#ECEDED"/>
		<stop  offset="0.8" style="stop-color:#E6E7E8"/>
		<stop  offset="1" style="stop-color:#D1D3D4"/>
	</linearGradient>
	<path id="path892" class="st31" d="M324,545.8c-25.6,2.2-50.1,16.6-50.1,38.5l0,0c0,11.1,7.9,20.1,20.1,19.7l0,0
		c14.4-0.5,26.2-12,32.4-26.6l0,0c2.3-5.5-2-7.8-4.1-4.6l0,0c-3.7,5.7-8.9,10.2-14.5,12.9l0,0c-6.8,3.3-14,2.4-16.2-3.1l0,0
		c-3.1-7.8,3.3-19.4,18-24.8l0,0c21.1-7.8,43.3-2.6,64.5,1.4l0,0c0.3,0,1.4,0.6,0.4,1.2l0,0c-3.8,2.1-7.6,3.8-13.4,8.8l0,0
		c-4.2,3.6-9.7,8.4-13.9,13.6l0,0c-4.2,5.1-7.2,9.7-11.1,14.8l0,0c-0.5,0.7-1.2,0.7-1.2,0.7l0,0c-9.6,1.6-19.1,2.7-27.7,8.7l0,0
		c-1.8,1.2-2.6,3.4-1.5,5.1l0,0c1,1.5,3.2,1.6,4.7,0.5l0,0c5.4-4,10.9-5.9,17.2-6.1l0,0c0.3,0,0.4,0.1,0.5,0.2l0,0
		c0.1,0.1,0,0.3-0.1,0.4l0,0c-9.5,13.2-11.9,16.1-19,24.3l0,0c-3.6,4.2-7.2,7.7-11.2,11.4l0,0c-16.2,15-33.6,14.8-39.9,5.4l0,0
		c-3.7-5.7-3.2-11.6-0.8-16.5l0,0c3-6,9.1-10.5,14.2-13l0,0c1.9-1,2.4-3.4,0.5-5.6l0,0c-1.2-1.4-4.1-1.7-6.3-1.3l0,0
		c-6.6,1.2-14.5,6.2-19.1,12.3l0,0c-5.2,6.8-7.8,15-7,24.2l0,0c1.6,16.7,15.3,26.3,30.8,26.2l0,0c12.4-0.1,24.1-3.8,38.1-18.1l0,0
		c13.1-13.3,25-33.1,36.2-51.5l0,0c0.4-0.6,0.6-0.9,2.3-1.1l0,0c7-0.9,17.3-1.9,24-2.3l0,0c1.5-0.1,1.8-0.1,2.4,0.7l0,0
		c1.7,2.2,4.3,4,6.4,5.1l0,0c1,0.6,1.5,0.8,2.3,0.8l0,0c1,0,1.7-0.5,2.2-1.1l0,0c0.7-0.8,0.9-1.8,0.5-2.4l0,0
		c-0.4-0.7-5-3.2-5.2-4.3l0,0c-0.1-0.6,0.6-0.8,0.6-0.8l0,0c3.4-1.1,6.9-3.3,9.1-7.4l0,0c2.1-4,2.4-9.4-1.4-12.4l0,0
		c-3.4-2.6-8.5-2.2-12.6,1.4l0,0c-4,3.6-5.3,8.7-4.8,13.2l0,0c0.1,0.8,0.1,1-1,1.1l0,0c-6.1,0.5-12,0.7-18.6,1l0,0
		c-0.4,0-0.6-0.3-0.3-0.6l0,0c7.6-13.1,18.8-22.5,31.3-31.7l0,0c0.8-0.6,0.6-1.8,0.5-2.8l0,0c22.5,4.9,44.3,14,67.7,13.8l0,0
		c9.7-0.1,18.9-1.5,27.8-6.4l0,0c7.8-4.2,10.9-8.2,11.2-12.2l0,0c0.2-2.8-1.8-4.6-4.6-4l0,0c-23.6,5.4-46.1,5.4-69.6,2.5l0,0
		c-26.7-3.2-52.3-9.9-78.8-9.9l0,0C332.1,545.3,328.1,545.5,324,545.8 M376.8,592.7c-0.3-2.5,0.5-5.8,3.1-8.2l0,0
		c1.3-1.2,3.2-1.5,4.3-0.5l0,0c1.2,1.1,0.7,3.7-0.6,5.6l0,0c-1.4,2-3.7,3.8-5.8,4.2l0,0c-0.1,0-0.1,0-0.2,0l0,0
		C377.2,593.7,376.9,593.5,376.8,592.7"/>
</g>
</svg>
