<?xml version="1.0" encoding="utf-8"?>
<!-- Generator: Adobe Illustrator 21.1.0, SVG Export Plug-In . SVG Version: 6.00 Build 0)  -->
<svg version="1.1"
	 id="Layer_1" text-rendering="geometricPrecision" image-rendering="optimizeQuality" shape-rendering="geometricPrecision"
	 xmlns="http://www.w3.org/2000/svg" xmlns:xlink="http://www.w3.org/1999/xlink" x="0px" y="0px" viewBox="0 0 2049 2348"
	 style="enable-background:new 0 0 2049 2348;" xml:space="preserve">
<style type="text/css">
	.st0{fill:#DA251D;}
</style>
<g id="Ebene_x0020_1">
	<g id="g1963">
		<path id="path1965" class="st0" d="M1496,341c-47.1,210-65.7,306.5-103.9,458.5c-36.7,145.9-65.1,281.3-114.3,347
			c-49.9,66.6-116.5,81.1-161.8,86.2c-23.5,2.6-40.6,3.8-91.4,4c-50.8-0.2-67.9-1.4-91.4-4c-45.3-5.1-111.9-19.6-161.8-86.2
			c-49.2-65.7-77.6-201.1-114.4-347C618.7,647.5,600.1,551,553,341c0,0-47,1.8-67.8,3.3c-28.1,2-50.1,4.4-74.1,7.6
			c0,0,27,431.9,39.3,614.9c12.9,192.5,35.5,516.8,56.7,761.7c0,0,39.4,6.3,104.9,10c68.9,4,99.5,4.4,99.5,4.4
			c28.3-107.9,63.4-257.6,103.2-321.4c32.4-51.9,82.2-57.4,110.5-61.3c44.4-6,81.8-7,99.2-6.4l0,0c0.1,0,0.1,0,0.2,0
			c0.1,0,0.1,0,0.2,0l0,0c17.3-0.6,54.8,0.4,99.2,6.4c28.2,3.9,78.1,9.4,110.5,61.3c39.8,63.9,74.9,213.6,103.2,321.4
			c0,0,30.6-0.5,99.5-4.4c65.5-3.8,104.9-10,104.9-10c21.2-244.9,43.8-569.2,56.7-761.7c12.2-183,39.2-614.9,39.2-614.9
			c-24-3.2-46-5.6-74.1-7.6C1543,342.9,1496,341,1496,341L1496,341z"/>
		<path id="path1967" class="st0" d="M2040.2,596c-27.9-274.3-210.9-332.2-371.5-359.2c-81-13.6-224.8-25.1-317.1-28.9
			c-80.6-5.2-270.7-7.7-327.1-7.8c-56.4,0-246.5,2.6-327.1,7.8c-92.2,3.8-236.1,15.3-317,28.9C219.7,263.8,36.7,321.7,8.8,596
			C1.2,670.7-1,768.2,0.4,873.2c2.3,173.8,17.2,291.2,25.8,372.5c5.9,55.8,29.2,223.4,59.1,310.1c41.1,119.2,78,153.9,121.5,189.3
			c79.5,64.9,210.5,84.8,238.4,89.8c147.9,26.6,447.2,31.4,579.3,31.2c132.1,0.2,431.5-4.6,579.3-31.2c27.9-5,158.9-25,238.4-89.8
			c43.5-35.5,80.4-70.2,121.5-189.3c29.9-86.7,53.2-254.4,59.1-310.1c8.5-81.2,23.5-198.6,25.7-372.5
			C2050,768.2,2047.8,670.7,2040.2,596L2040.2,596z M1939.7,1056.8c-16.2,219.1-35.7,350.5-63.6,445.3
			c-24.5,83-54.8,138.7-99.1,178.8c-73.9,66.9-175.7,81.2-235.4,90.1c-129,19.1-346.3,25.8-517.1,25.9
			c-170.8-0.1-388-6.7-517.1-25.9c-59.7-8.9-161.5-23.2-235.4-90.1c-44.3-40.1-74.6-95.8-99.1-178.8
			c-27.9-94.7-47.4-226.1-63.6-445.3c-9.8-132.1-7.7-346.1,7-461.1c21.9-171.5,107-257.9,289.5-290.4
			c85.1-15.2,199.6-25.9,308.2-31.3c87.1-5.9,230.4-8.8,310.5-8.1c80-0.7,223.4,2.2,310.5,8.1c108.6,5.4,223.1,16.1,308.2,31.3
			c182.5,32.5,267.6,118.9,289.5,290.4C1947.4,710.7,1949.4,924.7,1939.7,1056.8z"/>
	</g>
	<path class="st0" d="M1608.7,2175.5v-30.9l32-3.1c10.3-2.1,14.4-11.3,16.5-13.4l77.4-126.9c6.2-9.3,0-18.6-8.3-19.6l-40.2-4.1v-32
		h176.4c10.3,0,16.5,7.2,20.6,13.4l103.1,157.8c8.3,12.4,14.4,22.7,24.8,23.7l33,3.1v32h-199.1v-30.9l24.8-3.1
		c12.4-1,22.7-7.2,12.4-21.7l-9.3-14.4h-141.3l-11.3,17.5c-6.2,10.3,0,17.5,10.3,18.6l25.8,3.1v30.9L1608.7,2175.5L1608.7,2175.5z
		 M1756.2,2064.1h89.7l-45.4-70.1L1756.2,2064.1z"/>
	<path class="st0" d="M1476.6,1945.5h-226.9v32l27.8,2.1c11.3,2.1,15.5,9.3,15.5,19.6c0,10.3,0,115.5,0,123.8
		c0,9.3-4.1,17.5-13.4,18.6l-29.9,4.1v29.9h226.9c105.2,0,150.6-50.5,150.6-118.6C1627.2,1997.1,1581.8,1945.5,1476.6,1945.5
		L1476.6,1945.5L1476.6,1945.5z M1441.6,2131.2h-58.8v-141.3h58.8c56.7,0,79.4,12.4,79.4,71.2
		C1521,2118.8,1498.3,2131.2,1441.6,2131.2L1441.6,2131.2z"/>
	<path class="st0" d="M13,2175.5h184.6v-30.9l-32-3.1c-7.2-1-14.4-5.2-14.4-20.6v-37.1h142.3v35.1c0,10.3-2.1,20.6-14.4,21.7
		l-32,3.1v32h184.6v-32l-33-3.1c-6.2-1-13.4-6.2-13.4-18.6v-119.6c0-12.4,4.1-20.6,14.4-21.7l32-3.1v-32H247.1v30.9l32,4.1
		c11.3,1,14.4,10.3,14.4,21.7v35.1H151.2v-36.1c0-13.4,6.2-19.6,15.5-20.6l30.9-3.1v-32H14v32l30.9,3.1c11.3,1,15.5,10.3,14.4,21.7
		v116.6c0,13.4-3.1,21.7-15.5,22.7l-30.9,3.1L13,2175.5L13,2175.5z"/>
	<path class="st0" d="M440,2060c0-72.2,58.8-122.7,188.8-122.7c128.9,0,187.7,50.5,187.7,122.7c0,73.2-58.8,123.8-187.7,123.8
		C498.8,2183.8,440,2133.3,440,2060L440,2060z M628.8,1980.6c-52.6,0-82.5,19.6-82.5,79.4c0,60.9,29.9,80.5,82.5,80.5
		c51.6,0,81.5-19.6,81.5-80.5C710.3,2000.2,680.3,1980.6,628.8,1980.6L628.8,1980.6z"/>
	<path class="st0" d="M826.8,2175.5h146.5v-30.9l-30.9-3.1c-9.3-1-14.4-8.2-14.4-19.6v-116.6l121.7,160.9c4.1,6.2,12.4,9.3,19.6,9.3
		l115.5,0v-174.3c0-8.2,2.1-19.6,13.4-20.6l32-3.1v-32h-146.5v30.9l32,4.1c11.3,1,13.4,11.3,13.4,21.7v113.5l-120.7-159.9
		c-5.2-6.2-11.3-10.3-19.6-10.3H826.8v32l29.9,3.1c11.3,2.1,15.5,7.2,15.5,21.7v116.6c0,14.4-4.1,20.6-15.5,22.7l-29.9,3.1
		L826.8,2175.5L826.8,2175.5z"/>
</g>
</svg>
