<?xml version="1.0" encoding="utf-8"?>
<!-- Generator: Adobe Illustrator 21.1.0, SVG Export Plug-In . SVG Version: 6.00 Build 0)  -->
<svg version="1.1" id="Layer_1" xmlns="http://www.w3.org/2000/svg" xmlns:xlink="http://www.w3.org/1999/xlink" x="0px" y="0px"
	 viewBox="0 0 1024 590.3" style="enable-background:new 0 0 1024 590.3;" xml:space="preserve">
<style type="text/css">
	.st0{fill:#ED1C24;}
</style>
<g>
	<g>
		<polygon points="155,321 128.9,321 128.9,306.7 150.9,306.7 178.7,306.7 201.1,306.7 201.1,321 173.9,321 173.9,369.8 155,369.8 
					"/>
		<polygon points="227.7,369.8 208.8,369.8 208.7,351.6 208.7,324.9 208.8,306.7 227.7,306.7 227.7,330.8 261.9,330.8 261.9,306.7 
			281,306.7 281,324.9 281,351.6 281,369.8 261.9,369.8 261.9,345.2 227.7,345.2 		"/>
		<path d="M313.1,345.2h-5.4c0.1,3.3,0.9,5.9,2.4,7.6c1.6,1.7,4.7,2.6,9.3,2.6h10.7h30.9v14.4h-22.1H311c-8.4,0-14.2-1.5-17.5-4.5
			c-3.3-3-4.9-7.6-4.9-13.6v-26.8c0-6.1,1.6-10.6,4.9-13.6c3.3-3,9.1-4.5,17.5-4.5h27.8h22.1V321h-30.9h-10.7
			c-4.6,0-7.7,0.9-9.3,2.6c-1.6,1.7-2.4,4.1-2.4,7.2h5.4h47.9v14.4L313.1,345.2L313.1,345.2z"/>
		<path d="M443.6,369.8h-18.9l-0.1-18.2v-26.8l0.1-18.2h22.3h27.8c8.5,0,14.3,1.6,17.4,4.7c3.1,3.1,4.7,7.6,4.7,13.5v2.7v2.3
			c0,5.9-1.6,10.4-4.7,13.5c-3.1,3.1-8.9,4.7-17.4,4.7h-11h-8.5h-11.7L443.6,369.8L443.6,369.8z M466,333.7c5,0,8.2-0.8,9.7-2.4
			c1.4-1.6,2.2-2.9,2.2-3.9c0-1-0.7-2.3-2.2-3.9c-1.5-1.6-4.7-2.4-9.7-2.4h-10.7h-11.7v12.6L466,333.7L466,333.7z"/>
		<polygon points="523.5,369.8 504.6,369.8 504.6,306.7 523.6,306.7 523.6,345.4 		"/>
		<path d="M598.7,365.1c-3.1,3.1-8.9,4.7-17.4,4.7h-27.8c-8.4,0-14.2-1.5-17.5-4.5c-3.3-3-4.9-7.6-4.9-13.6v-26.8
			c0-6.1,1.6-10.6,4.9-13.6c3.3-3,9.1-4.5,17.5-4.5h27.8c8.5,0,14.3,1.6,17.4,4.7c3.1,3.1,4.7,7.6,4.7,13.5v6.2h-19
			c0-3.5-0.7-6-2.2-7.6c-1.4-1.6-4.7-2.4-9.7-2.4h-10.7c-4.6,0-7.7,0.9-9.3,2.6c-1.6,1.7-2.3,4.2-2.3,7.4v14.4
			c0,3.2,0.8,5.7,2.3,7.4c1.6,1.7,4.7,2.6,9.3,2.6h10.7c5,0,8.2-0.8,9.7-2.4c1.5-1.6,2.2-4.1,2.2-7.6h19v6.2
			C603.4,357.5,601.9,362,598.7,365.1"/>
		<polygon points="647.2,345.2 630.1,345.2 630.1,369.8 611.1,369.8 611.1,306.7 630.2,306.7 630.1,330.6 647.1,330.6 664.2,306.7 
			683.3,306.7 663.8,338.2 683.3,369.8 664.2,369.8 		"/>
		<rect x="691.1" y="330.8" width="44.5" height="14.4"/>
		<path d="M814.9,351.6c0,5.9-1.6,10.4-4.7,13.5c-3.1,3.1-8.9,4.7-17.4,4.7H765c-8.4,0-14.2-1.5-17.5-4.5c-3.3-3-4.9-7.6-4.9-13.6
			v-44.9h19.1v38.7c0,3.2,0.8,5.7,2.3,7.4c1.6,1.7,4.7,2.6,9.3,2.6H784c5,0,8.2-0.8,9.7-2.4c1.4-1.6,2.2-4.1,2.2-7.6v-38.7h19
			L814.9,351.6L814.9,351.6z"/>
		<path d="M841.6,369.8h-18.9l-0.1-18.2v-26.8l0.1-18.2h22.3h27.8c8.5,0,14.3,1.6,17.4,4.7c3.1,3.1,4.7,7.6,4.7,13.5v2.7v2.3
			c0,5.9-1.6,10.4-4.7,13.5c-3.1,3.1-8.9,4.7-17.4,4.7h-11h-8.5h-11.8L841.6,369.8L841.6,369.8z M864,333.7c5,0,8.2-0.8,9.7-2.4
			c1.4-1.6,2.2-2.9,2.2-3.9c0-1-0.7-2.3-2.2-3.9c-1.5-1.6-4.7-2.4-9.7-2.4h-10.7h-11.8v12.6L864,333.7L864,333.7z"/>
		<path d="M142.9,438.3h-14l-0.1-13.5V405l0.1-13.5h16.5h20.7c6.3,0,10.6,1.2,12.9,3.5c2.3,2.3,3.5,5.7,3.5,10v2v1.7
			c0,4.4-1.2,7.7-3.5,10c-2.3,2.3-6.6,3.5-12.9,3.5h-8.1h-6.3h-8.7L142.9,438.3L142.9,438.3z M159.5,411.5c3.7,0,6.1-0.6,7.2-1.8
			c1.1-1.2,1.6-2.2,1.6-2.9c0-0.8-0.5-1.7-1.6-2.9c-1.1-1.2-3.5-1.8-7.2-1.8h-7.9h-8.7v9.4L159.5,411.5L159.5,411.5z"/>
		<path d="M244.9,438.3h-15.8l-15.7-16.1h-8.7v16.1h-14v-46.8h16.5h20.7c6.3,0,10.6,1.2,12.9,3.5c2.3,2.3,3.5,5.7,3.5,10v2v1.7
			c0,4.4-1.2,7.7-3.5,10c-2.3,2.3-5.5,3.5-9.4,3.5h-2.1L244.9,438.3z M221.4,411.5c3.7,0,6.1-0.6,7.2-1.8c1.1-1.2,1.6-2.2,1.6-2.9
			c0-0.8-0.5-1.7-1.6-2.9c-1.1-1.2-3.5-1.8-7.2-1.8h-7.9h-8.7v9.4L221.4,411.5L221.4,411.5z"/>
		<path d="M302.6,434.8c-2.3,2.3-6.6,3.5-12.9,3.5h-20.7c-6.2,0-10.6-1.1-13-3.4c-2.4-2.2-3.6-5.6-3.6-10.1V405
			c0-4.5,1.2-7.9,3.6-10.1c2.4-2.2,6.8-3.3,13-3.3h20.7c6.3,0,10.6,1.2,12.9,3.5c2.3,2.3,3.5,5.7,3.5,10v19.8
			C306.1,429.2,305,432.5,302.6,434.8 M292,409.6c0-2.6-0.5-4.5-1.6-5.6c-1.1-1.2-3.5-1.8-7.2-1.8h-7.9c-3.5,0-5.8,0.6-6.9,1.9
			c-1.2,1.3-1.7,3.1-1.7,5.5v10.6c0,2.4,0.6,4.2,1.7,5.5c1.2,1.3,3.5,1.9,6.9,1.9h7.9c3.7,0,6.1-0.6,7.1-1.8c1-1.2,1.6-3,1.7-5.6
			L292,409.6L292,409.6z"/>
		<path d="M332.4,420.1h-4v18.2h-14l-0.1-13.5V405c0-4.5,1.2-7.9,3.6-10.1c2.4-2.2,6.8-3.3,13-3.3h20.7h16.4v10.6H345h-7.9
			c-3.4,0-5.7,0.6-6.9,1.9c-1.2,1.3-1.8,3.1-1.8,5.3h4h35.5v10.7L332.4,420.1L332.4,420.1z"/>
		<path d="M394.2,420.1h-4c0.1,2.5,0.6,4.4,1.8,5.7c1.1,1.3,3.5,1.9,6.9,1.9h7.9h22.9v10.7h-16.4h-20.7c-6.2,0-10.6-1.1-13-3.4
			c-2.4-2.2-3.6-5.6-3.6-10.1V405c0-4.5,1.2-7.9,3.6-10.1c2.4-2.2,6.8-3.3,13-3.3h20.7h16.4v10.6h-22.9h-7.9c-3.5,0-5.8,0.6-6.9,1.9
			c-1.2,1.3-1.8,3.1-1.8,5.3h4h35.5v10.7L394.2,420.1L394.2,420.1z"/>
		<path d="M494.2,429.7c-0.5,2-1.6,4-3.5,5.9c-1.9,1.9-4.5,2.8-8,2.8H438v-10.7h37c1.2,0,1.7-0.4,1.4-1.1c-0.2-0.8-0.6-1.2-0.9-1.4
			l-31.6-11.7c-3.9-1.4-5.9-4.1-5.9-8.2c0-1.8,0.1-3.1,0.3-4c0.5-0.9,0.9-2,1.3-3.5c0.3-1.5,2-2.9,4.8-4.2c2.9-1.3,6.3-2,10.2-2
			h39.5v11h-10.7h-28.9c-0.9,0-1.3,0.5-1.5,1.5c0.1,0.6,0.2,1,0.4,1l35.1,13.2c2.3,0.9,3.9,2.6,4.6,5
			C494.1,425.5,494.4,427.7,494.2,429.7"/>
		<path d="M558.6,429.7c-0.5,2-1.6,4-3.5,5.9c-1.9,1.9-4.5,2.8-8,2.8h-44.7v-10.7h37c1.2,0,1.7-0.4,1.4-1.1
			c-0.2-0.8-0.6-1.2-0.9-1.4l-31.6-11.7c-3.9-1.4-5.9-4.1-5.9-8.2c0-1.8,0.1-3.1,0.3-4c0.5-0.9,0.9-2,1.3-3.5c0.3-1.5,2-2.9,4.8-4.2
			c2.9-1.3,6.3-2,10.2-2h39.5v11h-10.7H519c-0.9,0-1.3,0.5-1.5,1.5c0.1,0.6,0.2,1,0.4,1l35.1,13.2c2.3,0.9,3.9,2.6,4.6,5
			C558.5,425.5,558.8,427.7,558.6,429.7"/>
		<polygon points="580.8,438.3 566.8,438.3 566.8,391.5 580.9,391.5 580.9,420.2 		"/>
		<path d="M639.2,434.8c-2.3,2.3-6.6,3.5-12.9,3.5h-20.7c-6.2,0-10.6-1.1-13-3.4c-2.4-2.2-3.6-5.6-3.6-10.1V405
			c0-4.5,1.2-7.9,3.6-10.1c2.4-2.2,6.7-3.3,13-3.3h20.7c6.3,0,10.6,1.2,12.9,3.5c2.3,2.3,3.5,5.7,3.5,10v19.8
			C642.6,429.2,641.5,432.5,639.2,434.8 M628.5,409.6c0-2.6-0.5-4.5-1.6-5.6c-1.1-1.2-3.5-1.8-7.2-1.8h-7.9c-3.4,0-5.7,0.6-6.9,1.9
			c-1.1,1.3-1.7,3.1-1.7,5.5v10.6c0,2.4,0.6,4.2,1.7,5.5c1.2,1.3,3.5,1.9,6.9,1.9h7.9c3.7,0,6.1-0.6,7.1-1.8c1-1.2,1.6-3,1.7-5.6
			L628.5,409.6L628.5,409.6z"/>
		<path d="M704.5,438.3h-14.1v-28.7c0-2.6-0.5-4.5-1.6-5.6c-1.1-1.2-3.5-1.8-7.2-1.8h-7.9c-3.4,0-5.7,0.6-6.9,1.9
			c-1.1,1.3-1.7,3.1-1.7,5.5v28.7h-14.2V405c0-4.5,1.2-7.9,3.6-10.1c2.4-2.2,6.7-3.3,13-3.3h20.7c6.3,0,10.6,1.2,12.9,3.5
			c2.3,2.3,3.5,5.7,3.5,10V438.3L704.5,438.3z"/>
		<path d="M748.1,420.1h-21.4v18.2h-14l-0.1-13.5V405c0-4.5,1.2-7.9,3.6-10.1c2.4-2.2,6.7-3.3,13-3.3h20.4c6.2,0,10.6,1.1,13,3.3
			c2.4,2.2,3.6,5.6,3.6,10.1v19.9l-0.1,13.5h-14v-18.2H748.1z M745,409.4h7.2c-0.1-2.3-0.7-4-1.8-5.3c-1.2-1.3-3.5-1.9-6.9-1.9h-8
			c-3.4,0-5.7,0.6-6.9,1.9c-1.2,1.3-1.8,3.1-1.8,5.3H745z"/>
		<path d="M828.1,431.4v6.9h-37.1c-6.2,0-10.6-1.1-13-3.4c-2.4-2.2-3.6-5.6-3.6-10.1v-33.3h14.2v28.7c0,2.4,0.6,4.2,1.7,5.5
			c1.2,1.3,3.5,1.9,6.9,1.9h30.8L828.1,431.4L828.1,431.4z"/>
		<path d="M892.5,429.7c-0.5,2-1.7,4-3.5,5.9c-1.9,1.9-4.5,2.8-7.9,2.8h-44.7v-10.7h37c1.2,0,1.6-0.4,1.4-1.1
			c-0.2-0.8-0.6-1.2-0.9-1.4l-31.6-11.7c-3.9-1.4-5.9-4.1-5.9-8.2c0-1.8,0.1-3.1,0.3-4c0.5-0.9,0.9-2,1.3-3.5c0.4-1.5,2-2.9,4.9-4.2
			c2.9-1.3,6.3-2,10.2-2h39.5v11h-10.7H853c-0.9,0-1.3,0.5-1.5,1.5c0.1,0.6,0.2,1,0.4,1l35.1,13.2c2.3,0.9,3.9,2.6,4.6,5
			C892.5,425.5,892.7,427.7,892.5,429.7"/>
		<path class="st0" d="M172,250.8c2.1,0,3.7-1.7,3.7-3.7V125.3c0-2.1-1.7-3.7-3.7-3.7h-36.1c-2.1,0-3.7,1.7-3.7,3.7v121.8
			c0,2.1,1.7,3.7,3.7,3.7H172z"/>
		<path class="st0" d="M310,217l-90.6-33.3c-11.8-4.6-19.7-16.5-19.7-29.3c0-17,14.5-32.7,32.4-32.7l121.8,0c2.1,0,3.7,1.7,3.7,3.7
			v23.7c0,2.1-1.7,3.7-3.7,3.7l-101.3-0.1c-1.5,0-2.7,1.1-2.7,2.5c0,1,0.6,1.9,1.6,2.3l90.6,33.3c11.8,4.6,19.7,16.5,19.7,29.3
			c0,17-14.5,30.6-32.4,30.6l-121.8,0c-2.1,0-3.7-1.7-3.7-3.7v-21.6c0-2.1,1.7-3.7,3.7-3.7l101.3,0.1c1.5,0,2.7-1.1,2.7-2.5
			C311.6,218.3,310.9,217.4,310,217"/>
		<path class="st0" d="M459.7,250.8c36.3,0,75.3,1.6,75.3-36.9v-88.6c0-2.1-1.7-3.7-3.7-3.7h-36.1c-2.1,0-3.7,1.7-3.7,3.7v74.6
			c0,15.3-7.3,20.5-31.7,20.5c-24.4,0-31.7-5.2-31.7-20.5v-74.6c0-2.1-1.7-3.7-3.7-3.7h-36.1c-2.1,0-3.7,1.7-3.7,3.7v88.6
			C384.5,252.4,423.4,250.8,459.7,250.8"/>
		<path class="st0" d="M614.6,218l85.4-38.5c11.8-4.6,19.7-16.5,19.7-29.3c0-17-14.5-28.6-32.4-28.6l-121.8,0
			c-2.1,0-3.7,1.7-3.7,3.7v23.7c0,2.1,1.7,3.7,3.7,3.7l101.3-0.1c1.5,0,2.7,1.1,2.7,2.5c0,1-0.6,1.9-1.5,2.3l-89.6,39.5
			c-11.3,5.4-19.7,15.5-19.7,28.2c0,17,14.5,25.5,32.4,25.5l120.8,0c2.1,0,3.7-1.7,3.7-3.7v-21.6c0-2.1-1.7-3.7-3.7-3.7l-96.1,0.1
			c-1.5,0-2.7-0.3-2.7-1.7C613.1,219,613.7,218.4,614.6,218"/>
		<path class="st0" d="M819.9,250.8c36.3,0,75.3,1.6,75.3-36.9v-88.6c0-2.1-1.7-3.7-3.7-3.7h-36.1c-2.1,0-3.8,1.7-3.8,3.7v74.6
			c0,15.3-7.3,20.5-31.7,20.5c-24.4,0-31.7-5.2-31.7-20.5v-74.6c0-2.1-1.7-3.7-3.7-3.7h-36.1c-2.1,0-3.7,1.7-3.7,3.7v88.6
			C744.7,252.4,783.6,250.8,819.9,250.8"/>
		<path class="st0" d="M894.9,471.4H130.4v-8.5h764.5L894.9,471.4L894.9,471.4z M894.9,286.5H131V278h763.9V286.5z"/>
	</g>
</g>
</svg>
