<?xml version="1.0" encoding="utf-8"?>
<!-- Generator: Adobe Illustrator 21.1.0, SVG Export Plug-In . SVG Version: 6.00 Build 0)  -->
<svg version="1.1" id="Layer_1" xmlns="http://www.w3.org/2000/svg" xmlns:xlink="http://www.w3.org/1999/xlink" x="0px" y="0px"
	 viewBox="0 0 37 26.7" style="enable-background:new 0 0 37 26.7;" xml:space="preserve">
<path d="M7,6.1C7.3,6.1,7.5,6,7.6,6s0.2-0.1,0.1-0.1s-0.3,0-0.4,0C7.1,5.9,6.9,6.1,7,6.1C6.9,6.1,6.9,6.1,7,6.1 M35.6,14.3
	C35.5,14,35,14.1,35,14.1c-0.2,0-0.5,0.3-0.9,0.4c-0.8,0.2-1.5,0-1.5,0c-1.3-0.5-5.4-2.9-7.5-3.9c0,0-2.4-1.2-5.9-2.6
	c0,0-6.8-3-11.6-2.7c0,0-2.5,0.1-3.2,1.2c0,0-0.1,0.2,0,0.3v0.1c0,0-0.4,0.4-0.6,0.7c-0.1,0.1-0.2,0.3,0,0.5c0,0,0.1,0,0.1,0.1
	S4,8.4,4.1,8.5s0.3,0.3,0.6,0.3h0.1C5,9,5.2,9,5.2,9C5.1,8.7,5,8.5,5,8.4s0-0.2,0-0.2c0-0.1,0.1-0.3,0.2-0.4s0.3-0.2,0.5,0
	C5.8,7.9,6,8.2,5.9,8.7c0,0-0.2,0.4-0.3,0.4S5.3,9,5.3,9s0,0,0,0.1s0,0.1,0,0.2s0,0.1-0.1,0.1c0,0.1-0.1,0.2,0,0.2
	c0,0,0.4,0.2,0.7,0.2c0.2,0,0.3-0.2,0.3-0.2C6.4,9.4,6.5,9.1,6.7,9c0.5-0.5,1.2-0.6,1.2-0.6S8.7,8.2,10,9.2c-0.4,0-0.8,0.1-1.2,0.2
	c-1,0.2-1.6,1.1-1.8,1.5c-0.5,1,0.5,1.3,0.5,1.3s0.9-0.1,1.4-1s0.2-0.4,0.6-0.3c0.3,0.1,2.7,1,3.3,1.1c0,0,1.7,0.4,2.3-0.3
	c1,0.3,2,0.5,4.4,0.2h0.7c0.6,0,1.1,0.4,1.2,0.7c0.7,1,1.5,3.1,4.3,2.8l1.3-0.1c0.8,0,1.4-0.1,2.1,0.2c0.3,0.2,0.5,0.2,0.9,0.7
	c0.7,0.6,1.2,1.3,2.1,0.9c0.3-0.1,0.6-0.6,0.6-0.6c0-0.2-0.1-0.5-0.4-0.7c0.7,0.2,2.4,0.3,3-0.8C35.7,14.7,35.7,14.5,35.6,14.3
	 M7.6,5.4C12.3,5.2,19,8.1,19.1,8.1c0.6,0.2,1.1,0.5,1.6,0.7c-0.1,0-0.7-0.3-0.7-0.3c-1-0.4-2.8-1-2.8-1c-2.4-0.8-3.4-1-3.5-1
	c-0.3,0-0.4-0.1-0.4-0.1h-0.4l0.2,0.4c-1.7-1.2-3.7-1.2-3.8-1.2c-0.4,0-0.7,0.1-1,0.2l0.1-0.2H8.1H6.7C7.2,5.4,7.6,5.4,7.6,5.4
	 M3.8,7.6c0.3-0.4,0.6-0.7,0.6-0.7L4.5,7C4.3,7.1,3.8,7.6,3.8,7.6 M5.8,7.5C5.7,7.4,5.6,7.4,5.4,7.4h0.1c0,0,0.3,0,0.5,0.4
	C6,7.7,5.9,7.6,5.8,7.5 M35.3,14.8c0,0.2-0.4,0.5-0.7,0.7c-0.4,0.2-1.2,0.2-1.7,0.1c0,0-0.9-0.1-1.7-0.9l-0.9-0.9
	c-0.1-0.1-0.5-0.5-1-0.5c-0.5-0.1-1.9-0.1-2.4-0.3c-0.3-0.1-0.7-0.3-1.2-1.1c-0.2-0.4-0.5-0.5-0.8-0.7c0,0,0.2,0.2,0.4,0.5
	c0.2,0.4,0.3,0.7,0.5,0.9c0.1,0.2,0.2,0.4,0.5,0.5c0.2,0.2,0.4,0.2,0.7,0.3s1.2,0,1.9,0c0.7,0,1.1,0.2,1.3,0.4s0.6,0.7,0.9,1
	s0.5,0.6,1,0.9c0.2,0.1,0.5,0.3,0.5,0.6c-0.2,0.2-0.6,0.3-1.3,0.1c0,0,0.5,0.5,1.1,0.2c-0.2,0.2-0.4,0.2-0.6,0.2
	c-0.7,0-1.4-0.9-1.8-1.2c-0.3-0.2-0.3-0.3-0.8-0.7c-0.7-0.5-2.5-0.4-2.5-0.4l-1.2,0.1c-2.5,0.2-3.5-2-3.7-2.4
	c-0.1-0.2-0.2-0.3-0.2-0.4c-0.1-0.2-0.8-1-1.5-1.3c0,0,0.7,0.6,0.6,1c0,0-0.3-0.1-1,0c-3.2,0.5-4.3-0.3-4.3-0.3
	c0.2-0.6-0.3-1.3-0.3-1.3c0.2,0.1,1.8,0.6,3.3,0.3c0,0-2.5,0-4.2-1.3c0,0,1.1,1.3,0.8,2.2c0,0-0.2,0.9-2,0.5c-0.2,0-0.4-0.1-3.2-0.9
	c-0.7-0.2-0.9,0.1-1,0.3c0,0.3-0.3,0.6-0.5,0.7c-0.9-0.2-0.5-1-0.5-1c-0.5,0.8,0,1.1,0.2,1.1c-0.1,0-0.2,0.1-0.3,0.1
	c0,0-0.7-0.4-0.3-1.1c0.5-1,1.1-1.2,2.1-1.4c0.5,0,0.8-0.1,1.1,0c0.7,0.1,1.2,0.5,2.3,0.6c-2.4-0.7-2.4-2.1-2.4-2.1
	c-0.1,0.5,0,0.8,0,1.2c0,0-0.5-0.3-0.7-0.5C9,8.1,8.3,8,8.3,8C8,8,7.9,7.6,7.9,7.6C7.6,7,7.2,7,7.2,7c0.1,0.2,0.2,0.4,0.2,0.6v0.3
	c0,0.7-0.8,1-0.8,1C6,9.6,6,9.6,5.9,9.6S5.5,9.5,5.5,9.5s0,0,0-0.1V9.3l0.2-0.2c0.6-0.6,0.7-0.9,0.6-1.3C6.1,7,5.6,7.1,5.6,7.1
	c-0.3,0-0.4,0.2-0.4,0.2C5.1,7.5,4.9,8,4.9,8C4.8,8.3,4.7,8.3,4.6,8.3H4.5c-0.2,0-0.3-0.2-0.3-0.2C3.9,8,4,7.7,4,7.7
	C4.2,7.2,4.7,7.1,4.8,7h0.3C5.7,6.9,6,6.3,6,6.3H5.4c-0.5,0-0.6,0.5-0.6,0.5C4.5,6.9,4.5,6.6,4.6,6.5c0-0.1,0.2-0.4,1.5-0.7
	c0,0,0.6-0.2,2-0.1v0.1C8,6,7.5,6.5,6.7,6.3c0,0,0,0.3,0.9,0.5c0,0,0.7,0.1,2.1,1.2c0,0-0.6-1.2-1.7-1.5c0,0-0.1,0-0.1-0.1
	c0,0,0.6-0.6,1.5-0.6c0,0,2.7,0,4.4,1.9c0,0-0.1-0.3-0.3-0.7l-0.1-0.2h0.4c0,0,1,0.1,3.5,1c0,0,1.8,0.6,2.8,1c1.5,0.6,5.2,2,7.6,3.4
	c0.4,0.2,4.7,2.5,4.7,2.5c1.2,0.5,2,0.2,2,0.2C34.6,14.8,35.1,14.4,35.3,14.8C35.4,14.5,35.4,14.7,35.3,14.8 M4.9,6.8
	c0-0.1,0.1-0.3,0.3-0.3h0.2C5.4,6.5,5.3,6.7,4.9,6.8C5.1,6.8,5,6.8,4.9,6.8 M7.8,6.6C8,6.7,8.3,6.8,8.5,7c-0.6-0.3-1-0.4-1-0.4H7.3
	c0.1,0,0.2-0.1,0.3-0.1C7.6,6.6,7.8,6.6,7.8,6.6"/>
<path d="M6.7,20.7h2.6L8,19.2C8,19.2,6.7,20.7,6.7,20.7z M9.6,21.1H6.4l-0.5,0.6H5.2l2.5-3h1.1l2.5,3h-1.2
	C10.1,21.7,9.6,21.1,9.6,21.1z M25.9,20.7h2.6l-1.3-1.5C27.2,19.2,25.9,20.7,25.9,20.7z M28.8,21.1h-3.2L25,21.7h-0.6l2.5-3H28
	l2.5,3h-1.2C29.3,21.7,28.8,21.1,28.8,21.1z M4.7,18.8v1.4c0,0.5-0.1,0.7-0.3,1c-0.4,0.4-1.1,0.5-2.2,0.5H0v-0.4h2
	c0.6,0,1-0.1,1.3-0.3c0.2-0.2,0.3-0.5,0.3-0.8v-1.3C3.6,18.9,4.7,18.8,4.7,18.8z M16.1,21.3v-1h1.1v1.3H14c-0.6,0-1.1-0.1-1.4-0.2
	c-0.6-0.2-0.9-0.7-0.9-1.2s0.3-1,0.7-1.2s0.8-0.3,1.6-0.3h3.1v0.4h-2.7c-0.6,0-0.9,0.1-1.2,0.3c-0.2,0.2-0.3,0.5-0.3,0.8
	c0,0.4,0.1,0.6,0.3,0.8s0.6,0.2,1.1,0.2C14.3,21.2,16.1,21.3,16.1,21.3z M35.3,20.7c0.4,0,0.7-0.1,1-0.2c0.3-0.2,0.4-0.4,0.4-0.7
	c0-0.4-0.2-0.7-0.5-0.8s-0.6-0.2-1.3-0.2h-3.4v3h1.1v-1H34l1.6,1H37C37,21.8,35.3,20.7,35.3,20.7z M34.8,19.2c0.4,0,0.6,0,0.7,0.1
	s0.2,0.2,0.2,0.4c0,0.2,0,0.3-0.2,0.5c-0.1,0.1-0.3,0.1-0.7,0.1h-2.2v-1.2C32.6,19.2,34.8,19.2,34.8,19.2z M23.9,18.8v1.5
	c0,0.4,0,0.7-0.2,0.9c-0.3,0.4-0.9,0.6-2.5,0.6s-2.2-0.2-2.5-0.6c-0.2-0.2-0.2-0.5-0.2-0.9v-1.5h1.1v1.4c0,0.4,0,0.6,0.2,0.8
	c0.2,0.3,0.7,0.5,1.4,0.5h0.1c0.7,0,1.2-0.1,1.4-0.5c0.1-0.2,0.2-0.4,0.2-0.8v-1.4H23.9z"/>
</svg>
