<?xml version="1.0" encoding="utf-8"?>
<!-- Generator: Adobe Illustrator 21.1.0, SVG Export Plug-In . SVG Version: 6.00 Build 0)  -->
<svg version="1.1" id="Layer_1" xmlns="http://www.w3.org/2000/svg" xmlns:xlink="http://www.w3.org/1999/xlink" x="0px" y="0px"
	 viewBox="0 0 2500 1362.1" style="enable-background:new 0 0 2500 1362.1;" xml:space="preserve">
<style type="text/css">
	.st0{fill:#231F20;}
</style>
<path class="st0" d="M1972.9,746.1c-1.8,97,19.2,148.4,99.2,148.4c79.9,0,91.3-87.5,91.3-154.2s-15.2-131.4-99-131.4
	C2012.9,609,1974.9,649,1972.9,746.1L1972.9,746.1z M1811.1,1151.5V494.8h163.8v26.6c0,35.5,14.3,20.9,25.9,7
	c1.9-2.3,38.4-47,120.6-47c82,0,209.5,57.1,209.5,258.9c0,156.1-76.1,270.3-207.4,270.3c-72.4,0-114.2-28.5-123.8-40
	c-9.6-11.3-22.9-13.3-22.9,0v180.9H1811.1 M545.2,281.6h177v464.5c0,79.9-34.3,247.5-279.8,247.5c-245.6,0-272.2-156.2-272.2-243.7
	v-85.7h171.3v83.7c0,51.4,34.3,99,99,99s104.7-36.2,104.7-97V281.6 M1092.5,675.6c0-47.6-26.6-93.3-87.5-93.3c-59,0-80,41.8-80,93.3
	H1092.5z M987.9,475.7c139,0,260.8,53.3,260.8,298.9H919.4c0,78,32.3,110.4,89.4,110.4c57.1,0,76.1-45.7,76.1-45.7h161.9
	c0,70.5-97.1,165.6-243.7,163.7c-167.5,0-249.3-123.7-249.3-251.3C753.8,624.1,826.1,475.7,987.9,475.7 M1618.9,675.6
	c0-47.6-26.6-93.3-87.5-93.3c-59,0-80,41.8-80,93.3H1618.9z M1514.3,475.7c139,0,260.8,53.3,260.8,298.9h-329.3
	c0,78,32.4,110.4,89.5,110.4s76.1-45.7,76.1-45.7h161.9c0,70.5-97.1,165.6-243.7,163.7c-167.6,0-249.4-123.7-249.4-251.3
	C1280.2,624.1,1352.6,475.7,1514.3,475.7 M2222.5,1072.8c0-26,21.2-47.1,47.3-47.1c26,0,47.1,21.1,47.1,47.1s-21.1,47.2-47.1,47.2
	C2243.7,1120,2222.5,1098.8,2222.5,1072.8z M2217,1072.8c0,29.1,23.6,52.7,52.7,52.7c29,0,52.7-23.6,52.7-52.7
	c0-29.1-23.7-52.7-52.7-52.7C2240.6,1020.1,2217,1043.7,2217,1072.8"/>
<path class="st0" d="M2290.9,1099.8l-10.9-25.9c3.5-1.2,4.6-2.1,6.5-4c2.4-2.6,3.9-6.7,3.9-10.3c0-9.3-7.2-15.7-17.6-15.7h-22v55.9
	h6.5v-24.2h15.9l10.4,24.2H2290.9L2290.9,1099.8z M2257.1,1069.9V1050h15.5c6.5,0,10.6,3.7,10.6,9.4c0,6.5-4.4,10.5-11.5,10.5
	H2257.1"/>
</svg>
