<?xml version="1.0" encoding="utf-8"?>
<!-- Generator: Adobe Illustrator 21.1.0, SVG Export Plug-In . SVG Version: 6.00 Build 0)  -->
<svg version="1.1" id="Layer_1" xmlns="http://www.w3.org/2000/svg" xmlns:xlink="http://www.w3.org/1999/xlink" x="0px" y="0px"
	 viewBox="0 0 820 841.9" style="enable-background:new 0 0 820 841.9;" xml:space="preserve">
<style type="text/css">
	.st0{fill:#C41230;}
</style>
<g>
	<path class="st0" d="M409.9,219.8C188.5,219.8,9,309.8,9,420.9C9,532,188.5,622.1,409.9,622.1S810.8,532,810.8,420.9
		C810.8,309.8,631.3,219.8,409.9,219.8z M409.9,596.8C214.8,596.8,56,517.9,56,420.9c0-96.9,158.8-175.8,353.9-175.8
		c195.2,0,353.9,78.9,353.9,175.8C763.8,517.9,605.1,596.8,409.9,596.8z"/>
	<path class="st0" d="M370.9,330.7h6.5c2.3,0,4,1.8,4,4v183.9c0,2.4,1.9,4.3,4.3,4.3h48.2c2.4,0,4.3-1.9,4.3-4.3V322.7
		c0-2.4-1.9-4.3-4.3-4.3h-63c-0.6,0-0.6,0.6-0.6,1.1v10.2C370.3,330.1,370.3,330.7,370.9,330.7z"/>
	<path class="st0" d="M479.5,523h47.3c2.3,0,4.7-1.8,5.7-4.3l40.3-126.9c0,0,0.5-1.8,2-1.8c1.4,0,1.9,1.8,1.9,1.8l40.8,126.9
		c1,2.5,3.4,4.3,5.7,4.3h47.3c1.7,0,2.6-0.8,3.1-1.5c0.9-1.2,1-2.8,0.7-3.8l-65.8-196.4c-1-2.5-3.6-2.9-5.7-2.9h-75.5
		c-0.6,0-1.1,0.5-1.1,1.1v10.2c0,0.5,0.5,1,1.1,1h5.6c2.4,0,4,1.4,4,3.5c0,0.7-0.2,1.4-0.5,2.3l-60.7,181.1
		c-0.4,1.3-0.1,2.7,0.7,3.7C477.2,522.4,478.3,523,479.5,523z"/>
	<path class="st0" d="M157.8,330.7c2.3,0,4,1.8,4,4v183.9c0,2.4,1.9,4.3,4.3,4.3H213c2.4,0,4.3-1.9,4.3-4.3v-77.3
		c0-1.7,0.8-2.7,2.1-2.7c1.6,0,2.4,1.1,3,2c0.1,0.1,0.1,0.2,0.2,0.3l55.1,77.4c1.8,2.7,5,4.7,7.5,4.7h55.6c1.3,0,2.7-0.9,3.4-2.2
		c0.7-1.4,0.5-3-0.5-4.5c-0.2-0.2-69.7-98.6-70.4-99.6c-0.2-0.3-0.3-0.5-0.4-0.7c-0.2-0.3-0.3-0.6-0.4-0.9c0-0.2-0.1-0.4-0.1-0.7
		c0-0.8,0.4-1.7,0.8-2.6l0.1-0.1l58.8-87.1c0.8-1.2,0.8-2.8,0-4.1c-0.7-1.3-2-2.1-3.4-2.1H276c-2.5,0-5.8,2-7.6,4.7L222.5,388
		c-1.4,2.1-2.8,2.2-3.1,2.2h0c-1.3,0-2.1-0.9-2.1-2.2v-65.3c0-2.4-1.9-4.3-4.3-4.3h-61.6c-0.6,0-1.1,0.5-1.1,1.1v10.2
		c0,0.5,0.5,1,1.1,1L157.8,330.7L157.8,330.7z"/>
</g>
</svg>
