<?xml version="1.0" encoding="utf-8"?>
<!-- Generator: Adobe Illustrator 21.1.0, SVG Export Plug-In . SVG Version: 6.00 Build 0)  -->
<svg version="1.1" id="Layer_1" xmlns="http://www.w3.org/2000/svg" xmlns:xlink="http://www.w3.org/1999/xlink" x="0px" y="0px"
	 viewBox="0 0 2500 2500" style="enable-background:new 0 0 2500 2500;" xml:space="preserve">
<style type="text/css">
	.st0{fill:#FFFFFF;}
	.st1{fill:#304B84;}
	.st2{fill:#CBAC3B;}
	.st3{fill:#E0C13D;}
	.st4{fill:#C56C48;}
	.st5{fill:#B76543;}
</style>
<g>
	<path class="st0" d="M0,0h2500v2500H0V0z"/>
	<path class="st1" d="M1269.5,1824.1c302.4-238,444.7-546.2,509.1-790c64.4-247.7,74.1-487.7,74.1-495.5v-13.7l-9.8-7.8
		c-247.7-228.2-567.7-351.1-581.3-355l-7.8-3.9l-9.8,3.9c-13.7,3.9-325.8,126.8-579.4,355l-11.7,7.8v13.7
		c0,7.8,7.8,247.7,74.1,495.5c62.4,230.2,195.1,561.8,509.1,790l17.6,11.7L1269.5,1824.1L1269.5,1824.1z M1253.9,1787
		c-513-399.9-546.2-1041.7-546.2-1141.2C895,505.4,1199.3,402,1253.9,386.4c52.7,15.6,358.9,119,544.2,259.4
		C1798.1,745.3,1753.3,1387.1,1253.9,1787z"/>
	<path class="st2" d="M1252,1720.7l124.8-44.9c27.3-25.4,50.7-52.7,74.1-80l-199-31.2L1252,1720.7L1252,1720.7z M1252,936.5
		l300.4-50.7l206.8,64.4c7.8-33.2,13.7-64.4,19.5-93.6l-226.3,29.3L1252,780.4L1252,936.5L1252,936.5z M1441.2,456.6
		c-91.7-39-165.8-62.4-189.2-70.2v80L1441.2,456.6z M1252,780.4l300.4-39l230.2,80c5.8-41,9.8-76.1,11.7-103.4l-241.9,21.5
		l-300.4-117L1252,780.4L1252,780.4z"/>
	<path class="st2" d="M1252,1094.5l300.4-62.4l173.6,46.8c7.8-27.3,15.6-54.6,21.5-80l-195.1,31.2L1252,936.5V1094.5L1252,1094.5z
		 M1252,1787c25.4-17.6,46.8-37.1,70.2-56.6l-70.2-9.8V1787L1252,1787z M1796.2,690.7c1.9-19.5,1.9-35.1,1.9-44.9
		c-27.3-21.5-58.5-41-89.7-60.5l-156,9.8l-300.4-128.8v156.1l300.4-27.3L1796.2,690.7z M1252,1250.5l300.4-74.1l128.7,31.2
		c7.8-21.5,15.6-42.9,23.4-62.4l-152.1,31.2l-300.4-81.9L1252,1250.5L1252,1250.5L1252,1250.5z M1252,1564.6l290.7-93.6
		c1.9-1.9,3.9-3.9,3.9-5.8l-294.6-58.5L1252,1564.6L1252,1564.6L1252,1564.6z M1252,1406.6l300.4-83.9l68.3,13.7
		c7.8-11.7,13.7-23.4,19.5-35.1l-87.8,19.5l-300.4-70.2V1406.6L1252,1406.6z"/>
	<path class="st3" d="M1054.9,1595.8c21.5,27.3,46.8,54.6,72.2,80l124.8,44.9v-156.1L1054.9,1595.8z M953.5,885.8l-226.3-29.3
		c4.3,31.5,10.2,62.7,17.6,93.6L953.5,885.8l298.5,50.7V780.4L953.5,885.8z M1062.7,456.6l189.2,9.8v-80
		C1228.5,394.2,1154.4,417.6,1062.7,456.6L1062.7,456.6z"/>
	<path class="st3" d="M953.5,739.5L709.7,718c1.9,29.3,5.8,64.4,11.7,103.4l232.1-80l298.5,39V624.4L953.5,739.5z M953.5,1030.1
		l-197-33.2c7.8,27.3,13.7,54.6,23.4,81.9l173.6-46.8l298.5,62.4v-158L953.5,1030.1z M1183.7,1730.4c21.9,19.9,44.7,38.8,68.3,56.6
		v-66.3L1183.7,1730.4z M953.5,595.1l-156.1-9.8c-31.6,18.6-62.2,38.8-91.7,60.5c0,9.8,1.9,25.4,1.9,44.9L953.5,595.1l298.5,27.3
		v-156L953.5,595.1z M953.5,1176.4l-152.2-31.2c7.8,19.5,15.6,41,23.4,62.4L953.5,1176.4l298.5,74.1v-156.1L953.5,1176.4z
		 M957.4,1465.1c1.9,1.9,1.9,3.9,3.9,5.8l290.7,93.6v-158L957.4,1465.1L957.4,1465.1z M953.5,1320.8l-87.8-19.5l17.6,35.1l70.2-13.7
		l298.5,83.9v-156L953.5,1320.8z"/>
	<path class="st4" d="M1252,466.4l-189.2-9.8c-81.9,33.2-179.5,78-265.3,128.8l156.1,9.8L1252,466.4L1252,466.4z M1252,622.4
		l-298.5-27.3l-245.8,95.6c0,7.8,1.9,17.6,1.9,27.3l243.8,21.5L1252,622.4L1252,622.4z M1252,780.4l-298.5-39l-232.1,80l5.8,35.1
		l226.3,29.3L1252,780.4L1252,780.4z M1252,936.5l-298.5-50.7l-208.7,64.4l11.7,46.8l197,33.2L1252,936.5L1252,936.5z M1252,1094.5
		l-298.5-62.4l-173.6,46.8c5.8,21.5,13.7,42.9,21.5,66.3l152.2,31.2L1252,1094.5L1252,1094.5z"/>
	<path class="st4" d="M1252,1250.5l-298.5-74.1l-128.8,31.2c12,31.9,25.7,63.2,41,93.6l87.8,19.5L1252,1250.5L1252,1250.5z
		 M953.5,1322.7l-70.2,13.7c21.5,42.9,46.8,85.8,74.1,128.8l294.6-58.5L953.5,1322.7z M961.3,1471c27.3,42.9,58.5,83.9,93.6,124.8
		l197-31.2L961.3,1471z M1127.1,1675.8c17.6,17.5,37.1,37.1,56.6,54.6l68.3-9.8L1127.1,1675.8z"/>
	<path class="st5" d="M1552.4,595.1l156-9.8c-87.8-50.7-183.4-95.6-267.2-128.8l-189.2,9.8L1552.4,595.1L1552.4,595.1z M1252,622.4
		l300.4,117l241.9-21.5c1.9-9.8,1.9-19.5,1.9-27.3l-243.8-95.6L1252,622.4L1252,622.4z M1552.4,741.4l-300.4,39l300.4,105.3
		l226.3-29.3c1.9-11.7,3.9-23.4,3.9-35.1L1552.4,741.4L1552.4,741.4z M1252,936.5l300.4,93.6l195.1-31.2
		c3.9-17.6,7.8-33.2,11.7-48.8l-206.8-64.4L1252,936.5L1252,936.5z M1252,1094.5l300.4,81.9l152.1-31.2
		c7.8-21.5,13.7-44.9,21.5-66.3l-173.6-46.8L1252,1094.5L1252,1094.5z"/>
	<path class="st5" d="M1252,1250.5l300.4,70.2l87.8-19.5l41-93.6l-128.7-31.2L1252,1250.5L1252,1250.5z M1252,1406.6l294.6,58.5
		c27.3-42.9,52.7-85.8,74.1-128.8l-68.3-13.7L1252,1406.6z M1450.9,1595.8c33.2-41,64.4-81.9,91.7-124.8l-290.7,93.6L1450.9,1595.8z
		 M1322.2,1730.4c19.2-17.2,37.4-35.5,54.6-54.6l-124.8,44.9L1322.2,1730.4z"/>
	<path class="st3" d="M1240.2,201.1l1.9,31.2c-11.7-7.8-27.3-11.7-44.9-11.7c-7.8,0-17.5,1.9-27.3,5.9l1.9,19.5
		c9.8-5.8,17.6-5.8,27.3-5.8c25.4,0,42.9,19.5,42.9,44.9s-17.6,42.9-44.9,42.9c-9.8,0-19.5-1.9-25.4-3.9l-1.9,19.5
		c9.8,3.9,19.5,3.9,27.3,3.9c17.6,0,33.2-1.9,44.9-9.8l-1.9,27.3h11.7V201.1H1240.2z"/>
	<path class="st2" d="M1333.9,343.5V324c-5.8,1.9-17.6,3.9-27.3,3.9c-27.3,0-42.9-17.6-42.9-42.9c0-25.4,15.6-44.9,42.9-44.9
		c7.8,0,15.6,0,25.4,5.8l1.9-19.5c-7.8-3.9-19.5-5.9-27.3-5.9c-17.6,0-31.2,3.9-41,9.8v-29.3H1252v163.9h13.7v-27.3
		c9.8,7.8,25.4,9.8,41,9.8C1316.3,347.4,1326.1,347.4,1333.9,343.5L1333.9,343.5z"/>
	<path d="M210.3,1972.3h76.1l-9.8,93.6l68.3-93.6h81.9l-83.9,113.1l62.4,122.9h-85.8l-48.8-97.6l-11.7,97.6h-78L210.3,1972.3
		L210.3,1972.3z M598.5,2017.2c31.2,0,48.8,9.8,44.9,44.9l-13.7,103.4c-3.9,33.2-25.4,44.9-56.6,44.9h-97.5
		c-27.3,0-50.7-5.8-44.9-44.9l11.7-103.4c5.9-42.9,37.1-44.9,58.5-44.9H598.5z M563.4,2079.6c0-3.9,1.9-23.4-19.5-23.4
		c-23.4,0-25.4,19.5-25.4,23.4l-7.8,68.3c-1.9,7.8-3.9,23.4,17.6,23.4c23.4,0,25.4-15.6,25.4-23.4L563.4,2079.6L563.4,2079.6z
		 M856,2151.8v13.7c-5.9,35.1-25.4,44.9-56.6,44.9h-99.5c-27.3,0-48.8-5.8-44.9-44.9l11.7-103.4c5.8-35.1,27.3-44.9,60.5-44.9h93.6
		c31.2,0,50.7,9.8,46.8,44.9l-7.8,70.2H737l-1.9,13.7c-1.9,9.8-1.9,25.4,19.5,25.4c7.8,0,21.5-3.9,25.4-19.5H856L856,2151.8z
		 M785.7,2095.2l1.9-13.7c1.9-17.6-7.8-25.4-19.5-25.4c-13.7,0-23.4,9.8-25.4,23.4l-1.9,15.6H785.7L785.7,2095.2z M973,2050.3
		c3.9-11.7,5.8-15.6,13.7-21.5c7.8-5.8,15.6-11.7,39-11.7h23.4c27.3,0,48.8,7.8,44.9,46.8l-19.5,144.4h-76.1l15.6-126.8
		c0-7.8,1.9-25.4-19.5-25.4c-23.4,0-25.4,21.5-25.4,29.3l-15.6,122.9h-78.1l23.4-189.2h78L973,2050.3L973,2050.3z M1123.2,2019.1h78
		l-23.4,189.2h-78L1123.2,2019.1z M1129.1,1972.3h78l-3.9,31.2h-78L1129.1,1972.3z M1322.2,2225.9l5.8-50.7
		c-7.8,15.6-9.8,17.6-15.6,21.5c-9.8,9.8-25.4,11.7-37.1,11.7H1250c-29.3,0-46.8-9.8-42.9-44.9l11.7-101.4
		c5.9-33.2,25.4-44.9,54.6-44.9h27.3c27.3,0,37.1,11.7,42.9,29.3l3.9-27.3h76.1l-23.4,210.7c-5.8,41-39,44.9-62.4,44.9h-138.5
		l5.8-48.8L1322.2,2225.9L1322.2,2225.9z M1339.7,2079.6c0-5.8,3.9-27.3-19.5-27.3c-17.6,0-23.4,13.7-25.4,25.4l-7.8,68.3
		c-1.9,9.8,0,23.4,19.5,23.4c21.5,0,25.4-21.5,25.4-25.4L1339.7,2079.6L1339.7,2079.6z M1560.2,2138.1l-64.4-1.9
		c-31.2,0-58.5-1.9-52.7-46.8l1.9-25.4c3.9-35.1,25.4-46.8,54.6-46.8h103.4c29.3,0,46.8,11.7,41,46.8l-1.9,13.7H1566
		c0-9.8-3.9-13.7-7.8-17.6c-3.9-1.9-9.8-3.9-11.7-3.9c-1.9,0-23.4,0-25.4,23.4l-1.9,13.7l66.3,1.9c25.4,0,56.6,1.9,50.7,44.9
		l-1.9,25.4c-3.9,33.2-25.4,44.9-58.5,44.9h-95.6c-25.4,0-54.6-1.9-48.8-44.9l1.9-11.7h76.1c0,5.8,1.9,9.8,5.8,13.7
		c3.9,1.9,9.8,3.9,15.6,3.9c25.4,0,27.3-21.5,27.3-27.3L1560.2,2138.1L1560.2,2138.1z M1858.6,2151.8v13.7
		c-5.8,35.1-25.4,44.9-56.6,44.9h-99.5c-27.3,0-48.8-5.8-44.9-44.9l13.7-103.4c3.9-35.1,25.4-44.9,58.5-44.9h93.7
		c31.2,0,50.7,9.8,46.8,44.9l-7.8,70.2h-122.9l-1.9,13.7c-1.9,9.8,0,25.4,19.5,25.4c7.8,0,21.5-3.9,25.4-19.5H1858.6L1858.6,2151.8z
		 M1788.4,2095.2l1.9-13.7c1.9-17.6-5.8-25.4-19.5-25.4c-13.7,0-23.4,9.8-25.4,23.4l-1.9,15.6H1788.4z M1999.1,2225.9l5.8-50.7h-1.9
		c-5.8,15.6-7.8,17.6-13.7,21.5c-9.8,9.8-25.4,11.7-37.1,11.7h-25.4c-29.3,0-46.8-9.8-42.9-44.9l11.7-101.4
		c3.9-33.2,25.4-44.9,54.6-44.9h27.3c27.3,0,37.1,11.7,42.9,29.3l3.9-27.3h76.1l-25.4,210.7c-3.9,41-37.1,44.9-60.5,44.9h-138.5
		l5.8-48.8H1999.1L1999.1,2225.9z M2016.6,2079.6c0-5.8,1.9-27.3-19.5-27.3c-17.6,0-23.4,13.7-25.4,25.4l-7.8,68.3
		c-1.9,9.8,0,23.4,19.5,23.4c21.5,0,25.4-21.5,25.4-25.4L2016.6,2079.6L2016.6,2079.6z M2223.4,2225.9l5.8-50.7
		c-7.8,15.6-7.8,17.6-13.7,21.5c-11.7,9.8-25.4,11.7-39,11.7h-25.4c-27.3,0-46.8-9.8-41-44.9L2122,2062
		c3.9-33.2,23.4-44.9,52.7-44.9h29.3c25.4,0,37.1,11.7,41,29.3l3.9-27.3h78l-25.4,210.7c-3.9,41-39,44.9-60.5,44.9h-138.5l3.9-48.8
		L2223.4,2225.9L2223.4,2225.9z M2241,2079.6c1.9-5.8,3.9-27.3-17.6-27.3c-17.6,0-23.4,13.7-25.4,25.4l-7.8,68.3
		c-1.9,9.8,0,23.4,17.6,23.4c23.4,0,25.4-21.5,25.4-25.4L2241,2079.6L2241,2079.6z M1170,2272.7l5.9-46.8H179.1l-5.8,46.8H1170z
		 M1848.9,2272.7l5.8-46.8h-427.2c-3.9,25.4-3.9,37.1-19.5,46.8H1848.9L1848.9,2272.7z"/>
</g>
</svg>
