<?xml version="1.0" encoding="utf-8"?>
<!-- Generator: Adobe Illustrator 21.1.0, SVG Export Plug-In . SVG Version: 6.00 Build 0)  -->
<svg version="1.1" id="Layer_1" xmlns="http://www.w3.org/2000/svg" xmlns:xlink="http://www.w3.org/1999/xlink" x="0px" y="0px"
	 viewBox="0 0 2500 1313" style="enable-background:new 0 0 2500 1313;" xml:space="preserve">
<style type="text/css">
	.st0{fill:#58595B;}
	.st1{fill:#595A5C;}
	.st2{fill:#5A5B5D;}
	.st3{fill:#5B5C5E;}
	.st4{fill:#5C5C5F;}
	.st5{fill:#5C5D60;}
	.st6{fill:#5D5E60;}
	.st7{fill:#5E5F61;}
	.st8{fill:#5F6062;}
	.st9{fill:#606163;}
	.st10{fill:#616264;}
	.st11{fill:#616265;}
	.st12{fill:#626366;}
	.st13{fill:#636467;}
	.st14{fill:#646567;}
	.st15{fill:#656668;}
	.st16{fill:#656769;}
	.st17{fill:#66686A;}
	.st18{fill:#67686B;}
	.st19{fill:#68696C;}
	.st20{fill:#696A6C;}
	.st21{fill:#696B6D;}
	.st22{fill:#6A6C6E;}
	.st23{fill:#6B6C6F;}
	.st24{fill:#6C6D70;}
	.st25{fill:#6D6E70;}
	.st26{fill:#6D6F71;}
	.st27{fill:#6E7072;}
	.st28{fill:#6F7073;}
	.st29{fill:#707174;}
	.st30{fill:#707274;}
	.st31{fill:#717375;}
	.st32{fill:#727476;}
	.st33{fill:#737477;}
	.st34{fill:#747578;}
	.st35{fill:#747678;}
	.st36{fill:#757779;}
	.st37{fill:#76777A;}
	.st38{fill:#77787B;}
	.st39{fill:#77797B;}
	.st40{fill:#787A7C;}
	.st41{fill:#797A7D;}
	.st42{fill:#7A7B7E;}
	.st43{fill:#7A7C7F;}
	.st44{fill:#7B7D7F;}
	.st45{fill:#7C7D80;}
	.st46{fill:#7C7E81;}
	.st47{fill:#7D7F82;}
	.st48{fill:#7E8082;}
	.st49{fill:#7F8083;}
	.st50{fill:#7F8184;}
	.st51{fill:#808285;}
	.st52{fill:#818385;}
	.st53{fill:#828386;}
	.st54{fill:#828487;}
	.st55{fill:#838588;}
	.st56{fill:#848688;}
	.st57{fill:#858689;}
	.st58{fill:#85878A;}
	.st59{fill:#86888B;}
	.st60{fill:#87898B;}
	.st61{fill:#88898C;}
	.st62{fill:#888A8D;}
	.st63{fill:#898B8E;}
	.st64{fill:#8A8C8E;}
	.st65{fill:#8A8C8F;}
	.st66{fill:#8B8D90;}
	.st67{fill:#8C8E91;}
	.st68{fill:#8D8F91;}
	.st69{fill:#8D8F92;}
	.st70{fill:#8E9093;}
	.st71{fill:#8F9194;}
	.st72{fill:#909294;}
	.st73{fill:#909395;}
	.st74{fill:#919396;}
	.st75{fill:#929497;}
	.st76{fill:#939597;}
	.st77{fill:#939698;}
	.st78{fill:#949699;}
	.st79{fill:#95979A;}
	.st80{fill:#96989A;}
	.st81{fill:#97999B;}
	.st82{fill:#97999C;}
	.st83{fill:#989A9D;}
	.st84{fill:#999B9E;}
	.st85{fill:#9A9C9E;}
	.st86{fill:#9A9C9F;}
	.st87{fill:#9B9DA0;}
	.st88{fill:#9C9EA1;}
	.st89{fill:#9D9FA1;}
	.st90{fill:#9DA0A2;}
	.st91{fill:#9EA0A3;}
	.st92{fill:#9FA1A4;}
	.st93{fill:#A0A2A4;}
	.st94{fill:#A1A3A5;}
	.st95{fill:#A1A3A6;}
	.st96{fill:#A2A4A7;}
	.st97{fill:#A3A5A8;}
	.st98{fill:#A4A6A8;}
	.st99{fill:#A4A7A9;}
	.st100{fill:#A5A7AA;}
	.st101{fill:#A6A8AB;}
	.st102{fill:#A7A9AC;}
	.st103{fill:#A8AAAC;}
	.st104{fill:#A8ABAD;}
	.st105{fill:#A9ABAE;}
	.st106{fill:#AAACAF;}
	.st107{fill:#ABADAF;}
	.st108{fill:#ACAEB0;}
	.st109{fill:#ACAFB1;}
	.st110{fill:#ADAFB2;}
	.st111{fill:#AEB0B3;}
	.st112{fill:#AFB1B3;}
	.st113{fill:#B0B2B4;}
	.st114{fill:#B1B3B5;}
	.st115{fill:#B1B3B6;}
	.st116{fill:#B2B4B7;}
	.st117{fill:#B3B5B7;}
	.st118{fill:#B4B6B8;}
	.st119{fill:#B5B7B9;}
	.st120{fill:#B5B7BA;}
	.st121{fill:#B6B8BB;}
	.st122{fill:#B7B9BB;}
	.st123{fill:#B8BABC;}
	.st124{fill:#B9BBBD;}
	.st125{fill:#BABBBE;}
	.st126{fill:#BABCBF;}
	.st127{fill:#BBBDBF;}
	.st128{fill:#BCBEC0;}
	.st129{fill:#BDBFC1;}
	.st130{fill:#BEC0C2;}
	.st131{fill:#BFC0C3;}
	.st132{fill:#BFC1C3;}
	.st133{fill:#C0C2C4;}
	.st134{fill:#C1C3C5;}
	.st135{fill:#C2C4C6;}
	.st136{fill:#C3C4C7;}
	.st137{fill:#C4C5C7;}
	.st138{fill:#C4C6C8;}
	.st139{fill:#C5C7C9;}
	.st140{fill:#C6C8CA;}
	.st141{fill:#C7C9CB;}
	.st142{fill:#C8C9CB;}
	.st143{fill:#C9CACC;}
	.st144{fill:#C9CBCD;}
	.st145{fill:#CACCCE;}
	.st146{fill:#CBCDCE;}
	.st147{fill:#CCCDCF;}
	.st148{fill:#CDCED0;}
	.st149{fill:#CECFD1;}
	.st150{fill:#CED0D2;}
	.st151{fill:#CFD1D2;}
	.st152{fill:#D0D1D3;}
	.st153{fill:#D1D2D4;}
	.st154{fill:#D2D3D5;}
	.st155{fill:#D2D4D6;}
	.st156{fill:#D3D5D6;}
	.st157{fill:#D4D6D7;}
	.st158{fill:#D5D6D8;}
	.st159{fill:#D6D7D9;}
	.st160{fill:#D7D8D9;}
	.st161{fill:#D7D9DA;}
	.st162{fill:#D8DADB;}
	.st163{fill:#D9DADC;}
	.st164{fill:#DADBDD;}
	.st165{fill:#DBDCDD;}
	.st166{fill:#DCDDDE;}
	.st167{fill:#DCDEDF;}
	.st168{fill:#DDDEE0;}
	.st169{fill:#DEDFE0;}
	.st170{fill:#DFE0E1;}
	.st171{fill:#E0E1E2;}
	.st172{fill:#E0E2E3;}
	.st173{fill:#E1E2E3;}
	.st174{fill:#E2E3E4;}
	.st175{fill:#E3E4E5;}
	.st176{fill:#E4E5E6;}
	.st177{fill:#E5E6E7;}
	.st178{fill:#E6E7E8;}
	.st179{fill:none;}
	.st180{fill:url(#SVGID_1_);}
	.st181{fill:none;stroke:#004E24;stroke-width:2.8942;}
	.st182{fill:none;stroke:#F5F0CC;stroke-width:5.4873;}
	.st183{fill:#F5F0CC;}
</style>
<path class="st0" d="M1240.5,27.8C572.3,27.8,31,311.9,31,662.8c0,350.4,541.3,635,1209.5,635c667.6,0,1209.5-284.1,1209.5-635
	S1908.1,27.8,1240.5,27.8"/>
<path class="st1" d="M1240.5,27.8C572.3,27.8,31,311.9,31,662.8c0,350.4,541.3,634.5,1209,634.5s1209.5-284.1,1209.5-634.5
	C2449.4,311.9,1908.1,27.8,1240.5,27.8"/>
<path class="st2" d="M1240.5,28.3c-667.6,0-1209,284.1-1209,634.5s541.3,634.5,1209,634.5s1209-284.1,1209-634.5
	C2449.4,312.4,1908.1,28.3,1240.5,28.3"/>
<path class="st3" d="M1240.5,28.3c-667.6,0-1209,284.1-1209,634.5s541.3,634.5,1209,634.5s1209-284.1,1209-634.5
	C2449.4,312.4,1908.1,28.3,1240.5,28.3"/>
<path class="st4" d="M1240.5,28.3c-667.6,0-1209,284.1-1209,634.5s541.3,634.5,1209,634.5s1209-284.1,1209-634.5
	C2449.4,312.4,1908.1,28.3,1240.5,28.3"/>
<path class="st5" d="M1240.5,28.3c-667.6,0-1209,284.1-1209,634.5s541.3,634.5,1208.4,634.5c667.6,0,1209-284.1,1209-634.5
	S1908.1,28.3,1240.5,28.3"/>
<path class="st6" d="M1240.5,28.3C572.9,28.3,32,312.4,32,662.8s541.3,634,1208.4,634c667.6,0,1208.4-284.1,1208.4-634
	C2448.9,312.4,1908.1,28.3,1240.5,28.3"/>
<path class="st7" d="M1240.5,28.8C572.9,28.8,32,312.4,32,662.8s540.8,634,1208.4,634s1208.4-284.1,1208.4-634
	C2448.9,312.4,1907.6,28.8,1240.5,28.8"/>
<path class="st8" d="M1240.5,28.8C573.4,28.8,32,312.4,32,662.8c0,349.9,540.8,634,1208.4,634c667.1,0,1208.4-283.6,1208.4-634
	S1907.6,28.8,1240.5,28.8"/>
<path class="st9" d="M1240.5,28.8c-667.1,0-1207.9,284.1-1207.9,634s540.8,634,1207.9,634s1208.4-283.6,1208.4-634
	C2448.9,312.9,1907.6,28.8,1240.5,28.8"/>
<path class="st10" d="M1240.5,29.3C573.4,29.3,32.6,312.9,32.6,662.8s540.8,633.5,1207.9,633.5s1207.9-283.6,1207.9-633.5
	C2448.4,312.9,1907.6,29.3,1240.5,29.3"/>
<path class="st11" d="M1240.5,29.3C573.4,29.3,32.6,312.9,32.6,662.8s540.8,633.5,1207.9,633.5s1207.9-283.6,1207.9-633.5
	C2448.4,312.9,1907.6,29.3,1240.5,29.3"/>
<path class="st12" d="M1240.5,29.3C573.4,29.3,32.6,312.9,32.6,662.8s540.8,633.5,1207.9,633.5s1207.9-283.6,1207.9-633.5
	C2448.4,312.9,1907.6,29.3,1240.5,29.3"/>
<path class="st13" d="M1240.5,29.3C573.4,29.3,33.1,312.9,33.1,662.8s540.8,633.5,1207.4,633.5c667.1,0,1207.9-283.6,1207.9-633.5
	C2448.4,312.9,1907.6,29.3,1240.5,29.3"/>
<path class="st14" d="M1240.5,29.3C573.9,29.3,33.1,312.9,33.1,662.8s540.8,632.9,1207.4,632.9c667.1,0,1207.4-283.1,1207.4-632.9
	S1907.6,29.3,1240.5,29.3"/>
<path class="st15" d="M1240.5,29.8C573.9,29.8,33.1,312.9,33.1,662.8s540.8,632.9,1207.4,632.9s1207.4-283.1,1207.4-632.9
	S1907,29.8,1240.5,29.8"/>
<path class="st16" d="M1240.5,29.8C573.9,29.8,33.1,313.4,33.1,662.8s540.8,632.9,1207.4,632.9s1207.4-283.6,1207.4-632.9
	S1907,29.8,1240.5,29.8"/>
<path class="st17" d="M1240.5,29.8C573.9,29.8,33.6,313.4,33.6,662.8s540.3,632.9,1206.9,632.9s1207.4-283.6,1207.4-632.9
	S1907,29.8,1240.5,29.8"/>
<path class="st18" d="M1240.5,29.8C573.9,29.8,33.6,313.4,33.6,662.8s540.3,632.9,1206.9,632.9s1207.4-283.6,1207.4-632.9
	S1907,29.8,1240.5,29.8"/>
<path class="st19" d="M1240.5,30.4C573.9,30.4,33.6,313.4,33.6,662.8s540.3,632.4,1206.9,632.4s1206.9-283.1,1206.9-632.4
	S1907,30.4,1240.5,30.4"/>
<path class="st20" d="M1240.5,30.4C574.4,30.4,34.1,313.4,34.1,662.8s540.3,632.4,1206.9,632.4s1206.9-283.1,1206.9-632.4
	C2447.3,313.4,1907,30.4,1240.5,30.4"/>
<path class="st21" d="M1240.5,30.4C574.4,30.4,34.1,313.4,34.1,662.8s540.3,632.4,1206.4,632.4c666.6,0,1206.9-283.1,1206.9-632.4
	S1907,30.4,1240.5,30.4"/>
<path class="st22" d="M1240.5,30.4C574.4,30.4,34.1,313.4,34.1,662.8s540.3,631.9,1206.4,631.9s1206.4-283.1,1206.4-631.9
	C2447.3,313.4,1907,30.4,1240.5,30.4"/>
<path class="st23" d="M1240.5,30.9C574.4,30.9,34.1,314,34.1,662.8s540.3,631.9,1206.4,631.9s1206.4-283.1,1206.4-631.9
	C2446.8,314,1907,30.9,1240.5,30.9"/>
<path class="st24" d="M1240.5,30.9C574.4,30.9,34.6,314,34.6,662.8s540.3,631.9,1206.4,631.9s1206.4-283.1,1206.4-631.9
	C2446.8,314,1906.5,30.9,1240.5,30.9"/>
<path class="st25" d="M1240.5,30.9C574.4,30.9,34.6,314,34.6,662.8s539.8,631.9,1205.8,631.9s1206.4-283.1,1206.4-631.9
	S1906.5,30.9,1240.5,30.9"/>
<path class="st26" d="M1240.5,30.9C574.4,30.9,34.6,313.4,34.6,662.8c0,348.8,539.8,631.9,1205.8,631.9s1205.8-283.1,1205.8-631.9
	C2446.8,314,1906.5,30.9,1240.5,30.9"/>
<path class="st27" d="M1240.5,31.4C574.4,31.4,34.6,314,34.6,662.8s539.8,631.4,1205.8,631.4s1205.8-282.6,1205.8-631.4
	S1906.5,31.4,1240.5,31.4"/>
<path class="st28" d="M1240.5,31.4C574.4,31.4,34.6,314,34.6,662.8s539.8,631.4,1205.8,631.4s1205.8-282.6,1205.8-631.4
	S1906.5,31.4,1240.5,31.4"/>
<path class="st29" d="M1240.5,31.4C574.9,31.4,35.1,314,35.1,662.8s539.8,631.4,1205.3,631.4s1205.8-282.6,1205.8-631.4
	S1906.5,31.4,1240.5,31.4"/>
<path class="st30" d="M1240.5,31.4C574.9,31.4,35.1,314.5,35.1,662.8s539.8,631.4,1205.3,631.4s1205.3-282.6,1205.3-631.4
	C2446.3,314.5,1906.5,31.4,1240.5,31.4"/>
<path class="st31" d="M1241,31.9C574.9,31.9,35.7,314.5,35.7,662.8s539.8,630.9,1205.3,630.9s1205.3-282.6,1205.3-630.9
	C2446.3,314.5,1906.5,31.9,1241,31.9"/>
<path class="st32" d="M1241,31.9C575.4,31.9,35.7,314.5,35.7,662.8s539.8,630.9,1205.3,630.9s1205.3-282.6,1205.3-630.9
	C2445.8,314.5,1906.5,31.9,1241,31.9"/>
<path class="st33" d="M1241,31.9C575.4,31.9,35.7,314.5,35.7,662.8s539.3,630.9,1204.8,630.9s1205.3-282.6,1205.3-630.9
	C2445.8,314.5,1906,31.9,1241,31.9"/>
<path class="st34" d="M1241,31.9C575.4,31.9,35.7,314.5,35.7,662.8s539.3,630.9,1204.8,630.9s1204.8-282.6,1204.8-630.9
	C2445.8,314.5,1906,31.9,1241,31.9"/>
<path class="st35" d="M1241,32.4C575.4,32.4,36.2,314.5,36.2,662.8s539.3,630.9,1204.8,630.9s1204.8-282.6,1204.8-630.4
	C2445.8,314.5,1906,32.4,1241,32.4"/>
<path class="st36" d="M1241,32.4C575.4,32.4,36.2,314.5,36.2,662.8s539.3,630.4,1204.8,630.4c665,0,1204.8-282.1,1204.8-630.4
	C2445.3,314.5,1906,32.4,1241,32.4"/>
<path class="st37" d="M1241,32.4C575.4,32.4,36.2,315,36.2,662.8c0,348.3,539.3,630.4,1204.8,630.4c665,0,1204.8-282.1,1204.8-630.4
	C2445.3,315,1906,32.4,1241,32.4"/>
<path class="st38" d="M1241,32.4C576,32.4,36.7,315,36.7,662.8S576,1293.1,1241,1293.1s1204.3-282.1,1204.3-630.4
	C2445.3,315,1906,32.4,1241,32.4"/>
<path class="st39" d="M1241,32.9C576,32.9,36.7,315,36.7,662.8S576,1292.6,1241,1292.6s1204.3-282.1,1204.3-629.8
	S1906,32.9,1241,32.9"/>
<path class="st40" d="M1241,32.9C576,32.9,36.7,315,36.7,662.8S576,1292.6,1241,1292.6s1204.3-282.1,1204.3-629.8
	S1906,32.9,1241,32.9"/>
<path class="st41" d="M1241,32.9C576,32.9,36.7,315,36.7,662.8s539.3,629.8,1203.8,629.8c665,0,1204.3-282.1,1204.3-629.8
	S1906,32.9,1241,32.9"/>
<path class="st42" d="M1241,32.9C576,32.9,37.2,315,37.2,662.8S576,1292.6,1241,1292.6s1203.8-282.1,1203.8-629.8
	S1905.5,32.9,1241,32.9"/>
<path class="st43" d="M1241,33.5C576,33.5,37.2,315,37.2,662.8S576,1292.1,1241,1292.1c664.5,0,1203.8-282.1,1203.8-629.3
	C2444.8,315,1905.5,33.5,1241,33.5"/>
<path class="st44" d="M1241,33.5C576.5,33.5,37.2,315,37.2,662.8S576,1292.1,1241,1292.1c664.5,0,1203.8-282.1,1203.8-629.3
	C2444.8,315,1905.5,33.5,1241,33.5"/>
<path class="st45" d="M1241,33.5C576.5,33.5,37.7,315.5,37.7,662.8c0,347.8,538.7,629.3,1203.3,629.3s1203.3-281.5,1203.3-629.3
	C2444.2,315.5,1905.5,33.5,1241,33.5"/>
<path class="st46" d="M1241,33.5C576.5,33.5,37.7,315.5,37.7,662.8s538.7,629.3,1203.3,629.3s1203.3-281.5,1203.3-629.3
	C2444.2,315.5,1905.5,33.5,1241,33.5"/>
<path class="st47" d="M1241,34C576.5,34,37.7,315.5,37.7,662.8s538.7,629.3,1203.3,629.3s1203.3-281.5,1203.3-629.3
	C2444.2,315.5,1905.5,34,1241,34"/>
<path class="st48" d="M1241,34C576.5,34,37.7,315.5,37.7,662.8s538.7,628.8,1203.3,628.8S2444.2,1010,2444.2,662.8
	S1905.5,34,1241,34"/>
<path class="st49" d="M1241,34C576.5,34,38.2,315.5,38.2,662.8S577,1291.6,1241,1291.6c664.5,0,1203.3-281.5,1203.3-628.8
	C2443.7,315.5,1905.5,34,1241,34"/>
<path class="st50" d="M1241,34C577,34,38.2,315.5,38.2,662.8S577,1291.6,1241,1291.6c664.5,0,1202.7-281.5,1202.7-628.8
	S1905,34,1241,34"/>
<path class="st51" d="M1241,34.5c-664,0-1202.7,281-1202.7,628.3s538.2,628.8,1202.7,628.8c664,0,1202.7-281.5,1202.7-628.8
	S1905,34.5,1241,34.5"/>
<path class="st52" d="M1241,34.5C577,34.5,38.8,316,38.8,662.8c0,347.3,538.2,628.3,1202.7,628.3c664,0,1202.7-281.5,1202.7-628.3
	C2443.7,316,1905,34.5,1241,34.5"/>
<path class="st53" d="M1241,34.5C577,34.5,38.8,316,38.8,662.8S577,1291.1,1241,1291.1s1202.2-281.5,1202.2-628.3
	C2443.7,316,1905,34.5,1241,34.5"/>
<path class="st54" d="M1241,34.5C577,34.5,38.8,316,38.8,662.8S577,1291.1,1241,1291.1s1202.2-281.5,1202.2-628.3
	S1905,34.5,1241,34.5"/>
<path class="st55" d="M1241,35C577,35,38.8,316,38.8,662.8S577,1291.1,1241,1291.1s1202.2-281,1202.2-628.3
	C2443.2,316,1905,35,1241,35"/>
<path class="st56" d="M1241,35C577.5,35,39.3,316,39.3,662.8s538.2,627.8,1201.7,627.8c664,0,1202.2-281,1202.2-627.8
	S1905,35,1241,35"/>
<path class="st57" d="M1241,35C577.5,35,39.3,316,39.3,662.8s538.2,627.8,1201.7,627.8c664,0,1201.7-281,1201.7-627.8
	C2443.2,316,1905,35,1241,35"/>
<path class="st58" d="M1241,35C577.5,35,39.3,316,39.3,662.8s538.2,627.8,1201.7,627.8c664,0,1201.7-281,1201.7-627.8
	S1905,35,1241,35"/>
<path class="st59" d="M1241,35.5c-663.5,0-1201.7,281-1201.7,627.2c0,346.7,538.2,627.8,1201.7,627.8s1201.7-281,1201.7-627.8
	C2442.7,316.6,1904.5,35.5,1241,35.5"/>
<path class="st60" d="M1241,35.5c-663.5,0-1201.2,281-1201.2,627.2c0,346.7,537.7,627.2,1201.2,627.2
	c663.5,0.5,1201.7-280.5,1201.7-627.2C2442.7,316.6,1904.5,35.5,1241,35.5"/>
<path class="st61" d="M1241,35.5c-663.5,0-1201.2,281-1201.2,627.2c0,346.7,537.7,627.8,1201.2,627.8s1201.7-281,1201.7-627.8
	C2442.7,316.6,1904.5,35.5,1241,35.5"/>
<path class="st62" d="M1241,35.5c-663.5,0-1201.2,281-1201.2,627.8c0,346.2,537.7,627.2,1201.2,627.2s1201.2-281,1201.2-627.2
	C2442.2,316.6,1904.5,35.5,1241,35.5"/>
<path class="st63" d="M1241,36.1C578,36.1,40.3,316.6,40.3,663.3c0,346.2,537.7,627.2,1201.2,627.2s1201.2-281,1201.2-627.2
	C2442.2,316.6,1904.5,36.1,1241,36.1"/>
<path class="st64" d="M1241,36.1C578,36.1,40.3,316.6,40.3,663.3C40.3,1009.5,578,1290,1241,1290c663.5,0,1201.2-280.5,1201.2-626.7
	C2442.2,316.6,1904.5,36.1,1241,36.1"/>
<path class="st65" d="M1241,36.1C578,36.1,40.3,316.6,40.3,662.8S578,1289.5,1241,1289.5S2441.7,1009,2441.7,662.8
	C2442.2,316.6,1904.5,36.1,1241,36.1"/>
<path class="st66" d="M1241,36.1C578,36.1,40.3,316.6,40.3,662.8S578,1289.5,1241,1289.5S2441.7,1009,2441.7,662.8
	C2442.2,317.1,1904.5,36.1,1241,36.1"/>
<path class="st67" d="M1241,36.6C578,36.6,40.3,317.1,40.3,663.3S578,1290,1241,1290s1200.7-280.5,1200.7-626.7
	S1904.5,36.6,1241,36.6"/>
<path class="st68" d="M1241,36.6C578,36.6,40.8,317.1,40.8,663.3c0,345.7,537.7,626.2,1200.2,626.2c663,0,1200.7-280.5,1200.7-626.2
	C2441.7,317.1,1903.9,36.6,1241,36.6"/>
<path class="st69" d="M1241,36.6C578.5,36.6,40.8,317.1,40.8,663.3c0,345.7,537.2,626.2,1200.2,626.2S2441.1,1009,2441.1,663.3
	C2441.7,317.1,1903.9,36.6,1241,36.6"/>
<path class="st70" d="M1241,36.6C578.5,36.6,41.4,317.1,41.4,663.3c0,345.7,537.2,626.2,1200.2,626.2S2441.7,1009,2441.7,663.3
	C2441.7,317.1,1903.9,36.6,1241,36.6"/>
<path class="st71" d="M1241,37.1c-662.4,0-1199.6,280-1199.6,626.2c0,345.7,537.2,626.2,1200.2,626.2S2441.7,1009,2441.7,663.3
	C2441.1,317.1,1903.9,37.1,1241,37.1"/>
<path class="st72" d="M1241.5,37.1c-663,0-1200.2,280-1200.2,626.2c0,345.7,537.2,626.2,1199.6,626.2S2441.1,1009,2441.1,663.3
	C2441.1,317.1,1903.9,37.1,1241.5,37.1"/>
<path class="st73" d="M1241.5,37.1c-663,0-1200.2,280.5-1200.2,626.2S578.5,1289,1241,1289s1199.6-280,1199.6-625.7
	C2441.1,317.6,1903.9,37.1,1241.5,37.1"/>
<path class="st74" d="M1241.5,37.1c-663,0-1199.6,280.5-1199.6,626.2S579.1,1289,1241.5,1289s1199.6-280,1199.6-625.7
	S1903.9,37.1,1241.5,37.1"/>
<path class="st75" d="M1241.5,37.6c-662.4,0-1199.6,280-1199.6,625.7S579.1,1289,1241.5,1289s1199.6-280,1199.6-625.7
	S1903.9,37.6,1241.5,37.6"/>
<path class="st76" d="M1241.5,37.6c-662.4,0-1199.6,280-1199.6,625.7c0,345.2,537.2,625.7,1199.1,625.7
	c662.4,0,1199.6-280,1199.6-625.7S1903.4,37.6,1241.5,37.6"/>
<path class="st77" d="M1241.5,37.6c-662.4,0-1199.6,280-1199.6,625.7c0,345.2,536.7,625.2,1199.1,625.2s1199.1-280,1199.1-625.2
	C2440.6,317.6,1903.4,37.6,1241.5,37.6"/>
<path class="st78" d="M1241.5,37.6c-662.4,0-1199.1,280-1199.1,625.7c0,345.2,536.7,625.2,1199.1,625.2s1199.1-280,1199.1-625.2
	C2440.6,317.6,1903.4,37.6,1241.5,37.6"/>
<path class="st79" d="M1241.5,38.1C579.1,38.1,42.4,317.6,42.4,663.3c0,345.2,536.7,625.2,1199.1,625.2
	c661.9,0,1199.1-280,1199.1-625.2C2440.6,317.6,1903.4,38.1,1241.5,38.1"/>
<path class="st80" d="M1241.5,38.1c-662.4,0-1199.1,280-1199.1,625.2s536.7,625.2,1198.6,625.2s1199.1-280,1199.1-625.2
	S1903.4,38.1,1241.5,38.1"/>
<path class="st81" d="M1241.5,38.1c-661.9,0-1198.6,280-1198.6,625.2S579.6,1288,1241.5,1288s1198.6-280,1198.6-624.7
	C2440.1,318.1,1903.4,38.1,1241.5,38.1"/>
<path class="st82" d="M1241.5,38.1c-661.9,0-1198.6,280-1198.6,625.2S579.6,1288,1241.5,1288s1198.6-280,1198.6-624.7
	C2440.1,318.1,1903.4,38.1,1241.5,38.1"/>
<path class="st83" d="M1241.5,38.6C579.6,38.6,42.9,318.1,42.9,663.3c0,344.7,536.7,624.7,1198.6,624.7s1198.6-279.5,1198.6-624.7
	S1903.4,38.6,1241.5,38.6"/>
<path class="st84" d="M1241.5,38.6C579.6,38.6,42.9,318.1,42.9,663.3C42.9,1008,579.6,1288,1241,1288
	c661.9,0,1198.6-279.5,1198.6-624.7S1903.4,38.6,1241.5,38.6"/>
<path class="st85" d="M1241.5,38.6C579.6,38.6,43.4,318.1,43.4,663.3c0,344.7,536.7,624.1,1198.1,624.1
	c661.9,0,1198.1-279.5,1198.1-624.1C2439.6,318.1,1902.9,38.6,1241.5,38.6"/>
<path class="st86" d="M1241.5,38.6C579.6,38.6,43.4,318.1,43.4,663.3c0,344.7,536.2,624.1,1198.1,624.1
	c661.4,0,1198.1-279.5,1198.1-624.1C2439.6,318.1,1902.9,38.6,1241.5,38.6"/>
<path class="st87" d="M1241.5,39.2C580.1,39.2,43.4,318.6,43.4,663.3s536.2,624.1,1198.1,624.1c661.4,0,1198.1-279.5,1198.1-624.1
	S1902.9,39.2,1241.5,39.2"/>
<path class="st88" d="M1241.5,39.2C580.1,39.2,43.9,318.6,43.9,663.3s536.2,624.1,1197.6,624.1S2439.6,1008,2439.6,663.3
	S1902.9,39.2,1241.5,39.2"/>
<path class="st89" d="M1241.5,39.2C580.1,39.2,43.9,318.6,43.9,663.3s536.2,623.6,1197.6,623.6s1197.6-279.5,1197.6-623.6
	C2439.1,318.6,1902.9,39.2,1241.5,39.2"/>
<path class="st90" d="M1241.5,39.2C580.1,39.2,43.9,318.6,43.9,663.3s536.2,623.6,1197.6,623.6s1197.6-279.5,1197.6-623.6
	C2439.1,318.6,1902.9,39.2,1241.5,39.2"/>
<path class="st91" d="M1241.5,39.7C580.1,39.7,43.9,318.6,43.9,663.3c0,344.2,536.2,623.6,1197.6,623.6s1197.6-279.5,1197.6-623.6
	C2439.1,318.6,1902.9,39.7,1241.5,39.7"/>
<path class="st92" d="M1241.5,39.7c-661.4,0-1197,278.9-1197,623.6c0,344.2,536.2,623.6,1197,623.6
	c661.4,0,1197.6-278.9,1197.6-623.6S1902.9,39.7,1241.5,39.7"/>
<path class="st93" d="M1241.5,39.7c-660.9,0-1197,278.9-1197,623.6c0,344.2,536.2,623.6,1197,623.6c661.4,0,1197-278.9,1197-623.6
	S1902.9,39.7,1241.5,39.7"/>
<path class="st94" d="M1241.5,39.7c-660.9,0-1197,279.5-1197,623.6s536.2,623.1,1197,623.1s1197-278.9,1197-623.1
	S1902.4,39.7,1241.5,39.7"/>
<path class="st95" d="M1241.5,40.2c-660.9,0-1197,278.9-1197,623.1s535.6,623.1,1197,623.1c660.9,0,1197-278.9,1197-623.1
	S1902.4,40.2,1241.5,40.2"/>
<path class="st96" d="M1241.5,40.2C580.6,40.2,45,319.1,45,663.3s535.6,623.1,1196.5,623.1s1197-278.9,1197-623.1
	S1902.4,40.2,1241.5,40.2"/>
<path class="st97" d="M1241.5,40.2C580.6,40.2,45,319.1,45,663.3s535.6,623.1,1196.5,623.1S2438,1007.5,2438,663.3
	S1902.4,40.2,1241.5,40.2"/>
<path class="st98" d="M1241.5,40.2C580.6,40.2,45,319.1,45,663.3s535.6,622.6,1196.5,622.6S2438,1006.9,2438,663.3
	C2438,319.1,1902.4,40.2,1241.5,40.2"/>
<path class="st99" d="M1241.5,40.7c-660.4,0-1196,278.4-1196,622.6c0,343.6,535.6,622.6,1196.5,622.6s1196.5-278.9,1196.5-622.6
	C2438,319.1,1902.4,40.7,1241.5,40.7"/>
<path class="st100" d="M1241.5,40.7c-660.4,0-1196,278.4-1196,622.6c0,343.6,535.6,622.6,1196,622.6
	c660.9,0,1196.5-278.9,1196.5-622.6C2438,319.1,1902.4,40.7,1241.5,40.7"/>
<path class="st101" d="M1241.5,40.7c-660.4,0-1196,278.9-1196,622.6s535.6,622.1,1196,622.1s1196-278.4,1196-622.6
	C2438,319.7,1902.4,40.7,1241.5,40.7"/>
<path class="st102" d="M1241.5,40.7c-660.4,0-1196,278.9-1196,622.6s535.6,622.1,1196,622.1c660.9,0,1196-278.4,1196-622.1
	S1902.4,40.7,1241.5,40.7"/>
<path class="st103" d="M1241.5,41.2C581.1,41.2,46,319.7,46,663.3s535.1,622.1,1195.5,622.1s1196-278.4,1196-622.1
	S1901.9,41.2,1241.5,41.2"/>
<path class="st104" d="M1241.5,41.2C581.1,41.2,46,319.7,46,663.3s535.1,622.1,1195.5,622.1s1196-278.4,1196-622.1
	S1901.9,41.2,1241.5,41.2"/>
<path class="st105" d="M1241.5,41.2C581.1,41.2,46,319.7,46,663.3s535.1,622.1,1195.5,622.1S2437,1006.9,2437,663.3
	C2437.5,319.7,1901.9,41.2,1241.5,41.2"/>
<path class="st106" d="M1241.5,41.2c-659.9,0-1195,278.4-1195,622.1c0,343.1,535.1,621.6,1195.5,621.6s1195.5-278.4,1195.5-621.6
	C2437,319.7,1901.9,41.2,1241.5,41.2"/>
<path class="st107" d="M1241.5,41.7c-659.9,0-1195,277.9-1195,621.6c0,343.1,535.1,621.6,1195.5,621.6s1195.5-278.4,1195.5-621.6
	C2437,319.7,1901.9,41.7,1241.5,41.7"/>
<path class="st108" d="M1241.5,41.7c-659.9,0-1195,278.4-1195,621.6s535.1,621.6,1195,621.6S2437,1006.4,2437,663.3
	S1901.9,41.7,1241.5,41.7"/>
<path class="st109" d="M1241.5,41.7c-659.9,0-1195,278.4-1195,621.6s535.1,621.6,1195,621.6s1195-278.4,1195-621.6
	C2437,320.2,1901.9,41.7,1241.5,41.7"/>
<path class="st110" d="M1241.5,41.7C581.7,41.7,47,320.2,47,663.3s535.1,621,1195,621s1195-278.4,1195-621
	C2436.5,320.2,1901.9,41.7,1241.5,41.7"/>
<path class="st111" d="M1242,42.3c-659.9,0-1195,277.9-1195,621s535.1,621,1195,621s1195-277.9,1195-621
	C2436.5,320.2,1901.4,42.3,1242,42.3"/>
<path class="st112" d="M1242,42.3c-659.9,0-1195,277.9-1195,621s535.1,621,1194.5,621c659.9,0,1195-277.9,1195-621
	S1901.4,42.3,1242,42.3"/>
<path class="st113" d="M1242,42.3c-659.9,0-1194.5,277.9-1194.5,621s534.6,621,1194.5,621s1194.5-277.9,1194.5-621
	S1901.4,42.3,1242,42.3"/>
<path class="st114" d="M1242,42.3c-659.9,0-1194.5,277.9-1194.5,621c0,342.6,534.6,621,1194.5,621s1194.5-277.9,1194.5-621
	S1901.4,42.3,1242,42.3"/>
<path class="st115" d="M1242,42.8C582.2,42.8,47.6,320.7,47.6,663.3s534.6,620.5,1194.5,620.5c659.3,0,1194.5-277.9,1194.5-620.5
	C2436,320.7,1901.4,42.8,1242,42.8"/>
<path class="st116" d="M1242,42.8C582.2,42.8,47.6,320.7,47.6,663.3s534.6,620.5,1194.5,620.5c659.3,0,1193.9-277.9,1193.9-620.5
	S1901.4,42.8,1242,42.8"/>
<path class="st117" d="M1242,42.8C582.7,42.8,48.1,320.7,48.1,663.3s534.6,620.5,1193.9,620.5S2436,1005.9,2436,663.3
	S1901.4,42.8,1242,42.8"/>
<path class="st118" d="M1242,42.8C582.7,42.8,48.1,320.7,48.1,663.3s534.6,620.5,1193.9,620.5S2436,1005.9,2436,663.3
	S1901.4,42.8,1242,42.8"/>
<path class="st119" d="M1242,43.3c-659.3,0-1193.9,277.4-1193.9,620s534.6,620,1193.9,620S2436,1005.4,2436,663.3
	C2435.4,320.7,1901.4,43.3,1242,43.3"/>
<path class="st120" d="M1242,43.3c-659.3,0-1193.9,277.4-1193.9,620s534.6,620,1193.9,620s1193.4-277.4,1193.4-620
	S1900.8,43.3,1242,43.3"/>
<path class="st121" d="M1242,43.3c-659.3,0-1193.4,277.4-1193.4,620s534.1,620,1193.4,620s1193.4-277.4,1193.4-620
	S1900.8,43.3,1242,43.3"/>
<path class="st122" d="M1242,43.3c-659.3,0-1193.4,277.9-1193.4,620s534.1,620,1193.4,620c658.8,0,1193.4-277.4,1193.4-620
	C2435.4,321.2,1900.8,43.3,1242,43.3"/>
<path class="st123" d="M1242,43.8C583.2,43.8,48.6,321.2,48.6,663.3s534.1,619.5,1193.4,619.5c658.8,0,1193.4-277.4,1193.4-619.5
	S1900.8,43.8,1242,43.8"/>
<path class="st124" d="M1242,43.8C583.2,43.8,49.1,321.2,49.1,663.3s534.1,619.5,1192.9,619.5s1192.9-277.4,1192.9-619.5
	S1900.8,43.8,1242,43.8"/>
<path class="st125" d="M1242,43.8C583.2,43.8,49.1,321.2,49.1,663.3s534.1,619.5,1192.9,619.5s1192.9-277.4,1192.9-619.5
	S1900.8,43.8,1242,43.8"/>
<path class="st126" d="M1242,43.8C583.2,43.8,49.1,321.2,49.1,663.3s534.1,619.5,1192.9,619.5s1192.9-277.4,1192.9-619.5
	S1900.8,43.8,1242,43.8"/>
<path class="st127" d="M1242,44.3c-658.8,0-1192.9,276.9-1192.9,619s534.1,619,1192.4,619c658.8,0,1192.9-277.4,1192.9-619
	C2434.9,321.2,1900.8,44.3,1242,44.3"/>
<path class="st128" d="M1242,44.3c-658.8,0-1192.4,276.9-1192.4,619s534.1,619,1192.4,619c658.8,0,1192.4-277.4,1192.4-619
	C2434.4,321.2,1900.8,44.3,1242,44.3"/>
<path class="st129" d="M1242,44.3c-658.3,0-1192.4,277.4-1192.4,619s534.1,619,1192.4,619s1192.4-277.4,1192.4-619
	S1900.3,44.3,1242,44.3"/>
<path class="st130" d="M1242,44.3c-658.3,0-1192.4,277.4-1192.4,619s533.6,619,1192.4,619c658.3,0,1192.4-276.9,1192.4-619
	C2434.4,321.7,1900.3,44.3,1242,44.3"/>
<path class="st131" d="M1242,44.8C583.7,44.8,50.1,321.7,50.1,663.3s533.6,618.4,1191.9,618.4s1192.4-276.9,1192.4-618.4
	S1900.3,44.8,1242,44.8"/>
<path class="st132" d="M1242,44.8C583.7,44.8,50.1,321.7,50.1,663.3s533.6,618.4,1191.9,618.4s1191.9-276.9,1191.9-618.4
	S1900.3,44.8,1242,44.8"/>
<path class="st133" d="M1242,44.8C583.7,44.8,50.1,321.7,50.1,663.3s533.6,618.4,1191.9,618.4s1191.9-276.9,1191.9-618.4
	S1900.3,44.8,1242,44.8"/>
<path class="st134" d="M1242,44.8C583.7,44.8,50.1,321.7,50.1,663.3s533.6,618.4,1191.9,618.4s1191.9-276.9,1191.9-618.4
	S1900.3,44.8,1242,44.8"/>
<path class="st135" d="M1242,45.4C584.2,45.4,50.7,321.7,50.7,663.3s533.6,618.4,1191.4,618.4c658.3,0,1191.9-276.9,1191.9-618.4
	S1900.3,45.4,1242,45.4"/>
<path class="st136" d="M1242,45.4C584.2,45.4,50.7,322.2,50.7,663.3s533.6,617.9,1191.4,617.9s1191.4-276.9,1191.4-617.9
	C2433.9,322.2,1900.3,45.4,1242,45.4"/>
<path class="st137" d="M1242,45.4C584.2,45.4,50.7,322.2,50.7,663.3s533.6,617.9,1191.4,617.9s1191.4-276.9,1191.4-617.9
	S1899.8,45.4,1242,45.4"/>
<path class="st138" d="M1242,45.4C584.2,45.4,50.7,322.2,50.7,663.3s533.6,617.9,1191.4,617.9s1191.4-276.9,1191.4-617.9
	S1899.8,45.4,1242,45.4"/>
<path class="st139" d="M1242,45.9C584.2,45.9,51.2,322.2,51.2,663.3s533.1,617.9,1190.8,617.9s1191.4-276.4,1191.4-617.9
	C2433.4,322.2,1899.8,45.9,1242,45.9"/>
<path class="st140" d="M1242,45.9C584.2,45.9,51.2,322.2,51.2,663.3s533.1,617.4,1190.8,617.4s1190.8-276.4,1190.8-617.4
	C2433.4,322.2,1899.8,45.9,1242,45.9"/>
<path class="st141" d="M1242,45.9C584.8,45.9,51.2,322.2,51.2,663.3s533.1,617.4,1190.8,617.4s1190.8-276.4,1190.8-617.4
	S1899.8,45.9,1242,45.9"/>
<path class="st142" d="M1242,45.9C584.8,45.9,51.7,322.2,51.7,663.3s533.1,617.4,1190.3,617.4c657.8,0,1190.8-276.4,1190.8-617.4
	S1899.8,45.9,1242,45.9"/>
<path class="st143" d="M1242,46.4C584.8,46.4,51.7,322.2,51.7,663.3s533.1,617.4,1190.3,617.4s1190.8-276.4,1190.8-617.4
	S1899.8,46.4,1242,46.4"/>
<path class="st144" d="M1242,46.4C584.8,46.4,51.7,322.8,51.7,663.3s533.1,616.9,1190.3,616.9s1190.3-276.4,1190.3-616.9
	C2432.9,322.8,1899.8,46.4,1242,46.4"/>
<path class="st145" d="M1242,46.4C584.8,46.4,51.7,322.8,51.7,663.3c0,341.1,533.1,616.9,1190.3,616.9s1190.3-276.4,1190.3-616.9
	C2432.9,322.8,1899.8,46.4,1242,46.4"/>
<path class="st146" d="M1242,46.4C584.8,46.4,52.2,322.8,52.2,663.3s532.5,616.9,1189.8,616.9s1190.3-276.4,1190.3-616.9
	S1899.3,46.4,1242,46.4"/>
<path class="st147" d="M1242,46.9C585.3,46.9,52.2,322.8,52.2,663.3s533.1,616.9,1189.8,616.9c657.3,0,1190.3-276.4,1190.3-616.9
	S1899.3,46.9,1242,46.9"/>
<path class="st148" d="M1242,46.9C585.3,46.9,52.2,322.8,52.2,663.3s533.1,616.9,1189.8,616.9c657.3,0,1190.3-276.4,1190.3-616.9
	S1899.3,46.9,1242,46.9"/>
<path class="st149" d="M1242,46.9C585.3,46.9,52.7,322.8,52.7,663.3s532.5,616.4,1189.8,616.4s1189.8-275.8,1189.8-616.4
	S1899.3,46.9,1242,46.9"/>
<path class="st150" d="M1242,46.9C585.3,46.9,52.7,322.8,52.7,663.3s532.5,616.4,1189.8,616.4s1189.8-275.8,1189.8-616.4
	C2431.8,322.8,1899.3,46.9,1242,46.9"/>
<path class="st151" d="M1242.5,47.4C585.3,47.4,52.7,323.3,52.7,663.3c0,340.5,532.5,616.4,1189.3,616.4s1189.8-275.8,1189.8-616.4
	C2431.8,323.3,1899.3,47.4,1242.5,47.4"/>
<path class="st152" d="M1242.5,47.4C585.3,47.4,52.7,323.3,52.7,663.3s532.5,615.9,1189.3,615.9s1189.3-275.8,1189.3-615.9
	C2431.8,323.3,1899.3,47.4,1242.5,47.4"/>
<path class="st153" d="M1242.5,47.4C585.8,47.4,53.3,323.3,53.3,663.3s532.5,615.9,1189.3,615.9s1189.3-275.8,1189.3-615.9
	S1899.3,47.4,1242.5,47.4"/>
<path class="st154" d="M1242.5,47.4C585.8,47.4,53.3,323.3,53.3,663.3s532.5,615.9,1189.3,615.9s1189.3-275.8,1189.3-615.9
	C2431.3,323.3,1899.3,47.4,1242.5,47.4"/>
<path class="st155" d="M1242.5,48C585.8,48,53.3,323.3,53.3,663.3s532.5,615.9,1188.8,615.9c656.7,0,1189.3-275.8,1189.3-615.9
	S1898.8,48,1242.5,48"/>
<path class="st156" d="M1242.5,48C585.8,48,53.8,323.3,53.8,663.3s532.5,615.3,1188.8,615.3c656.7,0,1188.8-275.8,1188.8-615.3
	C2431.3,323.3,1898.8,48,1242.5,48"/>
<path class="st157" d="M1242.5,48C585.8,48,53.8,323.3,53.8,663.3s532,615.3,1188.8,615.3s1188.8-275.8,1188.8-615.3
	C2431.3,323.3,1898.8,48,1242.5,48"/>
<path class="st158" d="M1242.5,48C585.8,48,53.8,323.8,53.8,663.3c0,340,532,615.3,1188.8,615.3c656.2,0,1188.8-275.3,1188.8-615.3
	C2431.3,323.8,1898.8,48,1242.5,48"/>
<path class="st159" d="M1242.5,48.5C586.3,48.5,53.8,323.8,53.8,663.3s532,615.3,1188.2,615.3s1188.8-275.3,1188.8-615.3
	C2430.8,323.8,1898.8,48.5,1242.5,48.5"/>
<path class="st160" d="M1242.5,48.5C586.3,48.5,54.3,323.8,54.3,663.3s532,615.3,1188.2,615.3s1188.2-275.3,1188.2-615.3
	C2430.8,323.8,1898.8,48.5,1242.5,48.5"/>
<path class="st161" d="M1242.5,48.5C586.3,48.5,54.3,323.8,54.3,663.3s532,614.8,1188.2,614.8s1188.2-275.3,1188.2-614.8
	S1898.8,48.5,1242.5,48.5"/>
<path class="st162" d="M1242.5,48.5C586.3,48.5,54.3,323.8,54.3,663.3s532,614.8,1188.2,614.8s1188.2-275.3,1188.2-614.8
	S1898.8,48.5,1242.5,48.5"/>
<path class="st163" d="M1242.5,49C586.3,49,54.3,323.8,54.3,663.3s532,614.8,1187.7,614.8c656.2,0,1188.2-275.3,1188.2-614.8
	S1898.8,49,1242.5,49"/>
<path class="st164" d="M1242.5,49C586.3,49,54.8,323.8,54.8,663.3s532,614.8,1187.7,614.8c656.2,0,1187.7-275.3,1187.7-614.8
	S1898.2,49,1242.5,49"/>
<path class="st165" d="M1242.5,49C586.8,49,54.8,324.3,54.8,663.3c0,339.5,532,614.3,1187.7,614.3s1187.7-275.3,1187.7-614.3
	S1898.2,49,1242.5,49"/>
<path class="st166" d="M1242.5,49C586.8,49,54.8,324.3,54.8,663.3c0,339.5,531.5,614.3,1187.7,614.3
	c655.7,0,1187.7-275.3,1187.7-614.3S1898.2,49,1242.5,49"/>
<path class="st167" d="M1242.5,49.5C586.8,49.5,55.3,324.3,55.3,663.3s531.5,614.3,1187.2,614.3s1187.7-274.8,1187.7-614.3
	C2429.8,324.3,1898.2,49.5,1242.5,49.5"/>
<path class="st168" d="M1242.5,49.5C586.8,49.5,55.3,324.3,55.3,663.3s531.5,614.3,1187.2,614.3s1187.2-274.8,1187.2-614.3
	C2429.8,324.3,1898.2,49.5,1242.5,49.5"/>
<path class="st169" d="M1242.5,49.5C586.8,49.5,55.3,324.3,55.3,663.3s531.5,613.8,1187.2,613.8s1187.2-274.8,1187.2-613.8
	S1898.2,49.5,1242.5,49.5"/>
<path class="st170" d="M1242.5,49.5C586.8,49.5,55.3,324.3,55.3,663.3s531.5,613.8,1187.2,613.8s1187.2-274.8,1187.2-613.8
	S1898.2,49.5,1242.5,49.5"/>
<path class="st171" d="M1242.5,50C587.3,50,55.8,324.3,55.8,663.3s531.5,613.8,1186.7,613.8c655.7,0,1187.2-274.8,1187.2-613.8
	S1898.2,50,1242.5,50"/>
<path class="st172" d="M1242.5,50C587.3,50,55.8,324.8,55.8,663.3c0,339,531.5,613.8,1186.7,613.8s1186.7-274.8,1186.7-613.8
	C2429.2,324.8,1897.7,50,1242.5,50"/>
<path class="st173" d="M1242.5,50C587.3,50,55.8,324.8,55.8,663.3c0,339,531.5,613.3,1186.7,613.3s1186.7-274.8,1186.7-613.3
	S1897.7,50,1242.5,50"/>
<path class="st174" d="M1242.5,50C587.3,50,56.4,324.8,56.4,663.8c0,338.5,531,613.3,1186.7,613.3
	c655.2,0,1186.7-274.8,1186.7-613.3C2429.2,324.8,1897.7,50,1242.5,50"/>
<path class="st175" d="M1242.5,50.5C587.3,50.5,56.4,324.8,56.4,663.8c0,338.5,531,613.3,1186.2,613.3s1186.7-274.8,1186.7-613.3
	C2429.2,324.8,1897.7,50.5,1242.5,50.5"/>
<path class="st176" d="M1242.5,50.5C587.3,50.5,56.4,324.8,56.4,663.8c0,338.5,531,613.3,1186.2,613.3s1186.2-274.8,1186.2-613.3
	C2428.7,324.8,1897.7,50.5,1242.5,50.5"/>
<path class="st177" d="M1242.5,50.5C587.9,50.5,56.4,324.8,56.4,663.8c0,338.5,531,612.8,1186.2,612.8s1186.2-274.3,1186.2-612.8
	C2428.7,324.8,1897.7,50.5,1242.5,50.5"/>
<path class="st177" d="M1242.5,50.5C587.9,50.5,56.9,324.8,56.9,663.8c0,338.5,531,612.8,1186.2,612.8s1186.2-274.3,1186.2-612.8
	C2428.7,324.8,1897.7,50.5,1242.5,50.5"/>
<path class="st178" d="M1242.5,51.1C587.9,51.1,56.9,325.4,56.9,663.8s531,612.8,1185.7,612.8s1186.2-274.3,1186.2-612.8
	S1897.7,51.1,1242.5,51.1"/>
<path class="st179" d="M1240.5,78C598.7,78,78.6,339.8,78.6,662.8s520.1,584.8,1161.9,584.8s1161.9-261.9,1161.9-584.8
	S1882.2,78,1240.5,78"/>
<linearGradient id="SVGID_1_" gradientUnits="userSpaceOnUse" x1="1150.4784" y1="819.0349" x2="1264.6534" y2="574.1861" gradientTransform="matrix(5.3487 0 0 -5.3487 -5218.4854 4388.7676)">
	<stop  offset="0" style="stop-color:#008948"/>
	<stop  offset="4.200000e-02" style="stop-color:#008847"/>
	<stop  offset="9.600000e-02" style="stop-color:#008244"/>
	<stop  offset="0.157" style="stop-color:#00793F"/>
	<stop  offset="0.222" style="stop-color:#006A37"/>
	<stop  offset="0.291" style="stop-color:#00572B"/>
	<stop  offset="0.319" style="stop-color:#004E24"/>
	<stop  offset="1" style="stop-color:#000000"/>
</linearGradient>
<path class="st180" d="M1240.5,78C598.7,78,78.6,339.8,78.6,662.8s520.1,584.8,1161.9,584.8s1161.9-261.9,1161.9-584.8
	S1882.2,78,1240.5,78"/>
<path class="st181" d="M1240.5,147.8C639.1,147.8,151.6,380.7,151.6,668s487.5,520.1,1088.9,520.1S2329.4,955.2,2329.4,668
	S1841.8,147.8,1240.5,147.8"/>
<path class="st182" d="M1240.5,117.3c-617.4,0-1117.9,244.8-1117.9,546c0,301.7,500.5,546,1117.9,546s1118.4-244.8,1118.4-546
	C2358.3,362.1,1857.9,117.3,1240.5,117.3"/>
<g>
	<path class="st183" d="M1911.2,414.9h-182.7l-22.3,66.8h118l-134.6,48.6l-8.8,26.9l207.5-70.9L1911.2,414.9 M765.4,526.7
		l-24.8,70.9h-178c0,0,4.1-1.6,9.8-13.5c5.7-11.9,88-251.5,88-251.5s11.4-25.4-1.6-31.6h103c0,0-5.7-1.6-15.5,23.8
		c-5.7,14.5-74.5,207-74.5,207h74.5C746.2,531.8,763.3,533.4,765.4,526.7 M1058.3,597.6h83.8c0,0-5.7-8.8-2.1-18.6
		c4.7-13.5,49.2-140.3,49.2-140.3l19.7,158.9h76.1l99.4-282.6c0,0,4.1-13.5,9.8-13.5h-80.7c0,0,2.1,9.8-0.5,17.1
		c-3.1,7.8-48.6,135.6-48.6,135.6l-18.1-152.7h-86.9c0,0,4.7,7.8,1.6,15.5c-2.6,6.7-92.1,263.9-92.1,263.9
		S1063.5,597.6,1058.3,597.6 M1537,301.5h-95.2c0,0,7.2,11.9-2.1,39.8c-9.3,27.9-82.3,233.9-82.3,233.9s-5.7,19.7-13.5,23.3h114.9
		c0,0,139.2,5.7,182.2-147.5C1640.5,450.6,1694.9,300,1537,301.5L1537,301.5z M1547.4,463.5c-24.3,62.1-60.6,66.2-79.7,66.2h-13.5
		l55.9-164.6h21.7C1531.3,365.2,1587.2,362.1,1547.4,463.5z M435.2,836.7h182.7l22.3-66.8H521.6l135.1-48.6l8.8-26.9L458,765.8
		L435.2,836.7 M955.3,774.6c34.2-114.9-81.3-111.8-81.3-111.8H755.5c8.8,9.8,2.1,31.1,2.1,31.1s-73.5,220-79.2,237
		c-5.7,17.1-16,28.5-16,28.5h93.7c-3.1,0-3.1-9.8-3.1-9.8l33.6-93.2c0,0,41.9,85.9,45,91.6c2.6,6.2,1.6,10.9,1.6,10.9h99.9
		c-9.8,0-19.7-19.1-19.7-19.1L863.7,846C932.5,847,955.3,774.6,955.3,774.6L955.3,774.6z M873.5,764.2
		c-12.9,29.5-48.6,25.9-48.6,25.9h-18.1l19.1-59.5h19.7C888.5,730.6,873.5,764.2,873.5,764.2z M1988.8,778.2
		c36.7-120.6-80.2-114.4-80.2-114.4h-117.5c8.8,9.8,2.1,31.1,2.1,31.1s-76.6,221-82.3,237.5c-5.7,17.1-16.6,27.9-16.6,27.9h97.8
		c-7.2,0-2.1-18.1-2.1-18.1l30-84.9c0,0,40.4,85.9,43.5,91.6c3.1,6.2,1.6,10.9,1.6,10.9h103.5c-9.8,0-20.2-19.1-20.2-19.1
		l-49.7-93.7C1968.1,848.1,1988.8,778.2,1988.8,778.2L1988.8,778.2z M1906,765.8c-10.9,28.5-46.1,25.9-46.1,25.9h-18.1l19.1-59h25.9
		C1886.9,732.6,1918.4,731.6,1906,765.8L1906,765.8z M1141.1,655c-91.6,0-151.1,72.5-166.6,162.5c-14,82.8,30.5,149,104.5,149
		c103.5,0,165.1-106.1,165.1-182.2C1244.1,704.7,1212.5,655,1141.1,655z M1154.6,820.1c-15,62.1-43.5,81.3-68.8,76.6
		c-35.2-6.7-29-63.7-23.3-90.1c12.4-57.4,43-84.9,65.7-82.3C1135.4,725.4,1176.8,726.4,1154.6,820.1L1154.6,820.1z M1268.4,663.8
		c0,0,7.2,4.1,7.2,22.8v256.7c0,0-1,14-6.2,17.1h76.6c0,0,0-6.2,7.8-16c7.8-9.8,167.2-233.9,167.2-233.9s36.2-47.1,46.1-47.1h-110.2
		c0,0,8.8,6.2,2.1,17.1c-6.7,10.9-104.5,164.1-104.5,164.1l1.6-154.2c0,0,0-24.8,9.3-26.9L1268.4,663.8 M1733.2,733.7l24.8-69.9
		h-186.3c0,0,6.7,6.2-2.1,31.1c-8.8,24.8-84.4,237.5-84.4,237.5s-13.5,27.9-17.1,27.9h192l22.8-70.9c0,0-3.1,4.1-21.2,4.1h-81.3
		l17.1-48.1h63.7c0,0,13.5-1,16,3.1l25.9-76.1c0,0-2.1,6.7-19.1,6.7h-61.1l18.1-52.8h77.6C1718.7,727,1729,725.4,1733.2,733.7
		 M1048.5,598.1c0,0-6.7-4.1-8.3-16l-11.4-260.8c0,0-0.5-16.6,7.2-20.2H945c0,0,6.2,8.3-5.7,26.9
		c-12.4,18.6-167.7,259.8-167.7,259.8s-3.1,6.2-10.9,9.8h92.1c0,0-0.5-7.2,2.1-12.4c4.1-8.8,15.5-29.5,15.5-29.5h92.6v25.9
		c0,0,0.5,9.3-6.2,16h91.6L1048.5,598.1z M910.3,488.9l51.2-86.9l0.5,86.9L910.3,488.9L910.3,488.9z"/>
</g>
</svg>
