<?xml version="1.0" encoding="utf-8"?>
<!-- Generator: Adobe Illustrator 21.1.0, SVG Export Plug-In . SVG Version: 6.00 Build 0)  -->
<svg version="1.1"
	 id="svg4338" inkscape:version="0.91 r13725" sodipodi:docname="lexus.svg" xmlns:cc="http://creativecommons.org/ns#" xmlns:dc="http://purl.org/dc/elements/1.1/" xmlns:inkscape="http://www.inkscape.org/namespaces/inkscape" xmlns:rdf="http://www.w3.org/1999/02/22-rdf-syntax-ns#" xmlns:sodipodi="http://sodipodi.sourceforge.net/DTD/sodipodi-0.dtd" xmlns:svg="http://www.w3.org/2000/svg"
	 xmlns="http://www.w3.org/2000/svg" xmlns:xlink="http://www.w3.org/1999/xlink" x="0px" y="0px" viewBox="0 0 489 397"
	 style="enable-background:new 0 0 489 397;" xml:space="preserve">
<style type="text/css">
	.st0{fill:url(#path3036_1_);}
	.st1{fill:url(#path4156_1_);}
	.st2{fill:url(#path3277_1_);}
	.st3{fill:url(#path3275_1_);}
	.st4{fill:url(#path3272_1_);}
	.st5{fill:url(#path3270_1_);}
	.st6{fill:url(#path3268_1_);}
	.st7{fill:url(#path3266_1_);}
	.st8{fill:url(#path2998_1_);}
	.st9{fill:url(#path3007_1_);}
	.st10{fill:url(#path3124_1_);}
	.st11{fill:url(#path3136_1_);}
	.st12{fill:url(#path3075_1_);}
	.st13{fill:url(#path3051_1_);}
	.st14{fill:url(#path3126_1_);}
	.st15{fill:url(#path3068-2_1_);}
	.st16{fill:url(#path3992_1_);}
	.st17{fill:url(#path3068_1_);}
	.st18{fill:url(#path3305_1_);}
	.st19{fill:url(#path3992-7_1_);}
	.st20{fill:url(#path3274_1_);}
	.st21{opacity:0.8;}
	.st22{fill:url(#path3068-2-3-6-4_1_);}
	.st23{fill:url(#path3068-2-3-6_1_);}
	.st24{fill:#505050;}
	.st25{fill:url(#path3120_1_);}
	.st26{fill:url(#path3025_1_);}
	.st27{opacity:0.5;fill:url(#path4184_1_);enable-background:new    ;}
	.st28{fill:url(#path3069_1_);}
	.st29{opacity:0.3;fill:url(#path3314_1_);enable-background:new    ;}
	.st30{fill:url(#path3116_1_);}
	.st31{opacity:0.5;fill:url(#path4198_1_);enable-background:new    ;}
	.st32{opacity:0.3;fill:url(#path3116-1_1_);enable-background:new    ;}
	.st33{opacity:0.3;fill:url(#path4500_1_);enable-background:new    ;}
	.st34{fill:url(#path3155_1_);}
	.st35{opacity:0.5;fill:url(#path3284_1_);enable-background:new    ;}
	.st36{opacity:0.3;fill:url(#path3300_1_);enable-background:new    ;}
	.st37{opacity:0.6;fill:url(#path3287_1_);enable-background:new    ;}
</style>
<sodipodi:namedview  bordercolor="#666666" borderopacity="1.0" fit-margin-bottom="0" fit-margin-left="0" fit-margin-right="0" fit-margin-top="0" id="base" inkscape:current-layer="layer1" inkscape:cx="244.51314" inkscape:cy="150.08883" inkscape:document-units="px" inkscape:pageopacity="0.0" inkscape:pageshadow="2" inkscape:window-height="744" inkscape:window-maximized="1" inkscape:window-width="1280" inkscape:window-x="-4" inkscape:window-y="-4" inkscape:zoom="1.8089288" pagecolor="#ffffff" showgrid="false" units="px">
	</sodipodi:namedview>
<g id="layer1" transform="translate(-98.344003,-477.41617)" inkscape:groupmode="layer" inkscape:label="Layer 1">
	
		<linearGradient id="path3036_1_" gradientUnits="userSpaceOnUse" x1="403.9279" y1="277.6524" x2="399.817" y2="447.6525" gradientTransform="matrix(0.5719 0 0 -0.5719 113.0901 1004.725)">
		<stop  offset="0" style="stop-color:#505050"/>
		<stop  offset="5.847444e-02" style="stop-color:#525252"/>
		<stop  offset="0.5615" style="stop-color:#555555"/>
		<stop  offset="0.7865" style="stop-color:#5A5A5A"/>
		<stop  offset="1" style="stop-color:#C8C8C8"/>
	</linearGradient>
	
		<path id="path3036" inkscape:connector-curvature="0" sodipodi:nodetypes="cscccscsssscsssccsssscssscscssssccccccccccsssscsssssscsssssssssssscssccscssscssccssscsssccccssccsscc" class="st0" d="
		M123.4,825.8c-11.4-1.8-18.2-5.9-21-13.7l-1.5-4.1l-2.2-20.8v-21.4l10.1-0.2c9-0.1,10.2,0,10.8,0.8c0.5,0.7,0.7,5.6,0.7,19.6
		c0,17.6,0.1,18.7,1.2,21c0.6,1.3,2.1,3.1,3.2,3.9c4.2,3.2,3.8,3.2,32.4,3.2h26.4l2.2-4.3c1.2-2.4,3.8-6,5.9-8.2
		c2-2.2,3.7-4.1,3.7-4.3c0-0.2-2.9-0.4-6.5-0.5l-6.5-0.2l0.1-2.2c0.3-5.1,7.1-14.8,14-20.1c1.9-1.5,5.3-3.5,7.6-4.6
		c8-3.7,8.8-3.7,59.1-3.7l45.3,0l13.7,10c7.5,5.5,14,10,14.3,10c0.8,0,21.6-12.8,27.9-17.1l4.6-3.2l17.6,0c17.9,0.1,17.5,0,18.3,0.4
		c1.1,0.6,0.7,0.9,0.7,20.1c0,16.5,0.1,20.1,0.9,21.8c1.1,2.7,2.3,4,5.2,5.5c2.2,1.2,3.1,1.2,23.6,1.4c11.7,0.1,21.9,0,22.6-0.2
		l1.3-0.3l0.2-23.9l0.2-23.9h10.7h10.7l0.3,23.7l0.3,23.7l38.7,0.1l38.7,0.1l1.6-1.2c0.9-0.7,2-2.1,2.4-3.1c0.7-1.6,0.7-2.2,0-3.8
		c-0.4-1-1.5-2.5-2.4-3.1l-1.6-1.2h-35.3c-30.6,0-35.4-0.1-36-0.9c-0.9-1.1,0-7.9,1.7-12.5c1.3-3.5,4.6-8.8,7.4-12
		c2.8-3.2,9.7-7.5,14.2-8.9c4-1.3,4.3-1.3,37.1-1.1l33.1,0.2l0.2,5.1c0.1,3.7,0,5.2-0.6,5.6c-0.4,0.3-13.6,0.5-29.4,0.5
		c-27.2,0-28.8,0.1-30.9,1.1c-3.7,1.9-8.1,8-7.3,10.2c0.2,0.6,5.8,0.7,28.2,0.7c18.5,0,29,0.2,31,0.6c4.5,1,8,2.9,11,6.2
		c3.4,3.8,4.6,7.4,4.3,12.8c-0.5,8.8-6.3,14.9-15.5,16.4c-5.2,0.8-163.9,0.8-169.4,0c-9.6-1.5-14.4-4.3-17.3-10.1l-1.9-3.8
		l-0.3-19.7c-0.2-12.8-0.5-19.8-0.9-19.9c-1.4-0.5-34.3,20.5-34.3,21.8l41,33.1c0,0.3-7.2-1.3-16.6-1.3h-15.4l-13.7-9.7
		c-7.5-5.3-14-9.7-14.5-9.7c-0.8,0-23.7,13.8-29.8,17.9l-3.1,2.1l-83.9-0.1C148,826.6,126.9,826.4,123.4,825.8L123.4,825.8z
		 M287.4,816.9c2-1.3,9.3-5.9,16.3-10.2c7-4.3,12.7-8.2,12.7-8.5c0-0.6-29.2-23.2-34.1-27.5c-1.8-1.5-3.9,2.8-2.9,4.5L277,778
		l-26.6,0.1c-29,0.1-29.7,0.3-32,1.5c-3.4,1.8-11.1,8.7-11.1,10.8c0,1,6.2,0.6,35.7,0.6c17.2,0,31.8,0,31.8,0c-0.1,0.5,0,6.2,0,6.2
		l0,4l-26.5,0.3c-28.6,0.3-27.1,0.1-31.5,3.5c-2.4,1.8-7.4,8.7-6.5,9.5l71.4-0.2l0.2,5.7C282.1,824.2,282.7,819.9,287.4,816.9
		L287.4,816.9z"/>
	
		<linearGradient id="path4156_1_" gradientUnits="userSpaceOnUse" x1="396.3748" y1="422.3902" x2="396.3748" y2="406.2278" gradientTransform="matrix(0.5719 0 0 -0.5719 113.0901 1004.725)">
		<stop  offset="0" style="stop-color:#B8B8B8"/>
		<stop  offset="1" style="stop-color:#828282"/>
	</linearGradient>
	<path id="path4156" inkscape:connector-curvature="0" class="st1" d="M98.8,765.4v5.4h22.6v-5.4H98.8z M455.9,765.7v5.4h24.8v-5.4
		H455.9z M368.8,765.7l-2,1.4h8.1c2.7-0.1,4.5,0.1,5.8,0.3l0,3.8h23.8v-5.5l-10.4,0.1C384.4,765.8,377.5,765.8,368.8,765.7
		L368.8,765.7z M272.7,766c-4.8,0-10.4,0-16.8,0.1c-39.7,0.1-43,0.2-44.3,1.1c0,0.4-1.8,1.2,2.7,0.8c0.7,0,1,0.1,1.9,0
		c6.3,0.1,16.4-0.1,38.4-0.1c24.6,0,45,0.1,45-0.1c0-0.8,1.3-1.2-1.7-1.5C294.7,766.1,287.1,766,272.7,766L272.7,766z M559.5,766.5
		c-3.8,0-8.1,0-13.1,0.1c-31,0.1-33.6,0.2-34.6,1.2c0,0.4-1.4,1.1,2.1,0.8c0.5,0,0.8,0.1,1.5,0c4.9,0.1,12.8-0.1,30-0.1
		c19.2,0,35.2,0.1,35.2-0.1c0-0.8,1-1.2-1.3-1.5C576.7,766.5,570.7,766.5,559.5,766.5L559.5,766.5z"/>
	<g id="g3286" transform="translate(93.852815,-254.06798)">
		
			<linearGradient id="path3277_1_" gradientUnits="userSpaceOnUse" x1="660.5759" y1="721.0841" x2="656.829" y2="579.954" gradientTransform="matrix(0.5719 0 0 -0.4965 72.9156 1370.308)">
			<stop  offset="0" style="stop-color:#464646"/>
			<stop  offset="1" style="stop-color:#000000"/>
		</linearGradient>
		<path id="path3277" inkscape:connector-curvature="0" sodipodi:nodetypes="cssccsssccccc" class="st2" d="M412.5,1044.6
			c-1.4-2.3,3.5-8.9,8.9-12c6.2-3.4,8.6-3.7,38.1-3.7l27.6,0.3l0.4,4.5c-1.4,0.1-6.9,0.1-28.6,0.1c-31.8,0-32.2,0.1-36.6,3.7
			c-1.4,1.2-2.9,2.9-3.3,4.1c-0.3,0.8-0.3,1.4-0.8,1.9c-1.3,0.7-2.8,1.3-3.9,1.6c-0.5,0.1-1.1,0.5-1.4,0.3c-0.2-0.1-0.1-0.1-0.3-0.4
			L412.5,1044.6z"/>
		
			<linearGradient id="path3275_1_" gradientUnits="userSpaceOnUse" x1="128.6949" y1="727.3536" x2="124.9481" y2="586.2235" gradientTransform="matrix(0.5719 0 0 -0.5164 72.913 1380.2834)">
			<stop  offset="0" style="stop-color:#464646"/>
			<stop  offset="1" style="stop-color:#000000"/>
		</linearGradient>
		<path id="path3275" inkscape:connector-curvature="0" class="st3" d="M105.5,1048.7c0-0.6,0.4-2.4,1-4.1
			c1.5-4.5,5.3-8.8,10.2-11.7c6-3.5,7.6-3.6,40.2-3.7c18.1,0,28.6,0,28.6,0s0,1.5,0,2.6c0,1,0,2.7,0,2.7c-1.4-0.2-11.3,0-28.4,0
			c-29.9,0-31.3-0.1-35.5,2.5c-1,0.6-2.9,2.3-4.1,3.6c-1.5,1.8-3.1,3.3-3.8,5.1c-1.4,1.2-3.1,1.3-4.5,1.9c-2.7,1.2-3.8,1.5-3.8,1.5
			L105.5,1048.7z"/>
		
			<linearGradient id="path3272_1_" gradientUnits="userSpaceOnUse" x1="630.9176" y1="695.0281" x2="627.1708" y2="553.8981" gradientTransform="matrix(0.5719 0 0 -0.5719 72.913 1404.098)">
			<stop  offset="0" style="stop-color:#464646"/>
			<stop  offset="1" style="stop-color:#000000"/>
		</linearGradient>
		<path id="path3272" inkscape:connector-curvature="0" sodipodi:nodetypes="ccsccccscccc" class="st4" d="M467.7,1065
			c0.8-3.2-3.2-7.5-7.8-8.5c-1.1-0.3-15.9-0.3-32.9-0.2s-31.7-0.1-32.9-0.1c-1.2,0-1.7,0.1-1.9-0.2c-0.5-0.5,0.6-1.8,2.7-3.4
			l2.4-1.9l29.8,0c33,0,37.7,0.3,40.4,2.2c4.6,3.3,6.5,8.6,4.1,11.6c-1.6,2-5.9,4.7-6.9,4.1C467.1,1066.8,467,1066.9,467.7,1065
			L467.7,1065z"/>
		
			<linearGradient id="path3270_1_" gradientUnits="userSpaceOnUse" x1="512.6132" y1="698.1689" x2="508.8665" y2="557.0388" gradientTransform="matrix(0.5719 0 0 -0.5719 72.913 1404.098)">
			<stop  offset="0" style="stop-color:#464646"/>
			<stop  offset="1" style="stop-color:#000000"/>
		</linearGradient>
		<path id="path3270" inkscape:connector-curvature="0" class="st5" d="M364.6,1070c-0.9-0.5-2.3-0.5-2.5-1
			c-0.2-0.5-0.3-12.2-0.3-25.1c0-16.4,0-21.6-0.2-24.2c0.8,0,2.7,0.8,4.3,2.5l2.6,3.2l-0.2,43.6c0,0.9,0.1,1.8,0,2.7
			C366.7,1070.9,365.7,1070.5,364.6,1070L364.6,1070z"/>
		
			<linearGradient id="path3268_1_" gradientUnits="userSpaceOnUse" x1="128.1911" y1="723.3157" x2="124.4443" y2="582.1856" gradientTransform="matrix(0.5719 0 0 -0.5273 72.913 1386.024)">
			<stop  offset="0" style="stop-color:#464646"/>
			<stop  offset="1" style="stop-color:#000000"/>
		</linearGradient>
		<path id="path3268" inkscape:connector-curvature="0" class="st6" d="M108,1071.2c0,0-0.3-3.2,0.9-6.3c1.3-3.3,5.9-8.1,9.6-9.8
			c5.6-2.6,6.8-2.7,34.7-2.7c19.3,0,27.8,0.1,27.8,0.1l0.2,5.1c0,0-10.4,0-26.6,0c-15.6,0-26,0.2-27.3,0.5
			c-4.2,1.1-8.6,5.4-10.2,9.9c-0.3,0.8-7.9,3-8.6,3.2L108,1071.2z"/>
		
			<linearGradient id="path3266_1_" gradientUnits="userSpaceOnUse" x1="518.0128" y1="698.0256" x2="514.2661" y2="556.8955" gradientTransform="matrix(0.5719 0 0 -0.5719 72.913 1404.098)">
			<stop  offset="0" style="stop-color:#464646"/>
			<stop  offset="1" style="stop-color:#000000"/>
		</linearGradient>
		<path id="path3266" inkscape:connector-curvature="0" class="st7" d="M311.2,1081c-4.8-0.6-12.9-3.4-15.8-5.4
			c-2.1-1.5-4.9-4.6-6.2-7c-1.6-3-2.3-10.1-2.3-24.5c0-7.9,0-14.7-0.2-14.9c-0.3-0.2-6.7,3.5-13.9,8c-13.5,8.4-17.4,11-20.1,12.3
			l-10.6,0.1c1.4-1.3,41.5-26.8,43.6-27.7c1.5-0.6,0.5-0.8,1.2-0.4c1,0.6,4.4,1.8,4.8,2.8c0.7,1.7,0.2,5.2,0.4,17.1
			c0.4,21,0.6,22.1,5.4,26.8c2,2,4.4,3.5,7,4.6c0,0,2.8,0.8,4.2,1.2c1,0.2,3,0.5,3,0.5l79,0.1l81,0.1c0,0,1.9-0.3,2.8-0.6
			c0.7-0.2,1.3-0.6,2-1c10.4-5,14.1-11.8,10.3-19.4c-0.8-1.6-2.5-3.9-3.8-5c-1.3-1.1-3.1-2.9-3-3.2c0.3-0.8,6.6,2.5,8.5,4.4
			c4.7,4.7,6.7,14.2,3.6,20.5c-3.2,6.5-9.6,9.9-18.6,10.7C466.1,1081.8,316.3,1081.7,311.2,1081L311.2,1081z"/>
		
			<linearGradient id="path2998_1_" gradientUnits="userSpaceOnUse" x1="136.3845" y1="708.1572" x2="132.6377" y2="567.0272" gradientTransform="matrix(0.5719 0 0 -0.5719 72.913 1404.098)">
			<stop  offset="0" style="stop-color:#464646"/>
			<stop  offset="1" style="stop-color:#000000"/>
		</linearGradient>
		<path id="path2998" inkscape:connector-curvature="0" class="st8" d="M29.2,1080.8c-6.1-0.9-8.9-1.8-13-4.5c-4-2.5-7-6.1-9.1-10.7
			c-0.4-0.8-0.8-1.6-1.1-2.5c-0.3-0.7-0.4-1.5-0.6-2.2c-0.3-1.5-0.4-3-0.4-4.5c-0.3-4.7-0.2-14.2-0.2-14.2l-0.2-21.3
			c0-0.6-0.1-1.5-0.1-1.5s2.3,1.2,4,2.6l3.1,2.7l0,14.8c0,16.5,0.3,18.4,2.9,23.8c1.5,3.3,4.9,6.2,10.3,8.9
			c6.4,3.2,6.2,3.2,86.5,3.2h73.6l3.7-2.7c2-1.5,9.9-6.6,17.5-11.3s13.8-8.9,13.8-9.2c0-1.2-3.5-3.9-29.3-22.2
			c-5-3.5-8.8-6.1-10.7-7.9c1.8,0,6.1,0.1,8.7,0.1l4.2,0l12.6,9c6.9,4.9,15.2,10.8,18.3,13s7.5,5.6,7,5.8l-15.9,10.2
			c-4.8,3.1-10.2,6.4-11.7,7.4c-1.6,1-4.7,3-7,4.5c-2.3,1.5-4.3,3.3-4.3,3.6c0.5,0.3,2.1,0.2,4.9,0.2l4.7,0l16.1-10.5
			c8.9-5.8,16.7-10.7,17.3-10.9c1.6-0.5,2.1-0.2,17.2,10.6c7.4,5.3,14.2,10.5,14.9,10.8c0.6,0.3,3.9,0.1,7.7,0.3
			c2.7,0.1,4.2,0,6.1,0.3c9.8,3.6,1.2,0.5,14,5.2l-33.2,0c-1.8-0.9-18.1-12.7-22.5-16.3c-2.1-1.7-4.1-3-4.5-3c-0.4,0-3.1,1.6-6,3.6
			c-2.9,2-9.3,6.3-14.3,9.7l-9.1,6.2l-85.3-0.1C53.6,1081.6,33.2,1081.4,29.2,1080.8L29.2,1080.8z"/>
	</g>
	
		<linearGradient id="path3007_1_" gradientUnits="userSpaceOnUse" x1="323.19" y1="442.869" x2="320.1595" y2="296.3968" gradientTransform="matrix(0.5719 0 0 -0.5719 113.0901 1004.725)">
		<stop  offset="0" style="stop-color:#787878"/>
		<stop  offset="1" style="stop-color:#1E1E1E"/>
	</linearGradient>
	<path id="path3007" inkscape:connector-curvature="0" sodipodi:nodetypes="csssccssssccssccscsscsscsscscs" class="st9" d="
		M407,813.9c-3.7-1-6.2-2.9-7.3-4.3c-0.7-0.9-0.7-0.7-0.9-1.2c-0.2-0.5-0.5-1.3-0.6-1.8c-0.8-5.1-0.7-17.2-0.7-17.2v-17.6l3.2-2.8
		c1.8-1.6,3.3-2.9,3.4-3.1c0.1-0.1,0.3,0,0.8,0.4c0.8,0.6,0.4,4,0.4,21.5c0,23.2,1.8,23.8,6.8,26.7C414.3,814.9,410,814.7,407,813.9
		L407,813.9z M121.1,812.7c-3.1-0.8-5.9-3.5-6.4-5l-0.7-2c-0.5-11.6-0.8-23.1-0.8-35l2.3-2.3c2.5-2.5,5.7-3,5.7-3
		c0.2,0.4,0.1,10,0.2,21.1c0.2,24.3-0.2,22.5,5,25.4c1.5,0.8,4.4,1.6,4.2,1.9C130.3,814.2,123.6,813.3,121.1,812.7L121.1,812.7z
		 M473,794.1V771l2-1.8c2.2-1.9,5.4-3.7,5.8-3.3c0.4,0.4,0.4,47.6,0.1,48.6c-0.2,0.4-1.7,1.2-3.3,1.7c-2,0.7-4.4,1.4-4.4,1.1
		C473,817.6,473,809.6,473,794.1L473,794.1z"/>
	
		<linearGradient id="path3124_1_" gradientUnits="userSpaceOnUse" x1="408.8911" y1="442.0562" x2="413.9419" y2="322.8582" gradientTransform="matrix(0.5719 0 0 -0.5719 113.0901 1004.725)">
		<stop  offset="0" style="stop-color:#B4B4B4"/>
		<stop  offset="0.3224" style="stop-color:#828282"/>
		<stop  offset="1" style="stop-color:#3C3C3C"/>
	</linearGradient>
	<path id="path3124" inkscape:connector-curvature="0" class="st10" d="M485.8,802.1c0-2.9,1.8-11.8,4.3-16.8
		c3.1-6.4,8.6-12.5,13.7-15.1c1.9-1,3.8-1.9,4.2-1.9c2.1-0.6,5.2-1.2,8-1.4c-2,0.9-3.7,1.4-6,2.8c-3.2,1.7-6,3.2-10.3,8.6
		c-1.6,1.9-2.7,3.5-3.9,6.8c-1.6,4.4-2,8.8-2.4,11.7C491.8,797.5,491.9,797.9,485.8,802.1L485.8,802.1z M180.4,796.4
		c0-2.1,2.7-8.4,6-13.8c3.7-6.3,7.2-9.3,13.5-12c4.7-2,13.2-3.9,15.3-3.9c1.3,0-3.6,1.7-6.4,2.7c-4.9,1.8-7.8,4-12,8.3
		c-2.6,2.6-5.3,6-9,15.4l-1.2,3.7l-3.4-0.1C180.9,796.7,180.8,796.7,180.4,796.4L180.4,796.4z M296.2,766.1l12.1,0
		c16.1,11.9,25.1,18,28,20.1l-6.9,4.3C313.9,779.3,309.5,775.7,296.2,766.1L296.2,766.1z"/>
	
		<linearGradient id="path3136_1_" gradientUnits="userSpaceOnUse" x1="432.8152" y1="286.4196" x2="437.8152" y2="369.4316" gradientTransform="matrix(0.5719 0 0 -0.5719 113.0901 1004.725)">
		<stop  offset="0" style="stop-color:#828282"/>
		<stop  offset="0.5" style="stop-color:#828282"/>
		<stop  offset="1" style="stop-color:#3C3C3C"/>
	</linearGradient>
	<path id="path3136" inkscape:connector-curvature="0" class="st11" d="M347,803.5l-10.9-8.1h5.6c3.1,0,5.9-1.2,6.3-0.8
		c0,0,9,7.3,40.6,32.6C368.3,822,362.4,814.9,347,803.5z"/>
	
		<linearGradient id="path3075_1_" gradientUnits="userSpaceOnUse" x1="150.3774" y1="374.5459" x2="152.3977" y2="311.9165" gradientTransform="matrix(0.5719 0 0 -0.5719 113.0901 1004.725)">
		<stop  offset="0" style="stop-color:#828282"/>
		<stop  offset="0.5" style="stop-color:#828282"/>
		<stop  offset="1" style="stop-color:#3C3C3C"/>
	</linearGradient>
	<path id="path3075" inkscape:connector-curvature="0" class="st12" d="M184.1,814.6c-1-0.7-0.9-0.9,0.7-4.6c2-4.4,9-12.2,11.9-14.2
		c1.1-0.7,2.8-1.9,4.4-2.4c1.6-0.6,3.1-1.3,4.4-1.8c0.8-0.3,2.4-0.7,5.3-0.7l4.6,0l-2.9,1c-5.4,1.9-9.1,4.2-13.1,8
		c-4.5,4.3-7.2,8.3-9.3,13.5c-0.8,2-1.5,3.6-1.7,3.8C186.8,817.3,185.6,815.6,184.1,814.6L184.1,814.6z"/>
	<g id="g3049" transform="matrix(0.64921953,0,0,0.64731614,249.34791,151.69058)">
		
			<linearGradient id="path3051_1_" gradientUnits="userSpaceOnUse" x1="-514.8828" y1="210.3627" x2="-118.7123" y2="-46.9901" gradientTransform="matrix(0.6492 0 0 -0.6473 256.3644 807.4518)">
			<stop  offset="0" style="stop-color:#000032"/>
			<stop  offset="0.25" style="stop-color:#646464"/>
			<stop  offset="0.4238" style="stop-color:#000000"/>
			<stop  offset="1" style="stop-color:#787878"/>
		</linearGradient>
		<path id="path3051" inkscape:connector-curvature="0" sodipodi:nodetypes="cssssssccssssssssssssccssc" class="st13" d="
			M110.5,900.8c-31.9-3.4-61.7-11.9-91-26.1C-4.9,862.9-20.4,852-37,835c-18.6-19-27.6-33-36.1-55.5c-10.1-27-6.6-63,9.2-94.4
			c13.4-26.5,30.1-45,56.4-62.4c9.8-6.5,34-18.9,40.4-20.8c4.5-1.3-2.2,1.2-9.9,5.7c-4.7,2.6-7.7,4.3-12,6.9
			c-10.2,6.2-12.8,8.4-23.3,16.9c-28.8,23.3-46.6,50.9-53.1,81.9c-2.1,10.2-2.1,32.9,0,43.1c7.6,36.8,29.7,67,67.4,92.1
			c21.7,14.4,46.8,25,76.1,32.1c24.7,6,34.1,7,67.5,7c24.4,0,32.3-0.3,42-1.8c31.1-4.8,64.3-15.6,86.5-28.2
			c18.2-10.3,24.2-13.9,25.9-15.3c0.9-0.8,5.1-3.1,9.3-5c5-2.3,8.6-4.6,10.5-7c2.8-3.5,3-3.5,10.1-3.5c4.3,0,10.8-6.2,10.8-5.6
			c-8.3,11.9-22.1,25.1-29.9,31.1c-11.6,9-20.7,15.1-37.2,23c-27.8,13.2-50.5,21-85.5,25.2C162.3,903.5,135,903.4,110.5,900.8
			L110.5,900.8z"/>
	</g>
	<g id="g3124" transform="matrix(0.65042106,0,0,0.65042106,181.83652,271.31505)">
		
			<linearGradient id="path3126_1_" gradientUnits="userSpaceOnUse" x1="-226.215" y1="52.1762" x2="178.4346" y2="55.2072" gradientTransform="matrix(0.6504 0 0 -0.6504 188.2983 686.721)">
			<stop  offset="0" style="stop-color:#999999"/>
			<stop  offset="0.2205" style="stop-color:#3C3C3C;stop-opacity:0.8745"/>
			<stop  offset="0.5158" style="stop-color:#969696"/>
			<stop  offset="0.7528" style="stop-color:#828282"/>
			<stop  offset="1" style="stop-color:#5A5A5A"/>
		</linearGradient>
		<path id="path3126" inkscape:connector-curvature="0" sodipodi:nodetypes="ssssssssssssssss" class="st14" d="M211.9,696.8
			c-18.4-2-45.3-7.8-59.6-12.9c-10.1-3.6-31.4-12.9-36.9-16.1c-6.1-3.5-21.1-14.6-29.8-22.1c-11.3-9.7-29.4-32.5-27.8-35
			c0.4-0.7,8.5-3.7,10-3.7c0.3,0,1.8,2.2,3.5,5.4c8.1,14.4,20.1,27.3,33.5,38.2c17.9,14.6,30.8,21.1,57,28.5
			c54,15.3,116.8,14.6,167-1.9c19.6-6.4,39.5-17.2,46.9-25.5c2-2.2,18.1-7.9,19.2-6.8c1.4,1.4-2.4,6.2-10.1,12.9
			c-13.9,11.9-48.4,26.8-76,32.7c-24.9,5.4-33.6,6.3-64,6.5C228.9,697.1,214.1,697.1,211.9,696.8L211.9,696.8z"/>
	</g>
	
		<linearGradient id="path3068-2_1_" gradientUnits="userSpaceOnUse" x1="-382.2919" y1="202.0905" x2="-383.051" y2="301.3585" gradientTransform="matrix(0.6493 0 0 -0.6504 595.9214 866.2847)">
		<stop  offset="0" style="stop-color:#000000"/>
		<stop  offset="1" style="stop-color:#000000;stop-opacity:0"/>
	</linearGradient>
	
		<path id="path3068-2" inkscape:connector-curvature="0" sodipodi:nodetypes="sssssssssssssssssssscsssccscsssssscscsssssssssssss" class="st15" d="
		M256.1,702.4c-5.3-1.7-8.2-3.3-14.6-8.4c-14.2-11-24.5-25-29.1-39.5c-2.7-8.5-3.3-14.1-2.9-26.5c0.3-9.5,0.6-12.1,2.1-17
		c3.6-12.3,8.6-21.7,17-31.7c19-22.9,54.6-40.1,90.8-44c10-1.1,28.7-1.2,31.6-0.2c3,1.1,6.1,4.5,7.1,7.8c0.7,2.2,0.6,2.8-0.7,5.4
		c-0.8,1.6-2.3,3.9-3.3,5.2c-1,1.3-3.7,4.7-5.9,7.7s-7.4,9.5-11.6,14.6c-4.1,5.1-10.9,14-15,19.7C314,606,297.4,631.1,294,637
		c-1,1.8-2.8,4.6-4,6.3c-1.2,1.6-3.2,5.2-4.5,8c-2.2,4.6-2.3,5.3-2.1,9.7c0.3,6,2.2,9.1,7.5,12.6c8.1,5.2,0.7,4.8,85.8,4.8h75.9
		l6.6-7.1c5.1-5.5,7.1-8.2,8.8-11.9c2.5-5.5,5.1-14,6.3-20.5c1-5.5,0.4-20.2-1-24c-2.5-10.2-6.9-20.1-12.4-28.8
		c-10.4-16.3-25.3-29.2-46.7-40.7c-3.8-2-13.5-6.7-13.4-6.9c0.5-0.5,15,5.6,22.1,9.1c17.6,8.8,32.8,21.4,42.9,35.6
		c7.5,10.5,13.7,22.5,16.7,34.6c1.7,6.7,1.9,12.6,1.9,19.9c0,14.6-3.1,24.2-10.2,38.1c-5,9.8-6.2,11-13.7,15l-8.4,3l-74.9,0.5
		c-76.4,0.5-76.6,0-84.1-1.4c-15.9-3.1-22.5-6.9-26.6-15.5c-2.1-4.3-2.5-12.6-1-18.5c3.4-13.7,26.9-50.1,59.8-92.6
		c6.3-8.1,11.7-15.3,12-16c1.7-3.2,0-5.4-4.9-6.1c-3.4-0.5-21,2.2-28.6,4.5c-18.6,5.4-25.7,8.2-35,13.6c-14,8-25.4,17.9-33.4,28.7
		c-8.5,11.6-11.8,18.8-15,32.5c-1.9,8.1-1.5,20.7,1,29.6c5.2,18.7,16.2,33.2,35.3,46.5c2.9,2.1,5.4,3.9,5.4,4
		C261.9,703.9,259.6,703.5,256.1,702.4L256.1,702.4z"/>
	<g id="g3066" transform="matrix(0.64932454,0,0,0.65042106,591.76921,243.28982)">
		
			<linearGradient id="path3992_1_" gradientUnits="userSpaceOnUse" x1="-1670.6129" y1="371.8419" x2="-1380.6556" y2="41.4539" gradientTransform="matrix(0.6493 0 0 -0.6504 598.7369 714.7463)">
			<stop  offset="0" style="stop-color:#5A5A5A"/>
			<stop  offset="0.2688" style="stop-color:#505050"/>
			<stop  offset="0.632" style="stop-color:#666666"/>
			<stop  offset="0.6675" style="stop-color:#666666"/>
			<stop  offset="1" style="stop-color:#666666"/>
		</linearGradient>
		
			<path id="path3992" inkscape:connector-curvature="0" sodipodi:nodetypes="sssssssssssssssssssscsssccscsssssscscsssssssssssss" class="st16" d="
			M-516.4,706.1c-8.1-2.6-12.6-5.1-22.5-12.8c-21.9-17-37.7-38.5-44.7-60.7c-4.1-13.1-5.1-21.8-4.5-40.8c0.5-14.6,1-18.6,3.2-26.2
			c5.6-18.9,13.3-33.3,26.2-48.8c29.3-35.1,84.1-61.6,139.8-67.7c15.4-1.7,44.3-1.8,48.7-0.2c4.6,1.6,9.3,6.9,10.9,12
			c1,3.4,0.9,4.4-1.1,8.2c-1.2,2.4-3.5,6-5.1,7.9s-5.7,7.2-9.1,11.8c-3.4,4.5-11.5,14.7-17.8,22.5c-6.4,7.8-16.8,21.5-23.1,30.3
			c-11.7,16.3-37.3,54.9-42.4,64c-1.5,2.8-4.3,7.1-6.1,9.6s-4.9,8-6.9,12.2c-3.3,7-3.6,8.2-3.3,15c0.5,9.2,3.3,14,11.6,19.3
			c12.4,8,1.1,7.4,132.2,7.4h116.9l10.1-10.9c7.8-8.4,10.9-12.6,13.6-18.3c3.9-8.4,7.9-21.5,9.6-31.5c1.5-8.5,0.6-31.1-1.5-36.9
			c-3.9-15.7-12.2-29.6-20.7-43c-16-25-37.4-41.3-70.4-59c-5.9-3.1-34.9-18.7-20.6-15.5c0.7-0.7,23,8.6,34,14.1
			c27.2,13.5,50.5,32.9,66.1,54.7c11.5,16.2,21,34.6,25.8,53.2c2.6,10.3,2.9,19.3,2.9,30.6c-0.1,22.5-4.8,37.2-15.8,58.6
			c-7.7,15-9.5,17-21.2,23.1l-13,4.7l-115.3,0.7c-117.7,0.7-118,0-129.5-2.2c-24.5-4.7-34.6-10.6-41-23.8
			c-3.2-6.6-3.9-19.3-1.6-28.5c5.3-21,41.4-77,92-142.4c9.6-12.5,18-23.5,18.5-24.6c2.7-5,0-8.3-7.6-9.4c-5.3-0.8-32.3,3.4-44.1,6.8
			c-28.6,8.4-39.6,12.6-53.9,20.8c-21.5,12.3-39.1,27.5-51.4,44.2c-13.1,17.8-18.2,29-23.2,49.9c-2.9,12.4-2.2,31.8,1.6,45.5
			c8,28.7,24.9,51,54.3,71.5c4.5,3.2,8.2,5.9,8.2,6.2C-507.4,708.4-511,707.8-516.4,706.1L-516.4,706.1z"/>
		
			<linearGradient id="path3068_1_" gradientUnits="userSpaceOnUse" x1="-1670.6129" y1="371.8419" x2="-1380.6556" y2="41.4539" gradientTransform="matrix(0.6493 0 0 -0.6504 598.7369 714.7463)">
			<stop  offset="0" style="stop-color:#5A5A5A"/>
			<stop  offset="0.2688" style="stop-color:#505050"/>
			<stop  offset="0.632" style="stop-color:#666666"/>
			<stop  offset="0.6675" style="stop-color:#666666"/>
			<stop  offset="1" style="stop-color:#666666"/>
		</linearGradient>
		
			<path id="path3068" inkscape:connector-curvature="0" sodipodi:nodetypes="sssssssssssssssssssscsssccscsssssscscsssssssssssss" class="st17" d="
			M-516.4,706.1c-8.1-2.6-12.6-5.1-22.5-12.8c-21.9-17-37.7-38.5-44.7-60.7c-4.1-13.1-5.1-21.8-4.5-40.8c0.5-14.6,1-18.6,3.2-26.2
			c5.6-18.9,13.3-33.3,26.2-48.8c29.3-35.1,84.1-61.6,139.8-67.7c15.4-1.7,44.3-1.8,48.7-0.2c4.6,1.6,9.3,6.9,10.9,12
			c1,3.4,0.9,4.4-1.1,8.2c-1.2,2.4-3.5,6-5.1,7.9s-5.7,7.2-9.1,11.8c-3.4,4.5-11.5,14.7-17.8,22.5c-6.4,7.8-16.8,21.5-23.1,30.3
			c-11.7,16.3-37.3,54.9-42.4,64c-1.5,2.8-4.3,7.1-6.1,9.6s-4.9,8-6.9,12.2c-3.3,7-3.6,8.2-3.3,15c0.5,9.2,3.3,14,11.6,19.3
			c12.4,8,1.1,7.4,132.2,7.4h116.9l10.1-10.9c7.8-8.4,10.9-12.6,13.6-18.3c3.9-8.4,7.9-21.5,9.6-31.5c1.5-8.5,0.6-31.1-1.5-36.9
			c-3.9-15.7-10.7-31-19.1-44.3c-16-25-38.9-44.9-72-62.5c-5.9-3.1-20.8-10.3-20.6-10.6c0.7-0.7,23,8.6,34,14.1
			c27.2,13.5,50.5,32.9,66.1,54.7c11.5,16.2,21,34.6,25.8,53.2c2.6,10.3,2.9,19.3,2.9,30.6c-0.1,22.5-4.8,37.2-15.8,58.6
			c-7.7,15-9.5,17-21.2,23.1l-13,4.7l-115.3,0.7c-117.7,0.7-118,0-129.5-2.2c-24.5-4.7-34.6-10.6-41-23.8
			c-3.2-6.6-3.9-19.3-1.6-28.5c5.3-21,41.4-77,92-142.4c9.6-12.5,18-23.5,18.5-24.6c2.7-5,0-8.3-7.6-9.4c-5.3-0.8-32.3,3.4-44.1,6.8
			c-28.6,8.4-39.6,12.6-53.9,20.8c-21.5,12.3-39.1,27.5-51.4,44.2c-13.1,17.8-18.2,29-23.2,49.9c-2.9,12.4-2.2,31.8,1.6,45.5
			c8,28.7,24.9,51,54.3,71.5c4.5,3.2,8.2,5.9,8.2,6.2C-507.4,708.4-511,707.8-516.4,706.1L-516.4,706.1z"/>
	</g>
	
		<linearGradient id="path3305_1_" gradientUnits="userSpaceOnUse" x1="399.7487" y1="755.2933" x2="696.4603" y2="627.31" gradientTransform="matrix(0.6504 0 0 -0.6504 -41.8705 1052.0554)">
		<stop  offset="0" style="stop-color:#323232;stop-opacity:0"/>
		<stop  offset="0.394" style="stop-color:#323232;stop-opacity:0.949"/>
		<stop  offset="0.4669" style="stop-color:#323232;stop-opacity:0.902"/>
		<stop  offset="0.7041" style="stop-color:#E1E1E1;stop-opacity:0.498"/>
		<stop  offset="1" style="stop-color:#C8C8C8;stop-opacity:0"/>
	</linearGradient>
	
		<path id="path3305" inkscape:connector-curvature="0" sodipodi:nodetypes="csssssssssssssssscsssccscsssssscscssssssssscc" class="st18" d="
		M209.5,628c0.3-9.5,0.6-12.1,2.1-17c3.6-12.3,8.6-21.7,17-31.7c19-22.9,54.6-40.1,90.8-44c10-1.1,28.7-1.2,31.6-0.2
		c3,1.1,6.1,4.5,7.1,7.8c0.7,2.2,0.6,2.8-0.7,5.4c-0.8,1.6-2.3,3.9-3.3,5.2c-1,1.3-3.7,4.7-5.9,7.7s-7.4,9.5-11.6,14.6
		c-4.1,5.1-10.9,14-15,19.7C314,606,297.4,631.1,294,637c-1,1.8-2.8,4.6-4,6.3c-1.2,1.6-3.2,5.2-4.5,8c-2.2,4.6-2.3,5.3-2.1,9.7
		c0.3,6,2.2,9.1,7.5,12.6c8.1,5.2,0.7,4.8,85.8,4.8h75.9l6.6-7.1c5.1-5.5,7.1-8.2,8.8-11.9c2.5-5.5,5.1-14,6.3-20.5
		c1-5.5,0.4-20.2-1-24c-2.5-10.2-8.2-18.9-13.6-27.6c-10.4-16.3-25.3-29.2-46.7-40.7c-3.8-2-12.3-8-12.2-8.1
		c0.5-0.5,15,5.6,22.1,9.1c17.6,8.8,32.8,21.4,42.9,35.6c7.5,10.5,13.7,22.5,16.7,34.6c1.7,6.7,1.9,12.6,1.9,19.9
		c0,14.6-3.1,24.2-10.2,38.1c-5,9.8-6.2,11-13.7,15l-8.4,3l-74.9,0.5c-76.4,0.5-76.6,0-84.1-1.4c-15.9-3.1-22.5-6.9-26.6-15.5
		c-2.1-4.3-2.5-12.6-1-18.5c3.4-13.7,26.9-50.1,59.8-92.6c6.3-8.1,11.7-15.3,12-16c1.7-3.2,0-5.4-4.9-6.1c-3.4-0.5-21,2.2-28.6,4.5
		c-18.6,5.4-25.7,8.2-35,13.6c-14,8-25.4,17.9-33.4,28.7c-8.5,11.6-11.8,18.8-15,32.5c-1.9,8.1-1.5,20.7,1,29.6
		C210.5,643.9,209.3,635.9,209.5,628L209.5,628z"/>
	
		<linearGradient id="path3992-7_1_" gradientUnits="userSpaceOnUse" x1="-386.602" y1="254.9663" x2="-385.0839" y2="303.4636" gradientTransform="matrix(0.6493 0 0 -0.6504 595.9214 866.2847)">
		<stop  offset="0" style="stop-color:#000000"/>
		<stop  offset="1" style="stop-color:#000000;stop-opacity:0"/>
	</linearGradient>
	
		<path id="path3992-7" inkscape:connector-curvature="0" sodipodi:nodetypes="cssssssssssssssssscsssccscsssssscscssssssssscc" class="st19" d="
		M212.4,654.6c-2.7-8.5-3.3-14.1-2.9-26.5c0.3-9.5,0.6-12.1,2.1-17c3.6-12.3,8.6-21.7,17-31.7c19-22.9,54.6-40.1,90.8-44
		c10-1.1,28.7-1.2,31.6-0.2c3,1.1,6.1,4.5,7.1,7.8c0.7,2.2,0.6,2.8-0.7,5.4c-0.8,1.6-2.3,3.9-3.3,5.2c-1,1.3-3.7,4.7-5.9,7.7
		s-7.4,9.5-11.6,14.6c-4.1,5.1-10.9,14-15,19.7C314,606,297.4,631.1,294,637c-1,1.8-2.8,4.6-4,6.3c-1.2,1.6-3.2,5.2-4.5,8
		c-2.2,4.6-2.3,5.3-2.1,9.7c0.3,6,2.2,9.1,7.5,12.6c8.1,5.2,0.7,4.8,85.8,4.8h75.9l6.6-7.1c5.1-5.5,7.1-8.2,8.8-11.9
		c2.5-5.5,5.1-14,6.3-20.5c1-5.5,0.4-20.2-1-24c-2.5-10.2-6.9-20.1-12.4-28.8c-10.4-16.3-25.3-29.2-46.7-40.7
		c-3.8-2-13.5-6.7-13.4-6.9c0.5-0.5,15,5.6,22.1,9.1c17.6,8.8,32.8,21.4,42.9,35.6c7.5,10.5,13.7,22.5,16.7,34.6
		c1.7,6.7,1.9,12.6,1.9,19.9c0,14.6-3.1,24.2-10.2,38.1c-5,9.8-6.2,11-13.7,15l-8.4,3l-74.9,0.5c-76.4,0.5-76.6,0-84.1-1.4
		c-15.9-3.1-22.5-6.9-26.6-15.5c-2.1-4.3-2.5-12.6-1-18.5c3.4-13.7,26.9-50.1,59.8-92.6c6.3-8.1,11.7-15.3,12-16
		c1.7-3.2,0-5.4-4.9-6.1c-3.4-0.5-21,2.2-28.6,4.5c-18.6,5.4-25.7,8.2-35,13.6c-14,8-25.4,17.9-33.4,28.7
		c-8.5,11.6-11.8,18.8-15,32.5c-1.9,8.1-1.5,20.7,1,29.6C218.3,654.7,226.4,667,212.4,654.6L212.4,654.6z"/>
	
		<linearGradient id="path3274_1_" gradientUnits="userSpaceOnUse" x1="460.4172" y1="799.3018" x2="501.017" y2="756.4877" gradientTransform="matrix(0.6504 0 0 -0.6504 -41.1562 1051.3412)">
		<stop  offset="0" style="stop-color:#28170B"/>
		<stop  offset="1" style="stop-color:#28170B;stop-opacity:0"/>
	</linearGradient>
	
		<path id="path3274" inkscape:connector-curvature="0" sodipodi:nodetypes="cssssssssssssssssscsssccscsssssscscssssssssscc" class="st20" d="
		M213.1,653.9c-2.7-8.5-3.3-14.1-2.9-26.5c0.3-9.5,0.6-12.1,2.1-17c3.6-12.3,8.6-21.7,17-31.7c19-22.9,54.6-40.1,90.8-44
		c10-1.1,28.7-1.2,31.6-0.2c3,1.1,6.1,4.5,7.1,7.8c0.7,2.2,0.6,2.8-0.7,5.4c-0.8,1.6-2.3,3.9-3.3,5.2c-1,1.3-3.7,4.7-5.9,7.7
		c-2.2,3-7.4,9.5-11.6,14.6c-4.1,5.1-10.9,14-15,19.7c-7.6,10.6-24.2,35.7-27.5,41.6c-1,1.8-2.8,4.6-4,6.3c-1.2,1.6-3.2,5.2-4.5,8
		c-2.2,4.6-2.3,5.3-2.1,9.7c0.3,6,2.2,9.1,7.5,12.6c8.1,5.2,0.7,4.8,85.8,4.8h75.9l6.6-7.1c5.1-5.5,7.1-8.2,8.8-11.9
		c2.5-5.5,5.1-14,6.3-20.5c1-5.5,0.4-20.2-1-24c-2.5-10.2-8.2-18.9-13.6-27.6c-10.4-16.3-25.3-29.2-46.7-40.7
		c-3.8-2-12.3-8-12.2-8.1c0.5-0.5,15,5.6,22.1,9.1c17.6,8.8,32.8,21.4,42.9,35.6c7.5,10.5,13.7,22.5,16.7,34.6
		c1.7,6.7,1.9,12.6,1.9,19.9c0,14.6-3.1,24.2-10.2,38.1c-5,9.8-6.2,11-13.7,15l-8.4,3l-74.9,0.5c-76.4,0.5-76.6,0-84.1-1.4
		c-15.9-3.1-22.5-6.9-26.6-15.5c-2.1-4.3-2.5-12.6-1-18.5c3.4-13.7,26.9-50.1,59.8-92.6c6.3-8.1,11.7-15.3,12-16
		c1.7-3.2,0-5.4-4.9-6.1c-3.4-0.5-21,2.2-28.6,4.5c-18.6,5.4-25.7,8.2-35,13.6c-14,8-25.4,17.9-33.4,28.7
		c-8.5,11.6-11.8,18.8-15,32.5c-1.9,8.1-1.5,20.7,1,29.6C219,654,219.7,653.3,213.1,653.9L213.1,653.9z"/>
	<g id="g3066-5-8-6-6" transform="matrix(0.6108871,0,0,0.62337987,576.62951,253.85011)" class="st21">
		
			<linearGradient id="path3068-2-3-6-4_1_" gradientUnits="userSpaceOnUse" x1="-1605.4331" y1="370.1799" x2="-1621.0061" y2="406.1373" gradientTransform="matrix(0.6109 0 0 -0.6234 602.4935 714.1896)">
			<stop  offset="0" style="stop-color:#B3B3B3;stop-opacity:0"/>
			<stop  offset="0.1609" style="stop-color:#B3B3B3;stop-opacity:0.3009"/>
			<stop  offset="0.3418" style="stop-color:#B3B3B3;stop-opacity:0.8745"/>
			<stop  offset="0.4059" style="stop-color:#B3B3B3;stop-opacity:0.749"/>
			<stop  offset="0.6583" style="stop-color:#B3B3B3;stop-opacity:0"/>
			<stop  offset="1" style="stop-color:#B3B3B3;stop-opacity:0"/>
		</linearGradient>
		<path id="path3068-2-3-6-4" inkscape:connector-curvature="0" sodipodi:nodetypes="csssscccc" class="st22" d="M-419,452.4
			c15.4-1.7,44.3-1.8,48.7-0.2c4.6,1.6,9.3,6.9,10.9,12c1,3.4,0.9,4.4-1.1,8.2c-1.2,2.4-3.5,6-5.1,7.9s-5.7,7.2-9.1,11.8
			c-24.9,24.5-20.2,10.6-16.8-16.7c2.7-5,0-8.3-7.6-9.4C-408.8,458.4-399.6,459.7-419,452.4L-419,452.4z"/>
	</g>
	<g id="g3066-5-8-6" transform="matrix(0.6108871,0,0,0.62337987,572.32911,258.9193)">
		
			<linearGradient id="path3068-2-3-6_1_" gradientUnits="userSpaceOnUse" x1="-1618.9375" y1="99.2407" x2="-1638.9281" y2="161.5605" gradientTransform="matrix(0.6109 0 0 -0.6234 598.1931 709.1205)">
			<stop  offset="0" style="stop-color:#B3B3B3;stop-opacity:0"/>
			<stop  offset="0.1214" style="stop-color:#B3B3B3;stop-opacity:0.3686"/>
			<stop  offset="0.2858" style="stop-color:#B3B3B3;stop-opacity:0.8745"/>
			<stop  offset="0.3839" style="stop-color:#B3B3B3;stop-opacity:0.749"/>
			<stop  offset="0.5169" style="stop-color:#B3B3B3;stop-opacity:0.498"/>
			<stop  offset="1" style="stop-color:#B3B3B3;stop-opacity:0"/>
		</linearGradient>
		<path id="path3068-2-3-6" inkscape:connector-curvature="0" sodipodi:nodetypes="csssssscccscc" class="st23" d="M-392.6,514.5
			c-6.4,7.8-16.8,21.5-23.1,30.3c-11.7,16.3-37.3,54.9-42.4,64c-1.5,2.8-4.3,7.1-6.1,9.6s-4.9,8-6.9,12.2c-3.3,7-3.6,8.2-3.3,15
			c0.5,9.2,3.3,14,11.6,19.3c12.4,8,1.1,7.4,132.2,7.4c17,7.4,150,19.8,0.6,24.5c-117.7,0.7-118,0-129.5-2.2
			c-24.5-4.7-34.6-10.6-41-23.8c-3.2-6.6-3.9-19.3-1.6-28.5C-473,543.3-378.7,493.4-392.6,514.5L-392.6,514.5z"/>
	</g>
	<path id="path3151" inkscape:connector-curvature="0" sodipodi:nodetypes="csssccsscssscc" class="st24" d="M315.5,665.9
		c-3.2-4.5-3.3-9.9-0.3-16.8c5.4-12.2,35.7-54.6,58.6-81.9c13.2-15.8,18.5-23.3,18.5-26.1c0-1.2-0.8-2.8-2.4-4.5l-4.2-3.8l3.7,1.1
		c2.3,0.7,8.9,2.9,10.9,4.2c3.2,2.1,2.7,8-0.6,13.8c-1.6,2.7-7.8,10.8-13.3,17.2c-14.9,17.4-32.5,41.1-48.9,66
		c-8.7,13.2-11.5,18.8-10.6,21.3c0.5,1.3-7.8,10.9-9.3,10.9C317,667.4,316,666.7,315.5,665.9L315.5,665.9z"/>
	
		<linearGradient id="path3120_1_" gradientUnits="userSpaceOnUse" x1="707.0146" y1="537.3477" x2="766.6909" y2="359.14" gradientTransform="matrix(0.6504 0 0 -0.6504 -41.8705 887.9138)">
		<stop  offset="0" style="stop-color:#000000"/>
		<stop  offset="0.552" style="stop-color:#7D7D7D"/>
		<stop  offset="0.6933" style="stop-color:#969696"/>
		<stop  offset="0.8575" style="stop-color:#8A8A8A"/>
		<stop  offset="1" style="stop-color:#505050"/>
	</linearGradient>
	<path id="path3120" inkscape:connector-curvature="0" sodipodi:nodetypes="sssssssscsssss" class="st25" d="M454.5,670.3
		c-1.4-1.6-4.9-8.8-4.9-10c0-0.5,1.4-0.5,2-1c1.8-1.4,3-4.4,4.8-11.3c4.1-16.2,2.4-32.2-5.1-47.8c-9.2-19.2-28.4-35.6-49.7-42.6
		c-3-1-4-1.3-4.6-2.1c-1.1-1.2-1-1.7,0.8-5.6c1.3-2.9,1.6-4.4,2.6-4.6c0.8-0.1,4.6,1.4,10.2,4.1c27.6,13.5,45.7,30.4,54.8,51.4
		c4.8,11,5.8,15.3,6.2,26.1c0.5,13.4-1.6,23.2-7.5,34.7C459.4,671,456.8,672.9,454.5,670.3L454.5,670.3z"/>
	
		<linearGradient id="path3025_1_" gradientUnits="userSpaceOnUse" x1="552.2319" y1="367.7658" x2="748.4649" y2="321.3488" gradientTransform="matrix(0.6504 0 0 -0.6504 -41.8705 887.9138)">
		<stop  offset="0" style="stop-color:#323232"/>
		<stop  offset="0.1055" style="stop-color:#B4B4B6"/>
		<stop  offset="0.2532" style="stop-color:#B4B4B4"/>
		<stop  offset="1" style="stop-color:#AAAAAA"/>
	</linearGradient>
	<path id="path3025" inkscape:connector-curvature="0" sodipodi:nodetypes="csssscssssc" class="st26" d="M323.6,671.1
		c-3.4-0.4-6.5-2.6-6.5-3.9c0-1.3,8.6-11.3,9.7-11.3c0.4,0,0.6,1.4,1.7,2c1.9,1,7.9,1.1,62.6,1.3l60.5,0.3l2.6,4.7
		c1.6,2.9,2.9,5.6,2.7,6.3c-0.4,1-37.2,1.6-97.3,1.5C323.9,672,324.7,671.2,323.6,671.1L323.6,671.1z"/>
	
		<linearGradient id="path4184_1_" gradientUnits="userSpaceOnUse" x1="659.4954" y1="359.733" x2="659.4954" y2="327.0477" gradientTransform="matrix(0.6504 0 0 -0.6504 -41.8705 887.9138)">
		<stop  offset="0" style="stop-color:#505050"/>
		<stop  offset="1" style="stop-color:#FAFAFA;stop-opacity:0"/>
	</linearGradient>
	<path id="path4184" inkscape:connector-curvature="0" sodipodi:nodetypes="csssscssssc" class="st27" d="M323.6,671.1
		c-3.4-0.4-6.5-2.6-6.5-3.9c0-1.3,8.6-11.3,9.7-11.3c0.4,0,0.6,1.4,1.7,2c1.9,1,7.9,1.1,62.6,1.3l60.5,0.3l2.6,4.7
		c1.6,2.9,2.9,5.6,2.7,6.3c-0.4,1-37.2,1.6-97.3,1.5C323.9,672,324.7,671.2,323.6,671.1L323.6,671.1z"/>
	
		<linearGradient id="path3069_1_" gradientUnits="userSpaceOnUse" x1="438.0671" y1="585.0394" x2="524.4529" y2="447.1251" gradientTransform="matrix(0.6504 0 0 -0.6504 -42.1571 887.9531)">
		<stop  offset="0" style="stop-color:#8282A9"/>
		<stop  offset="1" style="stop-color:#A9A9A9;stop-opacity:0"/>
	</linearGradient>
	
		<path id="path3069" inkscape:connector-curvature="0" sodipodi:nodetypes="cssssssssssssscssccscscsssssscsssscscsscc" class="st28" d="
		M323.7,728.4c-62.9-5.5-113.2-42.3-120.6-88.4c-4.7-28.8,7.7-56.9,34.9-79.4c9.4-7.8,11.8-9.4,23.9-15.5
		c22.6-11.4,44.5-16.6,73.2-17.4c15.4-0.4,26.7,0.3,39.3,2.5c11,1.9,12.4,2.4,15.5,5.5c2.2,2.2,2.8,3.2,2.8,5.1
		c0,2.8-3.1,7.1-19.5,27.2c-19.5,23.8-31.4,39.9-47,63.2c-12.9,19.3-14.7,23.6-12.6,30.6c1.5,5.1,6.2,7.5,10.7,8.4
		c5.9,1.1,12.6,0.9,57.6,0.8c23.6,0,73.7,0.1,75.3,0c2-0.1,3.2-0.7,4.6-2c4.6-6,6.5-8.5,0.3,2.4c-2.6,4.7-6.6,8.3-11,9.2
		c-5.1,1.1-139.6,0.5-147-0.6c-6.5-1-10.2-2.4-15.2-5.8c-3.1-2.1-4.4-3.5-5.7-6.3c-1.6-3.2-1.7-4.1-1.4-7.9
		c0.4-4.7,2.4-9.6,6.2-15.1c1.4-2,3.5-5.4,4.7-7.5c1.2-2.1,6.3-10.2,11.4-17.9c13.4-20.4,27-39,36.8-50.1c6.1-7,14.9-19,15.6-21.3
		c1.2-4.4-2.2-10.3-7-12c-3.2-1.2-20.5-0.9-30.9,0.4c-57.1,7.4-100.2,40.3-107.5,82.1c-1.2,7.1-1.2,21.2,0,28.2
		c3.4,19.4,15.8,37.4,35.5,51.5c7.2,5.1,22.9,13.2,32.2,16.5c42.2,15.1,95.6,12.7,135.7-6.1c9.7-4.5,13.8-7.3,19.8-13.4l5.3-5.4
		l9.1-0.4c8.7-0.4,13.5,0,12.9,1.1c-0.6,0.9-12.9,5.7-17.8,7.5c-2.8,1-5.4,2.8-9.3,5.2C404.2,721.9,362.3,731.8,323.7,728.4
		L323.7,728.4z"/>
	
		<linearGradient id="path3314_1_" gradientUnits="userSpaceOnUse" x1="320.2589" y1="272.8961" x2="214.3364" y2="236.5677" gradientTransform="matrix(0.6504 0 0 -0.6504 213.0578 777.8594)">
		<stop  offset="0" style="stop-color:#FAFAFA"/>
		<stop  offset="0.25" style="stop-color:#FAFAFA;stop-opacity:0.902"/>
		<stop  offset="0.5" style="stop-color:#E1E1E1;stop-opacity:0.498"/>
		<stop  offset="1" style="stop-color:#C8C8C8;stop-opacity:0"/>
	</linearGradient>
	<path id="path3314" inkscape:connector-curvature="0" sodipodi:nodetypes="csssccscsssscscsscc" class="st29" d="M324.4,728.3
		c-62.9-5.5-113.2-42.3-120.6-88.4c-4.7-28.8,7.7-56.9,34.9-79.4c9.4-7.8,11.8-9.4,23.9-15.5c22.6-11.4,44.5-16.6,73.2-17.4
		c-9.4,4.6-4.3,8-16.8,8.6c-57.1,7.4-100.2,40.3-107.5,82.1c-1.2,7.1-1.2,21.2,0,28.2c3.4,19.4,15.8,37.4,35.5,51.5
		c7.2,5.1,22.9,13.2,32.2,16.5c42.2,15.1,95.6,12.7,135.7-6.1c9.7-4.5,13.8-7.3,19.8-13.4l5.3-5.4l9.1-0.4c8.7-0.4,13.5,0,12.9,1.1
		c-0.6,0.9-12.9,5.7-17.8,7.5c-2.8,1-5.4,2.8-9.3,5.2C404.9,721.8,363.1,731.7,324.4,728.3L324.4,728.3z"/>
	
		<linearGradient id="path3116_1_" gradientUnits="userSpaceOnUse" x1="580.704" y1="570.0547" x2="578.373" y2="195.2944" gradientTransform="matrix(0.6504 0 0 -0.6504 -41.8705 887.9138)">
		<stop  offset="0" style="stop-color:#AAAAAA"/>
		<stop  offset="0.1018" style="stop-color:#BEBEBE"/>
		<stop  offset="0.2115" style="stop-color:#BEBEBE"/>
		<stop  offset="0.5492" style="stop-color:#B4B4B4"/>
		<stop  offset="0.6735" style="stop-color:#878787"/>
		<stop  offset="0.7787" style="stop-color:#969696"/>
		<stop  offset="1" style="stop-color:#AAAAAA"/>
	</linearGradient>
	
		<path id="path3116" inkscape:connector-curvature="0" sodipodi:nodetypes="cssssssssssssscssccscscsssssscsssscscsscc" class="st30" d="
		M324,728.4c-62.9-5.5-111.7-39.9-119.1-85.9c-4.7-28.8,7.7-56.4,34.9-78.9c9.4-7.8,12.1-9.4,23.5-16c21.8-12.7,43.4-19.1,72.1-19.8
		c15.4-0.4,26.7,0.3,39.3,2.5c11,1.9,12.4,2.4,15.5,5.5c2.2,2.2,2.8,3.2,2.8,5.1c0,2.8-3.1,7.1-19.5,27.2
		c-19.5,23.8-31.4,39.9-47,63.2c-12.9,19.3-14.7,23.6-12.6,30.6c1.5,5.1,6.2,7.5,10.7,8.4c5.9,1.1,12.6,0.9,57.6,0.8
		c23.6,0,73.7,0.1,75.3,0c2-0.1,3.2-0.7,4.6-2c4.6-6,6.5-8.5,0.3,2.4c-2.6,4.7-6.6,8.3-11,9.2c-5.1,1.1-139.6,0.5-147-0.6
		c-6.5-1-10.2-2.4-15.2-5.8c-3.1-2.1-4.4-3.5-5.7-6.3c-1.6-3.2-1.7-4.1-1.4-7.9c0.4-4.7,2.4-9.6,6.2-15.1c1.4-2,3.5-5.4,4.7-7.5
		c1.2-2.1,6.3-10.2,11.4-17.9c13.4-20.4,27-39,36.8-50.1c6.1-7,14.9-19,15.6-21.3c1.2-4.4-2.2-10.3-7-12c-3.2-1.2-20.5-0.9-30.9,0.4
		c-57.1,7.4-100.2,40.3-107.5,82.1c-1.2,7.1-1.2,21.2,0,28.2c3.4,19.4,15.8,37.4,35.5,51.5c7.2,5.1,22.9,13.2,32.2,16.5
		c42.2,15.1,95.6,12.7,135.7-6.1c9.7-4.5,13.8-7.3,19.8-13.4l5.3-5.4l9.1-0.4c8.7-0.4,13.5,0,12.9,1.1c-0.6,0.9-12.9,5.7-17.8,7.5
		c-2.8,1-5.4,2.8-9.3,5.2C404.4,721.9,362.6,731.8,324,728.4L324,728.4z"/>
	
		<linearGradient id="path4198_1_" gradientUnits="userSpaceOnUse" x1="421.0311" y1="246.2401" x2="508.1747" y2="322.0172" gradientTransform="matrix(0.6504 0 0 -0.6504 -41.8705 887.9138)">
		<stop  offset="0" style="stop-color:#E6E6E6"/>
		<stop  offset="1" style="stop-color:#FAFAFA;stop-opacity:0"/>
	</linearGradient>
	<path id="path4198" inkscape:connector-curvature="0" sodipodi:nodetypes="csssccscsssscscsscc" class="st31" d="M323.7,728.4
		c-62.9-5.5-113.2-42.3-120.6-88.4c-4.7-28.8,7.7-56.9,34.9-79.4c9.4-7.8,11.8-9.4,23.9-15.5c22.6-11.4,44.5-16.6,73.2-17.4
		c-0.6,6.3-10.5,8.6-16.8,8.6c-57.1,7.4-100.2,40.3-107.5,82.1c-1.2,7.1-1.2,21.2,0,28.2c3.4,19.4,15.8,37.4,35.5,51.5
		c7.2,5.1,22.9,13.2,32.2,16.5c42.2,15.1,95.6,12.7,135.7-6.1c9.7-4.5,13.8-7.3,19.8-13.4l5.3-5.4l9.1-0.4c8.7-0.4,13.5,0,12.9,1.1
		c-0.6,0.9-12.9,5.7-17.8,7.5c-2.8,1-5.4,2.8-9.3,5.2C404.2,721.9,362.3,731.8,323.7,728.4L323.7,728.4z"/>
	
		<linearGradient id="path3116-1_1_" gradientUnits="userSpaceOnUse" x1="320.2589" y1="272.8961" x2="214.3364" y2="236.5677" gradientTransform="matrix(0.6504 0 0 -0.6504 213.0578 777.8594)">
		<stop  offset="0" style="stop-color:#FAFAFA"/>
		<stop  offset="0.25" style="stop-color:#FAFAFA;stop-opacity:0.902"/>
		<stop  offset="0.5" style="stop-color:#E1E1E1;stop-opacity:0.498"/>
		<stop  offset="1" style="stop-color:#C8C8C8;stop-opacity:0"/>
	</linearGradient>
	<path id="path3116-1" inkscape:connector-curvature="0" sodipodi:nodetypes="csssccscsssscscsscc" class="st32" d="M324.4,728.3
		c-62.9-5.5-113.2-42.3-120.6-88.4c-4.7-28.8,7.7-56.9,34.9-79.4c9.4-7.8,11.8-9.4,23.9-15.5c22.6-11.4,44.5-16.6,73.2-17.4
		c-9.4,4.6-4.3,8-16.8,8.6c-57.1,7.4-100.2,40.3-107.5,82.1c-1.2,7.1-1.2,21.2,0,28.2c3.4,19.4,15.8,37.4,35.5,51.5
		c7.2,5.1,22.9,13.2,32.2,16.5c42.2,15.1,95.6,12.7,135.7-6.1c9.7-4.5,13.8-7.3,19.8-13.4l5.3-5.4l9.1-0.4c8.7-0.4,13.5,0,12.9,1.1
		c-0.6,0.9-12.9,5.7-17.8,7.5c-2.8,1-5.4,2.8-9.3,5.2C404.9,721.8,363.1,731.7,324.4,728.3L324.4,728.3z"/>
	
		<linearGradient id="path4500_1_" gradientUnits="userSpaceOnUse" x1="607.665" y1="448.1613" x2="629.2513" y2="433.006" gradientTransform="matrix(0.6504 0 0 -0.6504 -41.8705 887.9138)">
		<stop  offset="0" style="stop-color:#FAFAFA"/>
		<stop  offset="0.25" style="stop-color:#EDEDED;stop-opacity:0.749"/>
		<stop  offset="0.5" style="stop-color:#E1E1E1;stop-opacity:0.498"/>
		<stop  offset="1" style="stop-color:#C8C8C8;stop-opacity:0"/>
	</linearGradient>
	<path id="path4500" inkscape:connector-curvature="0" sodipodi:nodetypes="ssscssssscsssssss" class="st33" d="M330.9,673.9
		c-5.2-0.1-14.8-7.6-14.1-7c5.4,4.6,28.2,4.2,72.7,4.1l67.6-0.2l1.7-1.6c0.9-0.9,3.1-4.5,4.7-8c9.8-20.6,9.8-41.5,0.1-61.8
		c-4-8.3-8.6-14.8-15.9-22.5c-10.6-11.1-20.7-18.7-36.7-25.8c-11.4-5-11.7-3.9-11.3-7.1c0-0.8-0.4-1.8-0.8-3
		c-1.5-5.4-0.8-4.2,12.7,2.9c18.2,9.5,28,16,39.4,27.9c25.3,26.3,31.6,60.3,16.8,90.8c-2.8,5.8-6.9,9.8-11.4,11.2
		c-2,0.6-13.8,0.7-60.9,0.6C361.9,674.4,357.4,674.5,330.9,673.9L330.9,673.9z"/>
	
		<linearGradient id="path3155_1_" gradientUnits="userSpaceOnUse" x1="588.9523" y1="295.1061" x2="789.7615" y2="502.7353" gradientTransform="matrix(0.6504 0 0 -0.6504 -41.8705 887.9138)">
		<stop  offset="0" style="stop-color:#969696"/>
		<stop  offset="0.1326" style="stop-color:#C0BEBE"/>
		<stop  offset="0.5" style="stop-color:#B4B4B4"/>
		<stop  offset="1" style="stop-color:#BEBEBE"/>
	</linearGradient>
	<path id="path3155" inkscape:connector-curvature="0" sodipodi:nodetypes="ssscssssscsssssss" class="st34" d="M330.9,672.1
		c-9-0.1-17.1-7.5-16.4-6.9c5.4,4.5,30.5,4.1,75,3.9l67.6-0.2l1.7-1.6c0.9-0.9,3.1-4.4,4.7-7.9c9.8-20.3,9.8-40.9,0.1-61
		c-4-8.2-8.6-14.6-15.9-22.2c-10.6-11-20.7-18.4-36.7-25.4c-11.4-5-11.7-3.9-11.3-7c0-0.8-0.4-1.8-0.8-3c-1.5-5.3-0.1-1.4,13.4,5.6
		c18.2,9.4,25.9,14.4,37.3,26.1c25.3,26,33,58.2,18.2,88.3c-2.8,5.8-6.9,9.7-11.4,11.1c-2,0.6-13.8,0.7-60.9,0.6
		C361.9,672.7,357.4,672.5,330.9,672.1L330.9,672.1z"/>
	
		<linearGradient id="path3284_1_" gradientUnits="userSpaceOnUse" x1="663.2079" y1="503.0055" x2="706.4008" y2="494.67" gradientTransform="matrix(0.6504 0 0 -0.6504 -41.8705 887.9138)">
		<stop  offset="0" style="stop-color:#000000;stop-opacity:0"/>
		<stop  offset="0.1092" style="stop-color:#323232;stop-opacity:0.949"/>
		<stop  offset="0.2183" style="stop-color:#323232;stop-opacity:0.902"/>
		<stop  offset="0.5061" style="stop-color:#E1E1E1;stop-opacity:0.498"/>
		<stop  offset="1" style="stop-color:#C8C8C8;stop-opacity:0"/>
	</linearGradient>
	<path id="path3284" inkscape:connector-curvature="0" sodipodi:nodetypes="csscsscc" class="st35" d="M463.7,599.3
		c-4-8.3-8.6-14.8-15.9-22.5c-10.6-11.1-20.7-18.7-36.7-25.8c-11.4-5-11.7-3.9-11.3-7.1c0-0.8-0.4-1.8-0.8-3
		c-1.5-5.4-1.7-2.4,11.8,4.6c18.2,9.5,28.9,14.2,40.3,26.1C460.9,585.1,454.4,578,463.7,599.3L463.7,599.3z"/>
	
		<linearGradient id="path3300_1_" gradientUnits="userSpaceOnUse" x1="361.3113" y1="136.4874" x2="361.0979" y2="123.271" gradientTransform="matrix(0.6504 0 0 -0.6504 213.0578 777.8594)">
		<stop  offset="0" style="stop-color:#FAFAFA"/>
		<stop  offset="0.5" style="stop-color:#FAFAFA;stop-opacity:0.902"/>
		<stop  offset="0.6978" style="stop-color:#E1E1E1;stop-opacity:0.498"/>
		<stop  offset="1" style="stop-color:#C8C8C8;stop-opacity:0"/>
	</linearGradient>
	<path id="path3300" inkscape:connector-curvature="0" sodipodi:nodetypes="ccscc" class="st36" d="M434.7,694.9l5.3-5.4l9.1-0.4
		c8.7-0.4,13.5,0,12.9,1.1C455.9,697.1,428.8,702,434.7,694.9L434.7,694.9z"/>
	
		<radialGradient id="path3287_1_" cx="-65.6835" cy="-327.6022" r="131.1526" gradientTransform="matrix(0.1182 0.5011 0.6371 -0.1502 556.4673 572.2799)" gradientUnits="userSpaceOnUse">
		<stop  offset="0" style="stop-color:#DCDCDC;stop-opacity:0.902"/>
		<stop  offset="0.7522" style="stop-color:#E1E1E1;stop-opacity:0.451"/>
		<stop  offset="1" style="stop-color:#C8C8C8;stop-opacity:0"/>
	</radialGradient>
	
		<path id="path3287" inkscape:connector-curvature="0" sodipodi:nodetypes="cssssssssssssscssccscscsssssscsssscscsscc" class="st37" d="
		M324,728.2c-62.9-5.5-111.7-39.9-119.1-85.9c-4.7-28.8,7.7-56.4,34.9-78.9c9.4-7.8,12.1-9.4,23.5-16c21.8-12.7,43.4-19.1,72.1-19.8
		c15.4-0.4,26.7,0.3,39.3,2.5c11,1.9,12.4,2.4,15.5,5.5c2.2,2.2,2.8,3.2,2.8,5.1c0,2.8-3.1,7.1-19.5,27.2
		c-19.5,23.8-31.4,39.9-47,63.2c-12.9,19.3-14.7,23.6-12.6,30.6c1.5,5.1,6.2,7.5,10.7,8.4c5.9,1.1,12.6,0.9,57.6,0.8
		c23.6,0,73.7,0.1,75.3,0c2-0.1,3.2-0.7,4.6-2c4.6-6,6.5-8.5,0.3,2.4c-2.6,4.7-6.6,8.3-11,9.2c-5.1,1.1-139.6,0.5-147-0.6
		c-6.5-1-10.2-2.4-15.2-5.8c-3.1-2.1-4.4-3.5-5.7-6.3c-1.6-3.2-1.7-4.1-1.4-7.9c0.4-4.7,2.4-9.6,6.2-15.1c1.4-2,3.5-5.4,4.7-7.5
		c1.2-2.1,6.3-10.2,11.4-17.9c13.4-20.4,27-39,36.8-50.1c6.1-7,14.9-19,15.6-21.3c1.2-4.4-2.2-10.3-7-12c-3.2-1.2-20.5-0.9-30.9,0.4
		c-57.1,7.4-100.2,40.3-107.5,82.1c-1.2,7.1-1.2,21.2,0,28.2c3.4,19.4,15.8,37.4,35.5,51.5c7.2,5.1,22.9,13.2,32.2,16.5
		c42.2,15.1,95.6,12.7,135.7-6.1c9.7-4.5,13.8-7.3,19.8-13.4l5.3-5.4l9.1-0.4c8.7-0.4,13.5,0,12.9,1.1c-0.6,0.9-12.9,5.7-17.8,7.5
		c-2.8,1-5.4,2.8-9.3,5.2C404.4,721.8,362.6,731.6,324,728.2L324,728.2z"/>
</g>
</svg>
