<?xml version="1.0" encoding="utf-8"?>
<!-- Generator: Adobe Illustrator 21.1.0, SVG Export Plug-In . SVG Version: 6.00 Build 0)  -->
<svg version="1.1"
	 id="svg2" xmlns:cc="http://creativecommons.org/ns#" xmlns:dc="http://purl.org/dc/elements/1.1/" xmlns:rdf="http://www.w3.org/1999/02/22-rdf-syntax-ns#" xmlns:svg="http://www.w3.org/2000/svg"
	 xmlns="http://www.w3.org/2000/svg" xmlns:xlink="http://www.w3.org/1999/xlink" x="0px" y="0px" viewBox="0 0 257.3 257.3"
	 style="enable-background:new 0 0 257.3 257.3;" xml:space="preserve">
<style type="text/css">
	.st0{fill:#FFFFFF;}
	.st1{fill:#F1BD18;}
	.st2{fill:#1C5637;}
	.st3{fill:#D3D2D2;}
</style>
<g id="g10" transform="matrix(1.3333333,0,0,-1.3333333,0,257.33333)">
	<g id="g12" transform="scale(0.1)">
		<path id="path14" class="st0" d="M0,0h1927.6v1927.6H0V0z"/>
		<path id="path16" class="st1" d="M963.8,1803c463,0,839.8-376.8,839.8-839.8c0-461.8-376.8-839.8-839.8-839.8
			C502,123.4,124,501.4,124,963.2C124,1426.2,502,1803,963.8,1803"/>
		<path id="path18" class="st2" d="M738.2,1481.7c0,0,86.2,115.8,217.3,118.1c131.1,3.5,205.5-80.3,205.5-80.3l450-504.3
			c0,0,92.1-87.4,57.9-186.6c-34.2-99.2-222.1-313-694.5-322.4c-473.6-9.5-672,238.6-672,238.6s-96.9,128.7,0,240.9
			C398,1097.8,738.2,1481.7,738.2,1481.7"/>
		<path class="st3" d="M1203.5,1060c-14.2,8.3-21.3-5.9-21.3-5.9l-18.9-16.5c0,0-72.1-50.8-170.1-54.3
			c-98-4.7-126.4,30.7-167.7,68.5c-41.3,37.8-52,122.8-52,122.8l22.4,34.3l35.4-1.2c0,0-5.9-54.3,21.3-87.4
			c27.2-34.3,66.1-39,66.1-39s0,0,0-9.4c0-8.3-7.1-11.8-24.8-17.7c-16.5-7.1-1.2-18.9-1.2-18.9l179.5,1.2c0,0,82.7,20.1,82.7,98
			c0,76.8-69.7,90.9-69.7,90.9s44.9,3.5,44.9,69.7c0,66.2-65,63.8-65,63.8l-239.8-2.4v-15.4c0,0,1.2-2.4,4.7-11.8
			c3.5-10.6-3.5-15.4-3.5-15.4l-55.5-79.1c0,0-4.7,86.2,56.7,151.2c62.6,66.1,146.5,53.2,146.5,53.2v0h37.8c0,0,78-16.5,126.4-43.7
			c47.2-27.2,36.6,5.9,36.6,5.9s-23.6,36.6-34.2,59.1c-11.8,22.4-17.7,10.6-33.1-1.2c-15.4-11.8-36.6,0-36.6,0s-115.7,39-232.7-9.5
			c-115.7-49.6-137-199.6-139.4-227.9c-2.4-28.4,9.4-95.7,9.4-95.7s-20.1-30.7-33.1-50.8c-13-21.3-53.1-22.4-53.1-22.4
			s-11.8,1.2-11.8-11.8c0-14.2,7.1-10.6,7.1-10.6l111,1.2c0,0,8.3,13-8.3,22.4c-13.2,6.6,3,30.5,7,36.3
			c-4.9-11,100.7-166.1,250.5-156.7c152.4,9.4,211.4,89.8,211.4,89.8S1217.7,1053,1203.5,1060z M918.9,1126.2
			c0,0-22.4,4.7-31.9,24.8c-9.4,18.9-8.3,56.7-8.3,56.7h40.2V1126.2z M879.9,1241.9c0,0,0,8.3,11.8,23.6c10.6,15.4,26,17.7,26,17.7
			v-41.3H879.9z M1099.6,1136.8c0-59.1-49.6-73.2-49.6-73.2s-7.1-2.4-31.9-3.5c-26-1.2-42.5,8.3-42.5,8.3l1.2,13
			c0,0,27.2,2.4,52,14.2c24.8,13,33.1,27.2,33.1,27.2s13,16.5,4.7,23.6c-8.3,5.9-11.8,2.4-11.8,2.4s5.9,3.5-20.1-18.9
			c-26-22.4-60.2-15.4-60.2-15.4l-2.4,92.1h69.7C1041.7,1206.5,1099.6,1194.7,1099.6,1136.8z M969.7,1291.5c0,0,31.9,10.6,57.9-13
			c26-23.6,23.6,3.6,23.6,3.6s-1.2,8.3-14.2,23.6c-13,15.4-24.8,2.4-24.8,2.4l-42.5,1.2v20.1h75.6c0,0,29.5-3.5,29.5-41.3
			c0-39-29.5-46.1-29.5-46.1h-75.6V1291.5z M820.9,1240.8L820.9,1240.8c0,0,33.1,57.9,40.2,70.9c5.9,13,15.4,13,15.4,13
			s14.2,1.2,31.9,2.4c16.5,1.2,10.6-20.1,10.6-20.1s-26-7.1-49.6-23.6c-22.4-16.5-31.9-43.7-31.9-43.7L820.9,1240.8L820.9,1240.8
			L820.9,1240.8z"/>
		<path class="st3" d="M1667.7,1023.4l-489,535c0,0-83.9,87.4-224.4,83.9c-140.6-3.5-237.4-120.5-237.4-120.5
			s-357.9-394.5-461.8-515c-103.9-121.7-3.5-284.6-3.5-284.6S465.4,447,974.4,457.7c509.1,9.4,703.9,250.4,740.6,357.9
			C1751.6,923,1667.7,1023.4,1667.7,1023.4z M1661.8,830.9c-33.1-99.2-219.7-310.6-687.4-320.1c-468.9-9.4-666.1,237.4-666.1,237.4
			s-95.7,127.6,0,238.6c95.7,111,432.3,491.3,432.3,491.3s85,114.6,215,116.9c129.9,3.5,203.1-80.3,203.1-80.3l446.5-499.6
			C1605.1,1015.2,1696.1,928.9,1661.8,830.9z"/>
		<path id="path24" class="st3" d="M558.7,776.6l-47.2-61.4l-209.1,150l8.3,10.6c3.5-2.4,8.3-4.7,13-8.3c5.9-2.4,9.4-4.7,11.8-4.7
			c4.7-1.2,8.3-1.2,11.8,0c2.4,1.2,5.9,3.5,8.3,7.1l93.3,142.9c2.4,3.5,3.5,5.9,4.7,9.5c0,3.6-1.2,7.1-4.7,11.8
			c-2.4,3.6-5.9,8.3-9.4,11.8c-4.7,4.7-8.3,7.1-10.6,9.4l7.1,11.8L561,977.4l-8.3-10.6c-3.5,1.2-7.1,3.5-13,7.1
			c-4.7,2.4-8.3,4.7-13,5.9c-4.7,2.4-9.4,2.4-11.8,1.2c-3.5-2.4-5.9-4.7-8.3-8.3l-87.4-132.3c-4.7-5.9-7.1-11.8-8.3-15.4
			c-1.2-4.7-1.2-9.4,0-13c1.2-3.5,4.7-7.1,9.5-11.8c4.7-3.5,10.6-8.3,20.1-15.4c8.3-5.9,16.5-11.8,26-16.5
			c8.3-4.7,15.4-7.1,21.3-5.9c8.3,0,17.7,3.5,29.5,8.3c11.8,4.7,21.3,9.4,29.5,14.2L558.7,776.6"/>
		<path id="path26" class="st3" d="M817.3,830.9c7.1-13,11.8-27.2,13-43.7c2.4-15.4-1.2-31.9-7.1-49.6
			c-5.9-16.5-14.2-30.7-24.8-43.7c-10.6-11.8-22.4-22.4-36.6-29.5c-15.4-8.3-30.7-13-48.4-15.4c-16.5-1.2-35.4,0-55.5,5.9
			c-16.5,4.7-31.9,11.8-43.7,21.3c-13,8.3-23.6,20.1-30.7,33.1c-8.3,13-13,27.2-14.2,42.5c-1.2,15.4,1.2,31.9,7.1,49.6
			c7.1,17.7,15.4,33.1,27.2,44.9c11.8,13,24.8,23.6,39,30.7c15.4,7.1,30.7,10.6,48.4,13c16.5,1.2,33.1-1.2,50.8-5.9
			c16.5-4.7,31.9-11.8,44.9-21.3C799.6,853.3,809.1,842.7,817.3,830.9L817.3,830.9z M719.3,685.6c8.3,8.3,15.4,17.7,22.4,29.5
			c5.9,10.6,11.8,23.6,17.7,39c3.5,11.8,7.1,24.8,10.6,36.6c2.4,13,2.4,24.8,1.2,35.4c-1.2,10.6-4.7,18.9-9.4,27.2
			c-5.9,7.1-14.2,13-26,16.5c-18.9,4.7-36.6,0-53.1-15.4c-16.5-14.2-30.7-37.8-41.3-69.7c-4.7-13-8.3-27.2-10.6-39
			c-2.4-13-2.4-24.8-1.2-34.3c1.2-10.6,4.7-20.1,10.6-27.2c4.7-7.1,13-11.8,23.6-14.2c10.6-3.5,21.3-3.5,30.7,0
			C703.9,672.6,712.2,678.5,719.3,685.6"/>
		<path id="path28" class="st3" d="M1055.9,797.8h-11.8c-2.4,10.6-8.3,21.3-15.3,31.9c-7.1,11.8-13,17.7-18.9,17.7
			c-3.5,1.2-7.1,1.2-11.8,1.2c-4.7,0-9.4,0-13,0H978l3.5-183.1c0-3.5,0-7.1,1.2-9.4c2.4-3.5,4.7-5.9,8.3-7.1
			c2.4-1.2,5.9-2.4,10.6-3.5c4.7,0,9.5-1.2,13-1.2v-13l-119.3-2.4v13c2.4,0,7.1,1.2,11.8,1.2c5.9,1.2,9.4,1.2,10.6,2.4
			c3.5,2.4,7.1,4.7,8.3,7.1c1.2,3.5,1.2,7.1,1.2,10.6l-2.4,184.3h-7.1c-3.5,0-8.3,0-13,0c-4.7-1.2-8.3-1.2-11.8-1.2
			c-5.9-1.2-11.8-8.3-18.9-18.9c-5.9-11.8-10.6-22.4-14.2-33.1H848l-1.2,67.3l207.9,3.5L1055.9,797.8"/>
		<path id="path30" class="st3" d="M1335.8,930.1c-3.5-1.2-8.3-3.5-13-7.1c-5.9-2.4-10.6-5.9-14.2-9.4c-3.5-3.5-4.7-9.4-4.7-16.5
			s1.2-17.7,4.7-30.7l22.4-81.5c5.9-24.8,2.4-46.1-10.6-65c-14.2-20.1-34.2-34.3-62.6-42.5c-33.1-9.4-61.4-9.4-82.7,0
			c-22.4,8.3-36.6,26-42.5,50.8l-29.5,112.2c-1.2,4.7-3.5,7.1-4.7,9.4c-2.4,2.4-5.9,3.5-10.6,4.7c-3.6,0-7.1,0-11.8,0
			c-3.5,0-7.1-1.2-10.6-1.2l-2.4,11.8l121.7,34.2l2.4-11.8c-2.4-1.2-5.9-2.4-9.4-3.5c-3.5-2.4-7.1-3.5-10.6-5.9
			c-3.5-2.4-5.9-5.9-7.1-8.3c0-3.5,0-7.1,1.2-10.6l28.3-111c5.9-21.3,15.3-36.6,28.3-42.5c13-7.1,28.3-8.3,48.4-2.4
			c18.9,4.7,31.9,14.2,40.2,28.3c8.3,14.2,9.4,31.9,3.5,53.2l-20.1,74.4c-3.6,13-7.1,22.4-10.6,28.3c-3.5,5.9-7.1,10.6-11.8,11.8
			c-3.5,2.4-9.4,2.4-16.5,2.4c-8.3,0-13,0-16.5-1.2l-2.4,11.8l100.4,29.5L1335.8,930.1"/>
		<path id="path32" class="st3" d="M1523.6,797.8c-14.2-8.3-28.3-14.2-42.5-17.7c-14.2-4.7-26-7.1-36.6-8.3l-5.9-15.4l-14.2-8.3
			l-40.2,69.7l14.2,8.3c7.1-5.9,15.3-10.6,23.6-14.2c9.4-4.7,17.7-8.3,28.3-10.6c9.4-2.4,20.1-3.5,29.5-2.4
			c10.6,1.2,21.3,4.7,31.9,10.6c15.3,9.4,24.8,18.9,29.5,29.5c4.7,10.6,4.7,20.1,0,29.5c-3.5,7.1-10.6,11.8-20.1,13
			c-9.4,1.2-22.4,0-39-3.5c-10.6-3.5-20.1-5.9-28.3-8.3c-9.4-2.4-17.7-4.7-26-5.9c-17.7-3.5-33.1-3.5-46.1,2.4
			c-13,4.7-22.4,14.2-29.5,26c-3.5,8.3-5.9,16.5-5.9,26c1.2,8.3,3.5,17.7,8.3,28.3c3.5,9.5,10.6,18.9,20.1,28.3
			c9.4,10.6,21.3,18.9,34.2,26c13,8.3,26,13,39,16.5s23.6,5.9,31.9,5.9l4.7,14.2l15.4,8.3l36.6-65l-14.2-8.3
			c-7.1,4.7-15.3,9.4-23.6,15.4c-8.3,4.7-16.5,8.3-23.6,10.6c-8.3,2.4-16.5,2.4-26,1.2c-8.3,0-17.7-3.5-27.2-9.4
			c-11.8-5.9-20.1-14.2-24.8-24.8c-3.6-9.4-3.6-18.9,0-27.2c4.7-7.1,10.6-11.8,20.1-13c9.4-1.2,21.3,0,37.8,3.5
			c9.4,2.4,18.9,4.7,28.3,8.3c9.5,2.4,17.7,4.7,26,5.9c18.9,3.5,34.2,3.5,47.2,0c13-4.7,23.6-14.2,30.7-27.2
			c4.7-8.3,5.9-17.7,5.9-28.3c-1.2-10.6-3.5-21.3-8.3-30.7c-5.9-10.6-14.2-21.3-23.6-30.7C1552,816.7,1539,807.3,1523.6,797.8"/>
		<path class="st3" d="M963.8,1841.9C479.5,1841.9,85,1447.4,85,963.2C85,480.1,479.5,85.6,963.8,85.6
			c484.2,0,878.7,394.5,878.7,877.6C1842.5,1447.4,1448,1841.9,963.8,1841.9z M963.8,130.5c-458.3,0-832.7,374.4-832.7,832.7
			c0,459.5,374.4,833.9,832.7,833.9c459.4,0,833.9-374.4,833.9-833.9C1797.6,504.9,1423.2,130.5,963.8,130.5z"/>
	</g>
</g>
</svg>
