<?xml version="1.0" encoding="utf-8"?>
<!-- Generator: Adobe Illustrator 21.1.0, SVG Export Plug-In . SVG Version: 6.00 Build 0)  -->
<svg version="1.1" id="Layer_1" xmlns="http://www.w3.org/2000/svg" xmlns:xlink="http://www.w3.org/1999/xlink" x="0px" y="0px"
	 viewBox="0 0 606.7 376" style="enable-background:new 0 0 606.7 376;" xml:space="preserve">
<style type="text/css">
	.st0{fill:#1B1C20;}
</style>
<g>
	<g>
		<rect x="289.6" y="181.4" class="st0" width="27" height="6.7"/>
		<rect x="292.9" y="190.7" class="st0" width="20.4" height="13.8"/>
		<rect x="263" y="150.4" class="st0" width="80.3" height="3.4"/>
		<rect x="258.7" y="156.7" class="st0" width="88.9" height="3.3"/>
		<rect x="258.6" y="144.2" class="st0" width="88.9" height="3.4"/>
		<path class="st0" d="M317.2,167.3c-4.4,4.1-4.4,11.4-4.4,11.4h-9.5h-9.6c0,0,0-7.3-4.4-11.4c-3.1-2.9-6.9-3.5-6.9-3.5
			c-2.5-0.5-2.5-0.8-2.5-0.9h21.7h5.9h19.3c0,0,0,0.4-2.5,0.9C324.1,163.8,320.3,164.4,317.2,167.3"/>
		<path class="st0" d="M263.3,162.9h9.7c0,5.7-3.7,8.3-9.7,7V162.9z"/>
		<path class="st0" d="M297.5,70.7c3.9-7.6,4.6-19,5.6-19.2c0.9,0.2,1.7,11.6,5.5,19.2c3.6,7.2,11.4,13.2,11,14
			c-0.5,0.9-4.9-1.3-7-2.3c-3.5-1.6-6.3-2.9-6.3-2.9s-1.4,18.2,3,35c3.6,13.7,12.3,26.2,13.1,27.3h-11.1c-0.3-0.6-0.7-1.2-1-1.7
			c-3-5.3-5.2-9.9-7.2-17.8c-2.1,7.9-4.3,12.5-7.3,17.8c-0.3,0.6-0.6,1.2-1,1.7h-11.1c0.8-1.1,9.5-13.6,13.1-27.3
			c4.4-16.7,3-35,3-35s-2.8,1.3-6.3,2.9c-2.2,1-6.5,3.2-7.1,2.4C286.1,84,293.9,77.9,297.5,70.7"/>
		<path class="st0" d="M263,141.7c-0.1-1.4-0.7-19.7-5.1-34.1c-4.7-15.8-14.3-25.2-13.6-26.1c0.6-0.9,8.4,0.7,14.3,4.8
			c6.3,4.3,12.5,11.5,12,12c-0.3,0.3-2.4-1.4-6.2-2.9c-4.1-1.5-5.8-1.2-5.8-1.2s6.8,11.2,10.1,23.2c2.8,10.1,4.3,23.2,4.3,24.4
			L263,141.7L263,141.7z"/>
		<path class="st0" d="M343.4,141.7c0-1.4,0.7-19.7,5.1-34.1c4.7-15.8,14.3-25.2,13.6-26.1c-0.6-0.9-8.4,0.7-14.4,4.8
			c-6.3,4.3-12.5,11.5-12,12c0.3,0.3,2.4-1.4,6.2-2.9c4.1-1.5,5.9-1.2,5.9-1.2s-6.8,11.2-10.1,23.2c-2.8,10.1-4.3,23.2-4.4,24.4
			L343.4,141.7L343.4,141.7z"/>
		<path class="st0" d="M343,162.9h-9.7c0,5.7,3.7,8.3,9.6,7v-7H343z"/>
		<path class="st0" d="M140.6,261.9l7.8,21.7h-16.3L140.6,261.9z M367.1,255.8c6.1,0,14.6,3.3,14.6,14.6c0,7.2-2.7,10.7-5.9,12.4
			c-2.7,1.5-5.6,1.7-8.6,1.7h-6v-28.4C362.7,256.1,364.9,255.8,367.1,255.8 M445.7,261.9l7.8,21.7h-16.3L445.7,261.9z M19.7,262.2
			l22.2,52h3l22.8-52l2.3,39.3c0.1,0.9,0.4,3.7,0.4,4.5c0,2.2-1.1,3.3-2.7,3.9c-2,0.8-5.1,0.9-7.3,1.1v3.1h29.8V311
			c-9.2,0.4-9.4-2.2-9.9-10.2l-2.4-35.7c-0.2-4.7-0.1-6.8,0.9-7.8c0.5-0.5,1.3-0.8,2.5-1c1.3-0.1,2.9-0.1,5.4-0.1v-3.1H66.3
			l-19.9,45.6l-19.7-45.6H6.1v3.1c7.9,0.5,9,0.5,8.6,6.4l-3,36.9c-0.8,10.5-0.9,11.1-11.3,11.6v3.1h24.2v-3.1
			c-3.3,0-8.6-0.1-8.6-3.9c0-1.6,0.1-3.5,0.3-4.2L19.7,262.2z M146.9,314.2h30v-3.1c-4-0.1-5.7-0.5-7.1-1.7
			c-1.4-1.3-2.5-4.6-3.1-6.3l-19.3-52h-10.8l1.6,4.3l-17.6,44.2c-0.8,1.9-1.4,3.6-1.9,4.9c-2.1,4.4-4,5.6-9.1,6.6v3h24.7V311
			c-1.6-0.1-2.9-0.3-3.9-0.4c-2.8-0.5-5.7-1.1-5.7-4.6c0-3.4,1.5-7.5,2.4-10l3.1-7.9h19.9l4.2,11.6c0.9,2.6,2,5.6,2,7.6
			c0,3.4-4.2,3.6-9.4,3.8V314.2z M218.4,316.2c11.7,0,19.2-8.2,19.2-17.6c0-5.2-2.1-9.1-4.8-12.2c-2.2-2.5-4.8-4.3-7.7-6.1
			c-3.5-2.3-6.5-4.3-8.8-5.9c-2.3-1.5-4.2-3-5.5-4.2c-2.6-2.3-3.4-4.2-3.4-7c0-4.4,3.9-8.5,9.3-8.5c6.9,0,11.7,4.8,14.7,12.6h3.2
			l-1.5-14.6h-3c-0.8,1.1-1.3,1.3-1.7,1.3c-0.5,0-3.4-1.3-4.2-1.6c-2.6-0.9-5.7-1.4-9-1.4c-8.5,0-16.8,6.6-16.8,15.8
			c0,5.5,2.3,11.1,14.8,18.8c10,6.1,15.5,9.5,15.5,16.7c0,7.9-7.6,10.4-11.4,10.4c-2.9,0-11.5-1.6-15.7-13.5h-3.4L200,315h2.9
			c0.1-0.9,0.4-1.3,1.5-1.3c0.5,0,1,0,1.7,0.3c3.6,1.1,5.7,1.6,7.4,1.9C215.5,316.1,216.6,316.2,218.4,316.2 M314.7,314.2l1.4-15.4
			h-3.3c-2.7,10.5-5.9,11.6-12,11.6h-10.5c-5.7,0-6,0-6-5.7V285h13.8c6.9,0,7.8,0.4,8.2,8.1h3.3v-19.4h-3.3
			c-0.8,7.6-2.2,7.6-7.2,7.6h-14.8v-24.2h15c6.6,0,8.7,0.7,10.4,10.1h3.1l-0.6-13.9h-48.6v3.1c8.1-0.1,9.9,0.9,9.9,7.8v39.1
			c0,5.6-0.7,8.1-9.9,7.7v3.1h51.1V314.2z M378.5,303.2c5.9,9,13,12.4,22,12v-3.1c-5.2-1-7.7-2.9-12.4-12.4c-2.5-5.3-4-8.2-5.2-10
			c-0.9-1.3-2-2.3-3.1-3.5c1-0.4,2.3-0.8,3.6-1.4c6.1-2.8,9.5-7.4,9.5-14.6c0-17.8-22.7-17.8-27.5-17.8c-10.7,0-18.9,0.9-25,1.5v3.1
			c9.1,0.4,10,0.5,10,6.8v39.5c0,5.6-0.8,8.1-10,7.7v3.1h31.8V311h-4.4c-5.7,0-6.5-1.6-6.5-9.5v-13.4h8.5
			C371.3,290.4,376.9,300.9,378.5,303.2 M452,314.2h30v-3.1c-3.9-0.1-5.7-0.5-6.9-1.7c-1.4-1.3-2.5-4.6-3.1-6.3l-19.4-52h-10.8
			l1.6,4.3L426,299.6c-0.8,1.9-1.4,3.6-2.1,4.9c-2.1,4.4-4,5.6-9.1,6.6v3h24.9V311c-1.6-0.1-2.9-0.3-4-0.4c-2.6-0.5-5.7-1.1-5.7-4.6
			c0-3.4,1.6-7.5,2.6-10l3.1-7.9h19.6l4,11.6c1,2.6,1.9,5.6,1.9,7.6c0,3.4-4,3.6-9.4,3.8v3.1H452z M547.7,267.3h3.3l-1.5-16.1H547
			c-0.7,1.6-1,1.9-5.6,1.9h-39h-2.6c-1.7-0.1-2.6-0.3-3.5-1.9h-2.5l-1.3,16.1h3c1.2-3.5,1.7-5.5,2.2-6.8s1.1-2,1.8-2.5
			c1-0.8,2.7-1.1,6.7-1.1h10.1v46.3c0,3.8-0.4,5.5-1.7,6.4c-0.8,0.5-1.8,0.8-3.4,1c-1.6,0.2-3.5,0.3-6.5,0.4v3.1h33.7V311
			c-2.8-0.1-4.7-0.3-6.3-0.4c-1.6-0.2-2.6-0.5-3.4-1c-1.4-1-1.8-2.9-1.8-7V257h11.4C543.5,257,545.5,257.1,547.7,267.3 M574.4,314.2
			h31.5v-3.1c-8.8-0.5-10.8-1.6-10.8-9.1v-33.7c0-10.2,0.1-11.6,10.4-12v-3.1H574v3.1c8.9,0.6,10.4,1.7,10.4,9.1v30.8
			c0,3-0.1,10.6-1.6,12.9c-0.8,1.4-1,1.6-8.5,2.1L574.4,314.2L574.4,314.2z"/>
	</g>
</g>
</svg>
