<?xml version="1.0" encoding="utf-8"?>
<!-- Generator: Adobe Illustrator 21.1.0, SVG Export Plug-In . SVG Version: 6.00 Build 0)  -->
<svg version="1.1"
	 id="svg2" inkscape:version="0.48.3.1 r9886" sodipodi:docname="MAZDA.svg" xmlns:cc="http://creativecommons.org/ns#" xmlns:dc="http://purl.org/dc/elements/1.1/" xmlns:inkscape="http://www.inkscape.org/namespaces/inkscape" xmlns:rdf="http://www.w3.org/1999/02/22-rdf-syntax-ns#" xmlns:sodipodi="http://sodipodi.sourceforge.net/DTD/sodipodi-0.dtd" xmlns:svg="http://www.w3.org/2000/svg"
	 xmlns="http://www.w3.org/2000/svg" xmlns:xlink="http://www.w3.org/1999/xlink" x="0px" y="0px" viewBox="0 0 707.5 940.5"
	 style="enable-background:new 0 0 707.5 940.5;" xml:space="preserve">
<style type="text/css">
	.st0{fill:#43565C;}
	.st1{fill:#657681;}
	.st2{fill:#CCCCCC;}
	.st3{fill:#666666;}
	.st4{fill:#808080;}
	.st5{fill:url(#path1222_1_);}
	.st6{fill:url(#path1650_1_);}
	.st7{fill:#121113;}
	.st8{fill:#C9CDD1;}
	.st9{fill:#E6E6E6;}
	.st10{fill:#2A2E33;}
	.st11{fill:#B3B3B3;}
	.st12{fill:#333333;}
	.st13{fill:#999999;}
	.st14{fill:#1A1A1A;}
	.st15{fill:#3C444B;}
	.st16{fill:#F2F2F2;}
	.st17{fill:#FFFFFF;}
	.st18{fill:#ECECEC;}
	.st19{fill:#0080C5;}
</style>
<sodipodi:namedview  bordercolor="#666666" borderopacity="1" gridtolerance="10" guidetolerance="10" id="namedview4" inkscape:current-layer="svg2" inkscape:cx="121.24328" inkscape:cy="311.11774" inkscape:pageopacity="0" inkscape:pageshadow="2" inkscape:window-height="480" inkscape:window-width="640" inkscape:zoom="0.42435952" objecttolerance="10" pagecolor="#ffffff" showgrid="false">
	</sodipodi:namedview>
<g id="g16086">
	<path id="path14" inkscape:connector-curvature="0" class="st0" d="M291.1,352.6c-20.8-28.2-45.6-44-71.2-56.7
		c-4.1-2.1-8.3-4-12.5-6c12.1,4.8,23.8,10.2,42.5,20.9c20.5,11.7,38.9,36.6,50.6,53.9c1.4,2.1,2.9,4.3,4.4,6.4
		C300.3,365.2,295.8,359,291.1,352.6"/>
	<path id="path220" inkscape:connector-curvature="0" class="st1" d="M84.6,398.3c0.8,6.4,1.8,13.9,3.2,22.3
		C138.8,590.9,198,603.6,343.7,610c113.1,5,177.9-23.1,216.1-58.2c38.2-35.2,49.9-77.7,56.6-102c4.8-17.5,8-34.4,9.4-51.5l81.1,0
		c-3.3,55-20.6,108.3-57.1,155.4c-45.2,55.7-115.9,81.3-177,92.9c-61.2,11.6-113.1,9.4-121.1,9.1c-8-0.3-37.1,0.2-72.9-2.9
		c-35.9-3.1-78.6-9.7-113.7-24.1c-15.5-6.3-28.8-12.9-40.6-19.7c-31.8-19.2-61.2-47-75.6-67.5C30.7,515.8,9,470.8,2.8,398.3
		L84.6,398.3L84.6,398.3z M349.7,398.3c2.5,3.4,4.4,5.4,5.5,5.7c0.6-0.1,1.4-0.6,2.4-1.9c0.8-1,1.7-2.3,2.7-3.8l70.8,0
		c-12.2,9.2-22.8,19.6-32.8,32.2c-16.3,20.5-25.6,40.7-28.6,50.5c-3.1,10.2-9,18.8-9.9,20.1c-1.1,1.5-6.1,2.8-7.8-0.1
		c-1.7-1.5-3.5-4.7-5.1-8.9c-2.1-5.4-4.7-13.9-10-24.5c-5.3-10.6-13.2-23.4-25.9-37.5c-11-12.2-22.4-22.8-34-31.9L349.7,398.3"/>
	<path id="path222" inkscape:connector-curvature="0" class="st1" d="M2.8,398.3c-1.1-13.1-1.7-27-1.7-41.9v-0.5l0-0.5l0-0.5l0-0.5
		c0.6-68.7,32.1-131.1,55.1-157.9c3.2-3.7,14.8-17,24.8-26.4c28.8-27.1,106.7-78.5,280.3-73.8c98.7,0.2,158.9,13.2,199.6,30.9
		c20.4,8.8,35.8,18.8,48.8,28.9c12.9,10.1,23.4,20.3,33.7,29.6l0.3,0.2l0.1,0.4c0.1,0.2,49.2,59.3,60.3,142.8
		c3.1,23.1,4.1,46.3,2.8,69.1l-81.1,0c1.4-17.5,1-35.2-1.5-54.2c-1.7-9.9-3.5-17.7-4.8-22.9c0.3-0.2-1.7,1.6-1.7,1.6
		s-14.4,8.9-84.1,29.9c-46.4,14-77.7,27.1-102.4,45.6l-70.8,0c0.2-0.3,0.4-0.6,0.6-0.9c2.4-3.8,4.9-8.5,7.3-12.4
		c5.2-8.5,21-31,43.5-52.1c21.9-20.6,74.6-44.8,113.5-59.2c7.1-2.6,13.6-5.2,19.4-7.7c16-7.4,31.9-16.8,46.1-26.1
		c-0.9-3.6-2-6-2.6-7.1c0,0-0.7-1.8-2.3-4.8c-1.6-3-4.2-7.4-8-12.5c-7.6-10.3-20.1-24-39.8-37.2c-9.1-6.3-22.4-13.3-39.7-21
		c-34.5-14.2-81.6-24.7-145.3-24.7c-98.7,0-156.4,24.9-189.5,49.6c-16.5,12.4-26.9,24.7-33.1,34c-3.1,4.6-5.2,8.4-6.5,11.1
		c-1.3,2.6-3.2,6.4-3.2,6.4c-1.9,5.3,0.3,7.5,4.1,10c7.8,5,19.4,12,21.5,13.2c9.4,4.7,22.4,10.5,39,16.7
		c38.9,14.5,91.6,38.7,113.5,59.2c22.5,21.1,37.2,44,42.4,52.5c2.3,3.8,5.1,8.4,7.7,12.1c0.2,0.3,0.4,0.5,0.5,0.8l-72.6,0
		c-15.4-11.9-31.3-20.9-47.1-26.7c-28-10.2-56.8-16.5-69.4-20.3c-6-1.8-13.3-4.1-19.2-6.1c-4.1-1.3-7.6-2.5-9.7-3.1l-1.5-0.5
		c-13.6-4.8-27.6-10.8-40.8-18.4c-0.5-0.3-0.8-0.4-1-0.4c-0.2,0-0.3,0-0.4,0.1c-0.1,0.1-0.3,0.3-0.5,0.5c-0.2,0.3-0.4,0.7-0.7,1
		c-0.8,1.1-3.7,25.4-4.2,54.2c0.1,0,0.4,7.6,1.9,19.7L2.8,398.3"/>
	<path id="path230" inkscape:connector-curvature="0" class="st2" d="M85.7,417.9c51.4,174.3,111.2,187.3,258.1,193.8
		c226.8,10,260.7-112.6,274.1-161.3c14.8-53.8,6.5-124,6.5-124l23,78.6L602,552.5l-63.8,47.3l-67.9,20.7l-108.7,12.4l-138.8-12.4
		l-78.6-39.6l-39.6-56.7l-15.4-53.8C89.3,470.4,82.8,432,85.7,417.9L85.7,417.9z"/>
	<path id="path642" inkscape:connector-curvature="0" class="st3" d="M620.3,308c0,0,24.8,102.8-14.8,184.9
		c-39.6,82.1-77.3,132.3-253.4,132.9c-176.1,0.6-212.6-72.7-239.8-123.5c-27.2-50.8-30.7-123.5-30.7-123.5l-3.2,85.4l50.4,94.8
		l42,38.4l59.6,25.9l159.5,10l70.3-10l75-18.9l71.5-59.7L635,442.6l-2.9-113.4C627.7,311.9,623.8,304.8,620.3,308L620.3,308z"/>
	<path id="path1070" inkscape:connector-curvature="0" class="st4" d="M50.4,254.1l16.3,10.7c0,0-2.6,118.9-3.1,120.9
		c-0.5,2,0,66.3,0,66.3l20.9,81.6l-9.2,7.7L31,424l4.6-96.9l9.2-60.7L50.4,254.1z"/>
	
		<linearGradient id="path1222_1_" gradientUnits="userSpaceOnUse" x1="352.8937" y1="-190.6798" x2="347.8549" y2="14.6074" gradientTransform="matrix(1.25 0 0 1.25 -76 517.7784)">
		<stop  offset="0" style="stop-color:#999999"/>
		<stop  offset="1" style="stop-color:#D7D7D7"/>
	</linearGradient>
	<path id="path1222" inkscape:connector-curvature="0" class="st5" d="M625.1,311.1c0,0,25.2,105.5-12.9,187
		c-38.1,81.5-65.6,122.7-252,130c-151.2,3.8-190.5-35.6-218.4-64.2c-22.1-22.7-37.5-60.6-37.5-60.6s-68.2-126.2-61-86.4
		c9.5,52.2,24.6,127,83.4,173.9c36,28.8,108.6,46.5,108.6,46.5l113.7,9l101.7-6l160.9-62l68.8-150.5c-3.2-69.9-9.9-127.8-20.2-173.5
		l-22.4,19.4L625.1,311.1L625.1,311.1z"/>
	
		<radialGradient id="path1650_1_" cx="328.8392" cy="-29.5823" r="35.0586" gradientTransform="matrix(3.6141 -2.7012 1.6681 2.2319 -1111.7372 1305.5129)" gradientUnits="userSpaceOnUse">
		<stop  offset="0" style="stop-color:#FFFFFF"/>
		<stop  offset="1" style="stop-color:#919191"/>
	</radialGradient>
	<path id="path1650" inkscape:connector-curvature="0" class="st6" d="M57.2,209c0,0-3,31.7,4.1,50.4c-9.6,15.4-22.2,61.3-23.8,98.3
		C35.8,394.6,42.7,491,90.4,546c-7.9,15-12.7,24.3-12.7,24.3s-75-50.9-75-213.8C2.7,278,45,207.4,67.5,188.8
		C60.6,198.4,57.2,209,57.2,209z"/>
	<path id="path1960" inkscape:connector-curvature="0" class="st7" d="M8.1,387.8c0,0,2.2,78.9,31.7,129
		c29.5,50.1,56.1,82.1,126,110.7c69.9,28.6,170.2,26.5,186.1,27s207.2,9.1,297-101.5c51.4-66.3,64.8-144.9,54.1-223.5
		c-10.7-78.6-50.6-124.5-50.6-124.5s5.5,14.2-1,53.6c9.7,16.9,25.5,73,22.4,117.9c-3,44.9-11.3,105.8-45.4,153.5
		c-21.9,30.6-39.3,52.1-87.3,74.5c-47.9,22.4-121.3,33.7-187.6,32.7c-66.3-1-130.1-6.2-183.7-30.6c-53.6-24.5-82.1-61.7-102.5-91.3
		c-20.4-29.6-4.7-14.6-29.6-39.2C12.6,451.5,8.1,387.8,8.1,387.8"/>
	<path id="path1962" inkscape:connector-curvature="0" class="st8" d="M58.7,196.4c0,0,69.2-104.8,302.8-98.4
		c197.3,0.5,239.8,51.9,281.2,89c0.9,2.7-16.4,16.7-16.4,16.7l-28.4,10.7l-81.3-63.9L372,119c0,0-136,16.1-141.6,15.4
		c-5.6-0.7-94.7,49.1-94.7,49.1L119,234.6l-52.8-39.9L58.7,196.4"/>
	<path id="path1970" inkscape:connector-curvature="0" class="st9" d="M71.1,188.4c0,0,63.3-94.7,290.2-88.6
		c191.6,0.4,238.2,55.3,278.4,91.4c-12.8,11-26.3,9.4-26.3,9.4l-22.5,12.3l-79-62l-140.3-30.6c0,0-132.1,15.6-137.6,15
		c-5.5-0.7-92,47.7-92,47.7l-45.9,28.5l-27.7-16.7L71.1,188.4z"/>
	<path id="path2086" inkscape:connector-curvature="0" class="st4" d="M71.1,199c0,0,76.5-85.6,280.6-85.6
		c204.1,0,278.7,69.1,286.5,79.5c-8.9,11.4-24.9,23.6-24.9,23.6C561.1,183.6,512,157.7,466,138.6l-123.5-18.2
		c0,0-145.9,33.7-148.7,33.7c-2.8,0-78.6,53.3-78.6,53.3s-6.2,10.4-12,9.1C87.7,203.8,71.1,199,71.1,199z"/>
	<path id="path2622" inkscape:connector-curvature="0" class="st10" d="M589.5,232.3c0,0-38.3-101-236.2-101
		c-197.9,0-232.2,99.8-232.2,99.8l-9.5-16.6l33.7-46.1l89.2-40.8l62-9.5l59.2-2.9l75.8,4.1l59.7,12.7l82.4,41.7l44.6,35.4l3.2,3.6
		L589.5,232.3"/>
	<path id="path2630" inkscape:connector-curvature="0" class="st11" d="M583.9,248c0,0-19.1,12.7-58,27.2
		c-38.9,14.5-91.3,38.6-113,58.9c-22.4,21-38.1,43.4-43.3,51.8c-5.2,8.4-11.2,20.8-14.5,19.6c-0.4,7.2-2,50-2,50l2.4,1.6l20.4-35.3
		l67.7-73.7l30.8-32.9l105.1-50.2L583.9,248L583.9,248z"/>
	<path id="path2848" inkscape:connector-curvature="0" class="st7" d="M522,277.8c-12.6,5.5-72,24.2-101.4,60.1
		c-10,12.2-27.6,44.5-32.4,52.3c-4.8,7.8-28,57.5-33.7,64.3c-5.7,6.9,30.2-29,30.2-29s97.2-86.4,99.3-87.6
		c2.1-1.3,36.7-32.4,36.7-32.4S531.9,273.4,522,277.8"/>
	<path id="path2856" inkscape:connector-curvature="0" class="st12" d="M646,200.2c0,0-50.9,44.9-102.7,68.2
		c-51.8,23.3-116.5,45.6-155.2,130.7c-29.4,51.9,46-46.6,46-46.6l39.7-28.4l92-41l47-30.2L646,200.2z"/>
	<path id="path3144" inkscape:connector-curvature="0" class="st9" d="M646.8,199.4c0,0-36.2,36.5-87.2,65.2
		c-16.9,9.5-61.8,29.2-82.4,40.1c-45.5,24.1-69.1,66.5-76.4,75.1c-7.4,8.7-45.3,76.9-45.3,76.9l16.4-3.5l63.1-83.3l51.3-31.1
		l117-36.7l38.4-32c0,0,9.3,4.7,12.1-38.8C655.4,204.5,646.8,199.4,646.8,199.4L646.8,199.4z"/>
	<path id="path3344" inkscape:connector-curvature="0" class="st12" d="M560.7,342.4l-77.5,24.9l-43.5,17.9l-55.1,41
		c0,0-13,23.1-14,28.1c-1.1,4.9-9.1,31.6-9.1,31.6l-1.1,8.8l-2.8,3.5l-2.5-15.8l1.4-21.5l10.8-19.9l12.4-21.4l23.1-24.9l31.9-18.9
		l54-16.8l44.9-11.6L560.7,342.4L560.7,342.4z"/>
	<path id="path3494" inkscape:connector-curvature="0" class="st13" d="M617.1,321.8c0,0-14.3,8.8-83.7,29.7
		c-69.5,20.9-105.6,40.1-135.9,78.3c-16.4,20.6-25.8,41-28.8,51c-3,10-8.8,18.5-9.7,19.7c-0.9,1.3-5.6,1.8-5.6-0.9
		c0-0.9,4,2.6,5.4-7.5c0-11.6,1-32.3,7.9-44.4c9.4-16.7,23.7-36.7,46.7-50.4c23.1-13.6,52.8-25.5,72.2-32.5
		c19.4-7,67.9-20.3,88.9-27.9c20.9-7.6,47.3-19.1,47.3-19.1L617.1,321.8L617.1,321.8z"/>
	<path id="path3726" inkscape:connector-curvature="0" class="st11" d="M357.2,459.2c0,0,1.1,32,0,35.4c-1.1,3.4-6.7-1.7-6.7-1.7
		l-22.7-53l-32-33.1l-48.6-30.3l-21.3-8.4l-34.2-10.7l-14-4.2l-2.8-8.1l71.6,17.4l53.6,28l27.5,25.8l20.5,28L357.2,459.2
		L357.2,459.2z"/>
	<path id="path3796" inkscape:connector-curvature="0" class="st2" d="M127.2,248c0,0,19.1,12.7,58,27.2
		c38.9,14.5,91.3,38.6,113,58.9c22.4,21,37,43.8,42.2,52.2c5.2,8.4,12.3,20.4,15.6,19.2c0.4,7.2,2,50,2,50l-2.4,1.6l-20.4-35.3
		l-67.7-73.7l-30.8-32.9l-105.1-50.2L127.2,248z"/>
	<path id="path3912" inkscape:connector-curvature="0" class="st9" d="M348.6,445.2l-27.8-34.7l-50.4-43.3l-160.2-62.5l-48.8-44.1
		c0,0-11.4-37.4-4.3-51.3c-0.3-4.4,7.9-27,10.9-20c8.3,8.4,18.2,20.9,52.2,43.1c-2.9,6.9-0.2,9.9,4.2,12.8
		c8.6,5.6,21.9,13.5,21.9,13.5l28.6,15.8l55.7,28.1l29.5,18.6l28.8,30.4l21.6,26.6l23.3,30.4l23.9,47.7L348.6,445.2L348.6,445.2z"/>
	<path id="path4180" inkscape:connector-curvature="0" class="st14" d="M115.1,524.6c-12.4-8.7-27.9-15.9-43-25.6
		c-12.2-7.8-21.8-40.1-26.5-67c-17-95.7,16.6-166,16.6-166s0.6-1.7-0.1-2.2c-2.4-2.2-0.7-6.2,3.1-3.7c42.8,28.4,53.8,28.7,87.3,44.3
		c48,22.4,98.3,22.2,151.7,76c25.4,25.6,50.7,76.1,53.6,75.4c-0.2,5-1,28.7-1,28.7s1.4-22.8-5.9-34.3
		c-29.5-46.4-72.7-65.7-72.7-65.7S241,365.2,182.6,354c-25.2-4.8-61-13.8-92.2-31.8c-2.6-1.5-3.5,0.3-4.4,1.7
		c-1.7,2.6-8.4,66.8-1.5,108.2C91,470.4,99.9,491.2,115.1,524.6L115.1,524.6z"/>
	<path id="path4362" inkscape:connector-curvature="0" class="st15" d="M68.4,189.5c0,0,18.8,22.2,50.8,42.9
		c-13.4-5-19.4-5.7-31.5-15C79.6,211.3,68.4,189.5,68.4,189.5"/>
	<path id="path4364" inkscape:connector-curvature="0" class="st7" d="M642.2,188.6c0,0-14.9,16-24.8,23.5
		c-10,7.5-26.7,19.7-26.7,19.7l30.4-15.1L642.2,188.6"/>
	<path id="path4372" inkscape:connector-curvature="0" class="st14" d="M92.7,209.5c0,0,26.8-37.2,71.7-59
		c44.9-21.8,74.8-26.4,102.6-30.5c26.6-3.9,80.6-4.9,84.8-5h0.3c4.4,0.1,61.4,1.1,88,5c27.7,4.1,57.9,7.8,102.8,29.6
		s76.5,60.9,76.5,60.9s-11.3,2.6-18.1,8.3s-9.5,3.1-9.5,3.1s-0.6-15.6-21.5-38.3c-20.9-22.8-53.2-36.2-95-51.1
		c-40.4-14.5-118.1-14.9-123.3-15h-0.3c-5,0-79.7,0.5-120,15c-41.8,14.9-66.1,32.1-87,54.9c-20.9,22.8-25.2,45.8-25.2,45.8
		s-6.8-8.7-13.7-14.3C99,213.2,92.7,209.5,92.7,209.5L92.7,209.5z"/>
	<path id="path4848" inkscape:connector-curvature="0" class="st15" d="M304.8,371.1c-4.4-6-8.9-12.2-13.6-18.5
		c-20.8-28.2-45.7-44.1-71.2-56.8c-4.1-2.1-8.3-4-12.5-6c12,4.9,23.7,10.4,42.4,21c20.5,11.7,38.9,36.6,50.5,53.8
		C301.8,366.8,303.3,369,304.8,371.1L304.8,371.1z M62.6,200.7c3.7,4,32.6,28.4,80.2,59.5c48.6,31.7,105.2,38.6,146.2,94.1
		c31.9,43.2,35.2,38.6,63.9,91.9c-5.3-15.2-11-25.8-18.2-37.1c-7.2-11.3-20.3-28.8-31.9-46c-11.6-17.2-30.3-42.7-51.5-54.7
		c-21.1-12-33.4-17.5-47.2-23c-13.8-5.5-36.3-14.3-58-26.7C124.3,246.3,86.9,220.7,62.6,200.7"/>
	<path id="path4856" inkscape:connector-curvature="0" class="st14" d="M359.1,456.4c21.5-46.6,42.3-73.3,85.4-104.5
		c25-18.1,43-21.4,71.4-32.7c18.9-7.5,30.2-9.9,49-17.5c34.3-14,49.6-20.9,85-42.7c2.5,8.3-15.8,41-28.9,60.2
		c-36.7,16.2-66.3,25.1-110.2,35.4c-26.4,6.2-45.8,12.5-72.6,23.4C393.4,396.2,380.4,418.5,359.1,456.4z"/>
	<path id="path5044" inkscape:connector-curvature="0" class="st2" d="M347.2,454.3c7,13.8,10.2,26,10.2,38.2
		c0,12.3-4.6,10.2-8.8-0.7c-4.2-10.9-10.5-34-36.1-62.4c-25.6-28.4-53.7-48.8-81.7-58.9c-28.1-10.2-56.8-16.5-69.4-20.3
		c-12.6-3.9-30.7-9.8-30.7-9.8l31.7,8c0,0,71.9,16.1,112.9,40.3C316.3,412.9,336.1,432.5,347.2,454.3L347.2,454.3z"/>
	<path id="path5206" inkscape:connector-curvature="0" class="st8" d="M57.1,209.1c-1.6,1.9-41.7,51.4-54.4,147.5
		c0-74.4,38-143.3,61.1-166.3C60.6,195.1,57.1,205.9,57.1,209.1"/>
	<path id="path5208" inkscape:connector-curvature="0" class="st7" d="M119.4,233c0,0-10.1-13.3-22.8-23.3
		c-12.7-9.9-22.3-14-22.3-14s7,8.6,21.3,19.9C109.8,226.8,119.4,233,119.4,233"/>
	<path id="path5210" inkscape:connector-curvature="0" class="st8" d="M74.3,195.8c0,0,8.1,2.5,19.9,12.1c0,0,25.4-34.5,63-53.6
		C194.8,135,232,123.1,283,118.1c0,0-62.9,2.1-126.8,34.6c-36.2,18.4-62.2,52.4-62.2,52.4C87.6,200.4,81,197.3,74.3,195.8"/>
	<path id="path5218" inkscape:connector-curvature="0" class="st9" d="M650.4,257.3c0,0,6.9,9,15.5,43.7c6.5,26.4,7.9,52.3,7.9,52.3
		s-5.5-53.9-23.9-94.2L650.4,257.3L650.4,257.3z"/>
	<path id="path5384" inkscape:connector-curvature="0" class="st16" d="M352.1,113.4c4.6-0.1,61.6,0.8,88.3,4.7
		c13.9,2,28.5,4,45.1,8.2c16.7,4.2,35.6,10.6,58.2,21.6c22.7,11,42,26.4,55.5,38.9c6.8,6.3,12.4,12.2,16.4,16.6
		c2,2.2,3.8,4.3,5.1,5.8l-1.3,1.3c0,0-31.6-39.1-76.5-60.9s-75.1-25.6-102.8-29.6C413.5,116.1,352.1,113.4,352.1,113.4z"/>
	<path id="path5500" inkscape:connector-curvature="0" class="st9" d="M186.2,587.9c88.7,42.1,266.7,39.6,342.9,0
		C449,636.2,273.9,638.7,186.2,587.9L186.2,587.9z"/>
	<path id="path5538" inkscape:connector-curvature="0" class="st2" d="M615.9,493.5h30.7c0,0-33.6,87.6-127.8,118.1
		c-39.4,12.8-98.4,13.5-98.4,13.5C528.2,618.7,583.5,584.3,615.9,493.5z"/>
	<path id="path5648" inkscape:connector-curvature="0" class="st17" d="M373.6,427.8c0,0,28.1-59.1,94.8-92.5
		c17.6-8.8,46.9-15.9,46.9-15.9l-17.1,6.4c-19.1,6.9-34.3,12-53.7,26c-33.3,24.1-53.2,45.5-70.5,75.4L373.6,427.8"/>
	<path id="path5656" inkscape:connector-curvature="0" class="st11" d="M363.7,453.9c0,0,13-57.6,105.7-85.2
		C410.3,391.1,383.9,410.6,363.7,453.9z"/>
	<path id="path5700" inkscape:connector-curvature="0" class="st9" d="M354.1,496.4c-0.7-1.1-1.6-2.9-2.7-5.6
		c-2.1-5.5-4.8-14.1-10.2-24.9c-5.4-10.9-13.5-24-26.5-38.5c-10.8-12-22.1-22.6-33.6-31.6c35.8,22,53.4,40.2,63.3,59.9
		c6.8,13.4,9.8,25.2,9.8,36.9C354.3,494.2,354.2,495.4,354.1,496.4L354.1,496.4z"/>
	<path id="path5874" inkscape:connector-curvature="0" class="st18" d="M589.6,232.8l2.2,6.4c0,0,10.7-5.9,30-20.7
		c19.3-14.8,25.2-19.3,25.2-19.3s5.5,4.2,25,36c0,0-6.1-18.7-28.1-46.4l-22.4,27.6L589.6,232.8z"/>
	<path id="path5920" inkscape:connector-curvature="0" class="st3" d="M286.8,351.4c-31-33.4-52.9-40.9-92.6-55.2
		c-38.1-13.6-53.9-35.1-56.8-39.6c1.8,1.2,3.6,2.4,5.4,3.6C190.5,291.4,246,298.6,286.8,351.4z"/>
	<path id="path5946" inkscape:connector-curvature="0" class="st19" d="M467.3,815.9h36c0,0,15.7-0.1,15.7-24.8
		c0-25.2-15.7-25.2-15.7-25.2h-36L467.3,815.9L467.3,815.9z M243,799.1c-3.8,0-6.9,3.5-6.9,7.9c0,4.4,3.1,7.9,6.9,7.9l41.9,0v-15.8
		L243,799.1L243,799.1z M584.3,799.1c-3.8,0-6.9,3.5-6.9,7.9c0,4.4,3.1,7.9,6.9,7.9l41.9,0v-15.8L584.3,799.1z M569.7,778.6l57.2,0
		c0-5.6-0.4-14.4-13.4-14.4c-13.5,0-58.7,0-58.7,0v-25.1c0,0,43.6,0,71.5,0c17.4,0,31.2,7.1,31.2,27.9l0,75.3h-87.6l1,0.1
		c-11.6,0-21.3-10.2-24.1-24c-7.8,23.9-26.6,23.9-41.2,23.9l-70.5,0v-80.8l-99.2,80.9H228.5l1,0.1c-9.6,0-18-7-22.1-17.3l0,17.3
		h-30.6v-66.4c0,0-0.1-8.8-9.5-8.9h-22.6v75.3h-30.3V767H82.5v75.3H51.1l0-103.2l127.9,0c14.1,0,28.4,9.3,28.4,27.9l0,28.9
		c4.1-10.3,12.5-17.3,22.1-17.3l-1.2,0l57.2,0c0-5.6-0.4-14.4-13.4-14.4c-13.5,0-58.7,0-58.7,0v-25.1c0,0,43.6,0,71.5,0
		c17.4,0,31.2,7.1,31.2,27.9l0,51.8l100.2-79.7h18.8l70.7,0c18.6,0,44.6,0,44.6,51.5l0,1.9c4.5-8.3,12-13.8,20.5-13.8L569.7,778.6z
		 M327.1,739.1h71.5L366.9,767H327L327.1,739.1L327.1,739.1z M425.8,842.2h-71.5l31.7-27.9h39.9L425.8,842.2"/>
	<path id="path22" inkscape:connector-curvature="0" class="st4" d="M188.9,355.2c0,0,6.4,1.4,8.5,1.9c23.5,5.4,42.8,11.8,56.6,17.1
		c11.8,5.4,25.1,12.4,39.5,21.6C352.6,433.5,353,465,353,465s-0.8-21.7-36.9-51.8c-36.4-30.4-98.1-49.6-116.4-54.9
		C196.3,357.4,188.9,355.2,188.9,355.2L188.9,355.2z"/>
</g>
</svg>
