<?xml version="1.0" encoding="utf-8"?>
<!-- Generator: Adobe Illustrator 21.1.0, SVG Export Plug-In . SVG Version: 6.00 Build 0)  -->
<svg version="1.1" id="Layer_1" xmlns="http://www.w3.org/2000/svg" xmlns:xlink="http://www.w3.org/1999/xlink" x="0px" y="0px"
	 viewBox="0 0 1305 408" style="enable-background:new 0 0 1305 408;" xml:space="preserve">
<style type="text/css">
	.st0{fill:#EE2629;}
	.st1{fill:#010101;}
</style>
<g id="_x23_ee2629ff">
	<path class="st0" d="M1203.4,107.3c10.7-1.8,21.5-2.2,32.3-2.3s22,1.1,31.6,6.4c8.8,3.6,13.7,14.4,10.5,23.4
		c-4.2,13.9-14.2,25-24.4,35c-25.7,26.4-57.5,45.5-88.1,65.6c5.1-7.5,9.3-15.6,12.5-24.1c2.5-6.7,4.8-13.5,5.1-20.7
		c0.4-7.4-1.2-15.2-5.9-21.1c-4.8-5.4-11.6-8.6-18.4-10.5c-9.9-2.8-20.3-3.1-30.5-3c-23.3,0.2-46.3,4-69,8.6c-8,1.4-15.8,3.9-24,4.2
		c6.9-2.3,13-6.3,19.5-9.5c30.6-15.5,62.3-29,95.1-39.2C1167.2,114.5,1185.2,110.4,1203.4,107.3z"/>
</g>
<g id="_x23_010101ff">
	<path class="st1" d="M141.3,179.1c1.1-1.2,2.9-1,4.4-1.1c13.1,0.1,26.2,0.1,39.4,0c0.2,18.6,0.6,37.2,0.9,55.7
		c23.6-18,45.7-37.9,69.2-55.9c14.4,0.6,28.7,0,43.1,0.3c-0.1,35.2-0.1,70.4,0,105.7c-18.6,0.1-37.3-0.1-55.9,0.2H242
		c-0.2-16.5-0.1-33-0.1-49.5c-19.3,16-37.3,33.4-56.5,49.5h-2.7c-17.6-0.4-35.1,0.1-52.7-0.2c0.3-16.6-0.1-33.1,0.2-49.7
		c-19.1,16.3-37.4,33.5-56.5,49.9h-63c1.8-1.9,3.9-3.4,6-4.9c10.8-8,20.8-17,31.4-25.2C79.3,229.1,110.4,204.2,141.3,179.1z"/>
	<path class="st1" d="M467.2,178c18.5,0.2,37.1,0.1,55.6,0.1c0.3,27.1,0.1,54.3,0.1,81.4c12.5,0,25,0,37.6,0
		c-0.2,8.1-0.2,16.3,0,24.4c-31.1,0-62.3,0.2-93.4-0.1C467.2,248.5,466.8,213.2,467.2,178z"/>
	<path class="st1" d="M317.3,213.3c4.9-9.4,15-16.5,25.9-16.4c37,0,74.1,0,111.1,0c-0.2,8.2,0,16.4,0,24.7
		c-24.4,0.3-48.9-0.2-73.3,0.2c-6.3,0.3-11.3,5.5-13.1,11.3c-2.5,7.7-1.1,17.2,5.2,22.8c2.2,1.8,4.9,3.3,7.9,3.3
		c24.5,0.6,48.9,0,73.4,0.3c-0.2,8.1-0.2,16.1,0,24.2c-37.6,0.4-75.3,0.1-113,0.2c-8.2-0.2-15.9-4.9-20.9-11.3
		C308.6,255.5,307.9,231.7,317.3,213.3z"/>
	<path class="st1" d="M579.4,196.8c36.5,0.2,73,0,109.5,0.1c7.6,0,15.1,3,20.4,8.3c9,8.7,13.1,21.5,13.2,33.8
		c0.1,11.6-2.4,23.7-9.7,32.9c-4.9,6.5-12.4,10.8-20.4,12H587.6c-7.8-1.3-12.2-9.1-13.6-16.2c-1.8-8.7-1.1-18.3,3.4-26.1
		c2.5-4.5,7.5-7.4,12.7-7.3c25.5,0.2,51-0.1,76.5,0.1c0-4.3,0-8.6,0-12.9c-29.1,0.2-58.1,0-87.2,0.1
		C579.1,213.4,579.2,205.1,579.4,196.8 M622.6,246.9c0,4.2,0,8.4,0,12.5c14.7,0,29.3-0.2,44,0.2c0.1-4.3,0.2-8.6,0.2-12.8
		C652,246.8,637.3,246.6,622.6,246.9z"/>
	<path class="st1" d="M735.6,210.4c-0.5-7.1,6.3-14.2,13.4-13.4c24.6-0.4,49.2,0,73.7-0.1c-0.2,8.2-0.1,16.4-0.1,24.7
		c-10.5,0.1-20.9,0-31.4,0.1c0.1,20.7,0,41.4,0.1,62.2c-18.6,0.1-37.2,0-55.8,0C735.6,259.4,735.6,234.9,735.6,210.4z"/>
	<path class="st1" d="M846.5,201.9c5.3-3.8,12-5,18.4-5.1c33.2,0.1,66.5,0.1,99.7,0c6.6,1.5,10.9,7.9,12.7,14.1
		c2.4,8.6,2.2,18.3-1.8,26.4c-2.6,5.1-7.6,9.6-13.6,9.4c-25.6,0-51.1,0-76.7,0c0,4.2,0,8.4,0,12.6c29.2,0.2,58.3-0.1,87.5,0.1
		c-0.1,8.2,0,16.3-0.2,24.5H859.8c-8.8-1-16.9-6.1-21.8-13.5c-8.1-12.2-10.4-27.6-7.5-41.8C832.5,218.3,837.6,208.1,846.5,201.9
		 M885.2,221.8c0,4.1,0.1,8.3,0,12.4c14.5,0.4,29.1,0,43.7,0.2c0-4.2,0-8.5,0.1-12.8C914.3,221.8,899.8,221.6,885.2,221.8z"/>
	<path class="st1" d="M991.4,196.8c37.4,0.1,74.9,0.1,112.3,0c5.6-0.2,11.4,0.8,16.4,3.3c7.7,3.7,14.4,11.2,14.7,20.1
		c0.5,21.2-0.1,42.4,0.3,63.6c-16.7-0.1-33.4,0.2-50.1-0.1c0.2-14.6,0.1-29.2,0.1-43.7c0.1-5.6-3.4-10.9-8.4-13.4
		c-9-4.4-19.2-4.7-29-5.2c0,20.7-0.3,41.4,0.1,62.1c-3.5,0.1-6.9,0.1-10.3,0.4h-32.1c-4.7-0.3-9.4-0.2-14.2-0.3
		C991.5,254.8,991.4,225.8,991.4,196.8z"/>
</g>
</svg>
