<?xml version="1.0" encoding="utf-8"?>
<!-- Generator: Adobe Illustrator 21.1.0, SVG Export Plug-In . SVG Version: 6.00 Build 0)  -->
<svg version="1.1" id="svg1881" xmlns:svg="http://www.w3.org/2000/svg"
	 xmlns="http://www.w3.org/2000/svg" xmlns:xlink="http://www.w3.org/1999/xlink" x="0px" y="0px" viewBox="0 0 566.9 708.7"
	 style="enable-background:new 0 0 566.9 708.7;" xml:space="preserve">
<style type="text/css">
	.st0{fill:#FF0000;}
</style>
<g id="layer1">
	<path id="_46749392" d="M268.1,631.6v62.5h-13.2v-62.5h-15.8v-11.2h44.8v11.2H268.1z M309.7,631.6c-9.9,0-15.8,11.2-15.8,26.3
		c0,15.1,5.9,25.7,15.8,25.7c9.9,0,15.8-10.5,15.8-25.7C325.5,642.8,319.6,631.6,309.7,631.6z M309.7,696.1
		c-20.4,0-29.6-17.8-29.6-38.2c0-20.4,9.2-38.2,29.6-38.2c20.4,0,29.6,17.8,29.6,38.2C339.4,678.4,330.2,696.1,309.7,696.1z
		 M422.2,694.8c-17.1,0-23-10.5-23.7-25H411c0,6.6,3.3,13.8,11.2,13.8c6.6,0,10.5-3.3,10.5-8.6c0-4.6-3.3-7.2-17.1-15.1
		c-9.9-5.3-16.5-11.2-16.5-21.7c0-11.2,7.2-19.1,22.4-19.1c16.5,0,22.4,10.5,23,23h-13.2c0-6.6-3.3-11.8-9.9-11.8
		c-5.3,0-9.2,2.6-9.2,7.2c0,4.6,3.9,7.2,14.5,13.2c11.9,6.6,19.1,11.2,19.1,23.7C445.9,687.6,434.7,694.8,422.2,694.8z M383.9,694.2
		l-21.7-39.5h3.9c4.6,0,12.5-1.3,12.5-11.9c0-9.2-7.9-11.2-13.2-11.2h-7.9v62.5h-13.2v-73.7h24.4c14.5,0,24.4,7.2,24.4,21.1
		c0,13.2-7.9,18.4-12.5,20.4l19.1,32.3H383.9z M213.9,631.6c-9.9,0-15.8,11.2-15.8,26.3c0,15.1,5.9,25.7,15.8,25.7
		c9.9,0,15.8-10.5,15.8-25.7C229.7,642.8,223.7,631.6,213.9,631.6z M213.9,696.1c-20.4,0-29.6-17.8-29.6-38.2
		c0-20.4,9.2-38.2,29.6-38.2c20.4,0,29.6,17.8,29.6,38.2C243.5,678.4,234.3,696.1,213.9,696.1z M166.5,694.2v-48.1L150,681
		l-15.8-34.9v48.1h-13.2v-73.7h14.5L150,654l15.1-33.6h14.5v73.7H166.5z M402.9,591.6c-17.1,0-23-10.5-23.7-25h12.5
		c0,6.6,3.3,13.8,11.2,13.8c6.6,0,10.5-3.3,10.5-8.6c0-4.6-3.3-7.2-17.1-15.1c-9.9-5.3-16.5-11.2-16.5-21.7
		c0-11.2,7.2-19.1,22.4-19.1c16.5,0,22.4,10.5,23,23h-12.5c-0.7-6.6-3.9-11.9-10.5-11.9c-5.3,0-9.2,2.6-9.2,7.2
		c0,4.6,3.9,7.2,14.5,13.2c11.8,6.6,19.1,11.2,19.1,23.7C426.6,584.4,415.4,591.6,402.9,591.6z M499.6,590.9v-73.7h13.2v73.7H499.6z
		 M357.4,590.9v-73.7h13.2v73.7H357.4z M474,590.9v-32.3h-27v32.3h-13.8v-73.7H447v29h26.3v-29h13.8v73.7H474z M323.9,558.7h-5.3
		v-11.8h5.3c6.6,0,10.5-2.6,10.5-9.2c0-6.6-4.6-9.2-10.5-9.2H314v51.3h10.5c7.2,0,11.8-3.3,11.8-11.2
		C336.4,561.3,331.8,558.7,323.9,558.7z M327.8,590.9h-27v-73.7h24.4c13.8,0,22.4,6.6,22.4,18.4c0,9.9-7.2,15.8-10.5,16.5
		c4.6,1.3,13.2,6.6,13.2,18.4C350.2,582.4,341,590.9,327.8,590.9z M267.9,592.3c-11.8,0-25.7-4.6-25.7-24.4v-50.7h13.2v50.7
		c0,7.9,4,12.5,12.5,12.5c7.2,0,11.2-4.6,11.2-12.5v-50.7h13.2v50.7C292.3,587,279.1,592.3,267.9,592.3z M213,592.9
		c-17.1,0-23-11.2-23.7-25h12.5c0,6.6,3.3,13.2,11.2,13.2c6.6,0,10.5-3.3,10.5-8.6c0-4.6-3.3-6.6-17.1-14.5
		c-9.9-5.9-16.5-11.8-16.5-22.4c0-11.2,7.2-19.1,22.4-19.1c16.5,0,22.4,10.5,23,23h-13.2c0-5.9-3.3-11.8-9.9-11.8
		c-5.9,0-9.2,2.6-9.2,7.2c0,5.3,3.9,7.9,14.5,13.2c11.9,6.6,19.1,11.9,19.1,23.7C236.7,585.7,225.5,592.9,213,592.9z M172.9,528.4
		v62.5h-13.2v-62.5h-15.8v-11.2h44.8v11.2H172.9z M124.8,590.9v-73.7H138v73.7H124.8z M99.8,590.9v-48.1l-16.5,34.9l-15.8-34.9v48.1
		H54.4v-73.7h14.5l14.5,33.6l15.1-33.6H113v73.7H99.8z"/>
	<path id="_48318832" class="st0" d="M283.1,319.5l-88.5-153.2l88.5-153.8l89.1,153.8L283.1,319.5z M372.3,472.7l-89.1-153.2h177.6
		l88.5,153.2H372.3z M194.7,472.7H17.7l88.5-153.2h176.9L194.7,472.7z"/>
</g>
</svg>
