<?xml version="1.0" encoding="utf-8"?>
<!-- Generator: Adobe Illustrator 17.1.0, SVG Export Plug-In . SVG Version: 6.00 Build 0)  -->
<!DOCTYPE svg PUBLIC "-//W3C//DTD SVG 1.1//EN" "http://www.w3.org/Graphics/SVG/1.1/DTD/svg11.dtd">
<svg version="1.1" id="Nissan_Logo" xmlns="http://www.w3.org/2000/svg" xmlns:xlink="http://www.w3.org/1999/xlink" x="0px"
	 y="0px" viewBox="5 4.87 200 171.26" enable-background="new 5 4.87 200 171.26" xml:space="preserve">
<title>Nissan Logo</title>
<desc>Für mehr Informationen siehe: http://de.wikipedia.org/wiki/Datei:Nissan_Logo.svg</desc>
<linearGradient id="SVGID_1_" gradientUnits="userSpaceOnUse" x1="302.5997" y1="196.3877" x2="302.5995" y2="335.7885" gradientTransform="matrix(1 0 0 1 -197.5996 -188.9902)">
	<stop  offset="0.1944" style="stop-color:#FFFFFF"/>
	<stop  offset="0.2085" style="stop-color:#F8F8F8"/>
	<stop  offset="0.3657" style="stop-color:#AEAEAE"/>
	<stop  offset="0.5133" style="stop-color:#707070"/>
	<stop  offset="0.6468" style="stop-color:#404040"/>
	<stop  offset="0.7637" style="stop-color:#1D1D1D"/>
	<stop  offset="0.8595" style="stop-color:#080808"/>
	<stop  offset="0.9222" style="stop-color:#000000"/>
</linearGradient>
<path fill="url(#SVGID_1_)" d="M198.12,69.76c-1.85-0.52-3.91-0.76-8.24-1.29c-17.94-0.74-62.28-2.46-84.88-2.46
	s-66.93,1.72-84.88,2.46c-4.34,0.54-6.4,0.78-8.24,1.29C6.24,71.1,5,73.12,5,77.16v27.69c0,4.04,4.33,6.76,7.31,7.31
	c2.99,0.55,4.88,0.78,8.02,1.07c16.05,0.99,53.28,3.07,84.67,3.1c31.39-0.03,68.62-2.1,84.67-3.1c3.14-0.3,5.03-0.52,8.02-1.07
	c2.98-0.55,7.31-3.27,7.31-7.31V77.16C205,73.12,203.76,71.1,198.12,69.76z"/>
<radialGradient id="SVGID_2_" cx="246.4561" cy="159.4331" r="139.4622" gradientTransform="matrix(1 0 0 1 -197.5996 -188.9902)" gradientUnits="userSpaceOnUse">
	<stop  offset="0.2022" style="stop-color:#FFFFFF"/>
	<stop  offset="0.3822" style="stop-color:#FDFDFD"/>
	<stop  offset="0.4874" style="stop-color:#F4F4F4"/>
	<stop  offset="0.5732" style="stop-color:#E6E6E6"/>
	<stop  offset="0.6483" style="stop-color:#D2D2D2"/>
	<stop  offset="0.6889" style="stop-color:#C4C4C4"/>
	<stop  offset="1" style="stop-color:#333333"/>
</radialGradient>
<path fill="url(#SVGID_2_)" d="M33.05,70.85c8.83-30.71,37.83-53.24,72.27-53.24c34.33,0,63.28,22.41,72.2,53
	c0.03,0.11,0.05,0.16,0.08,0.27c5.12-0.57,9.7-1.46,12.94-2.33c-0.06-0.2-0.07-0.24-0.12-0.43c-10.13-36.43-44.39-63.25-85.09-63.25
	c-40.84,0-75.19,26.99-85.19,63.6C24.63,69.7,27.92,70.22,33.05,70.85z"/>
<radialGradient id="SVGID_3_" cx="583.9678" cy="382.8145" r="290.4512" gradientTransform="matrix(1 0 0 1 -197.5996 -188.9902)" gradientUnits="userSpaceOnUse">
	<stop  offset="0.2022" style="stop-color:#FFFFFF"/>
	<stop  offset="0.368" style="stop-color:#E4E4E4"/>
	<stop  offset="0.5944" style="stop-color:#C4C4C4"/>
	<stop  offset="1" style="stop-color:#333333"/>
</radialGradient>
<path fill="url(#SVGID_3_)" d="M177.3,111.1c-0.09,0.27-0.19,0.57-0.23,0.72c-9.39,29.85-37.96,51.56-71.75,51.56
	c-34.06,0-62.81-22.05-71.97-52.26c-5.6,0.99-7.49,1.37-13.02,2.1c10.25,36.26,44.41,62.89,84.99,62.89
	c40.59,0,74.77-26.67,85-62.95C185.45,112.58,182.57,112.12,177.3,111.1z"/>
<radialGradient id="SVGID_4_" cx="279.9551" cy="318.7188" r="89.1694" gradientTransform="matrix(1 0 0 1 -197.5996 -188.9902)" gradientUnits="userSpaceOnUse">
	<stop  offset="0.2022" style="stop-color:#FFFFFF"/>
	<stop  offset="0.368" style="stop-color:#E4E4E4"/>
	<stop  offset="0.5944" style="stop-color:#C4C4C4"/>
	<stop  offset="1" style="stop-color:#333333"/>
</radialGradient>
<path fill="url(#SVGID_4_)" d="M34.85,70.79c2.13-0.88,4.18-2.28,7.39-3.18c9.56-24.83,34.19-42.5,63.08-42.5
	c28.8,0,53.37,17.57,62.99,42.27c0.03,0.08,0.07,0.19,0.1,0.25c1.65,0.57,6.53,2.55,8.04,3.21c0.21,0,0.67,0.02,1.15,0.03
	c-0.03-0.1-0.05-0.18-0.08-0.27c-8.92-30.58-37.86-52.98-72.2-52.98c-34.42,0-63.43,22.52-72.26,53.23
	C33.56,70.85,34.54,70.81,34.85,70.79z"/>
<path fill="#FFFFFF" d="M104.77,19.7c32.21,0,60.77,19.21,71.58,50.87c0.02,0.07,0.05,0.17,0.09,0.27c0.17,0,0.78,0.02,1.15,0.03
	c-0.03-0.11-0.06-0.18-0.08-0.27c-8.92-30.58-37.86-52.98-72.2-52.98c-34.42,0-63.43,22.52-72.26,53.23
	c0.69-0.01,1.02-0.01,1.8-0.07C44.52,40.73,72.79,19.7,104.77,19.7z"/>
<radialGradient id="SVGID_5_" cx="351.9121" cy="409.8975" r="169.193" gradientTransform="matrix(1 0 0 1 -197.5996 -188.9902)" gradientUnits="userSpaceOnUse">
	<stop  offset="0.2022" style="stop-color:#FFFFFF"/>
	<stop  offset="0.368" style="stop-color:#E4E4E4"/>
	<stop  offset="0.5944" style="stop-color:#C4C4C4"/>
	<stop  offset="1" style="stop-color:#333333"/>
</radialGradient>
<path fill="url(#SVGID_5_)" d="M175.48,111.19c-2.31,1.29-5.19,2.54-7.5,3.26c-0.03,0.07-0.16,0.4-0.19,0.48
	c-9.96,24.02-34.18,40.98-62.47,40.98c-28.47,0-52.81-17.16-62.66-41.42c-2.65-0.74-6.61-2.54-8.11-3.3
	c-0.56-0.03-0.86-0.04-1.21-0.06c9.16,30.21,37.91,52.26,71.97,52.26c33.9,0,62.55-21.85,71.84-51.84c0.02-0.06,0.12-0.39,0.14-0.44
	C176.77,111.13,175.95,111.19,175.48,111.19z"/>
<radialGradient id="SVGID_6_" cx="301.2598" cy="211.5024" r="134.4516" gradientTransform="matrix(1 0 0 1 -197.5996 -188.9902)" gradientUnits="userSpaceOnUse">
	<stop  offset="0.2022" style="stop-color:#FFFFFF"/>
	<stop  offset="0.3966" style="stop-color:#FDFDFD"/>
	<stop  offset="0.5101" style="stop-color:#F4F4F4"/>
	<stop  offset="0.6029" style="stop-color:#E6E6E6"/>
	<stop  offset="0.6839" style="stop-color:#D2D2D2"/>
	<stop  offset="0.7278" style="stop-color:#C4C4C4"/>
	<stop  offset="1" style="stop-color:#4D4D4D"/>
</radialGradient>
<path fill="url(#SVGID_6_)" d="M196.52,71.77c-4.75-0.58-7.99-0.52-19.57-0.92c-0.53-0.02-1.06-0.04-1.6-0.05
	c-20.99-0.72-52.52-1.68-70.34-1.68c-17.82,0-49.35,0.96-70.35,1.68c-0.54,0.02-1.08,0.04-1.6,0.05
	c-11.58,0.4-14.82,0.34-19.57,0.92C8.73,72.35,5,74.43,5,77.97v25.68c0,3.54,4.5,6.41,8.48,6.41c0,0,50.75,3.13,91.52,3.17
	c40.77-0.04,91.52-3.17,91.52-3.17c3.99,0,8.48-2.87,8.48-6.41V77.97C205,74.43,201.27,72.35,196.52,71.77z"/>
<path fill="#FFFFFF" d="M175.48,111.19c-9.96,29.54-37.97,50.12-69.6,50.12c-31.96,0-60.32-18.91-71.32-50.12
	c-0.4-0.02-0.8-0.04-1.2-0.06c9.16,30.21,37.92,52.26,71.98,52.26c34.07,0,62.83-22.07,71.98-52.29
	C176.71,111.13,176.1,111.16,175.48,111.19z"/>
<path fill="#8C8C8C" d="M175.54,111.19c-0.02,0-0.04,0-0.06,0c-2.31,1.29-5.19,2.54-7.5,3.26c-0.03,0.07-0.16,0.4-0.19,0.48
	c-3.15,7.6-7.73,14.5-13.42,20.37C163.27,128.79,170.54,120.57,175.54,111.19z"/>
<path fill="#4D4D4D" d="M58.19,137.22c-6.7-6.38-12.03-14.1-15.53-22.73c-2.65-0.74-6.61-2.54-8.11-3.3
	c1.62,3.35,3.51,6.53,5.65,9.49c4.41,5.74,9.75,10.86,15.84,15.19C56.74,136.34,57.46,136.79,58.19,137.22z"/>
<path fill="#252525" d="M33.35,111.14C33.35,111.13,33.35,111.13,33.35,111.14l-0.02,0c-5.58,0.99-7.47,1.37-13,2.1
	c0.44,1.58,0.94,3.14,1.47,4.68L33.35,111.14z"/>
<radialGradient id="NISSAN_1_" cx="304.375" cy="224.9683" r="90.5596" gradientTransform="matrix(1 0 0 1 -197.5996 -188.9902)" gradientUnits="userSpaceOnUse">
	<stop  offset="0.1111" style="stop-color:#4D4D4D"/>
	<stop  offset="0.248" style="stop-color:#494949"/>
	<stop  offset="0.3546" style="stop-color:#404040"/>
	<stop  offset="0.451" style="stop-color:#2F2F2F"/>
	<stop  offset="0.5409" style="stop-color:#181818"/>
	<stop  offset="0.6111" style="stop-color:#000000"/>
</radialGradient>
<path id="NISSAN" fill="url(#NISSAN_1_)" d="M145.64,83.14c-1.67-3.73-1.08-3.34-4.71-3.43c-0.29-0.1-1.08-0.1-2.16-0.1
	s-1.27,0-2.16,0.1c-3.43,0-2.85-0.2-4.02,2.26c0,0-5.89,13.24-8.44,18.74l-0.1,0.2c-0.49,0.98-0.2,0.98,0.59,0.98h5.3
	c0.39,0,0.59-0.19,0.69-0.39c0,0,0.79-1.67,1.77-4.02h12.95c0.98,2.26,1.67,3.92,1.67,4.02c0.1,0.29,0.39,0.39,0.69,0.39h5.49
	c0.79,0,0.98,0.1,0.69-0.59C152.9,98.93,146.52,85.2,145.64,83.14L145.64,83.14z M134.35,92.75c1.67-3.92,3.34-7.75,3.34-7.85
	c0.1-0.2,0.29-0.29,0.59-0.29c0.1-0.1,0.39-0.1,0.69-0.1c0.2,0,0.49,0,0.59,0.1c0.2,0,0.39,0.1,0.49,0.39
	c0.4,1.08,1.87,4.41,3.24,7.75H134.35L134.35,92.75z M63.72,79.41c0.49,0,0.59,0.19,0.59,0.59v21c0,0.49-0.1,0.69-0.69,0.69h-5.1
	c-0.59,0-0.69-0.1-0.69-0.69V80c0-0.39,0.1-0.59,0.49-0.59H63.72L63.72,79.41z M52.83,79.61c0.59,0,0.69,0.19,0.69,0.69v20.9
	c0,0.59-0.1,0.69-0.69,0.69h-5.99c-3.53,0-3.83,0-5-1.96c-2.45-3.83-9.81-15.11-9.81-15.11v16.38c0,0.59-0.1,0.69-0.68,0.69h-4.42
	c-0.59,0-0.69-0.1-0.69-0.69V80.3c0-0.49,0.1-0.69,0.69-0.69c0,0,1.18,0,5.1,0c3.83,0,4.32-0.1,5.69,1.86
	c1.08,1.77,10.01,15.5,10.01,15.5V80.3c0-0.49,0.1-0.69,0.69-0.69L52.83,79.61L52.83,79.61z M183.8,79.61
	c0.59,0,0.69,0.19,0.69,0.69v20.9c0,0.59-0.1,0.69-0.69,0.69h-5.98c-3.53,0-3.83,0-5.01-1.96c-2.45-3.83-9.81-15.11-9.81-15.11
	v16.38c0,0.59-0.1,0.69-0.69,0.69h-4.41c-0.59,0-0.69-0.1-0.69-0.69V80.3c0-0.49,0.1-0.69,0.69-0.69c0,0,1.18,0,5.1,0
	c3.83,0,4.32-0.1,5.69,1.86c1.18,1.77,10.01,15.5,10.01,15.5V80.3c0-0.49,0.1-0.69,0.69-0.69L183.8,79.61L183.8,79.61z M86.19,88.15
	c3.93,0.39,6.77,1.08,7.56,4.81c0,0.29,0.1,1.27,0.1,2.35c0,0.69,0,1.57-0.2,2.35c-0.68,3.53-3.34,4.22-7.45,4.22H69.71
	c-0.59,0-0.69-0.1-0.69-0.69v-3.53c0-0.59,0.1-0.69,0.69-0.69c0,0,16.38,0,16.68,0c0.69,0,0.88-0.2,0.98-0.69c0-0.39,0-0.59,0-0.88
	s0-0.49,0-0.59c-0.1-0.39-0.2-0.98-1.08-1.08c-1.86-0.1-7.36-0.59-11.09-0.98c-4.81-0.49-5.98-2.55-6.18-4.32
	c-0.1-0.59-0.1-1.37-0.1-2.06c0-0.59,0-1.47,0.1-2.16c0.69-3.14,3.04-4.61,7.16-4.61h15.99c0.59,0,0.79,0.1,0.79,0.59v3.63
	c0,0.49-0.2,0.68-0.79,0.59c0,0-15.3,0-15.69,0c-0.69,0-0.98,0.29-1.08,0.98c0,0.1,0,0.19,0,0.39s0,0.29,0,0.49
	c0,0.49,0.29,0.88,0.98,0.98C78.24,87.46,84.03,87.95,86.19,88.15L86.19,88.15z M114.54,88.15c3.93,0.39,6.77,1.08,7.56,4.81
	c0,0.29,0.1,1.27,0.1,2.35c0,0.69,0,1.57-0.2,2.35c-0.68,3.53-3.33,4.22-7.46,4.22H98.06c-0.59,0-0.69-0.1-0.69-0.69v-3.53
	c0-0.59,0.1-0.69,0.69-0.69c0,0,16.38,0,16.68,0c0.69,0,0.88-0.2,0.98-0.69c0-0.39,0-0.59,0-0.88s0-0.49,0-0.59
	c-0.1-0.39-0.3-0.98-1.08-1.08c-1.86-0.1-7.36-0.59-11.08-0.98c-4.81-0.49-5.89-2.55-6.18-4.32c-0.1-0.59-0.1-1.37-0.1-2.06
	c0-0.59,0-1.47,0.1-2.16c0.69-3.14,3.04-4.61,7.16-4.61h15.99c0.59,0,0.79,0.1,0.79,0.59v3.63c0,0.49-0.2,0.68-0.79,0.59
	c0,0-15.3,0-15.7,0c-0.69,0-0.98,0.29-1.08,0.98c0,0.1,0,0.19,0,0.39s0,0.29,0,0.49c0,0.49,0.2,0.88,0.98,0.98
	C106.59,87.46,112.38,87.95,114.54,88.15L114.54,88.15z"/>
</svg>
