<?xml version="1.0" encoding="utf-8"?>
<!-- Generator: Adobe Illustrator 21.1.0, SVG Export Plug-In . SVG Version: 6.00 Build 0)  -->
<svg version="1.1" id="Calque_1" xmlns="http://www.w3.org/2000/svg" xmlns:xlink="http://www.w3.org/1999/xlink" x="0px" y="0px"
	 viewBox="0 0 160 165" style="enable-background:new 0 0 160 165;" xml:space="preserve">
<style type="text/css">
	.st0{fill:url(#SVGID_1_);}
	.st1{fill:url(#SVGID_2_);}
	.st2{fill:url(#SVGID_3_);}
	.st3{fill:url(#SVGID_4_);}
	.st4{fill:url(#SVGID_5_);}
	.st5{fill:url(#SVGID_6_);}
	.st6{opacity:0.85;fill:url(#SVGID_7_);enable-background:new    ;}
	.st7{opacity:0.85;fill:url(#SVGID_8_);enable-background:new    ;}
	.st8{opacity:0.85;fill:url(#SVGID_9_);enable-background:new    ;}
	.st9{fill:url(#SVGID_10_);}
	.st10{fill:#7E7E7D;}
	.st11{fill:url(#SVGID_11_);}
	.st12{fill:url(#SVGID_12_);}
	.st13{fill:url(#SVGID_13_);}
	.st14{fill:url(#SVGID_14_);}
	.st15{fill:url(#SVGID_15_);}
	.st16{fill:url(#SVGID_16_);}
	.st17{fill:url(#SVGID_17_);}
	.st18{fill:url(#SVGID_18_);}
	.st19{fill:url(#SVGID_19_);}
	.st20{fill:url(#SVGID_20_);}
	.st21{fill:url(#SVGID_21_);}
	.st22{fill:url(#SVGID_22_);}
	.st23{fill:url(#SVGID_23_);}
	.st24{fill:url(#SVGID_24_);}
	.st25{fill:url(#SVGID_25_);}
	.st26{fill:url(#SVGID_26_);}
	.st27{fill:url(#SVGID_27_);}
	.st28{fill:#002355;}
</style>
<g>
	<g>
		<g>
			<g>
				<g>
					<g>
						<path d="M113.2,102.1c-1.5-4.4-7.5-15.5-12.2-21.8c-1-1.4-0.6-2.1-0.1-2.5c0.5-0.4,2.3-2,4.4-4.3c2.1-2.4,2.6-5.1,1.1-9
							s-6.3-13.1-7.3-16.1c-1.2-3.5-1.3-5.1-0.6-7c0.8-2.3,2-2.4,3-2.3c0.5,0,0.9,0.5,0.9,0.8c0,1,0.1,2.2,1,4.8
							c1.6,4.1,5.5,6.8,6.8,7.3c0.9,0.4,1-0.3,1-0.6c-0.1-0.3-1.4-5.4-2.3-9.2c-1-4-1.5-4.9-2.4-5.7c-1.4-1.4-3.6-2.1-5.5-2
							c-4.1,0.2-6,4.1-6.2,4.5c-0.2,0.3-0.3,0.6-0.7,0.3c-1.2-0.8-4.6-3.7-4.9-5.5c-0.2-1.1-0.4-1.2-1.4-1.6
							c-4.1-1.6-7.7-3-11.7-3.7c-1.6-0.3-1.7-0.4-3.5-0.1c-3.2,0.6-5.1,1.3-7.5,2.6c-1.3,0.7-1.5,1.2-1.7,1.5
							c-0.4,0-0.7,0.3-1.1,0.5c-0.8,0.3-3.7,1.3-4.7,1.9c-0.6,0.4-1,0.7-0.6,1.5c0.6,1.2,2.2,3.8,3,4.5c0.4,0.4,1.6,0.7,1.8,0.7
							c0.3,0.1,0.5,0.1,0.6-0.1s0.1-0.5,0.7-0.9c0.8-0.6,2.2-0.9,3-1c0.6,0,1-0.1,1.3,0.2c0.3,0.2,1,1,1.3,1.7
							c0.2,0.8,0.1,1-0.3,1.2c-0.4,0.2-1.7,0.5-3.2,0.6s-1.9-0.3-2-0.4c-0.1-0.1-0.3-0.2-0.4,0c-0.2,0.3-0.6,0.6-1.2,0.9
							c-0.3,0.2-0.5,0.5-0.2,1c0.9,1.6,2.2,3.4,3.3,3.8c0.9,0.3,1.4,0,2.4-0.7c0.9-0.7,1.5-0.7,1.8-0.5s0.8,0.7,0.7,1.1
							c-0.2,0.8-1.9,2.7-2.2,3.1c-0.3,0.4-0.6,0.6-1.1,0.3c-0.8-0.4-12.5-6.5-14.1-7.1c-1.7-0.7-2.8-0.8-4.5-0.9
							c-1.4-0.1-3.2,0.1-4.3,0.3c-0.8,0.2-1.3,0.5-2.1,1.3c-1.1,1-2.2,2.2-2.3,3.3c-0.1,0.8,0.8,2.3,0.9,2.4
							c0.1,0.1,0.2,0.3,0.7,0.3c0.5-0.1,1.6-0.7,3-0.4c1.3,0.2,1.4,1.2,1.4,2c0,0.1,0.2,0.4,0.5,0.4c0.5,0,1.3,0,2.2,0.4
							c1.1,0.5,3.3,2.2,3.7,2.6c0.3,0.3,0.3,0.6-0.3,0.6c-2.8,0.2-7.1,1.1-9,1.7c-1.4,0.5-3,1.1-3.6,2.1c-0.7,1.1-1.5,3-1.7,4.3
							c-0.2,1.3,1.2,2.9,1.5,3.3c0.3,0.2,0.4,0.4,0.9,0.2c0.7-0.4,2.3-1.4,3.9-1.5c1-0.1,1.3,0.8,1.6,1.2c0.2,0.3,0.5,0.1,1.3-0.1
							c1.5-0.4,10-0.3,13-0.1c1.4,0.1,3.3,0.3,4.7,1c1.4,0.8,3.9,3.2,3.9,3.2s-3.4,5.6-5.2,9c-1.7,3.1-2.9,5.4-3.5,6.7
							c-0.6,1.2-1,3-0.9,4.3c0.2,2,0.2,3,0.2,3.9c0,0.8-0.8,0.9-1.8,1.1c-1.5,0.4-4.4,0.6-6.7,1.2c-2.1,0.5-2.9,1-3.3,2.7
							c-0.3,1.3-0.7,4.5-0.8,6c0,0.6,0,0.9,0.7,0.7c0.4-0.1,1.7-0.3,3.3-0.4c2-0.2,4.1-0.1,5.8-0.1c3.1,0,12.1,0.5,12.7,0.6
							c0.8,0.1,0.9,0,0.9-0.6c-0.1-0.7-0.2-3-0.2-4.3c0-1.4-0.2-2.7,1-4.1C71,97.8,80.2,87.5,80.7,87c0.4-0.4,0.7-0.9,1.4-0.3
							c0.7,0.6,8.3,6.1,9.8,7.2s3,1.5,4.7,1.5c1.3,0,1.6,2.2,0.5,2.4c-1.1,0.2-2.8,0.6-3.9,0.8c-1.8,0.4-2.3,1-2.9,2.2
							c-0.5,1-1,6-1,6.5c0,0.3,0,0.8,0.5,0.7c2.2-0.4,5.7-0.6,9.5-0.5c4.3,0.1,8.5,0.5,9.1,0.5s0.7,0,1-0.5c0.5-0.9,2.2-2.7,3.6-3.9
							C113.5,103.2,113.5,103,113.2,102.1z M96.6,71.8c-1.1,0.4-1.8,0-2.3-0.5S89.4,65.6,88,64c-0.7-0.8-1.2-2.6,0.9-3.4
							c1.7-0.6,4.9-1.6,5.7-2.1c0.9-0.5,1.3-0.9,1.4-1.8c0.1-0.9,0.1-1.9,0.1-2.2c0-0.3,0.4-0.6,0.7-0.2c0.2,0.3,0.9,1.8,1.9,3.6
							c1.4,2.6,3.2,5.9,3.8,7.4c0.6,1.4,0.3,2.4-0.6,3.4C100.8,70,97.4,71.5,96.6,71.8z"/>
					</g>
				</g>
				
					<linearGradient id="SVGID_1_" gradientUnits="userSpaceOnUse" x1="111.9615" y1="131.1314" x2="88.033" y2="94.4821" gradientTransform="matrix(1 0 0 -1 0 170)">
					<stop  offset="0.2033" style="stop-color:#CCCCCC"/>
					<stop  offset="0.2274" style="stop-color:#A6A6A6"/>
					<stop  offset="0.2583" style="stop-color:#7D7D7D"/>
					<stop  offset="0.2885" style="stop-color:#5D5D5D"/>
					<stop  offset="0.3174" style="stop-color:#464646"/>
					<stop  offset="0.3446" style="stop-color:#383838"/>
					<stop  offset="0.3681" style="stop-color:#333333"/>
					<stop  offset="0.4381" style="stop-color:#393939"/>
					<stop  offset="0.5311" style="stop-color:#4A4A4A"/>
					<stop  offset="0.637" style="stop-color:#656565"/>
					<stop  offset="0.7516" style="stop-color:#8C8C8C"/>
					<stop  offset="0.8132" style="stop-color:#A3A3A3"/>
					<stop  offset="1" style="stop-color:#000000"/>
				</linearGradient>
				<path class="st0" d="M101.1,35.2L101.1,35.2c-3.4,0-6.9,3.9-6.2,9.8c0.4,3.6,1,5.2,2,7.5c0.5,1.1,6.3,12.2,6.6,13.3
					c0.4,1.7,0,2.7-1.2,3.9c-1.4,1.3-3.8,2.7-5.3,3.3c-0.4,0.1-0.7,0.2-1,0.2c-0.4,0-1.3-0.1-2.9-2.2l7.5,10c-1-1.3-1.4-2.2-1.3-3.1
					c0.2-0.8,1.5-1.7,3.1-3c1.6-1.2,3.3-2.8,4.1-4.8c0.2-0.6,0.3-1.2,0.3-1.9c0-2-1-4.2-2.1-6.7c-1.5-3.2-5.7-10.1-7-14.9
					c-0.3-1.2-0.5-2.3-0.5-3.2c0-2.7,1.2-4.5,2.6-5.1c0.7-0.3,1.3-0.4,1.8-0.4c0.8,0,1.3,0.2,1.6,0.3c0.4,0.2,0.5,0.7,0.5,1.1v0.1
					c0,0.1,0,0.3,0,0.6c0,1.1,0.2,3.6,1.5,6c1.7,3.1,4.5,4.8,5.6,5.2c0.1,0-2.6-9.8-3-11.7C106.9,37.4,105.4,35.2,101.1,35.2z"/>
				
					<linearGradient id="SVGID_2_" gradientUnits="userSpaceOnUse" x1="44.6374" y1="104.5942" x2="48.9728" y2="114.5238" gradientTransform="matrix(1 0 0 -1 0 170)">
					<stop  offset="3.103500e-02" style="stop-color:#A6A6A6"/>
					<stop  offset="0.2" style="stop-color:#A6A6A6"/>
					<stop  offset="0.9897" style="stop-color:#4C4C4C"/>
				</linearGradient>
				<path class="st1" d="M54.5,57.1c0.7,0.7-0.5,0.6-3.9,0.9c-3.5,0.3-7,1-8.9,1.7c-1.4,0.5-2.2,0.9-2.7,2.1c0,0-1.1,2.4-1.3,3.4
					c-0.1,0.5,0,0.7,0.2,1.1c0.1,0.2,0.5-6.4,8.9-6.8c7.5-0.4,9.4-1.2,7.9-2.6L54.5,57.1z"/>
				
					<linearGradient id="SVGID_3_" gradientUnits="userSpaceOnUse" x1="103.8777" y1="128.3941" x2="98.5362" y2="128.8994" gradientTransform="matrix(1 0 0 -1 0 170)">
					<stop  offset="0.1966" style="stop-color:#333333"/>
					<stop  offset="0.2597" style="stop-color:#353535"/>
					<stop  offset="0.2825" style="stop-color:#3C3C3C"/>
					<stop  offset="0.2987" style="stop-color:#474747"/>
					<stop  offset="0.3118" style="stop-color:#585858"/>
					<stop  offset="0.323" style="stop-color:#6E6E6E"/>
					<stop  offset="0.333" style="stop-color:#8A8A8A"/>
					<stop  offset="0.342" style="stop-color:#AAAAAA"/>
					<stop  offset="0.3503" style="stop-color:#D0D0D0"/>
					<stop  offset="0.3576" style="stop-color:#F9F9F9"/>
					<stop  offset="0.3586" style="stop-color:#FFFFFF"/>
					<stop  offset="0.8241" style="stop-color:#333333"/>
					<stop  offset="1" style="stop-color:#191919"/>
				</linearGradient>
				<path class="st2" d="M97.5,43.6c0,0,0.2-1.7,0.5-2.5c0.8-2.2,2.2-2.6,3.1-2.6c0.6,0,0.9,0.2,1.2,0.4c0.2,0.2,0.4,0.4,0.4,0.8
					c0,1,0.1,2.1,1,4.6c0.1,0.2,0.1,0.3,0.2,0.5c-0.8-2-0.9-3.9-0.9-4.9c0-0.3,0-0.7,0-0.7c0-0.7-0.8-1-1.5-1c-0.5,0-1,0.1-1.6,0.3
					c-1.2,0.5-2.3,2-2.3,4.5L97.5,43.6z"/>
				
					<linearGradient id="SVGID_4_" gradientUnits="userSpaceOnUse" x1="55.771" y1="99.3552" x2="60.1654" y2="109.4198" gradientTransform="matrix(1 0 0 -1 0 170)">
					<stop  offset="0" style="stop-color:#CCCCCC"/>
					<stop  offset="0.1219" style="stop-color:#B8B8B8"/>
					<stop  offset="0.2537" style="stop-color:#ABABAB"/>
					<stop  offset="0.3681" style="stop-color:#A6A6A6"/>
					<stop  offset="0.9897" style="stop-color:#000000"/>
				</linearGradient>
				<path class="st3" d="M54.8,57.4c0.3,0.7-0.8,0.5-4.2,0.8c-3.5,0.3-7,1-8.9,1.7c-1.4,0.5-2.2,0.9-2.7,2.1c0,0-1.1,2.4-1.3,3.4
					c-0.1,0.5,0,0.7,0.3,1.1c0.4,0.6,0.6,0.7,1.1,0.4c0.4-0.2,2.3-1.3,3.5-1.3c1.1,0,1.6,0.7,1.8,1.2c0.1,0.4,0.6,0.2,0.7,0.2
					c0.5-0.1,1-0.3,2.7-0.4c2.1-0.2,10.2-0.1,13.2,0c2.7,0.1,13.3,8.4,13.4,8.4l0.5-1.1c-3.6-3-16.9-13.5-20.2-16.7L54.8,57.4z"/>
				
					<linearGradient id="SVGID_5_" gradientUnits="userSpaceOnUse" x1="98.6536" y1="51.9643" x2="20.1522" y2="131.8253" gradientTransform="matrix(1 0 0 -1 0 170)">
					<stop  offset="7.692300e-02" style="stop-color:#808080"/>
					<stop  offset="0.1209" style="stop-color:#8C8C8C"/>
					<stop  offset="0.1703" style="stop-color:#666666"/>
					<stop  offset="0.3077" style="stop-color:#808080"/>
					<stop  offset="0.4725" style="stop-color:#F2F2F2"/>
					<stop  offset="0.6978" style="stop-color:#F2F2F2"/>
					<stop  offset="0.7209" style="stop-color:#E3E3E3"/>
					<stop  offset="0.7655" style="stop-color:#BBBBBB"/>
					<stop  offset="0.8268" style="stop-color:#7B7B7B"/>
					<stop  offset="0.8407" style="stop-color:#6B6B6B"/>
					<stop  offset="0.9615" style="stop-color:#333333"/>
				</linearGradient>
				<path class="st4" d="M85.3,63.9c1.6,1.9,6.4,7.8,10.5,13c6.4,8.2,10.3,14.6,14.5,24.1c0.4,0.9,0.1,1-0.6,1.6c-1.3,1-1,1.5-2,3.1
					c-0.1,0.2-0.4,0.5-0.7,0.5c-0.9-0.1-7.7-0.6-12.1-0.5c-2.7,0.1-3.3,0.3-3.9,0.4c-0.5,0.1-0.6,0.1-0.6-0.6c0-0.2,0.5-3,0.9-4.1
					c0.4-1,1-1.4,1.9-1.7c0.9-0.2,3.4-0.7,4.4-1s1.1-1.2,1-2c-0.1-0.7-0.7-1.7-1.3-1.8c-0.9-0.2-1.5-0.3-2.5-0.7
					c-1-0.4-14.9-11.6-16.1-12.7c-0.3-0.3-0.6-0.5-0.7-0.3c-0.1,0.1,0.2,0.5,0.3,0.6c0.2,0.2,2.3,2.4,2.8,2.9c0.3,0.3,0.2,0.5,0,0.6
					c-0.2,0.2-6.8,6.7-9.5,9.5s-4.7,4.5-4.7,6.7c0,2.3,0.1,4,0.1,4.4c0,0.3-0.3,0.3-0.6,0.3c-0.8-0.1-7.4-0.7-11-0.8
					c-3.7-0.1-6.3,0.3-8,0.7c-0.4,0.1-0.5-0.1-0.5-0.5c0-0.6,0.4-2.9,0.9-4.4c0.3-1,1.1-1.5,2-1.7c1.2-0.3,5.9-1.1,8-1.5
					c1.1-0.2,1.4-0.6,1.4-1.5c0-1-0.1-3.1-0.2-4.1c-0.1-1.1,0.3-2.2,0.7-3.1c1.7-3.9,5.8-12.1,9.3-17c0.4-0.6,0.8-0.7,1.2-0.6
					c0.5,0.1,2.6,1.8,2.8,1.9c0.4,0.2,0.9,0,0.6-0.2c-1.2-1.2-5-3.5-7.3-5.3c-4.5-3.6-9.2-8.9-13-12.4c-2-1.8-4.1-3.1-5.6-3.5
					c-0.6-0.1-1.1-0.1-1.6-0.2c-0.2,0-0.3-0.2-0.3-0.3c0-0.2,0-0.7-0.5-1.3c-0.4-0.4-1.1-0.5-1.7-0.6c-0.8,0-2,0.1-2.7,0.3
					c-0.4,0.1-0.5,0-0.6-0.1c-0.1-0.1-0.3-0.6-0.4-1c0-0.3,0-0.5,0.2-0.9c0.5-0.9,1.7-1.8,2.3-2.4c0.7-0.7,1.1-0.7,1.8-0.8
					c1.6-0.2,3.7-0.3,5.9,0.2c1.6,0.4,2.8,1,4.4,1.7c1.5,0.8,10.5,5.3,11.6,5.9L85.3,63.9z"/>
				
					<radialGradient id="SVGID_6_" cx="64.6059" cy="121.3282" r="17.9018" gradientTransform="matrix(1 0 0 -1 0 170)" gradientUnits="userSpaceOnUse">
					<stop  offset="3.571400e-02" style="stop-color:#FFFFFF"/>
					<stop  offset="0.467" style="stop-color:#FFFFFF"/>
					<stop  offset="0.5179" style="stop-color:#FBFBFB"/>
					<stop  offset="0.5707" style="stop-color:#EEEEEE"/>
					<stop  offset="0.6243" style="stop-color:#DADADA"/>
					<stop  offset="0.6785" style="stop-color:#BDBDBD"/>
					<stop  offset="0.7326" style="stop-color:#989898"/>
					<stop  offset="0.7473" style="stop-color:#8C8C8C"/>
					<stop  offset="0.8462" style="stop-color:#666666"/>
					<stop  offset="1" style="stop-color:#333333"/>
				</radialGradient>
				<path class="st5" d="M70.5,47.7c0.2,1.1-0.5,1.8-1,2.5c-0.4,0.7-1.3,1.7-1.7,2.2c-0.6,0.7-1.7,0.5-1.7,0.5s5.1,2.6,8.1,4.1
					c1.2,0.6,3,0,4.3-2.3c0.3-0.5,2.1-4.5,2.6-5.6c0.5-1.2,1.1-2.5,0.1-4.7c-1.1-2.2-4.3-6.3-5.7-7.9c-0.7-0.8-1.5-1.3-3.2-1.4
					c-1.7-0.1-3.8,0.2-6.6,0.9c-2.8,0.7-6.3,2.2-6.5,2.3c-0.1,0-0.1,0.1,0,0.2c0,0.1,0.4,0.7,0.4,0.7s0.2,0.4,0.7,0.7
					s1.1,0.4,1.2,0.5c0.1,0,0.2,0,0.2-0.1c0-0.1,0.6-1.1,2.5-1.6c1-0.3,1.7-0.3,2-0.3c0.5,0,1.3,0.3,1.7,0.7
					c0.7,0.7,1.3,1.8,1.4,2.4c0.1,0.5,0,1.2-0.5,1.5s-2.1,0.6-3.1,0.7s-2,0.1-2.6-0.3c-0.1-0.1-0.2-0.1-0.2,0
					c-0.2,0.2-0.4,0.3-0.8,0.6c-0.1,0.1-0.2,0.2-0.1,0.4c0.1,0.2,1.3,2.2,2,2.7c0.7,0.6,1.1,0.3,2-0.2s1.5-1.1,2.4-1.1
					C69.6,46,70.3,46.8,70.5,47.7z"/>
				
					<radialGradient id="SVGID_7_" cx="68.6233" cy="110.8796" r="6.3189" gradientTransform="matrix(1 0 0 -0.9636 0 151.9029)" gradientUnits="userSpaceOnUse">
					<stop  offset="3.571400e-02" style="stop-color:#FFFFFF"/>
					<stop  offset="0.2276" style="stop-color:#FFFFFF"/>
					<stop  offset="0.2932" style="stop-color:#F6F6F6"/>
					<stop  offset="0.4021" style="stop-color:#DCDCDC"/>
					<stop  offset="0.5409" style="stop-color:#B3B3B3"/>
					<stop  offset="0.7042" style="stop-color:#797979"/>
					<stop  offset="0.886" style="stop-color:#313131"/>
					<stop  offset="1" style="stop-color:#000000"/>
				</radialGradient>
				<path class="st6" d="M68.8,43.2c-0.5,0.3-2,0.6-3,0.7s-2,0-2.5-0.3c-0.1,0-0.2-0.1-0.2,0c-0.2,0.2-0.3,0.3-0.8,0.5
					c-0.1,0.1-0.2,0.2-0.1,0.3c0.1,0.2,1.2,2,1.9,2.5c0.7,0.5,1.1,0.3,2-0.2s1.5-1.1,2.4-1L68.8,43.2z"/>
				
					<radialGradient id="SVGID_8_" cx="64.6733" cy="134.8659" r="7.4341" gradientTransform="matrix(1 0 0 -1 0 170)" gradientUnits="userSpaceOnUse">
					<stop  offset="0.2308" style="stop-color:#FFFFFF"/>
					<stop  offset="0.5714" style="stop-color:#F5F5F5"/>
					<stop  offset="0.8626" style="stop-color:#000000"/>
				</radialGradient>
				<path class="st7" d="M65.6,36.4c-2.6,0.7-6,2-6.1,2.1c-0.1,0-0.1,0.2,0,0.3c0,0.1,0.4,0.7,0.4,0.7s0.2,0.4,0.7,0.7
					s0.9,0.4,1.1,0.4c0.1,0,0.2,0,0.2-0.1c0-0.1,0.6-1.1,2.5-1.6c1-0.3,1.7-0.3,2-0.3L65.6,36.4z"/>
				
					<radialGradient id="SVGID_9_" cx="77.1272" cy="120.361" r="25.0384" gradientTransform="matrix(1 0 0 -1 0 170)" gradientUnits="userSpaceOnUse">
					<stop  offset="3.571400e-02" style="stop-color:#FFFFFF"/>
					<stop  offset="0.2527" style="stop-color:#FFFFFF"/>
					<stop  offset="0.2708" style="stop-color:#FBFBFB"/>
					<stop  offset="0.2894" style="stop-color:#EEEEEE"/>
					<stop  offset="0.3084" style="stop-color:#DADADA"/>
					<stop  offset="0.3275" style="stop-color:#BDBDBD"/>
					<stop  offset="0.3462" style="stop-color:#999999"/>
					<stop  offset="0.4121" style="stop-color:#666666"/>
					<stop  offset="0.4725" style="stop-color:#333333"/>
					<stop  offset="0.8571" style="stop-color:#333333"/>
				</radialGradient>
				<path class="st8" d="M70.5,47.8c0.2,1.1-0.5,1.9-1,2.6c-0.4,0.7-1.3,1.7-1.7,2.2c-0.6,0.7-1.4,0.4-1.4,0.4s4.9,2.5,7.8,4
					c1.2,0.6,2.9,0.2,4.2-2.2c0.3-0.5,2.1-4.5,2.6-5.6L70.5,47.8z"/>
				<g>
					
						<linearGradient id="SVGID_10_" gradientUnits="userSpaceOnUse" x1="59.6252" y1="106.1563" x2="47.3667" y2="103.0916" gradientTransform="matrix(1 0 0 -1 0 170)">
						<stop  offset="0" style="stop-color:#F2F2F2"/>
						<stop  offset="8.055412e-02" style="stop-color:#DDDDDD"/>
						<stop  offset="0.2582" style="stop-color:#B2B2B2"/>
						<stop  offset="0.2996" style="stop-color:#C6C6C6"/>
						<stop  offset="0.3578" style="stop-color:#DADADA"/>
						<stop  offset="0.4245" style="stop-color:#E8E8E8"/>
						<stop  offset="0.5065" style="stop-color:#F0F0F0"/>
						<stop  offset="0.6484" style="stop-color:#F2F2F2"/>
						<stop  offset="0.8956" style="stop-color:#FFFFFF"/>
					</linearGradient>
					<path class="st9" d="M46.3,66.1c-0.2-0.1-0.2-0.4,0.1-0.7c0.2-0.2,1.5-1.3,2.3-1.5s3.8-0.5,5-0.5c0.4,0,4.9-0.4,5.3-0.4
						c0.4,0,1.4,1.6,2.7,3c-0.1,0-4.1-0.1-7.4-0.1c-3.2,0-5.9,0.1-7,0.2C46.9,66.2,46.5,66.2,46.3,66.1z"/>
					<path class="st10" d="M46.2,66.2L46.2,66.2L46.2,66.2c-0.1,0-0.2-0.2-0.2-0.3l0,0c0-0.1,0.1-0.3,0.3-0.5l0,0
						c0.2-0.2,1.5-1.3,2.4-1.5l0,0c0.8-0.2,3.8-0.5,5-0.5l0,0c0.3,0,4.7-0.4,5.3-0.4l0,0l0,0l0,0c0.1,0,0.3,0.1,0.5,0.3l0,0
						c0.2,0.2,0.4,0.4,0.6,0.7l0,0c0.5,0.6,1,1.3,1.6,2l0,0l0.1,0.1h-0.1c0,0,0,0-0.1,0l0,0c-0.5,0-3.9-0.1-6.9-0.1l0,0
						c-0.1,0-0.3,0-0.4,0l0,0c-3.2,0-5.9,0.1-7,0.2l0,0c-0.2,0-0.5,0.1-0.7,0.1l0,0C46.4,66.2,46.3,66.2,46.2,66.2L46.2,66.2z
						 M46.5,66.1c0.2,0,0.5,0,0.7-0.1l0,0c1-0.1,3.8-0.2,7-0.2l0,0c0.1,0,0.3,0,0.4,0l0,0c2.9,0,6.1,0.1,6.8,0.1l0,0
						c-0.9-1-1.7-2.1-2.1-2.6l0,0C59.1,63.1,59,63,58.9,63l0,0l0,0l0,0c-0.6,0-4.9,0.4-5.3,0.4l0,0c-1.2,0.1-4.2,0.3-5,0.5l0,0
						c-0.8,0.2-2.1,1.3-2.3,1.5l0,0c-0.2,0.2-0.2,0.3-0.2,0.4l0,0c0,0.1,0,0.1,0.1,0.2l0,0l0,0C46.3,66.1,46.4,66.1,46.5,66.1
						L46.5,66.1z"/>
				</g>
				<g>
					<g>
						
							<linearGradient id="SVGID_11_" gradientUnits="userSpaceOnUse" x1="883.0798" y1="-242.3036" x2="1011.1916" y2="-398.3906" gradientTransform="matrix(0.4383 0 0 -0.4383 -328.0567 -73.1079)">
							<stop  offset="0" style="stop-color:#FFFFFF"/>
							<stop  offset="6.896600e-02" style="stop-color:#DEDEDE"/>
							<stop  offset="0.1565" style="stop-color:#FFFFFF"/>
							<stop  offset="0.2033" style="stop-color:#FFFFFF"/>
							<stop  offset="0.2785" style="stop-color:#DEDEDE"/>
							<stop  offset="0.3297" style="stop-color:#CCCCCC"/>
							<stop  offset="0.3357" style="stop-color:#D1D1D1"/>
							<stop  offset="0.3647" style="stop-color:#E6E6E6"/>
							<stop  offset="0.3976" style="stop-color:#F4F4F4"/>
							<stop  offset="0.4372" style="stop-color:#FCFCFC"/>
							<stop  offset="0.502" style="stop-color:#FFFFFF"/>
							<stop  offset="0.8852" style="stop-color:#FFFFFF"/>
							<stop  offset="0.9797" style="stop-color:#B0B0B0"/>
						</linearGradient>
						<path class="st11" d="M111.4,101.4c-1.4-3.4-5.2-10.9-10.5-18.7c-5.2-7.6-14-18-15.2-19.7c-1.2-1.7-1.7-3.6,0.8-4.4
							c1.6-0.5,5.5-1.3,7.1-1.8c1.6-0.4,1.7-0.9,1.8-2.1c0.1-1.3-0.2-7.6-1-11.4c-0.2-0.8-0.7-1.4-1.3-1.9c-0.6-0.4-2.7-2.3-3.9-3.6
							c-1.4-1.6-2-3-2.2-4.1c0,0,0-0.2-0.3-0.5c-0.1-0.1-0.2-0.2-0.4-0.3c-2.3-1.3-10.5-3.6-12.2-3.7c-1.2-0.1-5.2,0.4-9,2.7
							c-1.1,0.7-1.1,1.5-1.9,1.9c-0.8,0.4-2.5,0.8-4.3,1.7c-1,0.5-1,0.5-0.8,1.1c0.1,0.2,0.8,1.4,1.1,1.4s0.7-0.2,1.1-0.3
							c0.5-0.2,4.2-1.6,7-2.2c3.2-0.7,6.7-0.7,7.9,0.5c1.9,2,5.1,6.4,6.1,8.3s0.9,2.8,0.2,4.8c-0.6,1.8-2.9,6.5-3.5,7.4
							c-0.7,1-1.5,1.5-3.4,0.7c-2.1-0.9-9.7-4.8-11.4-5.6c-1.1-0.6-5.8-3-9.4-4.7c-1.3-0.7-2.4-1.1-3.6-1.4
							c-2.6-0.7-5.4-0.4-6.7-0.2c-0.6,0.1-1,1.1-0.9,1.4c0,0.5,1.4,0.1,2.6,0.2c0.9,0.1,4.1,0.4,5.9,1.2c1.9,0.8,11.6,6,14.1,7.3
							c18.7,10.2,26.7,16.7,41.1,41c0.6,1.1,1,2.4-0.1,2.7c-1.5,0.4-7.6,1.6-9.5,2.2c-1.6,0.5-1.8,0.6-2,1.4c-0.3,0.9-0.7,2.6-0.6,3
							c0,0.1-0.1,0.3,0.2,0.3c1.7,0,7.9,0,12.7,0.5c0.6,0.1,0.6,0,1-0.5c0.4-0.6,2.1-2.5,3.2-3.3
							C111.8,102.2,111.5,101.6,111.4,101.4z"/>
					</g>
				</g>
				
					<linearGradient id="SVGID_12_" gradientUnits="userSpaceOnUse" x1="44.6851" y1="123.5528" x2="102.0719" y2="69.0474" gradientTransform="matrix(1 0 0 -1 0 170)">
					<stop  offset="0" style="stop-color:#D9D9D9"/>
					<stop  offset="4.297480e-02" style="stop-color:#C3C3C3"/>
					<stop  offset="0.1571" style="stop-color:#909090"/>
					<stop  offset="0.2643" style="stop-color:#686868"/>
					<stop  offset="0.3616" style="stop-color:#4B4B4B"/>
					<stop  offset="0.4457" style="stop-color:#393939"/>
					<stop  offset="0.5069" style="stop-color:#333333"/>
					<stop  offset="0.5726" style="stop-color:#383838"/>
					<stop  offset="0.6507" style="stop-color:#464646"/>
					<stop  offset="0.735" style="stop-color:#5E5E5E"/>
					<stop  offset="0.8238" style="stop-color:#808080"/>
					<stop  offset="0.915" style="stop-color:#AAAAAA"/>
					<stop  offset="1" style="stop-color:#D9D9D9"/>
				</linearGradient>
				<path class="st12" d="M107,97.8c-0.1-1-1-2.4-2.6-5c-1.6-2.5-3.6-6-6.3-9.8c-4.8-6.8-9.5-12.1-15.4-16.7
					c-4.3-3.4-8.9-6.2-12.2-8.1c-3.3-2-17.4-9.7-19.6-10.3c-2-0.6-3.6-0.8-5-1c-1-0.1-1.8,0-2.6,0s-0.5-0.7-0.4-0.9
					c-0.1,0.2-0.6,1.1,0.2,1.1c0.6,0,1.9,0,2.8,0.1c1.7,0.2,3.9,0.7,5.3,1.2c2,0.8,11.2,6.2,13.5,7.6c7.2,4.1,12.6,7.8,17.7,11.9
					c7.8,6.3,14.6,13.6,23,28.4c0.3,0.6,0.5,1,0.5,1.6c0,0.8-0.7,1.1-0.9,1.2c-1.5,0.4-7.4,1.8-9.2,2.4c-1.5,0.5-1.8,0.9-2,1.6
					c-0.1,0.3-0.3,1.7-0.6,2.1c-0.3,0.4-1,0.5-1.7,0.5c-0.5,0-0.7,0-0.6-0.5c0-0.5,0.3-1.9,0.5-2.6c0.2-0.8,0.5-1.4,1.2-1.8
					s3.2-0.8,4.6-1.2c1.4-0.3,1.5-1,1.4-2c0,1.1-0.4,1.4-1.8,1.7c-1.4,0.3-3.8,0.6-4.6,1.2c-0.8,0.5-1.1,1.2-1.2,1.8
					c-0.5,2-0.8,3.4-0.7,3.9c0,0.4,0.2,0.5,0.7,0.4s1.7-0.2,3.5-0.3c0.5,0,0.5-0.6,0.5-1.4c0-0.3,0-1,0.1-1.4s0.4-0.7,0.9-0.9
					c1-0.3,6.5-1.8,9.4-2.6C106.6,99.3,107.1,98.9,107,97.8z"/>
				
					<linearGradient id="SVGID_13_" gradientUnits="userSpaceOnUse" x1="72.3527" y1="97.339" x2="49.99" y2="63.907" gradientTransform="matrix(1 0 0 -1 0 170)">
					<stop  offset="0" style="stop-color:#BFBFBF"/>
					<stop  offset="0.1" style="stop-color:#FFFFFF"/>
					<stop  offset="0.3492" style="stop-color:#EDEDED"/>
					<stop  offset="0.4228" style="stop-color:#F6F6F6"/>
					<stop  offset="0.5385" style="stop-color:#FFFFFF"/>
					<stop  offset="0.5442" style="stop-color:#F4F4F4"/>
					<stop  offset="0.5799" style="stop-color:#B2B2B2"/>
					<stop  offset="0.6139" style="stop-color:#7C7C7C"/>
					<stop  offset="0.6453" style="stop-color:#515151"/>
					<stop  offset="0.6735" style="stop-color:#333333"/>
					<stop  offset="0.6974" style="stop-color:#202020"/>
					<stop  offset="0.7143" style="stop-color:#191919"/>
					<stop  offset="0.7229" style="stop-color:#373737"/>
					<stop  offset="0.7398" style="stop-color:#6C6C6C"/>
					<stop  offset="0.757" style="stop-color:#999999"/>
					<stop  offset="0.7741" style="stop-color:#BEBEBE"/>
					<stop  offset="0.7912" style="stop-color:#DADADA"/>
					<stop  offset="0.8081" style="stop-color:#EFEFEF"/>
					<stop  offset="0.8249" style="stop-color:#FBFBFB"/>
					<stop  offset="0.8414" style="stop-color:#FFFFFF"/>
					<stop  offset="0.85" style="stop-color:#FAFAFA"/>
					<stop  offset="0.8597" style="stop-color:#EDEDED"/>
					<stop  offset="0.87" style="stop-color:#D6D6D6"/>
					<stop  offset="0.8806" style="stop-color:#B7B7B7"/>
					<stop  offset="0.8915" style="stop-color:#8E8E8E"/>
					<stop  offset="0.9025" style="stop-color:#5D5D5D"/>
					<stop  offset="0.9103" style="stop-color:#363636"/>
					<stop  offset="0.9451" style="stop-color:#363636"/>
					<stop  offset="1" style="stop-color:#737373"/>
				</linearGradient>
				<path class="st13" d="M70,71.8c0.4,0.1,1.1,0.6,1.6,1c0.4,0.3,0.8,0.6,0.8,0.6c-3.7,4.7-9.3,12.7-11.1,16.1
					c-0.9,1.8-0.9,2.5-0.9,4.1s0.2,3.5,0.1,4.4c-0.1,0.9-0.7,1.3-1.6,1.6c-0.9,0.2-6.3,1.1-7.5,1.5s-1.5,1-1.7,1.9s-0.3,1.4-0.4,1.7
					c-0.1,0.4,0,0.6-0.4,0.7c-0.3,0-1.2,0.1-1.5,0.2c-0.4,0.1-0.4,0-0.4-0.4s0.4-2.3,0.7-3.3s0.7-1.7,2-2s6.8-1.2,7.8-1.4
					c1.2-0.2,1.5-0.7,1.4-1.9c-0.1-1.2-0.2-2.9-0.3-3.9c0-1,0-1.9,0.4-2.8c0.4-1,2.3-5.2,3.9-8.2c2.2-4.1,5-8.5,5.5-9.1
					C69.2,71.8,69.5,71.6,70,71.8z"/>
				
					<linearGradient id="SVGID_14_" gradientUnits="userSpaceOnUse" x1="69.9264" y1="79.8365" x2="75.8285" y2="76.3599" gradientTransform="matrix(1 0 0 -1 0 170)">
					<stop  offset="0.2" style="stop-color:#FFFFFF"/>
					<stop  offset="0.3197" style="stop-color:#FDFDFD"/>
					<stop  offset="0.3903" style="stop-color:#F4F4F4"/>
					<stop  offset="0.4482" style="stop-color:#E6E6E6"/>
					<stop  offset="0.4989" style="stop-color:#D2D2D2"/>
					<stop  offset="0.5207" style="stop-color:#C7C7C7"/>
					<stop  offset="0.8189" style="stop-color:#3B3B3B"/>
					<stop  offset="0.8352" style="stop-color:#333333"/>
					<stop  offset="0.9389" style="stop-color:#242424"/>
					<stop  offset="1" style="stop-color:#191919"/>
				</linearGradient>
				<path class="st14" d="M66.9,101.8c0-1,0.3-1.9,0.9-2.7c0.8-1.2,2.1-2.4,3.7-4c2.7-2.8,9.4-9.4,9.7-9.6c0.1-0.1,0.3-0.4,0-0.7
					c-0.7-0.6-1-1-2.1-2.1c-0.6-0.6-1.1-1-1.1-1.2c0,0-7.5,8.4-9.9,14.6c-1,2.2-1.3,3.5-1.3,4.6C66.8,101.5,66.9,101.8,66.9,101.8z"
					/>
				
					<linearGradient id="SVGID_15_" gradientUnits="userSpaceOnUse" x1="73.3356" y1="95.7833" x2="79.5459" y2="103.2185" gradientTransform="matrix(1 0 0 -1 0 170)">
					<stop  offset="2.197800e-02" style="stop-color:#FFFFFF"/>
					<stop  offset="0.1828" style="stop-color:#FFFFFF"/>
					<stop  offset="0.2088" style="stop-color:#FFFFFF"/>
					<stop  offset="0.3037" style="stop-color:#F7F7F7"/>
					<stop  offset="0.4491" style="stop-color:#E2E2E2"/>
					<stop  offset="0.5" style="stop-color:#D9D9D9"/>
					<stop  offset="0.5971" style="stop-color:#C5C5C5"/>
					<stop  offset="0.8268" style="stop-color:#9C9C9C"/>
					<stop  offset="0.9451" style="stop-color:#8C8C8C"/>
					<stop  offset="1" style="stop-color:#858585"/>
				</linearGradient>
				<path class="st15" d="M43.2,47c1,0,2,0,2.9,0.1c1.8,0.2,3.9,0.7,5.3,1.3c0.7,0.3,2.4,1.2,4.4,2.3c3.4,1.9,7.7,4.4,9.2,5.3
					c5.3,3,9.6,5.8,13.6,8.8c1.4,1.1,2.8,2.2,4.2,3.2c7.8,6.3,14.3,13.3,22.9,28.4c0.3,0.6,0.4,1,0.4,1.6c0,0.4-0.4,0.9-1,1L43.2,47
					z"/>
				
					<linearGradient id="SVGID_16_" gradientUnits="userSpaceOnUse" x1="87.0435" y1="137.4157" x2="95.1293" y2="129.1441" gradientTransform="matrix(1 0 0 -1 0 170)">
					<stop  offset="0" style="stop-color:#000000"/>
					<stop  offset="4.349557e-02" style="stop-color:#020202"/>
					<stop  offset="6.841227e-02" style="stop-color:#0B0B0B"/>
					<stop  offset="8.864614e-02" style="stop-color:#191919"/>
					<stop  offset="0.1064" style="stop-color:#2C2C2C"/>
					<stop  offset="0.1225" style="stop-color:#464646"/>
					<stop  offset="0.1373" style="stop-color:#666666"/>
					<stop  offset="0.1513" style="stop-color:#8C8C8C"/>
					<stop  offset="0.1646" style="stop-color:#B7B7B7"/>
					<stop  offset="0.1768" style="stop-color:#E7E7E7"/>
					<stop  offset="0.1793" style="stop-color:#F2F2F2"/>
					<stop  offset="0.1929" style="stop-color:#E4E4E4"/>
					<stop  offset="0.2458" style="stop-color:#B2B2B2"/>
					<stop  offset="0.2999" style="stop-color:#878787"/>
					<stop  offset="0.3543" style="stop-color:#646464"/>
					<stop  offset="0.4091" style="stop-color:#494949"/>
					<stop  offset="0.4645" style="stop-color:#363636"/>
					<stop  offset="0.5207" style="stop-color:#2A2A2A"/>
					<stop  offset="0.5793" style="stop-color:#262626"/>
					<stop  offset="0.7135" style="stop-color:#1F1F1F"/>
					<stop  offset="0.911" style="stop-color:#0B0B0B"/>
					<stop  offset="1" style="stop-color:#000000"/>
				</linearGradient>
				<path class="st16" d="M94.4,39.9L94.4,39.9L94.4,39.9c-0.3,0-0.5-0.1-0.7-0.3c-1.2-0.9-4.7-3.6-5.2-5.9c-0.3-1.1,0.1-0.6-1-1.1
					c-0.3-0.1-0.6-0.2-0.9-0.4c0.1,0.1,0.2,0.1,0.3,0.2c0.2,0.1,0.3,0.2,0.4,0.3c0.4,0.4,0.5,0.8,0.5,0.9c0.2,1,0.8,2.4,2.1,3.8
					c1.1,1.3,3.4,3.2,3.9,3.5c0.3,0.2,0.6,0.4,0.9,0.7c0.1-0.8,0.4-1.6,0.7-2.4c-0.1,0.1-0.1,0.2-0.2,0.3
					C94.9,39.7,94.7,39.9,94.4,39.9z"/>
				
					<linearGradient id="SVGID_17_" gradientUnits="userSpaceOnUse" x1="87.914" y1="102.9838" x2="97.116" y2="109.0256" gradientTransform="matrix(1 0 0 -1 0 170)">
					<stop  offset="0" style="stop-color:#000000"/>
					<stop  offset="4.349557e-02" style="stop-color:#020202"/>
					<stop  offset="6.841227e-02" style="stop-color:#0B0B0B"/>
					<stop  offset="8.864614e-02" style="stop-color:#191919"/>
					<stop  offset="0.1064" style="stop-color:#2C2C2C"/>
					<stop  offset="0.1225" style="stop-color:#464646"/>
					<stop  offset="0.1373" style="stop-color:#666666"/>
					<stop  offset="0.1513" style="stop-color:#8C8C8C"/>
					<stop  offset="0.1646" style="stop-color:#B7B7B7"/>
					<stop  offset="0.1768" style="stop-color:#E7E7E7"/>
					<stop  offset="0.1793" style="stop-color:#F2F2F2"/>
					<stop  offset="0.1929" style="stop-color:#E4E4E4"/>
					<stop  offset="0.2458" style="stop-color:#B2B2B2"/>
					<stop  offset="0.2999" style="stop-color:#878787"/>
					<stop  offset="0.3543" style="stop-color:#646464"/>
					<stop  offset="0.4091" style="stop-color:#494949"/>
					<stop  offset="0.4645" style="stop-color:#363636"/>
					<stop  offset="0.5207" style="stop-color:#2A2A2A"/>
					<stop  offset="0.5793" style="stop-color:#262626"/>
					<stop  offset="0.7135" style="stop-color:#1F1F1F"/>
					<stop  offset="0.911" style="stop-color:#0B0B0B"/>
					<stop  offset="1" style="stop-color:#000000"/>
				</linearGradient>
				<path class="st17" d="M86.8,59.2c-1.2,0.4-1.3,0.8-1.3,1.4l0,0c0,0.5,0.2,1.4,0.8,2.1c0.6,0.9,3.5,4.2,6.8,8.2
					c0.4,0.5,0.5,0.6,0.8,0.9c-0.1-0.2-4.7-6-6.1-7.6c-0.4-0.5-0.9-1.1-0.9-1.9c0-0.8,0.6-2,1.9-2.5c1.7-0.6,4.9-1.7,5.6-2.1
					c0.7-0.4,0.9-0.6,1-1.1c-0.4,0.3-0.8,0.5-1.4,0.7C92.3,57.9,88.3,58.8,86.8,59.2z"/>
				<g>
					
						<linearGradient id="SVGID_18_" gradientUnits="userSpaceOnUse" x1="95.3151" y1="132.4" x2="107.3999" y2="132.4" gradientTransform="matrix(1 0 0 -1 0 170)">
						<stop  offset="0" style="stop-color:#4C4C4C"/>
						<stop  offset="0.2857" style="stop-color:#CCCCCC"/>
						<stop  offset="0.2991" style="stop-color:#C0C0C0"/>
						<stop  offset="0.3504" style="stop-color:#979797"/>
						<stop  offset="0.4006" style="stop-color:#767676"/>
						<stop  offset="0.4488" style="stop-color:#5F5F5F"/>
						<stop  offset="0.4939" style="stop-color:#515151"/>
						<stop  offset="0.533" style="stop-color:#4C4C4C"/>
						<stop  offset="0.7582" style="stop-color:#191919"/>
						<stop  offset="1" style="stop-color:#000000"/>
					</linearGradient>
					<path class="st18" d="M95.3,40.2c0.6-2.2,2.6-4.8,5.8-4.8c4,0,5.7,1.5,6.3,3.8c-0.7-3.2-3.5-4.2-6.3-4.2
						C98,35.2,95.9,37.8,95.3,40.2z"/>
				</g>
				
					<linearGradient id="SVGID_19_" gradientUnits="userSpaceOnUse" x1="46" y1="69.5" x2="73.8655" y2="69.5" gradientTransform="matrix(1 0 0 -1 0 170)">
					<stop  offset="0" style="stop-color:#000000"/>
					<stop  offset="5.118977e-02" style="stop-color:#020202"/>
					<stop  offset="8.051170e-02" style="stop-color:#0B0B0B"/>
					<stop  offset="0.1043" style="stop-color:#191919"/>
					<stop  offset="0.1252" style="stop-color:#2C2C2C"/>
					<stop  offset="0.144" style="stop-color:#464646"/>
					<stop  offset="0.1615" style="stop-color:#666666"/>
					<stop  offset="0.1777" style="stop-color:#8B8B8B"/>
					<stop  offset="0.1793" style="stop-color:#8F8F8F"/>
					<stop  offset="0.1944" style="stop-color:#878787"/>
					<stop  offset="0.2688" style="stop-color:#646464"/>
					<stop  offset="0.3444" style="stop-color:#494949"/>
					<stop  offset="0.4208" style="stop-color:#363636"/>
					<stop  offset="0.4984" style="stop-color:#2A2A2A"/>
					<stop  offset="0.5793" style="stop-color:#262626"/>
					<stop  offset="0.7135" style="stop-color:#1F1F1F"/>
					<stop  offset="0.911" style="stop-color:#0B0B0B"/>
					<stop  offset="1" style="stop-color:#000000"/>
				</linearGradient>
				<path class="st19" d="M69,98.8c0.5-0.6,2.6-2.9,4.8-5.4c-0.7,0.7-1.4,1.4-1.9,1.9c-3.1,3.2-4.5,4.2-4.5,6.2
					c0,1.2,0.1,4.1,0.1,4.5c0,0.3,0,0.6-0.5,0.8c-0.1,0.2-0.5,0.2-0.7,0.2c-0.9,0-9.1-0.8-12-0.8s-5.4,0.3-6.9,0.7
					c-0.2,0.1-0.9,0-1.1-0.4c-0.1-0.2-0.2-0.4-0.2-0.6c-0.1,0.7-0.1,1.3-0.1,1.6c0.5-0.1,1.7-0.3,3.3-0.4c2-0.2,4.3-0.1,5.8-0.1
					s12.9,0.6,12.9,0.6c-0.1-0.9-0.2-2.9-0.2-4.2c0-0.3,0-0.3,0-1.3S68,99.9,69,98.8z"/>
				
					<linearGradient id="SVGID_20_" gradientUnits="userSpaceOnUse" x1="81.4477" y1="80.2" x2="93.9106" y2="80.2" gradientTransform="matrix(1 0 0 -1 0 170)">
					<stop  offset="0" style="stop-color:#000000"/>
					<stop  offset="5.118977e-02" style="stop-color:#020202"/>
					<stop  offset="8.051170e-02" style="stop-color:#0B0B0B"/>
					<stop  offset="0.1043" style="stop-color:#191919"/>
					<stop  offset="0.1252" style="stop-color:#2C2C2C"/>
					<stop  offset="0.144" style="stop-color:#464646"/>
					<stop  offset="0.1615" style="stop-color:#666666"/>
					<stop  offset="0.1777" style="stop-color:#8B8B8B"/>
					<stop  offset="0.1793" style="stop-color:#8F8F8F"/>
					<stop  offset="0.1944" style="stop-color:#878787"/>
					<stop  offset="0.2688" style="stop-color:#646464"/>
					<stop  offset="0.3444" style="stop-color:#494949"/>
					<stop  offset="0.4208" style="stop-color:#363636"/>
					<stop  offset="0.4984" style="stop-color:#2A2A2A"/>
					<stop  offset="0.5793" style="stop-color:#262626"/>
					<stop  offset="0.7135" style="stop-color:#1F1F1F"/>
					<stop  offset="0.911" style="stop-color:#0B0B0B"/>
					<stop  offset="1" style="stop-color:#000000"/>
				</linearGradient>
				<path class="st20" d="M92,93.5c0.6,0.5,1.2,0.8,1.9,1c-0.5-0.4-1.3-0.9-2.3-1.7c-1.5-1.1-3.3-2.6-5.2-4.1
					c-1.6-1.3-3.2-2.5-4.5-3.6c0,0.5-0.3,0.7-0.4,0.8c0.3,0,0.6,0.2,0.8,0.5C82.9,86.9,90.5,92.4,92,93.5z"/>
				
					<linearGradient id="SVGID_21_" gradientUnits="userSpaceOnUse" x1="89.7919" y1="78.5" x2="112.6838" y2="78.5" gradientTransform="matrix(1 0 0 -1 0 170)">
					<stop  offset="0" style="stop-color:#000000"/>
					<stop  offset="5.118977e-02" style="stop-color:#020202"/>
					<stop  offset="8.051170e-02" style="stop-color:#0B0B0B"/>
					<stop  offset="0.1043" style="stop-color:#191919"/>
					<stop  offset="0.1252" style="stop-color:#2C2C2C"/>
					<stop  offset="0.144" style="stop-color:#464646"/>
					<stop  offset="0.1615" style="stop-color:#666666"/>
					<stop  offset="0.1777" style="stop-color:#8B8B8B"/>
					<stop  offset="0.1793" style="stop-color:#8F8F8F"/>
					<stop  offset="0.1944" style="stop-color:#878787"/>
					<stop  offset="0.2688" style="stop-color:#646464"/>
					<stop  offset="0.3444" style="stop-color:#494949"/>
					<stop  offset="0.4208" style="stop-color:#363636"/>
					<stop  offset="0.4984" style="stop-color:#2A2A2A"/>
					<stop  offset="0.5793" style="stop-color:#262626"/>
					<stop  offset="0.7135" style="stop-color:#1F1F1F"/>
					<stop  offset="0.911" style="stop-color:#0B0B0B"/>
					<stop  offset="1" style="stop-color:#000000"/>
				</linearGradient>
				<path class="st21" d="M112.3,103.3c0.3-0.2,0.4-0.2,0.4-0.4c0-0.1-0.1-0.4-0.2-0.8c-1.5-4.4-7.4-15.3-12-21.4
					c-0.4-0.6-0.7-1.4-0.7-1.9c0-0.7,0.4-1.2,0.7-1.5c0.3-0.3,1.1-0.9,2.1-1.9c-1.6,1.2-2.7,2.1-2.8,2.6c-0.1,0.2-0.2,0.5-0.2,0.9
					c0,0.5,0.2,1.1,0.8,2c0.4,0.5,0.7,1,1.1,1.5c5.3,7.8,9,15.4,10.4,18.9c0.3,0.9,0.2,1.3,0,1.7c0,0-2.8,2.8-3.1,3.4
					c-0.1,0.2-0.3,0.4-0.4,0.6c-0.2,0.2-0.7,0.3-1.1,0.2c-4.1-0.4-8.5-0.5-10.7-0.5c-2.9,0-4.6,0.3-5.5,0.3c-0.5,0-0.9-0.1-0.9-0.2
					l0,0c0,0.4-0.1,0.7-0.1,0.8c1.8-0.3,4.1-0.5,6.7-0.5c0.8,0,1.7,0,2.6,0c4.3,0.1,9.3,0.5,9.3,0.5
					C108.4,107.6,110.8,104.5,112.3,103.3z"/>
				
					<linearGradient id="SVGID_22_" gradientUnits="userSpaceOnUse" x1="44.7671" y1="100.8939" x2="68.6292" y2="100.8939" gradientTransform="matrix(1 0 0 -1 0 170)">
					<stop  offset="0" style="stop-color:#666666"/>
					<stop  offset="5.677869e-02" style="stop-color:#686868"/>
					<stop  offset="8.929446e-02" style="stop-color:#717171"/>
					<stop  offset="0.1157" style="stop-color:#7F7F7F"/>
					<stop  offset="0.1388" style="stop-color:#929292"/>
					<stop  offset="0.1596" style="stop-color:#ACACAC"/>
					<stop  offset="0.1787" style="stop-color:#CBCBCB"/>
					<stop  offset="0.1793" style="stop-color:#CCCCCC"/>
					<stop  offset="0.2072" style="stop-color:#BEBEBE"/>
					<stop  offset="0.3158" style="stop-color:#8C8C8C"/>
					<stop  offset="0.4268" style="stop-color:#616161"/>
					<stop  offset="0.5384" style="stop-color:#3E3E3E"/>
					<stop  offset="0.6508" style="stop-color:#232323"/>
					<stop  offset="0.7644" style="stop-color:#0F0F0F"/>
					<stop  offset="0.8798" style="stop-color:#040404"/>
					<stop  offset="1" style="stop-color:#000000"/>
				</linearGradient>
				<path class="st22" d="M68.6,71.3c-1.3-0.9-2.7-1.8-3.9-2.6c-1.6-1-3.2-1.7-3.7-1.7c-5-0.1-5-0.1-7.9-0.1c-2.3,0-4.5,0.1-5.3,0.2
					c-1.7,0.1-2.6,0.3-2.8,0.4c-0.2,0-0.3,0-0.3,0c0,0.1,0.1,0.2,0.1,0.3c0,0,0.1,0,0.2-0.1c1-0.3,3.4-0.4,6.3-0.4
					c2.8,0,5.8,0,7.4,0.1c1.4,0.1,3.4,0.3,5,1.1C65.3,69.2,68.5,71.5,68.6,71.3z"/>
				
					<linearGradient id="SVGID_23_" gradientUnits="userSpaceOnUse" x1="45.3" y1="115.3984" x2="53.7863" y2="115.3984" gradientTransform="matrix(1 0 0 -1 0 170)">
					<stop  offset="0" style="stop-color:#262626"/>
					<stop  offset="4.889391e-02" style="stop-color:#292929"/>
					<stop  offset="7.689206e-02" style="stop-color:#313131"/>
					<stop  offset="9.961990e-02" style="stop-color:#3F3F3F"/>
					<stop  offset="0.1195" style="stop-color:#535353"/>
					<stop  offset="0.1376" style="stop-color:#6C6C6C"/>
					<stop  offset="0.1543" style="stop-color:#8C8C8C"/>
					<stop  offset="0.1697" style="stop-color:#B1B1B1"/>
					<stop  offset="0.1793" style="stop-color:#CCCCCC"/>
					<stop  offset="0.2072" style="stop-color:#BEBEBE"/>
					<stop  offset="0.3158" style="stop-color:#8C8C8C"/>
					<stop  offset="0.4268" style="stop-color:#616161"/>
					<stop  offset="0.5384" style="stop-color:#3E3E3E"/>
					<stop  offset="0.6508" style="stop-color:#232323"/>
					<stop  offset="0.7644" style="stop-color:#0F0F0F"/>
					<stop  offset="0.8798" style="stop-color:#040404"/>
					<stop  offset="1" style="stop-color:#000000"/>
				</linearGradient>
				<path class="st23" d="M53.6,56.9c-1.9-1.8-4.8-3.8-6.1-4.1c-0.5-0.1-1.1-0.2-1.7-0.2c-0.4,0-0.4-0.5-0.5-0.6
					c0,0.1,0,0.8,0.3,0.8s1.4-0.1,2.3,0.3c1.3,0.6,4.5,3,5,3.5C53.5,57.4,54.1,57.3,53.6,56.9z"/>
				
					<linearGradient id="SVGID_24_" gradientUnits="userSpaceOnUse" x1="38.0387" y1="103.0873" x2="43.628" y2="103.0873" gradientTransform="matrix(1 0 0 -1 0 170)">
					<stop  offset="0" style="stop-color:#666666"/>
					<stop  offset="6.204497e-02" style="stop-color:#686868"/>
					<stop  offset="9.757580e-02" style="stop-color:#717171"/>
					<stop  offset="0.1264" style="stop-color:#7F7F7F"/>
					<stop  offset="0.1516" style="stop-color:#929292"/>
					<stop  offset="0.1743" style="stop-color:#ACACAC"/>
					<stop  offset="0.1793" style="stop-color:#B2B2B2"/>
					<stop  offset="0.182" style="stop-color:#B2B2B2"/>
					<stop  offset="0.3133" style="stop-color:#878787"/>
					<stop  offset="0.4469" style="stop-color:#646464"/>
					<stop  offset="0.5816" style="stop-color:#494949"/>
					<stop  offset="0.7176" style="stop-color:#363636"/>
					<stop  offset="0.856" style="stop-color:#2A2A2A"/>
					<stop  offset="1" style="stop-color:#262626"/>
				</linearGradient>
				<path class="st24" d="M42.8,66.4c0.4,0,0.5,0,0.8,0.1c-0.2-0.3-0.4-0.5-1-0.5c-0.9,0-3.1,1.1-3.5,1.4c-0.5,0.3-0.8,0.3-1.1-0.1
					c0.2,0.4,0.4,0.6,0.6,0.5C38.9,67.8,41.6,66.4,42.8,66.4z"/>
				
					<linearGradient id="SVGID_25_" gradientUnits="userSpaceOnUse" x1="67.4283" y1="137.6534" x2="68.0418" y2="136.3037" gradientTransform="matrix(1 0 0 -1 0 170)">
					<stop  offset="0" style="stop-color:#FFFFFF"/>
					<stop  offset="0.1154" style="stop-color:#EBEBEB"/>
					<stop  offset="0.9066" style="stop-color:#404040"/>
				</linearGradient>
				<path class="st25" d="M69.1,32c0.4-0.1,0.8-0.2,0.8,0.2c0,0.2,0,0.4-0.1,0.5c0,0.1-0.1,0.2-0.3,0.3c-0.4,0.1-2.9,1-3.3,1.2
					c-0.3,0.1-0.5,0-0.6-0.2s0-0.7,0.1-0.9c0.1-0.2,0.3-0.3,0.5-0.4C66.5,32.7,68.5,32.1,69.1,32z"/>
				<path d="M69,32.3c0.3,0,0.4,0,0.4,0.1c0,0.2,0,0.3,0,0.3c0,0.1,0,0.1-0.2,0.2c-0.3,0.1-2.1,0.7-2.5,0.9s-0.6,0.1-0.6-0.1
					s0-0.4,0.1-0.6c0.1-0.1,0.2-0.2,0.3-0.2C66.8,32.8,68.5,32.3,69,32.3z"/>
				
					<linearGradient id="SVGID_26_" gradientUnits="userSpaceOnUse" x1="59.7474" y1="123.7915" x2="82.3474" y2="123.7915" gradientTransform="matrix(1 0 0 -1 0 170)">
					<stop  offset="0.6868" style="stop-color:#FFFFFF"/>
					<stop  offset="0.7158" style="stop-color:#FAFAFA"/>
					<stop  offset="0.7521" style="stop-color:#EAEAEA"/>
					<stop  offset="0.7922" style="stop-color:#D1D1D1"/>
					<stop  offset="0.8351" style="stop-color:#ADADAD"/>
					<stop  offset="0.8803" style="stop-color:#7F7F7F"/>
					<stop  offset="0.9273" style="stop-color:#474747"/>
					<stop  offset="0.9751" style="stop-color:#070707"/>
					<stop  offset="0.9797" style="stop-color:#000000"/>
				</linearGradient>
				<path class="st26" d="M78.9,55.5c0.3-0.5,2.3-4.7,2.7-5.9c0.3-0.8,0.6-1.5,0.6-2.5c0-0.6-0.2-1.6-0.6-2.5
					c-1.1-2.3-4.5-6.6-5.9-8.3c-1.2-1.4-2.2-1.6-4.2-1.5c-5,0.1-9.4,2.3-11.9,3.3c1.8-0.6,6-2.4,10.8-2.6c2.6-0.2,3.7,0.1,4.6,1.1
					c1.4,1.5,4.6,5.9,5.8,8.1c0.5,0.9,0.7,1.7,0.6,2.3c-0.1,1-0.5,1.8-0.7,2.4c-0.5,1.2-2.4,4.9-2.7,5.5c-1.4,2.3-2.6,2.3-4,1.9
					c0.1,0,0.7,0.3,1.3,0.6C77,58.1,78,57.2,78.9,55.5z"/>
				
					<linearGradient id="SVGID_27_" gradientUnits="userSpaceOnUse" x1="58.2402" y1="67.8617" x2="66.611" y2="97.466" gradientTransform="matrix(1 0 0 -1 0 170)">
					<stop  offset="0" style="stop-color:#E5E5E5"/>
					<stop  offset="6.593400e-02" style="stop-color:#404040"/>
					<stop  offset="7.501830e-02" style="stop-color:#424242"/>
					<stop  offset="0.2588" style="stop-color:#6E6E6E"/>
					<stop  offset="0.3517" style="stop-color:#808080"/>
					<stop  offset="0.4902" style="stop-color:#9A9A9A"/>
					<stop  offset="0.6044" style="stop-color:#ABABAB"/>
					<stop  offset="0.7298" style="stop-color:#898989"/>
					<stop  offset="0.8783" style="stop-color:#666666"/>
					<stop  offset="0.9586" style="stop-color:#595959"/>
					<stop  offset="1" style="stop-color:#A6A6A6"/>
				</linearGradient>
				<path class="st27" d="M72.9,73.7c-0.1,0-0.3-0.2-0.6-0.4c-0.8,0.9-4.2,5.1-6.5,8.9c-1.8,2.8-4.4,7.1-4.8,8
					c-0.4,0.9-0.5,1.6-0.5,2.7l0.1,4.6c0,0.6-0.1,1-0.4,1.4c-0.3,0.4-0.8,0.5-1.4,0.6c-1.1,0.2-6.1,0.9-7.5,1.2
					c-1.3,0.3-1.9,0.9-2.2,1.8c-0.2,0.6-0.5,1.7-0.5,2.2v0.3c0,0.5,0.1,0.5,0.1,0.5s5.8-0.4,9.3-0.2c3.5,0.2,8.2,0.7,8.2,0.7
					s-5-0.9-8.4-1.2c-3.4-0.2-7.9,0.2-8,0c0-0.1-0.1-0.4-0.1-0.8c0.1-0.3,0.1-0.6,0.2-0.9c0.2-0.8,0.6-1.6,1.9-1.9
					c1.3-0.3,6.1-1.1,7.1-1.4c0.9-0.2,1.5-0.6,1.6-1.3c0-0.2,0.1-0.7,0.1-1.2c0-1-0.2-3.6-0.2-3.7c0-1.6,0.1-2.4,1.1-4.2
					c1.6-2.7,7.7-12,10.7-15.2c0.2-0.2,0.3-0.4,0.6-0.3C73,73.8,72.9,73.7,72.9,73.7z"/>
			</g>
		</g>
		<g>
			<path class="st28" d="M0,126.8v13.5h3.7v-4.2H7c7.2,0,10.8-2.3,10.8-4.8c0-2.7-3.9-4.5-10.5-4.5H0z M3.7,134.7v-6.4h2.9
				c3,0,7,0.5,7,3c0,1.7-1.3,3.4-7.5,3.4H3.7z"/>
			<path class="st28" d="M39.1,140.3v-1.7h-9.2c-2,0-2.5-0.9-2.5-2.4v-2h10.8v-1.7H27.4v-4h11.3v-1.7h-15v9.5c0,2.5,1.1,4,4.5,4
				C28.2,140.3,39.1,140.3,39.1,140.3z"/>
			<path class="st28" d="M62.9,126.8h-3.7v11.4c-1,0.4-2.4,0.7-4.4,0.7c-2.9,0-5.7-0.7-5.7-3.2v-8.8h-3.7v9.1c0,3.7,3.7,4.8,7.8,4.8
				c3.9,0,7.1-0.8,9.7-1.9C62.9,138.9,62.9,126.8,62.9,126.8z"/>
			<path class="st28" d="M73.3,133.6c0-3.8,3.2-5.5,7.1-5.5c3.2,0,5.6,0.9,8,1.7v-2.3c-2.5-0.7-4.8-1.1-8-1.1
				c-6.2,0-11.3,2.9-11.3,7.2c0,4.6,5.1,7.2,11.3,7.2c3.1,0,6.4-0.6,8.4-1.2v-5.4H85v4c-1.3,0.5-2.3,0.8-4.4,0.8
				C76.4,139,73.3,136.9,73.3,133.6"/>
			<path class="st28" d="M110.9,140.3v-1.7h-9.2c-2,0-2.5-0.9-2.5-2.4v-2H110v-1.7H99.2v-4h11.3v-1.7h-15v9.5c0,2.5,1.1,4,4.5,4
				C100,140.3,110.9,140.3,110.9,140.3z"/>
			<path class="st28" d="M127.1,126.4c-6.2,0-11.3,2.9-11.3,7.3c0,4.6,5.1,7.1,11.3,7.1s11.3-2.5,11.3-7.1
				C138.4,129.3,133.3,126.4,127.1,126.4 M127.1,139.2c-4.2,0-7.1-2.2-7.1-5.6c0-3.7,3.2-5.6,7.1-5.6s7.1,1.9,7.1,5.6
				C134.1,137,131.3,139.2,127.1,139.2"/>
			<polygon class="st28" points="141.4,128.7 148.9,128.7 148.9,140.3 152.6,140.3 152.6,128.7 160,128.7 160,126.8 141.4,126.8 			
				"/>
		</g>
	</g>
</g>
</svg>
