<?xml version="1.0" encoding="utf-8"?>
<!-- Generator: Adobe Illustrator 21.1.0, SVG Export Plug-In . SVG Version: 6.00 Build 0)  -->
<svg version="1.1" id="Layer_1" xmlns="http://www.w3.org/2000/svg" xmlns:xlink="http://www.w3.org/1999/xlink" x="0px" y="0px"
	 viewBox="0 0 1000 1000" style="enable-background:new 0 0 1000 1000;" xml:space="preserve">
<style type="text/css">
	.st0{fill:none;}
	.st1{fill:#C6C7C8;}
	.st2{fill:#FFCC00;}
	.st3{fill:#E2001A;}
	.st4{fill:#5D3D06;}
	.st5{fill:#DCCF71;}
</style>
<g>
	<title>background</title>
	<rect id="canvas_background" x="-1" y="-1" class="st0" width="1002" height="1002"/>
</g>
<g>
	<title>Layer 1</title>
	<g id="svg_47">
		<g id="svg_43">
			<path id="O" d="M224.4,904.4h88.2c4,0,7.2-3.2,7.2-7.2v-39.1c0-3.9-3.2-7.2-7.2-7.2h-88.2c-4,0-7.2,3.2-7.2,7.2v39.1
				C217.2,901.2,220.5,904.4,224.4,904.4L224.4,904.4L224.4,904.4z M230.1,861.3h77.4c1.3,0,2.4,1.1,2.4,2.4v27.9
				c0,1.3-1.1,2.4-2.4,2.4h-77.4c-1.3,0-2.4-1.1-2.4-2.4v-27.9C227.6,862.4,228.7,861.3,230.1,861.3L230.1,861.3L230.1,861.3z"/>
			<path id="P" d="M100.5,904.4h10.4v-12.8h84.6c4.2,0,7.6-3.4,7.6-7.6v-25.5c0-4.2-3.4-7.6-7.6-7.6h-84.6h-2.8h-7.6v7.6v25.5V904.4
				L100.5,904.4L100.5,904.4z M110.9,881.3v-19.9h2.8h68.2h7.6c1.8,0,3.2,1.4,3.2,3.2v13.6c0,1.8-1.4,3.2-3.2,3.2h-7.6h-68.2
				L110.9,881.3L110.9,881.3L110.9,881.3z"/>
			<path id="R" d="M333.5,904.4H344v-12.8h75.2l6.6,12.8H437l-6.7-13c3.4-0.8,5.9-3.8,5.9-7.4v-25.5c0-4.2-3.4-7.6-7.6-7.6H344h-2.8
				h-7.6v7.6v25.5V904.4L333.5,904.4L333.5,904.4z M344,881.3v-19.9h2.8H415h7.6c1.8,0,3.2,1.4,3.2,3.2v13.6c0,1.8-1.4,3.2-3.2,3.2
				H415h-68.2L344,881.3L344,881.3L344,881.3z"/>
			<polygon id="H" points="682.5,904.4 692.9,904.4 692.9,882.9 769.5,882.9 769.5,904.4 780,904.4 780,851 769.5,851 769.5,872.5 
				692.9,872.5 692.9,851 682.5,851 			"/>
			<path id="C" d="M577.4,904.4h89.4v-10.5c-0.3,0.1-0.5,0.1-0.8,0.1h-83c-1.3,0-2.4-1.1-2.4-2.4v-27.9c0-1.3,1.1-2.4,2.4-2.4h83
				c0.3,0,0.6,0.1,0.8,0.1V851h-89.4c-4,0-7.2,3.2-7.2,7.2v39.1C570.2,901.2,573.4,904.4,577.4,904.4L577.4,904.4L577.4,904.4z"/>
			<polygon id="E" points="796,904.4 802,904.4 806.4,904.4 899.5,904.4 899.5,894 806.4,894 806.4,882.9 899.5,882.9 899.5,872.5 
				806.4,872.5 806.4,861.3 899.5,861.3 899.5,851 806.4,851 802,851 796,851 			"/>
			<path id="S" d="M465.1,866.1v-2.4c0-1.3,1.1-2.4,2.4-2.4h83c0.3,0,0.6,0.1,0.8,0.1V851h-89.4c-4,0-7.2,3.2-7.2,7.2v3.2v4.8v9.6
				c0,3.9,3.2,7.2,7.2,7.2h7.6v0.1c0.3-0.1,0.5-0.1,0.8-0.1h68.2c1.3,0,2.4,1.1,2.4,2.4v4v2.4c0,1.3-1.1,2.4-2.4,2.4h-83
				c-0.3,0-0.6,0-0.8-0.1v10.5h89.4c4,0,7.2-3.2,7.2-7.2V894v-4.8v-9.6c0-4-3.2-7.2-7.2-7.2h-7.6v-0.1c-0.3,0.1-0.5,0.1-0.8,0.1
				h-68.2c-1.3,0-2.4-1.1-2.4-2.4L465.1,866.1L465.1,866.1L465.1,866.1z"/>
		</g>
		<g id="svg_44">
			<path id="svg_1" class="st1" d="M294.8,194.8c146.8-54.2,293.5-56.7,440.3-7.4c-0.6,88.7-1.2,177.5-1.9,266.2
				c-0.5,81.7-77.8,223.1-217.4,269.9c-144-37-219-189.2-219.2-271.7C296,366.1,295.4,280.4,294.8,194.8L294.8,194.8L294.8,194.8z"
				/>
			<path id="svg_2" class="st2" d="M255.4,158.3c162.3-60,324.7-62.7,487-8.2c-0.7,98.2-1.4,196.3-2,294.4
				c-0.6,90.3-86.1,246.8-240.4,298.5c-159.3-40.9-242.2-209.3-242.5-300.6C256.8,347.8,256.1,253,255.4,158.3L255.4,158.3
				L255.4,158.3z"/>
			<polygon id="svg_3" class="st3" points="592.3,373 741.4,373 741.4,441.2 592.3,441.2 			"/>
			<polygon id="svg_4" class="st3" points="496.5,246.2 741.4,246.2 741.4,314.3 496.5,314.3 			"/>
			<path id="svg_5" class="st3" d="M270.1,509.2h231.7v68.1H298C286.3,555.4,276.9,532.7,270.1,509.2L270.1,509.2L270.1,509.2z"/>
			<path id="svg_6" class="st3" d="M345.7,646h153.1v97.7C415.6,714.4,405.3,702.1,345.7,646L345.7,646z"/>
			<path id="svg_7" class="st4" d="M501.3,538.7c52.9,0,95.8-43.1,95.8-95.3V312H405.5v131.4C405.5,495.6,448.5,538.7,501.3,538.7
				L501.3,538.7L501.3,538.7z"/>
			<path id="svg_8" class="st4" d="M253.2,156.9l2.8-1c81.7-30.2,163.3-45.9,244.9-47.3c81.6-1.4,163.3,11.7,244.9,39.1l3,1l0,3.1
				c-0.7,98.1-1.4,196.3-2,294.4c-0.3,50.8-26.9,122-77.1,184.3c-40.5,50.3-96.5,94.9-166.3,118.3l-2.4,0.1
				c-70.6-18.1-126.4-60.9-166.9-111c-52.1-64.5-78.7-141.5-78.9-193.7c0,0,0,0,0,0v0c0,0,0,0,0,0c-0.3-47.4-0.7-94.7-1-142.1
				L253.2,156.9L253.2,156.9L253.2,156.9z M348.5,641.6h148.7v-59.7H306.5c-0.6-1-1.2-2.1-1.8-3.2c10.2,18.3,22.2,36.4,36.2,53.7
				C343.4,635.5,345.9,638.6,348.5,641.6L348.5,641.6z M497.3,649.1h-142c36.6,40.1,84.1,73.5,142,89.8L497.3,649.1L497.3,649.1
				L497.3,649.1z M354.7,648.6c-0.4-0.4-0.8-0.9-1.2-1.3C353.9,647.7,354.3,648.1,354.7,648.6L354.7,648.6z M352.3,645.9
				c-0.1-0.1-0.2-0.2-0.3-0.4C352.1,645.6,352.2,645.7,352.3,645.9L352.3,645.9z M302.3,574.4h194.9v-35.3c1.5,0.1,3.1,0.1,4.6,0.1
				c1,0,2,0,3,0v200c-0.2,0.1-0.4,0.1-0.5,0.2C570.8,716.2,624.1,673.3,663,625c48.3-59.9,74.2-128,75.1-177c0,0.2,0,0.3,0,0.4
				H597.6c0.1-1.5,0.1-3,0.1-4.6v-3h140.5c0.1-20.9,0.3-41.9,0.4-62.8h-141v-7.5h141c0.1-16.9,0.2-33.9,0.4-50.8H597.7v-7.3h-1v-0.2
				h142.4c0.1-20.4,0.3-40.9,0.4-61.3H502.8v61.6h-7.6v-124c-77.9,1.4-155.9,16.9-234.1,47.3l-0.2-8c80.5-31,160.8-46.3,241-46.9
				c79.5-0.6,158.8,13.2,237.9,40.5c0,2.6,0,5.3-0.1,7.9c0.2-24.9,0.3-49.7,0.5-74.6c-79.7-26.4-159.4-39-239.1-37.6
				c-80.7,1.4-161.4,16.9-242.1,46.7l3.9,138.1c0.3,46.4,0.7,92.8,1,139.2c0,0,0-0.1,0-0.1h142.2v3c0,1.5,0,3.1,0.1,4.6H264
				c0,0,0,0,0-0.1c0.5,17.6,4.1,37.8,10.5,59.3c-0.1-0.2-0.1-0.4-0.2-0.6h156.1c1.3,1.5,2.7,2.9,4.2,4.4l4.8,3.2H276.6
				C282.9,534,291.5,554.3,302.3,574.4L302.3,574.4L302.3,574.4z M304.6,578.5c0-0.1-0.1-0.2-0.1-0.2
				C304.5,578.4,304.5,578.4,304.6,578.5L304.6,578.5z M304.3,578c-0.1-0.2-0.2-0.4-0.4-0.7C304.1,577.6,304.2,577.8,304.3,578
				L304.3,578z M303.1,575.8c0-0.1-0.1-0.1-0.1-0.2C303,575.7,303.1,575.7,303.1,575.8L303.1,575.8z M276.2,513.4
				c-0.1-0.4-0.3-0.8-0.4-1.2C276,512.6,276.1,513,276.2,513.4L276.2,513.4z M275.3,510.5c-0.2-0.5-0.3-0.9-0.4-1.4
				C275,509.6,275.2,510.1,275.3,510.5L275.3,510.5z M263.9,446.6c0-0.1,0-0.1,0-0.2C263.9,446.5,263.9,446.5,263.9,446.6
				L263.9,446.6z M263.9,441.8C263.9,441.8,263.9,441.7,263.9,441.8C263.9,441.7,263.9,441.8,263.9,441.8L263.9,441.8z M738.2,442.6
				c0,0.1,0,0.2,0,0.2C738.2,442.7,738.2,442.6,738.2,442.6L738.2,442.6z M738.2,443.7c0,0.1,0,0.3,0,0.4
				C738.2,444,738.2,443.8,738.2,443.7L738.2,443.7z M738.2,444.2c0,0.1,0,0.2,0,0.2C738.2,444.3,738.2,444.3,738.2,444.2
				L738.2,444.2z M738.2,445.5c0,0.1,0,0.1,0,0.2C738.2,445.6,738.2,445.6,738.2,445.5L738.2,445.5z M738.2,445.8c0,0.1,0,0.2,0,0.3
				C738.2,446,738.2,445.9,738.2,445.8L738.2,445.8z M738.2,446.1c0,0,0,0.1,0,0.1C738.2,446.2,738.2,446.1,738.2,446.1L738.2,446.1
				z M738.2,445.5C738.2,445.5,738.2,445.5,738.2,445.5C738.2,445.4,738.2,445.4,738.2,445.5c0-0.1,0-0.1,0-0.2c0,0,0-0.1,0-0.1
				c0,0,0,0,0,0c0,0,0,0,0-0.1c0,0,0,0,0,0c0,0,0,0,0-0.1c0,0,0-0.1,0-0.1c0,0,0,0,0,0L738.2,445.5L738.2,445.5z M738.2,444.7
				C738.2,444.7,738.2,444.7,738.2,444.7c0-0.1,0-0.2,0-0.2c0,0,0,0,0,0c0,0,0-0.1,0-0.1V444.7L738.2,444.7L738.2,444.7z
				 M738.2,441.5C738.2,441.5,738.2,441.5,738.2,441.5c0-0.1,0-0.2,0-0.2c0,0,0,0,0,0c0,0,0-0.1,0-0.1v0V441.5L738.2,441.5
				L738.2,441.5z M739.1,313.3C739.1,313.3,739.1,313.4,739.1,313.3C739.1,313.4,739.1,313.3,739.1,313.3L739.1,313.3z M502.8,243.4
				h236.8c0,1.3,0,2.5,0,3.8c0-5.9,0.1-11.9,0.1-17.8c-78.8-27.5-157.8-41.4-236.9-40.9L502.8,243.4L502.8,243.4L502.8,243.4z
				 M739.5,247.2c0,0.6,0,1.2,0,1.8C739.5,248.4,739.5,247.8,739.5,247.2L739.5,247.2z M739.5,249.3c0,0.1,0,0.1,0,0.2
				C739.5,249.5,739.5,249.4,739.5,249.3L739.5,249.3z M739.5,249.6c0,0.4,0,0.8,0,1.3C739.5,250.4,739.5,250,739.5,249.6
				L739.5,249.6z M504,739.5C504,739.5,504,739.5,504,739.5C504,739.5,504,739.5,504,739.5L504,739.5z M502.3,740
				C502.3,740,502.3,740,502.3,740C502.3,740,502.3,740,502.3,740L502.3,740z M502.3,740.1c-0.1,0-0.2,0.1-0.4,0.1
				C502,740.1,502.1,740.1,502.3,740.1L502.3,740.1z M499.3,739.5c-0.6-0.2-1.1-0.3-1.7-0.5C498.2,739.2,498.7,739.3,499.3,739.5
				L499.3,739.5z M504.1,739.4C504.2,739.4,504.2,739.4,504.1,739.4c0.1,0,0.1,0,0.1-0.1L504.1,739.4L504.1,739.4L504.1,739.4z"/>
			<path id="svg_9" class="st4" d="M564.4,564.2l0.1,0.6l1.3-0.5c4-1.5,7.9-3,12-4.2c0.4-6,1.3-12.1,3.5-17.8
				c0.7-1.7,1.5-3.2,2.4-4.8c0.9-1.5,1.9-2.9,3-4.3c0.7-0.8,1.4-1.5,2.1-2.2c1.3-1.1,2.5-2.1,4-2.9c0.9-0.5,1.7-0.8,2.7-1.2
				c1-0.3,1.9-0.5,2.9-0.7l2-0.1c2.4,0.2,4.8,0.7,6.8,2.1l0.5,0.6l0.4,0.6l0.3,0.7l0.2,0.8l0,1l-0.6,1.3l-1,0.7l-1.9,0.9
				c-0.8,0.5-1.5,1-2.2,1.6c-0.7,0.7-1.4,1.4-2,2.2c-0.9,1.2-1.7,2.5-2.5,3.8c-0.9,1.5-1.8,3.1-2.5,4.8c-0.5,1.3-0.8,2.6-1.2,4
				c-0.4,2.1-0.8,4.3-0.4,6.3c1.1-0.2,2.2-0.4,3.4-0.5c2.5-0.2,5-0.2,7.4-0.4c0.9-4.3,2.6-8.3,4.6-12.2c1.2-2.3,2.5-4.7,4-6.8
				c0.8-1,1.6-1.9,2.5-2.8c1-0.9,1.9-1.7,3-2.4c1.1-0.7,2.2-1.3,3.4-1.9c0.9-0.4,1.8-0.7,2.8-1c1-0.2,1.9-0.4,3-0.5
				c1-0.1,2-0.1,3.1,0c1.1,0.1,2.1,0.3,3.1,0.6c1.1,0.4,2.1,0.8,3.1,1.2l1.1,0.6l0.6,0.5l0.5,0.6l0.3,0.6l0.2,0.7l0.1,0.9l-0.2,1.1
				l-0.8,1.2l-1.1,0.5c-1.1,0.3-2.2,0.6-3.2,1c-0.9,0.4-1.7,0.8-2.5,1.3c-0.8,0.5-1.4,1-2.1,1.6c-0.6,0.6-1.2,1.1-1.8,1.8
				c-1.4,1.7-2.7,3.6-3.8,5.5c-0.8,1.4-1.5,2.8-2.1,4.3c-0.1,0.5-0.3,1-0.3,1.6c3.9,0,7.8,0.7,11.7,1.5l1,0.2c0.9-1.6,2-2.9,3.3-4.2
				c0.9-0.9,1.7-1.9,2.5-2.8c0.7-0.7,1.5-1.4,2.2-2.1c1.3-1,2.6-1.9,4.1-2.7c0.9-0.4,1.7-0.8,2.6-1.1c1.2-0.4,2.3-0.7,3.5-0.8
				c0.9-0.1,1.7-0.1,2.7-0.1l1.7,0.3c0.9,0.2,1.7,0.5,2.5,0.9l1.5,1l1.3,1.3c0.8,1,1.4,2,1.9,3.1l0.2,1.3l-0.1,0.8l-0.3,1l-1,1.1
				c-1,0.2-2,0.4-3,0.6l-1.3,0.4c-2.1,0.7-4,1.5-5.7,3c-0.6,0.5-1.1,1.1-1.6,1.7c-0.8,0.9-1.5,1.9-2,3c2,1.6,3.8,3.2,5.6,5l1.9,2.3
				c0.9,1.2,1.7,2.4,2.5,3.7l1.3,2.7c0.8,2.1,3,17,0.1,16.8c-0.5,0-4.3-4-4.9-4.8c-1.1-1.3-2.2-2.5-3.3-3.7
				c-1.1-1.1-2.3-2.1-3.5-3.1c-1.2-0.9-2.4-1.8-3.7-2.6c-1.3-0.8-2.6-1.4-4-2.1c-1.4-0.6-2.8-1.1-4.3-1.6c-1.5-0.5-3-0.9-4.6-1.2
				c-1.7-0.3-3.3-0.6-5-0.8c-2.4-0.3-4.8-0.4-7.3-0.5c-2.7,0-5.3,0-8,0.1c-8.6,0.5-17.1,1.5-25.5,3c-3,0.6-6,1.3-9,2.1
				c-3,0.8-5.8,1.8-8.7,2.8c-3.8,1.4-7.4,3-11.1,4.7c-4.1,2-8.1,4-12.2,6.1c0.7,0.8,1.3,1.9,1.9,2.8l0.6,1.4l0.4,1.4l0.2,1.4
				l0.1,1.4l-0.1,1.3l-0.3,1.3l-0.4,1.2l-0.6,1.1l-0.7,1l-0.8,0.9l-0.9,0.8l-1,0.7l-1.1,0.6l-1.1,0.4l-1.2,0.3l-1.2,0.1l-1.3,0
				l-1.3-0.2l-1.2-0.4l-1.2-0.6l-1.2-0.7l-1.1-0.9l-1-1.1c-0.6-0.9-1.3-1.8-1.7-2.7L530,603l-1.4,1.1l-1.4,0.9l-1.4,0.7l-1.4,0.5
				l-1.4,0.3l-1.4,0.1l-1.4-0.1l-1.3-0.3l-1.2-0.5l-1.1-0.6l-1-0.8l-0.9-0.9l-0.8-1l-0.6-1.1l-0.5-1.1l-0.4-1.2l-0.2-1.2l-0.1-1.3
				l0.1-1.3l0.2-1.3l0.4-1.3l0.6-1.2l0.8-1.2l0.9-1.1l1.1-1l1.3-0.9l0.8-0.4c-1.2-1.5-2.1-3.2-2.9-5l-0.5-1.5l-0.3-1.5l-0.1-1.5
				l0.1-1.4l0.3-1.3l0.5-1.2l0.7-1.1l0.8-1l0.9-0.8l1-0.7l1.1-0.6l1.2-0.4l1.2-0.2l1.3-0.1l1.3,0.1l1.3,0.2l1.3,0.4l1.3,0.5l1.3,0.7
				l1.2,0.8l1.2,1l1.1,1.1l1,1.3c0.6,1,1.3,2,1.8,3.1c4-2.1,8.2-3.7,12.4-5.3c-0.2-2.3-0.6-4.5-1-6.7c-0.4-2.1-0.6-4.2-0.7-6.4
				l0.1-2.6l0.2-1.3l0.3-1.3l0.7-2.1l0.8-1.9l0.9-1.8l1-1.7l1-1.5l1.1-1.4l1.2-1.3l1.3-1.2l1.3-1l1.4-0.9l1.4-0.8l1.4-0.7l1.5-0.6
				l1.5-0.4l1.5-0.3l2.3-0.3l1.3,0.7l0.6,0.6l0.4,0.6l0.3,0.6l0.2,0.8l0,1l-0.4,1.2l-1.2,1.2c-1.1,1.3-1.9,2.6-2.7,4.2l-0.6,1.6
				c-0.8,2.3-1.2,4.7-1.5,7.1C563.8,558.5,563.9,561.3,564.4,564.2L564.4,564.2L564.4,564.2z"/>
			<path id="svg_10" class="st4" d="M607.8,472.4l2-2.7l2.3-2.5l2.5-2.2l2.7-1.9l1.4-0.8l1.5-0.7l1.5-0.6l1.6-0.5l1.6-0.4l1.7-0.3
				l1.7-0.1h1.7l1.8,0.2l1.8,0.3c1.5,0.4,3,0.7,4.4,1.5l0.6,0.5l0.5,0.6l0.4,0.7l0.2,0.9l-0.1,1.3l-0.8,1.4l-1,0.6
				c-1.8,0.6-3.2,1.9-4.6,3.1c-1.4,1.3-2.7,2.6-3.9,4.1c-0.8,1-1.5,2.1-2.2,3.2c-1.3,2.2-2.6,5-2,7.6c4,0.1,8.1,0,12.1,0.1
				c0.4-1.5,0.9-2.9,1.5-4.3l1.4-3l1.6-2.8l1.9-2.6l2.1-2.4l2.3-2.1l2.5-1.9l2.7-1.6l2.8-1.2l3-0.8l3.1-0.5l3.2,0l1.7,0.1l1.7,0.3
				l3.4,0.9c1.4,0.5,2.9,1,4.2,1.8l0.6,0.6l0.5,0.7l0.3,0.8l0.2,1l-0.3,1.3l-1,1.2l-1.1,0.4c-0.9,0.2-1.7,0.4-2.6,0.7
				c-4.1,1.7-7.7,4.3-10.8,7.4c-2,2.1-4,4.5-4.5,7.5l1.2,0.3c4,1.1,7.9,2.6,11.7,4.4c1-1.6,2.1-2.9,3.4-4.2c1.2-1.2,2.4-2.4,3.6-3.5
				c0.9-0.7,1.8-1.3,2.8-2c1-0.6,2-1,3.1-1.5c1.1-0.4,2.1-0.8,3.2-1.1c1.5-0.4,2.9-0.6,4.4-0.7c1.1-0.1,2.1-0.1,3.3,0
				c1.1,0.1,2.1,0.2,3.1,0.4c1,0.3,2,0.5,3,0.9l1.8,0.9c0.9,0.6,1.6,1.1,2.4,1.8c0.9,1,1.7,2,2.3,3.2l0.2,0.7l0.1,0.7l-0.1,0.9
				l-0.4,1.1l-1.1,1.1l-1.2,0.3c-1.2,0-2.4,0-3.6,0c-1.7,0.1-3.3,0.3-5,0.8c-1,0.3-1.8,0.6-2.8,1l-1.8,1c-1.1,0.8-2.3,1.5-3.1,2.6
				c-0.8,1.1-1.6,2.3-2.3,3.5c1.4,1,2.7,2,4,3.1c1,0.9,1.9,1.9,2.8,2.9c0.9,1,1.6,2.1,2.4,3.2l1.2,2.3c0.5,1.2,0.8,2.5,1.2,3.7
				c1.8,6.6,2.2,14.3,0.1,14.5c-2.2,0.2-6.9-7.2-10.3-10.2l-3.1-2.4c-1.7-1.2-3.5-2.3-5.3-3.3c-2-1.1-3.9-2-6-3
				c-2.2-0.9-4.3-1.8-6.5-2.6c-2.3-0.8-4.7-1.5-7-2.1c-2.5-0.6-4.9-1.1-7.4-1.6c-2.6-0.4-5.1-0.8-7.7-1.1c-2.6-0.3-5.3-0.4-7.9-0.6
				l-5.4,0c-2.7,0.1-5.4,0.2-8.1,0.5c-4.5,0.5-9,1.2-13.5,2c-5.3,1-10.6,2.1-15.8,3.5c-4.5,1.2-9,2.5-13.4,4.1
				c-4.2,1.5-8.4,3.1-12.5,4.8l-16.4,7.2l14-12.8c2.2-2.1,4.3-4.3,6.3-6.7c1.7-2,3.3-4.1,4.9-6.2l1.3-1.8c5.7-1.9,11.5-3.8,17.3-5.5
				c2.2-0.7,4.5-1.3,6.7-1.9c0.2-1.5,0.5-2.9,0.9-4.4c0.5-1.6,1-3.2,1.6-4.7l1.4-3.1C606,475.2,606.9,473.8,607.8,472.4L607.8,472.4
				L607.8,472.4z M536.3,539.2l0.5,2.1l0.1,2l-0.3,1.9l-0.6,1.7l-0.9,1.5l-1.2,1.3l-1.4,1l-1.7,0.6l-1.8,0.2l-1.8-0.4l-1.7-0.9
				l-1.4-1.3l-0.3-0.4l-0.9,0.6l-1.9,0.9l-1.9,0.5l-1.9,0l-1.7-0.4l-1.5-0.8l-1.3-1.1l-1-1.3l-0.7-1.4l-0.5-1.5l-0.1-1.6l0.2-1.6
				l0.6-1.6l0.9-1.5l1.7-1.7c2.9-0.5,5.7-1,8.6-1.7c4-1,7.9-2.2,11.7-3.7l14.1-5.5l-11.6,10.6c-0.4,0.4-0.8,0.8-1.2,1.2L536.3,539.2
				L536.3,539.2L536.3,539.2z"/>
			<path id="svg_11" class="st4" d="M551.1,642.8c1.2-0.7,2.3-1.5,3.6-2.1c-0.6-2.7-0.7-5.4-0.7-8.2c0.1-1.5,0.2-3,0.5-4.4
				c0.3-1.5,0.6-2.8,1.1-4.3l1-2.7c0.6-1.3,1.2-2.5,2-3.7l1.7-2.2l1.9-1.9l1.1-0.8l1.1-0.8l1.2-0.7l1.3-0.6l1.3-0.4l1.4-0.3l1.4-0.2
				l1.4,0l1.5,0.1l2.1,0.4l0.9,0.7c0.4,0.5,0.7,0.9,1,1.5l0.2,0.6l0.1,0.8l-0.3,1.3l-0.9,0.9l-2.1,1.3c-0.8,0.6-1.4,1.2-2.1,1.9
				c-0.6,0.7-1.2,1.5-1.7,2.3c-0.5,0.8-0.9,1.7-1.3,2.5c-0.6,1.5-1,2.9-1.4,4.5c-0.2,0.9-0.3,1.8-0.4,2.6c-0.1,1.6-0.2,3.4,0.2,4.9
				c1.4-0.4,2.8-0.9,4.2-1.3c2.3-0.7,4.5-1.3,6.9-1.7l0.8-3.3l1.1-3.3l1.4-3l1.6-2.7l1.8-2.5l2-2.2l2.2-1.9c1.1-0.8,2.2-1.6,3.4-2.3
				l2.4-1.1l3.6-1.1l2.4-0.4l2.4,0l2.3,0.4l1.1,0.3l1.1,0.4l1.2,0.6l0.6,0.6l0.7,1.1l0.4,1.3c0.6,2.7-2.2,1-4.9,3.3
				c-2.5,1-4.5,2.9-6.4,4.7c-1.5,1.6-2.8,3.2-4.1,5c-1,1.6-2.1,3.4-2.1,5.3c1.5,0.1,3,0.4,4.5,0.7c1.7,0.4,3.4,0.9,5.1,1.3
				c0.6-1.7,1.5-3.2,2.5-4.7c0.7-0.9,1.4-1.8,2.3-2.7c0.8-0.8,1.7-1.6,2.6-2.3c0.9-0.7,1.9-1.3,2.8-1.9c1-0.5,2-1,3-1.4
				c1-0.4,2-0.6,3.1-0.9l2.1-0.2l2.1,0.1l1,0.2l1,0.3l1,0.4l0.9,0.6c1.6,1.2,4.2,2.8,4.5,3.9c0.4,1.8-2.7,2.9-5.8,3.9
				c-1,0.4-1.9,0.8-2.8,1.4l-1.8,1.3l-1.7,1.7l-1.4,2l-0.6,1.1l-0.5,1.2l-0.5,1.3l-0.3,1.1c1.5,0.8,2.8,1.9,4.1,3.1l1.4,1.5l1.2,1.6
				l0.9,1.6l0.7,1.5l0.5,1.5l0.3,1.4l0.1,1.3v1.2c-0.4,2.5-1.4,6.7-2.4,6.4c-2.1-0.5-4.9-5.6-6.7-7.5l-2.3-1.8l-2.5-1.5l-2.7-1.2
				c-1.5-0.5-2.9-0.9-4.4-1.3c-1.6-0.3-3.2-0.6-4.8-0.8c-1.7-0.2-3.4-0.3-5.1-0.3c-1.7,0-3.5,0-5.2,0.1c-3.6,0.2-7.1,0.6-10.6,1.1
				c-3.1,0.5-6.3,1-9.3,1.8c-5.9,1.6-11.2,4.5-16.3,7.8c-3.5,2.3-6.9,4.8-9.9,7.7c1.5,0.9,2.8,2.1,4,3.4l0.9,1.2l0.7,1.2l0.6,1.2
				l0.4,1.3l0.2,1.3l0,1.2l-0.2,1.2l-0.3,1.1l-0.5,1.1l-0.6,1l-0.7,0.9l-0.9,0.8l-1,0.6l-1.1,0.5l-1.1,0.3l-1.2,0.1l-1.2,0l-1.2-0.2
				l-1.3-0.4l-1.2-0.6l-1.2-0.8l-1.1-0.9c-0.9-0.9-1.8-1.9-2.5-3c-0.8,1.1-1.7,2.1-2.6,3.2l-1.3,1.2l-1.3,1l-1.3,0.9l-1.3,0.7
				l-1.4,0.5l-1.3,0.3l-1.3,0.1l-1.3-0.1l-1.2-0.3l-1.1-0.5l-1-0.7l-0.9-0.8l-0.7-0.9l-0.6-1l-0.5-1.1l-0.3-1.1l-0.2-1.2l0-1.2
				l0.1-1.2l0.3-1.2l0.4-1.2l0.6-1.2l0.8-1.1l0.9-1.1l1.1-1l0.6-0.5c-1.4-1.3-2.5-2.7-3.6-4.3l-0.8-1.3l-0.6-1.3l-0.4-1.3l-0.2-1.3
				l-0.1-1.3l0.1-1.2l0.3-1.2l0.5-1.1l0.7-1l0.8-0.8l0.9-0.7l1-0.5l1.1-0.4l1.1-0.2l1.2-0.1l1.2,0.1l1.2,0.2l1.2,0.4l1.2,0.5
				l1.2,0.7l1.1,0.8l1.1,0.9l1,1.1l0.9,1.2l0.6,0.9c1.6-1.5,3.2-2.9,4.9-4.3c-1.3-2.5-2.1-5.2-2.7-8c-0.2-1.3-0.3-2.5-0.4-3.7
				c0-1.2,0-2.4,0.1-3.6c0.1-1.1,0.3-2.3,0.5-3.4c0.3-1.1,0.6-2.1,1-3.1c0.4-1,0.9-1.8,1.4-2.7l1.2-1.6c0.7-0.8,1.4-1.3,2.2-2
				l1.7-0.9l0.9-0.3l1.9-0.4l1.3,0.8l0.5,0.5l0.6,1l0.2,0.6l0.1,0.8l-0.2,1.1c-0.3,0.4-0.5,0.7-0.6,1.1c-0.1,0.4-0.2,0.9-0.3,1.3
				c-0.7,3.4-0.7,6.8-0.2,10.2c0.3,1.6,0.7,3.2,1.5,4.5l0.7-0.5C549.1,644.1,550.1,643.4,551.1,642.8L551.1,642.8L551.1,642.8z"/>
			<path id="svg_12" class="st4" d="M318.9,378.7c-0.2,1-0.5,2.1-0.7,3.1c-0.2,2.9,0.7,6,2.2,8.4c1.6-0.8,3.2-1.6,4.9-2.4
				c2-0.8,4-1.4,5.9-2.1c-1.3-5.8-1.1-12.1,0.6-17.8c0.4-1.1,0.8-2.2,1.2-3.3l0.9-1.8l1-1.7l1.1-1.6l1.2-1.4l1.2-1.3l1.3-1.1l1.3-1
				l1.4-0.9l1.5-0.7l1.5-0.6l1.5-0.4l1.6-0.3l1.6-0.1l1.6,0l1.6,0.1l1.8,0.3l0.8,0.3l0.6,0.4l0.5,0.5l0.4,0.6l0.3,0.9l0.1,1.2
				l-0.6,1.4l-1,0.7l-1.2,0.6c-1.9,1-3.5,2.3-5.1,3.9c-0.8,0.8-1.4,1.7-2.1,2.6c-0.6,1-1.1,2.1-1.6,3.2c-0.3,0.9-0.5,1.8-0.7,2.8
				c-0.1,1.1-0.2,2.1-0.2,3.2l0.2,2.4c0.3,1.5,0.6,3,1.1,4.5c2-0.7,3.9-1.4,5.9-2c2.1-0.6,4.2-1.1,6.3-1.6c0.2-2,0.3-4,0.6-6
				c0.4-4,1-8,2.6-11.7c0.7-1.5,1.6-2.8,2.5-4.1c1-1.2,2-2.3,3.1-3.4c1.1-1,2.3-1.9,3.5-2.8c1.2-0.8,2.4-1.5,3.7-2.2
				c0.9-0.4,1.9-0.8,2.8-1.2c1.6-0.5,3.1-0.9,4.7-1.2c1.2-0.2,2.4-0.3,3.6-0.3l1.7,0.2c1.1,0.2,2.1,0.5,3.1,1l0.6,0.5l0.5,0.6
				l0.4,0.7l0.2,1l-0.1,1.3l-0.8,1.3c-0.9,0.5-1.8,1.1-2.7,1.6c-1.7,1-3.3,2.1-4.8,3.3c-0.8,0.7-1.4,1.4-2.1,2.1
				c-1.2,1.4-2.2,2.8-3.1,4.3c-1.1,1.9-2.1,3.8-2.9,5.9l-0.7,2.2c-0.3,1-0.5,2-0.6,3c5.8-0.7,11.6-0.9,17.4-0.8l5.7-10
				c0.7-1,1.5-1.8,2.4-2.6l1.5-1.1c1.1-0.6,2.3-1.2,3.5-1.7v30.1c-1.2,0-2.3-0.1-3.5-0.1c-6.2-0.1-12.4,0.3-18.6,1
				c-4.4,0.6-8.7,1.3-13,2.3c-8.7,2-17.3,4.3-25.7,7.3c-3.3,1.2-6.6,2.6-9.8,4.1c-8.3,3.9-16.2,8.3-24.3,12.7
				c0.9,0.9,1.7,1.8,2.5,2.9l0.7,1.2l0.6,1.2l0.4,1.2l0.2,1.2l0.1,1.2l-0.1,1.2l-0.2,1.2l-0.4,1.1l-0.5,1l-0.6,1l-0.8,0.9l-0.8,0.8
				l-0.9,0.7l-1,0.5l-1.1,0.4l-1.2,0.3l-1.2,0.1l-1.2,0l-1.2-0.2l-1.3-0.3l-1.2-0.5l-1.2-0.7c-1.3-0.9-2.5-1.8-3.5-3l-1,1l-1.6,1.3
				l-1.6,1.1l-1.6,0.9l-1.6,0.7l-1.6,0.5l-1.5,0.3l-1.5,0.1l-1.4-0.1l-1.4-0.3l-1.3-0.5l-1.1-0.7l-1-0.8l-0.9-0.9l-0.7-1l-0.6-1.1
				l-0.5-1.2l-0.3-1.2l-0.2-1.3v-1.3l0.2-1.3l0.3-1.3l0.5-1.3l0.7-1.2l0.8-1.2l1-1.1l1.2-1l1.3-0.9l1.2-0.6
				c-0.9-1.4-1.5-3.1-2.1-4.7l-0.3-1.5l-0.1-1.4l0-1.4l0.2-1.3l0.4-1.3l0.5-1.2l0.6-1.1l0.8-1l0.9-0.8l1-0.7l1-0.6l1.1-0.5l1.2-0.3
				l1.2-0.2l1.2,0l1.2,0.1l1.2,0.3l1.2,0.4l1.2,0.6l1.1,0.8l1,0.9l0.9,1l0.9,1.2l0.8,1.3l0.4,1c2.4-1.5,4.9-2.9,7.3-4.3
				c-2.6-5-4.2-10.6-4.3-16.2c0-1.2,0.1-2.4,0.2-3.6c0.3-1.9,0.9-3.6,1.6-5.4l0.8-1.8l0.9-1.7l1-1.6l1.1-1.4l1.2-1.3l1.3-1.2l1.4-1
				l1.4-0.9l1.5-0.7l1.6-0.6l1.6-0.4l1.7-0.3l1.7-0.1l2,0l0.9,0.3l0.7,0.4l0.6,0.5l0.5,0.6l0.4,0.8l0.2,1.1l-0.4,1.4l-0.8,0.8
				l-1.9,1.4c-0.7,0.6-1.2,1.2-1.7,1.9l-0.9,1.4C320,374,319.4,376.3,318.9,378.7L318.9,378.7L318.9,378.7z"/>
			<path id="svg_13" class="st4" d="M322.1,310.1c-0.7,1.8-1,3.7-1.5,5.6c-0.4,1.3-0.8,2.6-1.4,3.9c-0.7,1.9-1.1,3.9-1.1,5.9
				c0,0.6,0.1,1.6,0.6,2c0.2,0.1,0.4,0.2,0.6,0.2c2.1-0.9,4-1.8,6-2.7c1.8-0.8,3.6-1.3,5.5-1.8c0.1-2.5,0.2-5.1,0.4-7.6
				c0.4-3.8,0.9-7.7,2.4-11.2c0.5-1.1,1.1-2.2,1.8-3.3c1.1-1.7,2.3-3.2,3.7-4.7c0.9-0.9,1.8-1.7,2.8-2.5c0.8-0.5,1.5-1,2.3-1.5
				c1.3-0.7,2.7-1.3,4.1-1.8c0.9-0.2,1.7-0.4,2.6-0.6c1.5-0.2,2.9-0.2,4.4-0.1c1,0.1,2,0.3,2.9,0.5l0.8,0.4l1.1,1l0.8,1.2l0.4,0.9
				l0.1,1.9l-1.4,1.4c-0.7,0.3-1.4,0.5-2,0.9c-3.4,2-6,5.1-8,8.5c-1.7,3-3,6.7-2.3,10.2c1.8-0.4,3.6-0.9,5.4-1.3
				c3.1-0.8,6.2-1.4,9.4-1.9c0.8-3.7,1.9-7.3,3.4-10.8c0.7-1.5,1.4-3,2.2-4.4c0.6-1,1.3-2,2-2.9c0.7-0.9,1.5-1.7,2.3-2.6
				c1.3-1.3,2.6-2.4,4.1-3.4c0.9-0.5,1.7-1,2.6-1.5c1.5-0.7,2.9-1.2,4.5-1.7c0.9-0.2,1.8-0.4,2.7-0.5c1.5-0.2,2.9-0.2,4.3-0.1
				c1.1,0.1,2.2,0.3,3.3,0.6c0.8,0.2,1.6,0.5,2.4,0.8l0.7,0.5l0.6,0.7l0.8,1.3l0.3,0.8l0.1,1.1l-0.5,1.7l-1.5,0.9
				c-1.4,0.3-2.9,0.6-4.3,0.9c-1.5,0.3-3,0.6-4.3,1.4c-1.5,1.1-2.7,2.6-3.9,4.1c-1.3,1.6-2.4,3.3-3.4,5.1l-1,2.1
				c-0.5,1.5-1.1,3.1-0.7,4.6c2.3-0.2,4.5-0.4,6.8-0.6c3.2-0.2,6.4-0.3,9.6-0.1c1.3-3.2,2.4-6.5,4.3-9.4c1.9-2.6,4.7-4.4,7.5-6
				c1.3-0.6,2.6-1.2,4-1.6c1.4-0.4,2.7-0.7,4.1-0.9c1.3-0.2,2.6-0.3,4-0.3c1.3,0.1,2.5,0.2,3.8,0.4c0.9,0.2,1.7,0.5,2.6,0.8l1.6,0.8
				c1,0.6,1.8,1.3,2.5,2.2l0.3,0.3l0.4,0.7l0.3,0.7l0.2,0.8l-0.1,0.9l-0.5,1.2l-1.1,1l-1.1,0.3c-1.2,0-2.4,0.1-3.6,0.3
				c-0.9,0.2-1.6,0.3-2.5,0.6l-1.4,0.6c-2.4,1.3-4.5,3.2-6.6,5l-0.4,0.4c-0.5,0.6-1,1.2-1.5,1.9h-7.4v16.2c-2.7-0.2-5.3-0.4-8-0.5
				c-6.5-0.2-12.9,0-19.3,0.5c-1.1,0.1-2.3,0.2-3.4,0.3c-5.5,0.6-11,1.6-16.5,2.6c-4.6,0.9-9.1,2-13.7,3.3c-3.3,1-6.6,2.1-9.8,3.3
				c-3.8,1.5-7.5,3-11.2,4.7c-6.8,3.2-13.6,6.6-20.3,9.9c0.6,0.8,1,1.8,1.4,2.7l0.4,1.4l0.3,1.3l0.1,1.3l0,1.3l-0.2,1.2l-0.3,1.2
				l-0.5,1.1l-0.6,1l-0.7,0.9l-0.8,0.8l-0.9,0.7l-0.9,0.6l-1,0.5l-1.1,0.4l-1.1,0.3l-1.1,0.2l-1.2,0l-1.2-0.1l-1.2-0.2l-1.2-0.4
				l-1.1-0.5l-1.1-0.6l-1-0.8c-0.8-0.8-1.6-1.5-2.3-2.5c-1,0.9-2.1,1.6-3.2,2.2l-1.5,0.7l-1.5,0.5l-1.5,0.3l-1.5,0.1l-1.4-0.1
				l-1.3-0.3l-1.3-0.5l-1.2-0.6l-1-0.8l-0.9-0.9l-0.8-1l-0.7-1.1l-0.6-1.1l-0.4-1.2l-0.3-1.2l-0.1-1.3l0.1-1.3l0.2-1.3l0.4-1.3
				l0.6-1.2l0.8-1.2l0.9-1.1l1.1-1l1.3-0.9l1.5-0.7l1.6-0.6c-0.7-1.5-1.2-3.2-1.5-4.8l-0.2-1.4l0-1.4l0.1-1.3l0.2-1.3l0.4-1.2
				l0.5-1.1l0.7-1l0.8-0.9l0.9-0.7l1-0.6l1-0.5l1.1-0.3l1.1-0.2l1.1,0l1.1,0.1l1.1,0.2l1.1,0.4l1.1,0.5l1,0.6l1,0.8l0.9,0.9l0.8,1
				l0.8,1.1l0.7,1.2l0.4,1c3-1.5,6.2-2.7,9.2-4.1l0.9-0.4c-0.2-3.1-0.5-6.2-0.5-9.3c0.1-1.7,0.2-3.3,0.4-4.9l0.6-2.4
				c0.6-1.7,1.2-3.4,1.9-5.1l1.8-3.4l1-1.5l1.1-1.4l1.1-1.3l1.2-1.2l1.3-1l1.4-0.9l1.5-0.7l1.6-0.6l1.7-0.4l1.7-0.2l1.8,0l2.1,0.2
				l0.8,0.3l0.7,0.4l0.6,0.5l0.5,0.6l0.4,0.9l0.1,1.2l-0.6,1.4l-0.9,0.7l-1.9,1.1c-0.6,0.5-0.9,0.9-1.3,1.5L322.1,310.1L322.1,310.1
				L322.1,310.1z"/>
			<path id="svg_14" class="st4" d="M319.4,258.9c0,0.3,0.2,1.7,0.6,1.8l0.2,0l23.3-8.4c0-2.7,0.1-5.3,0.3-8c0.3-4,0.8-8,2.2-11.7
				c0.5-1.2,1.1-2.4,1.8-3.6c1-1.6,2.1-3.1,3.4-4.5c0.8-0.8,1.6-1.6,2.4-2.4c1.5-1.2,2.9-2.3,4.6-3.2c1-0.5,2-1,3.1-1.4
				c1.1-0.4,2.2-0.7,3.3-1c1.2-0.2,2.3-0.4,3.5-0.5c1.2-0.1,2.4-0.1,3.6,0c1.3,0.1,2.4,0.3,3.7,0.6l1.4,0.4l0.7,0.3l0.6,0.5l0.5,0.5
				l0.4,0.7l0.3,0.9l0,1.3l-0.7,1.4l-1,0.6c-1.3,0.5-2.5,1-3.8,1.5c-1.1,0.6-2.2,1.1-3.2,1.8c-1,0.7-1.9,1.4-2.8,2.1l-1.7,1.6
				c-1.6,1.7-3.1,3.6-4,5.8c-1.2,3.3-2.2,6.8-2.2,10.4c0.1,0.5,0.1,1.1,0.3,1.7c7.4-1.6,14.8-2.9,22.3-3.9
				c0.9-5.4,2.1-10.8,4.2-15.9c0.4-0.8,0.8-1.6,1.2-2.4c1-1.8,2.3-3.3,3.6-4.8c1.1-1.2,2.3-2.3,3.6-3.3c1.3-1,2.6-1.9,4-2.8
				c1.5-0.8,2.9-1.5,4.4-2.2c1.2-0.4,2.3-0.8,3.6-1.2c1.2-0.3,2.4-0.5,3.7-0.7c1.3-0.1,2.5-0.2,3.8-0.3c1.3,0,2.6,0.1,3.9,0.3
				c1.3,0.2,2.6,0.5,3.9,0.9l1.4,0.5l0.7,0.3l0.6,0.5l0.5,0.6l0.4,0.8l0.2,1l-0.2,1.4l-0.9,1.3l-1.1,0.5c-2.2,0.5-4.3,1.2-6.4,2
				c-2.1,0.9-4.1,1.9-6,3.2c-0.7,0.5-1.4,1-2.1,1.6c-1.6,1.4-3.2,2.9-4.5,4.6c-1.2,1.9-2.1,3.8-2.9,5.8c-0.8,2-1.6,4.1-1.6,6.3
				c6.9-0.6,13.9-0.8,20.8-0.4c1.5-3.1,3.2-6.1,5.4-8.8c1-1.1,2-2,3.2-2.9c1-0.7,2-1.4,3-2c1.1-0.6,2.2-1.1,3.3-1.6
				c1.9-0.8,3.8-1.4,5.8-1.9c1.2-0.2,2.4-0.4,3.6-0.6c1.6-0.1,3.1-0.2,4.7-0.1c1.1,0.1,2.2,0.3,3.3,0.5l2.1,0.6
				c1,0.4,1.9,0.9,2.8,1.5l0.8,0.7c0.8,0.7,1.4,1.4,2,2.3l0.3,0.7l0.2,0.8l0,1l-0.4,1.2l-1.1,1l-1.1,0.3c-2.9,0.1-5.7,0.4-8.6,0.9
				l-1.2,0.3c-3.6,0.9-6.9,2.4-9.6,5.1c-0.9,1-1.8,2-2.6,3.1c3.9,0.8,7.7,2,11.4,3.7c1.7,0.8,3.3,1.8,4.9,2.9
				c0.7,0.6,1.4,1.1,2.1,1.8c1.1,1.1,2,2.2,2.9,3.4c1.3,2.3,2.4,4.8,2.8,7.4c0.3,2.3,0.9,6.5-0.2,7.6c-1.1,1.1-3.9-0.9-6.2-2.7
				l-2.8-2.3l-2.9-2l-3.1-1.7l-3.2-1.5c-1.7-0.7-3.5-1.3-5.3-1.8c-1.9-0.5-3.8-0.9-5.7-1.3c-2.1-0.3-4.1-0.6-6.2-0.8
				c-2.2-0.2-4.4-0.3-6.7-0.4c-2.4,0-4.8,0-7.1,0.1c-3.4,0.2-6.8,0.5-10.3,0.8l-5.4,0.7c-7.7,1.1-15.3,2.5-22.9,4.2
				c-5.5,1.3-11,2.6-16.5,4.2c-5.3,1.5-10.6,3.2-15.9,5c-5.3,1.8-10.4,3.8-15.6,5.8c-6.9,2.8-13.7,5.8-20.5,8.9l0.7,1.3l0.6,1.4
				l0.5,1.4l0.3,1.3l0.2,1.3l0,1.3l-0.2,1.2l-0.3,1.2l-0.4,1.1l-0.6,1L305,299l-0.8,0.9l-0.9,0.8l-0.9,0.7l-1,0.6l-1,0.4l-1.1,0.3
				l-1.1,0.2l-1.2,0.1l-1.2,0l-1.2-0.2l-1.2-0.3l-1.1-0.5l-1.1-0.6l-1.1-0.7c-0.9-0.8-1.6-1.5-2.3-2.4c-0.9,0.9-2.1,1.6-3.2,2.3
				l-1.5,0.7l-1.5,0.5l-1.5,0.3l-1.4,0.1l-1.4-0.1l-1.3-0.3l-1.3-0.4l-1.2-0.6l-1.1-0.7l-0.9-0.8l-0.8-0.9l-0.7-1l-0.6-1.1l-0.4-1.2
				l-0.3-1.2l-0.1-1.3l0-1.3l0.2-1.3l0.4-1.3l0.6-1.2l0.7-1.2l0.9-1.1l1.1-1l1.3-0.9c1-0.5,2-1.1,3.1-1.4c-0.7-1.4-1.1-3-1.5-4.6
				l-0.1-1.4l0-1.3l0.2-1.3l0.4-1.2l0.6-1.1l0.7-1l0.8-0.8l0.9-0.7l1-0.5l1.1-0.4l1.1-0.3l1.1-0.2l2.3,0l2.3,0.4l2.2,0.8l2.1,1.2
				c1.5,1.1,2.8,2.4,3.7,4c2.9-1.7,5.8-3.5,8.7-5c-0.3-3.4-0.5-6.9-0.6-10.3c0-3.8,0.1-7.6,1.1-11.3c0.4-1.3,0.9-2.5,1.4-3.8
				c0.8-1.7,1.7-3.3,2.7-4.9c0.7-0.9,1.3-1.8,2.1-2.6c1.3-1.4,2.6-2.6,4-3.8c0.9-0.7,1.8-1.3,2.8-1.8c1.3-0.7,2.6-1.3,4.1-1.8
				c1.1-0.3,2.2-0.6,3.3-0.8l2.3-0.2c1.8,0,3.8,0,5.6,0.5l0.7,0.4l0.6,0.5l0.5,0.6l0.4,0.9l0.1,1.2l-0.5,1.4l-0.9,0.8
				c-1.2,0.7-2.3,1.3-3.4,2c-1.3,0.9-2.5,1.9-3.7,3c-0.8,0.8-1.6,1.7-2.4,2.6l-1.4,1.9c-1,1.7-2,3.5-2.6,5.4
				C319.8,251.7,319.2,255.3,319.4,258.9L319.4,258.9L319.4,258.9z"/>
			<path id="svg_15" class="st4" d="M268.7,216c0-8.8,0-17.7,0-26.5c0-8.8,0-17.7,0-26.5c11-3.7,22-7.3,33.1-10.7
				c6.5-2,10.8-3,12.6-3.3c5.2-0.8,8.7,0.2,10.4,3c1.3,2,1.9,6.1,1.9,12.2c0,3.1-0.2,5.9-0.6,8.1c-0.3,2.3-0.8,4.2-1.5,5.6
				c-1.3,2.7-3.5,5-6.5,6.8c-2.2,1.3-5.2,2.6-9,3.9c-1.7,0.6-4.1,1.3-7.2,2.3c-6.2,2.1-12.3,4.3-18.5,6.4c0,4.2,0,8.5,0,12.7
				C278.5,212.1,273.6,214,268.7,216L268.7,216L268.7,216z M283.4,184.4c6.1-2.1,12.2-4.2,18.4-6.2c3-1,4.8-1.6,5.4-1.8
				c2.2-0.8,3.5-2,4.1-3.5c0.4-0.9,0.6-2.4,0.6-4.5c0-2-0.2-3.3-0.6-4c-0.6-1-2-1.3-4-0.8c-0.6,0.1-2.5,0.6-5.5,1.5
				c-6.1,1.9-12.2,4-18.4,6C283.4,175.5,283.4,179.9,283.4,184.4L283.4,184.4L283.4,184.4z M366.1,135.2c10.1-2.1,17.2-2.9,21.1-3
				c5.7-0.1,9.1,2.2,10.4,6.8c0.4,1.6,0.7,3.8,0.9,6.6c0.2,2.8,0.4,6.1,0.4,10.1c0,3.9-0.2,7.3-0.4,10.2c-0.2,2.8-0.5,5.1-0.9,6.8
				c-1.3,5-4.7,8.3-10.4,10c-3.9,1.1-11.1,2.6-21.5,4.7c-10.5,2.1-17.6,3.5-21.5,3.9c-5.6,0.6-9.1-1.3-10.4-5.8
				c-0.4-1.5-0.8-3.7-1-6.4c-0.2-2.7-0.3-6.1-0.3-10c0-4,0.1-7.4,0.3-10.2c0.2-2.8,0.6-5.2,1-6.9c1.3-5.1,4.7-8.8,10.4-10.9
				C348.1,139.3,355.4,137.3,366.1,135.2L366.1,135.2z M365.1,148.5c-7.4,1.5-11.9,2.7-13.4,3.5c-1.9,0.9-3.2,2.4-3.7,4.4
				c-0.5,1.9-0.8,5.3-0.8,10.1c0,3.1,0.2,5.4,0.5,6.7c0.6,2.4,2.4,3.5,5.3,3.2c2.2-0.2,6.4-1,12.7-2.2c6.2-1.2,10.4-2.2,12.7-2.8
				c3-0.9,4.7-2.7,5.3-5.3c0.3-1.5,0.5-3.7,0.5-6.6c0-3.6-0.1-6.2-0.3-7.7c-0.3-2.5-1.1-4-2.2-4.7c-1.1-0.6-3.3-0.7-6.7-0.3
				C373.7,146.8,370.4,147.4,365.1,148.5L365.1,148.5L365.1,148.5z M406.7,179.9c0-8.4,0-16.9,0-25.3c0-8.4,0-16.9,0-25.3
				c11.8-1.4,23.7-2.6,35.6-3.4c8.4-0.6,13.4-0.6,14.9-0.6c1.7,0.1,3.3,0.6,4.7,1.4c1.4,0.8,2.5,1.9,3.3,3.2
				c0.8,1.4,1.3,2.9,1.5,4.5c0.2,1.8,0.3,4.1,0.3,6.7c0,4.1-0.2,7-0.8,8.6c-0.8,2.4-2.4,4.2-4.7,5.2c-0.8,0.4-2,0.7-3.5,1
				c3.3,1.8,5.5,4.6,6.7,8s1.7,7.3,1.7,11.2c-4.9,0.2-9.7,0.4-14.5,0.7c0-3.5-1.1-11.5-5.2-12.2c-1-0.2-1.2-0.3-4.4-0.1
				c-6.9,0.5-13.8,1.1-20.7,1.8c0,4.3,0,8.6,0,12.9C416.4,178.8,411.5,179.3,406.7,179.9L406.7,179.9L406.7,179.9z M421.4,152.7
				c6.9-0.7,13.8-1.2,20.7-1.7c3.1-0.2,4.9-0.4,5.5-0.5c2.1-0.3,3.4-1,3.9-2.2c0.4-0.8,0.6-2.3,0.6-4.3c0-1.7-0.1-3-0.5-3.8
				c-0.5-1.2-1.7-1.8-3.6-1.9c-0.7,0-2.6,0-5.9,0.2c-6.9,0.5-13.8,1.1-20.7,1.7C421.4,144.4,421.4,148.6,421.4,152.7L421.4,152.7
				L421.4,152.7z M473.3,164.1c6.6-0.2,13.2-0.3,19.8-0.4c0.8,0,3.5,0,8.1,0c6.3,0,9.9,0,10.9-0.1c1.9-0.1,3.1-0.4,3.7-0.7
				c0.8-0.5,1.2-1.7,1.2-3.6c0-1.3-0.2-2.8-0.7-3.3c-0.8-0.7-2.4-1.2-5.1-1.2c-7.8-0.1-15.6-0.1-23.3-0.1c-4.6,0-8-0.1-9.9-1.1
				c-2.4-1.2-4-3.3-4.8-6.3c-0.4-1.7-0.6-4.5-0.6-7.2c0-5.7,0.7-10.1,2.8-12.5c1.6-1.8,4.2-2.7,7.4-3.3c2.8-0.6,9.7-0.5,20.4-0.5
				c8.6,0.1,17.2,0.2,25.9,0.4c0,3.7,0,7.5,0,11.2c-9.7-0.2-19.5-0.4-29.2-0.4c-6.2,0-11.2,0.1-12.3,0.5c-1.3,0.4-1.3,1.8-1.3,3.6
				c0,1.8,0,3.7,1.4,3.7c11,0.2,21.9,0.5,32.9,0.9c2.4,0.1,4.2,1,5.6,1.8c1.4,0.8,2.5,1.8,3.3,3.2c1.3,2,1.9,5.9,1.9,10.3
				c0,4.9-0.7,8.5-1.9,10.8c-1.2,2.3-3.2,3.8-6,4.6c-2.7,0.8-10.3,1.1-22.7,1c-9.2,0-18.3,0.2-27.5,0.4
				C473.3,171.8,473.3,167.9,473.3,164.1L473.3,164.1L473.3,164.1z M599,168.2c0.1,4.2,0.1,8.4,0.1,12.5c-9-0.9-17.9-1.9-26.8-2.6
				c-9.6-0.7-16.1-1.4-19.5-1.9c-3.1-0.5-5.6-1-7.3-1.7c-1.8-0.7-3.3-1.6-4.4-2.8c-1.6-1.6-2.6-3.6-3-6.1c-0.2-1.3-0.5-3.3-0.6-5.8
				c-0.1-2.5-0.2-5.7-0.2-9.4c0-3.6,0-6.6,0.1-9c0.1-2.4,0.2-4.3,0.4-5.5c0.5-3.7,1.9-6.4,4.2-8.1c1.7-1.2,4.5-2,8.4-2.3
				c3.9-0.3,11-0.2,21.3,0.5c8.8,0.8,17.6,1.6,26.5,2.6c0,4.1,0,8.3,0,12.4c-10.2-1-20.4-1.9-30.5-2.6c-5.1-0.4-8.6-0.5-10.5-0.3
				c-2.4,0.2-3.9,1.5-4.4,3.8c-0.4,1.9-0.7,4.9-0.7,9.1c0,4.3,0.2,7.3,0.7,9c0.6,2.2,2.1,3.5,4.7,4c2,0.4,5.7,0.8,10.9,1.2
				C578.5,166,588.8,167,599,168.2L599,168.2L599,168.2z M606.2,130.2c5.1,0.7,10.3,1.3,15.4,2.1c0,3,0,6.1,0,9.2c0,3,0,6.1,0,9.2
				c11.1,1.8,22.1,3.8,33.2,6.1c0-3.1,0-6.2,0-9.3s0-6.2,0-9.3c5.1,1,10.3,2.2,15.5,3.4c0,8.7,0,17.4,0,26c0,8.7,0,17.3,0,26
				c-5.2-1.2-10.3-2.5-15.5-3.7c0-3.1,0-6.3,0-9.4c0-3.1,0-6.3,0-9.4c-11.1-2.3-22.2-4.4-33.2-6.2c0,3.1,0,6.2,0,9.3s0,6.2,0,9.3
				c-5.1-0.8-10.3-1.6-15.4-2.4c0-8.5,0-17,0-25.5S606.2,138.7,606.2,130.2L606.2,130.2L606.2,130.2z M679.1,143.8
				c17.8,4.8,35.7,10.3,53.5,16.5c0,4.1,0,8.2,0,12.2c-13-4.5-26-8.7-39-12.6c0,2.5,0,5.1,0,7.6c12.3,3.7,24.7,7.6,37.1,11.9
				c0,3.8,0,7.6,0,11.5c-12.3-4.2-24.7-8.1-37.1-11.8c0,2.8,0,5.6,0,8.4c13.1,3.9,26.2,8.1,39.3,12.5c0,4.2,0,8.4,0,12.5
				c-18-6-35.9-11.5-53.8-16.5c0-8.7,0-17.4,0-26.1C679.1,161.2,679.1,152.4,679.1,143.8L679.1,143.8L679.1,143.8z"/>
			<path id="svg_16" class="st2" d="M563.6,562.4l0.1,0.6l1.3-0.5c3.9-1.6,7.9-3,12-4.2c0.4-6,1.3-12.1,3.5-17.8
				c0.7-1.7,1.5-3.2,2.4-4.8c0.9-1.5,1.9-2.9,3-4.3c0.7-0.8,1.4-1.5,2.1-2.2c1.3-1.1,2.5-2.1,4-2.9c0.9-0.5,1.8-0.8,2.7-1.2
				c1-0.3,1.9-0.5,2.9-0.7l2-0.1c2.4,0.2,4.8,0.7,6.8,2.1l0.5,0.6l0.4,0.6l0.3,0.7l0.2,0.8l0,1l-0.6,1.3l-1,0.7l-1.9,0.9
				c-0.8,0.5-1.5,1-2.2,1.6c-0.7,0.7-1.4,1.4-2,2.2c-0.9,1.2-1.7,2.5-2.5,3.8c-0.9,1.6-1.8,3.1-2.5,4.8c-0.5,1.3-0.8,2.6-1.2,4
				c-0.4,2.1-0.8,4.3-0.4,6.3c1.1-0.2,2.2-0.4,3.4-0.5c2.5-0.2,5-0.2,7.4-0.4c0.9-4.3,2.6-8.3,4.6-12.2c1.2-2.3,2.5-4.7,4-6.8
				c0.8-1,1.6-1.9,2.5-2.8c1-0.9,1.9-1.7,3-2.4c1.1-0.7,2.2-1.3,3.4-1.9c0.9-0.4,1.8-0.7,2.8-1c1-0.2,1.9-0.4,3-0.5c1-0.1,2,0,3.1,0
				c1.1,0.1,2.1,0.3,3.1,0.6c1.1,0.4,2.1,0.8,3.1,1.2l1.1,0.6l0.6,0.5l0.5,0.6l0.3,0.6l0.2,0.7l0.1,0.9l-0.2,1.1l-0.8,1.2l-1.1,0.5
				c-1.1,0.3-2.2,0.6-3.2,1c-0.9,0.4-1.7,0.8-2.5,1.3c-0.7,0.5-1.4,1-2.1,1.6c-0.6,0.6-1.2,1.1-1.8,1.8c-1.5,1.7-2.7,3.6-3.9,5.5
				c-0.8,1.4-1.5,2.8-2,4.3c-0.1,0.5-0.3,1-0.3,1.6c3.9,0,7.8,0.7,11.6,1.5l1,0.2c0.9-1.6,2-2.9,3.3-4.3c0.9-0.9,1.7-1.9,2.5-2.8
				c0.7-0.7,1.4-1.4,2.2-2.1c1.3-1,2.6-1.9,4.1-2.7c0.9-0.4,1.7-0.8,2.6-1.1c1.2-0.4,2.3-0.7,3.5-0.8c0.9-0.1,1.7-0.1,2.7-0.1
				l1.7,0.3c0.9,0.2,1.7,0.5,2.5,0.9l1.5,1l1.3,1.3c0.8,1,1.4,2,1.9,3.1l0.2,1.3l-0.1,0.8l-0.3,1l-1,1.1c-1,0.2-2,0.4-3,0.6
				l-1.4,0.4c-2.1,0.7-4,1.5-5.7,2.9c-0.6,0.5-1.1,1.1-1.6,1.7c-0.8,0.9-1.5,1.9-2.1,3c2,1.6,3.8,3.2,5.6,5l2,2.3
				c0.9,1.2,1.7,2.4,2.5,3.7l1.3,2.7c0.8,2.1,3,17,0.1,16.8c-0.5,0-4.3-4-4.9-4.8c-1.1-1.3-2.2-2.5-3.3-3.7
				c-1.1-1.1-2.3-2.1-3.5-3.1c-1.2-0.9-2.4-1.8-3.7-2.6c-1.3-0.8-2.6-1.4-4-2.1c-1.4-0.6-2.8-1.1-4.3-1.6c-1.5-0.5-3-0.9-4.6-1.2
				c-1.7-0.3-3.3-0.6-5-0.8c-2.4-0.3-4.8-0.4-7.3-0.5c-2.7,0-5.3,0-8,0.1c-8.6,0.5-17.1,1.5-25.5,3c-3,0.6-6,1.3-9,2.1
				c-3,0.8-5.8,1.8-8.7,2.8c-3.8,1.4-7.4,3-11.1,4.7c-4.1,2-8.1,4-12.2,6.1c0.7,0.8,1.3,1.9,1.8,2.8l0.6,1.4l0.4,1.4l0.2,1.4
				l0.1,1.4l-0.1,1.3l-0.3,1.3l-0.4,1.2l-0.6,1.1l-0.7,1l-0.8,0.9l-0.9,0.8l-1,0.7l-1.1,0.6l-1.1,0.4L541,607l-1.2,0.1l-1.3,0
				l-1.3-0.2l-1.2-0.4l-1.2-0.6l-1.1-0.7l-1.1-0.9l-1-1.1c-0.6-0.9-1.3-1.8-1.7-2.7l-0.7,0.7l-1.4,1.2l-1.4,0.9L525,604l-1.4,0.5
				l-1.4,0.3l-1.4,0.1l-1.4-0.1l-1.3-0.3l-1.2-0.5l-1.1-0.6l-1-0.8l-0.9-0.9l-0.8-1l-0.6-1.1l-0.5-1.1l-0.4-1.2l-0.2-1.2l-0.1-1.3
				l0.1-1.3l0.2-1.3l0.4-1.3l0.6-1.2l0.8-1.2l0.9-1.1l1.1-1l1.3-0.9l0.8-0.4c-1.2-1.5-2.1-3.2-2.9-5l-0.5-1.5l-0.3-1.5l-0.1-1.5
				l0.1-1.4l0.3-1.3l0.5-1.2l0.7-1.1l0.8-1l0.9-0.8l1-0.7l1.1-0.5l1.2-0.4l1.2-0.2l1.3-0.1l1.3,0.1l1.3,0.2l1.3,0.4l1.3,0.5l1.2,0.7
				l1.2,0.8l1.1,1l1.1,1.1l1,1.3c0.6,1,1.3,2,1.8,3.1c4-2.1,8.2-3.7,12.4-5.3c-0.2-2.3-0.6-4.5-1-6.7c-0.4-2.1-0.6-4.2-0.8-6.4
				l0.1-2.6l0.2-1.3l0.3-1.3l0.7-2.1l0.8-1.9l0.9-1.8l1-1.7l1.1-1.5l1.1-1.4l1.2-1.3l1.3-1.2l1.3-1l1.4-0.9l1.4-0.8l1.4-0.7l1.5-0.6
				l1.5-0.4l1.5-0.3l2.3-0.3l1.3,0.7l0.6,0.6l0.4,0.6l0.3,0.6l0.2,0.8l0,1l-0.4,1.2l-1.2,1.2c-1.1,1.3-2,2.6-2.7,4.2l-0.6,1.7
				c-0.8,2.3-1.2,4.7-1.5,7.1C563,556.7,563.2,559.5,563.6,562.4L563.6,562.4L563.6,562.4z"/>
			<path id="svg_17" class="st2" d="M607,470.6l2-2.7l2.3-2.5l2.5-2.2l2.7-1.9l1.4-0.8l1.5-0.7l1.5-0.6l1.6-0.5l1.6-0.4l1.7-0.3
				l1.7-0.1h1.7l1.7,0.2l1.8,0.3c1.5,0.4,3,0.7,4.4,1.5l0.6,0.5l0.5,0.6l0.4,0.7l0.3,0.9l-0.1,1.3l-0.8,1.4l-1,0.6
				c-1.8,0.6-3.2,1.9-4.6,3.1c-1.4,1.3-2.7,2.6-3.9,4.1c-0.8,1-1.5,2.1-2.2,3.2c-1.3,2.2-2.6,5-2,7.6c4,0.1,8.1,0,12.1,0.1
				c0.4-1.5,0.9-2.9,1.5-4.3l1.4-3l1.6-2.8l1.9-2.6l2.1-2.4l2.3-2.1l2.5-1.9l2.7-1.5l2.8-1.2l3-0.8l3.1-0.5l3.2,0l1.7,0.1l1.7,0.3
				l3.4,0.9c1.4,0.5,2.9,1,4.2,1.8l0.6,0.6l0.5,0.7l0.4,0.8l0.2,1l-0.3,1.3l-1,1.2l-1.1,0.4c-0.9,0.2-1.7,0.4-2.5,0.7
				c-4.1,1.7-7.7,4.3-10.8,7.4c-2,2.1-4,4.5-4.5,7.5l1.2,0.3c4,1.1,7.9,2.6,11.7,4.4c1-1.6,2.1-2.9,3.4-4.2c1.2-1.2,2.4-2.4,3.6-3.5
				c0.9-0.7,1.8-1.3,2.8-2c1-0.6,2-1,3.1-1.5c1.1-0.4,2.1-0.8,3.2-1.1c1.5-0.3,2.9-0.6,4.4-0.7c1.1-0.1,2.1-0.1,3.2,0
				c1.1,0.1,2.1,0.2,3.2,0.4c1,0.2,2,0.5,3,0.9l1.8,0.9c0.9,0.6,1.7,1.1,2.5,1.8c0.9,1,1.7,2,2.3,3.2l0.2,0.7l0.1,0.7l-0.1,0.9
				l-0.4,1.1l-1.1,1.1l-1.2,0.3c-1.2,0-2.4,0-3.7,0c-1.7,0.1-3.3,0.3-5,0.8c-0.9,0.3-1.8,0.6-2.7,1l-1.8,1c-1.1,0.8-2.3,1.5-3.1,2.6
				c-0.8,1.1-1.6,2.3-2.3,3.5c1.4,1,2.7,2,4,3.1c1,0.9,1.9,1.9,2.8,2.9c0.9,1,1.6,2.1,2.4,3.2l1.2,2.3c0.4,1.2,0.8,2.5,1.2,3.7
				c1.8,6.6,2.2,14.3,0,14.5c-2.2,0.2-6.9-7.2-10.3-10.2l-3.1-2.4c-1.7-1.2-3.5-2.3-5.3-3.3c-2-1.1-3.9-2-6-3
				c-2.2-0.9-4.3-1.8-6.5-2.6c-2.3-0.8-4.7-1.5-7-2.1c-2.5-0.6-4.9-1.2-7.4-1.6c-2.6-0.4-5.1-0.8-7.7-1.1c-2.6-0.2-5.3-0.4-7.9-0.6
				l-5.4,0c-2.7,0.1-5.4,0.2-8.1,0.5c-4.5,0.5-9,1.2-13.5,2c-5.3,1-10.6,2.1-15.9,3.5c-4.5,1.2-9,2.5-13.4,4.1
				c-4.2,1.5-8.4,3.1-12.5,4.8l-16.4,7.2l14-12.8c2.2-2.1,4.3-4.3,6.3-6.7c1.7-2,3.3-4.1,4.9-6.2l1.3-1.8c5.7-1.9,11.5-3.8,17.3-5.5
				c2.2-0.7,4.5-1.3,6.7-1.9c0.2-1.5,0.5-2.9,0.9-4.4c0.5-1.6,1-3.2,1.6-4.7l1.4-3.1C605.3,473.4,606.1,472,607,470.6L607,470.6
				L607,470.6z M535.5,537.4l0.5,2.1l0.1,2l-0.3,1.9l-0.6,1.7l-0.9,1.5l-1.2,1.3l-1.4,1l-1.7,0.6l-1.8,0.1l-1.8-0.4l-1.7-0.9
				l-1.4-1.3l-0.3-0.4l-0.9,0.6l-1.9,0.9l-1.9,0.5l-1.9,0l-1.7-0.4l-1.5-0.8l-1.3-1l-1-1.3l-0.7-1.4l-0.5-1.5l-0.1-1.6l0.2-1.6
				l0.6-1.6l0.9-1.5l1.7-1.7c2.9-0.4,5.7-1,8.6-1.7c4-1,7.9-2.2,11.7-3.7l14-5.5l-11.6,10.6c-0.4,0.4-0.8,0.8-1.2,1.2L535.5,537.4
				L535.5,537.4L535.5,537.4z"/>
			<path id="svg_18" class="st2" d="M550.4,640.9c1.1-0.7,2.3-1.4,3.6-2.1c-0.6-2.7-0.7-5.4-0.7-8.2c0.1-1.5,0.3-3,0.5-4.5
				c0.3-1.5,0.6-2.8,1.1-4.3l1-2.7c0.6-1.3,1.2-2.5,2-3.7l1.7-2.2l1.9-1.9l1.1-0.8l1.1-0.8l1.2-0.7l1.3-0.6l1.3-0.4l1.4-0.3l1.4-0.2
				l1.4,0l1.5,0.1l2.1,0.4l0.9,0.7c0.4,0.5,0.7,0.9,1,1.5l0.2,0.6l0.1,0.8l-0.3,1.3l-0.9,0.9l-2.1,1.3c-0.8,0.6-1.4,1.2-2.1,1.9
				c-0.6,0.7-1.2,1.5-1.7,2.3c-0.5,0.8-0.9,1.7-1.3,2.5c-0.6,1.5-1,2.9-1.4,4.5c-0.2,0.9-0.3,1.8-0.4,2.6c-0.1,1.6-0.2,3.4,0.2,4.9
				c1.4-0.4,2.8-0.8,4.2-1.3c2.3-0.7,4.5-1.3,6.8-1.7l0.8-3.3l1.1-3.3l1.4-3l1.6-2.7l1.8-2.5l2-2.2l2.1-1.9c1.1-0.8,2.2-1.6,3.4-2.3
				l2.4-1.1l3.6-1.1l2.4-0.4l2.4,0l2.3,0.4l1.1,0.3l1.1,0.4l1.2,0.6l0.6,0.6l0.7,1.1l0.4,1.3c0.6,2.7-2.2,1-4.9,3.3
				c-2.5,1-4.5,2.9-6.4,4.7c-1.5,1.6-2.8,3.2-4.1,5c-1,1.6-2.1,3.4-2.1,5.3c1.5,0.1,3.1,0.4,4.5,0.7c1.7,0.4,3.4,0.9,5.1,1.3
				c0.6-1.7,1.5-3.2,2.5-4.7c0.7-0.9,1.4-1.8,2.2-2.7c0.8-0.8,1.7-1.6,2.6-2.3c0.9-0.7,1.8-1.3,2.8-1.9c1-0.5,2-1,3-1.4
				c1-0.4,2-0.6,3.1-0.9l2.1-0.2l2.1,0.1l1,0.2l1,0.3l1,0.4l0.9,0.6c1.6,1.2,4.2,2.8,4.5,3.9c0.4,1.8-2.7,2.8-5.8,3.9
				c-1,0.4-1.9,0.8-2.8,1.4l-1.8,1.3L620,632l-1.4,2l-0.6,1.1l-0.6,1.2l-0.5,1.3l-0.3,1.1c1.5,0.8,2.8,1.9,4.1,3l1.4,1.5l1.2,1.6
				l0.9,1.6l0.7,1.5l0.5,1.5l0.3,1.4l0.2,1.3l0,1.2c-0.4,2.5-1.4,6.7-2.4,6.4c-2.1-0.5-4.9-5.6-6.7-7.5l-2.3-1.7l-2.5-1.5l-2.7-1.2
				c-1.5-0.5-2.9-0.9-4.4-1.3c-1.6-0.3-3.2-0.6-4.8-0.8c-1.7-0.2-3.4-0.3-5.1-0.3c-1.7,0-3.5,0-5.2,0.1c-3.6,0.2-7.1,0.6-10.6,1.1
				c-3.1,0.5-6.3,1-9.4,1.8c-5.8,1.6-11.2,4.5-16.3,7.8c-3.5,2.3-6.9,4.8-9.9,7.7c1.5,0.9,2.8,2.1,4,3.4l0.9,1.2l0.7,1.2l0.6,1.2
				l0.4,1.3l0.2,1.3l0,1.2l-0.2,1.2l-0.3,1.1l-0.5,1.1l-0.6,1l-0.7,0.9l-0.9,0.7l-1,0.6l-1.1,0.5l-1.1,0.3l-1.2,0.2l-1.2,0l-1.2-0.2
				l-1.2-0.4l-1.2-0.6l-1.2-0.8l-1.1-0.9c-0.9-0.9-1.8-1.9-2.5-3c-0.8,1.1-1.7,2.2-2.6,3.2l-1.3,1.2l-1.3,1.1l-1.3,0.8l-1.3,0.7
				l-1.3,0.5l-1.3,0.3l-1.3,0.1l-1.3-0.1l-1.2-0.3l-1.1-0.5l-1-0.7l-0.9-0.8l-0.8-0.9l-0.6-1l-0.5-1.1l-0.3-1.1l-0.2-1.2l0-1.2
				l0.1-1.2l0.3-1.2l0.4-1.2l0.6-1.2l0.8-1.2l0.9-1.1l1.1-1l0.6-0.5c-1.4-1.3-2.5-2.7-3.6-4.3l-0.8-1.3l-0.6-1.3l-0.4-1.3l-0.2-1.3
				l0-1.3l0.1-1.2l0.3-1.2l0.5-1.1l0.7-1l0.8-0.8l0.9-0.7l1-0.5l1.1-0.4l1.1-0.2l1.2-0.1l1.2,0.1l1.2,0.2l1.2,0.4l1.2,0.5l1.1,0.6
				l1.1,0.8l1.1,0.9l1,1.1l0.9,1.2l0.6,0.9c1.6-1.5,3.2-2.9,4.9-4.3c-1.3-2.5-2.1-5.2-2.7-8c-0.2-1.3-0.3-2.5-0.4-3.7
				c0-1.2,0-2.4,0.1-3.6c0.1-1.1,0.3-2.2,0.6-3.4c0.3-1,0.6-2.1,1-3.1c0.4-0.9,0.9-1.8,1.4-2.7l1.2-1.6c0.7-0.7,1.3-1.3,2.2-2
				l1.7-0.9l0.9-0.3l1.9-0.4l1.3,0.8l0.5,0.5l0.6,1l0.2,0.6l0.1,0.8l-0.2,1.1c-0.3,0.4-0.5,0.7-0.6,1.1c-0.1,0.4-0.2,0.9-0.3,1.3
				c-0.7,3.4-0.7,6.8-0.2,10.2c0.3,1.6,0.7,3.2,1.5,4.5l0.7-0.5C548.3,642.3,549.3,641.6,550.4,640.9L550.4,640.9L550.4,640.9z"/>
			<path id="svg_19" class="st2" d="M317.3,377.7c-0.2,1-0.5,2.1-0.7,3.1c-0.2,2.9,0.7,6,2.2,8.4c1.6-0.8,3.2-1.7,4.9-2.4
				c2-0.8,4-1.4,5.9-2.1c-1.3-5.8-1.1-12.1,0.6-17.8c0.4-1.1,0.8-2.2,1.2-3.3l0.9-1.8l1-1.7l1.1-1.6l1.2-1.4l1.2-1.3l1.3-1.1l1.3-1
				l1.4-0.9l1.5-0.7l1.5-0.6l1.5-0.4l1.6-0.3l1.6-0.1l1.6,0l1.6,0.1l1.8,0.3l0.8,0.3l0.6,0.4l0.5,0.5l0.4,0.7l0.3,0.9l0.1,1.2
				l-0.6,1.4l-1,0.7l-1.2,0.6c-1.9,1.1-3.5,2.3-5.1,3.9c-0.8,0.8-1.4,1.7-2.1,2.6c-0.6,1.1-1.1,2.1-1.6,3.2
				c-0.3,0.9-0.5,1.8-0.7,2.8c-0.1,1.1-0.2,2.1-0.2,3.2l0.2,2.4c0.3,1.5,0.6,3,1.1,4.5c2-0.7,3.9-1.4,5.9-2c2.1-0.6,4.2-1.1,6.3-1.6
				c0.2-2,0.3-4,0.6-6c0.4-4,1-8,2.6-11.7c0.7-1.5,1.6-2.8,2.5-4.1c1-1.2,2-2.3,3.1-3.4c1.1-1,2.3-1.9,3.5-2.8
				c1.2-0.8,2.4-1.5,3.7-2.2c0.9-0.4,1.9-0.8,2.8-1.2c1.6-0.5,3.1-0.9,4.7-1.2c1.2-0.2,2.4-0.3,3.6-0.3l1.7,0.2
				c1.1,0.2,2.1,0.5,3.1,1l0.6,0.5l0.5,0.6l0.4,0.7l0.2,1l-0.1,1.3l-0.8,1.3c-0.9,0.5-1.8,1.1-2.7,1.6c-1.7,1-3.3,2.1-4.8,3.4
				c-0.8,0.7-1.4,1.4-2.1,2.1c-1.2,1.4-2.2,2.8-3.1,4.3c-1.1,1.9-2.1,3.8-2.9,5.9l-0.7,2.2c-0.3,1-0.5,2-0.6,3
				c5.8-0.7,11.6-0.9,17.4-0.8l5.7-10c0.7-1,1.5-1.8,2.4-2.6l1.5-1.1c1.1-0.6,2.3-1.2,3.5-1.7v30.1c-1.2,0-2.3-0.1-3.5-0.1
				c-6.2-0.1-12.4,0.3-18.6,1c-4.4,0.6-8.7,1.3-13,2.3c-8.7,2-17.3,4.3-25.7,7.3c-3.3,1.2-6.6,2.6-9.8,4.1
				c-8.3,3.9-16.2,8.3-24.3,12.7c0.9,0.9,1.7,1.8,2.5,2.9l0.7,1.2l0.6,1.2l0.4,1.2l0.2,1.2l0.1,1.2l-0.1,1.2l-0.2,1.2l-0.4,1.1
				l-0.5,1l-0.6,1l-0.8,0.9l-0.8,0.8l-0.9,0.7l-1,0.5l-1.1,0.4l-1.2,0.3l-1.2,0.1l-1.2,0l-1.2-0.2l-1.3-0.3l-1.2-0.5l-1.2-0.7
				c-1.3-0.9-2.5-1.8-3.5-3l-1,1l-1.6,1.3l-1.6,1.1l-1.6,0.9l-1.6,0.7l-1.6,0.5l-1.5,0.3l-1.5,0.1l-1.4-0.2l-1.4-0.3l-1.3-0.5
				l-1.1-0.7l-1-0.8l-0.9-0.9l-0.7-1l-0.6-1.1l-0.5-1.2l-0.3-1.3l-0.2-1.3v-1.3l0.2-1.3l0.3-1.3l0.5-1.3l0.7-1.2l0.8-1.2l1-1.1
				l1.2-1l1.3-0.9l1.2-0.6c-0.9-1.4-1.5-3.1-2.1-4.7l-0.3-1.5l-0.1-1.4l0-1.4l0.2-1.3l0.4-1.3l0.5-1.2l0.6-1.1l0.8-1l0.9-0.8l1-0.7
				l1-0.6l1.1-0.5l1.2-0.3l1.2-0.2l1.2,0l1.2,0.1l1.2,0.3l1.2,0.4l1.2,0.6l1.1,0.8l1,0.9l0.9,1l0.9,1.2l0.8,1.3l0.4,1
				c2.4-1.5,4.9-2.9,7.3-4.3c-2.6-5-4.2-10.6-4.3-16.2c0-1.2,0.1-2.4,0.2-3.6c0.3-1.9,0.9-3.6,1.6-5.4l0.8-1.8l0.9-1.7l1-1.6
				l1.1-1.4l1.2-1.3l1.3-1.2l1.3-1l1.4-0.9l1.5-0.7l1.6-0.6l1.6-0.4l1.7-0.3l1.7-0.1l2,0l0.9,0.3l0.7,0.4l0.6,0.5l0.5,0.6l0.4,0.8
				l0.2,1.1l-0.4,1.4l-0.8,0.8l-1.9,1.4c-0.7,0.6-1.2,1.2-1.7,1.9l-0.9,1.4C318.5,372.9,317.9,375.2,317.3,377.7L317.3,377.7
				L317.3,377.7z"/>
			<path id="svg_20" class="st2" d="M320.5,309c-0.6,1.8-1,3.8-1.5,5.6c-0.4,1.3-0.8,2.6-1.4,3.9c-0.7,1.9-1.1,3.9-1.1,5.9
				c0.1,0.6,0.1,1.6,0.6,2c0.2,0.1,0.4,0.1,0.6,0.2c2.1-0.9,4-1.8,6-2.7c1.8-0.8,3.6-1.3,5.5-1.8c0.1-2.5,0.2-5.1,0.4-7.6
				c0.4-3.8,0.9-7.6,2.4-11.2c0.5-1.1,1.1-2.2,1.8-3.3c1.1-1.7,2.3-3.2,3.7-4.7c0.9-0.9,1.8-1.7,2.8-2.5c0.8-0.5,1.5-1,2.3-1.5
				c1.3-0.7,2.7-1.3,4.1-1.8c0.9-0.2,1.7-0.4,2.6-0.6c1.5-0.2,2.9-0.2,4.4-0.1c1,0.1,2,0.3,2.9,0.5l0.8,0.4l1.1,1l0.8,1.2l0.4,0.9
				l0.1,1.9l-1.4,1.4c-0.7,0.3-1.4,0.5-2,0.9c-3.4,2-6,5.1-8,8.5c-1.7,3-3,6.6-2.3,10.2c1.8-0.4,3.6-0.9,5.4-1.4
				c3.1-0.8,6.2-1.4,9.4-1.9c0.8-3.7,1.9-7.3,3.4-10.8c0.7-1.5,1.4-3,2.2-4.4c0.6-1,1.3-2,2-2.9c0.7-0.9,1.5-1.7,2.3-2.6
				c1.3-1.3,2.6-2.4,4.1-3.4c0.9-0.5,1.7-1,2.6-1.5c1.5-0.7,2.9-1.2,4.5-1.7c0.9-0.2,1.8-0.4,2.7-0.5c1.5-0.2,2.9-0.2,4.3-0.1
				c1.1,0.1,2.2,0.3,3.3,0.5c0.8,0.2,1.6,0.5,2.4,0.8l0.7,0.5l0.6,0.7l0.8,1.3l0.3,0.8l0.1,1.1l-0.5,1.7l-1.5,0.9
				c-1.4,0.3-2.9,0.6-4.3,0.9c-1.5,0.3-3,0.6-4.3,1.4c-1.5,1.1-2.7,2.6-3.9,4c-1.3,1.6-2.4,3.3-3.4,5.1l-1,2.1
				c-0.5,1.5-1.1,3.1-0.7,4.6c2.3-0.2,4.5-0.4,6.8-0.6c3.2-0.2,6.4-0.3,9.6-0.1c1.3-3.2,2.4-6.5,4.3-9.4c1.9-2.6,4.7-4.4,7.5-6
				c1.3-0.6,2.6-1.2,4-1.6c1.4-0.4,2.7-0.7,4.1-0.9c1.3-0.2,2.6-0.3,4-0.3c1.3,0.1,2.5,0.2,3.8,0.4c0.9,0.2,1.7,0.5,2.6,0.8l1.6,0.8
				c1,0.6,1.8,1.3,2.5,2.2l0.3,0.3l0.4,0.7l0.3,0.7l0.2,0.8l-0.1,1l-0.5,1.2l-1.1,1l-1.1,0.3c-1.2,0-2.4,0.1-3.6,0.3
				c-0.9,0.2-1.6,0.4-2.5,0.6l-1.4,0.6c-2.4,1.3-4.5,3.2-6.6,5l-0.4,0.4c-0.5,0.6-1,1.2-1.5,1.9h-7.4v16.2c-2.7-0.2-5.3-0.4-8-0.5
				c-6.5-0.2-12.9,0-19.3,0.5c-1.1,0.1-2.3,0.2-3.4,0.3c-5.5,0.6-11,1.6-16.5,2.6c-4.6,0.9-9.1,2-13.7,3.3c-3.3,1-6.6,2.1-9.8,3.3
				c-3.8,1.5-7.5,3-11.2,4.7c-6.8,3.2-13.6,6.6-20.3,9.9c0.6,0.8,1,1.8,1.4,2.7l0.4,1.4l0.3,1.3l0.1,1.3l0,1.3l-0.2,1.2l-0.3,1.2
				l-0.5,1.1l-0.6,1l-0.7,0.9l-0.8,0.8l-0.9,0.7l-0.9,0.6l-1,0.5l-1.1,0.4l-1.1,0.3l-1.1,0.2l-1.2,0l-1.2-0.1l-1.2-0.2l-1.2-0.4
				l-1.1-0.5l-1.1-0.6l-1-0.8c-0.8-0.8-1.6-1.5-2.3-2.5c-1,0.9-2.1,1.6-3.2,2.2l-1.5,0.7l-1.5,0.5l-1.5,0.3l-1.5,0.1l-1.4-0.1
				l-1.3-0.3l-1.3-0.5l-1.2-0.6l-1-0.8l-0.9-0.9l-0.8-1l-0.7-1l-0.6-1.1l-0.4-1.2l-0.3-1.2l-0.1-1.3l0-1.3l0.2-1.3l0.4-1.3l0.6-1.2
				l0.8-1.2l0.9-1.1l1.1-1l1.3-0.9l1.5-0.7l1.6-0.6c-0.7-1.5-1.2-3.2-1.5-4.8l-0.2-1.4l0-1.4l0.1-1.3l0.3-1.2l0.4-1.2l0.5-1.1l0.7-1
				l0.8-0.9l0.9-0.7l1-0.6l1-0.5l1.1-0.3l1.1-0.2l1.1,0l1.1,0.1l1.1,0.3l1.1,0.4l1.1,0.5l1,0.6l1,0.8l0.9,0.9l0.8,1l0.8,1.1l0.7,1.2
				l0.4,1c3-1.5,6.2-2.7,9.2-4.1l0.9-0.4c-0.2-3.1-0.5-6.2-0.5-9.3c0.1-1.7,0.2-3.3,0.4-4.9l0.6-2.4c0.6-1.7,1.2-3.4,1.9-5.1
				l1.8-3.4l1-1.5l1.1-1.4l1.1-1.3l1.2-1.2l1.3-1l1.4-0.9l1.5-0.7l1.6-0.6l1.7-0.4l1.7-0.2l1.8,0l2.1,0.1l0.8,0.3l0.7,0.4l0.6,0.5
				l0.5,0.6l0.4,0.9l0.1,1.2l-0.6,1.4l-0.9,0.7l-1.9,1.1c-0.5,0.5-0.9,0.9-1.3,1.5L320.5,309L320.5,309L320.5,309z"/>
			<path id="svg_21" class="st2" d="M317.8,257.9c0.1,0.3,0.2,1.7,0.6,1.8l0.2,0l23.3-8.4c0-2.7,0.1-5.3,0.3-8c0.3-4,0.8-8,2.2-11.7
				c0.5-1.2,1.1-2.4,1.8-3.6c1-1.6,2.1-3.1,3.4-4.5c0.8-0.8,1.6-1.6,2.4-2.4c1.5-1.2,3-2.3,4.6-3.2c1-0.5,2-1,3.1-1.4
				c1.1-0.4,2.2-0.7,3.3-1c1.2-0.2,2.3-0.4,3.5-0.5c1.2-0.1,2.4-0.1,3.6,0c1.3,0.1,2.4,0.3,3.7,0.6l1.4,0.4l0.7,0.3l0.6,0.5l0.5,0.5
				l0.5,0.7l0.3,0.9l0,1.3l-0.7,1.4l-1,0.6c-1.3,0.5-2.5,1-3.8,1.5c-1.1,0.6-2.1,1.1-3.2,1.8c-1,0.7-1.9,1.4-2.8,2.1l-1.7,1.6
				c-1.6,1.7-3.1,3.6-4,5.8c-1.2,3.3-2.2,6.8-2.2,10.4c0,0.6,0.1,1.2,0.3,1.7c7.4-1.6,14.8-2.9,22.3-3.9c0.9-5.4,2.1-10.8,4.2-15.8
				c0.4-0.8,0.8-1.6,1.2-2.4c1-1.8,2.3-3.3,3.6-4.8c1.1-1.2,2.3-2.3,3.6-3.3c1.3-1,2.6-1.9,4-2.8c1.5-0.8,2.9-1.5,4.4-2.2
				c1.2-0.4,2.3-0.8,3.6-1.2c1.2-0.3,2.4-0.6,3.7-0.8c1.3-0.1,2.5-0.2,3.8-0.2c1.3,0,2.6,0.1,3.9,0.3c1.3,0.2,2.6,0.5,3.9,0.9
				l1.4,0.5l0.7,0.3l0.6,0.5l0.5,0.6l0.4,0.8l0.2,1l-0.2,1.4l-0.9,1.3l-1.1,0.5c-2.2,0.5-4.3,1.2-6.4,2c-2.1,0.9-4.1,1.9-6,3.2
				c-0.7,0.5-1.4,1-2.1,1.6c-1.6,1.4-3.2,2.9-4.5,4.6c-1.2,1.8-2.1,3.8-3,5.8c-0.8,2-1.6,4.1-1.6,6.3c6.9-0.6,13.9-0.8,20.8-0.4
				c1.5-3.1,3.2-6.1,5.4-8.8c1-1.1,2-2,3.2-2.9c1-0.7,2-1.4,3-2c1.1-0.6,2.2-1.1,3.3-1.6c1.9-0.8,3.8-1.4,5.8-1.9
				c1.2-0.2,2.4-0.4,3.6-0.6c1.6-0.1,3.1-0.2,4.7-0.1c1.1,0.1,2.2,0.3,3.3,0.5l2.1,0.6c1,0.4,1.9,0.9,2.8,1.5l0.9,0.7
				c0.8,0.7,1.4,1.4,2,2.3l0.3,0.7l0.2,0.8l0,1l-0.4,1.2l-1.1,1l-1.1,0.3c-2.9,0.1-5.7,0.4-8.6,0.9l-1.2,0.3
				c-3.6,0.9-6.9,2.4-9.6,5.1c-0.9,1-1.8,2-2.6,3.1c3.9,0.8,7.7,2,11.4,3.7c1.7,0.8,3.3,1.8,4.9,2.9c0.7,0.6,1.4,1.1,2.1,1.8
				c1.1,1.1,2,2.2,2.9,3.4c1.3,2.3,2.4,4.8,2.8,7.4c0.3,2.3,0.9,6.5-0.2,7.6c-1.1,1.1-3.9-0.9-6.2-2.7l-2.8-2.3l-2.9-2l-3.1-1.7
				l-3.2-1.5c-1.7-0.7-3.5-1.3-5.3-1.8c-1.9-0.5-3.8-0.9-5.7-1.3c-2.1-0.3-4.1-0.6-6.2-0.8c-2.2-0.2-4.4-0.3-6.7-0.4
				c-2.4,0-4.8,0-7.1,0.1c-3.4,0.2-6.8,0.5-10.2,0.8l-5.4,0.7c-7.7,1.1-15.3,2.5-22.9,4.2c-5.5,1.3-11,2.6-16.5,4.2
				c-5.3,1.5-10.6,3.2-15.9,5c-5.3,1.8-10.4,3.8-15.6,5.8c-6.9,2.8-13.7,5.8-20.5,8.9l0.7,1.3l0.6,1.4l0.5,1.3l0.3,1.3l0.2,1.3
				l0,1.3l-0.2,1.2l-0.3,1.2l-0.4,1.1l-0.6,1l-0.7,1l-0.8,0.9l-0.8,0.8l-0.9,0.7l-1,0.6l-1,0.4l-1.1,0.3l-1.1,0.2l-1.2,0.1l-1.2,0
				l-1.2-0.2l-1.2-0.3l-1.2-0.5l-1.1-0.6l-1.1-0.8c-0.9-0.8-1.6-1.5-2.3-2.4c-0.9,0.9-2.1,1.6-3.2,2.3l-1.5,0.7l-1.5,0.5l-1.5,0.3
				l-1.4,0.1l-1.4-0.1l-1.3-0.3l-1.3-0.4l-1.2-0.6l-1.1-0.7l-0.9-0.8l-0.8-0.9l-0.7-1l-0.6-1.1l-0.4-1.2l-0.3-1.2l-0.2-1.3l0-1.3
				l0.2-1.3l0.4-1.3l0.6-1.2l0.7-1.2l0.9-1.1l1.1-1l1.3-0.9c1-0.5,2-1.1,3.1-1.4c-0.7-1.4-1.1-3-1.5-4.6l-0.1-1.4l0-1.3l0.2-1.3
				l0.4-1.2l0.6-1.1l0.7-1l0.8-0.8l0.9-0.7l1-0.5l1.1-0.4l1.1-0.3l1.1-0.2l2.3,0l2.3,0.4l2.2,0.8l2.1,1.2c1.5,1.1,2.8,2.4,3.7,4
				c2.9-1.8,5.8-3.5,8.7-5c-0.3-3.4-0.5-6.9-0.6-10.4c0-3.8,0.1-7.6,1.1-11.3c0.4-1.3,0.9-2.5,1.4-3.8c0.8-1.7,1.7-3.3,2.7-4.9
				c0.7-0.9,1.3-1.8,2.1-2.6c1.3-1.4,2.6-2.6,4.1-3.8c0.9-0.7,1.8-1.3,2.8-1.8c1.3-0.7,2.6-1.3,4.1-1.8c1.1-0.3,2.2-0.6,3.3-0.8
				l2.3-0.2c1.9,0,3.8,0,5.6,0.5l0.7,0.4l0.6,0.5l0.5,0.6l0.4,0.9l0.1,1.2l-0.5,1.4l-0.9,0.8c-1.2,0.6-2.3,1.3-3.4,2
				c-1.3,0.9-2.5,1.9-3.7,3c-0.8,0.8-1.6,1.7-2.4,2.6l-1.4,1.9c-1,1.7-2,3.5-2.6,5.4C318.2,250.7,317.6,254.3,317.8,257.9
				L317.8,257.9L317.8,257.9z"/>
			<path id="svg_22" class="st2" d="M267.1,215c0-8.8,0-17.7,0-26.5s0-17.7,0-26.5c11-3.6,22-7.3,33.1-10.7c6.5-2,10.8-3,12.6-3.3
				c5.2-0.8,8.6,0.2,10.4,3c1.3,2,1.9,6.1,1.9,12.2c0,3.1-0.2,5.9-0.6,8.1c-0.3,2.3-0.8,4.2-1.5,5.6c-1.3,2.7-3.5,5-6.5,6.8
				c-2.2,1.3-5.2,2.6-9,3.9c-1.7,0.6-4.1,1.3-7.1,2.3c-6.2,2.1-12.3,4.3-18.5,6.4c0,4.2,0,8.5,0,12.7C276.9,211,272,213,267.1,215
				L267.1,215L267.1,215z M281.8,183.3c6.1-2.1,12.2-4.2,18.4-6.2c3-1,4.8-1.6,5.4-1.8c2.2-0.8,3.5-2,4.1-3.5
				c0.4-0.9,0.6-2.4,0.6-4.5c0-2-0.2-3.3-0.6-4c-0.6-1-2-1.3-4-0.8c-0.6,0.1-2.5,0.6-5.5,1.5c-6.1,1.9-12.2,4-18.4,6
				C281.8,174.5,281.8,178.9,281.8,183.3L281.8,183.3L281.8,183.3z M364.6,134.1c10.1-2.1,17.2-2.9,21.1-3c5.7-0.1,9.1,2.2,10.4,6.8
				c0.4,1.6,0.7,3.8,0.9,6.6c0.2,2.8,0.4,6.1,0.4,10.1c0,3.9-0.2,7.3-0.4,10.2c-0.2,2.8-0.5,5.1-0.9,6.8c-1.3,5-4.7,8.3-10.4,10
				c-3.9,1.1-11.1,2.6-21.5,4.7c-10.5,2.1-17.6,3.5-21.5,3.9c-5.6,0.6-9.1-1.3-10.4-5.8c-0.4-1.5-0.8-3.7-1-6.4
				c-0.2-2.7-0.3-6.1-0.3-10c0-4,0.1-7.4,0.3-10.3c0.2-2.8,0.6-5.2,1-6.9c1.3-5.1,4.7-8.8,10.4-10.9
				C346.6,138.3,353.8,136.3,364.6,134.1L364.6,134.1L364.6,134.1z M363.5,147.5c-7.4,1.5-11.8,2.7-13.4,3.5
				c-1.9,0.9-3.2,2.4-3.7,4.4c-0.5,1.9-0.7,5.3-0.7,10.1c0,3.1,0.2,5.4,0.5,6.7c0.6,2.4,2.4,3.5,5.3,3.2c2.2-0.2,6.4-1,12.7-2.2
				c6.2-1.2,10.4-2.2,12.7-2.8c3-0.9,4.7-2.7,5.3-5.3c0.3-1.5,0.5-3.7,0.5-6.6c0-3.6-0.1-6.2-0.3-7.7c-0.3-2.5-1.1-4-2.2-4.7
				c-1.1-0.6-3.3-0.7-6.7-0.2C372.1,145.8,368.9,146.4,363.5,147.5L363.5,147.5L363.5,147.5z M405.1,178.9c0-8.4,0-16.9,0-25.3
				c0-8.4,0-16.9,0-25.3c11.8-1.4,23.7-2.6,35.6-3.4c8.4-0.6,13.4-0.6,14.9-0.6c1.7,0.1,3.3,0.6,4.7,1.4c1.4,0.8,2.5,1.9,3.2,3.2
				c0.8,1.4,1.3,2.9,1.5,4.5c0.2,1.8,0.3,4.1,0.3,6.7c0,4.1-0.2,7-0.8,8.6c-0.8,2.4-2.4,4.2-4.7,5.2c-0.8,0.4-2,0.7-3.5,1
				c3.3,1.8,5.5,4.6,6.7,8c1.3,3.4,1.7,7.3,1.7,11.2c-4.9,0.2-9.7,0.4-14.5,0.7c0-3.5-1.1-11.5-5.2-12.2c-1-0.2-1.2-0.3-4.4-0.1
				c-6.9,0.5-13.8,1.1-20.7,1.8c0,4.3,0,8.6,0,12.9C414.9,177.7,410,178.3,405.1,178.9L405.1,178.9L405.1,178.9z M419.8,151.7
				c6.9-0.7,13.8-1.2,20.7-1.7c3.1-0.2,4.9-0.4,5.5-0.5c2.1-0.3,3.4-1,3.9-2.2c0.4-0.8,0.6-2.3,0.6-4.3c0-1.7-0.1-3-0.5-3.8
				c-0.5-1.2-1.7-1.8-3.6-1.9c-0.6,0-2.6,0-5.9,0.2c-6.9,0.5-13.8,1.1-20.7,1.7C419.8,143.4,419.8,147.5,419.8,151.7L419.8,151.7
				L419.8,151.7z M471.7,163c6.6-0.2,13.2-0.3,19.8-0.4c0.8,0,3.5,0,8.1,0c6.3,0,9.9,0,10.9,0c1.9-0.1,3.1-0.4,3.7-0.7
				c0.8-0.5,1.2-1.7,1.2-3.6c0-1.3-0.2-2.8-0.7-3.3c-0.7-0.7-2.4-1.2-5.1-1.2c-7.8-0.1-15.5-0.2-23.3-0.1c-4.6,0-8-0.1-9.9-1.1
				c-2.4-1.2-4-3.3-4.8-6.3c-0.4-1.7-0.6-4.5-0.6-7.2c0-5.7,0.7-10.1,2.8-12.5c1.6-1.8,4.2-2.7,7.4-3.3c2.8-0.6,9.7-0.5,20.4-0.5
				c8.6,0.1,17.2,0.2,25.8,0.4c0,3.7,0,7.5,0,11.2c-9.7-0.2-19.4-0.4-29.2-0.4c-6.2,0-11.2,0.1-12.3,0.5c-1.3,0.4-1.3,1.8-1.3,3.6
				c0,1.8,0,3.7,1.4,3.7c11,0.2,21.9,0.5,32.9,0.9c2.4,0.1,4.2,1,5.6,1.8c1.4,0.8,2.5,1.8,3.3,3.2c1.2,2,1.9,5.9,1.9,10.3
				c0,4.9-0.6,8.5-1.9,10.8c-1.2,2.3-3.2,3.8-6,4.6c-2.7,0.8-10.3,1.1-22.7,1c-9.2,0-18.3,0.2-27.5,0.4
				C471.7,170.8,471.7,166.9,471.7,163L471.7,163L471.7,163z M597.5,167.1c0,4.2,0.1,8.4,0.1,12.5c-9-0.9-17.9-1.9-26.8-2.6
				c-9.6-0.7-16.2-1.4-19.5-1.9c-3.1-0.5-5.6-1-7.3-1.7c-1.8-0.7-3.3-1.6-4.4-2.8c-1.6-1.6-2.6-3.6-3-6.2c-0.2-1.3-0.5-3.3-0.6-5.8
				c-0.1-2.5-0.2-5.7-0.2-9.4c0-3.6,0-6.6,0.1-9c0.1-2.4,0.2-4.3,0.4-5.5c0.5-3.7,1.9-6.4,4.2-8.1c1.7-1.2,4.5-2,8.4-2.3
				c4-0.3,11.1-0.2,21.3,0.5c8.8,0.8,17.6,1.6,26.5,2.6c0,4.1,0,8.3,0,12.4c-10.2-1-20.4-1.9-30.5-2.6c-5.1-0.4-8.6-0.5-10.5-0.3
				c-2.4,0.2-3.9,1.5-4.4,3.8c-0.4,1.9-0.6,4.9-0.6,9.1c0,4.3,0.2,7.3,0.6,9c0.6,2.2,2.2,3.5,4.7,4c2.1,0.4,5.7,0.8,10.9,1.2
				C577,164.9,587.2,166,597.5,167.1L597.5,167.1L597.5,167.1z M604.6,129.2c5.2,0.7,10.3,1.3,15.5,2.1c0,3,0,6.1,0,9.2
				c0,3,0,6.1,0,9.1c11,1.8,22.1,3.8,33.2,6.1c0-3.1,0-6.2,0-9.3c0-3.1,0-6.2,0-9.3c5.2,1,10.3,2.2,15.5,3.4c0,8.7,0,17.3,0,26
				s0,17.3,0,26c-5.2-1.2-10.3-2.5-15.5-3.7c0-3.1,0-6.3,0-9.4c0-3.1,0-6.3,0-9.4c-11.1-2.3-22.2-4.4-33.2-6.3c0,3.1,0,6.2,0,9.3
				s0,6.2,0,9.3c-5.2-0.8-10.3-1.6-15.5-2.4c0-8.5,0-17,0-25.5C604.6,146.1,604.6,137.6,604.6,129.2L604.6,129.2L604.6,129.2z
				 M677.5,142.7c17.8,4.8,35.6,10.3,53.5,16.5c0,4.1,0,8.2,0,12.2c-13-4.5-26-8.7-39-12.6c0,2.5,0,5.1,0,7.6
				c12.3,3.6,24.7,7.6,37,11.8c0,3.8,0,7.6,0,11.5c-12.3-4.2-24.7-8.1-37-11.8c0,2.8,0,5.6,0,8.4c13.1,3.9,26.2,8.1,39.3,12.5
				c0,4.2,0,8.4,0,12.5c-18-6-35.9-11.5-53.8-16.5c0-8.7,0-17.4,0-26.1C677.5,160.1,677.5,151.4,677.5,142.7L677.5,142.7
				L677.5,142.7z"/>
			<path id="svg_23" d="M533.9,580c3.7-2.9,12-5.7,16.7-7.6c-0.1-7-3-13.6-1.3-19.4c3.1-10.5,10.2-15.1,17.3-15.9
				c0.5,0.2,0.8,1,0.4,1.3c-3.9,3.7-5.4,8.9-6.2,14.7c-0.3,2.3-0.6,8.9,1.4,13.7c4.1-2.1,14.1-5.6,17.5-6.4c0.4-7,1.4-13.8,3.5-18.8
				c4-9.9,12.7-17.6,21.5-13.2c0.5,0.2,0.8,1.2,0.4,1.3c-5.5,2-9,7.7-12.1,14.2c-0.9,1.9-4,12.4-0.5,14.6c0.1,0,0.1,0.1,0.2,0.1
				c6.3-1.3,7.3-0.7,14.1-1.3c1.2-6.9,4.1-12.6,6.7-17.1c4-7.7,14.1-13.8,23.3-8.3c0.5,0.3,0.8,1.3,0.2,1.4
				c-6.3,1.4-10.4,5.5-12.7,9.1c-1.2,1.7-6.9,9.9-4,13.2c0.3,0,0.7,0,1,0c5.4-0.2,9.3,0.9,15.2,2c1.7-4.1,3.2-4.6,4.9-6.8
				c6.2-7.7,17.1-10.4,20.7-3c0.4,0.4,0.4,1.4,0,1.4c-3.3,0.5-8.7,2.1-11.4,5.5c-0.7,0.7-2.5,2.6-4.1,6.2c7.3,5.7,11.6,10.2,13.6,18
				c0.3,1.4,1.1,9.1-1.6,5.2c-12-15-28.1-18.3-52.5-16c-26,2.5-37.9,6.2-64.1,20.3c14.4,12.9-7.2,25.5-10.8,6.7
				c-12.7,19.2-26-5-8.9-8.5C505.5,569.5,529.2,561.7,533.9,580L533.9,580L533.9,580z"/>
			<path id="svg_24" d="M578.3,496.8c9.3-3.1,19.6-6.4,24.8-7.5c1-15.3,15.3-34.3,32.4-27.7c0.6,0.2,1.1,1.2,0.5,1.3
				c-4.4,1.2-18.3,14.6-13.5,23.1c3.5,0.2,13,0,16.1,0.2c3.8-16.9,18.3-28.7,35-21c0.7,0.3,1,1.3,0.3,1.4
				c-6.6,1.1-21.5,11.6-19.8,20.4c3.1,0.2,11.3,3.1,16.7,6c2-4.1,4.1-5.7,6.2-7.9c7.3-7.7,22.2-8.2,26.3-0.9c0.4,0.4,0.5,1.4,0,1.4
				c-6.4-0.2-12.1,0.7-17.4,5.5c-0.8,0.7-2.6,3.4-4.5,7c5.2,2.8,11.1,8.4,12.2,13.7c0.8,2.6,1.4,4.8,0.9,7.5c-0.1,0.7-1.6,0-2-0.5
				c-13.8-15-44.1-24.4-73.5-20.7c-19.7,2.5-38.8,7.8-54.9,14.9C569.3,508.1,574.1,502.7,578.3,496.8L578.3,496.8z M534.9,531
				c-1.3,1.2-2.6,2.5-3.8,3.8c7.1,9.5-4,17.4-7.3,7.6c-8.3,9-14.9-1.5-9.5-5.8C521.4,535.5,528.3,533.6,534.9,531L534.9,531
				L534.9,531z"/>
			<path id="svg_25" d="M530.1,660c2-2.2,6.7-6.3,9.1-8.2c-7.3-11.7-3.2-26.4,3.8-27.5c0.4,0.2,0.8,1,0.5,1.2
				c-1.9,2.8-2.9,18.1,2.7,21.5c2.8-2,8.4-5.8,10.8-6.6c-4.1-13.9,3.1-32.7,17-29.7c0.4,0.2,0.8,1.1,0.4,1.3
				c-11.5,5.8-11.5,23.3-8.4,25.4c4.5-1.2,9.7-3.3,14.7-3.8c2.2-18.6,18.7-27,26.8-22.2c0.4,0.3,0.7,1.2,0.4,1.3
				c-4.6-2.7-21.8,15-16.1,20.2c4-0.2,8.6,1.5,13.1,2.6c1.9-10.2,16.4-18.9,22.4-12.3c0.3,0.4,0.5,1.3,0.2,1.3
				c-5.5,1.1-12.7,6.2-13.8,15.7c11.6,5.4,10.3,16.8,8.4,13.8c-10.8-14.5-34.1-12.1-51.8-8.4c-10.3,2.2-24.8,12-30.9,19
				c18.6,8.8,1.7,25.1-6.1,6.6c-12.9,22.7-25.5,2.1-10.5-4.2C504.8,653.1,523.9,643.6,530.1,660L530.1,660z"/>
			<path id="svg_26" d="M343.1,642.8c-18.3-21.3-33.8-44.2-46.3-67.2h201.1v67.2H343.1L343.1,642.8z"/>
			<polygon id="svg_27" points="594.6,313.9 742.3,313.9 742.3,371.8 594.6,371.8 			"/>
			<polygon id="svg_28" points="742.3,226 698.6,210.5 647.7,200.1 590.5,187.7 537.4,183.6 496.9,183.6 496.9,244.6 742.1,244.6 
							"/>
			<path id="svg_29" d="M287.4,157.5c5.9-1.9,11.9-3.8,17.9-5.5c2.2-0.6,4.4-1.2,6.7-1.7c2.4-0.5,4.9-0.7,7.3,0.1l0.8,0.4
				c0.8,0.5,1.3,1.1,1.7,1.9c0.6,1.5,0.8,3.1,1,4.7c0.3,3.5,0.3,7,0.1,10.5c-0.2,2.8-0.6,5.6-1.7,8.1c-0.5,1-1.1,1.9-1.9,2.8
				c-0.6,0.7-1.2,1.2-1.9,1.8c-1.4,1.1-2.9,1.9-4.6,2.7c-3.9,1.8-7.9,3-12,4.3c-7.1,2.3-14,4.8-21,7.3l0,12.8
				c-3.5,1.4-7,2.8-10.5,4.2v-48.4C275.3,161.4,281.3,159.4,287.4,157.5L287.4,157.5L287.4,157.5z M279.8,186.2
				c7-2.4,14.1-4.8,21.1-7.1c2.2-0.7,4.3-1.4,6.4-2.2l1.6-0.9l0.7-0.5l0.7-0.6l0.6-0.7l0.5-0.7l0.6-1.3c0.2-0.8,0.3-1.6,0.4-2.5
				c0.1-2.1,0.2-4.2-0.4-6.3l-0.5-1.1l-0.5-0.7l-0.7-0.6l-0.8-0.4l-0.8-0.2l-0.8-0.1l-0.8,0c-2.1,0.3-4.2,0.9-6.3,1.5
				c-7,2.1-14,4.5-20.9,6.8L279.8,186.2L279.8,186.2L279.8,186.2z M368.6,135.4c4.7-0.9,9.4-1.7,14.2-2.1c1.6-0.1,3.1-0.2,4.7-0.1
				c0.8,0.1,1.4,0.2,2.2,0.4c0.6,0.2,1.1,0.5,1.7,0.8c0.5,0.4,0.9,0.7,1.3,1.1c0.4,0.5,0.7,1,0.9,1.6c0.3,0.8,0.6,1.6,0.7,2.5
				c0.5,2.9,0.7,5.9,0.8,8.9c0.2,3.4,0.2,6.8,0.1,10.2c0,1.4-0.1,2.8-0.2,4.3c-0.2,2.6-0.3,5.2-0.9,7.8c-0.2,0.6-0.4,1.2-0.6,1.8
				c-0.4,1-0.9,1.8-1.5,2.6l-1.6,1.6l-2,1.3c-0.8,0.4-1.6,0.8-2.5,1.1c-3.4,1.1-7,1.8-10.5,2.5c-7.2,1.5-14.4,2.9-21.6,4.3
				c-3.5,0.7-7,1.4-10.5,1.8c-1,0.1-1.9,0.2-2.9,0.2l-2.2-0.2c-0.6-0.2-1.1-0.3-1.6-0.6l-1.2-0.9l-0.9-1.4l-1.4-7.2l0-19.5
				c0.1-2.3,0.4-4.5,0.9-6.8l0.6-1.9c0.4-1,0.9-1.9,1.5-2.8l1.6-1.8l1.3-1.1c1.4-1,2.9-1.7,4.5-2.3l7.9-2.4
				C357.2,137.8,362.9,136.5,368.6,135.4L368.6,135.4L368.6,135.4z M363.1,145.4l-11.3,2.7c-0.9,0.3-1.8,0.6-2.6,1l-0.8,0.5
				l-0.8,0.6l-0.7,0.6l-0.7,0.7l-0.6,0.8l-0.5,0.8c-0.3,0.8-0.6,1.5-0.8,2.3c-0.6,2.8-0.6,5.6-0.7,8.5c0,3-0.1,6,0.5,9l0.4,1.1
				l0.6,1.1l0.8,0.9l1,0.7l1.1,0.5l1.2,0.3l1.2,0.1c0.8,0,1.5-0.1,2.3-0.2c4.4-0.6,8.7-1.5,13-2.4c3.6-0.7,7.2-1.4,10.7-2.4
				c0.8-0.2,1.5-0.5,2.3-0.7l1.2-0.6l1.1-0.7l0.9-0.8l0.8-0.9l0.7-1l0.5-1.1l0.3-1.2c0.6-3.2,0.5-6.4,0.5-9.7c0-1.7-0.1-3.4-0.2-5.1
				l-0.2-1.4c-0.2-0.9-0.5-1.8-0.8-2.7l-0.4-0.8l-0.5-0.7l-0.6-0.6l-0.7-0.5l-0.8-0.4l-0.8-0.2l-1.8-0.2c-1.9,0-3.7,0.2-5.6,0.4
				C369.1,144.2,366.1,144.8,363.1,145.4L363.1,145.4L363.1,145.4z M435.2,127.3c5.5-0.4,10.9-0.8,16.4-0.9c1.2,0,2.4-0.1,3.5,0
				c1.3,0,2.4,0.3,3.6,0.9c0.4,0.2,0.8,0.5,1.2,0.8c0.9,0.7,1.4,1.4,2,2.4c0.4,0.8,0.6,1.5,0.8,2.3c0.3,1.8,0.4,3.7,0.4,5.6
				c0,2.3,0,4.6-0.2,6.9c-0.1,0.9-0.2,1.8-0.4,2.7l-0.4,0.9c-0.3,0.6-0.6,1.1-1.1,1.7l-1,0.9c-0.5,0.3-0.9,0.6-1.4,0.8
				c-0.8,0.3-1.5,0.5-2.3,0.6l-6,1.2l5.9,3.3c0.8,0.6,1.5,1.1,2.1,1.8l0.7,0.9c0.9,1.3,1.6,2.6,2.1,4.1c0.8,2.6,1.2,5.3,1.3,7.9
				c-3.5,0.2-7,0.3-10.4,0.5c-0.2-1.9-0.5-3.7-1-5.6l-0.8-2.1l-0.5-1l-0.6-0.9l-0.7-0.8l-0.9-0.8l-1.1-0.6c-0.7-0.2-1.3-0.4-1.9-0.5
				c-1.4-0.2-2.8,0-4.2,0c-6.7,0.5-13.4,1-20.2,1.7l-2.5,0.2v12.9c-3.5,0.4-7,0.8-10.5,1.2v-46.5C416.5,129,425.9,128,435.2,127.3
				L435.2,127.3L435.2,127.3z M417.7,154c7-0.7,14-1.3,21-1.8c2.4-0.2,4.8-0.4,7.2-0.6c0.7-0.1,1.4-0.2,2-0.4l0.8-0.3l0.8-0.4
				l0.7-0.5l0.6-0.6l0.5-0.7l0.4-0.7c0.2-0.6,0.4-1.1,0.5-1.7c0.3-2,0.3-4,0.1-5.9c-0.1-0.8-0.2-1.4-0.5-2.2l-0.4-0.7l-0.5-0.7
				l-0.6-0.6l-0.7-0.4l-0.8-0.3l-0.8-0.2c-0.7-0.1-1.3-0.2-2-0.2c-3.4,0-6.9,0.3-10.3,0.6c-6,0.5-12.1,1-18.1,1.6V154L417.7,154z
				 M491.9,164.7c4,0,8,0,11.9,0c2.7,0,5.5,0.1,8.2-0.2c0.6-0.1,1.2-0.2,1.8-0.3c0.6-0.2,1-0.3,1.5-0.6l0.6-0.5l0.5-0.6l0.4-0.7
				l0.3-0.7l0.3-1.4l0.1-2.1l-0.3-2.4l-0.2-0.6l-0.3-0.6l-0.5-0.6l-0.7-0.5l-0.7-0.4l-1.5-0.5l-2.7-0.4l-3.2-0.1l-22-0.1
				c-2.2,0-4.3,0-6.4-0.4c-0.6-0.1-1.1-0.3-1.6-0.5l-0.7-0.4l-0.6-0.4l-0.5-0.5l-0.5-0.6l-0.4-0.6c-0.5-0.9-0.8-1.7-1-2.7
				c-0.5-2.4-0.6-5-0.5-7.4c0.1-3,0.2-6.2,1.5-9c0.3-0.5,0.6-0.9,0.9-1.3c1.5-1.4,3.6-1.9,5.5-2.3c2-0.4,4.1-0.5,6.2-0.5
				c4.8-0.1,9.5-0.1,14.3-0.1c7.9,0.1,15.8,0.2,23.8,0.4v7c-10.5-0.2-21-0.4-31.5-0.3c-2.4,0-4.8,0-7.1,0.3c-0.5,0.1-1,0.2-1.5,0.3
				l-0.9,0.4l-0.8,0.7l-0.5,0.8l-0.3,0.8l-0.2,1.5c0,1.2,0,2.4,0.1,3.6l0.2,0.8l0.3,0.9l0.6,0.9l1,0.7l1.1,0.2c11,0.2,22,0.5,33,0.9
				l1.4,0.2c1.7,0.4,3.4,1.2,4.7,2.4c0.6,0.6,1.1,1.3,1.4,2c1,2.4,1.2,5.2,1.3,7.9c0,3-0.1,6.1-1,9c-0.1,0.4-0.3,0.8-0.5,1.3l-0.6,1
				c-0.5,0.6-0.9,1-1.5,1.5c-1,0.7-2.1,1.2-3.3,1.5c-1.8,0.4-3.6,0.5-5.5,0.6c-5.4,0.3-10.8,0.3-16.2,0.2c-8.5,0-16.9,0.2-25.4,0.3
				c0-2.5,0-5,0-7.5c5.7-0.1,11.4-0.3,17.1-0.3L491.9,164.7L491.9,164.7L491.9,164.7z M564.3,174.5c-4.4-0.4-8.9-0.8-13.3-1.4
				c-1.9-0.3-3.9-0.7-5.7-1.3c-1-0.3-1.8-0.8-2.7-1.3c-0.6-0.4-1.1-0.8-1.6-1.3c-0.5-0.5-0.9-1-1.2-1.6c-0.3-0.6-0.6-1.2-0.8-1.9
				c-0.7-2.4-0.8-5-0.9-7.5c-0.2-6.2-0.2-12.5,0-18.7l0.1-1.6c0.2-2.9,0.5-5.7,2.2-8.1c0.6-0.7,1.2-1.2,2-1.7
				c2.2-1.1,4.8-1.5,7.2-1.7c2.6-0.2,5.1-0.2,7.7-0.1c5.1,0.1,10.3,0.4,15.4,0.8c7.4,0.7,14.7,1.4,22.1,2.1v8.2
				c-9.7-0.9-19.5-1.8-29.2-2.4c-3.2-0.2-6.4-0.4-9.5-0.2l-1.5,0.2l-1.1,0.3l-1,0.5l-0.9,0.6l-0.8,0.8l-0.6,0.9l-0.5,1
				c-0.2,0.7-0.4,1.3-0.5,2c-0.5,3.2-0.5,6.4-0.5,9.6c0,2.6,0.1,5.3,0.5,7.9c0.1,0.7,0.3,1.2,0.5,1.9l0.5,1l0.7,0.9l0.8,0.8l0.9,0.6
				l1,0.5l1,0.4c0.9,0.2,1.7,0.4,2.6,0.5c2.9,0.4,5.8,0.7,8.8,0.9c9.9,0.8,19.8,1.8,29.7,2.9c0,2.5,0,5,0.1,7.6v0.8
				c-6.2-0.7-12.4-1.3-18.6-1.8C572.7,175.1,568.5,174.8,564.3,174.5L564.3,174.5L564.3,174.5z M631.1,153.6
				c8.1,1.4,16.2,3,24.3,4.7v-18.5c3.8,0.8,7.5,1.6,11.3,2.5V190c-3.8-0.9-7.5-1.8-11.3-2.7v-18.8c-6.4-1.3-12.9-2.6-19.4-3.8
				c-6-1.1-12-2.2-18-3.2V180c-3.8-0.6-7.5-1.2-11.3-1.7v-46.8c3.8,0.5,7.5,1,11.3,1.5v18.3C622.4,152.1,626.8,152.8,631.1,153.6
				L631.1,153.6L631.1,153.6z M717,156.7c4,1.3,8,2.6,12,4v7.8c-11.6-4-23.4-7.7-35.1-11.3l-3.9-1.2V168c8.6,2.6,17.2,5.2,25.7,8
				c3.8,1.2,7.5,2.5,11.3,3.8v7.1c-11-3.7-22.1-7.2-33.2-10.6l-3.8-1.1v12.7c8.3,2.5,16.5,5,24.8,7.7c4.9,1.6,9.7,3.2,14.6,4.8v8.2
				c-15.8-5.2-31.8-10.1-47.8-14.7l-1.9-0.5v-47.9C692.2,148.9,704.6,152.7,717,156.7L717,156.7z"/>
			<path id="svg_30" d="M268.5,508.3c-7.1-23.4-10.7-45.3-11-64.1H404c0.5,24.8,10.6,47.4,26.8,64.1H268.5L268.5,508.3L268.5,508.3z
				"/>
			<path id="svg_31" d="M251.1,155.3l2.8-1.1c81.7-30.2,163.3-45.9,244.9-47.3c81.6-1.4,163.3,11.7,244.9,39.1l3,1l0,3.1
				c-0.7,98.1-1.3,196.3-2,294.4c-0.3,50.8-26.9,122-77.1,184.2c-40.5,50.3-96.4,94.9-166.3,118.4l-2.4,0.1
				c-70.6-18.1-126.4-60.9-166.9-111c-52.1-64.5-78.7-141.5-78.9-193.7v0v0v0c-0.3-47.4-0.7-94.7-1-142.1L251.1,155.3L251.1,155.3
				L251.1,155.3z M346.5,640.1h148.7v-59.7H304.4c-0.6-1.1-1.2-2.1-1.8-3.2c10.2,18.3,22.2,36.4,36.2,53.7
				C341.3,634,343.8,637,346.5,640.1L346.5,640.1z M495.2,647.6h-142c36.6,40.1,84.1,73.5,142,89.8V647.6L495.2,647.6z M352.6,647
				c-0.4-0.4-0.8-0.9-1.2-1.3C351.8,646.1,352.2,646.6,352.6,647L352.6,647z M350.2,644.3c-0.1-0.1-0.2-0.2-0.3-0.3
				C350,644.1,350.1,644.2,350.2,644.3L350.2,644.3z M300.3,572.8h194.9v-35.3c1.5,0.1,3.1,0.1,4.6,0.1c1,0,2,0,3-0.1v200
				c-0.2,0.1-0.4,0.1-0.5,0.2c66.5-23.2,119.8-66.1,158.7-114.3c48.3-59.9,74.2-128,75.1-177c0,0.1,0,0.3,0,0.4H595.5
				c0.1-1.5,0.1-3,0.1-4.6v-3h140.5c0.2-20.9,0.3-41.9,0.4-62.8h-141v-7.5h141c0.1-16.9,0.2-33.9,0.3-50.8H595.6V311h-1v-0.2H737
				c0.2-20.4,0.3-40.9,0.4-61.3H500.7V311h-7.6V187c-77.9,1.4-155.9,16.9-234.1,47.3l-0.2-8c80.5-31,160.8-46.3,241-46.9
				c79.5-0.6,158.8,13.2,237.9,40.5c0,2.6,0,5.3-0.1,7.9c0.2-24.9,0.4-49.7,0.5-74.6c-79.7-26.4-159.4-39-239.1-37.6
				c-80.7,1.4-161.4,16.9-242.1,46.7l3.8,138.1c0.3,46.4,0.7,92.8,1,139.2c0,0,0-0.1,0-0.1H404v3c0,1.5,0,3.1,0.1,4.6H261.9
				c0,0,0,0,0-0.1c0.5,17.6,4.1,37.8,10.5,59.3c-0.1-0.2-0.1-0.4-0.2-0.6h156.1c1.3,1.5,2.7,2.9,4.2,4.4l4.8,3.2H274.5
				C280.8,532.5,289.4,552.7,300.3,572.8L300.3,572.8L300.3,572.8z M302.5,577c0-0.1-0.1-0.2-0.1-0.2
				C302.4,576.8,302.5,576.9,302.5,577L302.5,577z M302.2,576.5c-0.1-0.2-0.2-0.5-0.4-0.7C302,576,302.1,576.3,302.2,576.5
				L302.2,576.5z M301,574.2c0-0.1-0.1-0.1-0.1-0.2C300.9,574.1,301,574.2,301,574.2L301,574.2z M274.1,511.8
				c-0.1-0.4-0.3-0.8-0.4-1.2C273.9,511,274,511.4,274.1,511.8L274.1,511.8z M273.2,509c-0.2-0.5-0.3-0.9-0.4-1.4
				C272.9,508.1,273.1,508.5,273.2,509L273.2,509z M261.8,445c0-0.1,0-0.1,0-0.2C261.8,444.9,261.8,445,261.8,445L261.8,445z
				 M261.8,440.2C261.8,440.2,261.8,440.2,261.8,440.2C261.8,440.2,261.8,440.2,261.8,440.2L261.8,440.2z M736.1,441
				c0,0.1,0,0.2,0,0.2C736.1,441.2,736.1,441.1,736.1,441L736.1,441z M736.1,442.2c0,0.1,0,0.3,0,0.4
				C736.1,442.4,736.1,442.3,736.1,442.2L736.1,442.2z M736.1,442.6c0,0.1,0,0.2,0,0.2C736.1,442.8,736.1,442.7,736.1,442.6
				L736.1,442.6z M736.1,443.9c0,0.1,0,0.2,0,0.2C736.1,444.1,736.1,444,736.1,443.9L736.1,443.9z M736.1,444.2c0,0.1,0,0.2,0,0.3
				C736.1,444.4,736.1,444.3,736.1,444.2L736.1,444.2z M736.1,444.6c0,0,0,0.1,0,0.1C736.1,444.6,736.1,444.6,736.1,444.6
				L736.1,444.6z M736.1,443.9C736.1,443.9,736.1,443.9,736.1,443.9C736.1,443.9,736.1,443.8,736.1,443.9c0-0.1,0-0.1,0-0.2
				c0,0,0-0.1,0-0.1c0,0,0,0,0,0c0,0,0-0.1,0-0.1c0,0,0,0,0,0c0,0,0,0,0-0.1c0,0,0-0.1,0-0.1c0,0,0,0,0,0V443.9L736.1,443.9
				L736.1,443.9z M736.1,443.2C736.1,443.2,736.1,443.1,736.1,443.2c0-0.1,0-0.2,0-0.2c0,0,0,0,0,0c0,0,0-0.1,0-0.1V443.2
				L736.1,443.2z M736.1,440C736.1,439.9,736.1,439.9,736.1,440c0-0.1,0-0.2,0-0.2c0,0,0,0,0,0c0,0,0,0,0-0.1c0,0,0,0,0,0V440
				L736.1,440z M737,311.8C737,311.8,737,311.8,737,311.8C737,311.8,737,311.8,737,311.8L737,311.8z M500.7,241.9h236.8
				c0,1.3,0,2.5,0,3.8c0-5.9,0.1-11.9,0.1-17.8c-78.8-27.5-157.8-41.4-236.9-40.9L500.7,241.9L500.7,241.9L500.7,241.9z
				 M737.5,245.6c0,0.6,0,1.2,0,1.8C737.5,246.8,737.5,246.2,737.5,245.6L737.5,245.6z M737.4,247.8c0,0.1,0,0.1,0,0.2
				C737.4,247.9,737.4,247.8,737.4,247.8L737.4,247.8z M737.4,248c0,0.4,0,0.8,0,1.3C737.4,248.8,737.4,248.4,737.4,248L737.4,248z
				 M501.9,737.9C501.9,737.9,501.9,737.9,501.9,737.9C501.9,737.9,501.9,737.9,501.9,737.9L501.9,737.9z M500.3,738.5
				C500.2,738.5,500.2,738.5,500.3,738.5C500.2,738.5,500.2,738.5,500.3,738.5L500.3,738.5z M500.2,738.5c-0.1,0-0.2,0.1-0.4,0.1
				C499.9,738.6,500.1,738.5,500.2,738.5L500.2,738.5z M497.2,737.9c-0.6-0.1-1.1-0.3-1.7-0.5C496.1,737.6,496.6,737.8,497.2,737.9
				L497.2,737.9z M502.1,737.8C502.1,737.8,502.1,737.8,502.1,737.8c0.1,0,0.1,0,0.1,0L502.1,737.8L502.1,737.8L502.1,737.8z"/>
			<path id="svg_32" d="M292.9,276.3c4.2-2.7,8.5-5.2,12.8-7.4c-0.6-6.8-1.4-17.3,0.5-23c3.3-10.4,12.9-19.1,24.2-17.1
				c0.6,0.1,1.2,0.9,0.6,1.2c-6.3,3.3-11.3,8.3-14.2,15.3c-0.8,2.1-4,15.9,0.7,17.1c0.5,0.1,1,0.2,1.5,0.2
				c8.2-3.6,16.8-6.6,25.6-9.1c0-6.8,0.2-16.2,2.5-21.2c4.5-9.9,15.4-17.1,27.1-13.6c0.6,0.2,1.2,1,0.6,1.3
				c-7,2.4-12.7,6.6-16.3,13.1c-1.1,1.9-5.6,15.2-0.8,17c0.1,0,0.2,0.1,0.3,0.1c8.1-1.8,16.5-3.3,25.3-4.4c1-6.7,2.8-15.5,5.9-20.2
				c6.5-9.6,19.6-16.1,32-11.7c0.7,0.2,1.1,1.2,0.4,1.3c-8.1,1.9-15.1,5.7-20.1,12c-1.4,1.8-8.1,14-4.1,16.9c0.4,0,0.8-0.1,1.3-0.1
				c7-0.7,15-0.9,22.7-0.4c1.9-4.1,4.1-7.9,6.2-10.2c7.6-8,24.4-10.7,29.6-4c0.5,0.4,0.7,1.3,0.1,1.3c-7.2,0.3-14.6,1.3-20.2,6.4
				c-0.8,0.8-3.9,3.9-5.8,7.5c11.6,1.9,21.3,5.9,24.4,13.3c1,2.4,1.7,4.5,1.4,7.2c-0.1,0.7-1.5,0.1-2.1-0.3
				c-14.7-13.5-37.9-15-69.3-9.6c-31.6,5.5-58.2,14.9-86.5,28.3c11.4,12.8-6.5,22.8-12.4,9.2c-13.7,16.4-26.5-7.4-7.5-10.2
				C268.4,265.5,290.1,264.9,292.9,276.3L292.9,276.3L292.9,276.3z"/>
			<path id="svg_33" d="M296.8,406.8c3.8-2.9,8.6-5.3,12.5-7.7c-4-6.3-6.3-15.6-4.8-21.4c2.7-10.6,9.2-15.4,17.3-15
				c0.6,0.1,1.1,0.8,0.6,1.2c-5.7,3.6-6.6,8.5-8.2,15.8c-0.9,4,1.3,10.6,4.2,12.8c7.3-3.9,7.1-3.4,14.7-6.1
				c-2.3-6.9-1.7-15.9,1-21.7c4.3-9.3,11.5-12.6,18.9-11.1c0.6,0.2,1.1,1,0.5,1.2c-5.6,2.4-17.2,11.6-9.7,28.9
				c7-2.5,7.4-2.9,16.3-4.8c0.7-6.8,0.9-14.9,3.6-19.7c5.6-9.9,18.3-14.4,24.2-12.1c0.6,0.2,1.1,1.1,0.4,1.3
				c-3.4,2.3-7.6,3.9-12,10.5c-2.3,3.5-6.6,11.6-5.4,17c6.4-0.9,14.7-1.3,21.8-1.1c1.6-4.1,4.6-9.3,6.5-11.6c1.3-1.6,3-2.7,4.9-3.5
				v24.5c-12.1-0.6-25.4,0.8-38.1,3.8c-28.7,6.8-36.2,12-61.7,25.7c15.4,9.6,0.5,24.3-9,9.8c-16.7,19-27.4-5.5-10.1-9.1
				C272.1,398.4,293.5,389.9,296.8,406.8L296.8,406.8L296.8,406.8z"/>
			<path id="svg_34" d="M289.3,341.8c4.3-2.6,10.2-4.6,14.6-6.8c-0.5-6.8-1.4-12.9,0.6-18.6c3.6-10.4,9-15.6,17.8-14.6
				c0.6,0.1,1.2,0.9,0.6,1.2c-6.4,3.2-4.8,7.6-7.7,14.5c-0.9,2-3.1,10.3,1.5,11.5c0.5,0.1,1,0.2,1.5,0.3c8.2-3.4,5.3-3,13.8-5.2
				c0.1-6.5,0.6-15.5,2.9-20.3c4.5-9.3,13.1-14,21-12.1c0.6,0.2,1.9,1.8,1.3,2c-6.3,2-17.2,14.8-12.7,24.9c5.6-0.9,9.2-2.7,18.9-4
				c1.2-6.7,3.6-13.5,6.8-18.1c6.7-9.5,17.2-11.3,23.5-8.5c0.7,0.3,1.5,2,0.8,2.1c-8.1,1.7-8.4,1-13.6,7.2
				c-2.8,3.3-8.5,12.2-4.4,16.3c7-0.5,11.8-1.3,19.5-0.7c2-4,3.4-9.4,5.7-11.7c7.7-7.8,21.1-8.6,25.3-3.3c0.5,0.4,0.6,1.3,0,1.3
				c-7.2,0.1-9.8,2.2-15.5,7.2c-0.6,0.5-1.9,2.2-3.4,4.3H404v13.5c-11.9-1-24.6-0.7-36.7,1.1c-31.7,4.8-43.4,12-69.5,24.8
				c11.1,13.1-7,22.2-12.6,8.5c-14.1,16.1-26.3-8-7.3-10.4C267.4,331.2,286.3,326.7,289.3,341.8L289.3,341.8L289.3,341.8z"/>
			<path id="svg_35" class="st2" d="M499.8,537.7c52.9,0,95.8-43.1,95.8-95.3V311H404v131.4C404,494.6,446.9,537.7,499.8,537.7
				L499.8,537.7L499.8,537.7z"/>
			<path id="svg_36" class="st5" d="M496.6,404.5c0.9,0.8,2.8-0.1,3.5-1.1c1.5-2.5,1.3-5.5,1.5-8.4c0.2-3.2,0.3-6.2-0.8-9.2
				c-1.8-5.2-4.1-9.4-10-10.4c-0.7-0.1-2.1,1-1.5,1.5c3.9,4.1,5.4,4,6.6,10.4C496.9,393.4,496.3,404.2,496.6,404.5L496.6,404.5
				L496.6,404.5z M455.3,480.8c0.9,0.2,2.8-2.4,3.5-3.8c0.7-1.4,0.6-3.9,0.4-4.2c-0.2-0.4-2.3,0.4-3.5,0.4s-1.9-0.2-3.5-0.4
				c-1.6-0.2-1.3-3.8-1.5-5.8c-0.5-5-0.7-10-0.4-15c0.1-1.4,0.4-3.1,1.5-3.8c1.5-0.9,3.6-0.7,5.4-0.4c3.6,0.6,6.8,2.5,10.4,3.1
				c2,0.3,4.2,0.1,6.2-0.4c1.7-0.4,3-1.8,4.6-2.3c0.9-0.3,1.9-0.4,2.7,0c2.8,1.4,4.7,4.4,7.7,5.4c3.7,1.2,7.7,0.6,11.6,0.8
				c3.1,0.1,6.2-0.4,9.3,0c1.4,0.2,3.6,0.5,3.9,1.9c0.4,2-2.8,3.8-2.3,5.8c0.8,3,4.3,4.6,5.8,7.3c0.6,1,0.5,2.4,0,3.5
				c-0.5,1-2,1-2.7,1.9c-0.9,1.2-1,3-1.9,4.2c-0.9,1.3-2.2,2.4-3.5,3.5c-2.8,2.2-5.7,4.5-8.9,6.1c-1,0.5-3-0.7-3.5,0.4
				c-0.9,1.9-1.8,4.4-2.7,5.8c-0.9,1.4-2.1,1.4-2.7,2.3c-0.7,0.9-1.6,2.4-1.2,2.7c0.5,0.3,4.7,0.2,6.2,0c1.5-0.2,2.4-0.3,2.9-0.7
				c0.5-0.4-0.3-1.7-0.6-4.3c-0.3-2.6,7-3.7,10.4-5.8c3.8-2.3,7.4-5,11.2-7.3c1.6-0.9,3.7-1.1,5-2.3c0.7-0.6,0.4-1.8,0.4-2.7
				c0-2.2-0.5-4.3-0.4-6.5c0-1,0-2.3,0.8-3.1c0.6-0.6,1.9-0.8,2.7-0.4c1.3,0.7,1.5,2.6,2.7,3.5c1.7,1.2,3.9,1.7,5.8,2.7
				c1.7,0.8,4.7,0.8,5,2.7c0.5,3.2-1.7,6.3-3.1,9.2c-0.7,1.5-2.2,2.5-3.1,3.8c-0.5,0.8-0.5,2-1.2,2.7c-1.7,1.8-4,2.9-5.8,4.6
				c-1.2,1.2-2.4,2.6-3.1,4.2c-0.4,0.9-0.6,1.8-1.2,2.7c-0.6,0.8-1.8,1.1-2.3,2.3c-0.5,1.2-2.2,4.9-0.8,4.6c1.4-0.2,8.9-1.6,9.3-2.3
				c0.3-0.7-0.4-2.6-0.8-5c-0.4-2.4,4.9-4.2,7.7-5.8c1.5-0.9,3.6-0.4,5-1.5c0.8-0.7,0.4-2.1,0.8-3.1c0.6-1.6,1.2-3.3,2.3-4.6
				c1.5-1.7,4.1-2.3,5.4-4.2c1.4-2.1,2.7-4.8,2.3-7.3c-0.3-2-2.9-2.7-4.2-4.2c-1-1.2-2.3-2.3-2.7-3.8c-0.6-2.1-1.1-4.5-0.4-6.5
				c0.9-2.6,3.4-4.3,5-6.5c1.3-1.9,3.3-3.5,3.9-5.8c0.6-2.6-0.6-5.4-0.8-8.1c0-0.5-0.4-1.2,0-1.5c1.8-1.6,3.8-3.5,6.2-3.8
				c2.2-0.3,4,2,6.2,2.3c2.3,0.3,4.8,0.4,6.9-0.4c0.7-0.3,0.9-1.8,0.4-2.3c-1.4-1.4-4.8-0.8-5.4-2.7c-0.5-1.6,2.7-2,3.5-3.5
				c1.1-2,2.1-4.3,1.9-6.5c0-0.8-1.7-0.8-2.3-0.4c-1,0.7-1,2.3-1.9,3.1c-0.7,0.6-1.8,0.8-2.7,0.8c-1-0.1-2.1-0.4-2.7-1.1
				c-0.6-0.7-1.1-2.2-0.4-2.7c1.7-1.1,4.2-0.6,6.2-1.1c0.8-0.2,2-0.4,2.3-1.1c0.6-1.3,0.6-2.9,0-4.2c-0.2-0.6-1.3-0.6-1.9-0.4
				c-0.9,0.2-1.4,1.5-2.3,1.5c-1.3,0-2.7-0.6-3.5-1.5c-0.7-0.8-0.8-2.1-0.4-3.1c0.7-1.5,2.8-2,3.5-3.5c0.9-2,1.6-4.4,1.2-6.5
				c-0.2-0.9-1.9-1.2-2.7-0.8c-1,0.6-0.9,2.1-1.5,3.1c-0.8,1.3-1.3,3.2-2.7,3.8c-1,0.4-2.5-0.5-2.7-1.5c-0.4-1.7,0.6-3.4,1.1-5
				c0.7-1.8,1.5-3.5,2.7-5c1.2-1.5,3.3-2.2,4.2-3.8c0.7-1.2,1.2-3.1,0.4-4.2c-0.6-0.8-2.2-0.2-3.1,0.4c-0.7,0.5-0.4,1.9-1.2,2.3
				c-1.9,0.9-4.3,0.2-6.2,1.1c-1.4,0.8-2.2,2.4-3.1,3.8c-1.6,2.6-1.7,7.2-2.3,7.7c-0.7,0.6-2.2,0.3-2.7-0.4c-0.8-1,0.5-2.9-0.4-3.8
				c-0.7-0.8-2.3-0.7-3.1,0c-0.9,0.8-1.2,2.2-1.2,3.5c0,2,0.2,4,1.2,5.8c1.5,2.8,3.9,5.1,5.8,7.7c1.9,2.6,4.3,5,5.4,8.1
				c0.7,1.9,0.8,4.3,0,6.1c-0.7,1.7-2.4,3.6-4.2,3.5c-2.5-0.2-4.1-2.9-6.2-4.2c-2-1.2-3.8-3.1-6.2-3.5c-5.1-0.8-10.3,0-15.4,0
				c-4.6,0-9.3,0.6-13.9,0c-2.2-0.3-4.6-1.1-6.2-2.7c-1.5-1.5-2.6-3.6-2.7-5.8c-0.2-2.8,0.8-5.5,1.9-8.1c0.8-1.8,2.1-3.6,3.9-4.6
				c1.3-0.8,3.5-1.3,4.9-0.8c1.4,0.6,5.6,6.4,6.6,6.1c1-0.3,0.3-5.3-0.3-6.9c-0.9-2.3-3.4-3.8-4.2-6.1c-0.2-0.7,0.8-1.6,1.5-1.5
				c1.4,0.1,2.8,0.9,3.9,1.9c0.6,0.5,3.5,4.5,4.2,4.3c0.8-0.2-0.3-6-1.1-7.8c-1.1-2.4-4.6-4.2-4.9-4.8c-0.2-0.5,0.1-1,0.6-1
				c1.3-0.1,2.6,0.7,3.9,1.1c1.2,0.4,2.9,1.8,3.5,1.5c0.6-0.3-0.1-2.3-0.8-3.1c-2.4-2.8-5.7-4.6-8.1-7.3c-1.2-1.4-2.6-3.1-2.7-5
				c-0.1-1.2,1.2-2.2,2.3-2.7c1.9-0.9,4.5-1.3,6.3-2.4c0.7-0.4,0.2-0.8-0.5-1.1c-2.8-1.1-5.9-1.5-8.9-1.5c-1.7,0-3.4,1-5,1.5
				c-1.2,0.4-2.3,1.2-3.5,1.2c-2.1,0-4.6,0.3-6.2-1.2c-1-0.9,0.2-2.7,0.8-3.8c0.6-1.1,1.8-1.8,2.7-2.7c0.6-0.6,2.6-1.3,1.9-1.5
				c-0.7-0.2-4.2-0.1-6.2,0.4c-1.7,0.4-3.4,1.1-4.6,2.3c-1.2,1.1-0.9,3.4-2.3,4.2c-2.6,1.5-4,1-6.7,2.3c-0.7,0.3-2.1,2.2-2.9,2.3
				c-3.6,0.5-10.5-1.3-10.8-0.8c-0.4,0.6,5.5,3.9,6.6,6.9c0.5,1.3-2.8-0.5-4.2-0.4c-2.1,0.2-4.3,0.6-6.2,1.5
				c-1.8,0.9-3.2,2.4-4.6,3.8c-1.3,1.3-2,3.1-3.5,4.2c-0.7,0.6-2.1-0.2-2.6,0.5c-0.6,0.9-0.8,2.9,0.3,2.9l6.2,0.4
				c1.2,0.1-1,2.5-0.4,3.5c0.5,0.8,1.9,0.4,2.7,0c1-0.5,1.4-1.7,2.3-2.3c1-0.7,2.2-1.6,3.5-1.5c1.5,0.1,3.6,0.5,4.2,1.9
				c0.7,1.3-0.9,2.8-1.2,4.2c-0.3,1.5,0.7,3.6-0.4,4.6c-3.3,3.1-4.4,0.5-9.2,6.5c-3.9,4.8-2.2,2.2-3.5,8.4c-0.3,1.2-0.5,2.7-1.6,3.5
				c-1,0.8-2.7,1-3.9,0.4c-2.1-1.2-3.6-3.4-5-5.4c-0.8-1.1-0.4-3.1-1.5-3.8c-1.5-0.9-3.7-0.9-5.4-0.4c-1.3,0.4-1.9,1.9-2.7,3.1
				c-1.7,2.5-3,5.2-4.6,7.7c-1.3,2-3.1,3.7-4.2,5.7c-0.6,1-0.3,2.4-0.8,3.5c-1.3,2.9-2.4,6-3.9,8.8c-0.6,1.1-2.1,1.8-2.3,3.1
				c-0.3,1.4,0.2,4.1,0.8,4.2c0.6,0.1,2.8-1.6,4.2-2.3c1.5-0.7,4.4-1.4,4.6-1.9c0.2-0.5-1.5-2.1-2.3-3.1c-1.5-2,1.8-4.7,3.1-6.9
				c0.5-0.8,1.5-1.1,1.9-1.9c0.9-1.8,1-4,1.9-5.8c1.2-2.3,2.4-4.7,4.2-6.5c0.9-0.8,2.5-1.4,3.5-0.8c1.7,1.2,2.1,3.6,3.1,5.4
				c0.8,1.4,1.9,2.7,2.3,4.2c0.4,1.4-0.9,3.1,0,4.2c1.1,1.4,3.2,1.7,5,1.9l3.9,0.4l0.4,5.4c0.2,2.1-4.1,0.4-6.2,0.8
				c-1.8,0.4-3.6,1.1-5.4,1.5c-1.8,0.4-5.1-1-5.4,0.8c-1.5,7.5,0.4,15.4,0.8,23c0.1,2.1-1.1,5.3,0.8,6.1l3.8,1.6
				c0.7,1.5,1.2,3.5,2,4.6C453.4,480.4,454.5,480.7,455.3,480.8L455.3,480.8L455.3,480.8z"/>
			<path id="svg_37" class="st5" d="M575.8,335c0-1.5-1-2.3-3.1-2.3h-7.5c-2.1,0-3.1,0.8-3.1,2.3s1,2.3,3.1,2.3h1.6V351
				c0,2.3,0.7,3.5,2.2,3.5c1.5,0,2.1-1.1,2.1-3.5v-13.7h1.6C574.8,337.3,575.8,336.6,575.8,335L575.8,335L575.8,335z M554.7,339.8
				c0,1.7-1,2.6-2.7,2.6h-2v-5.2h2.1C553.7,337.2,554.7,338.2,554.7,339.8L554.7,339.8z M559.3,352.3c0-0.8-0.4-1.7-1.3-2.8
				l-3.4-4.3c2.8-0.5,4.5-2.7,4.5-5.8c0-4-2.5-6.7-7.2-6.7h-3.3c-2.4,0-3,1-3,3.4V351c0,2.3,0.7,3.5,2.2,3.5c1.5,0,2.2-1.1,2.2-3.5
				v-5.3l5,7.1c0.8,1.1,1.5,1.8,2.3,1.8C558.5,354.6,559.3,353.6,559.3,352.3L559.3,352.3L559.3,352.3z M536.1,345.6h-4.5l2.3-8
				L536.1,345.6L536.1,345.6z M542.3,352.2c0-0.4-0.1-0.9-0.3-1.5l-4.8-15.4c-0.6-1.8-1.7-2.8-3.2-2.8c-1.6,0-2.6,1-3.3,3.2
				l-4.9,15.1c-0.2,0.5-0.2,0.9-0.2,1.4c0,1.4,0.8,2.3,2,2.3c0.9,0,1.7-0.7,2.1-2.2l0.6-2.2h7l0.5,2c0.4,1.6,1.1,2.4,2.3,2.4
				C541.3,354.5,542.3,353.6,542.3,352.2L542.3,352.2L542.3,352.2z M522.5,344.5c0-2.3-0.8-3.2-2.7-3.2H517c-1.8,0-2.7,0.7-2.7,2.3
				c0,1.6,0.9,2.3,2.7,2.3h1.3c0,2.6-1.4,4.3-3.4,4.3c-2.5,0-4.2-2.6-4.2-6.8c0-4.1,1.7-6.6,4.2-6.6c2.3,0,3.6,2.1,4.7,2.1
				c0.9,0,1.6-1.1,1.6-2.3c0-2.1-2.5-4.5-6.2-4.5c-5.2,0-8.5,4.4-8.5,11.3c0,6.8,3.4,11.4,8,11.4
				C519.4,354.8,522.5,350.5,522.5,344.5L522.5,344.5L522.5,344.5z M505.4,335c0-1.5-1-2.3-3.1-2.3h-7.5c-2.1,0-3.1,0.8-3.1,2.3
				s1,2.3,3.1,2.3h1.6V351c0,2.3,0.7,3.5,2.2,3.5s2.2-1.1,2.2-3.5v-13.7h1.6C504.4,337.3,505.4,336.6,505.4,335L505.4,335L505.4,335
				z M490.9,335c0-1.5-1-2.3-3.1-2.3h-7.5c-2.1,0-3.1,0.8-3.1,2.3s1,2.3,3.1,2.3h1.6V351c0,2.3,0.7,3.5,2.2,3.5s2.2-1.1,2.2-3.5
				v-13.7h1.6C489.9,337.3,490.9,336.6,490.9,335L490.9,335L490.9,335z M474.8,345v-9c0-2.3-0.7-3.5-2.2-3.5c-1.5,0-2.1,1.1-2.1,3.5
				v8.5c0,3.8-1.3,5.7-3.8,5.7c-2.5,0-3.8-1.9-3.8-5.7v-8.5c0-2.3-0.7-3.5-2.2-3.5c-1.5,0-2.2,1.1-2.2,3.5v9c0,6.4,3.2,9.8,8.1,9.8
				C471.6,354.8,474.8,351.4,474.8,345L474.8,345z M456.8,335c0-1.5-1-2.3-3.1-2.3h-7.5c-2.1,0-3.1,0.8-3.1,2.3s1,2.3,3.1,2.3h1.6
				V351c0,2.3,0.7,3.5,2.2,3.5s2.2-1.1,2.2-3.5v-13.7h1.6C455.8,337.3,456.8,336.6,456.8,335L456.8,335L456.8,335z M441.9,347.5
				c0-3.2-1.7-5.2-5.2-6.5c-2.2-0.8-3.4-1-3.4-2.5c0-1.1,0.8-1.8,2.1-1.8c1.1,0,2.3,0.8,3.4,0.8c1.3,0,1.9-0.8,1.9-2.1
				c0-1.7-2-3.2-5.2-3.2c-4.2,0-6.9,2.9-6.9,6.8c0,3.3,1.7,4.9,5.4,6.1c2,0.7,3.3,1.2,3.3,3c0,1.3-0.9,2.2-2.1,2.2
				c-1.9,0-3.5-1.1-4.6-1.1c-1.3,0-2.1,0.9-2.1,2.2c0,1.7,2.6,3.4,6.1,3.4C439,354.7,441.9,351.7,441.9,347.5L441.9,347.5
				L441.9,347.5z"/>
			<path id="svg_38" class="st4" d="M494.6,403.5c0.9,0.8,2.8-0.1,3.5-1.1c1.5-2.5,1.3-5.5,1.5-8.4c0.2-3.2,0.3-6.2-0.8-9.2
				c-1.8-5.2-4.1-9.4-10-10.4c-0.7-0.1-2.1,1-1.5,1.5c3.9,4.1,5.4,4,6.6,10.4C494.9,392.4,494.3,403.2,494.6,403.5L494.6,403.5
				L494.6,403.5z M453.3,479.8c0.9,0.2,2.8-2.4,3.5-3.8c0.7-1.4,0.6-3.9,0.4-4.2c-0.2-0.4-2.3,0.4-3.5,0.4s-1.9-0.2-3.5-0.4
				s-1.4-3.8-1.5-5.8c-0.5-5-0.7-10-0.4-15c0.1-1.4,0.4-3.1,1.5-3.8c1.5-0.9,3.6-0.7,5.4-0.4c3.6,0.6,6.8,2.5,10.4,3.1
				c2,0.3,4.2,0.1,6.2-0.4c1.7-0.4,3-1.8,4.6-2.3c0.9-0.3,1.9-0.4,2.7,0c2.8,1.4,4.7,4.4,7.7,5.4c3.7,1.2,7.7,0.6,11.6,0.8
				c3.1,0.1,6.2-0.4,9.3,0c1.4,0.2,3.6,0.5,3.9,1.9c0.4,2-2.8,3.8-2.3,5.7c0.8,3,4.3,4.6,5.8,7.3c0.6,1,0.5,2.4,0,3.5
				c-0.5,1-2.1,1-2.7,1.9c-0.9,1.2-1,3-1.9,4.2c-0.9,1.3-2.2,2.4-3.5,3.5c-2.8,2.2-5.7,4.5-8.9,6.1c-1,0.5-3-0.7-3.5,0.4
				c-0.9,1.9-1.8,4.4-2.7,5.8c-0.9,1.4-2,1.4-2.7,2.3c-0.7,0.9-1.6,2.4-1.2,2.7s4.7,0.2,6.2,0c1.5-0.2,2.4-0.3,2.9-0.7
				c0.5-0.4-0.3-1.7-0.6-4.3c-0.3-2.6,7-3.7,10.4-5.8c3.8-2.3,7.3-5,11.2-7.3c1.6-0.9,3.7-1.1,5-2.3c0.7-0.6,0.4-1.8,0.4-2.7
				c0-2.2-0.5-4.3-0.4-6.5c0.1-1.1,0-2.3,0.8-3.1c0.6-0.6,1.9-0.8,2.7-0.4c1.3,0.7,1.5,2.6,2.7,3.5c1.7,1.2,3.9,1.7,5.8,2.7
				c1.7,0.8,4.7,0.8,5,2.7c0.5,3.2-1.7,6.3-3.1,9.2c-0.7,1.5-2.2,2.5-3.1,3.8c-0.5,0.8-0.5,2-1.2,2.7c-1.7,1.8-4,2.9-5.8,4.6
				c-1.2,1.2-2.4,2.6-3.1,4.2c-0.4,0.9-0.6,1.8-1.2,2.7c-0.6,0.8-1.8,1.1-2.3,2.3c-0.6,1.2-2.2,4.8-0.8,4.6c1.4-0.2,8.9-1.6,9.3-2.3
				c0.3-0.7-0.4-2.6-0.8-5c-0.4-2.4,4.9-4.2,7.7-5.7c1.5-0.9,3.6-0.5,5-1.5c0.8-0.7,0.4-2.1,0.8-3.1c0.6-1.6,1.2-3.3,2.3-4.6
				c1.5-1.7,4.1-2.3,5.4-4.2c1.4-2.1,2.7-4.8,2.3-7.3c-0.3-2-2.9-2.7-4.2-4.2c-1-1.2-2.3-2.3-2.7-3.8c-0.6-2.1-1.1-4.5-0.4-6.5
				c0.9-2.6,3.4-4.3,5-6.5c1.4-1.9,3.4-3.5,3.9-5.7c0.6-2.6-0.6-5.4-0.8-8.1c-0.1-0.5-0.4-1.2,0-1.5c1.8-1.6,3.8-3.5,6.2-3.8
				c2.2-0.3,4,2,6.2,2.3c2.3,0.3,4.8,0.4,7-0.4c0.7-0.3,0.9-1.8,0.4-2.3c-1.4-1.4-4.8-0.8-5.4-2.7c-0.5-1.6,2.7-2,3.5-3.5
				c1.1-2,2.1-4.3,1.9-6.5c0-0.8-1.7-0.8-2.3-0.4c-1,0.7-1,2.3-1.9,3.1c-0.7,0.6-1.8,0.8-2.7,0.8c-1-0.1-2.1-0.4-2.7-1.1
				c-0.6-0.7-1.1-2.2-0.4-2.7c1.7-1.1,4.1-0.6,6.2-1.1c0.8-0.2,2-0.4,2.3-1.1c0.5-1.3,0.5-2.9,0-4.2c-0.3-0.6-1.3-0.6-1.9-0.4
				c-0.9,0.2-1.4,1.5-2.3,1.5c-1.3,0-2.7-0.6-3.5-1.5c-0.7-0.8-0.8-2.1-0.4-3.1c0.7-1.5,2.8-2,3.5-3.5c0.9-2,1.6-4.4,1.1-6.5
				c-0.2-0.9-1.9-1.2-2.7-0.8c-1,0.5-0.9,2.1-1.5,3.1c-0.8,1.3-1.3,3.2-2.7,3.8c-1,0.4-2.5-0.5-2.7-1.5c-0.4-1.7,0.5-3.4,1.1-5
				c0.7-1.8,1.5-3.5,2.7-5c1.2-1.5,3.3-2.2,4.2-3.8c0.7-1.2,1.2-3.1,0.4-4.2c-0.6-0.8-2.2-0.2-3.1,0.4c-0.7,0.5-0.4,1.9-1.2,2.3
				c-1.9,0.9-4.3,0.2-6.2,1.1c-1.4,0.8-2.2,2.4-3.1,3.8c-1.6,2.6-1.7,7.2-2.3,7.7c-0.7,0.6-2.2,0.4-2.7-0.4c-0.8-1,0.5-2.9-0.4-3.8
				c-0.7-0.8-2.3-0.7-3.1,0c-0.9,0.8-1.1,2.2-1.1,3.5c0,2,0.2,4,1.1,5.8c1.5,2.8,3.9,5.1,5.8,7.7c1.9,2.6,4.3,5,5.4,8.1
				c0.7,1.9,0.8,4.3,0,6.1c-0.7,1.7-2.4,3.6-4.2,3.5c-2.5-0.2-4.1-2.9-6.2-4.2c-2-1.2-3.8-3.1-6.2-3.5c-5.1-0.8-10.3,0-15.4,0
				c-4.6,0-9.3,0.6-13.9,0c-2.2-0.3-4.6-1.1-6.2-2.7c-1.5-1.5-2.6-3.6-2.7-5.8c-0.2-2.8,0.8-5.5,1.9-8.1c0.8-1.8,2.1-3.6,3.9-4.6
				c1.3-0.8,3.5-1.3,4.9-0.8s5.6,6.4,6.6,6.1c1-0.3,0.3-5.3-0.3-6.9c-0.9-2.3-3.4-3.8-4.2-6.1c-0.2-0.7,0.8-1.6,1.5-1.5
				c1.4,0.1,2.8,0.9,3.9,1.9c0.6,0.5,3.5,4.5,4.2,4.3c0.8-0.2-0.3-6-1.1-7.8c-1.1-2.4-4.6-4.2-4.9-4.7c-0.3-0.5,0.1-1,0.6-1
				c1.3-0.1,2.6,0.7,3.9,1.1c1.2,0.4,2.9,1.8,3.5,1.5s-0.1-2.3-0.8-3.1c-2.4-2.8-5.7-4.6-8.1-7.3c-1.2-1.4-2.6-3.1-2.7-5
				c-0.1-1.2,1.2-2.2,2.3-2.7c1.9-0.9,4.5-1.3,6.3-2.3c0.7-0.4,0.2-0.8-0.5-1.1c-2.8-1.1-5.9-1.5-8.9-1.5c-1.7,0-3.3,1-5,1.5
				c-1.2,0.4-2.3,1.1-3.5,1.1c-2.1,0-4.6,0.3-6.2-1.1c-1-0.9,0.2-2.7,0.8-3.8c0.6-1.1,1.8-1.8,2.7-2.7c0.6-0.6,2.6-1.3,1.9-1.5
				c-0.7-0.2-4.2-0.1-6.2,0.4c-1.7,0.4-3.4,1.1-4.6,2.3c-1.2,1.1-0.9,3.4-2.3,4.2c-2.6,1.5-4,1-6.7,2.3c-0.7,0.4-2.1,2.2-2.9,2.3
				c-3.6,0.5-10.4-1.3-10.8-0.8c-0.4,0.6,5.5,3.9,6.6,6.9c0.5,1.3-2.8-0.5-4.2-0.4c-2.1,0.2-4.3,0.6-6.2,1.5
				c-1.8,0.9-3.2,2.4-4.6,3.8c-1.3,1.3-2,3.1-3.5,4.2c-0.7,0.5-2.1-0.2-2.6,0.5c-0.6,0.9-0.8,2.9,0.3,2.9l6.2,0.4
				c1.2,0.1-1,2.5-0.4,3.5c0.5,0.7,1.9,0.4,2.7,0c1-0.5,1.4-1.7,2.3-2.3c1.1-0.7,2.2-1.6,3.5-1.5c1.5,0.1,3.6,0.5,4.2,1.9
				c0.7,1.3-0.9,2.8-1.2,4.2c-0.3,1.5,0.8,3.6-0.4,4.6c-3.3,3.1-4.4,0.5-9.3,6.5c-3.9,4.8-2.2,2.2-3.5,8.4c-0.3,1.2-0.5,2.7-1.5,3.5
				c-1,0.8-2.7,1-3.9,0.4c-2.1-1.2-3.6-3.4-5-5.4c-0.8-1.1-0.4-3.1-1.5-3.8c-1.5-0.9-3.7-0.9-5.4-0.4c-1.3,0.4-1.9,1.9-2.7,3.1
				c-1.7,2.5-3,5.2-4.6,7.7c-1.3,2-3.1,3.7-4.3,5.8c-0.6,1-0.3,2.4-0.8,3.5c-1.3,2.9-2.4,6-3.9,8.8c-0.6,1.1-2.1,1.8-2.3,3.1
				c-0.3,1.4,0.2,4.1,0.8,4.2c0.6,0.1,2.8-1.6,4.2-2.3c1.5-0.7,4.4-1.4,4.6-1.9c0.2-0.5-1.5-2-2.3-3.1c-1.5-2,1.8-4.7,3.1-6.9
				c0.5-0.8,1.5-1.1,1.9-1.9c0.9-1.8,1-4,1.9-5.7c1.2-2.3,2.4-4.7,4.2-6.5c0.9-0.8,2.5-1.4,3.5-0.8c1.7,1.2,2.1,3.6,3.1,5.4
				c0.8,1.4,1.9,2.7,2.3,4.2c0.4,1.4-0.9,3.1,0,4.2c1.1,1.4,3.2,1.7,5,1.9l3.9,0.4l0.4,5.4c0.1,2.1-4.1,0.4-6.2,0.8
				c-1.8,0.4-3.6,1.1-5.4,1.5c-1.8,0.4-5.1-1-5.4,0.8c-1.5,7.5,0.4,15.4,0.8,23c0.1,2.1-1.1,5.3,0.8,6.1l3.8,1.6
				c0.7,1.5,1.2,3.5,2,4.5S452.4,479.7,453.3,479.8L453.3,479.8L453.3,479.8z"/>
			<path id="svg_39" class="st4" d="M573.8,334c0-1.5-1-2.3-3.1-2.3h-7.5c-2.1,0-3.1,0.8-3.1,2.3s1,2.3,3.1,2.3h1.6V350
				c0,2.3,0.7,3.5,2.2,3.5c1.5,0,2.2-1.1,2.2-3.5v-13.7h1.6C572.8,336.3,573.8,335.6,573.8,334L573.8,334z M552.6,338.8
				c0,1.7-1,2.6-2.7,2.6h-2v-5.2h2.1C551.7,336.2,552.6,337.2,552.6,338.8L552.6,338.8L552.6,338.8z M557.3,351.3
				c0-0.8-0.4-1.7-1.3-2.8l-3.4-4.3c2.8-0.5,4.5-2.7,4.5-5.8c0-4-2.6-6.7-7.2-6.7h-3.3c-2.4,0-3,1.1-3,3.4V350
				c0,2.3,0.7,3.5,2.2,3.5s2.2-1.1,2.2-3.5v-5.3l5,7.1c0.8,1.1,1.5,1.8,2.3,1.8C556.5,353.6,557.3,352.6,557.3,351.3L557.3,351.3
				L557.3,351.3z M534.1,344.6h-4.5l2.4-8L534.1,344.6L534.1,344.6z M540.2,351.2c0-0.4-0.1-0.9-0.3-1.5l-4.8-15.4
				c-0.6-1.8-1.7-2.8-3.2-2.8c-1.6,0-2.6,1-3.3,3.2l-4.9,15.1c-0.2,0.5-0.2,0.9-0.2,1.4c0,1.4,0.9,2.3,2,2.3c0.9,0,1.7-0.7,2.1-2.2
				l0.6-2.2h7l0.5,2c0.4,1.6,1.2,2.4,2.3,2.4C539.3,353.5,540.2,352.6,540.2,351.2L540.2,351.2L540.2,351.2z M520.4,343.5
				c0-2.4-0.8-3.2-2.7-3.2h-2.8c-1.8,0-2.7,0.7-2.7,2.3c0,1.6,0.9,2.3,2.7,2.3h1.4c-0.1,2.6-1.4,4.3-3.4,4.3c-2.5,0-4.2-2.6-4.2-6.8
				c0-4.1,1.7-6.6,4.2-6.6c2.3,0,3.6,2.1,4.7,2.1c0.9,0,1.6-1.1,1.6-2.3c0-2.1-2.5-4.5-6.2-4.5c-5.2,0-8.5,4.4-8.5,11.3
				c0,6.8,3.4,11.4,8,11.4C517.4,353.8,520.4,349.5,520.4,343.5L520.4,343.5z M503.4,334c0-1.5-1-2.3-3.1-2.3h-7.5
				c-2.1,0-3.1,0.8-3.1,2.3s1,2.3,3.1,2.3h1.6V350c0,2.3,0.7,3.5,2.1,3.5c1.5,0,2.2-1.1,2.2-3.5v-13.7h1.6
				C502.4,336.3,503.4,335.6,503.4,334L503.4,334L503.4,334z M488.9,334c0-1.5-1-2.3-3.1-2.3h-7.5c-2.1,0-3.1,0.8-3.1,2.3
				s1,2.3,3.1,2.3h1.6V350c0,2.3,0.7,3.5,2.2,3.5s2.2-1.1,2.2-3.5v-13.7h1.6C487.8,336.3,488.9,335.6,488.9,334L488.9,334L488.9,334
				z M472.7,344v-9c0-2.3-0.7-3.5-2.2-3.5c-1.5,0-2.2,1.1-2.2,3.5v8.5c0,3.8-1.3,5.7-3.8,5.7c-2.5,0-3.8-1.9-3.8-5.7v-8.5
				c0-2.3-0.7-3.5-2.2-3.5c-1.5,0-2.1,1.1-2.1,3.5v9c0,6.4,3.2,9.8,8.1,9.8C469.6,353.8,472.7,350.4,472.7,344L472.7,344z
				 M454.8,334c0-1.5-1-2.3-3.1-2.3h-7.5c-2.1,0-3.1,0.8-3.1,2.3s1,2.3,3.1,2.3h1.6V350c0,2.3,0.7,3.5,2.2,3.5s2.2-1.1,2.2-3.5
				v-13.7h1.6C453.8,336.3,454.8,335.6,454.8,334L454.8,334L454.8,334z M439.8,346.5c0-3.2-1.7-5.2-5.2-6.5c-2.2-0.8-3.4-1-3.4-2.5
				c0-1.1,0.8-1.8,2.1-1.8c1.1,0,2.4,0.8,3.4,0.8c1.2,0,1.9-0.8,1.9-2.1c0-1.7-2-3.2-5.2-3.2c-4.2,0-6.9,2.9-6.9,6.8
				c0,3.3,1.7,4.9,5.4,6.1c2.1,0.7,3.3,1.2,3.3,3c0,1.3-0.9,2.2-2.1,2.2c-1.9,0-3.5-1.1-4.6-1.1c-1.3,0-2.1,0.9-2.1,2.2
				c0,1.8,2.6,3.4,6.1,3.4C437,353.7,439.8,350.7,439.8,346.5L439.8,346.5L439.8,346.5z"/>
			<path id="svg_40" d="M495.6,404c0.9,0.8,2.8-0.1,3.5-1.1c1.5-2.5,1.4-5.5,1.5-8.4c0.2-3.2,0.3-6.2-0.8-9.2
				c-1.8-5.2-4.1-9.4-10-10.4c-0.7-0.1-2,1-1.5,1.5c3.9,4.1,5.4,4,6.6,10.4C495.9,392.9,495.3,403.7,495.6,404L495.6,404L495.6,404z
				 M454.3,480.3c0.9,0.2,2.8-2.4,3.5-3.8c0.7-1.4,0.5-3.9,0.4-4.2c-0.2-0.4-2.3,0.4-3.5,0.4s-1.9-0.2-3.5-0.4
				c-1.6-0.2-1.4-3.8-1.5-5.8c-0.5-5-0.7-10-0.4-15c0.1-1.4,0.4-3.1,1.5-3.8c1.5-0.9,3.6-0.7,5.4-0.4c3.6,0.6,6.8,2.5,10.4,3.1
				c2,0.3,4.2,0.1,6.2-0.4c1.7-0.4,3-1.8,4.6-2.3c0.9-0.3,1.9-0.4,2.7,0c2.8,1.4,4.7,4.4,7.7,5.4c3.7,1.2,7.7,0.6,11.6,0.8
				c3.1,0.1,6.2-0.4,9.3,0c1.4,0.2,3.6,0.5,3.9,1.9c0.4,2-2.8,3.8-2.3,5.8c0.8,3,4.3,4.6,5.8,7.3c0.5,1,0.5,2.4,0,3.5
				c-0.5,1-2.1,1-2.7,1.9c-0.9,1.2-1,2.9-1.9,4.2c-0.9,1.3-2.2,2.4-3.5,3.5c-2.8,2.2-5.7,4.5-8.9,6.1c-1,0.5-3-0.7-3.5,0.4
				c-0.9,1.9-1.8,4.4-2.7,5.8c-0.9,1.4-2.1,1.4-2.7,2.3c-0.7,0.8-1.6,2.4-1.2,2.7s4.7,0.2,6.2,0c1.5-0.2,2.4-0.3,2.9-0.7
				c0.5-0.4-0.3-1.7-0.6-4.3c-0.3-2.6,7-3.7,10.4-5.8c3.8-2.3,7.4-5,11.2-7.3c1.6-0.9,3.7-1.1,5-2.3c0.7-0.6,0.4-1.8,0.4-2.7
				c0-2.2-0.5-4.3-0.4-6.5c0-1.1,0-2.3,0.8-3.1c0.6-0.6,1.9-0.8,2.7-0.4c1.3,0.7,1.5,2.6,2.7,3.5c1.7,1.2,3.9,1.7,5.8,2.7
				c1.7,0.8,4.7,0.8,5,2.7c0.5,3.2-1.7,6.3-3.1,9.2c-0.7,1.5-2.2,2.5-3.1,3.8c-0.5,0.8-0.5,2-1.2,2.7c-1.7,1.8-4,2.9-5.8,4.6
				c-1.2,1.2-2.4,2.6-3.1,4.2c-0.4,0.9-0.6,1.8-1.2,2.7c-0.6,0.8-1.8,1.1-2.3,2.3c-0.6,1.2-2.2,4.9-0.8,4.6c1.4-0.2,8.9-1.6,9.3-2.3
				c0.3-0.7-0.4-2.6-0.8-5s4.9-4.2,7.7-5.7c1.5-0.9,3.6-0.5,5-1.5c0.8-0.7,0.4-2.1,0.8-3.1c0.6-1.6,1.2-3.3,2.3-4.6
				c1.5-1.7,4.1-2.3,5.4-4.2c1.4-2.1,2.7-4.8,2.3-7.3c-0.3-2-2.9-2.7-4.2-4.2c-1-1.2-2.3-2.3-2.7-3.8c-0.6-2.1-1.1-4.5-0.4-6.5
				c0.9-2.6,3.4-4.3,5-6.5c1.3-1.9,3.3-3.5,3.9-5.8c0.6-2.6-0.6-5.4-0.8-8.1c0-0.5-0.4-1.2,0-1.5c1.8-1.6,3.8-3.5,6.2-3.8
				c2.2-0.3,4,2,6.2,2.3c2.3,0.3,4.8,0.4,7-0.4c0.7-0.3,0.9-1.8,0.4-2.3c-1.4-1.4-4.8-0.8-5.4-2.7c-0.5-1.5,2.7-2,3.5-3.5
				c1.1-2,2.1-4.3,1.9-6.5c0-0.8-1.7-0.8-2.3-0.4c-1,0.7-1,2.3-1.9,3.1c-0.7,0.6-1.8,0.8-2.7,0.8c-1-0.1-2.1-0.4-2.7-1.1
				c-0.6-0.7-1.1-2.2-0.4-2.7c1.7-1.2,4.2-0.6,6.2-1.1c0.8-0.2,2-0.4,2.3-1.1c0.6-1.3,0.6-2.9,0-4.2c-0.2-0.6-1.3-0.6-1.9-0.4
				c-0.9,0.2-1.4,1.5-2.3,1.5c-1.3,0-2.7-0.6-3.5-1.5c-0.7-0.8-0.8-2.1-0.4-3.1c0.7-1.5,2.8-2,3.5-3.5c0.9-2,1.6-4.4,1.1-6.5
				c-0.2-0.9-1.9-1.2-2.7-0.8c-1,0.6-0.9,2.1-1.5,3.1c-0.8,1.3-1.3,3.2-2.7,3.8c-0.9,0.4-2.5-0.5-2.7-1.5c-0.4-1.7,0.6-3.4,1.2-5
				c0.7-1.8,1.5-3.5,2.7-5c1.2-1.5,3.3-2.2,4.2-3.8c0.7-1.2,1.2-3.1,0.4-4.2c-0.6-0.8-2.2-0.2-3.1,0.4c-0.7,0.5-0.4,1.9-1.1,2.3
				c-1.9,0.9-4.3,0.2-6.2,1.1c-1.4,0.8-2.2,2.4-3.1,3.8c-1.6,2.6-1.7,7.2-2.3,7.7c-0.7,0.6-2.2,0.3-2.7-0.4c-0.8-1,0.5-2.9-0.4-3.8
				c-0.7-0.8-2.3-0.7-3.1,0c-0.9,0.8-1.2,2.2-1.2,3.5c0,2,0.3,4,1.2,5.8c1.5,2.8,3.9,5.1,5.8,7.7c1.9,2.6,4.3,5,5.4,8.1
				c0.7,1.9,0.8,4.3,0,6.1c-0.7,1.7-2.4,3.6-4.2,3.5c-2.5-0.2-4.1-2.9-6.2-4.2c-2-1.2-3.8-3.1-6.2-3.5c-5.1-0.8-10.3,0-15.4,0
				c-4.6,0-9.3,0.6-13.9,0c-2.2-0.3-4.5-1.1-6.2-2.7c-1.5-1.5-2.6-3.6-2.7-5.8c-0.2-2.8,0.8-5.5,1.9-8.1c0.8-1.8,2.1-3.6,3.9-4.6
				c1.3-0.8,3.5-1.3,4.9-0.8c1.4,0.6,5.6,6.4,6.6,6.1c1-0.3,0.3-5.3-0.3-6.9c-0.9-2.3-3.4-3.8-4.2-6.1c-0.2-0.7,0.8-1.6,1.6-1.5
				c1.4,0.1,2.8,0.9,3.9,1.9c0.6,0.5,3.5,4.5,4.2,4.3c0.8-0.2-0.3-6-1.2-7.8c-1.1-2.4-4.6-4.2-4.9-4.8c-0.2-0.5,0.1-0.9,0.6-1
				c1.3-0.1,2.6,0.7,3.9,1.1c1.2,0.4,2.9,1.8,3.5,1.5c0.6-0.3-0.1-2.3-0.8-3.1c-2.4-2.8-5.7-4.6-8.1-7.3c-1.2-1.4-2.6-3.1-2.7-5
				c-0.1-1.2,1.2-2.2,2.3-2.7c1.9-0.9,4.5-1.3,6.3-2.4c0.7-0.4,0.2-0.8-0.5-1.1c-2.8-1.1-5.9-1.5-8.9-1.5c-1.7,0-3.3,1-5,1.5
				c-1.2,0.4-2.3,1.1-3.5,1.1c-2.1,0-4.6,0.3-6.2-1.1c-0.9-0.9,0.2-2.7,0.8-3.8c0.6-1.1,1.8-1.8,2.7-2.7c0.6-0.6,2.6-1.3,1.9-1.5
				c-0.7-0.2-4.2-0.1-6.2,0.4c-1.7,0.4-3.4,1.1-4.6,2.3c-1.2,1.1-0.9,3.4-2.3,4.2c-2.6,1.5-4,1-6.7,2.3c-0.7,0.4-2.1,2.2-2.9,2.3
				c-3.6,0.5-10.4-1.3-10.8-0.8s5.5,3.9,6.6,6.9c0.5,1.3-2.8-0.5-4.2-0.4c-2.1,0.2-4.3,0.6-6.2,1.5c-1.8,0.9-3.2,2.4-4.6,3.8
				c-1.3,1.3-2,3.1-3.5,4.2c-0.7,0.5-2.1-0.2-2.6,0.5c-0.6,0.9-0.8,2.9,0.2,2.9l6.2,0.4c1.2,0.1-1,2.5-0.4,3.5
				c0.5,0.7,1.9,0.4,2.7,0c1-0.5,1.4-1.7,2.3-2.3c1-0.7,2.2-1.6,3.5-1.5c1.6,0.1,3.6,0.5,4.2,1.9c0.7,1.3-0.9,2.8-1.2,4.2
				c-0.3,1.5,0.7,3.5-0.4,4.6c-3.3,3.1-4.4,0.5-9.3,6.5c-3.9,4.8-2.2,2.2-3.5,8.4c-0.3,1.2-0.5,2.7-1.5,3.5c-1,0.7-2.7,1-3.9,0.4
				c-2.1-1.2-3.6-3.4-5-5.4c-0.8-1.1-0.4-3.1-1.5-3.8c-1.5-0.9-3.7-0.9-5.4-0.4c-1.3,0.4-1.9,1.9-2.7,3.1c-1.7,2.5-3,5.2-4.6,7.7
				c-1.3,2-3.1,3.7-4.2,5.8c-0.6,1-0.3,2.4-0.8,3.5c-1.3,2.9-2.4,6-3.9,8.8c-0.6,1.1-2.1,1.8-2.3,3.1c-0.3,1.4,0.2,4.1,0.8,4.2
				c0.6,0.1,2.8-1.6,4.2-2.3c1.5-0.7,4.4-1.4,4.6-1.9s-1.5-2.1-2.3-3.1c-1.5-2,1.8-4.7,3.1-6.9c0.5-0.8,1.5-1.1,1.9-1.9
				c0.9-1.8,1-4,1.9-5.8c1.2-2.3,2.4-4.7,4.3-6.5c0.9-0.8,2.5-1.4,3.5-0.8c1.7,1.2,2.1,3.6,3.1,5.4c0.8,1.4,1.9,2.7,2.3,4.2
				c0.4,1.4-0.9,3.1,0,4.2c1.1,1.4,3.2,1.7,5,1.9l3.9,0.4l0.4,5.4c0.1,2.1-4.1,0.4-6.2,0.8c-1.8,0.4-3.6,1.1-5.4,1.5
				c-1.8,0.4-5.1-1-5.4,0.8c-1.5,7.5,0.4,15.4,0.8,23c0.1,2.1-1.1,5.3,0.8,6.1l3.8,1.6c0.7,1.5,1.2,3.5,2,4.5
				C452.4,479.9,453.4,480.2,454.3,480.3L454.3,480.3L454.3,480.3z"/>
			<path id="svg_41" d="M574.8,334.5c0-1.5-1-2.3-3.1-2.3h-7.5c-2.1,0-3.1,0.8-3.1,2.3s1,2.3,3.1,2.3h1.6v13.7
				c0,2.3,0.7,3.5,2.2,3.5s2.1-1.1,2.1-3.5v-13.7h1.6C573.8,336.8,574.8,336.1,574.8,334.5L574.8,334.5L574.8,334.5z M553.7,339.3
				c0,1.7-1,2.6-2.7,2.6h-2v-5.2h2.1C552.7,336.7,553.7,337.7,553.7,339.3L553.7,339.3z M558.3,351.8c0-0.8-0.4-1.7-1.3-2.8
				l-3.4-4.3c2.8-0.6,4.5-2.7,4.5-5.8c0-4-2.5-6.7-7.2-6.7h-3.4c-2.4,0-3,1-3,3.4v14.8c0,2.3,0.7,3.5,2.2,3.5s2.1-1.1,2.1-3.5v-5.3
				l5,7.1c0.8,1.1,1.5,1.8,2.3,1.8C557.5,354.1,558.3,353.1,558.3,351.8L558.3,351.8L558.3,351.8z M535.1,345.1h-4.5l2.4-8
				L535.1,345.1L535.1,345.1z M541.3,351.7c0-0.4-0.1-0.9-0.3-1.5l-4.8-15.4c-0.6-1.8-1.7-2.8-3.2-2.8c-1.6,0-2.6,1-3.3,3.2
				l-4.9,15.1c-0.2,0.5-0.2,0.9-0.2,1.4c0,1.4,0.8,2.3,2,2.3c0.9,0,1.7-0.7,2.1-2.2l0.6-2.2h7l0.5,2c0.4,1.6,1.2,2.4,2.3,2.4
				C540.3,354,541.3,353.1,541.3,351.7L541.3,351.7L541.3,351.7z M521.4,344c0-2.4-0.8-3.3-2.7-3.3h-2.8c-1.8,0-2.7,0.7-2.7,2.3
				s0.9,2.3,2.7,2.3h1.3c-0.1,2.6-1.4,4.3-3.4,4.3c-2.5,0-4.2-2.6-4.2-6.8c0-4.1,1.7-6.6,4.2-6.6c2.3,0,3.6,2.1,4.7,2.1
				c0.9,0,1.6-1.1,1.6-2.3c0-2.1-2.5-4.5-6.2-4.5c-5.1,0-8.5,4.4-8.5,11.3c0,6.8,3.4,11.4,8,11.4C518.4,354.3,521.4,350,521.4,344
				L521.4,344L521.4,344z M504.4,334.5c0-1.5-1-2.3-3.1-2.3h-7.5c-2.1,0-3.1,0.8-3.1,2.3s1,2.3,3.1,2.3h1.6v13.7
				c0,2.3,0.7,3.5,2.2,3.5s2.2-1.1,2.2-3.5v-13.7h1.6C503.4,336.8,504.4,336.1,504.4,334.5L504.4,334.5L504.4,334.5z M489.9,334.5
				c0-1.5-1-2.3-3.1-2.3h-7.5c-2.1,0-3.1,0.8-3.1,2.3s1,2.3,3.1,2.3h1.6v13.7c0,2.3,0.7,3.5,2.2,3.5c1.5,0,2.1-1.1,2.1-3.5v-13.7
				h1.6C488.9,336.8,489.9,336.1,489.9,334.5L489.9,334.5L489.9,334.5z M473.8,344.5v-9c0-2.3-0.7-3.5-2.2-3.5s-2.2,1.1-2.2,3.5v8.5
				c0,3.8-1.3,5.7-3.8,5.7s-3.8-1.9-3.8-5.7v-8.5c0-2.3-0.7-3.5-2.2-3.5s-2.2,1.1-2.2,3.5v9c0,6.4,3.2,9.8,8.1,9.8
				S473.8,350.8,473.8,344.5L473.8,344.5z M455.8,334.5c0-1.5-1-2.3-3.1-2.3h-7.5c-2.1,0-3.1,0.8-3.1,2.3s1,2.3,3.1,2.3h1.6v13.7
				c0,2.3,0.7,3.5,2.2,3.5c1.5,0,2.2-1.1,2.2-3.5v-13.7h1.6C454.8,336.8,455.8,336.1,455.8,334.5L455.8,334.5L455.8,334.5z
				 M440.8,347c0-3.2-1.7-5.2-5.2-6.5c-2.2-0.8-3.4-1-3.4-2.5c0-1,0.8-1.8,2.1-1.8c1.1,0,2.3,0.8,3.4,0.8c1.2,0,1.9-0.8,1.9-2.1
				c0-1.7-2-3.2-5.2-3.2c-4.2,0-6.9,2.9-6.9,6.8c0,3.3,1.7,4.9,5.4,6.1c2.1,0.7,3.3,1.2,3.3,3c0,1.3-0.9,2.2-2.1,2.2
				c-1.9,0-3.5-1.1-4.6-1.1c-1.3,0-2.1,0.9-2.1,2.2c0,1.7,2.6,3.4,6.1,3.4C438,354.2,440.8,351.2,440.8,347L440.8,347L440.8,347z"/>
			<path id="svg_42" d="M499.8,523.9c45.4,0,82.2-37.8,82.2-83.7V324.7H417.5v115.5C417.5,486.1,454.4,523.9,499.8,523.9
				L499.8,523.9L499.8,523.9z M499.8,529.4c48.8,0,88.5-39.9,88.5-88.3V319.3H411.2V441C411.2,489.4,450.9,529.4,499.8,529.4
				L499.8,529.4z"/>
		</g>
	</g>
</g>
</svg>
