<?xml version="1.0" encoding="utf-8"?>
<!-- Generator: Adobe Illustrator 21.1.0, SVG Export Plug-In . SVG Version: 6.00 Build 0)  -->
<svg version="1.1" id="Layer_1" xmlns="http://www.w3.org/2000/svg" xmlns:xlink="http://www.w3.org/1999/xlink" x="0px" y="0px"
	 viewBox="0 0 83.5 95.2" style="enable-background:new 0 0 83.5 95.2;" xml:space="preserve">
<style type="text/css">
	.st0{fill:url(#SVGID_1_);}
	.st1{fill:url(#SVGID_2_);}
	.st2{fill:url(#SVGID_3_);}
	.st3{fill:url(#SVGID_4_);}
	.st4{fill:url(#SVGID_5_);}
	.st5{fill:url(#SVGID_6_);}
	.st6{fill:url(#SVGID_7_);}
	.st7{fill:url(#SVGID_8_);}
	.st8{fill:url(#SVGID_9_);}
	.st9{fill:url(#SVGID_10_);}
	.st10{fill:url(#SVGID_11_);}
	.st11{fill:url(#SVGID_12_);}
	.st12{fill:url(#SVGID_13_);}
	.st13{fill:url(#SVGID_14_);}
	.st14{fill:url(#SVGID_15_);}
	.st15{fill:#FFFFFF;}
	.st16{clip-path:url(#SVGID_17_);}
	.st17{filter:url(#v);}
	.st18{fill:url(#SVGID_18_);}
	.st19{mask:url(#x_2_);fill:url(#SVGID_19_);}
</style>
<filter  filterUnits="userSpaceOnUse" height="33.122" id="v" width="33.122" x="16.181" y="13.694">
	<feColorMatrix  values="1 0 0 0 0 0 1 0 0 0 0 0 1 0 0 0 0 0 1 0"></feColorMatrix>
</filter>
<path d="M78.8,79.5v1.6h-3.4v7.2h-2.3v-7.2h-3.4v-1.6H78.8z M70.6,86.8v1.6h-7.4v-8.9h2.3v7.2H70.6L70.6,86.8z M26.1,86.8v1.6h-7.7
	v-8.9H26v1.6h-5.3v2h4.8v1.6h-4.8v2L26.1,86.8L26.1,86.8z M14.2,85.1c1-0.5,1.6-1.6,1.6-2.7c0-0.9-0.3-1.6-0.8-2.1
	c-0.7-0.5-1.6-0.8-3.1-0.8H6.6L6.5,80c0,0,0.1,0.2,0.2,0.4c0.2,0.3,0.2,0.4,0.2,0.6v7.4h2.3v-2.8h2.9l1.5,2.8h2.5
	C16.2,88.4,14.2,85.1,14.2,85.1z M13.1,83.7c-0.2,0.2-0.4,0.3-0.7,0.3H9.2v-2.7h2.5c0.7,0,1.1,0.1,1.4,0.3c0.3,0.2,0.4,0.5,0.4,1
	C13.5,83,13.4,83.4,13.1,83.7z M35.8,79.5v5.9c-0.5-0.7-1.1-1.3-2.1-2.4c-0.8-0.9-2.4-2.6-3.2-3.5h-2.2L28.2,80c0,0,0.1,0.2,0.2,0.4
	c0.1,0.2,0.1,0.3,0.2,0.4l0,7.6l2.1,0v-5.9c0.4,0.6,1.2,1.4,1.6,1.9c1,1.1,2.5,2.7,3.6,4h2v-8.9C37.9,79.5,35.8,79.5,35.8,79.5z
	 M58.4,79.5v5.4c0,0.6-0.1,1-0.4,1.2c-0.4,0.3-1,0.5-1.9,0.5c-0.9,0-1.5-0.2-1.9-0.5c-0.3-0.3-0.4-0.6-0.4-1.2v-5.4h-2.6L51.1,80
	c0,0,0.1,0.2,0.2,0.4c0.1,0.2,0.1,0.3,0.1,0.4l0,4.2c0,2.3,1.6,3.5,4.6,3.5h0.1c3,0,4.5-1.2,4.5-3.5v-5.5L58.4,79.5L58.4,79.5z
	 M46.3,79.5h-2.9c-1.4,2.9-2.7,5.9-3.8,8.9h2.3c0.2-0.5,0.4-1,0.6-1.5h4.7c0.2,0.5,0.4,1,0.6,1.5h2.3C49,85.4,47.7,82.4,46.3,79.5z
	 M43.2,85.2c0.5-1.4,1.1-2.7,1.7-4.1c0.6,1.3,1.2,2.7,1.7,4.1H43.2z"/>
<linearGradient id="SVGID_1_" gradientUnits="userSpaceOnUse" x1="42.6749" y1="63.7045" x2="42.6749" y2="121.4276" gradientTransform="matrix(1 0 0 -1 0 132.5)">
	<stop  offset="0" style="stop-color:#E5E5E5"/>
	<stop  offset="0.687" style="stop-color:#FFFFFF"/>
	<stop  offset="1" style="stop-color:#919191"/>
</linearGradient>
<path class="st0" d="M65.2,38.8c-1-2.2-3.4-6.8-5.8-11.3C56,21.3,50.6,12.5,50,11.7c-0.1-0.2-0.3-0.3-0.4-0.4
	c-0.1,0-0.1-0.1-0.2-0.1c-0.1,0-0.4,0-0.7,0c-0.1,0-0.3,0-0.4,0c-1.9-0.1-3.8-0.1-5.7-0.1c-2.8,0-6.1,0.1-6.6,0.1
	c-0.1,0-0.3,0-0.4,0.1c-0.1,0.1-0.2,0.1-0.4,0.4c-0.5,0.8-5.9,9.6-9.3,15.9c-2.4,4.4-4.8,9.1-5.8,11.3c-0.3,0.6-0.3,1-0.3,1.1
	c0,0.3,0.1,0.7,0.3,1.1c1,2.2,3.4,6.8,5.8,11.3c3.4,6.2,8.8,15.1,9.3,15.9c0.1,0.1,0.2,0.2,0.2,0.3c0.1,0.1,0.2,0.2,0.4,0.2
	c0.1,0,0.4,0,0.6,0c0.1,0,0.3,0,0.4,0c1.4,0,3.5,0.1,5.7,0.1c2.8,0,6-0.1,6.5-0.1l0.1,0c0.2,0,0.3,0,0.3-0.1c0.1,0,0.2-0.1,0.4-0.5
	c0.6-0.8,5.9-9.6,9.3-15.8c2.4-4.4,4.8-9.1,5.8-11.3c0.3-0.6,0.3-1,0.3-1.2C65.5,39.6,65.4,39.2,65.2,38.8z M49.4,41.1
	c-2.3,5.1-3.9,8.3-6.3,13c-0.1,0.3-0.3,0.4-0.4,0.4c-0.2,0-0.3-0.2-0.4-0.4c-2.4-4.6-4-7.8-6.3-13c-0.2-0.4-0.3-0.8-0.3-1.2
	c0-0.4,0.1-0.7,0.3-1.2c2.3-5.1,3.9-8.3,6.3-13c0.1-0.3,0.2-0.4,0.4-0.4h0h0h0c0.2,0,0.3,0.2,0.4,0.4c2.4,4.6,4,7.8,6.3,13
	c0.2,0.4,0.3,0.8,0.3,1.2C49.8,40.4,49.6,40.7,49.4,41.1z"/>
<linearGradient id="SVGID_2_" gradientUnits="userSpaceOnUse" x1="31.2619" y1="63.9885" x2="31.2619" y2="92.4235" gradientTransform="matrix(1 0 0 -1 0 132.5)">
	<stop  offset="1.000000e-02" style="stop-color:#E5E5E5"/>
	<stop  offset="0.339" style="stop-color:#A6A6A6"/>
	<stop  offset="0.694" style="stop-color:#333333"/>
	<stop  offset="0.845" style="stop-color:#1A1A1A"/>
	<stop  offset="0.948" style="stop-color:#111111"/>
	<stop  offset="0.962" style="stop-color:#141414"/>
	<stop  offset="0.973" style="stop-color:#1D1D1D"/>
	<stop  offset="0.982" style="stop-color:#2D2D2D"/>
	<stop  offset="0.991" style="stop-color:#444444"/>
	<stop  offset="0.999" style="stop-color:#616161"/>
	<stop  offset="1" style="stop-color:#666666"/>
</linearGradient>
<path class="st1" d="M34.2,41.8c0,0-0.7-1.3-0.7-1.8c0-0.1,0-0.1,0-0.2c0-0.1,0-0.1-0.1,0c-0.2,0.2-0.5,0.4-1.4,0.4
	c-0.8,0-7.1,0-10.2,0c-0.4,0-1,0-1,0.7c0,0.4,0.4,1.3,1.1,2.7c4,7.9,8.5,15.8,13.3,23.5c0,0,0.7,1.2,0.8,1.3
	c0.1,0.1,0.2,0.1,0.3,0.1c0,0,3.1-5.6,5.5-11.7C39.1,51.9,36.6,46.9,34.2,41.8z"/>
<linearGradient id="SVGID_3_" gradientUnits="userSpaceOnUse" x1="36.3069" y1="63.9095" x2="36.307" y2="63.9095" gradientTransform="matrix(1 0 0 -1 0 132.5)">
	<stop  offset="1.000000e-02" style="stop-color:#E5E5E5"/>
	<stop  offset="0.339" style="stop-color:#A6A6A6"/>
	<stop  offset="0.694" style="stop-color:#333333"/>
	<stop  offset="0.845" style="stop-color:#1A1A1A"/>
	<stop  offset="0.948" style="stop-color:#111111"/>
	<stop  offset="0.962" style="stop-color:#141414"/>
	<stop  offset="0.973" style="stop-color:#1D1D1D"/>
	<stop  offset="0.982" style="stop-color:#2D2D2D"/>
	<stop  offset="0.991" style="stop-color:#444444"/>
	<stop  offset="0.999" style="stop-color:#616161"/>
	<stop  offset="1" style="stop-color:#666666"/>
</linearGradient>
<path class="st2" d="M36.3,68.6L36.3,68.6L36.3,68.6z"/>
<linearGradient id="SVGID_4_" gradientUnits="userSpaceOnUse" x1="50.861" y1="63.9895" x2="50.861" y2="92.4495" gradientTransform="matrix(1 0 0 -1 0 132.5)">
	<stop  offset="1.000000e-02" style="stop-color:#E5E5E5"/>
	<stop  offset="0.339" style="stop-color:#A6A6A6"/>
	<stop  offset="0.694" style="stop-color:#333333"/>
	<stop  offset="0.845" style="stop-color:#1A1A1A"/>
	<stop  offset="0.954" style="stop-color:#111111"/>
	<stop  offset="0.967" style="stop-color:#141414"/>
	<stop  offset="0.976" style="stop-color:#1D1D1D"/>
	<stop  offset="0.984" style="stop-color:#2D2D2D"/>
	<stop  offset="0.992" style="stop-color:#444444"/>
	<stop  offset="0.999" style="stop-color:#616161"/>
	<stop  offset="1" style="stop-color:#666666"/>
</linearGradient>
<path class="st3" d="M65,40c-0.1,0.1-0.4,0.3-1.1,0.3h-8.4c-3.8,0-3.5-0.1-4.5,1.9c-0.4,0.9-0.9,2-1.4,2.8
	C46.3,52.1,38.1,66.2,37,68c-0.4,0.7-0.5,0.7-0.2,0.7c0,0,2.8,0.1,5.9,0.1c4.8,0,6.6-0.1,6.6-0.1c2.8-4.4,9.5-15.4,14.3-25
	c1.1-2.2,1.7-3.2,1.6-3.6C65.1,39.9,65,40,65,40z"/>
<linearGradient id="SVGID_5_" gradientUnits="userSpaceOnUse" x1="41.4354" y1="92.7565" x2="41.4354" y2="121.4028" gradientTransform="matrix(1 0 0 -1 0 132.5)">
	<stop  offset="0" style="stop-color:#333333"/>
	<stop  offset="9.000000e-03" style="stop-color:#292929"/>
	<stop  offset="2.400000e-02" style="stop-color:#1E1E1E"/>
	<stop  offset="4.000000e-02" style="stop-color:#1A1A1A"/>
	<stop  offset="0.122" style="stop-color:#151515"/>
	<stop  offset="0.226" style="stop-color:#050505"/>
	<stop  offset="0.252" style="stop-color:#000000"/>
</linearGradient>
<path class="st4" d="M49,11.3c-0.2,0-0.4,0.1-0.6,0.6C46,15.5,37.8,31,34.5,38.2c-0.4,0.9-0.6,1.3-0.6,1.7l1.7,0c0,0,0,0,0,0
	c0-0.4,0.1-0.7,0.3-1.2c2.3-5.1,3.9-8.3,6.3-13c0.1-0.3,0.2-0.4,0.4-0.4h0l0.7-2C45.7,17.5,49,11.3,49,11.3z"/>
<linearGradient id="SVGID_6_" gradientUnits="userSpaceOnUse" x1="47.0829" y1="92.5591" x2="47.0829" y2="109.1405" gradientTransform="matrix(1 0 0 -1 0 132.5)">
	<stop  offset="0" style="stop-color:#737373"/>
	<stop  offset="0.148" style="stop-color:#6E6E6E"/>
	<stop  offset="0.332" style="stop-color:#5E5E5E"/>
	<stop  offset="0.535" style="stop-color:#454545"/>
	<stop  offset="0.749" style="stop-color:#222222"/>
	<stop  offset="0.795" style="stop-color:#1A1A1A"/>
	<stop  offset="0.921" style="stop-color:#000000"/>
</linearGradient>
<path class="st5" d="M51.5,39.9c0-0.4-0.2-0.8-0.6-1.7c-2.4-5-4.9-10-7.5-14.9l-0.7,2h0h0c0.2,0,0.3,0.2,0.4,0.4
	c2.4,4.6,4,7.8,6.3,13c0.2,0.4,0.3,0.8,0.3,1.2c0,0,0,0,0,0L51.5,39.9L51.5,39.9z"/>
<linearGradient id="SVGID_7_" gradientUnits="userSpaceOnUse" x1="38.2611" y1="75.9575" x2="38.2611" y2="92.5485" gradientTransform="matrix(1 0 0 -1 0 132.5)">
	<stop  offset="0.357" style="stop-color:#BFBFBF"/>
	<stop  offset="0.474" style="stop-color:#BABABA"/>
	<stop  offset="0.61" style="stop-color:#ACACAC"/>
	<stop  offset="0.754" style="stop-color:#959595"/>
	<stop  offset="0.903" style="stop-color:#757575"/>
	<stop  offset="0.963" style="stop-color:#666666"/>
	<stop  offset="1" style="stop-color:#333333"/>
</linearGradient>
<path class="st6" d="M42.7,54.5C42.7,54.5,42.7,54.5,42.7,54.5c-0.2,0-0.3-0.2-0.4-0.4c-2.4-4.6-4-7.8-6.3-13
	c-0.2-0.4-0.3-0.8-0.3-1.2v0l-1.7,0c0,0.4,0.2,0.9,0.6,1.7c2.4,5,4.9,10,7.5,14.9L42.7,54.5z"/>
<linearGradient id="SVGID_8_" gradientUnits="userSpaceOnUse" x1="44.7757" y1="81.5821" x2="29.6837" y2="88.3901" gradientTransform="matrix(1 0 0 -1 0 132.5)">
	<stop  offset="1.300000e-02" style="stop-color:#F2F2F2;stop-opacity:0.8"/>
	<stop  offset="0.11" style="stop-color:#EDEDED;stop-opacity:0"/>
</linearGradient>
<path class="st7" d="M42.7,54.5C42.7,54.5,42.7,54.5,42.7,54.5c-0.2,0-0.3-0.2-0.4-0.4c-2.4-4.6-4-7.8-6.3-13
	c-0.2-0.4-0.3-0.8-0.3-1.2v0l-1.7,0c0,0.4,0.2,0.9,0.6,1.7c2.4,5,4.9,10,7.5,14.9L42.7,54.5z"/>
<linearGradient id="SVGID_9_" gradientUnits="userSpaceOnUse" x1="43.8989" y1="64.0905" x2="43.8989" y2="92.7415" gradientTransform="matrix(1 0 0 -1 0 132.5)">
	<stop  offset="0" style="stop-color:#FFFFFF"/>
	<stop  offset="0.216" style="stop-color:#F9F9F9"/>
	<stop  offset="0.512" style="stop-color:#E7E7E7"/>
	<stop  offset="0.851" style="stop-color:#CBCBCB"/>
	<stop  offset="0.969" style="stop-color:#BFBFBF"/>
	<stop  offset="0.991" style="stop-color:#737373"/>
</linearGradient>
<path class="st8" d="M36.3,68.6c0.2,0,0.4-0.2,0.7-0.6c0.1-0.1,0.2-0.3,0.3-0.5c1.8-3,10.4-19,13.6-25.8c0.4-0.9,0.6-1.3,0.6-1.7
	h-1.7c0,0,0,0,0,0c0,0.4-0.1,0.7-0.3,1.2c-2.3,5.1-3.9,8.3-6.3,13c-0.1,0.3-0.3,0.4-0.4,0.4l-0.7,2C39.5,62.8,36.3,68.6,36.3,68.6z"
	/>
<linearGradient id="SVGID_10_" gradientUnits="userSpaceOnUse" x1="27.1169" y1="62.9575" x2="27.1169" y2="92.5665" gradientTransform="matrix(1 0 0 -1 0 132.5)">
	<stop  offset="0" style="stop-color:#666666"/>
	<stop  offset="0.185" style="stop-color:#5E5E5E"/>
	<stop  offset="0.584" style="stop-color:#515151"/>
	<stop  offset="0.97" style="stop-color:#4D4D4D"/>
	<stop  offset="0.988" style="stop-color:#757575"/>
	<stop  offset="1" style="stop-color:#8C8C8C"/>
</linearGradient>
<path class="st9" d="M35.5,68.5c-0.1-0.1-0.2-0.2-0.2-0.3c-0.6-0.8-5.9-9.6-9.3-15.9c-2.4-4.4-4.8-9.1-5.9-11.3
	c-0.2-0.4-0.3-0.8-0.3-1.1h-1.1c0,0.4,0.1,0.9,0.4,1.6c0.8,1.7,3,6.1,5.9,11.3c3.1,5.7,8.8,15.1,9.4,16c0.3,0.4,0.5,0.6,0.7,0.7
	C35.1,69.5,35.5,68.5,35.5,68.5z"/>
<linearGradient id="SVGID_11_" gradientUnits="userSpaceOnUse" x1="36.9928" y1="66.5374" x2="48.3943" y2="59.9547" gradientTransform="matrix(1 0 0 -1 0 132.5)">
	<stop  offset="1.900000e-02" style="stop-color:#666666"/>
	<stop  offset="4.100000e-02" style="stop-color:#4A4A4A"/>
	<stop  offset="6.300000e-02" style="stop-color:#363636"/>
	<stop  offset="8.400000e-02" style="stop-color:#292929"/>
	<stop  offset="0.105" style="stop-color:#252525"/>
</linearGradient>
<path class="st10" d="M35.1,69.5c0.3,0.2,0.6,0.2,0.9,0.2c0.8,0.1,4.5,0.1,6.7,0.1c2.1,0,6.1-0.1,6.7-0.1c0.3,0,0.5,0,0.7-0.2
	l-0.4-1.1c-0.1,0-0.2,0.1-0.3,0.1l-0.1,0c-0.5,0.1-3.7,0.1-6.5,0.1c-2.2,0-4.4,0-5.7-0.1c-0.1,0-0.3,0-0.4,0c-0.2,0-0.5,0-0.6,0
	c-0.1,0-0.3-0.1-0.4-0.2C35.5,68.5,35.1,69.5,35.1,69.5z"/>
<linearGradient id="SVGID_12_" gradientUnits="userSpaceOnUse" x1="45.6228" y1="114.1295" x2="70.8955" y2="100.2932" gradientTransform="matrix(1 0 0 -1 0 132.5)">
	<stop  offset="0" style="stop-color:#595959"/>
	<stop  offset="1" style="stop-color:#737373"/>
</linearGradient>
<path class="st11" d="M66.7,39.9c0-0.3-0.1-0.9-0.4-1.6c-0.9-1.8-3.6-7.1-5.9-11.3c-3.1-5.6-8.8-15.1-9.4-16
	c-0.3-0.5-0.6-0.7-0.9-0.8l-0.4,1c0.1,0.1,0.2,0.2,0.4,0.4c0.6,0.8,5.9,9.6,9.3,15.9c2.4,4.4,4.8,9.1,5.8,11.3
	c0.2,0.4,0.3,0.7,0.3,1.1L66.7,39.9z"/>
<linearGradient id="SVGID_13_" gradientUnits="userSpaceOnUse" x1="49.3943" y1="119.8767" x2="35.7025" y2="123.8023" gradientTransform="matrix(1 0 0 -1 0 132.5)">
	<stop  offset="1.000000e-02" style="stop-color:#595959"/>
	<stop  offset="2.500000e-02" style="stop-color:#757575"/>
	<stop  offset="4.400000e-02" style="stop-color:#909090"/>
	<stop  offset="6.100000e-02" style="stop-color:#A0A0A0"/>
	<stop  offset="7.400000e-02" style="stop-color:#A6A6A6"/>
	<stop  offset="0.501" style="stop-color:#BEBEBE"/>
	<stop  offset="1" style="stop-color:#BFBFBF"/>
</linearGradient>
<path class="st12" d="M35.3,10.2l0.4,1.1c0.1,0,0.2-0.1,0.4-0.1c0.4,0,3.8-0.1,6.6-0.1c2.3,0,4.6,0,5.7,0.1c0.1,0,0.3,0,0.4,0
	c0.2,0,0.5,0,0.7,0c0.1,0,0.1,0.1,0.2,0.1l0.4-1c-0.3-0.1-0.5-0.1-0.8-0.2c-0.9-0.1-4.6-0.1-6.6-0.1c-1.7,0-5.8,0-6.7,0.1
	C35.7,10.1,35.4,10.2,35.3,10.2z"/>
<linearGradient id="SVGID_14_" gradientUnits="userSpaceOnUse" x1="14.8549" y1="102.5473" x2="39.2681" y2="111.918" gradientTransform="matrix(1 0 0 -1 0 132.5)">
	<stop  offset="0" style="stop-color:#8C8C8C"/>
	<stop  offset="0.987" style="stop-color:#737373"/>
	<stop  offset="1" style="stop-color:#BFBFBF"/>
</linearGradient>
<path class="st13" d="M35.3,10.2c-0.4,0.2-0.6,0.4-0.9,0.8C33.7,11.9,28,21.5,25,27c-2.1,3.9-5.6,10.6-5.9,11.3s-0.4,1.2-0.4,1.6
	l1.1,0c0-0.2,0-0.6,0.3-1.1c1-2.2,3.4-6.8,5.8-11.3c3.4-6.2,8.8-15.1,9.3-15.9c0.2-0.3,0.3-0.3,0.4-0.4L35.3,10.2z"/>
<linearGradient id="SVGID_15_" gradientUnits="userSpaceOnUse" x1="58.1468" y1="62.8665" x2="58.1468" y2="92.6385" gradientTransform="matrix(1 0 0 -1 0 132.5)">
	<stop  offset="1.900000e-02" style="stop-color:#252525"/>
	<stop  offset="0.216" style="stop-color:#2E2E2E"/>
	<stop  offset="0.599" style="stop-color:#3B3B3B"/>
	<stop  offset="0.97" style="stop-color:#3F3F3F"/>
	<stop  offset="0.986" style="stop-color:#5C5C5C"/>
	<stop  offset="1" style="stop-color:#737373"/>
</linearGradient>
<path class="st14" d="M50.1,69.6c0.3-0.1,0.6-0.3,0.9-0.8c0.6-0.8,6.7-11,9.4-16c2.7-4.9,5.6-10.6,5.9-11.3c0.4-0.9,0.4-1.3,0.4-1.6
	l-1.1-0.1c0,0.2,0,0.6-0.3,1.2c-1,2.2-3.4,6.8-5.8,11.3c-3.4,6.2-8.8,15-9.3,15.8c-0.2,0.3-0.3,0.4-0.4,0.5c0,0,0,0,0,0
	C49.6,68.6,50.1,69.6,50.1,69.6z"/>
<path class="st15" d="M48.8,11.2L48.8,11.2c0.1,0-0.2,0.2-1,0.2c-0.9,0-2.7,0-4.1,0c-2.7,0-5.8,0-7.3,0.1c-0.8,0-0.8,0.1-1.3,0.7
	l0,0l0.2-0.4c0.2-0.3,0.3-0.3,0.4-0.4c0.1,0,0.2-0.1,0.4-0.1c0.4,0,3.8-0.1,6.6-0.1c2.3,0,4.6,0,5.7,0.1
	C48.5,11.2,48.7,11.2,48.8,11.2"/>
<g>
	<defs>
		<path id="SVGID_16_" d="M66.7,39.9c0-0.3-0.1-0.9-0.4-1.6c-0.9-1.8-3.6-7.2-5.9-11.3c-0.2-0.3-0.4-0.7-0.6-1
			c-2.6-1.6-5.5-2.4-8.5-2.4c-3,0-5.9,0.8-8.5,2.4c1.2,2.2,2.3,4.5,3.4,6.8c1.4,3,2.7,5.8,2.9,6.1c0.2,0.4,0.3,0.7,0.3,1
			c0,0.3-0.1,0.6-0.3,1l0,0c-0.9,2.1-1.9,4.1-2.9,6.1c-1.1,2.3-2.3,4.5-3.4,6.8l0,0.1c-0.1,0.1-0.1,0.2-0.1,0.2s-0.1-0.1-0.1-0.2
			l-0.1-0.2c-1.2-2.2-2.3-4.4-3.4-6.7c-1-2-1.9-4.1-2.9-6.1l0,0c-0.2-0.4-0.3-0.7-0.3-1c0-0.3,0.2-0.7,0.3-1l0.1-0.2
			c0.9-2,1.8-4,2.8-6c1.1-2.2,2.2-4.4,3.3-6.5c-4.7,3.1-7.6,8.3-7.6,13.9c0,9.1,7.4,16.6,16.5,16.6c2.9,0,5.7-0.8,8.1-2.1
			c0.4-0.6,0.7-1.2,1-1.8c2.6-4.8,5.5-10.6,5.9-11.3C66.6,40.7,66.7,40.3,66.7,39.9z"/>
	</defs>
	<clipPath id="SVGID_17_">
		<use xlink:href="#SVGID_16_"  style="overflow:visible;"/>
	</clipPath>
	<g class="st16">
		<defs>
			<filter id="Adobe_OpacityMaskFilter" filterUnits="userSpaceOnUse" x="34.9" y="23.6" width="33.1" height="33.1">
				<feColorMatrix  type="matrix" values="1 0 0 0 0  0 1 0 0 0  0 0 1 0 0  0 0 0 1 0"/>
			</filter>
		</defs>
		<mask maskUnits="userSpaceOnUse" x="34.9" y="23.6" width="33.1" height="33.1" id="x_2_">
			<g class="st17">
				
					<radialGradient id="SVGID_18_" cx="51.4729" cy="92.3115" r="4.938" gradientTransform="matrix(1 0 0 -1 0 132.5)" gradientUnits="userSpaceOnUse">
					<stop  offset="0.166" style="stop-color:#FFFFFF"/>
					<stop  offset="0.188" style="stop-color:#EBEBEB"/>
					<stop  offset="0.246" style="stop-color:#BABABA"/>
					<stop  offset="0.308" style="stop-color:#8E8E8E"/>
					<stop  offset="0.374" style="stop-color:#686868"/>
					<stop  offset="0.444" style="stop-color:#474747"/>
					<stop  offset="0.519" style="stop-color:#2D2D2D"/>
					<stop  offset="0.602" style="stop-color:#191919"/>
					<stop  offset="0.695" style="stop-color:#0B0B0B"/>
					<stop  offset="0.809" style="stop-color:#030303"/>
					<stop  offset="1" style="stop-color:#000000"/>
				</radialGradient>
				<circle class="st18" cx="51.5" cy="40.2" r="4.9"/>
			</g>
		</mask>
		
			<radialGradient id="SVGID_19_" cx="51.4219" cy="92.3115" r="16.561" gradientTransform="matrix(1 0 0 -1 0 132.5)" gradientUnits="userSpaceOnUse">
			<stop  offset="0" style="stop-color:#FFFFFF"/>
			<stop  offset="0.59" style="stop-color:#FFFFFF;stop-opacity:0"/>
		</radialGradient>
		<circle class="st19" cx="51.4" cy="40.2" r="16.6"/>
	</g>
</g>
<path d="M49.4,38.8c-0.9-2.1-1.9-4.1-2.9-6.1c-1.1-2.3-2.3-4.6-3.5-6.9c-0.1-0.3-0.3-0.4-0.4-0.4c-0.2,0-0.3,0.2-0.4,0.4
	c-0.1,0.1-1.9,3.7-3.5,6.9c-1.6,3.2-2.8,6-2.9,6.1c-0.2,0.4-0.3,0.8-0.3,1.2c0,0.4,0.2,0.7,0.3,1.2c0.1,0.2,1.4,3.1,2.9,6.2
	c1.6,3.3,3.4,6.7,3.5,6.8c0.1,0.3,0.3,0.4,0.4,0.4c0.2,0,0.3-0.2,0.4-0.4c0.1-0.1,1.9-3.5,3.5-6.8c1-2,1.9-4.1,2.9-6.2
	c0.2-0.5,0.3-0.8,0.3-1.2C49.8,39.5,49.6,39.2,49.4,38.8z M49.1,40.9L49.1,40.9c-0.9,2.1-1.9,4.1-2.9,6.2c-1.1,2.3-2.3,4.5-3.4,6.8
	l0,0.1c-0.1,0.1-0.1,0.2-0.1,0.2s-0.1-0.1-0.1-0.2l-0.1-0.2c-1.2-2.2-2.3-4.4-3.4-6.7c-1-2-1.9-4.1-2.9-6.1l0,0
	c-0.2-0.4-0.3-0.7-0.3-1c0-0.3,0.2-0.7,0.3-1l0.1-0.2c0.9-2,1.8-4,2.8-6c1.1-2.3,2.3-4.6,3.5-6.8c0.1-0.1,0.1-0.2,0.1-0.2
	c0,0,0.1,0.1,0.1,0.2c0,0,1.8,3.5,3.5,6.8c1.4,3,2.7,5.8,2.9,6.1c0.2,0.4,0.3,0.7,0.3,1C49.4,40.3,49.3,40.5,49.1,40.9z"/>
<path d="M66.3,38.3c-0.9-1.8-3.6-7.2-5.9-11.3c-3.2-5.7-8.8-15.1-9.4-16c-0.6-0.8-1-0.9-1.6-0.9l-0.1,0c-0.8-0.1-4.5-0.1-6.6-0.1
	c-1.9,0-5.8,0-6.7,0.1c-0.9,0.1-1.1,0.4-1.6,1C33.7,12,28,21.6,25,27c-2.2,3.9-5.6,10.6-5.9,11.3c-0.3,0.7-0.4,1.2-0.4,1.6
	c0,0.5,0.1,1,0.4,1.6c0.7,1.6,2.9,5.8,5.9,11.3c3.1,5.7,8.8,15.1,9.4,16c0.6,0.9,1,0.9,1.6,1c0.9,0.1,4.6,0.1,6.7,0.1
	c2.2,0,6.1-0.1,6.7-0.1c0.5,0,1-0.1,1.6-1c0.6-0.8,6.7-11,9.4-16c2.6-4.8,5.5-10.6,5.9-11.3c0.4-0.8,0.4-1.3,0.4-1.6
	C66.7,39.7,66.6,39.1,66.3,38.3z M66,41.4c-0.3,0.8-3.2,6.5-5.9,11.3c-2.7,5-8.8,15.1-9.4,15.9c-0.5,0.7-0.9,0.8-1.4,0.8
	c-0.5,0-4.5,0.1-6.6,0.1c-2,0-5.8-0.1-6.6-0.1c-0.5,0-0.8-0.1-1.4-0.8c-0.6-0.8-6.3-10.2-9.4-15.9c-3-5.5-5.2-9.8-5.9-11.3
	c-0.3-0.6-0.4-1-0.4-1.5c0-0.4,0.1-0.9,0.4-1.5c0.3-0.7,3.7-7.4,5.9-11.3c3-5.4,8.7-15,9.4-15.9c0.5-0.6,0.6-0.8,1.4-0.9
	c0.9-0.1,4.8-0.1,6.7-0.1c2.2,0,5.8,0,6.6,0.1l0.1,0c0.5,0.1,0.8,0.1,1.3,0.8c0.6,0.9,6.2,10.2,9.4,15.9c2.3,4.2,5,9.5,5.9,11.3
	c0.3,0.7,0.4,1.2,0.4,1.5C66.3,40.2,66.3,40.6,66,41.4z"/>
</svg>
