<?xml version="1.0" encoding="utf-8"?>
<!-- Generator: Adobe Illustrator 21.1.0, SVG Export Plug-In . SVG Version: 6.00 Build 0)  -->
<svg version="1.1" id="Layer_1" xmlns="http://www.w3.org/2000/svg" xmlns:xlink="http://www.w3.org/1999/xlink" x="0px" y="0px"
	 viewBox="0 0 1475 2500" style="enable-background:new 0 0 1475 2500;" xml:space="preserve">
<style type="text/css">
	.st0{fill:url(#SVGID_1_);}
	.st1{fill:url(#SVGID_2_);}
	.st2{fill:none;stroke:#EC008C;stroke-width:0.216;stroke-miterlimit:22.926;}
	.st3{stroke:#000000;stroke-width:0.216;stroke-miterlimit:22.926;}
</style>
<linearGradient id="SVGID_1_" gradientUnits="userSpaceOnUse" x1="336.7853" y1="1592.1094" x2="336.7853" y2="1474.7723" gradientTransform="matrix(21.3394 0 0 -21.3394 -6447.5864 33970.3672)">
	<stop  offset="0" style="stop-color:#E8E8E8"/>
	<stop  offset="1" style="stop-color:#9C9C9C"/>
</linearGradient>
<path class="st0" d="M1295.4,17.1L184,17.1C97.9,17.1,28,87.1,28,173.1v2144c0,86.2,69.8,156.1,156.1,156.1c0,0,0,0,0,0h1112.5
	c41.5,0,79.9-16.3,109.2-45.6c29.5-29.6,44.7-68.9,44.7-110.5v-2144C1450.5,87.2,1381.7,17.1,1295.4,17.1z M1394.6,2317.1
	c0,26.7-9.3,51.9-28.3,71c-18.9,18.8-43.1,29.3-69.8,29.3H184c-26.6,0-52.1-10.5-70.9-29.3c-18.8-18.8-29.4-44.3-29.3-70.9v-2144
	C83.9,117.8,128.7,73,184,72.9l1111.4,0c55.5,0,99.2,45.1,99.2,100.2V2317.1L1394.6,2317.1z"/>
<linearGradient id="SVGID_2_" gradientUnits="userSpaceOnUse" x1="360.6371" y1="1111.2484" x2="417.9711" y2="991.2455" gradientTransform="matrix(21.3394 0 0 -21.3394 -7514.5562 23794.0371)">
	<stop  offset="8.299999e-02" style="stop-color:#FFFFFF"/>
	<stop  offset="0.611" style="stop-color:#A8A8A8"/>
	<stop  offset="1" style="stop-color:#FFFFFF"/>
</linearGradient>
<path class="st1" d="M1325.1,2348.6c8.5-8.5,12-19.6,12-31.5v-2144c0-24.3-18.8-44.4-43.3-44.4l-1111.5,0
	c-24.5,0.1-44.4,19.9-44.4,44.4v2144c-0.1,24.5,19.7,44.4,44.2,44.4c0.1,0,0.1,0,0.2,0h1112.4
	C1306.7,2361.6,1316.7,2356.9,1325.1,2348.6"/>
<path class="st2" d="M1392.8,2414.7c-25.9,25.8-59.6,40.3-96.3,40.3H184c-36.6,0-71.6-14.5-97.4-40.4
	c-25.8-25.8-40.3-60.9-40.3-97.4v-2144C46.3,97.1,107.9,35.4,184,35.4l1111.4,0c76.1,0,136.7,61.9,136.7,137.7v2144
	C1432.2,2353.9,1418.9,2388.6,1392.8,2414.7z"/>
<g>
	<path class="st3" d="M220.4,2295.2l35.7,0c-2.5-6.5-3.8-13.4-4-20.3v-116c0-8.9,5.4-8.4,9.4-3.5l118.5,139.9h36.2l-123-144.8
		c-3-3.5-2.5-8.9,1.9-8.9h13c33.7,0,61-27.3,61-61c0-33.7-27.3-61-61-61h-87.8c2,5.5,3.4,10.4,4,20.4v235
		C224.2,2281.9,222.8,2288.7,220.4,2295.2L220.4,2295.2z M252,2046.7h56c18.4,0,33.3,14.9,33.3,33.3c0,18.4-14.9,33.3-33.3,33.3
		l-56-0.1L252,2046.7L252,2046.7z M1016.8,1109.4c-49,123.2-162.4,162.4-162.4,162.4l40.6,84c0,0,5.8-1.4,15.6-4.9
		c25.1,28.3,123.8,152.3,128.7,346.6c0,0,7,79.8-64.4,135.8h217.1c0,0-28-18.2-39.2-68.6c-11.2-50.4-8.5-138.6-56-245.1
		c-38.4-85.7-91.2-174-110.3-205.2c57.9-35.4,128.9-97.8,167.7-202.3c72.8-196-67.2-341.6-198.8-366.8c0,0,36.4,65.9,42,113.4
		C997.2,858.7,1080.2,950.1,1016.8,1109.4L1016.8,1109.4z M1214.1,323.7c-9.4-7-40.5-34.1-52-43.2c-8.9-6.9-23.3-56,20.9-57
		c22.3-0.5,42.2,16.4,49.6,20.8l12.4-31.2c-7.5-1.5-14.8-3.9-21.8-7c-8.8-3.7-24.8-10.4-40.1-10.4c-15.4,0-57.6,9-60,54.5
		c-2,37.7,23.3,56,32.8,63.5c13.4,9.9,47.6,36.2,63,57.5c15.4,21.3,23.3,66-31.7,72.4c-18.9,0-39.6-9.4-51.1-16.9l4.5,38.7
		c11.4-2,17.9,0.4,22.8,1c8.5,0.9,19.9,3.5,30.7,3c11-0.5,67-9.9,67-64C1260.8,357.9,1227.5,334.6,1214.1,323.7L1214.1,323.7z
		 M1005.3,2304.7c29.6,0,57-0.4,79.5-16.4l-1.1-33.8c-20,20-47.7,23.5-78.4,23.5c-61.2,0-110.8-55.6-110.8-116.7
		s49.6-114.8,110.8-114.8c27.8,0,53.6,7.7,74.7,24.2l-3.7-33.3c-21.4-13.6-43.8-17.6-71-17.6c-75.9,0-137.4,65.5-137.4,141.5
		C867.8,2237.2,929.4,2304.7,1005.3,2304.7z M543.9,2298.8c75.9,0,137.4-61.5,137.4-137.4c0-75.9-61.5-137.4-137.4-137.4
		s-137.4,61.5-137.4,137.4C406.5,2237.2,468,2298.8,543.9,2298.8z M543.9,2050.5c61.2,1.5,109.6,52.3,108.1,113.4
		c-1.4,59.1-49,106.7-108.1,108.1c-61.2,0-110.8-49.6-110.8-110.8C433.1,2100.1,482.7,2050.5,543.9,2050.5L543.9,2050.5z
		 M1240.9,2299.2l20.3-32.7c-13.8,7.4-43.1,7.4-61.5,7.4c-18.2,0-26.8-9.4-26.8-17.3v-90.3c0-11,6.9-14.4,15.4-14.4h48.6v-27.9
		h-48.5c-8.5,0-15.4-3.4-15.4-14.3V2066c0-7.9,8.5-17.3,26.8-17.3c18.4,0,34.8,0,48.6,7.4l-7.5-32.7h-99.7c2,5.5,3.5,10.4,3.9,20.3
		l0,235.1c-0.1,7-1.5,13.9-4,20.4L1240.9,2299.2L1240.9,2299.2z M762.3,2278.8c-0.1,6.9-1.5,13.8-3.9,20.3l35.7,0
		c-2.4-6.5-3.8-13.4-4-20.4h0v-124.9l75.3-130.4h-32.2l-56,98.7l-56-98.7h-32.2l73.4,130.4L762.3,2278.8L762.3,2278.8z
		 M767.5,1390.9c-6-20.2-27.8-63.8-38.8-81.8c-40.5,6.8-78.3,9.1-108.1,9.1l0-21.8c-13.9,4.9-75.4,13.8-101.2,16.9v435.4
		c0,45.6-19.9,67.4-33.8,87.3h168.6c-13.9-19.9-33.7-41.6-33.7-87.2l0-345.2C672.9,1402.7,723.2,1398.3,767.5,1390.9L767.5,1390.9z
		 M788.3,422.3V209.5c0.5-9.9,2-14.9,4-20.3l-35.7,0c2,5.5,3.4,10.4,4,20.3v235.1c-0.2,7-1.6,13.8-4,20.3h99.7l20.3-32.8
		c-13.9,7.4-43.1,7.4-61.5,7.4C796.7,439.6,788.3,430.2,788.3,422.3z M561.8,189.6c-75.9-1.3-138.5,59.1-139.8,135
		c-1.3,75.9,59.1,138.5,135,139.8c1.6,0,3.2,0,4.8,0c75.9-1.3,136.4-64,135-139.9C695.6,250.6,635.8,190.9,561.8,189.6L561.8,189.6z
		 M561.8,437.9c-61.2,1.5-112-46.9-113.4-108.1c-1.5-61.2,46.9-112,108.1-113.4c1.8,0,3.6,0,5.3,0c61.2,1.5,109.6,52.3,108.1,113.4
		C668.5,388.8,621,436.4,561.8,437.9z M977.7,422.3l0-212.8c0.5-9.9,2-14.8,4-20.3l-35.7,0c2,5.5,3.5,10.4,4,20.3v235.1
		c-0.2,7-1.5,13.8-4,20.3h99.7l20.3-32.8c-13.9,7.4-43.1,7.4-61.5,7.4C986.1,439.6,977.7,430.2,977.7,422.3L977.7,422.3z
		 M313.2,311.1l12.9,0.1c33.7-0.9,60.3-28.9,59.4-62.7c-0.9-32.5-27-58.6-59.4-59.4l-87.7,0.1c2,5.4,3.5,10.4,3.9,20.3v235.1
		c-0.1,7-1.5,13.8-3.9,20.4h35.7v0c-2.5-6.5-3.8-13.4-4-20.3V328.5c0-8.9,5.5-8.5,9.5-3.5L398,464.9h36.1l-123-144.9
		C308.2,316.6,308.8,311.1,313.2,311.1L313.2,311.1z M270,283v-66.6h56c18.4,0.7,32.8,16.1,32.1,34.5c-0.6,17.5-14.7,31.5-32.1,32.1
		L270,283L270,283z"/>
	<path class="st3" d="M287.5,1726.9l168.6,0c-13.9-19.9-33.7-41.6-33.7-87.3l0-345.2c113.7-1.9,208.6-20.7,284.7-50.9
		c116,124.2,129.9,304.8,131.9,354.3c2,49.7-23.8,93.3-63.5,129h220.2c-33.8-17.9-45.6-65.5-47.6-111.1
		c-21.8-206.3-136.9-367-164.7-408.7c130.7-78.4,188.5-198.5,188.5-309.4c0-184.5-162.7-271.8-303.5-271.8H297.4
		c13.9,19.8,23.8,27.8,23.8,73.4v940.3C321.2,1685.2,301.4,1707,287.5,1726.9L287.5,1726.9z M422.4,691.3h218.2
		c150.7,0,200.4,95.3,198.4,196.4c-9.9,279.7-287.7,321.4-416.6,321.4L422.4,691.3L422.4,691.3z"/>
	<path class="st3" d="M1295.5,110.4H184c-34.6,0.1-62.6,28.1-62.7,62.7v2144c0,16.8,6.5,32.5,18.4,44.4
		c11.7,11.8,27.7,18.4,44.3,18.3h1112.5c16.8,0,31.5-6.5,43.3-18.3c11.8-11.9,17.3-27.6,17.3-44.4v-2144
		C1357.1,138.6,1330,110.4,1295.5,110.4L1295.5,110.4z M1319.5,2321.8c0,12.7-10.3,23-23,23H184c-6.1,0-12-2.4-16.3-6.8
		c-4.3-4.3-6.8-10.2-6.8-16.3l0-350.5h1158.5L1319.5,2321.8L1319.5,2321.8z M1319.5,1927H161V543.5l1158.5-1.1L1319.5,1927
		L1319.5,1927z M1319.5,498.2H161V168.5c0-6.1,2.4-12,6.7-16.3c4.4-4.3,10.1-6.8,16.3-6.8h1112.5c12.7,0,23,10.3,23,23.1
		L1319.5,498.2L1319.5,498.2z"/>
	<path class="st3" d="M742.8,731.9l-247,0c13.9,19.8,23.8,27.7,23.8,73.4v372.9c32.7-2.9,78.3-17.8,101.1-25.8V797.4h178.7
		C789.4,772.6,762.6,743.8,742.8,731.9z"/>
</g>
</svg>
