<?xml version="1.0" encoding="utf-8"?>
<!-- Generator: Adobe Illustrator 21.1.0, SVG Export Plug-In . SVG Version: 6.00 Build 0)  -->
<svg version="1.1" id="Layer_1" xmlns="http://www.w3.org/2000/svg" xmlns:xlink="http://www.w3.org/1999/xlink" x="0px" y="0px"
	 viewBox="0 0 885 654" style="enable-background:new 0 0 885 654;" xml:space="preserve">
<style type="text/css">
	.st0{fill:#A41D23;}
	.st1{fill:#E2001A;}
	.st2{fill:#B2B2B2;stroke:#B2B2B2;stroke-width:0.45;}
	.st3{fill:#4D4D4D;stroke:#4D4D4D;stroke-width:0.45;}
	.st4{fill:url(#SVGID_1_);}
	.st5{fill:url(#SVGID_2_);}
	.st6{fill:url(#SVGID_3_);}
</style>
<g>
	<path class="st0" d="M694.6,23.7C645.1,11.3,502.8-1.2,351.2,8.2c-148.5,9.3-151.6,78.9-157.8,128.4c-6.2,49.5,4.6,303.2,4.6,303.2
		s150.1,20.6,244.4,19.6c94.4-1,245.1,14.5,259.9-93.8C717.8,252.7,694.6,23.7,694.6,23.7z"/>
	<polygon class="st0" points="417.2,566.7 417.2,548.2 234.6,548.2 234.6,653.4 417.2,653.4 417.2,634.8 277.9,634.8 277.9,610 
		409.4,610 409.4,591.5 277.9,591.5 277.9,566.7 	"/>
	<path class="st0" d="M164,594.6c0,0-84.3-3.1-96.7-3.1s-20.9-3.1-20.9-15.5c0-8.5,11.5-9.3,21.7-9.3v0h120.1v-18.6H46.8
		c0,0-42.2-1.5-42.2,29.4c0,25.5,14.7,31.7,37.9,31.7c23.2,0,82,3.9,92.8,3.9c0,0,14.7,1.4,14.7,11.6c0,6.2-3.9,10.1-10.8,10.1H6.2
		v18.6c0,0,144.4,0,152.6,0s32.2-3.9,32.2-29.4C191.1,600,177.9,596.1,164,594.6z"/>
	<polygon class="st0" points="885,548.4 696.6,548.4 696.6,570.4 770,570.4 770,653.4 810,653.4 810,570.4 885,570.4 	"/>
	<path class="st0" d="M504.3,548.2c-20.1,0-39.5,13.9-39.5,30.2l0,75.5H502v-39.9h111.6v39.5h37.1V548.2H504.3z M502,595.3v-7.7
		c0-8.1,7.7-19.3,21.7-19.3h89.9v27.1H502L502,595.3z"/>
	<path class="st1" d="M690,19.1C640.5,6.7,498.1-5.9,346.5,3.6C198,12.9,194.9,82.5,188.7,132s4.6,303.2,4.6,303.2
		s150.1,20.6,244.4,19.6c94.4-1,245,14.5,259.9-93.8C713.2,248,690,19.1,690,19.1z"/>
	<path class="st2" d="M207.3,133.6c0,0-1.4-66.4,34-86.6c43.3-24.7,156.3-46.4,428.5-12.4c0,0,3.1,86.6,3.1,92.8
		c0,0-202.7-17.4-239.8-14.4c-26.3,2.1-13.9,16,0,18c0,0,204.2,33.6,239.8,41.3v35.6C673,207.8,352.7,144.4,207.3,133.6z"/>
	<path class="st2" d="M205.8,158.3c0,0,358.9,55.7,467.2,82c0,0,0,24.8,0,32.5c0,0-365.1-82-465.7-91.3L205.8,158.3z"/>
	<path class="st2" d="M207.3,207.8c0,0,351.2,54.1,465.7,99c0,0,9.3,74.3-27.8,97.5c-53.1,33.2-253.7,32.5-433.2,10.8
		c0,0-4.6-85.1,0-126.9c0,0,198.1,14.7,241.3,20.1c24.7,3.1,24.8-9.3,9.3-18.6c0,0-191.8-52.6-253.7-60.3L207.3,207.8z"/>
	<path class="st3" d="M216.6,142.8c0,0-1.4-66.4,34-86.6c43.3-24.7,156.2-46.4,428.5-12.4c0,0,3.1,86.6,3.1,92.8
		c0,0-202.7-17.4-239.8-14.5c-26.3,2.1-13.9,16,0,18c0,0,204.2,33.6,239.8,41.3v35.6C682.2,217.1,362,153.7,216.6,142.8z"/>
	<path class="st3" d="M215,167.6c0,0,358.9,55.7,467.2,82c0,0,0,24.8,0,32.5c0,0-365.1-82-465.7-91.3L215,167.6z"/>
	<path class="st3" d="M216.6,217.1c0,0,351.2,54.2,465.7,99c0,0,9.3,74.3-27.8,97.5c-53.1,33.2-253.7,32.5-433.2,10.8
		c0,0-4.6-85.1,0-126.9c0,0,198.1,14.7,241.3,20.1c24.7,3.1,24.8-9.3,9.3-18.6c0,0-191.8-52.6-253.7-60.3L216.6,217.1z"/>
	
		<linearGradient id="SVGID_1_" gradientUnits="userSpaceOnUse" x1="108.4633" y1="265.8924" x2="626.7178" y2="265.8924" gradientTransform="matrix(0.9 0 0 0.9 113.563 -122.27)">
		<stop  offset="0" style="stop-color:#9C9D9F"/>
		<stop  offset="7.050000e-02" style="stop-color:#A2A3A5"/>
		<stop  offset="0.1654" style="stop-color:#B0B1B3"/>
		<stop  offset="0.2743" style="stop-color:#C6C7C9"/>
		<stop  offset="0.3925" style="stop-color:#E4E5E5"/>
		<stop  offset="0.4888" style="stop-color:#FFFFFF"/>
		<stop  offset="0.5653" style="stop-color:#FBFBFC"/>
		<stop  offset="0.6612" style="stop-color:#F0F0F1"/>
		<stop  offset="0.7676" style="stop-color:#DDDEDF"/>
		<stop  offset="0.8814" style="stop-color:#C1C2C4"/>
		<stop  offset="1" style="stop-color:#9C9D9F"/>
	</linearGradient>
	<path class="st4" d="M211.9,138.2c0,0-1.4-66.4,34-86.6c43.3-24.7,156.2-46.4,428.5-12.4c0,0,3.1,86.6,3.1,92.8
		c0,0-202.7-17.4-239.8-14.4c-26.3,2.1-13.9,16,0,18c0,0,204.2,33.5,239.8,41.3v35.6C677.6,212.5,357.4,149,211.9,138.2z"/>
	
		<linearGradient id="SVGID_2_" gradientUnits="userSpaceOnUse" x1="108.4609" y1="380.5111" x2="626.7175" y2="380.5111" gradientTransform="matrix(0.9 0 0 0.9 113.563 -122.27)">
		<stop  offset="0" style="stop-color:#9C9D9F"/>
		<stop  offset="7.050000e-02" style="stop-color:#A2A3A5"/>
		<stop  offset="0.1654" style="stop-color:#B0B1B3"/>
		<stop  offset="0.2743" style="stop-color:#C6C7C9"/>
		<stop  offset="0.3925" style="stop-color:#E4E5E5"/>
		<stop  offset="0.4888" style="stop-color:#FFFFFF"/>
		<stop  offset="0.5653" style="stop-color:#FBFBFC"/>
		<stop  offset="0.6612" style="stop-color:#F0F0F1"/>
		<stop  offset="0.7676" style="stop-color:#DDDEDF"/>
		<stop  offset="0.8814" style="stop-color:#C1C2C4"/>
		<stop  offset="1" style="stop-color:#9C9D9F"/>
	</linearGradient>
	<path class="st5" d="M210.4,162.9c0,0,358.9,55.7,467.2,82c0,0,0,24.8,0,32.5c0,0-365.1-82-465.7-91.3L210.4,162.9z"/>
	
		<linearGradient id="SVGID_3_" gradientUnits="userSpaceOnUse" x1="108.4614" y1="495.602" x2="627.0045" y2="495.602" gradientTransform="matrix(0.9 0 0 0.9 113.563 -122.27)">
		<stop  offset="0" style="stop-color:#9C9D9F"/>
		<stop  offset="7.050000e-02" style="stop-color:#A2A3A5"/>
		<stop  offset="0.1654" style="stop-color:#B0B1B3"/>
		<stop  offset="0.2743" style="stop-color:#C6C7C9"/>
		<stop  offset="0.3925" style="stop-color:#E4E5E5"/>
		<stop  offset="0.4888" style="stop-color:#FFFFFF"/>
		<stop  offset="0.5653" style="stop-color:#FBFBFC"/>
		<stop  offset="0.6612" style="stop-color:#F0F0F1"/>
		<stop  offset="0.7676" style="stop-color:#DDDEDF"/>
		<stop  offset="0.8814" style="stop-color:#C1C2C4"/>
		<stop  offset="1" style="stop-color:#9C9D9F"/>
	</linearGradient>
	<path class="st6" d="M211.9,212.5c0,0,351.2,54.2,465.7,99c0,0,9.3,74.3-27.8,97.5c-53.1,33.2-253.7,32.5-433.2,10.8
		c0,0-4.6-85.1,0-126.9c0,0,198.1,14.7,241.3,20.1c24.7,3.1,24.8-9.3,9.3-18.6c0,0-191.8-52.6-253.7-60.3L211.9,212.5z"/>
	<polygon class="st1" points="412.5,562.1 412.5,543.5 230,543.5 230,648.7 412.5,648.7 412.5,630.1 273.3,630.1 273.3,605.4 
		404.8,605.4 404.8,586.8 273.3,586.8 273.3,562.1 	"/>
	<path class="st1" d="M159.4,589.9c0,0-84.3-3.1-96.7-3.1c-12.4,0-20.9-3.1-20.9-15.5c0-8.5,11.5-9.3,21.7-9.3v0h120.1v-18.6H42.2
		c0,0-42.2-1.6-42.2,29.4c0,25.5,14.7,31.7,37.9,31.7s82,3.9,92.8,3.9c0,0,14.7,1.4,14.7,11.6c0,6.2-3.9,10.1-10.8,10.1H1.5v18.6
		c0,0,144.4,0,152.6,0s32.2-3.9,32.2-29.4C186.4,595.3,173.3,591.5,159.4,589.9z"/>
	<polygon class="st1" points="880.4,543.8 691.9,543.8 691.9,565.7 765.3,565.7 765.3,648.7 805.4,648.7 805.4,565.7 880.4,565.7 	
		"/>
	<path class="st1" d="M499.7,543.5c-20.1,0-39.5,13.9-39.5,30.2l0,75.5h37.1v-39.9H609v39.5h37.1V543.5H499.7z M497.4,590.7V583
		c0-8.1,7.7-19.3,21.7-19.3H609v27.1L497.4,590.7L497.4,590.7z"/>
</g>
</svg>
