<?xml version="1.0" encoding="utf-8"?>
<!-- Generator: Adobe Illustrator 21.1.0, SVG Export Plug-In . SVG Version: 6.00 Build 0)  -->
<svg version="1.1"
	 id="svg4259" xmlns:cc="http://creativecommons.org/ns#" xmlns:dc="http://purl.org/dc/elements/1.1/" xmlns:rdf="http://www.w3.org/1999/02/22-rdf-syntax-ns#" xmlns:svg="http://www.w3.org/2000/svg"
	 xmlns="http://www.w3.org/2000/svg" xmlns:xlink="http://www.w3.org/1999/xlink" x="0px" y="0px" viewBox="0 0 500 431"
	 style="enable-background:new 0 0 500 431;" xml:space="preserve">
<style type="text/css">
	.st0{fill:#E20A17;}
	.st1{fill:#003399;}
</style>
<g id="layer1" transform="translate(-324.64063,-232.83132)">
	<g id="g3532" transform="matrix(7.4332176,0,0,-7.4332176,684.46384,388.0002)">
		<path id="path3534" class="st0" d="M0-7.3c0,0-2.8-0.8-8.1-4.1c-4.8-3-6.7-4.9-6.7-4.9L-29.7-6.1c0,0,6.2,4.6,11.5,1.1l7-4.8
			l0.9,0.6L-29.7,4.3c0,0,2.8,0.8,8.1,4.1c4.8,3,6.7,4.9,6.7,4.9L0,3.1c0,0-6.2-4.6-11.5-1.1l-7,4.8l-0.9-0.6L0-7.3z"/>
	</g>
	<g id="g3536" transform="matrix(7.4332176,0,0,-7.4332176,599.09036,491.92699)">
		<path id="path3538" class="st1" d="M0-7.3h-11.3v-2.5h5.5l-5.6-5.3v-2.1H0v2.5h-5.7L0-9.4V-7.3z"/>
	</g>
	<g id="g3540" transform="matrix(7.4332176,0,0,-7.4332176,465.79345,567.26116)">
		<path id="path3542" class="st1" d="M0-7.3c4.5,0,5.7,1.2,5.7,3.7v6.4H2.1v-6.1c0-1-0.9-1.6-2.1-1.6c-1.3,0-2.1,0.6-2.1,1.6v6h-3.6
			v-6.4C-5.7-6.1-4.5-7.3,0-7.3"/>
	</g>
	<g id="g3544" transform="matrix(7.4332176,0,0,-7.4332176,647.79798,567.26116)">
		<path id="path3546" class="st1" d="M0-7.3c4.5,0,5.7,1.2,5.7,3.7v6.4H2.1v-6.1c0-1-0.9-1.6-2.1-1.6c-1.3,0-2.1,0.6-2.1,1.6v6h-3.6
			v-6.4C-5.7-6.1-4.5-7.3,0-7.3"/>
	</g>
	<path id="path3548" class="st1" d="M822.6,545.9h-27.7v73.5h27.7V545.9L822.6,545.9z"/>
	<g id="g3550" transform="matrix(7.4332176,0,0,-7.4332176,790.69939,491.92699)">
		<path id="path3552" class="st1" d="M0-7.3h-4.9l-4-3.4v3.4h-3.7v-9.9h3.7v3.5l3.7-3.5h5l-5.5,5.1L0-7.3z"/>
	</g>
	<g id="g3554" transform="matrix(7.4332176,0,0,-7.4332176,358.14261,512.22336)">
		<path id="path3556" class="st1" d="M0-7.3c0,0.8,1.1,0.8,1.5,0.8c0.4,0,1.2-0.2,1.8-1.1h4.2c0,1.9-1.8,3.3-6,3.3
			C-3.2-4.2-4-6.3-4-7.5c0-2.2,1.7-2.9,5.4-3.2c0.3,0,2.2,0.1,2.2-0.9c0-0.7-1.1-0.7-1.5-0.7c-0.4,0-1.1,0.1-1.8,1.2h-4.6
			c0-2.2,1.5-3.4,6.4-3.4c4.5,0,5.7,1.9,5.7,3.3C7.9-10,7-8.6,3.1-8.1C1.5-7.9,0-7.8,0-7.3"/>
	</g>
</g>
</svg>
