<?xml version="1.0" encoding="utf-8"?>
<!-- Generator: Adobe Illustrator 21.1.0, SVG Export Plug-In . SVG Version: 6.00 Build 0)  -->
<svg version="1.1" id="svg2" xmlns:svg="http://www.w3.org/2000/svg"
	 xmlns="http://www.w3.org/2000/svg" xmlns:xlink="http://www.w3.org/1999/xlink" x="0px" y="0px" viewBox="0 0 956.7 801.5"
	 style="enable-background:new 0 0 956.7 801.5;" xml:space="preserve">
<style type="text/css">
	.st0{fill:url(#path2875_1_);}
	.st1{fill:#FF0000;}
	.st2{fill:#EBEEEC;}
	.st3{fill:url(#path2895_1_);}
	.st4{fill:url(#path2915_1_);}
	.st5{fill:url(#path2935_1_);}
	.st6{fill:url(#path2945_1_);}
	.st7{fill:url(#path2985_1_);}
	.st8{fill:#343D3B;}
	.st9{fill:url(#path3029_1_);}
	.st10{fill:#C3CECB;}
	.st11{fill:url(#path3099_1_);}
</style>
<g id="g2834" transform="matrix(1.6572019,0,0,1.6572019,-138.13155,-376.861)">
	<path id="path2843" d="M366.7,248.8c-135.5,0-245.8,69-245.8,153.8c0,84.8,110.3,153.8,245.8,153.8s245.8-69,245.8-153.8
		C612.4,317.8,502.2,248.8,366.7,248.8z M366.7,256.4c131.4,0,238.2,65.6,238.2,146.2c0,80.7-106.9,146.2-238.2,146.2
		s-238.2-65.6-238.2-146.2C128.4,322,235.3,256.4,366.7,256.4z M355.3,276l-11.9,0.8c-57.5,3.5-99.3,18.8-106.4,38.8
		c-0.7,2.1-1.1,4.2-1.1,6.3c0,3.4,1,6.8,2.9,10c8,13.6,32.8,24.8,68,30.8l3.7,0.6l0.7-3.7c5.8-35.3,18.5-63.1,34.9-76.2L355.3,276z
		 M378,276l9.2,7.5c16.4,13.1,29.1,40.9,34.9,76.2l0.6,3.7l3.7-0.6c35.3-6,60.1-17.2,68-30.8c3.1-5.2,3.7-10.9,1.8-16.3
		c-7.1-20.1-48.9-35.3-106.4-38.8L378,276z M333.7,285.1c-13.5,15.2-23.8,39.8-29.2,69.6c-30.7-5.7-52.7-15.4-59.2-26.5
		c-1.2-2.1-1.8-4.2-1.8-6.2c0-1.3,0.2-2.5,0.7-3.8C249.5,302.8,286.5,289.4,333.7,285.1z M399.7,285.1c47.2,4.3,84.1,17.7,89.5,33.1
		c0.5,1.3,0.7,2.5,0.7,3.8c0,2-0.6,4.1-1.8,6.2c-6.5,11.1-28.5,20.8-59.2,26.5C423.5,324.9,413.1,300.3,399.7,285.1z M366.7,311
		c-15.5,0-28.1,19-33.8,50.9l-0.8,4.1l4.2,0.3c9.9,0.7,20.1,1.2,30.3,1.2c10.2,0,20.4-0.4,30.3-1.2l4.2-0.3l-0.8-4.1
		C394.7,330.1,382.1,311,366.7,311z M366.7,318.6c10.6,0,20.3,15.8,25.4,40.5c-8.3,0.5-16.8,0.9-25.4,0.9c-8.6,0-17.1-0.3-25.4-0.9
		C346.3,334.4,356.1,318.6,366.7,318.6z M205.4,326.4l-4.8,4c-25.9,21.7-39.5,47.4-39.5,74.4c0,63.6,77.6,117.3,180.4,125l11.5,0.9
		l-8.8-7.5c-22.5-19.3-36.5-65-36.5-119.3l0.2-12.8l-3.2-0.7c-54.1-9.7-92.6-32.4-98-57.9L205.4,326.4z M527.9,326.4l-1.3,6.1
		c-5.5,25.5-44,48.2-98,57.9l-3.2,0.6l0.2,12.9c0,54.3-14,100.1-36.5,119.3l-8.7,7.5l11.5-0.9c102.8-7.7,180.3-61.4,180.3-125
		c0-27-13.7-52.7-39.5-74.4L527.9,326.4z M201.2,340.1c9.9,25.7,46.9,47.2,99.1,57.1c-0.1,2.9-0.1,6.7-0.1,6.7
		c0,50.4,11.9,93.9,31.7,117.4c-93.7-10-163.2-58.9-163.2-116.4C168.6,381.7,179.9,359.4,201.2,340.1z M532.1,340.1
		c21.2,19.3,32.6,41.5,32.6,64.7c0,57.5-69.5,106.4-163.2,116.4c19.7-23.5,31.7-67,31.7-117.4c0,0-0.1-3.7-0.1-6.7
		C485.3,387.3,522.2,365.9,532.1,340.1z M329.9,394l0,4.1l0,1.4c0,50.5,15.8,88.6,36.8,88.6c21,0,36.8-38.1,36.8-88.6l0-5.5
		l-4.1,0.3c-10.7,0.9-21.7,1.4-32.7,1.4c-11,0-22.1-0.5-32.7-1.4L329.9,394z M337.4,402.1c9.6,0.7,19.4,1.2,29.2,1.2
		c9.9,0,19.6-0.4,29.2-1.2c-0.6,47-15.4,78.4-29.2,78.4C352.8,480.5,338,449.1,337.4,402.1z"/>
	
		<linearGradient id="path2875_1_" gradientUnits="userSpaceOnUse" x1="342.9571" y1="382.784" x2="342.4842" y2="263.1051" gradientTransform="matrix(3.125 0 0 3.125 -704.5573 -659.6517)">
		<stop  offset="0" style="stop-color:#EAEEED"/>
		<stop  offset="1" style="stop-color:#61696C"/>
	</linearGradient>
	<path id="path2875" class="st0" d="M529.3,313.1c0.3,1,0.7,1.9,0.9,2.9c1.4,5.7,1.1,11.2-0.7,16.6c24.5,20.2,39,45.2,39,72.2
		c0,67.5-90.4,122.2-201.8,122.2c-111.5,0-201.8-54.7-201.8-122.2c0-27,14.5-52,39-72.2c-1.8-5.4-2.1-11-0.7-16.6
		c0.3-1,0.7-2.1,1.2-3.1c-33.5,23.8-53.8,55.1-53.8,89.3c0,74.7,96.8,135.3,216.1,135.3c119.4,0,216.1-60.6,216.1-135.3
		C582.8,368.1,562.6,336.9,529.3,313.1"/>
	<g id="g2597">
		<path id="path2831" class="st1" d="M371.4,642.1c-0.1-26.3,21.1-47.5,47.6-47.6c25.8,0,47,21.3,47.6,47.6
			c-0.5,26-21.7,47.2-47.6,47.6C392.5,689.3,371.3,668.1,371.4,642.1z M419,672.1c14.3-0.2,26.1-13.7,26.3-30.1
			c-0.1-16.7-12-30.1-26.3-30.1c-14.9-0.1-26.8,13.3-26.3,30.1C392.2,658.5,404,671.9,419,672.1"/>
		<path id="path2833" class="st1" d="M520.3,614.5v72.6h-20v-72.6h-28.8v-16.2h76.4v16.2H520.3"/>
		<path id="path2835" class="st1" d="M571.6,667.1L571.6,667.1l-7.5,20.1h-23.8l37.5-88.9h25l36.3,88.9h-23.8l-7.5-20.1H571.6z
			 M590.4,652.1H603l-12.5-32.6l-12.5,32.6H590.4"/>
		<path id="path2837" class="st1" d="M152.3,614.5v72.6h-20v-72.6h-27.5v-16.2h75.1v16.2H152.3"/>
		<path id="path2839" class="st1" d="M184.9,642.1c0-26.3,21.2-47.5,47.5-47.6c26,0,47.2,21.3,47.6,47.6
			c-0.4,26-21.6,47.2-47.6,47.6C206.1,689.3,184.9,668.1,184.9,642.1z M232.4,672.1c14.5-0.2,26.3-13.7,26.3-30.1
			c0-16.7-11.8-30.1-26.3-30.1c-14.8-0.1-26.6,13.3-26.3,30.1C205.8,658.5,217.6,671.9,232.4,672.1"/>
		<path id="path2841" class="st1" d="M325,687.1h10v-33.8l35.1-55.1h-22.5L325,635.8l-21.3-37.5H280l35.1,55.1v33.8H325"/>
	</g>
	<path id="path2885" class="st2" d="M396.7,362.6c-9.5,0.7-19.6,1.1-30,1.1c-10.5,0-20.5-0.4-30-1.1h0l-6.2,4.5
		c11.5,1,23.6,1.6,36.3,1.6c12.7,0,24.8-0.6,36.3-1.6L396.7,362.6z M507.1,315.2c-7.6-25.1-70.1-43.5-140.4-43.5
		c-70.3,0-132.8,18.4-140.4,43.5c-6.6,21.8,29.4,41.9,86.1,49.9l-4.9-6c-45.9-7.8-73.1-24.5-66.9-42.2c7.6-21.5,63-37.1,126.1-37.1
		c63.1,0,118.5,15.6,126.1,37.1c6.3,17.7-21,34.3-66.9,42.2l-4.9,6C477.7,357.1,513.6,336.9,507.1,315.2"/>
	
		<linearGradient id="path2895_1_" gradientUnits="userSpaceOnUse" x1="407.0241" y1="462.2631" x2="407.0241" y2="367.1505" gradientTransform="matrix(1.6572 0 0 -1.6572 -307.8649 1039.6637)">
		<stop  offset="0" style="stop-color:#60686B"/>
		<stop  offset="1" style="stop-color:#C5D1CD"/>
	</linearGradient>
	<path id="path2895" class="st3" d="M396.7,362.6c-9.5,0.7-19.6,1.1-30,1.1c-10.5,0-20.5-0.4-30-1.1h0l-6.2,4.5
		c11.5,1,23.6,1.6,36.3,1.6c12.7,0,24.8-0.6,36.3-1.6L396.7,362.6z M507.1,315.2c-7.6-25.1-70.1-43.5-140.4-43.5
		c-70.3,0-132.8,18.4-140.4,43.5c-6.6,21.8,29.4,41.9,86.1,49.9l-4.9-6c-45.9-7.8-73.1-24.5-66.9-42.2c7.6-21.5,63-37.1,126.1-37.1
		c63.1,0,118.5,15.6,126.1,37.1c6.3,17.7-21,34.3-66.9,42.2l-4.9,6C477.7,357.1,513.6,336.9,507.1,315.2"/>
	<path id="path2905" class="st2" d="M336.7,362.6c5.3-29.3,16.7-47.6,29.9-47.6c13.3,0,24.7,18.3,30,47.6h0.1l6.2,4.5
		c-5.2-38.6-19.4-63.3-36.2-63.3c-16.8,0-31,24.7-36.2,63.3l6.2-4.5H336.7"/>
	
		<linearGradient id="path2915_1_" gradientUnits="userSpaceOnUse" x1="387.5804" y1="438.0193" x2="440.3954" y2="376.6536" gradientTransform="matrix(1.6572 0 0 -1.6572 -307.8649 1039.6637)">
		<stop  offset="0" style="stop-color:#707978"/>
		<stop  offset="1" style="stop-color:#D9DEDC"/>
	</linearGradient>
	<path id="path2915" class="st4" d="M336.7,362.6c5.3-29.3,16.7-47.6,29.9-47.6c13.3,0,24.7,18.3,30,47.6h0.1l6.2,4.5
		c-5.2-38.6-19.4-63.3-36.2-63.3c-16.8,0-31,24.7-36.2,63.3l6.2-4.5H336.7"/>
	<path id="path2925" class="st2" d="M404.7,389l-5,9.1c0,0.7,0,1.3,0,2c0,48.5-14.8,85.3-33.1,85.3c-18.3,0-33.1-36.8-33.1-85.3
		c0-0.8,0-1.5,0-2.3l-5-8.9c-0.1,3.6-0.2,7.3-0.2,11.1c0,55,17.1,96.7,38.3,96.7c21.2,0,38.3-41.7,38.3-96.7
		C405,396.3,404.9,392.6,404.7,389"/>
	
		<linearGradient id="path2935_1_" gradientUnits="userSpaceOnUse" x1="392.134" y1="394.5011" x2="461.5183" y2="291.4992" gradientTransform="matrix(1.6572 0 0 -1.6572 -307.8649 1039.6637)">
		<stop  offset="0" style="stop-color:#67706F"/>
		<stop  offset="1" style="stop-color:#D6DEDC"/>
	</linearGradient>
	<path id="path2935" class="st5" d="M404.7,389l-5,9.1c0,0.7,0,1.3,0,2c0,48.5-14.8,85.3-33.1,85.3c-18.3,0-33.1-36.8-33.1-85.3
		c0-0.8,0-1.5,0-2.3l-5-8.9c-0.1,3.6-0.2,7.3-0.2,11.1c0,55,17.1,96.7,38.3,96.7c21.2,0,38.3-41.7,38.3-96.7
		C405,396.3,404.9,392.6,404.7,389"/>
	
		<linearGradient id="path2945_1_" gradientUnits="userSpaceOnUse" x1="407.0146" y1="463.3429" x2="407.0146" y2="370.0602" gradientTransform="matrix(1.6572 0 0 -1.6572 -307.8649 1039.6637)">
		<stop  offset="0" style="stop-color:#CAD3D0"/>
		<stop  offset="1" style="stop-color:#95A09C"/>
	</linearGradient>
	<path id="path2945" class="st6" d="M364.1,271.8c-26.2,2.1-48.3,36.7-56.6,87.3l4.8,5.9h0.1c7-52,27.5-90.9,51.9-93.3
		C364.2,271.8,364.2,271.8,364.1,271.8z M369,271.8c24.4,2.4,44.9,41.2,51.9,93.3h0.1l4.8-5.9C417.4,308.4,395.3,273.8,369,271.8z"
		/>
	
		<linearGradient id="path2985_1_" gradientUnits="userSpaceOnUse" x1="407.0146" y1="392.2741" x2="407.0146" y2="244.3089" gradientTransform="matrix(1.6572 0 0 -1.6572 -307.8649 1039.6637)">
		<stop  offset="0" style="stop-color:#B9BEBE"/>
		<stop  offset="1" style="stop-color:#586160"/>
	</linearGradient>
	<path id="path2985" class="st7" d="M310.3,386.7l-6.2,7.3c-0.1,3.5-0.2,7-0.2,10.5c0,76.5,26.7,131.2,61.1,132.9
		c-30.6-2-55.2-60.8-55.2-132.9C309.8,398.6,310,392.6,310.3,386.7L310.3,386.7z M423,386.7c0.3,5.9,0.6,11.8,0.6,17.9
		c0,72.1-24.6,130.9-55.2,132.9c34.4-1.7,61.1-56.4,61.1-132.9c0-3.6-0.1-7-0.2-10.5L423,386.7L423,386.7z"/>
	<path id="path3017" class="st8" d="M529.5,332.6c9.4,7.7,17.3,16.2,23.5,25.1c-2.2-14.6-8-28-16.5-39.3c-2.3-1.8-4.7-3.7-7.2-5.4
		c0.3,1,0.7,1.9,0.9,2.9C531.6,321.7,531.3,327.2,529.5,332.6"/>
	<path id="path3019" class="st8" d="M203.8,332.6c-1.8-5.4-2.1-11-0.7-16.6c0.3-1,0.7-2.1,1.2-3.1c-2.6,1.8-5,3.7-7.4,5.6
		c-8.5,11.3-14.3,24.7-16.5,39.3C186.6,348.8,194.5,340.4,203.8,332.6"/>
	
		<linearGradient id="path3029_1_" gradientUnits="userSpaceOnUse" x1="407.0146" y1="472.8864" x2="407.0146" y2="176.2494" gradientTransform="matrix(1.6572 0 0 -1.6572 -307.8649 1039.6637)">
		<stop  offset="0" style="stop-color:#EAEEED"/>
		<stop  offset="0.5" style="stop-color:#D2DDD7"/>
		<stop  offset="1" style="stop-color:#5B6463"/>
	</linearGradient>
	<path id="path3029" class="st9" d="M366.7,252.6c-133.7,0-242,67.2-242,150c0,82.9,108.4,150,242,150c133.7,0,242-67.1,242-150
		C608.7,319.8,500.3,252.6,366.7,252.6z M366.7,271.7c70.3,0,132.8,18.4,140.4,43.5c6.6,21.8-29.4,41.9-86.1,49.9
		C413.7,311.3,392.1,271.7,366.7,271.7z M366.7,271.7c-25.5,0-47,39.6-54.3,93.4c-56.7-8-92.7-28.1-86.1-49.9
		C233.8,290.1,296.4,271.7,366.7,271.7z M366.7,303.7c16.8,0,31,24.7,36.2,63.4c-11.5,1-23.6,1.6-36.2,1.6
		c-12.6,0-24.8-0.6-36.2-1.6C335.6,328.4,349.9,303.7,366.7,303.7z M204.2,313c-0.5,1-0.8,2.1-1.1,3.1
		c-7.9,31.4,37.2,60.4,107.2,70.7c-0.3,5.9-0.5,11.8-0.5,17.9c0,73.4,25.4,132.9,56.8,132.9c31.4,0,56.9-59.5,56.9-132.9
		c0-6.1-0.2-12-0.5-17.9c70-10.3,115.1-39.3,107.2-70.7c-0.2-1-0.5-1.9-0.9-2.9c33.3,23.8,53.5,55,53.5,89.1
		c0,74.7-96.8,135.3-216.1,135.3c-119.4,0-216.1-60.6-216.1-135.3C150.5,368,170.8,336.8,204.2,313z M328.6,388.9
		c12.1,1.2,24.9,1.8,38.1,1.8c13.2,0,26-0.6,38.1-1.8c0.1,3.6,0.2,7.4,0.2,11.2c0,55-17.1,96.6-38.3,96.6
		c-21.2,0-38.3-41.6-38.3-96.6C328.3,396.3,328.4,392.6,328.6,388.9z"/>
	<path id="path3089" class="st10" d="M328.5,388.9L328.5,388.9l5.2,9.2c10.6,0.9,21.6,1.4,32.9,1.4c11.4,0,22.4-0.5,33.1-1.4
		l5.1-9.1l0,0c-12.2,1.2-24.9,1.8-38.2,1.8C353.4,390.7,340.6,390.1,328.5,388.9z M531,324.5c-1.3,28-44.4,52.8-108,62.2l0,0
		l6.2,7.4C491.5,383,532.5,355.5,531,324.5z M202.3,324.5c-1.5,31,39.5,58.4,101.8,69.6l6.2-7.4l0,0
		C246.6,377.4,203.6,352.5,202.3,324.5"/>
	
		<linearGradient id="path3099_1_" gradientUnits="userSpaceOnUse" x1="307.8091" y1="408.9155" x2="636.6382" y2="408.9155" gradientTransform="matrix(1.6572 0 0 -1.6572 -307.8649 1039.6637)">
		<stop  offset="0" style="stop-color:#687170"/>
		<stop  offset="1" style="stop-color:#687170;stop-opacity:0"/>
	</linearGradient>
	<path id="path3099" class="st11" d="M328.5,388.9L328.5,388.9l5.2,9.2c10.6,0.9,21.6,1.4,32.9,1.4c11.4,0,22.4-0.5,33.1-1.4
		l5.1-9.1l0,0c-12.2,1.2-24.9,1.8-38.2,1.8C353.4,390.7,340.6,390.1,328.5,388.9z M531,324.5c-1.3,28-44.4,52.8-108,62.2l0,0
		l6.2,7.4C491.5,383,532.5,355.5,531,324.5z M202.3,324.5c-1.5,31,39.5,58.4,101.8,69.6l6.2-7.4l0,0
		C246.6,377.4,203.6,352.5,202.3,324.5"/>
</g>
</svg>
