<?xml version="1.0" encoding="utf-8"?>
<!-- Generator: Adobe Illustrator 21.1.0, SVG Export Plug-In . SVG Version: 6.00 Build 0)  -->
<svg version="1.1" id="Layer_1" xmlns="http://www.w3.org/2000/svg" xmlns:xlink="http://www.w3.org/1999/xlink" x="0px" y="0px"
	 viewBox="0 0 208.5 214.5" style="enable-background:new 0 0 208.5 214.5;" xml:space="preserve">
<style type="text/css">
	.st0{fill:#ED1C24;}
</style>
<g>
	<path class="st0" d="M103.8,200.9c-25.6,0-48.9-10.4-65.7-27.2S10.9,133.6,10.9,108s10.4-48.9,27.2-65.7
		C54.9,25.4,78.2,15,103.8,15s48.9,10.4,65.7,27.2s27.2,40.1,27.2,65.7s-10.4,48.9-27.2,65.7C152.7,190.5,129.4,200.9,103.8,200.9
		L103.8,200.9z M186.1,99c-0.2-2.2-1.7-16.3-9.6-30.5c-1.2-2.1-15.1-29.6-48.4-40c-3.4-1.1-10.7-3.2-21.2-3.7
		c-1.2-0.1-0.6-0.1-4.3-0.1s-12.4,0.3-21.8,3c-0.8,0.2-10,2.5-19.9,8.4c-1,0.6-19.4,9.8-32.6,34.6C27.1,73,21.9,83,19.9,97.5
		c-0.3,1.9-1.8,13.4,0.9,27.5c0.4,1.9,2.5,14.9,13.5,31.6c0.8,1.1,10.3,15.1,27,24.7c1.6,0.9,16.2,9,33.4,10.6
		c1,0.1,20.2,2.3,38.7-5.2c1.4-0.5,21.1-7.4,36.6-27.8c1-1.3,10.2-13.2,14.3-30.4C184.6,126.6,187.7,115.1,186.1,99 M83.6,173.6
		c0.1,0.1-0.2,0.2-0.2,0.2c-0.9,0.7-3.5,2.5-3.8,2.7s-2.9,2-3,2.1s-0.2,0.2-0.2,0.2l-0.3,0.2c0,0,0,0-0.1,0l-1-0.4
		c-9.7-3.8-17-9.4-17.4-9.7c-5.7-4.3-11.1-10-11.4-10.3c-2.5-2.8-3.9-4.9-4-5.1c-0.1-0.2-0.1-0.3-0.1-0.5s0.2-0.4,0.2-0.7
		c0.1-0.2,0-0.5,0-0.5s0.1,0,0.4,0c0.2,0,1,0,1.4-0.1c1.4-0.2,2-0.7,2.3-0.8c0.6-0.2,0.9-0.5,1.3-0.6s1.1-0.2,2-0.2s3.6,0.1,4.2,0.1
		s1.5,0.1,2.3,0.3s3.1,1.7,3.8,2.1c4.5,3,11.9,5.5,12.2,5.7c0.1,0.1,0.2,0.1,0.2-0.1c0-0.1-0.4-2.1-0.4-2.5
		c-0.1-0.4-0.1-1.1-0.1-1.4c0-0.3,0.2-0.2,0.5-0.1c0.3,0.2,2.7,1.8,3.1,2c0.3,0.2,0.7,0.5,0.9,0.6c0,0,0.2,0.2,0.3,0.2l0.1,0.1
		c0.1,0.3,1.1,3,1.2,3.3c2.5,6.7,5.3,11.9,5.4,12.1C83.2,172.8,83.5,173.5,83.6,173.6 M112.8,76.5c1.6-1.7,2.1-1.7,2.4-1.8
		c1.1-0.2,3,0.1,3.3,0.2c2.7,0.6,4.9,1.7,5,1.9c0.2,0.2,0,0.3-0.1,0.4c-2.2,1.8-2.9,2.2-3.6,2.4c-0.7,0.2-1.5,0-1.8-0.2
		c-0.3-0.1-1.7-0.9-2.2-1.2c-0.6-0.2-2.7-1.2-3-1.3C112.5,76.8,112.7,76.6,112.8,76.5 M97.8,73.2C87.7,79.1,83,85.9,82.9,86.1
		c-0.1,0.2,0.2,0.1,0.2,0.1c0.2,0,2.4-0.2,2.6-0.2c0,0,0.6-0.1,0.4,0C86,86.1,76,93.5,72.6,104.5c0,0.1,0.1,0.1,0.2,0.1
		c0.2,0,3.6-0.8,3.8-0.8h0.1c0.2,0,0,0.2,0,0.2l-0.1,0.2c-6.8,8.7-8.7,23.7-8.7,23.9s0.2,0.1,0.2,0.1c2.3-0.8,5.3-1.8,6.4-2.1
		c0,0,0.2,0,0.1,0c-0.3,2-0.5,5.3-0.5,5.4c0,0.1-0.1,0.1-0.1,0.1c-1.6,0-6.6,0.1-7.1,0.1c-0.6,0-9.2,0.2-9.9,0.2c-0.7,0-3.2,0-3.8,0
		c-0.7,0-0.8-0.1-1.2-0.3c-0.4-0.2-0.7-0.6-0.9-0.7c-2.3-1.7-3.6-2-3.8-2.1c-1.5-0.5-4.2-0.4-4.4-0.4c-0.1,0-0.2-0.1-0.3-0.3
		c-0.5-1.2-1-3.6-1.2-4.3c-2-8.7-1.9-14.7-1.9-15.8c0.1-8.5,1.6-14.4,1.6-14.7c0-0.3,0.4-1.9,0.4-2s0.1-0.1,0.2-0.1h30.8
		c0.2,0,0.3,0,0.3-0.2c0.1-0.1,3.1-5.7,3.4-6.2c0.3-0.5,7.4-13,7.7-13.4s3.4-6,3.5-6.2c0.1-0.2,0.1-0.3-0.1-0.3H54.8
		c-0.3,0-0.4-0.1-0.6-0.2c-0.2-0.1-0.8-0.5-0.9-0.6C53.2,64,53.1,64,53,64s-2.9,0.6-3.3,0.7c-0.3,0.1-0.5,0.2-0.6,0.4
		c-0.2,0.2-3.3,4.5-3.6,5c-5.3,7.7-7.5,14.2-7.7,14.7c-2.3,5.8-3.3,13-3.3,13.5c-1.1,6.1-0.5,14.4-0.5,14.9
		c0.6,7.4,2.5,14.6,2.6,14.8c0,0.2-0.2,0.2-0.5,0.3c-0.3,0.1-1.3,0.3-2,0.5c-0.7,0.2-1.6,1-1.8,1.2c-0.2,0.2-0.3,0.2-0.5,0.2
		c-0.1,0-0.4-0.2-0.6-0.3c-0.2-0.1-0.6,0-0.7,0c-0.2,0.1-0.2,0-0.3-0.1c-1.7-5.8-2.2-10.1-2.3-10.8c-1.2-7.5-0.8-13.9-0.7-15.3
		c0.4-6.8,1.7-12,2-13.2c1.3-5.6,3.5-10.8,3.7-11.4c3.2-7.4,5.8-11.3,6.8-12.8c4.5-6.8,7.8-10,9.5-11.7c8.2-8.2,15.5-11.9,17-12.8
		c12.9-7.3,25.5-8.7,27.4-8.9c12.7-1.4,21,0.4,24.1,1c0,0,3.6,0.5,10.4,3.4c0,0-0.7-0.1-3.5-0.3c-3.6-0.2-7.7,0-8.3,0.1
		c-4.5,0.3-8,1.1-8.5,1.3c-6.9,1.6-12.4,4.3-12.5,4.3c-6.6,3-11.3,7.9-11.5,8c-0.2,0.2-0.1,0.1,0,0.1c2.5-0.7,6.5-1.5,6.9-1.6
		c6.3-1.3,12.7-1.1,13.7-1.1c6.9,0.1,12.3,1.3,13.1,1.5c7.2,1.5,12.3,4.5,12.8,4.8c8.1,4.5,12.1,8.7,12.5,9.1
		c4.5,4.3,7.2,8.6,7.4,8.9c3.2,4.6,5.4,10.3,5.6,10.6c1.9,4.9,2.7,9.7,2.8,10.2c0.9,5.1,0.7,9.9,0.7,10.4
		c-0.2,5.6-1.7,10.2-1.8,10.5c0,0-4.4,15.8-19.8,24.9c0,0-0.1,0.1-0.3,0.1c-0.5,0-1.5-0.3-2.1-0.5c-1.3-0.4-2.9-1.3-3.3-1.5
		c-4.1-2.5-6.8-5.9-7.3-6.3c-2.9-3.4-5.5-8.1-5.6-8.4c-1.8-3.9-2.5-6.7-2.5-7.1c-1-4.8-1.2-8.4-1.2-9.1c0-2.8,0.5-4.7,0.6-5
		c0.3-1.5,1-2.8,1.1-3c1.4-2.1,3-2.6,3.2-2.7c1.3-0.6,3.6-0.7,4-0.7s3.9,0,4.1,0c0.2,0,0.5,0,0.6-0.1s0.1-0.3,0-0.5
		c-0.3-0.7-1.1-1.1-1.4-1.3c-2.7-1.9-6.3-2.9-6.6-3s-0.1-0.2,0-0.3c3.5-1.2,6.9-0.9,7.4-0.9c3.4,0,4.7,1.1,4.9,1.2
		c1.4,1,2.4,3.4,2.5,3.6c0,0.2,0.1,0.3,0.1,0.1c0.1-0.2,0.2-0.4,0.3-0.7c1.9-3.7,1.9-5.1,2-5.3c0.4-1.7,0.2-3.4,0.2-3.6
		c-0.1-1.7-0.9-2.8-1-3c-1.2-1.8-2.6-2.3-2.9-2.4c-1.9-0.9-5.1-1.5-5.7-1.6c-0.6-0.1-0.9-0.2-1.1-0.3c-0.2-0.1-0.3-0.2-0.4-0.4
		c-0.1-0.2-0.4-1.1-0.5-1.4l-0.4-1.1c-0.5-1.4-4.1-2.2-4.1-2.2c-1.7-0.4-3.8-0.5-4.4-0.5c-0.6,0-3-0.1-3.2-0.1
		c-2.2-0.2-2.2-0.4-2.9-0.7c-0.7-0.3-1-0.9-1.1-1.1c-0.5-0.9-0.4-2-0.4-2.2c0-1.5,0.8-3.9,0.9-4.3c0.1-0.3,0.3-1,0.4-1.1
		c0-0.1,0-0.2-0.2-0.1c-1.2,0.5-4.5,2.5-4.8,2.6c-2.1,1.2-4.3,3-4.4,3c-2.1,1.7-3.5,4.8-3.7,5.1L97.8,73.2z M60,88
		c-0.1,0-0.2,0-0.2-0.2s-1.5-6.4-1.6-6.8c-0.1-0.5-1.7-7.6-1.8-8.1c-0.1-0.5-0.9-4-0.9-4.2c0-0.1,0-0.2,0.2-0.2s6.2,0,6.4,0
		c0.1,0,0.1,0.1,0.1,0.2c0,0.1,0.2,0.7,0.3,1.1c0,0.4,1.5,6.3,1.6,6.9c0.1,0.6,1.3,5.8,1.4,6c0,0.1,0.1,0.2,0.1,0.2
		c0.1,0,0.1-0.1,0.2-0.2c0.1-0.1,3.3-6.1,3.5-6.3c0.1-0.2,4.1-7.4,4.2-7.5c0.1-0.2,0.2-0.3,0.4-0.3s6,0,6.2,0s0.2,0.1,0.1,0.2
		c0,0.1-0.1,0.2-0.2,0.4c-0.1,0.2-3.6,6.4-3.9,6.9c-0.3,0.5-3.3,5.9-3.6,6.3c-0.3,0.5-3,5.3-3.1,5.5s-0.2,0.2-0.3,0.2L60,88z"/>
</g>
</svg>
