<?xml version="1.0" encoding="utf-8"?>
<!-- Generator: Adobe Illustrator 21.1.0, SVG Export Plug-In . SVG Version: 6.00 Build 0)  -->
<svg version="1.1" id="Layer_1" xmlns="http://www.w3.org/2000/svg" xmlns:xlink="http://www.w3.org/1999/xlink" x="0px" y="0px"
	 viewBox="0 0 587.1 519" style="enable-background:new 0 0 587.1 519;" xml:space="preserve">
<style type="text/css">
	.st0{fill:url(#ellipse106_1_);}
	.st1{fill:url(#ellipse108_1_);}
	.st2{fill:#172654;}
	.st3{fill:none;stroke:#000000;stroke-width:0.5;stroke-miterlimit:79.8403;}
	.st4{fill:#182756;}
	.st5{fill-opacity:0.502;}
	.st6{fill:url(#path112_1_);stroke:#000000;stroke-width:0.4;stroke-miterlimit:79.8403;}
	.st7{fill:#1C3F79;}
	.st8{fill:#B3B3B3;stroke:#000000;stroke-width:0.5;stroke-miterlimit:79.8403;}
	.st9{fill:#B2B2B2;}
	.st10{fill:#D9D9D9;stroke:#000000;stroke-width:3.2;}
	.st11{fill:#F9F9F9;stroke:#000000;stroke-width:0.5;stroke-miterlimit:79.8403;}
	.st12{fill:none;stroke:#000000;stroke-width:3;stroke-linecap:round;stroke-linejoin:round;}
	.st13{fill:none;stroke:#000000;stroke-width:2;stroke-linecap:round;stroke-linejoin:round;}
	.st14{fill:none;stroke:#1A1A1A;stroke-width:1.6;stroke-linecap:round;stroke-linejoin:round;}
	.st15{fill:url(#path3243_1_);stroke:#1A1A1A;stroke-width:0.2;stroke-miterlimit:79.8403;}
	.st16{fill:none;stroke:#000000;stroke-width:1.5;stroke-linecap:round;stroke-linejoin:round;}
</style>
<g id="Layer_14">
	<g id="layer2">
		
			<radialGradient id="ellipse106_1_" cx="178.5144" cy="483.141" r="398.827" gradientTransform="matrix(1 0 0 -1 0 622)" gradientUnits="userSpaceOnUse">
			<stop  offset="0" style="stop-color:#365FA4"/>
			<stop  offset="1" style="stop-color:#15224E"/>
		</radialGradient>
		<ellipse id="ellipse106" class="st0" cx="293.8" cy="259.7" rx="213.7" ry="213.7"/>
		
			<radialGradient id="ellipse108_1_" cx="-240.9417" cy="219.8956" r="155.433" gradientTransform="matrix(0.7071 0.7071 0.7071 -0.7072 248.399 529.7411)" gradientUnits="userSpaceOnUse">
			<stop  offset="0" style="stop-color:#98B5DD"/>
			<stop  offset="1" style="stop-color:#1C3F79"/>
		</radialGradient>
		<ellipse id="ellipse108" class="st1" cx="293.8" cy="259.7" rx="173.5" ry="173.5"/>
		<g id="path4113">
			<path class="st2" d="M231.5,142.3c19.6,44.5,33.9,77.1,53.5,121.7c13.8,0,57.6,60.5,70.3,60.4c3.5,0-25.5-60.5-21.8-60.5
				c19.5-44.4,38.6-79.4,58.2-123.8c0.8,1.8-10.3-8.9-36.5-20c-13.5,29.5-30.9,63.3-44.3,92.8c-10.8-23.6-36.8-57.6-36.8-85.7
				c0-7,55.5-5.4,54.6-4.1c-2.3,3.1-35.6-25.6-36.9-28.5C268.1,98,235.6,127.8,231.5,142.3L231.5,142.3z"/>
			<path class="st3" d="M231.5,142.3c19.6,44.5,33.9,77.1,53.5,121.7c13.8,0,57.6,60.5,70.3,60.4c3.5,0-25.5-60.5-21.8-60.5
				c19.5-44.4,38.6-79.4,58.2-123.8c0.8,1.8-10.3-8.9-36.5-20c-13.5,29.5-30.9,63.3-44.3,92.8c-10.8-23.6-36.8-57.6-36.8-85.7
				c0-7,55.5-5.4,54.6-4.1c-2.3,3.1-35.6-25.6-36.9-28.5C268.1,98,235.6,127.8,231.5,142.3L231.5,142.3z"/>
		</g>
		<g id="path4167">
			<polygon class="st4" points="296.7,313 303.9,327.5 271.7,391.7 326,392.3 335.6,405.4 255.6,399.2 			"/>
		</g>
		<path id="path110" class="st5" d="M120.4,267.9c0-98.6,80-178.6,178.6-178.6s178.6,80,178.6,178.6s-80,178.6-178.6,178.6
			S120.4,366.5,120.4,267.9z M342.1,410.4l-9.1-20.5l-33.7-69.3l-33.5,69l-9.3,20.9c13.5,4,27.7,6.2,42.5,6.2
			C314,416.7,328.4,414.5,342.1,410.4L342.1,410.4z M235.4,402.4l-79-177c-4,13.5-6.2,27.7-6.2,42.5
			C150.2,327.3,185.1,378.6,235.4,402.4z M447.8,267.9c0-14.3-2-28.2-5.8-41.3l-78.3,175.3C413.5,377.8,447.8,326.9,447.8,267.9
			L447.8,267.9z M353.4,340.8l66.3-159.9c-11.4-15.8-25.9-29.3-42.6-39.6l-54.5,119.4h-46.5L221.4,141c-16.6,10.2-31,23.5-42.5,39.1
			l66.5,160.4l30.3-67.8h0.4l0,0h0.2l46.5-0.3l-0.3,0.6h0.6L353.4,340.8z M299.3,212.2l41.3-87.2c-13.2-3.8-27.1-5.9-41.6-5.9
			c-14.2,0-28,2-41,5.7L299.3,212.2L299.3,212.2z"/>
		
			<linearGradient id="path112_1_" gradientUnits="userSpaceOnUse" x1="113.4401" y1="158.4538" x2="289.4875" y2="-132.5732" gradientTransform="matrix(0.9631 0 0 -1 93.4693 257.045)">
			<stop  offset="0" style="stop-color:#000000"/>
			<stop  offset="1" style="stop-color:#FFFFFF"/>
		</linearGradient>
		<path id="path112" class="st6" d="M121.8,254.9c0-98.6,77.1-178.6,172-178.6s172,80,172,178.6s-77.1,178.6-172,178.6
			C198.8,433.5,121.8,353.5,121.8,254.9z M335.2,397.3l-8.7-20.5l-32.4-69.3l-32.3,69l-8.9,20.9c13,4,26.7,6.2,40.9,6.2
			C308.2,403.7,322.1,401.4,335.2,397.3L335.2,397.3z M232.5,389.4l-76.1-177c-3.9,13.5-5.9,27.7-5.9,42.5
			C150.5,314.2,184,365.5,232.5,389.4L232.5,389.4z M437.1,254.9c0-14.3-2-28.2-5.6-41.3l-75.4,175.3
			C404,364.8,437.1,313.8,437.1,254.9L437.1,254.9z M348.7,325.5L409,181.1c-11-15.8-25.9-35.5-42-45.8l-50.6,112.3h-44.8
			l-52.5-119.7c-16,10.2-29.9,23.5-40.9,39.1l64,160.4l28.8-60.8c3.7,1.7,6.3-1.2,6.3-1.2s26.6,0,42.5-0.3L348.7,325.5z
			 M294.1,199.2l39.7-87.2c-12.7-3.8-26.1-5.9-40-5.9c-13.7,0-27,2-39.5,5.7L294.1,199.2z"/>
		<g id="path3327">
			<path class="st7" d="M225.3,136.7c-2,4.9-64.5,17.9-68.9,31.6c27,59.3,52.4,119.2,80.3,178.1c6.4,2,26.7,2.3,33.3,3.7l-22.8-58.7
				c-22.8-54.9-28.9-59.5-51.8-114.3C185.3,176.5,231.5,147.3,225.3,136.7z"/>
		</g>
		<path id="path3217" class="st8" d="M233,115.4c-11.6,5.1-9.8,5.1-15.9,25.8c19.6,42.9,33.9,74.3,53.5,117.2
			c17.6,0,34.7-0.9,52.3-0.9c19.5-42.8,33.1-72.9,52.6-115.7c0.8,1.7-7-17.8-7.2-19.1c-13.5,28.4-58.4,58.2-71.8,86.6
			c-13.5-28.5-34.6-67.4-48-95.9C245.1,114.9,236.3,114,233,115.4L233,115.4z"/>
		<path id="path117" class="st9" d="M72.5,259.7c0-122.2,99.1-221.3,221.3-221.3c122.1,0,221.2,99.1,221.2,221.3
			c0,122.1-99.1,221.2-221.3,221.2C171.6,480.9,72.5,381.8,72.5,259.7z M504.2,259.7c0-116.1-94.3-210.4-210.4-210.4
			S83.4,143.6,83.4,259.7s94.3,210.4,210.4,210.4C409.9,470.1,504.2,375.8,504.2,259.7L504.2,259.7z"/>
		<path id="path119" class="st10" d="M73.7,259.7c0-121.5,98.6-220.1,220.1-220.1s220.1,98.6,220.1,220.1s-98.6,220.1-220.1,220.1
			C172.3,479.7,73.7,381.1,73.7,259.7L73.7,259.7z M505.4,259.7c0-116.8-94.8-211.6-211.6-211.6C177,48.1,82.2,142.9,82.2,259.7
			S177,471.3,293.8,471.3C410.6,471.2,505.4,376.5,505.4,259.7L505.4,259.7z"/>
		<path id="path3223" class="st11" d="M162.9,174.8c-5.8,13.2-6.8,8.6-11.3,22.3c27,59.3,52.4,119.2,80.3,178.1
			c6.4,2,11.8,6,18.4,7.4c14.7-31.4,31.3-56.9,46.5-87.9c15.2,31,28.8,56.3,43.8,87.4c10.6-1.7,22.5-7.3,24.6-18.9
			c24.7-55.3,40.4-125.7,65.3-181l-21.7-0.9c-22.4,54.5-39.5,84.9-61.9,139.5c0.8,51.7,6.6,66.2-4.8,42.2
			c-1.5,0.5-58.9-97.9-59.4-97.9h-13.2c0,0-16.5,30.8-27.1,55c-22.8-54.9-40.1-90.2-62.9-145C169.4,174.7,163.5,173.4,162.9,174.8
			L162.9,174.8z"/>
		<path id="path3313" class="st12" d="M268.8,411c6.5,4.8,55.5,0.9,68.6-6.5"/>
		<path id="path3309" class="st13" d="M282,265.3l-39.1,86.3"/>
		<path id="path3311" class="st14" d="M167.3,174.7l74.3,177.2"/>
		
			<linearGradient id="path3243_1_" gradientUnits="userSpaceOnUse" x1="104.133" y1="159.439" x2="136.2268" y2="-45.8057" gradientTransform="matrix(1 0 0 -1 181.8955 369.4375)">
			<stop  offset="0" style="stop-color:#FFFFFF"/>
			<stop  offset="1" style="stop-color:#9E9F9C"/>
		</linearGradient>
		<path id="path3243" class="st15" d="M110.8,259.7c0-101,82-183,183-183s183,82,183,183s-82,182.9-183,182.9
			C192.8,442.6,110.8,360.7,110.8,259.7z M337.9,405.6l-9.3-21l-34.5-71l-34.4,70.7l-9.5,21.4c13.8,4.1,28.4,6.3,43.5,6.3
			C309.1,412.1,323.9,409.8,337.9,405.6L337.9,405.6z M228.6,397.5l-80.9-181.3c-4.1,13.8-6.3,28.4-6.3,43.5
			C141.4,320.5,177,373,228.6,397.5z M446.2,259.7c0-14.7-2.1-28.9-5.9-42.3l-80.2,179.5C411,372.3,446.2,320,446.2,259.7
			L446.2,259.7z M348.2,348l74.9-166.1c-11.7-16.2-37-48.2-54.1-58.8l-59.2,134.5h-27.4l-59.3-136.8c-17,10.4-46,37.5-57.7,53.6
			L243,350.9c13-27.9,26.8-57.6,39.8-85.5c0-0.4,25.7,0.4,23.8-0.1L348.2,348z M294.1,202.6l42.3-89.3c-13.5-3.9-27.8-6-42.6-6
			c-14.6,0-28.7,2.1-42,5.9L294.1,202.6z"/>
		<path id="path3301" class="st13" d="M370,123.4c27,21.5,36.6,39.2,52.9,58.3l0,0"/>
		<path id="path3303" class="st12" d="M440.5,219.1c21.7,87.1-23.6,149.6-79.4,177"/>
		<path id="path3305" class="st13" d="M422.4,181.7L347.8,349l-40.5-82.7"/>
		<path id="path3307" class="st16" d="M165.9,174.5l77.4,175.6"/>
	</g>
</g>
</svg>
