<?xml version="1.0" encoding="utf-8"?>
<!-- Generator: Adobe Illustrator 21.1.0, SVG Export Plug-In . SVG Version: 6.00 Build 0)  -->
<svg version="1.1" id="Layer_1" xmlns="http://www.w3.org/2000/svg" xmlns:xlink="http://www.w3.org/1999/xlink" x="0px" y="0px"
	 viewBox="0 0 2500 2788" style="enable-background:new 0 0 2500 2788;" xml:space="preserve">
<style type="text/css">
	.st0{fill:#BCBCB6;}
	.st1{fill:url(#SVGID_1_);}
	.st2{fill:url(#SVGID_2_);}
	.st3{fill:url(#SVGID_3_);}
	.st4{fill:url(#SVGID_4_);}
	.st5{opacity:0.67;fill:url(#SVGID_5_);enable-background:new    ;}
	.st6{opacity:0.67;fill:url(#SVGID_6_);enable-background:new    ;}
	.st7{opacity:0.67;fill:url(#SVGID_7_);enable-background:new    ;}
	.st8{opacity:0.67;fill:url(#SVGID_8_);enable-background:new    ;}
	.st9{opacity:0.67;fill:url(#SVGID_9_);enable-background:new    ;}
	.st10{opacity:0.67;fill:url(#SVGID_10_);enable-background:new    ;}
	.st11{opacity:0.67;fill:url(#SVGID_11_);enable-background:new    ;}
	.st12{opacity:0.86;fill:url(#SVGID_12_);enable-background:new    ;}
	.st13{fill:url(#SVGID_13_);}
	.st14{fill:url(#SVGID_14_);}
	.st15{fill:url(#SVGID_15_);}
	.st16{fill:none;stroke:#A7A79C;stroke-width:0.34;stroke-linecap:round;}
	.st17{fill:none;stroke:#C2C2B9;stroke-width:0.236;stroke-linecap:round;}
	.st18{fill:none;stroke:#E0E0D8;stroke-width:0.132;stroke-linecap:round;}
	.st19{fill:none;stroke:#FFFFFF;stroke-width:2.800000e-02;stroke-linecap:round;}
	.st20{fill:url(#SVGID_16_);}
	.st21{fill:url(#SVGID_17_);}
	.st22{fill:#FFFFFF;}
	.st23{fill:#39393C;}
	.st24{fill:url(#SVGID_18_);}
</style>
<path class="st0" d="M1250,599c220.6,0,416.7,89.9,559.6,232.8c147.1,143,232.8,343.1,232.8,563.7c0,216.4-85.8,416.7-232.8,559.6
	c-143,143-339.1,232.8-559.6,232.8c-220.6,0-416.7-89.9-563.7-232.8c-143-143-232.8-343.1-232.8-559.6
	c0-220.6,89.9-420.8,232.8-563.8C833.3,688.9,1029.4,599,1250,599L1250,599z M1250,611.2c-206.9,0.2-405.2,82.5-551.5,228.8
	c-143,143-232.8,339.1-232.8,555.6c0,216.4,89.9,412.5,232.8,551.5c138.9,143,334.9,228.8,551.5,228.8
	c216.5,0,412.6-85.8,551.5-228.8c143-138.9,228.8-335,228.8-551.5S1944.4,983,1801.5,840C1655.2,693.7,1456.9,611.5,1250,611.2
	L1250,611.2z"/>
<radialGradient id="SVGID_1_" cx="1318.5106" cy="1357.2344" r="44.665" gradientTransform="matrix(56.7357 0 0 -56.7357 -74424.1016 78155.9219)" gradientUnits="userSpaceOnUse">
	<stop  offset="0" style="stop-color:#FFFFFF"/>
	<stop  offset="4.100000e-02" style="stop-color:#FAFAF8"/>
	<stop  offset="0.225" style="stop-color:#F8F8F5"/>
	<stop  offset="0.287" style="stop-color:#DADAD7"/>
	<stop  offset="0.413" style="stop-color:#A3A4A1"/>
	<stop  offset="0.52" style="stop-color:#7E7F7D"/>
	<stop  offset="0.6" style="stop-color:#686866"/>
	<stop  offset="0.646" style="stop-color:#5F5F5D"/>
	<stop  offset="0.739" style="stop-color:#565754"/>
	<stop  offset="0.899" style="stop-color:#3B3A37"/>
	<stop  offset="1" style="stop-color:#000000"/>
</radialGradient>
<path class="st1" d="M1250,178.2c277.8,0,535.1,93.9,739.4,249.2l134.8-134.8l236.9,236.9l-134.8,138.9
	c151.1,204.2,236.9,453.4,236.9,723c0,669.9-543.3,1217.3-1213.2,1217.3S36.8,2061.4,36.8,1391.5C36.8,721.5,580.1,178.2,1250,178.2
	z M1250,464.2c-510.6,0-927.3,416.7-927.3,927.3c0,514.7,416.7,927.3,927.3,927.3s927.3-412.6,927.3-927.3
	C2177.3,880.9,1760.6,464.2,1250,464.2z"/>
<linearGradient id="SVGID_2_" gradientUnits="userSpaceOnUse" x1="1325.3604" y1="1355.8599" x2="1341.3744" y2="1350.3458" gradientTransform="matrix(56.7357 0 0 -56.7357 -74424.1016 78155.9219)">
	<stop  offset="0" style="stop-color:#DCDBD3"/>
	<stop  offset="1" style="stop-color:#FFFFFF"/>
</linearGradient>
<path class="st2" d="M1250,460.1c257.4,0,490.2,102.1,661.8,273.7c175.7,175.3,274.3,413.5,273.7,661.8
	c0,257.3-106.2,490.2-273.7,661.8C1740.2,2224.7,1507.4,2331,1250,2331c-248.1-0.2-486-98.6-661.8-273.6
	c-167.5-171.6-273.7-404.5-273.7-661.8c0-261.4,106.2-494.3,273.7-661.8C755.7,562.2,992.6,460.1,1250,460.1L1250,460.1z
	 M1250,472.4c-253.3,0-486.1,102.1-653.6,269.6s-269.6,396.2-269.6,653.6c0,253.3,102.1,486.1,269.6,653.6
	c167.4,163.4,400.3,269.6,653.6,269.6s486.1-106.2,653.7-269.6c173-173.5,270-408.6,269.6-653.6c0-257.4-102.2-486.1-269.6-653.7
	C1730.1,568.9,1495,472,1250,472.4L1250,472.4z"/>
<radialGradient id="SVGID_3_" cx="1346.5106" cy="1339.2354" r="49.019" gradientTransform="matrix(56.7357 0 0 -56.7357 -74424.1016 78155.9219)" gradientUnits="userSpaceOnUse">
	<stop  offset="0" style="stop-color:#BBBCB7"/>
	<stop  offset="1" style="stop-color:#808079"/>
</radialGradient>
<path class="st3" d="M1250,170.1c277.8,0,539.2,94,743.5,253.3l-4.1,4.1c-212.6-161.8-472.3-249.3-739.4-249.3
	C580.1,178.2,36.8,721.5,36.8,1391.5c0,669.9,543.3,1217.3,1213.2,1217.3s1213.2-547.4,1213.2-1217.3c0-269.6-85.8-518.8-236.9-723
	l4.1-4.1c151.1,204.3,241,453.4,241,727.1c0,339.1-138.9,645.4-359.5,866S1589,2612.9,1250,2612.9
	c-323.1,0.7-633.2-127.2-861.9-355.4c-220.6-224.7-359.5-527-359.5-866c0-335,138.9-641.3,359.5-861.9S910.9,170.1,1250,170.1z"/>
<radialGradient id="SVGID_4_" cx="1341.5116" cy="1345.2354" r="34.422" gradientTransform="matrix(56.7357 0 0 -56.7357 -74424.1016 78155.9219)" gradientUnits="userSpaceOnUse">
	<stop  offset="0" style="stop-color:#FFFFFF"/>
	<stop  offset="0.157" style="stop-color:#F1F1F2"/>
	<stop  offset="0.298" style="stop-color:#E4E4E5"/>
	<stop  offset="0.335" style="stop-color:#CECFCE"/>
	<stop  offset="0.4" style="stop-color:#AEAFAC"/>
	<stop  offset="0.464" style="stop-color:#969694"/>
	<stop  offset="0.526" style="stop-color:#858683"/>
	<stop  offset="0.586" style="stop-color:#7C7C79"/>
	<stop  offset="0.64" style="stop-color:#787976"/>
	<stop  offset="0.738" style="stop-color:#5E5E5B"/>
	<stop  offset="0.846" style="stop-color:#43423F"/>
	<stop  offset="0.937" style="stop-color:#1F1F1E"/>
	<stop  offset="1" style="stop-color:#000000"/>
</radialGradient>
<path class="st4" d="M1250,468.3c510.6,0,927.3,412.6,927.3,927.3c0,510.6-416.7,927.3-927.3,927.3s-927.3-416.7-927.3-927.3
	C322.7,880.9,739.4,468.3,1250,468.3L1250,468.3z M1250,599c-437.1,0-792.5,355.4-792.5,796.6c0,437,355.4,792.5,792.5,792.5
	s792.5-355.4,792.5-792.5C2042.5,954.4,1687.1,599,1250,599L1250,599z"/>
<linearGradient id="SVGID_5_" gradientUnits="userSpaceOnUse" x1="1314.3418" y1="1347.7384" x2="1314.3418" y2="1347.8594" gradientTransform="matrix(56.7357 0 0 -56.7357 -74424.1016 78155.9219)">
	<stop  offset="0" style="stop-color:#FFFFFF"/>
	<stop  offset="0.17" style="stop-color:#F8F8F5"/>
	<stop  offset="0.427" style="stop-color:#B1B1AC"/>
	<stop  offset="0.435" style="stop-color:#ADAEA8"/>
	<stop  offset="0.534" style="stop-color:#898984"/>
	<stop  offset="0.633" style="stop-color:#6C6C67"/>
	<stop  offset="0.731" style="stop-color:#53534E"/>
	<stop  offset="0.825" style="stop-color:#3E3E3A"/>
	<stop  offset="0.916" style="stop-color:#252523"/>
	<stop  offset="1" style="stop-color:#1B1A19"/>
</linearGradient>
<path class="st5" d="M141.5,1685.9c0,1.2,0.3,2.2,0.9,3.2c0.5,1,1.4,1.4,2.6,1.4c0.9,0,1.7-0.2,2.7-0.7c1-0.6,2-1.2,2.8-2v-9
	c-3.4,0.6-5.7,1.4-7,2.6C142.2,1682.5,141.5,1684.1,141.5,1685.9L141.5,1685.9z"/>
<linearGradient id="SVGID_6_" gradientUnits="userSpaceOnUse" x1="1317.3601" y1="1348.1943" x2="1317.3601" y2="1348.2434" gradientTransform="matrix(56.7357 0 0 -56.7357 -74424.1016 78155.9219)">
	<stop  offset="0" style="stop-color:#FFFFFF"/>
	<stop  offset="0.17" style="stop-color:#F8F8F5"/>
	<stop  offset="0.427" style="stop-color:#B1B1AC"/>
	<stop  offset="0.435" style="stop-color:#ADAEA8"/>
	<stop  offset="0.534" style="stop-color:#898984"/>
	<stop  offset="0.633" style="stop-color:#6C6C67"/>
	<stop  offset="0.731" style="stop-color:#53534E"/>
	<stop  offset="0.825" style="stop-color:#3E3E3A"/>
	<stop  offset="0.916" style="stop-color:#252523"/>
	<stop  offset="1" style="stop-color:#1B1A19"/>
</linearGradient>
<path class="st6" d="M314.4,1660.1h5.7v4.8h-5.7V1660.1z"/>
<linearGradient id="SVGID_7_" gradientUnits="userSpaceOnUse" x1="1317.3601" y1="1348.0903" x2="1317.3601" y2="1348.1414" gradientTransform="matrix(56.7357 0 0 -56.7357 -74424.1016 78155.9219)">
	<stop  offset="0" style="stop-color:#FFFFFF"/>
	<stop  offset="0.17" style="stop-color:#F8F8F5"/>
	<stop  offset="0.427" style="stop-color:#B1B1AC"/>
	<stop  offset="0.435" style="stop-color:#ADAEA8"/>
	<stop  offset="0.534" style="stop-color:#898984"/>
	<stop  offset="0.633" style="stop-color:#6C6C67"/>
	<stop  offset="0.731" style="stop-color:#53534E"/>
	<stop  offset="0.825" style="stop-color:#3E3E3A"/>
	<stop  offset="0.916" style="stop-color:#252523"/>
	<stop  offset="1" style="stop-color:#1B1A19"/>
</linearGradient>
<path class="st7" d="M314.4,1665.8h5.7v4.9h-5.7V1665.8z"/>
<linearGradient id="SVGID_8_" gradientUnits="userSpaceOnUse" x1="1315.3551" y1="1347.7384" x2="1315.3551" y2="1347.8594" gradientTransform="matrix(56.7357 0 0 -56.7357 -74424.1016 78155.9219)">
	<stop  offset="0" style="stop-color:#FFFFFF"/>
	<stop  offset="0.17" style="stop-color:#F8F8F5"/>
	<stop  offset="0.427" style="stop-color:#B1B1AC"/>
	<stop  offset="0.435" style="stop-color:#ADAEA8"/>
	<stop  offset="0.534" style="stop-color:#898984"/>
	<stop  offset="0.633" style="stop-color:#6C6C67"/>
	<stop  offset="0.731" style="stop-color:#53534E"/>
	<stop  offset="0.825" style="stop-color:#3E3E3A"/>
	<stop  offset="0.916" style="stop-color:#252523"/>
	<stop  offset="1" style="stop-color:#1B1A19"/>
</linearGradient>
<path class="st8" d="M199,1685.9c0,1.2,0.3,2.2,0.9,3.2c0.5,1,1.4,1.4,2.6,1.4c0.9,0,1.8-0.2,2.7-0.7s1.8-1.1,2.8-2v-9
	c-3.4,0.6-5.7,1.4-7,2.6C199.7,1682.5,198.9,1684.1,199,1685.9L199,1685.9z"/>
<linearGradient id="SVGID_9_" gradientUnits="userSpaceOnUse" x1="1317.8872" y1="1347.9963" x2="1317.8872" y2="1348.0734" gradientTransform="matrix(56.7357 0 0 -56.7357 -74424.1016 78155.9219)">
	<stop  offset="0" style="stop-color:#FFFFFF"/>
	<stop  offset="0.17" style="stop-color:#F8F8F5"/>
	<stop  offset="0.427" style="stop-color:#B1B1AC"/>
	<stop  offset="0.435" style="stop-color:#ADAEA8"/>
	<stop  offset="0.534" style="stop-color:#898984"/>
	<stop  offset="0.633" style="stop-color:#6C6C67"/>
	<stop  offset="0.731" style="stop-color:#53534E"/>
	<stop  offset="0.825" style="stop-color:#3E3E3A"/>
	<stop  offset="0.916" style="stop-color:#252523"/>
	<stop  offset="1" style="stop-color:#1B1A19"/>
</linearGradient>
<path class="st9" d="M339.3,1668.5H355v7.4h-15.7V1668.5z"/>
<linearGradient id="SVGID_10_" gradientUnits="userSpaceOnUse" x1="1317.3002" y1="1345.8374" x2="1317.3002" y2="1347.3793" gradientTransform="matrix(56.7357 0 0 -56.7357 -74424.1016 78155.9219)">
	<stop  offset="0" style="stop-color:#FFFFFF"/>
	<stop  offset="0.17" style="stop-color:#F8F8F5"/>
	<stop  offset="0.427" style="stop-color:#B1B1AC"/>
	<stop  offset="0.435" style="stop-color:#ADAEA8"/>
	<stop  offset="0.534" style="stop-color:#898984"/>
	<stop  offset="0.633" style="stop-color:#6C6C67"/>
	<stop  offset="0.731" style="stop-color:#53534E"/>
	<stop  offset="0.825" style="stop-color:#3E3E3A"/>
	<stop  offset="0.916" style="stop-color:#252523"/>
	<stop  offset="1" style="stop-color:#1B1A19"/>
</linearGradient>
<path class="st10" d="M497.5,1642.8H63.1c10.7,51,25.6,100.5,42.5,148.9h459C537.2,1744.5,514.7,1694.6,497.5,1642.8z M312.3,1652.3
	l3.3,2.1l-1.2,1.4v3.5h5.4l1.2-1.9l2.3,2.7l-1.2,1.4v3.6h0.6l1.6-2.1l2.4,3.1h-4.8l0.1,6.5l-2.1,1.2v-1.9h-5.7v5.6h4.3l1.5-2.3
	l2.3,3.3h-8.1v5.2h7l1.6-2.7l2.6,3.5h-11.2c0,2.2,0.1,4.5,0.3,6.9l-2.4,1.1c0.1-3,0.2-5.6,0.2-8.1h-6c-0.8,0-1.6,0.2-2.3,0.6
	l-1.4-1.5h9.6v-5.2h-4.4c-0.9,0-1.4,0.2-1.8,0.6l-1.2-1.5h7.4v-5.6h-4.4c-0.9,0-1.4,0.2-1.8,0.6l-1.2-1.6h7.4v-4.9h-6.5
	c-0.9,0-1.4,0.2-1.8,0.6l-1.2-1.5h9.5v-4.8h-4.1c-0.9,0-1.4,0.2-1.8,0.6l-1.2-1.5h7C312.5,1656.9,312.5,1654.6,312.3,1652.3
	L312.3,1652.3z M133.6,1691.6h-11.7v-1.2h3.5c0.6,0,0.9-0.1,1.1-0.4s0.3-0.6,0.3-1.1v-27.3c0-0.4-0.1-0.8-0.3-1.1
	c-0.3-0.3-0.7-0.5-1.1-0.5H122v-1.1h1.7c1.8,0,3.5-0.5,4.9-1.6h0.3v31.6c0,0.5,0.1,0.9,0.3,1.1c0.3,0.2,0.6,0.4,1,0.4h3.5
	L133.6,1691.6L133.6,1691.6L133.6,1691.6z M154.9,1690.6c-0.5,0.7-1.2,1.1-1.9,1.1c-0.6,0-1.2-0.2-1.6-0.6c-0.5-0.6-0.8-1.2-0.9-1.9
	c-0.9,0.8-1.8,1.5-2.8,2s-2,0.7-3.1,0.7c-1.6,0.1-3.1-0.5-4.1-1.6c-1-1-1.5-2.3-1.5-3.6c0-2.3,0.8-4.2,2.3-5.7
	c1.5-1.4,4.6-2.5,9.2-3.2v-2.3c0-1.1-0.2-2.2-0.7-3.2c-0.5-0.9-1.5-1.2-3.1-1.2s-2.9,0.3-3.5,1.1c-0.7,0.7-1,1.4-0.7,2.2
	c0.2,0.5,0.2,1,0,1.5s-0.7,0.8-1.2,0.8c-0.4,0-0.7-0.2-1-0.5c-0.3-0.4-0.4-0.9-0.5-1.4c0-1.2,0.7-2.3,1.9-3.3c1.4-1,3.1-1.5,4.8-1.5
	c2,0,3.5,0.5,4.5,1.4c1.1,1,1.5,2.3,1.5,4.1v12.7c0,1.1,0.1,1.6,0.2,1.8c0.2,0.2,0.4,0.3,0.9,0.3s0.9-0.3,1.1-0.9s0.3-1.4,0.3-2.4
	h0.7C155.7,1688.7,155.5,1689.9,154.9,1690.6L154.9,1690.6z M174.4,1691.6h-6.3v-1.2h0.8c0.5,0,0.9-0.1,1.1-0.4
	c0.2-0.3,0.2-0.6,0.2-1.1V1676c0.1-1.2-0.2-2.4-0.7-3.5c-0.4-0.8-1.3-1.3-2.2-1.2c-1,0.1-2,0.5-2.8,1.2c-1.1,0.9-2,2-2.6,3.3v13.2
	c0,0.5,0.1,0.9,0.4,1.1c0.2,0.2,0.6,0.4,1,0.4h0.7v1.2h-6.3v-1.2h0.7c0.6,0,0.9-0.1,1.1-0.4c0.2-0.3,0.3-0.6,0.3-1.1v-16.5
	c0-0.3-0.1-0.7-0.2-0.9c-0.1-0.2-0.3-0.3-0.6-0.3h-1.4v-1.1h1.1c0.6,0,1.1-0.1,1.5-0.2s0.9-0.4,1.3-0.9h0.3v4.4
	c0.8-1.1,1.7-2,2.7-2.8c0.8-0.6,1.8-1,2.8-1c1.7,0,3,0.6,3.7,1.6c0.9,1.6,1.3,3.4,1.2,5.2v12.3c0,0.5,0.1,0.9,0.4,1.1
	c0.3,0.2,0.6,0.4,1,0.4h0.7v1.3H174.4z M190.3,1690.1c-0.9,1.2-2,1.7-3.5,1.7s-2.6-0.6-3.3-1.7s-1.2-3-1.2-5.4v-13.4H178v-1.1h1.2
	c1.2,0,2.3-0.5,3-1.4c0.8-1,1.2-2.4,1.4-4.5l0.1-1.5h0.9v7.4h6v1.1h-6v14.2c0,1.8,0.3,3.1,0.8,3.6c0.5,0.7,1.2,1,2.3,1
	c0.9,0,1.8-0.4,2.4-1.2c0.7-1.1,1.1-2.3,1.2-3.5l0.8,0.4C191.8,1687.4,191.2,1688.9,190.3,1690.1L190.3,1690.1z M212.4,1690.6
	c-0.5,0.7-1.1,1.1-1.9,1.1c-0.7,0-1.2-0.2-1.6-0.6c-0.5-0.4-0.7-1.1-1-1.9c-0.9,0.8-1.8,1.5-2.8,2c-0.9,0.5-2,0.7-3.1,0.7
	c-3,0.2-5.5-2.1-5.7-5.1c0-0.1,0-0.1,0-0.2c0-2.1,0.8-4.2,2.3-5.7c1.5-1.4,4.6-2.5,9.2-3.2v-2.3c0-1.1-0.2-2.2-0.7-3.2
	c-0.5-0.9-1.5-1.2-3.1-1.2c-1.7,0-3,0.3-3.6,1.1c-0.7,0.7-1,1.4-0.7,2.2c0.2,0.6,0.2,1.1,0,1.5c-0.2,0.5-0.6,0.8-1.2,0.8
	c-0.4,0-0.7-0.2-1-0.5c-0.3-0.4-0.4-0.9-0.4-1.4c0-1.2,0.6-2.3,1.9-3.3c1.4-1,3.1-1.6,4.8-1.5c1.9,0,3.5,0.5,4.5,1.4
	c1,1,1.4,2.3,1.4,4.1v12.7c0,1.1,0.1,1.6,0.2,1.8c0.2,0.2,0.4,0.3,0.9,0.3s0.9-0.3,1-0.9c0.2-0.6,0.3-1.4,0.3-2.4h0.7
	C213.2,1688.2,213,1689.5,212.4,1690.6L212.4,1690.6z M231,1674.1c-0.2,0.5-0.6,0.6-1.1,0.6c-0.6,0-1-0.2-1.2-0.6
	c-0.3-0.4-0.3-1-0.2-1.5l-0.1-1c-0.1-0.2-0.3-0.3-0.9-0.3c-0.9,0-1.8,0.6-3,1.9c-1.3,1.6-2.4,3.4-3.1,5.4v10.4
	c0,0.5,0.1,0.9,0.3,1.1s0.6,0.4,1,0.4h3.3v1.2h-11v-1.2h3.1c0.5,0,0.9-0.1,1.1-0.4c0.2-0.3,0.3-0.6,0.3-1.1v-15.9
	c0-0.4-0.1-0.9-0.3-1.2c-0.2-0.3-0.6-0.5-1.1-0.5H215v-1.1h1.2c1.6,0,3.3-0.3,4.8-1h0.5v6.9c0.8-1.7,1.9-3.3,3.2-4.7
	c0.9-1,2.2-1.6,3.5-1.6c1,0,1.8,0.3,2.3,0.9c0.6,0.6,0.9,1.1,0.9,1.9C231.4,1673.3,231.3,1673.8,231,1674.1z M273.3,1684.3v7.7
	c0,2.7-1.1,4.5-3.3,5.6c-0.1-1.9-1.6-3.3-4.7-4.1v-0.8l4.3,0.5c1,0.1,1.3-0.7,1.3-2.4v-6.4h-12c-1,0-2.1,0.2-3,0.6l-1.2-1.5H271
	l-0.1-5.6l1.9,1.1l4-4.4h-12.3l-1.3,0.6l-1.2-1.5h14.8l1.6-1.9l2.7,3.8c-1.4-0.2-3.9,1.1-7.8,4l1.5,1l-1.5,1.2v1.6h10l2.1-2.7l3,3.6
	L273.3,1684.3L273.3,1684.3z M288.6,1672.9c-1.4,0-2.6,0.8-3.3,2.3c-5.8-3-10.2-8.2-12-14.5h-0.9c0,5.9,0.1,9.5,0.1,10.7l-2.6,0.9
	c0.1-2.8,0.2-6.3,0.2-10.6c-3.3,6.9-8.8,12.4-15.7,15.7l-0.1-0.9c6-3.8,10.8-9.3,13.7-15.8h-9.2c-1,0-2.1,0.2-3,0.6l-1.2-1.5h15.5
	l-0.2-6.9l3.9,2.1l-1.4,1.3v3.5h11l2.1-2.7l2.7,3.6H274c2.4,6.2,8,10.5,14.5,11.5v0.7H288.6z M327.2,1693.5c-2,0.8-3,1.6-2.7,2.9
	c-3.1,0.1-6.3,0.1-9.4,0c-3.1,0-6.2-0.7-9-1.9c-2.4-1-4.5-2.5-6.2-4.4c-1.8,3-4.2,5.5-7,7.4l-0.5-0.6c2.7-2.4,4.9-5.3,6.4-8.6
	c-1.6-3.1-2.8-6.4-3.6-9.8l0.6-0.3c0.9,2.8,2.1,5.5,3.6,8.1c1-3.3,1.7-7.7,2.1-13h-4.4l-1.2,2.1l-2-2.7l1.8-1
	c1.8-3.7,3.5-7.4,5.1-11.2h-4.9l-1.7,0.6l-1.2-1.5h8l1.3-2.1l2.1,3.1l-1.6,1c-1.6,3.5-3.5,7.1-5.4,10.9h4l1.2-1.7l2.3,2.7l-1.3,1.3
	c-0.4,4.5-1.3,9-2.7,13.3c1.4,1.7,3.3,2.9,5.3,3.6c2.6,0.9,5.3,1.5,8,1.6c3,0.3,7.4,0,13.2-0.5L327.2,1693.5L327.2,1693.5z
	 M364.1,1693.1c-1.8,0.4-2.8,1.4-3.1,3.1c-2.6-1-5.1-2.3-7.4-3.8c-2.2-1.6-4.2-3.6-5.7-5.8c-1.9-2.9-3.1-6.2-3.8-9.6h-4.8v15.3
	l8.1-4.4l0.3,0.6c-3.6,2.1-6.7,4.8-9.2,8.1l-1.8-3.2c0.4-0.7,0.7-1.5,0.7-2.3v-27.6c0-2-0.1-3.8-0.2-5.3l2.1,1.9h7.6
	c-0.3-2.4-1.2-4.7-2.6-6.6l0.3-0.6c2.5,1.4,3.9,2.7,4.3,3.8c0.3,1.1,0,2.3-1,3.5h6.8l1.2-1.9l2.4,2.7l-1.4,1.1v10.9l0.1,5l-2.1,1
	v-1.7H345c0.9,3,2.3,5.8,4,8.3c3.5-2,6.7-4.6,9.3-7.7l2.2,3.8h-1.8c-3,1.3-6,3-9.1,4.5c1.9,2.2,4.3,3.9,7,4.9c2.4,0.9,5,1.4,7.5,1.4
	V1693.1L364.1,1693.1z"/>
<linearGradient id="SVGID_11_" gradientUnits="userSpaceOnUse" x1="1317.8872" y1="1348.1464" x2="1317.8872" y2="1348.2153" gradientTransform="matrix(56.7357 0 0 -56.7357 -74424.1016 78155.9219)">
	<stop  offset="0" style="stop-color:#FFFFFF"/>
	<stop  offset="0.17" style="stop-color:#F8F8F5"/>
	<stop  offset="0.427" style="stop-color:#B1B1AC"/>
	<stop  offset="0.435" style="stop-color:#ADAEA8"/>
	<stop  offset="0.534" style="stop-color:#898984"/>
	<stop  offset="0.633" style="stop-color:#6C6C67"/>
	<stop  offset="0.731" style="stop-color:#53534E"/>
	<stop  offset="0.825" style="stop-color:#3E3E3A"/>
	<stop  offset="0.916" style="stop-color:#252523"/>
	<stop  offset="1" style="stop-color:#1B1A19"/>
</linearGradient>
<path class="st11" d="M339.3,1660.9H355v6.7h-15.7V1660.9z"/>
<linearGradient id="SVGID_12_" gradientUnits="userSpaceOnUse" x1="618.8209" y1="1345.8385" x2="618.8209" y2="1347.3804" gradientTransform="matrix(-56.7357 0 0 -56.7357 37295.8867 78155.9219)">
	<stop  offset="0" style="stop-color:#FFFFFF"/>
	<stop  offset="0.17" style="stop-color:#F8F8F5"/>
	<stop  offset="0.427" style="stop-color:#B1B1AC"/>
	<stop  offset="0.435" style="stop-color:#ADAEA8"/>
	<stop  offset="0.534" style="stop-color:#898984"/>
	<stop  offset="0.633" style="stop-color:#6C6C67"/>
	<stop  offset="0.731" style="stop-color:#53534E"/>
	<stop  offset="0.825" style="stop-color:#3E3E3A"/>
	<stop  offset="0.916" style="stop-color:#252523"/>
	<stop  offset="1" style="stop-color:#1B1A19"/>
</linearGradient>
<path class="st12" d="M2003.1,1642.8h434.3c-10.9,50.5-25.1,100.3-42.5,148.9h-459C1963.2,1744.8,1985.9,1695.1,2003.1,1642.8z"/>
<path d="M2459.2,1085.1c28.6,98.1,40.8,200.2,40.8,306.4c0,110.3-16.3,216.4-40.8,318.6H44.9v-4.1H2455
	c28.6-102.1,40.8-208.3,40.8-318.6C2495.9,1281.2,2483.7,1179.1,2459.2,1085.1L2459.2,1085.1z"/>
<radialGradient id="SVGID_13_" cx="1313.7625" cy="1357.2333" r="27.789" gradientTransform="matrix(56.7357 0 0 -56.7357 -74424.1016 78155.9219)" gradientUnits="userSpaceOnUse">
	<stop  offset="0" style="stop-color:#1E71B8"/>
	<stop  offset="8.199999e-02" style="stop-color:#1C69AB"/>
	<stop  offset="0.166" style="stop-color:#1B64A4"/>
	<stop  offset="0.242" style="stop-color:#1A63A1"/>
	<stop  offset="0.392" style="stop-color:#185D98"/>
	<stop  offset="0.685" style="stop-color:#0F4D80"/>
	<stop  offset="0.837" style="stop-color:#004472"/>
	<stop  offset="0.933" style="stop-color:#014472"/>
	<stop  offset="0.968" style="stop-color:#064271"/>
	<stop  offset="0.993" style="stop-color:#0D3F6F"/>
	<stop  offset="1" style="stop-color:#0F3D6E"/>
</radialGradient>
<path class="st13" d="M40.8,1081h2418.3c24.5,98,36.7,200.1,36.7,306.3c0,110.3-12.3,216.5-40.8,318.6H44.9
	C15.4,1602.3,0.3,1495.1,0,1387.4C0,1281.2,16.3,1179.1,40.8,1081z"/>
<linearGradient id="SVGID_14_" gradientUnits="userSpaceOnUse" x1="1354.4027" y1="1363.1234" x2="1343.5757" y2="1373.9514" gradientTransform="matrix(56.7357 0 0 -56.7357 -74424.1016 78155.9219)">
	<stop  offset="6.000000e-03" style="stop-color:#121209"/>
	<stop  offset="0.646" style="stop-color:#454441"/>
	<stop  offset="0.65" style="stop-color:#484845"/>
	<stop  offset="0.655" style="stop-color:#535350"/>
	<stop  offset="0.66" style="stop-color:#646561"/>
	<stop  offset="0.664" style="stop-color:#7B7B77"/>
	<stop  offset="0.669" style="stop-color:#969792"/>
	<stop  offset="0.674" style="stop-color:#BBBBB7"/>
	<stop  offset="0.678" style="stop-color:#E8E7E2"/>
	<stop  offset="0.68" style="stop-color:#FBFAF5"/>
	<stop  offset="0.682" style="stop-color:#F8F7F2"/>
	<stop  offset="0.684" style="stop-color:#F0F0EA"/>
	<stop  offset="0.685" style="stop-color:#E4E3DD"/>
	<stop  offset="0.686" style="stop-color:#D2D2CC"/>
	<stop  offset="0.687" style="stop-color:#BBBCB5"/>
	<stop  offset="0.689" style="stop-color:#A0A19A"/>
	<stop  offset="0.689" style="stop-color:#83847D"/>
	<stop  offset="0.69" style="stop-color:#6D6D67"/>
	<stop  offset="0.706" style="stop-color:#5F5F5B"/>
	<stop  offset="0.732" style="stop-color:#4D4D4B"/>
	<stop  offset="0.762" style="stop-color:#3B3A3A"/>
	<stop  offset="0.8" style="stop-color:#242324"/>
	<stop  offset="0.853" style="stop-color:#101010"/>
	<stop  offset="1" style="stop-color:#000000"/>
</linearGradient>
<path class="st14" d="M2173.2,210.9l269.6,269.7l-200.2,200.2l12.3,16.3l-143,114.3l-44.9,16.4l294.1-298.2l-236.9-236.9
	l-294.1,294.1l12.3-40.8L2173.2,210.9z"/>
<radialGradient id="SVGID_15_" cx="1353.5126" cy="1373.2344" r="11.613" gradientTransform="matrix(56.7357 0 0 -56.7357 -74424.1016 78155.9219)" gradientUnits="userSpaceOnUse">
	<stop  offset="0" style="stop-color:#575652"/>
	<stop  offset="1" style="stop-color:#52524E"/>
</radialGradient>
<path class="st15" d="M1903.6,182.3C2140.5,309,2332.5,505,2463.2,737.9V182.3H1903.6z"/>
<path class="st16" d="M1903.6,182.3C2140.5,309,2332.5,505,2463.2,737.9"/>
<path class="st17" d="M1903.6,182.3c234.5,128.3,427.3,321.1,555.6,555.6"/>
<path class="st18" d="M1899.5,182.3C2136.4,309,2328.4,505,2459.2,742"/>
<path class="st19" d="M1899.5,182.3C2132.4,313.1,2328.4,505,2455.1,742"/>
<linearGradient id="SVGID_16_" gradientUnits="userSpaceOnUse" x1="1345.1742" y1="1374.4375" x2="1355.3282" y2="1374.4375" gradientTransform="matrix(56.7357 0 0 -56.7357 -74424.1016 78155.9219)">
	<stop  offset="0" style="stop-color:#5D5E60"/>
	<stop  offset="1.900000e-02" style="stop-color:#5B5B5D"/>
	<stop  offset="0.205" style="stop-color:#484846"/>
	<stop  offset="0.41" style="stop-color:#343431"/>
	<stop  offset="0.649" style="stop-color:#222120"/>
	<stop  offset="1" style="stop-color:#1B1A19"/>
</linearGradient>
<path class="st20" d="M2463.2,170.1c4.1,0,8.2,4.1,8.2,12.3h-576.1c0.1-8.2,4.1-12.3,8.2-12.3
	C1903.5,170.1,2463.2,170.1,2463.2,170.1z"/>
<linearGradient id="SVGID_17_" gradientUnits="userSpaceOnUse" x1="1355.2208" y1="1364.3213" x2="1355.2208" y2="1374.5459" gradientTransform="matrix(56.7357 0 0 -56.7357 -74424.1016 78155.9219)">
	<stop  offset="0" style="stop-color:#5D5E60"/>
	<stop  offset="0.386" style="stop-color:#464543"/>
	<stop  offset="0.742" style="stop-color:#2A2927"/>
	<stop  offset="1" style="stop-color:#1B1A19"/>
</linearGradient>
<path class="st21" d="M2471.4,737.9c0,8.2-4.1,12.3-8.2,12.3l-4-8.2V170.1h4c4.1,0,8.2,4.1,8.2,12.3V737.9L2471.4,737.9z"/>
<g>
	<path class="st22" d="M2124.2,1544.3c-109,0-197.7-66.8-197.7-148.8s88.7-148.8,197.7-148.8c111.3,0,201.9,66.7,201.9,148.8
		C2326,1477.6,2235.5,1544.3,2124.2,1544.3z M2124.2,1291c-39.2,0-67.7,44-67.7,104.6c0,57.2,29.2,100.4,67.7,100.4
		c36.7,0,67.7-46,67.7-100.4C2192,1337.9,2161.5,1291,2124.2,1291z M882.4,1544.3c-109.1,0-197.8-66.8-197.8-148.8
		c0-78.5,90.6-144.7,197.8-144.7c111.3,0,201.9,65,201.9,144.7C1084.2,1477.6,993.7,1544.3,882.4,1544.3z M882.4,1295.1
		c-38.7,0-67.7,43.2-67.7,100.5c0,57.2,29.2,100.4,67.7,100.4c36.7,0,67.7-46,67.7-100.4C950,1341.2,919.1,1295.1,882.4,1295.1
		L882.4,1295.1z M1609.5,1536.1l-128.1-237.8l-63.8,1l-1.7-38.5l279.5-1.7l1.7,38.5l-71.1,1.7l99.5,164.9l82.8-167.4l-47.5,2.4
		l-1.7-38.5l193.7-1.7l1.7,38.5l-67.1,1.7l-125.6,236.9H1609.5L1609.5,1536.1z M1098.9,1536.1l-1.7-46.6l67.1-1.6l-1.7-190.3
		l-63.7,1.7l-1.7-38.5l259.1-1.7l1.7,38.5l-67.1,1.7l1.7,190.3l67.7-1.6c22,0,80-14.4,84-80.1l42.6-1.6l1.7,130h-389.7
		L1098.9,1536.1L1098.9,1536.1z M367.6,1536.1l-128.1-237.8l-63.8,1l-1.7-38.5l279.5-1.7l1.7,38.5l-71.1,1.7l99.5,164.9l86.9-167.4
		l-51.6,2.5l-1.7-38.5l193.7-1.7l1.7,38.5l-67.1,1.7l-125.6,236.9L367.6,1536.1L367.6,1536.1z"/>
	<path class="st23" d="M2124.2,1248.5c110.3,0,200.2,65.4,200.2,147.1c0,81.6-89.9,147.1-200.2,147.1
		c-106.2,0-196.1-65.4-196.1-147.1S2018,1248.5,2124.2,1248.5 M2124.2,1497.7c36.7,0,69.4-44.9,69.4-102.1
		c0-61.3-32.7-106.2-69.4-106.2c-40.8,0-69.5,44.9-69.5,106.2C2054.7,1452.7,2083.3,1497.7,2124.2,1497.7 M882.4,1252.6
		c110.2,0,200.1,65.4,200.1,143c0,81.6-89.9,147.1-200.1,147.1c-106.2,0-196.1-65.4-196.1-147.1
		C686.3,1317.9,776.1,1252.6,882.4,1252.6 M882.4,1497.7c36.7,0,69.4-44.9,69.4-102.1s-32.7-102.2-69.4-102.2
		c-40.9,0-69.5,44.9-69.5,102.2C812.9,1452.7,841.5,1497.7,882.4,1497.7 M1952.6,1260.8v36.7h-65.3l-126.6,236.9h-151.1L1483,1297.5
		h-65.4v-36.7h277.8v36.7H1626l98.1,167.5l85.8-167.5h-49v-36.7H1952.6 M1356.2,1260.8v36.7h-65.4v192h69.5
		c24.5,0,81.6-16.3,85.8-81.6h40.8v126.6h-388.1v-44.9h65.4v-192h-65.4v-36.7L1356.2,1260.8 M710.8,1260.8v36.7h-65.4l-126.6,236.9
		H367.6L241,1297.5h-65.4v-36.7h277.8v36.7H384l98,167.5l89.9-167.5h-53.1v-36.7H710.8 M2124.2,1245.1
		c-110,0-199.5,67.5-199.5,150.5c0,82.9,89.5,150.4,199.5,150.4c112.3,0,203.6-67.4,203.6-150.4
		C2327.8,1312.5,2236.4,1245.1,2124.2,1245.1z M2124.2,1494.3c-37.7,0-66-42.4-66-98.7c0-59.6,27.7-102.8,66-102.8
		c36.4,0,66,46.1,66,102.8C2190.2,1449.1,2160,1494.3,2124.2,1494.3z M882.4,1249.2c-108.1,0-199.5,67.1-199.5,146.4
		c0,82.9,89.5,150.4,199.5,150.4c112.3,0,203.6-67.4,203.6-150.4C1085.9,1314.8,994.6,1249.2,882.4,1249.2L882.4,1249.2z
		 M882.4,1494.3c-37.7,0-66-42.4-66-98.7c0-56.3,28.4-98.7,66-98.7c35.8,0,66,45.2,66,98.7C948.4,1449.1,918.2,1494.3,882.4,1494.3z
		 M1956,1257.3h-198.9v43.6h46.9l-80.3,157l-91.9-157h66.9v-43.6h-284.6v43.6h66.7l125.7,235.1l1,1.8h155.2l1-1.8l125.7-235.1h66.7
		L1956,1257.3L1956,1257.3L1956,1257.3z M1359.6,1257.3h-264.2v43.6h65.4v185.2h-65.4v51.8h394.9v-133.5h-47.5l-0.2,3.2
		c-4,64.4-60.8,78.5-82.4,78.5h-66V1301h65.4V1257.3L1359.6,1257.3z M714.2,1257.3H515.4v43.6h50.8l-84.3,157.2l-92-157.2h67v-43.6
		H172.2v43.6H239L364.7,1536l1,1.8h155.2l1-1.8l125.6-235h66.7V1257.3L714.2,1257.3z"/>
</g>
<linearGradient id="SVGID_18_" gradientUnits="userSpaceOnUse" x1="1317.6547" y1="1361.8583" x2="1324.1555" y2="1353.0653" gradientTransform="matrix(56.7357 0 0 -56.7357 -74424.1016 78155.9219)">
	<stop  offset="0" style="stop-color:#FFFFFF"/>
	<stop  offset="0.109" style="stop-color:#D5DDF0"/>
	<stop  offset="0.338" style="stop-color:#94ADD9"/>
	<stop  offset="0.542" style="stop-color:#668FC9"/>
	<stop  offset="0.714" style="stop-color:#447DBF"/>
	<stop  offset="0.848" style="stop-color:#2A74BA"/>
	<stop  offset="0.927" style="stop-color:#1E71B8"/>
	<stop  offset="0.947" style="stop-color:#4079BC"/>
	<stop  offset="0.967" style="stop-color:#5580C0"/>
	<stop  offset="0.985" style="stop-color:#6085C2"/>
	<stop  offset="1" style="stop-color:#6486C3"/>
</linearGradient>
<path class="st24" d="M45.3,1085.7c-24.5,98-40.8,200.1-40.8,306.3c0,8.8,3,60.8,3.3,69.6l7.1,78.9c-0.1-6.4-3.3-135-3.3-141.4
	c0-106.2,17.7-204.6,42.2-302.7l855.7-3.5l369.3-7.1L45.3,1085.7L45.3,1085.7z"/>
</svg>
